<svg xmlns="http://www.w3.org/2000/svg" width="188.873" height="34.968" viewBox="0 0 188.873 34.968">
  <g id="그룹_237" data-name="그룹 237" transform="translate(-203.203 -403.461)">
    <g id="그룹_236" data-name="그룹 236">
      <path id="패스_782" data-name="패스 782" d="M208.728,435.661H203.2v-29.62h5.525Zm.538-15.885q1.15-1.572,2.474-3.28t2.686-3.453q1.362-1.746,2.686-3.511t2.475-3.491h5.908q-1.113,1.8-2.436,3.683t-2.666,3.7q-1.344,1.824-2.629,3.473t-2.321,2.954L227.3,435.661h-6.177Z" fill="#ff9d00"/>
      <path id="패스_783" data-name="패스 783" d="M245.023,419.431a7.23,7.23,0,0,1,2.072.94,6.573,6.573,0,0,1,1.65,1.554,7.417,7.417,0,0,1,1.093,2.129,8.133,8.133,0,0,1,.4,2.59,8.972,8.972,0,0,1-.729,3.626,7.808,7.808,0,0,1-2.245,2.917,11.077,11.077,0,0,1-3.818,1.956,18.588,18.588,0,0,1-5.448.71q-.691,0-1.765-.058t-2.3-.134q-1.229-.077-2.456-.211t-2.263-.326V407.306q1.035-.422,2.187-.767t2.34-.613q1.189-.268,2.3-.4a17.754,17.754,0,0,1,2.11-.134,16.031,16.031,0,0,1,4.355.557,10.329,10.329,0,0,1,3.377,1.592,7.481,7.481,0,0,1,2.187,2.513,6.954,6.954,0,0,1,.786,3.319,6.623,6.623,0,0,1-.307,2.034,7.1,7.1,0,0,1-.824,1.745,6.214,6.214,0,0,1-1.209,1.362A6.054,6.054,0,0,1,245.023,419.431Zm-7.251-1.688a7.713,7.713,0,0,0,2.148-.288,5.41,5.41,0,0,0,1.746-.844,4.348,4.348,0,0,0,1.19-1.323,3.491,3.491,0,0,0,.441-1.766,3.574,3.574,0,0,0-.422-1.783,3.668,3.668,0,0,0-1.113-1.228,4.843,4.843,0,0,0-1.611-.71,7.862,7.862,0,0,0-1.919-.231,10.847,10.847,0,0,0-2.091.173q-.863.172-1.4.326v7.674Zm6.906,8.786a4.02,4.02,0,0,0-.518-2.071A4.426,4.426,0,0,0,242.779,423a6.47,6.47,0,0,0-1.976-.863,9.156,9.156,0,0,0-2.3-.288H234.74v9.516q1.074.153,1.881.211t1.956.057a10.479,10.479,0,0,0,2.456-.268,5.084,5.084,0,0,0,1.919-.883,4.231,4.231,0,0,0,1.265-1.592A5.506,5.506,0,0,0,244.678,426.529Z" fill="#ff9d00"/>
    </g>
    <path id="패스_784" data-name="패스 784" d="M288.107,429.7v4.19H255.254V429.7Zm-28.154-4.385-2.389-3.641q2-1.332,4.092-2.722a31.443,31.443,0,0,0,3.622-2.761,10.937,10.937,0,0,0,2.232-2.545,6.017,6.017,0,0,0,.783-3.171v-5.013h5.56v5.169a12.821,12.821,0,0,1-.117,1.8q3.054,2.076,5.893,4.288a52.617,52.617,0,0,1,4.836,4.209,1.054,1.054,0,0,1,.333.705,1.222,1.222,0,0,1-.333.822l-2.114,2.311q-.9-.744-2.115-1.762t-2.6-2.115q-1.391-1.095-2.858-2.173a33.054,33.054,0,0,0-2.878-1.9,15.611,15.611,0,0,1-1.429,1.546,22.971,22.971,0,0,1-1.821,1.547q-.824.666-1.841,1.371t-2.154,1.409q-1.135.705-2.33,1.371T259.953,425.311Z" fill="#64594e"/>
    <path id="패스_785" data-name="패스 785" d="M306.793,420.494h-11.2v4.347a2.652,2.652,0,0,0,.568,1.84,2.767,2.767,0,0,0,2.1.627q1.41,0,3.113-.137t3.544-.392q1.839-.254,3.759-.607t3.837-.743V403.735h5.4v12.256h5.13v4.23h-5.13v18.208h-5.4v-9.437q-1.683.508-3.779.959t-4.17.783q-2.076.333-3.955.529a31.064,31.064,0,0,1-3.132.2,12.63,12.63,0,0,1-3.485-.411,5.432,5.432,0,0,1-2.271-1.234,4.648,4.648,0,0,1-1.234-2,8.953,8.953,0,0,1-.372-2.7V406.242h17.073v4.15H295.594v5.991h11.2Z" fill="#64594e"/>
    <path id="패스_786" data-name="패스 786" d="M342.661,419.594q0,.9-.979.9h-10.22v4.034a6.4,6.4,0,0,0,.118,1.331,1.8,1.8,0,0,0,.489.92,2.235,2.235,0,0,0,1.018.549,6.7,6.7,0,0,0,1.7.176q1.41,0,3.251-.176t3.837-.451q2-.273,3.994-.626t3.681-.705V403.735h5.4v34.694h-5.4v-9.594q-1.646.549-3.759,1.057t-4.327.9q-2.213.391-4.307.627a33.55,33.55,0,0,1-3.662.234,12.842,12.842,0,0,1-3.5-.411,5.869,5.869,0,0,1-2.33-1.214,4.488,4.488,0,0,1-1.292-1.977,8.539,8.539,0,0,1-.392-2.7v-8.967h11.2V410.2H326.137v-4.15H340.82a1.61,1.61,0,0,1,1.841,1.8Z" fill="#64594e"/>
    <path id="패스_787" data-name="패스 787" d="M392.076,430.088v4.19H359.224v-4.19Zm-4.659-21.732v3.876H378.1v.47a5.618,5.618,0,0,1-.079.96q-.078.45-.157.881,1.41.9,2.84,1.821t2.779,1.859q1.352.941,2.565,1.9a24.967,24.967,0,0,1,2.193,1.938.979.979,0,0,1-.039,1.488l-2.075,2.232q-.941-.783-2.173-1.743t-2.623-1.957q-1.392-1-2.878-1.939t-2.938-1.684a15.551,15.551,0,0,1-1.664,1.508q-.92.725-1.938,1.508-.822.625-1.762,1.233t-1.9,1.194q-.96.588-1.88,1.077t-1.7.881l-2.31-3.6q1.644-.94,3.465-2.154t3.348-2.388q.625-.51,1.234-1.038a8.1,8.1,0,0,0,1.077-1.136,5.755,5.755,0,0,0,.763-1.311,4.032,4.032,0,0,0,.293-1.567v-.431h-9.163v-3.876h9.045q.118-.469.216-1.136a8.213,8.213,0,0,0,.1-1.174v-2.585h5.718v2.311a4.629,4.629,0,0,1-.216,1.39,3.837,3.837,0,0,1-.607,1.194Z" fill="#64594e"/>
  </g>
</svg>
