<svg width="190" height="40" viewBox="0 0 190 40" fill="none" xmlns="http://www.w3.org/2000/svg">
<path d="M21.6721 5.23505C21.7462 5.35018 21.8404 5.45854 21.8539 5.57367C21.9616 5.91229 22.2781 6.12223 22.3184 6.46762C22.3319 6.58275 22.48 6.63016 22.5608 6.68433C22.6483 6.79269 22.5877 6.91459 22.7493 7.07713C22.8301 7.12454 22.7695 7.25321 22.783 7.36834C22.8571 7.41575 22.9378 7.46993 23.0186 7.52411C23.7255 8.63477 23.7929 9.91475 22.9715 11.1135C22.8436 11.2421 22.7157 11.4318 22.6618 11.6146C22.5945 11.6823 22.4598 11.7501 22.3925 11.8178C22.406 11.9329 22.48 11.9871 22.5676 12.0954C22.2175 12.1903 22.1771 12.4815 21.9078 12.6846C21.8337 12.6846 21.6923 12.705 21.6183 12.7117C21.423 12.9081 21.2143 12.9826 21.0056 13.1248C20.9383 13.1926 20.9585 13.3619 20.9652 13.4228C20.6286 13.6869 20.1371 13.8563 19.6254 13.8427C19.5514 13.8495 19.5042 14.0323 19.4302 14.0391C19.0666 14.073 18.629 14.0527 18.2722 14.0865C18.1241 14.0391 18.0366 13.9307 17.8884 13.8901C17.7471 13.9037 17.5989 13.9172 17.4508 13.8766C17.2152 13.7208 16.9257 13.6937 16.69 13.5989C16.5419 13.5515 16.2659 13.6937 16.111 13.5989C15.6263 13.1722 15.1483 12.7524 14.879 12.3054C14.7039 12.0277 14.401 11.9397 14.3 11.6552C14.2865 11.5401 14.3404 11.3573 14.1923 11.3166C13.8893 11.2286 14.0172 11.039 13.997 10.8629C13.9028 10.6936 13.8893 10.5784 13.7277 10.4159C13.6335 10.2466 13.7547 10.0028 13.6604 9.7793C13.6604 9.71835 13.721 9.6574 13.7143 9.59645C13.6065 9.25106 13.7816 8.88535 13.7479 8.59414C13.7277 8.41806 13.7749 8.18103 13.8287 7.99817C14.0038 7.62569 14.1788 7.19903 14.502 6.81978C14.4952 6.7656 14.4818 6.65047 14.475 6.58952C14.5424 6.5218 14.6097 6.5218 14.677 6.45408C14.7915 6.14932 14.9059 5.90551 15.1012 5.65494C15.357 5.33664 15.761 5.06574 16.0908 4.74067C16.2861 4.54427 16.5621 4.40205 16.7439 4.09053C16.8112 4.0228 17.0401 4.12439 17.1075 4.05666C17.3027 3.86027 17.5989 3.89413 17.8009 3.75868C18.0029 3.62323 17.9625 3.92122 18.1712 3.83995C18.3126 3.8264 18.3799 3.75868 18.5213 3.69096C18.73 3.61646 18.9656 3.76545 19.1878 3.80609C19.4033 3.78577 19.6254 3.8264 19.8611 3.9754C20.1775 4.17857 20.8979 4.11084 21.0123 4.51041C21.1874 4.78808 21.5038 4.99125 21.6789 5.26891L21.6721 5.23505Z" fill="white" fill-opacity="0.5"/>
<path d="M33.8648 9.83345C33.8581 9.6506 33.8648 9.54224 33.7907 9.35262C33.7705 9.16976 33.9119 8.96659 33.8513 8.72279C33.8109 8.65506 33.7167 8.5738 33.7301 8.51962C33.8513 8.14036 33.8648 7.7882 33.8311 7.37509C33.7975 7.25319 33.7571 7.18546 33.7167 7.11774C33.7234 7.06356 33.7503 6.94843 33.7705 6.84007C33.7773 6.49468 33.6695 6.23056 33.5686 5.91903C33.5349 5.79713 33.4474 5.71586 33.4272 5.53978C33.3868 5.47206 33.2925 5.39079 33.306 5.33661C33.4002 4.82869 33.1511 4.42234 33.0838 3.94151C32.9694 3.39295 32.451 3.04079 32.2894 2.47868C32.2961 2.4245 32.4644 2.44482 32.5183 2.45836C32.929 2.83761 33.3733 3.29136 33.4878 3.83992C33.5618 4.02955 33.5282 4.19886 33.6089 4.3343C33.9523 4.76096 34.0196 5.30275 34.0802 5.83777C34.0735 5.89194 34.1812 5.85808 34.2216 5.93258C34.2149 5.98676 34.1879 6.10189 34.2351 6.16961C34.4976 6.46082 34.3361 6.77912 34.3899 7.08388C34.4236 7.20578 34.4573 7.2735 34.4976 7.34123C34.4909 7.39541 34.3563 7.5444 34.3428 7.59858C34.5582 7.88302 34.6525 8.24872 34.5919 8.58734C34.8343 8.70247 34.7266 9.02754 34.7871 9.27135C34.8275 9.33907 34.8814 9.35262 34.9285 9.35939C34.9959 9.2578 35.0699 9.15622 35.0901 9.04109C35.1238 8.58057 35.144 8.17423 35.0564 7.74757C34.9824 7.55794 34.9622 7.37509 35.0968 7.23287C34.9959 7.21255 34.9622 7.08388 34.9218 7.01616C34.74 6.2712 34.6592 5.44497 34.4438 4.68647C34.4438 4.68647 34.5044 4.63906 34.5178 4.58488C34.4438 3.92119 33.9388 3.29136 33.6965 2.62767C33.6561 2.50577 33.4676 2.36355 33.3733 2.23488C33.3733 2.23488 33.3733 2.1807 33.3868 2.11975C33.6426 2.15361 33.8446 2.40418 33.9792 2.60058C34.2485 2.98661 34.5582 3.41326 34.639 3.83992C34.7804 4.21917 34.9891 4.62551 35.0766 4.99799C35.1305 5.24857 35.3123 5.41111 35.4335 5.61428C35.5008 5.81068 35.4671 5.97321 35.4806 6.15607C35.5547 6.58272 35.6826 7.00261 35.7634 7.42927C35.8643 7.7408 35.9115 8.09973 35.8038 8.37063C35.6624 8.86501 35.9855 9.40679 36.1202 9.84023C36.1942 10.0299 36.1 10.2466 36.0192 10.4023C36.0125 10.4565 36.1 10.5378 36.0865 10.592C35.9923 10.8019 36.0663 10.9983 36.0259 11.2218C35.9653 11.2692 36.1 11.4114 36.0259 11.513C35.9653 11.5604 35.9115 11.5469 35.8509 11.5943C35.7701 11.75 35.8442 11.9397 35.8105 12.109C35.6489 12.4205 35.7297 12.8539 35.4267 13.0774C35.3123 13.1113 35.3055 13.1654 35.245 13.2129C35.2921 13.2264 35.3392 13.2941 35.3796 13.3618C35.319 13.4093 35.2652 13.3957 35.2046 13.4431C35.1844 13.5515 35.3998 13.6937 35.4402 13.7614C35.3594 14.2152 35.0228 14.608 35.0295 15.1362C35.0093 15.2513 34.9757 15.4206 34.9622 15.529C34.8612 15.7999 34.666 15.9895 34.565 16.2604C34.5448 16.3755 34.3293 16.3823 34.3091 16.4974C34.1745 16.6464 34.188 16.8767 34.0937 17.0934C34.0196 17.195 33.8715 17.1611 33.7503 17.2492C33.6089 17.4523 33.6291 17.6284 33.5349 17.8451C33.38 18.1025 33.1983 18.3802 33.0434 18.6375C32.8684 19.01 32.5789 19.3689 32.2624 19.6466C32.2086 19.633 32.1009 19.6669 32.0403 19.7143C31.8787 20.0258 31.6902 20.2629 31.3468 20.4254C31.293 20.4119 31.2189 20.6624 31.1583 20.7031C30.9159 20.8792 30.7813 21.0823 30.4918 21.2516C30.3841 21.2855 30.3235 21.3329 30.2023 21.1297C29.8253 21.807 29.3203 22.3352 28.7683 22.7957C28.4855 22.965 28.1893 22.9447 28.0007 23.1343C27.3746 23.7574 26.3782 24.4143 26.2705 24.5024C26.2234 24.4888 26.0348 24.78 26.0348 24.78C25.8329 24.8003 25.9473 24.8139 25.7588 24.7733C25.7588 24.7733 25.7521 25.0916 25.4962 25.139C24.9576 25.2473 24.8163 25.8771 24.7759 26.1345C24.7557 26.2632 24.6681 26.1751 24.6008 26.2293C24.5402 26.2835 24.5806 26.358 24.52 26.4122C24.2844 26.5544 24.0824 26.8456 23.8872 27.0691C23.8266 27.1233 23.7862 27.042 23.7256 27.0962C23.665 27.1504 23.3755 27.5025 23.2745 27.8208C23.0321 28.3694 22.7628 28.857 22.4262 29.243C22.3454 29.3378 22.6147 29.7035 22.5945 29.8254C22.5137 30.0015 22.3589 30.0286 22.2848 30.1979C22.2108 30.6313 22.1973 31.1054 22.1232 31.5592C22.002 32.0061 22.1502 32.3177 22.2108 32.7172C22.2781 33.0491 22.1906 33.4825 22.2108 33.8076C22.2377 34.0717 22.4127 34.3561 22.3858 34.6067C22.3925 34.9927 22.305 34.9453 22.3858 35.2704C22.3723 35.46 22.3117 35.6497 22.3589 35.7783C22.3454 36.0357 22.305 36.1914 22.2915 36.4488C22.2377 36.5097 22.1232 36.6316 22.1232 36.6926C22.0828 37.3292 21.6654 37.8981 21.2345 38.318C20.9652 38.494 20.7296 38.7582 20.4199 38.7378C20.2651 38.7311 19.7466 39.0561 19.5783 39.0968C19.1205 39.2255 18.757 39.2322 18.3193 39.1713C17.8346 39.0358 17.4509 38.9139 17.121 38.4195C16.9257 38.1961 16.5824 38.2841 16.4544 37.9387C16.414 37.8033 16.138 37.7355 16.0909 37.661C15.8418 37.4308 15.7071 37.1531 15.5119 36.8687C15.384 36.5301 15.4782 36.2998 15.3234 35.9679C15.1618 35.7648 15.0945 35.6226 14.9396 35.4194C14.7309 35.1485 14.9867 34.7625 14.8319 34.4984C14.7242 34.4306 14.6165 34.2952 14.5693 34.1597C14.4683 33.8956 14.4885 33.5164 14.3337 33.2387C14.2529 32.9068 14.3068 31.7014 14.3673 31.3763C14.3808 31.3086 14.1923 31.2205 14.2058 31.1528C14.2327 30.6855 14.3943 30.2318 14.3539 29.7509C14.401 29.4936 14.3808 29.2836 14.6165 29.0602C14.6165 29.0602 14.5087 28.9721 14.5155 28.9044C14.6501 28.5251 14.6501 28.2407 14.7242 27.8479C14.7376 27.7802 14.8723 27.7463 14.8858 27.6786C14.8117 27.3942 14.805 26.8117 14.8588 26.5476C14.8858 26.4189 15.2156 26.2225 15.2964 26.1074C15.3099 26.0465 15.2493 25.8771 15.3705 25.6537C15.4042 25.5995 15.4917 25.613 15.5523 25.5656C15.5657 25.4979 15.5186 25.4234 15.5321 25.3557C15.5657 25.1593 15.8889 25.0171 15.9158 24.8884C16.0438 24.4482 16.2659 24.2586 16.4948 23.8996C16.5824 23.7439 16.6093 23.5746 16.7439 23.4256C16.8045 23.3782 16.8382 23.4256 16.8449 23.3646C16.8584 23.3104 16.8247 23.1818 16.8315 23.1276C16.9594 22.9786 17.1412 22.8431 17.1681 22.6738C17.2556 22.4571 17.3364 22.3013 17.4643 22.1524C17.7 21.9763 17.9423 21.7934 18.0904 21.5361C18.2184 21.3871 18.3665 21.4209 18.5011 21.2787C18.6896 21.0891 18.7368 20.8047 18.8781 20.6083C19.208 20.2155 19.5649 19.9446 19.9217 19.6737C20.2179 19.4502 20.6017 19.3554 20.8844 19.1861C21.1807 18.9626 21.3625 18.5359 21.652 18.3666C21.827 18.2312 22.0424 18.2176 22.2175 18.0822C22.3993 17.9467 22.5474 17.6894 22.8167 17.6352C23.4092 17.4794 22.985 17.6487 23.5438 17.4185C23.8939 17.2018 23.7458 17.1476 24.0959 16.9309C24.6749 16.5923 24.9711 16.3755 25.025 16.3891C25.0856 16.3485 25.1461 16.301 25.1663 16.1859C25.3077 15.9827 26.0416 15.4613 26.156 15.4274C26.2637 15.3936 26.3917 15.5425 26.5196 15.3936C26.5936 15.292 26.4523 15.2039 26.5196 15.1023C26.7081 14.9127 26.8899 14.6554 27.0717 14.5199C27.1322 14.4725 27.2736 14.5673 27.3881 14.5267C27.4487 14.4861 27.4689 14.3709 27.5295 14.3235C27.6035 14.2219 27.4689 14.0797 27.5362 13.9714C27.617 13.8156 27.6978 13.6598 27.8122 13.626C27.9873 13.5447 28.2162 13.4228 28.1893 13.3009C28.2297 13.0774 28.3239 12.8607 28.5528 12.7388C28.5595 12.6846 28.573 12.6237 28.5865 12.5695C28.7144 12.4205 28.8423 12.3324 28.9702 12.1902C29.1116 11.9871 29.051 11.7433 29.1318 11.5807C29.3944 11.2895 29.6502 11.0525 29.7243 10.6597C29.7041 10.4768 29.5896 10.2195 29.6704 10.0637C29.7377 9.96213 29.9666 9.8944 29.9868 9.78605C30.0272 9.56256 29.9128 9.30521 29.9061 9.06818C29.933 8.89887 30.1215 8.76342 30.0946 8.58734C30.0744 8.11328 30.108 7.65276 30.034 7.17192C30.1956 7.1516 30.2157 7.03647 30.2359 6.92134C30.1955 6.56241 29.9936 6.22379 29.8993 5.85131C29.8926 5.61428 30.0811 5.42465 30.0744 5.18762C30.0542 5.01154 29.8859 4.79482 29.6973 4.63906C29.5223 4.42234 29.6367 4.09727 29.5762 3.85347C29.5223 3.54871 29.3001 3.32522 29.2597 2.96629C29.2395 2.78344 29.0241 2.79698 28.9568 2.60735C28.8962 2.35678 28.8356 2.11297 28.8356 1.82176C28.8019 1.69986 28.6403 1.72018 28.5528 1.63891C28.3508 1.30029 28.4182 0.616284 27.9671 0.46052C28.0075 0.237032 27.8055 0.189626 27.7314 0C28.0007 0 28.2431 0.108358 28.3912 0.440203C28.4316 0.507926 28.5865 0.541788 28.6336 0.555333C28.7683 0.704324 28.7548 1.04971 28.8962 1.13775C29.0779 1.29352 29.354 1.23934 29.428 1.42897C29.529 1.74049 29.7647 1.9098 29.8791 2.17392C29.8724 2.2281 29.8993 2.35001 29.9397 2.41773C30.1215 2.57349 30.1417 2.75635 30.2763 2.89857C30.586 3.2575 30.889 3.62321 30.7476 4.11082C30.6601 4.32753 30.9294 4.26658 31.0169 4.40203C31.2189 4.74064 31.1381 5.18762 31.4007 5.47883C31.3535 6.05448 31.6229 6.58272 31.7979 7.09065C31.5017 7.55117 31.67 8.35708 31.8989 8.8176C31.8989 8.8176 32.0605 8.79728 32.0739 8.73633C32.1211 8.45867 32.6327 8.36385 32.5519 8.22841C32.451 7.91011 32.2961 7.25319 32.2961 6.96198C32.3298 6.50146 32.3432 6.09512 32.2759 5.61428C32.2355 5.54655 32.1951 5.47883 32.1547 5.41111C32.0941 5.16053 32.0335 4.91673 32.0807 4.63229C32.047 4.51039 31.9595 4.42912 31.9258 4.30721C31.9393 4.25304 31.9527 4.13791 31.9662 4.08373C32.0807 4.04987 32.222 4.13791 32.323 4.165C32.4173 4.24626 32.3298 4.40203 32.3769 4.46975C32.5385 4.74065 32.7876 4.85577 32.8347 5.15376C32.828 5.20794 32.801 5.32307 32.7943 5.37725C32.8347 5.73618 33.0501 6.02062 33.0973 6.3186C33.1175 6.50146 32.9626 6.75881 33.0367 6.94843C33.2723 7.40895 33.2791 7.93719 33.2387 8.45189C33.1983 8.67538 33.481 8.85823 33.4002 9.014C33.3195 9.16976 33.4204 9.19685 33.3396 9.35262C33.3262 9.40679 33.2185 9.44066 33.205 9.50161C33.3598 9.82668 33.1242 10.3211 33.0771 10.6055C33.0703 10.6597 33.2521 10.7206 33.2925 10.5175C33.3127 10.3956 33.5282 10.3956 33.6359 10.3617C33.7571 10.2737 33.8513 10.0569 33.8379 9.81991L33.8648 9.83345ZM34.9622 10.9577C34.9757 10.6732 35.1036 10.4633 35.0564 10.1585C34.9555 9.847 34.7266 10.1585 34.5582 10.1788C34.6525 10.5513 34.4976 10.8087 34.3832 11.1337C34.3159 11.2353 34.262 11.5198 34.4236 11.4927C34.6794 11.5469 34.9487 11.3031 34.9622 10.9577ZM34.5246 12.495C34.5852 12.4069 34.5582 12.2241 34.464 12.1428C34.3226 12.0548 34.1408 12.1902 34.0533 12.346C33.9725 12.5018 34.0331 12.7523 34.2485 12.7388C34.2957 12.7523 34.4438 12.5966 34.5178 12.495H34.5246Z" fill="white" fill-opacity="0.5"/>
<path d="M31.5287 2.90537C31.798 3.11531 31.9057 3.4607 32.1212 3.73837L32.101 3.8535C31.7239 4.17857 31.4008 3.63678 31.2998 3.32525C31.1449 3.00018 30.9968 2.67511 30.7141 2.43807C30.7275 2.3839 30.7343 2.32294 30.7477 2.26877C30.6131 2.11977 30.4448 1.90983 30.6131 1.82856C30.6804 1.72698 30.8083 1.93015 30.9497 2.01819C31.1651 2.30263 31.2055 2.66156 31.5287 2.90537Z" fill="white" fill-opacity="0.5"/>
<path d="M33.0702 1.46279C33.0702 1.51697 32.9827 1.61855 32.9692 1.67273C32.7942 1.51019 32.6124 1.34088 32.4575 1.06999C32.4104 1.05645 32.3094 1.02936 32.269 0.961632C32.2219 0.948088 32.2286 0.893909 32.2421 0.83973C32.4037 0.826185 32.5316 0.975177 32.673 1.06999C32.7201 1.08353 32.7874 1.0429 32.8346 1.05645C32.9759 1.15126 33.05 1.29348 33.0635 1.46956L33.0702 1.46279Z" fill="white" fill-opacity="0.5"/>
<path d="M10.0653 11.8109C10.1125 11.8515 10.1865 11.9192 10.2269 11.9666C10.3077 12.0208 10.3952 12.0276 10.4828 11.987C10.5703 11.987 10.6443 12.2105 10.7319 12.2172C10.8531 12.2782 10.9338 12.4949 11.055 12.5965C11.1358 12.6507 11.2233 12.7319 11.3041 12.7861C11.4186 12.9351 11.4926 13.0841 11.6138 13.1857C11.6946 13.2873 11.8225 13.2534 11.9101 13.2602C12.0784 13.3211 12.1457 13.5649 12.2602 13.7139C12.3005 13.7139 12.3746 13.8629 12.3746 13.9103C12.4554 13.9645 12.5362 14.0661 12.6574 14.1203C12.691 14.1744 12.691 14.2625 12.7247 14.3167C13.0344 14.811 13.4383 15.1293 13.6942 15.6711C13.6942 15.6711 13.7278 15.7659 13.7278 15.8133C14.0443 16.1249 14.1857 16.5583 14.4617 16.9105C14.5358 17.0595 14.6031 17.2965 14.6771 17.4929C14.7579 17.5945 14.8387 17.6487 14.9128 17.7502C15.0272 17.9466 15.1349 18.1972 15.1619 18.4342C15.1619 18.5291 15.0946 18.8067 14.933 18.651C14.731 18.4478 14.7579 18.1633 14.556 18.0076C14.556 17.9602 14.5021 17.8383 14.4617 17.7909C14.3809 17.6961 14.2328 17.6961 14.1991 17.5538C14.2126 17.4116 14.051 17.2965 13.9702 17.2017C13.7682 16.9105 13.472 16.8021 13.2296 16.5109C13.1825 16.5109 13.1421 16.5109 13.1017 16.5515C13.0546 16.6396 12.9199 16.7818 13.0479 16.924C13.2162 17.0256 13.2902 17.2152 13.4989 17.3236C13.6201 17.4252 13.6538 17.7096 13.7278 17.9466C13.8086 18.0414 13.8894 18.143 14.0173 18.1972C14.1385 18.2988 14.0914 18.4478 14.2059 18.5968C14.2059 18.6442 14.1587 18.6848 14.152 18.7322C14.2261 18.8812 14.4011 18.8474 14.5156 18.9963C14.6098 18.9083 14.731 18.976 14.8051 19.1115C14.6637 19.2402 14.7041 19.3417 14.6502 19.4772C14.5088 19.7007 14.832 19.9174 15.034 20.0257C15.1619 20.0393 15.1417 20.2696 15.2629 20.3779C15.3369 20.5269 15.5524 20.5404 15.6668 20.7436C15.7072 20.8452 15.613 20.8791 15.5658 20.9739C15.5524 21.1161 15.7207 21.177 15.8015 21.2312C15.8823 21.2854 15.9227 21.387 15.9563 21.4818C15.8284 21.5157 15.5726 21.3396 15.4446 21.3328C15.3639 21.2989 15.209 21.1093 15.0474 21.0755C14.9936 21.0619 14.9532 21.1974 14.8926 21.1838C14.8185 21.1703 14.731 21.15 14.6502 21.1364C14.5627 21.1229 14.3472 20.8791 14.253 20.8655C14.1453 20.8452 14.0173 21.0416 13.9164 21.0281C13.5326 20.9603 13.5191 20.9332 13.398 20.8858C13.2566 20.8317 13.1219 20.7639 12.994 20.6894C12.9132 20.642 12.9334 20.5337 12.8594 20.4863C12.7786 20.4321 12.617 20.4389 12.5362 20.3847C12.2265 20.1951 11.937 19.7684 11.6744 19.6329C11.4994 19.5449 11.358 19.4569 11.1628 19.3621C11.0685 19.3011 11.0012 19.1724 10.88 19.1318C10.5232 19.0099 10.2337 18.7796 9.82297 18.6645C9.042 18.441 8.39568 18.888 7.76282 19.2198C7.72915 19.2198 7.66183 19.2198 7.62817 19.2402C7.48005 19.3621 7.31174 19.4366 7.16362 19.5314C6.96838 19.6871 6.69234 19.7278 6.4769 19.8564C6.40958 19.8971 6.40284 20.0257 6.33552 20.0664C6.23453 20.1273 6.05275 20.1409 5.94503 20.2018C5.85077 20.2628 5.84404 20.3711 5.74979 20.4389C5.56801 20.5879 5.39296 20.7098 5.14386 20.8249C5.00247 20.8926 3.83774 21.0958 3.6425 21.1025C3.33954 21.1025 3.13083 21.3599 2.68648 21.3531C2.00649 21.3531 1.31977 21.3328 0.754241 20.9129C0.633055 20.8113 0.612857 20.5201 0.532067 20.4727C0.289695 20.3102 0.309893 19.9851 0.242568 19.7413C0.161777 19.6871 -0.00653642 19.6736 0.000196117 19.5314C0.0944517 18.8338 0.437811 18.1972 0.861961 17.7096C0.962949 17.5267 1.17839 17.4523 1.19859 17.2152C1.19859 17.2152 1.57561 16.6802 1.81125 16.4635C1.85838 16.3754 1.78432 16.2265 1.83818 16.1316C2.18827 15.4544 2.82113 14.9871 3.3328 14.3641C3.46745 14.2354 3.56844 14.0525 3.78388 14.0254C3.87141 14.0254 3.9522 14.039 4.00606 13.9509C4.10705 13.7207 4.28882 13.5988 4.42348 13.5107C4.91495 13.1721 5.33237 12.6642 5.8979 12.5694C5.98543 12.5288 6.03255 12.4407 6.12681 12.4001C6.22106 12.312 6.38265 12.4204 6.47017 12.3798C6.88759 12.1901 7.27134 11.7838 7.70222 11.7228C7.78975 11.6822 7.84361 11.5942 7.884 11.5942C8.26776 11.628 8.71884 11.2894 9.07566 11.6483C9.39882 11.5806 9.88357 11.6483 10.0855 11.8244L10.0653 11.8109ZM12.994 15.9352C12.994 15.8878 12.994 15.8404 12.994 15.793C12.8257 15.6914 12.7516 15.407 12.5429 15.3461C12.5025 15.3461 12.415 15.3867 12.4083 15.4341C12.3948 15.7185 12.516 15.9082 12.6372 16.152C12.691 15.9691 12.8122 15.9759 12.893 16.1181C12.9401 16.0707 12.9805 15.9827 12.9873 15.9352H12.994Z" fill="white" fill-opacity="0.5"/>
<path d="M47.2828 28.0243C47.2828 29.2433 47.1616 30.3878 46.9192 31.4646L52.8573 36.0495L50.9924 38.8804L45.6333 34.6883C45.0005 35.6364 44.2262 36.4694 43.2837 37.1534C42.3142 37.8374 41.1293 38.4198 39.7222 38.9074L38.0525 36.0834C39.022 35.7448 39.8433 35.379 40.5503 34.9388C41.2303 34.5257 41.7891 33.9907 42.2199 33.3541C42.6576 32.7446 42.974 32.0132 43.1894 31.1328C43.3847 30.2795 43.4789 29.2298 43.4789 28.0107V19.1119H47.2828V28.031V28.0243ZM58.5329 39.2867H54.729V28.39L50.2249 29.9476V26.6563L54.729 25.0986V18.9087H58.5329V39.2867Z" fill="white" fill-opacity="0.5"/>
<path d="M60.3506 27.3873H80.5886V30.1166H72.3749V31.2611H79.4037V36.6519H65.3461V37.5052H79.646V39.774H61.5422V34.3832H75.5998V33.5299H61.5422V31.2611H68.571V30.1166H60.3573V27.3873H60.3506ZM79.3969 22.3893C79.3969 23.7574 78.6227 24.7326 77.1213 25.2676C75.5931 25.85 73.3646 26.1209 70.4561 26.1209C67.5477 26.1209 65.3192 25.85 63.8178 25.2676C62.2896 24.7326 61.5422 23.7574 61.5422 22.3893C61.5422 21.0213 62.2963 20.0732 63.8178 19.4908C65.3192 18.9558 67.5275 18.6646 70.4561 18.6646C73.3848 18.6646 75.5931 18.9558 77.1213 19.4908C78.6227 20.0732 79.3969 21.0281 79.3969 22.3893ZM75.5931 22.3893C75.5931 22.0236 75.1352 21.7527 74.2129 21.6105C73.2703 21.4615 72.0046 21.3938 70.4561 21.3938C68.9076 21.3938 67.6689 21.4683 66.7465 21.6105C65.8039 21.7798 65.3394 22.0507 65.3394 22.3893C65.3394 22.7821 65.7972 23.0259 66.7465 23.1682C67.6689 23.3172 68.9009 23.3849 70.4561 23.3849C72.0113 23.3849 73.2703 23.3104 74.2129 23.1682C75.1352 23.0192 75.5931 22.7754 75.5931 22.3893Z" fill="white" fill-opacity="0.5"/>
<path d="M90.6672 28.0243C90.6672 29.2704 90.5191 30.3878 90.2767 31.4104L96.4773 36.0427L94.6124 38.8736L88.9436 34.5799C88.3108 35.5551 87.5163 36.4084 86.5199 37.1128C85.5033 37.8171 84.2914 38.4063 82.8574 38.8939L81.1877 36.0698C82.1572 35.7312 82.9786 35.3655 83.7057 34.9253C84.4059 34.5122 84.9916 33.9772 85.4764 33.3406C85.9342 32.7311 86.2775 31.9996 86.5199 31.1192C86.7354 30.2659 86.8565 29.2162 86.8565 27.9972V19.0983H90.6604V28.0175L90.6672 28.0243ZM101.668 39.2867H97.8642V18.9087H101.668V39.2867Z" fill="white" fill-opacity="0.5"/>
<path d="M103.809 21.9292V19.1525H116.143V25.9316H107.613V27.1236H116.628V29.9002H103.809V23.1482H112.339V21.9292H103.809ZM108.63 30.9702V32.406H119.436V30.9702H123.239V39.7675H104.819V30.9702H108.623H108.63ZM119.436 36.8216V35.3587H108.63V36.8216H119.436ZM123.239 18.9087V29.8799H119.436V18.9087H123.239Z" fill="white" fill-opacity="0.5"/>
<path d="M133.567 19.877H138.509V22.85H133.567V24.2384C133.567 24.6041 133.54 24.9427 133.493 25.2881L138.872 28.7759L137.055 31.3629L132.234 28.2679C131.069 29.7037 129.036 30.7534 126.128 31.4374L124.505 28.7555C125.475 28.5591 126.276 28.3153 126.956 28.0512C127.609 27.8074 128.141 27.4891 128.578 27.1234C128.989 26.7848 129.305 26.3649 129.501 25.8773C129.669 25.4168 129.77 24.8547 129.77 24.2181V22.85H125.071V19.877H129.77V17.8521H133.574V19.877H133.567ZM130.201 32.8257V36.8214H145.053V39.7741H126.39V32.8257H130.194H130.201ZM144.81 18.9085V33.4623H141.007V26.4191L137.977 27.1031V24.0555L141.007 23.3715V18.9085H144.81Z" fill="white" fill-opacity="0.5"/>
<path d="M154.848 35.3112V32.0198H146.635V29.0467H166.873V32.0198H158.659V35.3112H154.855H154.848ZM151.624 33.5571V36.8011H165.924V39.7741H147.82V33.5571H151.624ZM165.439 27.5365H148.062V19.1523H165.439V27.5365ZM151.866 22.1254V24.5634H161.635V22.1254H151.866Z" fill="white" fill-opacity="0.5"/>
<path d="M179.402 19.3962V22.3693H172.01V36.0698H179.645V39.0428H168.522V19.3962H179.402ZM180.856 39.2866V18.9086H184.344V27.5366L186.478 26.7781V18.9019H189.993V39.2799H186.478V30.0627L184.344 30.8212V39.2799H180.856V39.2866Z" fill="white" fill-opacity="0.5"/>
<path d="M61.4885 6.80615H62.4513L65.3193 14.1745H64.3364L63.2928 11.4791L60.3238 12.3121L59.6102 14.1745H58.6272L61.4953 6.80615H61.4885ZM60.6402 11.4791L63.037 10.8086L61.9733 8.03872L60.647 11.4791H60.6402Z" fill="white" fill-opacity="0.5"/>
<path d="M73.0685 12.6035C73.23 12.7524 73.4186 12.8947 73.6273 13.0098C73.836 13.1317 74.0514 13.2265 74.2871 13.3213C74.516 13.4094 74.7381 13.4703 74.9872 13.5177C75.2161 13.5584 75.4383 13.5854 75.6538 13.5854C76.1452 13.5787 76.5492 13.4703 76.8589 13.2739C77.1619 13.064 77.31 12.7457 77.31 12.3055C77.31 12.1226 77.2696 11.9669 77.1955 11.8111C77.108 11.6756 77.0003 11.547 76.8589 11.4318C76.7108 11.3303 76.5223 11.2354 76.3136 11.1406C76.0981 11.0661 75.849 10.9781 75.5864 10.9036C75.1084 10.7681 74.691 10.6259 74.3544 10.4769C73.9976 10.3347 73.7148 10.1722 73.4859 9.98256C73.2502 9.7997 73.0819 9.59653 72.9742 9.36627C72.8598 9.13601 72.8059 8.87189 72.8059 8.56714C72.8059 8.24206 72.8732 7.95762 73.0146 7.71382C73.1493 7.47002 73.3243 7.26684 73.5734 7.09754C73.8023 6.94854 74.0851 6.81987 74.4015 6.7386C74.7112 6.66411 75.0546 6.6167 75.4114 6.6167C75.8557 6.6167 76.3001 6.6912 76.7444 6.84696C77.1753 7.0095 77.5927 7.23298 77.9765 7.53097L77.5995 8.21497C77.4581 8.11339 77.31 8.00503 77.1349 7.91022C76.9666 7.81541 76.7848 7.72736 76.6098 7.65287C76.4213 7.57837 76.2328 7.51742 76.0442 7.47002C75.849 7.42938 75.6605 7.40229 75.4787 7.39552C75.2633 7.39552 75.0546 7.40229 74.8593 7.44293C74.6506 7.48356 74.4621 7.54451 74.3005 7.63255C74.1322 7.72736 73.9976 7.84927 73.9033 7.99149C73.8023 8.14048 73.7552 8.3301 73.7552 8.54005C73.7552 8.74999 73.7821 8.9193 73.8494 9.05474C73.9033 9.20374 74.011 9.33241 74.1591 9.434C74.2938 9.54913 74.4823 9.65071 74.7045 9.73875C74.9334 9.83357 75.2027 9.92838 75.546 10.0232C75.9635 10.1586 76.3405 10.2805 76.6771 10.4092C77.007 10.5514 77.2898 10.7004 77.5321 10.8765C77.761 11.0594 77.9361 11.2558 78.0707 11.4725C78.1919 11.7027 78.2593 11.9533 78.2593 12.2377C78.2593 12.617 78.1919 12.9488 78.064 13.213C77.9226 13.4771 77.7341 13.6938 77.4985 13.8699C77.2561 14.0392 76.9733 14.1611 76.6434 14.2491C76.3068 14.3236 75.9433 14.3643 75.5528 14.3643C75.0411 14.3643 74.5429 14.2762 74.0447 14.1069C73.533 13.9241 73.0752 13.6803 72.678 13.3552L73.0819 12.5967L73.0685 12.6035Z" fill="white" fill-opacity="0.5"/>
<path d="M89.2131 7.58497V14.1812H88.2706V7.58497H85.6987V6.80615H91.7917V7.58497H89.2198H89.2131Z" fill="white" fill-opacity="0.5"/>
<path d="M99.4197 6.80615H103.082C103.365 6.80615 103.648 6.85356 103.924 6.92805C104.186 7.0161 104.435 7.138 104.637 7.30053C104.846 7.46984 105.008 7.67301 105.136 7.91682C105.257 8.17417 105.324 8.46538 105.324 8.81077C105.324 9.09521 105.284 9.33224 105.21 9.52864C105.136 9.73858 105.028 9.90789 104.9 10.0501C104.759 10.1991 104.597 10.3142 104.408 10.409C104.213 10.5106 104.005 10.5987 103.776 10.6664L105.641 14.1745H104.651L102.88 10.8899L100.362 11.4994V14.1745H99.4197V6.80615ZM104.395 8.804C104.395 8.61437 104.355 8.43152 104.281 8.28252C104.207 8.13353 104.099 8.00486 103.971 7.8965C103.836 7.80169 103.681 7.71365 103.506 7.65947C103.318 7.61206 103.123 7.58497 102.914 7.58497H100.369V10.6393L102.793 10.1246C103.338 10.0095 103.749 9.84694 104.011 9.64377C104.267 9.45414 104.395 9.1697 104.395 8.81077V8.804Z" fill="white" fill-opacity="0.5"/>
<path d="M112.992 10.4769C112.992 9.88768 113.087 9.34589 113.295 8.86506C113.484 8.39099 113.76 7.98465 114.097 7.63926C114.433 7.31419 114.824 7.06361 115.275 6.87399C115.719 6.70468 116.19 6.60986 116.695 6.60986C117.2 6.60986 117.685 6.70468 118.136 6.87399C118.58 7.06361 118.978 7.32096 119.314 7.63926C119.644 7.97788 119.907 8.39099 120.115 8.86506C120.304 9.34589 120.405 9.88768 120.405 10.4769C120.405 11.0661 120.304 11.6214 120.115 12.1022C119.907 12.5831 119.644 12.9962 119.314 13.328C118.978 13.6599 118.58 13.9172 118.136 14.1069C117.685 14.2762 117.2 14.371 116.695 14.371C116.19 14.371 115.712 14.2762 115.275 14.1069C114.824 13.9172 114.433 13.6599 114.097 13.328C113.76 12.9962 113.484 12.5898 113.295 12.1022C113.087 11.6282 112.992 11.0864 112.992 10.4769ZM113.935 10.4769C113.935 10.9916 114.009 11.4385 114.171 11.811C114.319 12.1971 114.521 12.5221 114.783 12.7862C115.039 13.0504 115.329 13.2535 115.672 13.3958C115.995 13.5312 116.339 13.5922 116.702 13.5922C117.066 13.5922 117.402 13.5244 117.739 13.3958C118.069 13.2535 118.372 13.0571 118.634 12.7862C118.89 12.5221 119.099 12.1971 119.254 11.811C119.402 11.4318 119.483 10.9848 119.483 10.4769C119.483 9.96895 119.395 9.54906 119.24 9.15627C119.072 8.77702 118.863 8.44517 118.601 8.18105C118.338 7.9237 118.035 7.7273 117.705 7.58508C117.369 7.44963 117.039 7.38868 116.709 7.38868C116.379 7.38868 116.042 7.45641 115.719 7.58508C115.382 7.7273 115.086 7.9237 114.83 8.18105C114.568 8.44517 114.352 8.77702 114.191 9.15627C114.023 9.54229 113.948 9.98249 113.948 10.4769H113.935Z" fill="white" fill-opacity="0.5"/>
<path d="M128.464 12.6035C128.625 12.7524 128.814 12.8947 129.023 13.0098C129.231 13.1317 129.447 13.2265 129.682 13.3213C129.911 13.4094 130.133 13.4703 130.382 13.5177C130.611 13.5584 130.834 13.5854 131.049 13.5854C131.54 13.5787 131.944 13.4703 132.254 13.2739C132.557 13.064 132.705 12.7457 132.705 12.3055C132.705 12.1226 132.665 11.9669 132.591 11.8111C132.503 11.6756 132.396 11.547 132.254 11.4318C132.106 11.3303 131.918 11.2354 131.709 11.1406C131.493 11.0661 131.244 10.9781 130.982 10.9036C130.504 10.7681 130.086 10.6259 129.75 10.4769C129.393 10.3347 129.11 10.1722 128.881 9.98256C128.646 9.7997 128.477 9.59653 128.369 9.36627C128.255 9.13601 128.201 8.87189 128.201 8.56714C128.201 8.24206 128.268 7.95762 128.41 7.71382C128.545 7.47002 128.72 7.26684 128.969 7.09754C129.198 6.94854 129.48 6.81987 129.797 6.7386C130.106 6.66411 130.45 6.6167 130.807 6.6167C131.251 6.6167 131.695 6.6912 132.14 6.84696C132.571 7.0095 132.988 7.23298 133.372 7.53097L132.995 8.21497C132.853 8.11339 132.705 8.00503 132.53 7.91022C132.362 7.81541 132.18 7.72736 132.005 7.65287C131.817 7.57837 131.628 7.51742 131.44 7.47002C131.244 7.42938 131.056 7.40229 130.874 7.39552C130.659 7.39552 130.45 7.40229 130.255 7.44293C130.046 7.48356 129.857 7.54451 129.696 7.63255C129.527 7.72736 129.393 7.84927 129.299 7.99149C129.198 8.14048 129.15 8.3301 129.15 8.54005C129.15 8.74999 129.177 8.9193 129.245 9.05474C129.299 9.20374 129.406 9.33241 129.554 9.434C129.689 9.54913 129.878 9.65071 130.1 9.73875C130.329 9.83357 130.598 9.92838 130.941 10.0232C131.359 10.1586 131.736 10.2805 132.072 10.4092C132.402 10.5514 132.685 10.7004 132.927 10.8765C133.156 11.0594 133.331 11.2558 133.466 11.4725C133.587 11.7027 133.655 11.9533 133.655 12.2377C133.655 12.617 133.587 12.9488 133.459 13.213C133.318 13.4771 133.129 13.6938 132.894 13.8699C132.651 14.0392 132.369 14.1611 132.039 14.2491C131.702 14.3236 131.339 14.3643 130.948 14.3643C130.436 14.3643 129.938 14.2762 129.44 14.1069C128.928 13.9241 128.47 13.6803 128.073 13.3552L128.477 12.5967L128.464 12.6035Z" fill="white" fill-opacity="0.5"/>
<path d="M146.494 10.023V10.8018H142.414V13.4092H146.77V14.1745H141.471V6.80615H146.675V7.58497H142.414V10.023H146.494Z" fill="white" fill-opacity="0.5"/>
<path d="M154.404 10.4769C154.404 9.88768 154.499 9.34589 154.707 8.86506C154.896 8.39099 155.172 7.98465 155.508 7.63926C155.845 7.31419 156.236 7.06361 156.687 6.87399C157.131 6.70468 157.602 6.60986 158.107 6.60986C158.612 6.60986 159.097 6.70468 159.548 6.87399C159.992 7.06361 160.39 7.32096 160.726 7.63926C161.056 7.97788 161.319 8.39099 161.527 8.86506C161.716 9.34589 161.817 9.88768 161.817 10.4769C161.817 11.0661 161.716 11.6214 161.527 12.1022C161.319 12.5831 161.056 12.9962 160.726 13.328C160.39 13.6599 159.992 13.9172 159.548 14.1069C159.097 14.2762 158.612 14.371 158.107 14.371C157.602 14.371 157.124 14.2762 156.687 14.1069C156.236 13.9172 155.845 13.6599 155.508 13.328C155.172 12.9962 154.896 12.5898 154.707 12.1022C154.499 11.6282 154.404 11.0864 154.404 10.4769ZM155.347 10.4769C155.347 10.9916 155.421 11.4385 155.582 11.811C155.731 12.1971 155.933 12.5221 156.195 12.7862C156.451 13.0504 156.74 13.2535 157.084 13.3958C157.407 13.5312 157.75 13.5922 158.114 13.5922C158.477 13.5922 158.814 13.5244 159.151 13.3958C159.481 13.2535 159.784 13.0571 160.046 12.7862C160.302 12.5221 160.511 12.1971 160.666 11.811C160.814 11.4318 160.894 10.9848 160.894 10.4769C160.894 9.96895 160.807 9.54906 160.652 9.15627C160.484 8.77702 160.275 8.44517 160.012 8.18105C159.75 7.9237 159.447 7.7273 159.117 7.58508C158.78 7.44963 158.451 7.38868 158.121 7.38868C157.791 7.38868 157.454 7.45641 157.131 7.58508C156.794 7.7273 156.498 7.9237 156.242 8.18105C155.98 8.44517 155.764 8.77702 155.603 9.15627C155.434 9.54229 155.36 9.98249 155.36 10.4769H155.347Z" fill="white" fill-opacity="0.5"/>
<path d="M172.696 14.3641C172.245 14.3641 171.841 14.2896 171.471 14.1474C171.094 13.9984 170.764 13.7884 170.502 13.5311C170.226 13.267 170.024 12.9554 169.869 12.5897C169.721 12.2376 169.64 11.8583 169.64 11.4452V6.80615H170.582V11.3504C170.582 11.6348 170.63 11.9125 170.724 12.1699C170.811 12.434 170.939 12.671 171.128 12.8742C171.296 13.0841 171.525 13.2331 171.788 13.355C172.043 13.4701 172.346 13.5379 172.69 13.5379C173.033 13.5379 173.343 13.4701 173.605 13.355C173.861 13.2331 174.077 13.0773 174.258 12.8742C174.427 12.6778 174.568 12.4407 174.662 12.1699C174.75 11.9125 174.797 11.6416 174.797 11.3504V6.80615H175.74V11.4452C175.74 11.8651 175.666 12.2443 175.511 12.5897C175.363 12.9487 175.154 13.267 174.891 13.5311C174.615 13.7884 174.299 13.9984 173.929 14.1474C173.552 14.2896 173.134 14.3641 172.696 14.3641Z" fill="white" fill-opacity="0.5"/>
<path d="M183.751 6.80615H184.694V13.4024H188.855V14.1812H183.751V6.81292V6.80615Z" fill="white" fill-opacity="0.5"/>
</svg>
