<svg width="190" height="40" viewBox="0 0 190 40" fill="none" xmlns="http://www.w3.org/2000/svg">
<path d="M21.6721 5.23517C21.7462 5.3503 21.8404 5.45866 21.8539 5.57379C21.9616 5.91241 22.2781 6.12235 22.3184 6.46774C22.3319 6.58287 22.48 6.63028 22.5608 6.68446C22.6483 6.79281 22.5877 6.91472 22.7493 7.07725C22.8301 7.12466 22.7695 7.25333 22.783 7.36846C22.8571 7.41587 22.9378 7.47005 23.0186 7.52423C23.7255 8.63489 23.7929 9.91487 22.9715 11.1136C22.8436 11.2422 22.7157 11.4319 22.6618 11.6147C22.5945 11.6825 22.4598 11.7502 22.3925 11.8179C22.406 11.933 22.48 11.9872 22.5676 12.0956C22.2175 12.1904 22.1771 12.4816 21.9078 12.6848C21.8337 12.6848 21.6923 12.7051 21.6183 12.7118C21.423 12.9082 21.2143 12.9827 21.0056 13.125C20.9383 13.1927 20.9585 13.362 20.9652 13.4229C20.6286 13.6871 20.1371 13.8564 19.6254 13.8428C19.5514 13.8496 19.5042 14.0325 19.4302 14.0392C19.0666 14.0731 18.629 14.0528 18.2722 14.0866C18.1241 14.0392 18.0366 13.9309 17.8884 13.8902C17.7471 13.9038 17.5989 13.9173 17.4508 13.8767C17.2152 13.7209 16.9257 13.6938 16.69 13.599C16.5419 13.5516 16.2659 13.6938 16.111 13.599C15.6263 13.1724 15.1483 12.7525 14.879 12.3055C14.7039 12.0278 14.401 11.9398 14.3 11.6554C14.2865 11.5402 14.3404 11.3574 14.1923 11.3167C13.8893 11.2287 14.0172 11.0391 13.997 10.863C13.9028 10.6937 13.8893 10.5786 13.7277 10.416C13.6335 10.2467 13.7547 10.0029 13.6604 9.77942C13.6604 9.71847 13.721 9.65752 13.7143 9.59657C13.6065 9.25118 13.7816 8.88547 13.7479 8.59426C13.7277 8.41818 13.7749 8.18115 13.8287 7.99829C14.0038 7.62581 14.1788 7.19916 14.502 6.8199C14.4952 6.76573 14.4818 6.6506 14.475 6.58964C14.5424 6.52192 14.6097 6.52192 14.677 6.4542C14.7915 6.14944 14.9059 5.90564 15.1012 5.65506C15.357 5.33676 15.761 5.06587 16.0908 4.74079C16.2861 4.54439 16.5621 4.40218 16.7439 4.09065C16.8112 4.02292 17.0401 4.12451 17.1075 4.05679C17.3027 3.86039 17.5989 3.89425 17.8009 3.7588C18.0029 3.62335 17.9625 3.92134 18.1712 3.84007C18.3126 3.82653 18.3799 3.7588 18.5213 3.69108C18.73 3.61658 18.9656 3.76557 19.1878 3.80621C19.4033 3.78589 19.6254 3.82653 19.8611 3.97552C20.1775 4.17869 20.8979 4.11096 21.0123 4.51053C21.1874 4.7882 21.5038 4.99137 21.6789 5.26904L21.6721 5.23517Z" fill="white"/>
<path d="M33.8648 9.83357C33.8581 9.65072 33.8648 9.54236 33.7907 9.35274C33.7705 9.16988 33.9119 8.96671 33.8513 8.72291C33.8109 8.65519 33.7167 8.57392 33.7301 8.51974C33.8513 8.14049 33.8648 7.78832 33.8311 7.37521C33.7975 7.25331 33.7571 7.18559 33.7167 7.11786C33.7234 7.06368 33.7503 6.94855 33.7705 6.8402C33.7773 6.49481 33.6695 6.23068 33.5686 5.91916C33.5349 5.79725 33.4474 5.71599 33.4272 5.5399C33.3868 5.47218 33.2925 5.39091 33.306 5.33673C33.4002 4.82881 33.1511 4.42247 33.0838 3.94163C32.9694 3.39307 32.451 3.04091 32.2894 2.4788C32.2961 2.42462 32.4644 2.44494 32.5183 2.45849C32.929 2.83774 33.3733 3.29148 33.4878 3.84004C33.5618 4.02967 33.5282 4.19898 33.6089 4.33443C33.9523 4.76108 34.0196 5.30287 34.0802 5.83789C34.0735 5.89207 34.1812 5.8582 34.2216 5.9327C34.2149 5.98688 34.1879 6.10201 34.2351 6.16973C34.4976 6.46094 34.3361 6.77924 34.3899 7.084C34.4236 7.2059 34.4573 7.27363 34.4976 7.34135C34.4909 7.39553 34.3563 7.54452 34.3428 7.5987C34.5582 7.88314 34.6525 8.24885 34.5919 8.58746C34.8343 8.70259 34.7266 9.02767 34.7871 9.27147C34.8275 9.33919 34.8814 9.35274 34.9285 9.35951C34.9959 9.25793 35.0699 9.15634 35.0901 9.04121C35.1238 8.58069 35.144 8.17435 35.0564 7.74769C34.9824 7.55806 34.9622 7.37521 35.0968 7.23299C34.9959 7.21268 34.9622 7.084 34.9218 7.01628C34.74 6.27132 34.6592 5.44509 34.4438 4.68659C34.4438 4.68659 34.5044 4.63918 34.5178 4.585C34.4438 3.92131 33.9388 3.29148 33.6965 2.62779C33.6561 2.50589 33.4676 2.36367 33.3733 2.235C33.3733 2.235 33.3733 2.18082 33.3868 2.11987C33.6426 2.15373 33.8446 2.40431 33.9792 2.6007C34.2485 2.98673 34.5582 3.41339 34.639 3.84004C34.7804 4.2193 34.9891 4.62564 35.0766 4.99812C35.1305 5.24869 35.3123 5.41123 35.4335 5.6144C35.5008 5.8108 35.4671 5.97333 35.4806 6.15619C35.5547 6.58285 35.6826 7.00273 35.7634 7.42939C35.8643 7.74092 35.9115 8.09985 35.8038 8.37075C35.6624 8.86513 35.9855 9.40692 36.1202 9.84035C36.1942 10.03 36.1 10.2467 36.0192 10.4025C36.0125 10.4566 36.1 10.5379 36.0865 10.5921C35.9923 10.802 36.0663 10.9984 36.0259 11.2219C35.9653 11.2693 36.1 11.4115 36.0259 11.5131C35.9653 11.5605 35.9115 11.547 35.8509 11.5944C35.7701 11.7501 35.8442 11.9398 35.8105 12.1091C35.6489 12.4206 35.7297 12.854 35.4267 13.0775C35.3123 13.1114 35.3055 13.1656 35.245 13.213C35.2921 13.2265 35.3392 13.2942 35.3796 13.362C35.319 13.4094 35.2652 13.3958 35.2046 13.4432C35.1844 13.5516 35.3998 13.6938 35.4402 13.7615C35.3594 14.2153 35.0228 14.6081 35.0295 15.1363C35.0093 15.2515 34.9757 15.4208 34.9622 15.5291C34.8612 15.8 34.666 15.9896 34.565 16.2605C34.5448 16.3757 34.3293 16.3824 34.3091 16.4976C34.1745 16.6466 34.188 16.8768 34.0937 17.0935C34.0196 17.1951 33.8715 17.1613 33.7503 17.2493C33.6089 17.4525 33.6291 17.6285 33.5349 17.8453C33.38 18.1026 33.1983 18.3803 33.0434 18.6376C32.8684 19.0101 32.5789 19.369 32.2624 19.6467C32.2086 19.6332 32.1009 19.667 32.0403 19.7144C31.8787 20.026 31.6902 20.263 31.3468 20.4255C31.293 20.412 31.2189 20.6626 31.1583 20.7032C30.9159 20.8793 30.7813 21.0824 30.4918 21.2518C30.3841 21.2856 30.3235 21.333 30.2023 21.1299C29.8253 21.8071 29.3203 22.3353 28.7683 22.7959C28.4855 22.9652 28.1893 22.9448 28.0007 23.1345C27.3746 23.7575 26.3782 24.4144 26.2705 24.5025C26.2234 24.4889 26.0348 24.7802 26.0348 24.7802C25.8329 24.8005 25.9473 24.814 25.7588 24.7734C25.7588 24.7734 25.7521 25.0917 25.4962 25.1391C24.9576 25.2474 24.8163 25.8773 24.7759 26.1346C24.7557 26.2633 24.6681 26.1753 24.6008 26.2294C24.5402 26.2836 24.5806 26.3581 24.52 26.4123C24.2844 26.5545 24.0824 26.8457 23.8872 27.0692C23.8266 27.1234 23.7862 27.0421 23.7256 27.0963C23.665 27.1505 23.3755 27.5026 23.2745 27.8209C23.0321 28.3695 22.7628 28.8571 22.4262 29.2431C22.3454 29.3379 22.6147 29.7036 22.5945 29.8256C22.5137 30.0016 22.3589 30.0287 22.2848 30.198C22.2108 30.6315 22.1973 31.1055 22.1232 31.5593C22.002 32.0062 22.1502 32.3178 22.2108 32.7173C22.2781 33.0492 22.1906 33.4826 22.2108 33.8077C22.2377 34.0718 22.4127 34.3563 22.3858 34.6068C22.3925 34.9929 22.305 34.9454 22.3858 35.2705C22.3723 35.4601 22.3117 35.6498 22.3589 35.7784C22.3454 36.0358 22.305 36.1916 22.2915 36.4489C22.2377 36.5099 22.1232 36.6318 22.1232 36.6927C22.0828 37.3293 21.6654 37.8982 21.2345 38.3181C20.9652 38.4942 20.7296 38.7583 20.4199 38.738C20.2651 38.7312 19.7466 39.0563 19.5783 39.0969C19.1205 39.2256 18.757 39.2323 18.3193 39.1714C17.8346 39.0359 17.4509 38.914 17.121 38.4197C16.9257 38.1962 16.5824 38.2842 16.4544 37.9388C16.414 37.8034 16.138 37.7357 16.0909 37.6612C15.8418 37.4309 15.7071 37.1532 15.5119 36.8688C15.384 36.5302 15.4782 36.2999 15.3234 35.9681C15.1618 35.7649 15.0945 35.6227 14.9396 35.4195C14.7309 35.1486 14.9867 34.7626 14.8319 34.4985C14.7242 34.4307 14.6165 34.2953 14.5693 34.1599C14.4683 33.8957 14.4885 33.5165 14.3337 33.2388C14.2529 32.907 14.3068 31.7015 14.3673 31.3764C14.3808 31.3087 14.1923 31.2207 14.2058 31.1529C14.2327 30.6856 14.3943 30.2319 14.3539 29.7511C14.401 29.4937 14.3808 29.2838 14.6165 29.0603C14.6165 29.0603 14.5087 28.9722 14.5155 28.9045C14.6501 28.5253 14.6501 28.2408 14.7242 27.848C14.7376 27.7803 14.8723 27.7464 14.8858 27.6787C14.8117 27.3943 14.805 26.8119 14.8588 26.5477C14.8858 26.4191 15.2156 26.2227 15.2964 26.1075C15.3099 26.0466 15.2493 25.8773 15.3705 25.6538C15.4042 25.5996 15.4917 25.6131 15.5523 25.5657C15.5657 25.498 15.5186 25.4235 15.5321 25.3558C15.5657 25.1594 15.8889 25.0172 15.9158 24.8885C16.0438 24.4483 16.2659 24.2587 16.4948 23.8997C16.5824 23.744 16.6093 23.5747 16.7439 23.4257C16.8045 23.3783 16.8382 23.4257 16.8449 23.3647C16.8584 23.3106 16.8247 23.1819 16.8315 23.1277C16.9594 22.9787 17.1412 22.8433 17.1681 22.674C17.2556 22.4572 17.3364 22.3015 17.4643 22.1525C17.7 21.9764 17.9423 21.7935 18.0904 21.5362C18.2184 21.3872 18.3665 21.4211 18.5011 21.2788C18.6896 21.0892 18.7368 20.8048 18.8781 20.6084C19.208 20.2156 19.5649 19.9447 19.9217 19.6738C20.2179 19.4503 20.6017 19.3555 20.8844 19.1862C21.1807 18.9627 21.3625 18.536 21.652 18.3667C21.827 18.2313 22.0424 18.2177 22.2175 18.0823C22.3993 17.9468 22.5474 17.6895 22.8167 17.6353C23.4092 17.4796 22.985 17.6489 23.5438 17.4186C23.8939 17.2019 23.7458 17.1477 24.0959 16.931C24.6749 16.5924 24.9711 16.3757 25.025 16.3892C25.0856 16.3486 25.1461 16.3012 25.1663 16.186C25.3077 15.9829 26.0416 15.4614 26.156 15.4275C26.2637 15.3937 26.3917 15.5427 26.5196 15.3937C26.5936 15.2921 26.4523 15.204 26.5196 15.1025C26.7081 14.9128 26.8899 14.6555 27.0717 14.52C27.1322 14.4726 27.2736 14.5674 27.3881 14.5268C27.4487 14.4862 27.4689 14.371 27.5295 14.3236C27.6035 14.2221 27.4689 14.0798 27.5362 13.9715C27.617 13.8157 27.6978 13.66 27.8122 13.6261C27.9873 13.5448 28.2162 13.4229 28.1893 13.301C28.2297 13.0775 28.3239 12.8608 28.5528 12.7389C28.5595 12.6847 28.573 12.6238 28.5865 12.5696C28.7144 12.4206 28.8423 12.3326 28.9702 12.1904C29.1116 11.9872 29.051 11.7434 29.1318 11.5808C29.3944 11.2896 29.6502 11.0526 29.7243 10.6598C29.7041 10.4769 29.5896 10.2196 29.6704 10.0638C29.7377 9.96225 29.9666 9.89453 29.9868 9.78617C30.0272 9.56268 29.9128 9.30533 29.9061 9.0683C29.933 8.89899 30.1215 8.76354 30.0946 8.58746C30.0744 8.1134 30.108 7.65288 30.034 7.17204C30.1956 7.15172 30.2157 7.03659 30.2359 6.92146C30.1955 6.56253 29.9936 6.22391 29.8993 5.85143C29.8926 5.6144 30.0811 5.42477 30.0744 5.18774C30.0542 5.01166 29.8859 4.79495 29.6973 4.63918C29.5223 4.42247 29.6367 4.09739 29.5762 3.85359C29.5223 3.54883 29.3001 3.32535 29.2597 2.96641C29.2395 2.78356 29.0241 2.7971 28.9568 2.60748C28.8962 2.3569 28.8356 2.1131 28.8356 1.82188C28.8019 1.69998 28.6403 1.7203 28.5528 1.63903C28.3508 1.30041 28.4182 0.616406 27.9671 0.460642C28.0075 0.237154 27.8055 0.189748 27.7314 0.00012207C28.0007 0.00012207 28.2431 0.10848 28.3912 0.440325C28.4316 0.508048 28.5865 0.54191 28.6336 0.555455C28.7683 0.704446 28.7548 1.04984 28.8962 1.13788C29.0779 1.29364 29.354 1.23946 29.428 1.42909C29.529 1.74062 29.7647 1.90992 29.8791 2.17405C29.8724 2.22823 29.8993 2.35013 29.9397 2.41785C30.1215 2.57362 30.1417 2.75647 30.2763 2.89869C30.586 3.25762 30.889 3.62333 30.7476 4.11094C30.6601 4.32765 30.9294 4.2667 31.0169 4.40215C31.2189 4.74077 31.1381 5.18774 31.4007 5.47895C31.3535 6.0546 31.6229 6.58285 31.7979 7.09077C31.5017 7.55129 31.67 8.3572 31.8989 8.81772C31.8989 8.81772 32.0605 8.79741 32.0739 8.73645C32.1211 8.45879 32.6327 8.36397 32.5519 8.22853C32.451 7.91023 32.2961 7.25331 32.2961 6.9621C32.3298 6.50158 32.3432 6.09524 32.2759 5.6144C32.2355 5.54668 32.1951 5.47895 32.1547 5.41123C32.0941 5.16065 32.0335 4.91685 32.0807 4.63241C32.047 4.51051 31.9595 4.42924 31.9258 4.30734C31.9393 4.25316 31.9527 4.13803 31.9662 4.08385C32.0807 4.04999 32.222 4.13803 32.323 4.16512C32.4173 4.24639 32.3298 4.40215 32.3769 4.46987C32.5385 4.74077 32.7876 4.8559 32.8347 5.15388C32.828 5.20806 32.801 5.32319 32.7943 5.37737C32.8347 5.7363 33.0501 6.02074 33.0973 6.31872C33.1175 6.50158 32.9626 6.75893 33.0367 6.94855C33.2723 7.40907 33.2791 7.93732 33.2387 8.45201C33.1983 8.6755 33.481 8.85836 33.4002 9.01412C33.3195 9.16988 33.4204 9.19697 33.3396 9.35274C33.3262 9.40692 33.2185 9.44078 33.205 9.50173C33.3598 9.8268 33.1242 10.3212 33.0771 10.6056C33.0703 10.6598 33.2521 10.7208 33.2925 10.5176C33.3127 10.3957 33.5282 10.3957 33.6359 10.3618C33.7571 10.2738 33.8513 10.0571 33.8379 9.82003L33.8648 9.83357ZM34.9622 10.9578C34.9757 10.6733 35.1036 10.4634 35.0564 10.1586C34.9555 9.84712 34.7266 10.1586 34.5582 10.179C34.6525 10.5514 34.4976 10.8088 34.3832 11.1339C34.3159 11.2355 34.262 11.5199 34.4236 11.4928C34.6794 11.547 34.9487 11.3032 34.9622 10.9578ZM34.5246 12.4951C34.5852 12.4071 34.5582 12.2242 34.464 12.1429C34.3226 12.0549 34.1408 12.1904 34.0533 12.3461C33.9725 12.5019 34.0331 12.7525 34.2485 12.7389C34.2957 12.7525 34.4438 12.5967 34.5178 12.4951H34.5246Z" fill="white"/>
<path d="M31.5287 2.90549C31.798 3.11543 31.9057 3.46082 32.1212 3.73849L32.101 3.85362C31.7239 4.17869 31.4008 3.6369 31.2998 3.32537C31.1449 3.0003 30.9968 2.67523 30.7141 2.4382C30.7275 2.38402 30.7343 2.32307 30.7477 2.26889C30.6131 2.1199 30.4448 1.90995 30.6131 1.82868C30.6804 1.7271 30.8083 1.93027 30.9497 2.01831C31.1651 2.30275 31.2055 2.66168 31.5287 2.90549Z" fill="white"/>
<path d="M33.0702 1.46303C33.0702 1.51721 32.9827 1.61879 32.9692 1.67297C32.7942 1.51044 32.6124 1.34113 32.4575 1.07023C32.4104 1.05669 32.3094 1.0296 32.269 0.961877C32.2219 0.948332 32.2286 0.894153 32.2421 0.839974C32.4037 0.82643 32.5316 0.975421 32.673 1.07023C32.7201 1.08378 32.7874 1.04314 32.8346 1.05669C32.9759 1.1515 33.05 1.29372 33.0635 1.4698L33.0702 1.46303Z" fill="white"/>
<path d="M10.0653 11.8111C10.1125 11.8518 10.1865 11.9195 10.2269 11.9669C10.3077 12.0211 10.3952 12.0278 10.4828 11.9872C10.5703 11.9872 10.6443 12.2107 10.7319 12.2175C10.8531 12.2784 10.9338 12.4951 11.055 12.5967C11.1358 12.6509 11.2233 12.7322 11.3041 12.7863C11.4186 12.9353 11.4926 13.0843 11.6138 13.1859C11.6946 13.2875 11.8225 13.2536 11.9101 13.2604C12.0784 13.3214 12.1457 13.5652 12.2602 13.7142C12.3005 13.7142 12.3746 13.8632 12.3746 13.9106C12.4554 13.9647 12.5362 14.0663 12.6574 14.1205C12.691 14.1747 12.691 14.2627 12.7247 14.3169C13.0344 14.8113 13.4383 15.1296 13.6942 15.6714C13.6942 15.6714 13.7278 15.7662 13.7278 15.8136C14.0443 16.1251 14.1857 16.5585 14.4617 16.9107C14.5358 17.0597 14.6031 17.2967 14.6771 17.4931C14.7579 17.5947 14.8387 17.6489 14.9128 17.7505C15.0272 17.9469 15.1349 18.1975 15.1619 18.4345C15.1619 18.5293 15.0946 18.807 14.933 18.6512C14.731 18.448 14.7579 18.1636 14.556 18.0078C14.556 17.9604 14.5021 17.8385 14.4617 17.7911C14.3809 17.6963 14.2328 17.6963 14.1991 17.5541C14.2126 17.4119 14.051 17.2967 13.9702 17.2019C13.7682 16.9107 13.472 16.8024 13.2296 16.5111C13.1825 16.5111 13.1421 16.5111 13.1017 16.5518C13.0546 16.6398 12.9199 16.782 13.0479 16.9243C13.2162 17.0258 13.2902 17.2155 13.4989 17.3238C13.6201 17.4254 13.6538 17.7098 13.7278 17.9469C13.8086 18.0417 13.8894 18.1433 14.0173 18.1975C14.1385 18.299 14.0914 18.448 14.2059 18.597C14.2059 18.6444 14.1587 18.6851 14.152 18.7325C14.2261 18.8815 14.4011 18.8476 14.5156 18.9966C14.6098 18.9086 14.731 18.9763 14.8051 19.1117C14.6637 19.2404 14.7041 19.342 14.6502 19.4774C14.5088 19.7009 14.832 19.9176 15.034 20.026C15.1619 20.0395 15.1417 20.2698 15.2629 20.3782C15.3369 20.5271 15.5524 20.5407 15.6668 20.7439C15.7072 20.8454 15.613 20.8793 15.5658 20.9741C15.5524 21.1163 15.7207 21.1773 15.8015 21.2315C15.8823 21.2856 15.9227 21.3872 15.9563 21.482C15.8284 21.5159 15.5726 21.3398 15.4446 21.3331C15.3639 21.2992 15.209 21.1096 15.0474 21.0757C14.9936 21.0622 14.9532 21.1976 14.8926 21.1841C14.8185 21.1705 14.731 21.1502 14.6502 21.1367C14.5627 21.1231 14.3472 20.8793 14.253 20.8658C14.1453 20.8454 14.0173 21.0418 13.9164 21.0283C13.5326 20.9606 13.5191 20.9335 13.398 20.8861C13.2566 20.8319 13.1219 20.7642 12.994 20.6897C12.9132 20.6423 12.9334 20.5339 12.8594 20.4865C12.7786 20.4323 12.617 20.4391 12.5362 20.3849C12.2265 20.1953 11.937 19.7686 11.6744 19.6332C11.4994 19.5452 11.358 19.4571 11.1628 19.3623C11.0685 19.3013 11.0012 19.1727 10.88 19.132C10.5232 19.0101 10.2337 18.7799 9.82297 18.6647C9.042 18.4413 8.39568 18.8882 7.76282 19.2201C7.72915 19.2201 7.66183 19.2201 7.62817 19.2404C7.48005 19.3623 7.31174 19.4368 7.16362 19.5316C6.96838 19.6874 6.69234 19.728 6.4769 19.8567C6.40958 19.8973 6.40284 20.026 6.33552 20.0666C6.23453 20.1276 6.05275 20.1411 5.94503 20.2021C5.85077 20.263 5.84404 20.3714 5.74979 20.4391C5.56801 20.5881 5.39296 20.71 5.14386 20.8251C5.00247 20.8928 3.83774 21.096 3.6425 21.1028C3.33954 21.1028 3.13083 21.3601 2.68648 21.3534C2.00649 21.3534 1.31977 21.3331 0.754241 20.9132C0.633055 20.8116 0.612857 20.5204 0.532067 20.473C0.289695 20.3104 0.309893 19.9854 0.242568 19.7416C0.161777 19.6874 -0.00653642 19.6738 0.000196117 19.5316C0.0944517 18.8341 0.437811 18.1975 0.861961 17.7098C0.962949 17.527 1.17839 17.4525 1.19859 17.2155C1.19859 17.2155 1.57561 16.6804 1.81125 16.4637C1.85838 16.3757 1.78432 16.2267 1.83818 16.1319C2.18827 15.4547 2.82113 14.9874 3.3328 14.3643C3.46745 14.2356 3.56844 14.0528 3.78388 14.0257C3.87141 14.0257 3.9522 14.0392 4.00606 13.9512C4.10705 13.7209 4.28882 13.599 4.42348 13.511C4.91495 13.1724 5.33237 12.6644 5.8979 12.5696C5.98543 12.529 6.03255 12.441 6.12681 12.4003C6.22106 12.3123 6.38265 12.4206 6.47017 12.38C6.88759 12.1904 7.27134 11.784 7.70222 11.7231C7.78975 11.6825 7.84361 11.5944 7.884 11.5944C8.26776 11.6283 8.71884 11.2897 9.07566 11.6486C9.39882 11.5809 9.88357 11.6486 10.0855 11.8247L10.0653 11.8111ZM12.994 15.9355C12.994 15.8881 12.994 15.8407 12.994 15.7933C12.8257 15.6917 12.7516 15.4072 12.5429 15.3463C12.5025 15.3463 12.415 15.3869 12.4083 15.4343C12.3948 15.7188 12.516 15.9084 12.6372 16.1522C12.691 15.9694 12.8122 15.9761 12.893 16.1183C12.9401 16.0709 12.9805 15.9829 12.9873 15.9355H12.994Z" fill="white"/>
<path d="M47.2828 28.0243C47.2828 29.2433 47.1616 30.3878 46.9192 31.4646L52.8573 36.0495L50.9924 38.8804L45.6333 34.6883C45.0005 35.6364 44.2262 36.4694 43.2837 37.1534C42.3142 37.8374 41.1293 38.4198 39.7222 38.9074L38.0525 36.0834C39.022 35.7448 39.8433 35.379 40.5503 34.9388C41.2303 34.5257 41.7891 33.9907 42.2199 33.3541C42.6576 32.7446 42.974 32.0132 43.1894 31.1328C43.3847 30.2795 43.4789 29.2298 43.4789 28.0107V19.1119H47.2828V28.031V28.0243ZM58.5329 39.2867H54.729V28.39L50.2249 29.9476V26.6563L54.729 25.0986V18.9087H58.5329V39.2867Z" fill="white"/>
<path d="M60.3506 27.3877H80.5886V30.117H72.3749V31.2615H79.4037V36.6523H65.3461V37.5056H79.646V39.7743H61.5422V34.3835H75.5998V33.5302H61.5422V31.2615H68.571V30.117H60.3573V27.3877H60.3506ZM79.3969 22.3897C79.3969 23.7577 78.6227 24.7329 77.1213 25.268C75.5931 25.8504 73.3646 26.1213 70.4561 26.1213C67.5477 26.1213 65.3192 25.8504 63.8178 25.268C62.2896 24.7329 61.5422 23.7577 61.5422 22.3897C61.5422 21.0217 62.2963 20.0736 63.8178 19.4911C65.3192 18.9561 67.5275 18.6649 70.4561 18.6649C73.3848 18.6649 75.5931 18.9561 77.1213 19.4911C78.6227 20.0736 79.3969 21.0285 79.3969 22.3897ZM75.5931 22.3897C75.5931 22.024 75.1352 21.7531 74.2129 21.6109C73.2703 21.4619 72.0046 21.3942 70.4561 21.3942C68.9076 21.3942 67.6689 21.4687 66.7465 21.6109C65.8039 21.7802 65.3394 22.0511 65.3394 22.3897C65.3394 22.7825 65.7972 23.0263 66.7465 23.1685C67.6689 23.3175 68.9009 23.3852 70.4561 23.3852C72.0113 23.3852 73.2703 23.3108 74.2129 23.1685C75.1352 23.0195 75.5931 22.7757 75.5931 22.3897Z" fill="white"/>
<path d="M90.6672 28.0243C90.6672 29.2704 90.5191 30.3878 90.2767 31.4104L96.4773 36.0427L94.6124 38.8736L88.9436 34.5799C88.3108 35.5551 87.5163 36.4084 86.5199 37.1128C85.5033 37.8171 84.2914 38.4063 82.8574 38.8939L81.1877 36.0698C82.1572 35.7312 82.9786 35.3655 83.7057 34.9253C84.4059 34.5122 84.9916 33.9772 85.4764 33.3406C85.9342 32.7311 86.2775 31.9996 86.5199 31.1192C86.7354 30.2659 86.8565 29.2162 86.8565 27.9972V19.0983H90.6604V28.0175L90.6672 28.0243ZM101.668 39.2867H97.8642V18.9087H101.668V39.2867Z" fill="white"/>
<path d="M103.809 21.9292V19.1525H116.143V25.9316H107.613V27.1236H116.628V29.9002H103.809V23.1482H112.339V21.9292H103.809ZM108.63 30.9702V32.406H119.436V30.9702H123.239V39.7675H104.819V30.9702H108.623H108.63ZM119.436 36.8216V35.3587H108.63V36.8216H119.436ZM123.239 18.9087V29.8799H119.436V18.9087H123.239Z" fill="white"/>
<path d="M133.567 19.8771H138.509V22.8502H133.567V24.2385C133.567 24.6042 133.54 24.9428 133.493 25.2882L138.872 28.776L137.055 31.363L132.234 28.268C131.069 29.7038 129.036 30.7535 126.128 31.4375L124.505 28.7557C125.475 28.5593 126.276 28.3155 126.956 28.0513C127.609 27.8075 128.141 27.4892 128.578 27.1235C128.989 26.7849 129.305 26.365 129.501 25.8774C129.669 25.4169 129.77 24.8548 129.77 24.2182V22.8502H125.071V19.8771H129.77V17.8522H133.574V19.8771H133.567ZM130.201 32.8258V36.8215H145.053V39.7743H126.39V32.8258H130.194H130.201ZM144.81 18.9087V33.4624H141.007V26.4192L137.977 27.1032V24.0556L141.007 23.3716V18.9087H144.81Z" fill="white"/>
<path d="M154.848 35.3113V32.0199H146.635V29.0469H166.873V32.0199H158.659V35.3113H154.855H154.848ZM151.624 33.5573V36.8012H165.924V39.7743H147.82V33.5573H151.624ZM165.439 27.5366H148.062V19.1525H165.439V27.5366ZM151.866 22.1255V24.5636H161.635V22.1255H151.866Z" fill="white"/>
<path d="M179.402 19.3962V22.3693H172.01V36.0698H179.645V39.0428H168.522V19.3962H179.402ZM180.856 39.2866V18.9086H184.344V27.5366L186.478 26.7781V18.9019H189.993V39.2799H186.478V30.0627L184.344 30.8212V39.2799H180.856V39.2866Z" fill="white"/>
<path d="M61.4885 6.8064H62.4513L65.3193 14.1747H64.3364L63.2928 11.4793L60.3238 12.3123L59.6102 14.1747H58.6272L61.4953 6.8064H61.4885ZM60.6402 11.4793L63.037 10.8089L61.9733 8.03896L60.647 11.4793H60.6402Z" fill="white"/>
<path d="M73.0685 12.6036C73.23 12.7526 73.4186 12.8948 73.6273 13.0099C73.836 13.1318 74.0514 13.2266 74.2871 13.3214C74.516 13.4095 74.7381 13.4704 74.9872 13.5178C75.2161 13.5585 75.4383 13.5856 75.6538 13.5856C76.1452 13.5788 76.5492 13.4704 76.8589 13.274C77.1619 13.0641 77.31 12.7458 77.31 12.3056C77.31 12.1227 77.2696 11.967 77.1955 11.8112C77.108 11.6758 77.0003 11.5471 76.8589 11.432C76.7108 11.3304 76.5223 11.2356 76.3136 11.1408C76.0981 11.0663 75.849 10.9782 75.5864 10.9037C75.1084 10.7683 74.691 10.6261 74.3544 10.4771C73.9976 10.3348 73.7148 10.1723 73.4859 9.98268C73.2502 9.79983 73.0819 9.59665 72.9742 9.36639C72.8598 9.13614 72.8059 8.87201 72.8059 8.56726C72.8059 8.24219 72.8732 7.95775 73.0146 7.71394C73.1493 7.47014 73.3243 7.26697 73.5734 7.09766C73.8023 6.94867 74.0851 6.81999 74.4015 6.73872C74.7112 6.66423 75.0546 6.61682 75.4114 6.61682C75.8557 6.61682 76.3001 6.69132 76.7444 6.84708C77.1753 7.00962 77.5927 7.2331 77.9765 7.53109L77.5995 8.2151C77.4581 8.11351 77.31 8.00515 77.1349 7.91034C76.9666 7.81553 76.7848 7.72749 76.6098 7.65299C76.4213 7.57849 76.2328 7.51754 76.0442 7.47014C75.849 7.4295 75.6605 7.40241 75.4787 7.39564C75.2633 7.39564 75.0546 7.40241 74.8593 7.44305C74.6506 7.48368 74.4621 7.54463 74.3005 7.63267C74.1322 7.72749 73.9976 7.84939 73.9033 7.99161C73.8023 8.1406 73.7552 8.33023 73.7552 8.54017C73.7552 8.75011 73.7821 8.91942 73.8494 9.05487C73.9033 9.20386 74.011 9.33253 74.1591 9.43412C74.2938 9.54925 74.4823 9.65083 74.7045 9.73887C74.9334 9.83369 75.2027 9.9285 75.546 10.0233C75.9635 10.1588 76.3405 10.2807 76.6771 10.4093C77.007 10.5516 77.2898 10.7005 77.5321 10.8766C77.761 11.0595 77.9361 11.2559 78.0707 11.4726C78.1919 11.7029 78.2593 11.9534 78.2593 12.2379C78.2593 12.6171 78.1919 12.949 78.064 13.2131C77.9226 13.4772 77.7341 13.6939 77.4985 13.87C77.2561 14.0393 76.9733 14.1612 76.6434 14.2493C76.3068 14.3238 75.9433 14.3644 75.5528 14.3644C75.0411 14.3644 74.5429 14.2763 74.0447 14.107C73.533 13.9242 73.0752 13.6804 72.678 13.3553L73.0819 12.5968L73.0685 12.6036Z" fill="white"/>
<path d="M89.2131 7.58522V14.1815H88.2706V7.58522H85.6987V6.8064H91.7917V7.58522H89.2198H89.2131Z" fill="white"/>
<path d="M99.4197 6.8064H103.082C103.365 6.8064 103.648 6.8538 103.924 6.9283C104.186 7.01634 104.435 7.13824 104.637 7.30078C104.846 7.47009 105.008 7.67326 105.136 7.91706C105.257 8.17441 105.324 8.46562 105.324 8.81101C105.324 9.09545 105.284 9.33248 105.21 9.52888C105.136 9.73882 105.028 9.90813 104.9 10.0504C104.759 10.1993 104.597 10.3145 104.408 10.4093C104.213 10.5109 104.005 10.5989 103.776 10.6666L105.641 14.1747H104.651L102.88 10.8901L100.362 11.4996V14.1747H99.4197V6.8064ZM104.395 8.80424C104.395 8.61461 104.355 8.43176 104.281 8.28277C104.207 8.13378 104.099 8.0051 103.971 7.89674C103.836 7.80193 103.681 7.71389 103.506 7.65971C103.318 7.61231 103.123 7.58522 102.914 7.58522H100.369V10.6395L102.793 10.1248C103.338 10.0097 103.749 9.84718 104.011 9.64401C104.267 9.45439 104.395 9.16995 104.395 8.81101V8.80424Z" fill="white"/>
<path d="M112.992 10.477C112.992 9.8878 113.087 9.34601 113.295 8.86518C113.484 8.39111 113.76 7.98477 114.097 7.63938C114.433 7.31431 114.824 7.06373 115.275 6.87411C115.719 6.7048 116.19 6.60999 116.695 6.60999C117.2 6.60999 117.685 6.7048 118.136 6.87411C118.58 7.06373 118.978 7.32108 119.314 7.63938C119.644 7.978 119.907 8.39111 120.115 8.86518C120.304 9.34601 120.405 9.8878 120.405 10.477C120.405 11.0662 120.304 11.6215 120.115 12.1024C119.907 12.5832 119.644 12.9963 119.314 13.3282C118.978 13.66 118.58 13.9174 118.136 14.107C117.685 14.2763 117.2 14.3711 116.695 14.3711C116.19 14.3711 115.712 14.2763 115.275 14.107C114.824 13.9174 114.433 13.66 114.097 13.3282C113.76 12.9963 113.484 12.59 113.295 12.1024C113.087 11.6283 112.992 11.0865 112.992 10.477ZM113.935 10.477C113.935 10.9917 114.009 11.4387 114.171 11.8112C114.319 12.1972 114.521 12.5222 114.783 12.7864C115.039 13.0505 115.329 13.2537 115.672 13.3959C115.995 13.5313 116.339 13.5923 116.702 13.5923C117.066 13.5923 117.402 13.5246 117.739 13.3959C118.069 13.2537 118.372 13.0573 118.634 12.7864C118.89 12.5222 119.099 12.1972 119.254 11.8112C119.402 11.4319 119.483 10.9849 119.483 10.477C119.483 9.96907 119.395 9.54919 119.24 9.15639C119.072 8.77714 118.863 8.44529 118.601 8.18117C118.338 7.92382 118.035 7.72742 117.705 7.5852C117.369 7.44976 117.039 7.38881 116.709 7.38881C116.379 7.38881 116.042 7.45653 115.719 7.5852C115.382 7.72742 115.086 7.92382 114.83 8.18117C114.568 8.44529 114.352 8.77714 114.191 9.15639C114.023 9.54241 113.948 9.98262 113.948 10.477H113.935Z" fill="white"/>
<path d="M128.464 12.6036C128.625 12.7526 128.814 12.8948 129.023 13.0099C129.231 13.1318 129.447 13.2266 129.682 13.3214C129.911 13.4095 130.133 13.4704 130.382 13.5178C130.611 13.5585 130.834 13.5856 131.049 13.5856C131.54 13.5788 131.944 13.4704 132.254 13.274C132.557 13.0641 132.705 12.7458 132.705 12.3056C132.705 12.1227 132.665 11.967 132.591 11.8112C132.503 11.6758 132.396 11.5471 132.254 11.432C132.106 11.3304 131.918 11.2356 131.709 11.1408C131.493 11.0663 131.244 10.9782 130.982 10.9037C130.504 10.7683 130.086 10.6261 129.75 10.4771C129.393 10.3348 129.11 10.1723 128.881 9.98268C128.646 9.79983 128.477 9.59665 128.369 9.36639C128.255 9.13614 128.201 8.87201 128.201 8.56726C128.201 8.24219 128.268 7.95775 128.41 7.71394C128.545 7.47014 128.72 7.26697 128.969 7.09766C129.198 6.94867 129.48 6.81999 129.797 6.73872C130.106 6.66423 130.45 6.61682 130.807 6.61682C131.251 6.61682 131.695 6.69132 132.14 6.84708C132.571 7.00962 132.988 7.2331 133.372 7.53109L132.995 8.2151C132.853 8.11351 132.705 8.00515 132.53 7.91034C132.362 7.81553 132.18 7.72749 132.005 7.65299C131.817 7.57849 131.628 7.51754 131.44 7.47014C131.244 7.4295 131.056 7.40241 130.874 7.39564C130.659 7.39564 130.45 7.40241 130.255 7.44305C130.046 7.48368 129.857 7.54463 129.696 7.63267C129.527 7.72749 129.393 7.84939 129.299 7.99161C129.198 8.1406 129.15 8.33023 129.15 8.54017C129.15 8.75011 129.177 8.91942 129.245 9.05487C129.299 9.20386 129.406 9.33253 129.554 9.43412C129.689 9.54925 129.878 9.65083 130.1 9.73887C130.329 9.83369 130.598 9.9285 130.941 10.0233C131.359 10.1588 131.736 10.2807 132.072 10.4093C132.402 10.5516 132.685 10.7005 132.927 10.8766C133.156 11.0595 133.331 11.2559 133.466 11.4726C133.587 11.7029 133.655 11.9534 133.655 12.2379C133.655 12.6171 133.587 12.949 133.459 13.2131C133.318 13.4772 133.129 13.6939 132.894 13.87C132.651 14.0393 132.369 14.1612 132.039 14.2493C131.702 14.3238 131.339 14.3644 130.948 14.3644C130.436 14.3644 129.938 14.2763 129.44 14.107C128.928 13.9242 128.47 13.6804 128.073 13.3553L128.477 12.5968L128.464 12.6036Z" fill="white"/>
<path d="M146.494 10.0233V10.8021H142.414V13.4094H146.77V14.1747H141.471V6.8064H146.675V7.58522H142.414V10.0233H146.494Z" fill="white"/>
<path d="M154.404 10.477C154.404 9.8878 154.499 9.34601 154.707 8.86518C154.896 8.39111 155.172 7.98477 155.508 7.63938C155.845 7.31431 156.236 7.06373 156.687 6.87411C157.131 6.7048 157.602 6.60999 158.107 6.60999C158.612 6.60999 159.097 6.7048 159.548 6.87411C159.992 7.06373 160.39 7.32108 160.726 7.63938C161.056 7.978 161.319 8.39111 161.527 8.86518C161.716 9.34601 161.817 9.8878 161.817 10.477C161.817 11.0662 161.716 11.6215 161.527 12.1024C161.319 12.5832 161.056 12.9963 160.726 13.3282C160.39 13.66 159.992 13.9174 159.548 14.107C159.097 14.2763 158.612 14.3711 158.107 14.3711C157.602 14.3711 157.124 14.2763 156.687 14.107C156.236 13.9174 155.845 13.66 155.508 13.3282C155.172 12.9963 154.896 12.59 154.707 12.1024C154.499 11.6283 154.404 11.0865 154.404 10.477ZM155.347 10.477C155.347 10.9917 155.421 11.4387 155.582 11.8112C155.731 12.1972 155.933 12.5222 156.195 12.7864C156.451 13.0505 156.74 13.2537 157.084 13.3959C157.407 13.5313 157.75 13.5923 158.114 13.5923C158.477 13.5923 158.814 13.5246 159.151 13.3959C159.481 13.2537 159.784 13.0573 160.046 12.7864C160.302 12.5222 160.511 12.1972 160.666 11.8112C160.814 11.4319 160.894 10.9849 160.894 10.477C160.894 9.96907 160.807 9.54919 160.652 9.15639C160.484 8.77714 160.275 8.44529 160.012 8.18117C159.75 7.92382 159.447 7.72742 159.117 7.5852C158.78 7.44976 158.451 7.38881 158.121 7.38881C157.791 7.38881 157.454 7.45653 157.131 7.5852C156.794 7.72742 156.498 7.92382 156.242 8.18117C155.98 8.44529 155.764 8.77714 155.603 9.15639C155.434 9.54241 155.36 9.98262 155.36 10.477H155.347Z" fill="white"/>
<path d="M172.696 14.3643C172.245 14.3643 171.841 14.2898 171.471 14.1476C171.094 13.9986 170.764 13.7887 170.502 13.5313C170.226 13.2672 170.024 12.9557 169.869 12.59C169.721 12.2378 169.64 11.8586 169.64 11.4455V6.8064H170.582V11.3506C170.582 11.6351 170.63 11.9127 170.724 12.1701C170.811 12.4342 170.939 12.6713 171.128 12.8744C171.296 13.0844 171.525 13.2334 171.788 13.3553C172.043 13.4704 172.346 13.5381 172.69 13.5381C173.033 13.5381 173.343 13.4704 173.605 13.3553C173.861 13.2334 174.077 13.0776 174.258 12.8744C174.427 12.678 174.568 12.441 174.662 12.1701C174.75 11.9127 174.797 11.6419 174.797 11.3506V6.8064H175.74V11.4455C175.74 11.8653 175.666 12.2446 175.511 12.59C175.363 12.9489 175.154 13.2672 174.891 13.5313C174.615 13.7887 174.299 13.9986 173.929 14.1476C173.552 14.2898 173.134 14.3643 172.696 14.3643Z" fill="white"/>
<path d="M183.751 6.8064H184.694V13.4027H188.855V14.1815H183.751V6.81317V6.8064Z" fill="white"/>
</svg>
