<svg width="190" height="40" viewBox="0 0 190 40" fill="none" xmlns="http://www.w3.org/2000/svg">
<path d="M21.672 5.20423C21.7461 5.31868 21.8403 5.4264 21.8538 5.54085C21.9615 5.87748 22.2779 6.08618 22.3183 6.42954C22.3318 6.54399 22.4799 6.59112 22.5607 6.64498C22.6482 6.7527 22.5876 6.87388 22.7492 7.03546C22.83 7.08259 22.7694 7.2105 22.7829 7.32495C22.8569 7.37208 22.9377 7.42594 23.0185 7.4798C23.7254 8.58392 23.7928 9.85636 22.9714 11.048C22.8435 11.1759 22.7156 11.3644 22.6617 11.5462C22.5944 11.6135 22.4597 11.6809 22.3924 11.7482C22.4059 11.8626 22.4799 11.9165 22.5674 12.0242C22.2174 12.1185 22.177 12.408 21.9077 12.6099C21.8336 12.6099 21.6922 12.6301 21.6182 12.6369C21.4229 12.8321 21.2142 12.9062 21.0055 13.0475C20.9382 13.1149 20.9584 13.2832 20.9651 13.3438C20.6285 13.6063 20.137 13.7747 19.6254 13.7612C19.5513 13.7679 19.5042 13.9497 19.4301 13.9564C19.0666 13.9901 18.629 13.9699 18.2721 14.0036C18.124 13.9564 18.0365 13.8487 17.8884 13.8083C17.747 13.8218 17.5989 13.8352 17.4508 13.7948C17.2151 13.64 16.9256 13.6131 16.69 13.5188C16.5419 13.4717 16.2659 13.6131 16.111 13.5188C15.6263 13.0947 15.1483 12.6773 14.879 12.2329C14.7039 11.9569 14.401 11.8694 14.3 11.5866C14.2865 11.4721 14.3404 11.2904 14.1923 11.25C13.8893 11.1625 14.0172 10.9739 13.997 10.7989C13.9028 10.6306 13.8893 10.5161 13.7277 10.3546C13.6335 10.1862 13.7547 9.94388 13.6604 9.72171C13.6604 9.66112 13.721 9.60053 13.7143 9.53993C13.6065 9.19658 13.7816 8.83303 13.7479 8.54353C13.7277 8.36849 13.7749 8.13285 13.8287 7.95107C14.0038 7.58079 14.1788 7.15664 14.502 6.77963C14.4952 6.72577 14.4818 6.61131 14.475 6.55072C14.5424 6.4834 14.6097 6.4834 14.677 6.41607C14.7915 6.11311 14.9059 5.87074 15.1011 5.62164C15.357 5.30522 15.7609 5.03592 16.0908 4.71276C16.2861 4.51752 16.5621 4.37614 16.7439 4.06644C16.8112 3.99912 17.0401 4.10011 17.1074 4.03278C17.3027 3.83754 17.5989 3.8712 17.8009 3.73655C18.0028 3.6019 17.9624 3.89813 18.1711 3.81734C18.3125 3.80388 18.3799 3.73655 18.5212 3.66923C18.7299 3.59517 18.9656 3.74329 19.1877 3.78368C19.4032 3.76348 19.6254 3.80388 19.861 3.95199C20.1774 4.15397 20.8978 4.08664 21.0122 4.48386C21.1873 4.75989 21.5037 4.96186 21.6788 5.23789L21.672 5.20423Z" fill="#BC1339"/>
<path d="M33.8645 9.77553C33.8578 9.59375 33.8645 9.48603 33.7905 9.29753C33.7703 9.11575 33.9117 8.91378 33.8511 8.67141C33.8107 8.60408 33.7164 8.52329 33.7299 8.46943C33.8511 8.09241 33.8645 7.74233 33.8309 7.33165C33.7972 7.21046 33.7568 7.14314 33.7164 7.07581C33.7232 7.02195 33.7501 6.9075 33.7703 6.79978C33.777 6.45643 33.6693 6.19386 33.5683 5.88417C33.5347 5.76298 33.4471 5.6822 33.4269 5.50715C33.3865 5.43983 33.2923 5.35904 33.3058 5.30518C33.4 4.80024 33.1509 4.3963 33.0836 3.91829C32.9691 3.37296 32.4507 3.02287 32.2892 2.46408C32.2959 2.41022 32.4642 2.43042 32.5181 2.44388C32.9287 2.8209 33.3731 3.27197 33.4875 3.8173C33.5616 4.00581 33.5279 4.17412 33.6087 4.30877C33.9521 4.73292 34.0194 5.27151 34.08 5.80338C34.0733 5.85724 34.181 5.82358 34.2214 5.89763C34.2146 5.95149 34.1877 6.06595 34.2348 6.13327C34.4974 6.42277 34.3358 6.73919 34.3897 7.04215C34.4233 7.16334 34.457 7.23066 34.4974 7.29799C34.4907 7.35184 34.356 7.49996 34.3426 7.55382C34.558 7.83658 34.6522 8.20013 34.5917 8.53676C34.834 8.65121 34.7263 8.97437 34.7869 9.21674C34.8273 9.28406 34.8811 9.29753 34.9283 9.30426C34.9956 9.20327 35.0697 9.10228 35.0899 8.98783C35.1235 8.53003 35.1437 8.12608 35.0562 7.70193C34.9821 7.51342 34.9619 7.33165 35.0966 7.19027C34.9956 7.17007 34.9619 7.04215 34.9215 6.97483C34.7398 6.23426 34.659 5.4129 34.4435 4.65886C34.4435 4.65886 34.5041 4.61173 34.5176 4.55787C34.4435 3.89809 33.9386 3.27197 33.6962 2.61219C33.6558 2.49101 33.4673 2.34963 33.3731 2.22171C33.3731 2.22171 33.3731 2.16785 33.3865 2.10726C33.6424 2.14092 33.8444 2.39002 33.979 2.58526C34.2483 2.96901 34.558 3.39316 34.6388 3.8173C34.7802 4.19432 34.9889 4.59827 35.0764 4.96855C35.1303 5.21766 35.312 5.37923 35.4332 5.58121C35.5005 5.77645 35.4669 5.93803 35.4803 6.1198C35.5544 6.54395 35.6823 6.96136 35.7631 7.38551C35.8641 7.6952 35.9112 8.05202 35.8035 8.32132C35.6621 8.81279 35.9853 9.35139 36.1199 9.78226C36.194 9.97077 36.0997 10.1862 36.0189 10.3411C36.0122 10.3949 36.0997 10.4757 36.0863 10.5296C35.992 10.7383 36.0661 10.9335 36.0257 11.1557C35.9651 11.2028 36.0997 11.3442 36.0257 11.4452C35.9651 11.4923 35.9112 11.4788 35.8506 11.526C35.7698 11.6808 35.8439 11.8693 35.8102 12.0376C35.6486 12.3473 35.7294 12.7782 35.4265 13.0004C35.312 13.034 35.3053 13.0879 35.2447 13.135C35.2918 13.1485 35.339 13.2158 35.3794 13.2831C35.3188 13.3303 35.2649 13.3168 35.2043 13.3639C35.1841 13.4717 35.3995 13.613 35.4399 13.6804C35.3592 14.1314 35.0225 14.5219 35.0293 15.047C35.0091 15.1615 34.9754 15.3298 34.9619 15.4375C34.861 15.7068 34.6657 15.8953 34.5647 16.1646C34.5445 16.2791 34.3291 16.2858 34.3089 16.4003C34.1742 16.5484 34.1877 16.7773 34.0935 16.9927C34.0194 17.0937 33.8713 17.06 33.7501 17.1476C33.6087 17.3495 33.6289 17.5246 33.5347 17.74C33.3798 17.9959 33.198 18.2719 33.0432 18.5277C32.8681 18.898 32.5786 19.2548 32.2622 19.5309C32.2084 19.5174 32.1006 19.5511 32.0401 19.5982C31.8785 19.9079 31.69 20.1435 31.3466 20.3051C31.2927 20.2916 31.2187 20.5407 31.1581 20.5811C30.9157 20.7562 30.7811 20.9581 30.4916 21.1265C30.3839 21.1601 30.3233 21.2072 30.2021 21.0053C29.8251 21.6785 29.3201 22.2036 28.7681 22.6615C28.4853 22.8298 28.1891 22.8096 28.0006 22.9981C27.3745 23.6175 26.3781 24.2705 26.2703 24.358C26.2232 24.3446 26.0347 24.6341 26.0347 24.6341C25.8327 24.6543 25.9472 24.6677 25.7587 24.6273C25.7587 24.6273 25.7519 24.9438 25.4961 24.9909C24.9575 25.0986 24.8161 25.7247 24.7757 25.9806C24.7555 26.1085 24.668 26.021 24.6007 26.0748C24.5401 26.1287 24.5805 26.2027 24.5199 26.2566C24.2843 26.398 24.0823 26.6875 23.887 26.9096C23.8265 26.9635 23.7861 26.8827 23.7255 26.9366C23.6649 26.9904 23.3754 27.3405 23.2744 27.6569C23.032 28.2023 22.7627 28.687 22.4261 29.0708C22.3453 29.165 22.6146 29.5286 22.5944 29.6497C22.5136 29.8248 22.3588 29.8517 22.2847 30.02C22.2107 30.4509 22.1972 30.9222 22.1231 31.3733C22.002 31.8176 22.1501 32.1273 22.2107 32.5245C22.278 32.8544 22.1905 33.2853 22.2107 33.6084C22.2376 33.871 22.4126 34.1538 22.3857 34.4029C22.3924 34.7866 22.3049 34.7395 22.3857 35.0626C22.3722 35.2512 22.3116 35.4397 22.3588 35.5676C22.3453 35.8234 22.3049 35.9783 22.2914 36.2341C22.2376 36.2947 22.1231 36.4159 22.1231 36.4765C22.0827 37.1093 21.6653 37.6748 21.2345 38.0922C20.9652 38.2673 20.7295 38.5299 20.4198 38.5097C20.265 38.5029 19.7466 38.8261 19.5783 38.8665C19.1205 38.9944 18.7569 39.0011 18.3193 38.9405C17.8346 38.8059 17.4508 38.6847 17.1209 38.1932C16.9257 37.9711 16.5823 38.0586 16.4544 37.7152C16.414 37.5806 16.138 37.5133 16.0909 37.4392C15.8418 37.2103 15.7071 36.9343 15.5119 36.6515C15.3839 36.3149 15.4782 36.086 15.3234 35.7561C15.1618 35.5541 15.0945 35.4127 14.9396 35.2108C14.7309 34.9415 14.9867 34.5577 14.8319 34.2951C14.7242 34.2278 14.6164 34.0932 14.5693 33.9585C14.4683 33.696 14.4885 33.3189 14.3337 33.0429C14.2529 32.713 14.3068 31.5146 14.3673 31.1915C14.3808 31.1242 14.1923 31.0366 14.2058 30.9693C14.2327 30.5048 14.3943 30.0537 14.3539 29.5757C14.401 29.3199 14.3808 29.1112 14.6164 28.889C14.6164 28.889 14.5087 28.8015 14.5155 28.7341C14.6501 28.3571 14.6501 28.0744 14.7242 27.6839C14.7376 27.6165 14.8723 27.5829 14.8857 27.5156C14.8117 27.2328 14.805 26.6538 14.8588 26.3912C14.8857 26.2633 15.2156 26.0681 15.2964 25.9536C15.3099 25.893 15.2493 25.7247 15.3705 25.5026C15.4041 25.4487 15.4917 25.4622 15.5523 25.415C15.5657 25.3477 15.5186 25.2736 15.5321 25.2063C15.5657 25.0111 15.8889 24.8697 15.9158 24.7418C16.0437 24.3042 16.2659 24.1157 16.4948 23.7588C16.5823 23.604 16.6093 23.4357 16.7439 23.2876C16.8045 23.2404 16.8382 23.2876 16.8449 23.227C16.8584 23.1731 16.8247 23.0452 16.8314 22.9913C16.9593 22.8432 17.1411 22.7086 17.168 22.5403C17.2556 22.3248 17.3364 22.17 17.4643 22.0219C17.6999 21.8468 17.9423 21.6651 18.0904 21.4092C18.2183 21.2611 18.3664 21.2948 18.5011 21.1534C18.6896 20.9649 18.7367 20.6821 18.8781 20.4869C19.208 20.0964 19.5648 19.8271 19.9216 19.5578C20.2179 19.3356 20.6016 19.2414 20.8844 19.0731C21.1806 18.8509 21.3624 18.4267 21.6519 18.2584C21.8269 18.1238 22.0423 18.1103 22.2174 17.9757C22.3992 17.841 22.5473 17.5852 22.8166 17.5313C23.409 17.3765 22.9849 17.5448 23.5437 17.3159C23.8938 17.1004 23.7457 17.0466 24.0957 16.8311C24.6747 16.4945 24.971 16.2791 25.0248 16.2925C25.0854 16.2522 25.146 16.205 25.1662 16.0906C25.3076 15.8886 26.0414 15.3702 26.1559 15.3365C26.2636 15.3029 26.3915 15.451 26.5194 15.3029C26.5935 15.2019 26.4521 15.1144 26.5194 15.0134C26.7079 14.8249 26.8897 14.569 27.0715 14.4344C27.1321 14.3873 27.2735 14.4815 27.3879 14.4411C27.4485 14.4007 27.4687 14.2863 27.5293 14.2391C27.6034 14.1382 27.4687 13.9968 27.536 13.8891C27.6168 13.7342 27.6976 13.5794 27.8121 13.5457C27.9871 13.4649 28.216 13.3437 28.1891 13.2225C28.2295 13.0004 28.3237 12.7849 28.5526 12.6638C28.5594 12.6099 28.5728 12.5493 28.5863 12.4954C28.7142 12.3473 28.8421 12.2598 28.9701 12.1184C29.1114 11.9165 29.0508 11.6741 29.1316 11.5125C29.3942 11.223 29.65 10.9874 29.7241 10.5969C29.7039 10.4151 29.5894 10.1593 29.6702 10.0044C29.7376 9.90345 29.9665 9.83612 29.9867 9.7284C30.027 9.50623 29.9126 9.2504 29.9059 9.01476C29.9328 8.84645 30.1213 8.7118 30.0944 8.53676C30.0742 8.06549 30.1078 7.60768 30.0338 7.12967C30.1954 7.10948 30.2156 6.99502 30.2358 6.88057C30.1954 6.52375 29.9934 6.18713 29.8991 5.81684C29.8924 5.58121 30.0809 5.3927 30.0742 5.15706C30.054 4.98202 29.8857 4.76658 29.6972 4.61173C29.5221 4.3963 29.6366 4.07314 29.576 3.83077C29.5221 3.52781 29.2999 3.30564 29.2595 2.94882C29.2393 2.76704 29.0239 2.78051 28.9566 2.592C28.896 2.3429 28.8354 2.10053 28.8354 1.81103C28.8017 1.68985 28.6402 1.71004 28.5526 1.62926C28.3507 1.29263 28.418 0.612654 27.9669 0.457807C28.0073 0.235636 27.8053 0.188509 27.7313 0C28.0006 0 28.2429 0.107719 28.3911 0.43761C28.4315 0.504934 28.5863 0.538597 28.6334 0.552062C28.7681 0.700176 28.7546 1.04353 28.896 1.13105C29.0778 1.2859 29.3538 1.23204 29.4279 1.42055C29.5288 1.73024 29.7645 1.89855 29.8789 2.16112C29.8722 2.21498 29.8991 2.33616 29.9395 2.40349C30.1213 2.55833 30.1415 2.74011 30.2761 2.88149C30.5858 3.23831 30.8888 3.60187 30.7474 4.0866C30.6599 4.30204 30.9292 4.24145 31.0167 4.3761C31.2187 4.71272 31.1379 5.15706 31.4005 5.44656C31.3533 6.01882 31.6226 6.54395 31.7977 7.04888C31.5015 7.50669 31.6698 8.30785 31.8987 8.76566C31.8987 8.76566 32.0602 8.74546 32.0737 8.68487C32.1208 8.40884 32.6325 8.31459 32.5517 8.17994C32.4507 7.86351 32.2959 7.21046 32.2959 6.92097C32.3295 6.46316 32.343 6.05921 32.2757 5.58121C32.2353 5.51388 32.1949 5.44656 32.1545 5.37923C32.0939 5.13013 32.0333 4.88776 32.0804 4.605C32.0468 4.48382 31.9593 4.40303 31.9256 4.28184C31.9391 4.22798 31.9525 4.11353 31.966 4.05967C32.0804 4.02601 32.2218 4.11353 32.3228 4.14046C32.4171 4.22125 32.3295 4.3761 32.3767 4.44342C32.5383 4.71272 32.7874 4.82717 32.8345 5.1234C32.8277 5.17726 32.8008 5.29171 32.7941 5.34557C32.8345 5.70239 33.0499 5.98516 33.097 6.28138C33.1172 6.46316 32.9624 6.71899 33.0365 6.9075C33.2721 7.36531 33.2788 7.89044 33.2384 8.40211C33.198 8.62428 33.4808 8.80606 33.4 8.9609C33.3192 9.11575 33.4202 9.14268 33.3394 9.29753C33.326 9.35139 33.2182 9.38505 33.2048 9.44564C33.3596 9.7688 33.124 10.2603 33.0768 10.543C33.0701 10.5969 33.2519 10.6575 33.2923 10.4555C33.3125 10.3343 33.5279 10.3343 33.6356 10.3007C33.7568 10.2131 33.8511 9.9977 33.8376 9.76206L33.8645 9.77553ZM34.9619 10.8931C34.9754 10.6104 35.1033 10.4016 35.0562 10.0987C34.9552 9.78899 34.7263 10.0987 34.558 10.1189C34.6522 10.4892 34.4974 10.745 34.3829 11.0682C34.3156 11.1691 34.2618 11.4519 34.4233 11.425C34.6792 11.4788 34.9485 11.2365 34.9619 10.8931ZM34.5243 12.4214C34.5849 12.3339 34.558 12.1521 34.4637 12.0713C34.3224 11.9838 34.1406 12.1184 34.0531 12.2733C33.9723 12.4281 34.0329 12.6772 34.2483 12.6638C34.2954 12.6772 34.4435 12.5224 34.5176 12.4214H34.5243Z" fill="#008ACF"/>
<path d="M31.5284 2.88824C31.7977 3.09695 31.9055 3.4403 32.1209 3.71633L32.1007 3.83078C31.7237 4.15394 31.4005 3.61535 31.2995 3.30565C31.1447 2.98249 30.9966 2.65934 30.7138 2.4237C30.7273 2.36984 30.734 2.30925 30.7475 2.25539C30.6128 2.10727 30.4445 1.89857 30.6128 1.81778C30.6802 1.71679 30.8081 1.91877 30.9494 2.00629C31.1649 2.28905 31.2053 2.64587 31.5284 2.88824Z" fill="#008ACF"/>
<path d="M33.0699 1.45423C33.0699 1.50809 32.9824 1.60908 32.969 1.66293C32.7939 1.50136 32.6121 1.33304 32.4573 1.06375C32.4102 1.05028 32.3092 1.02335 32.2688 0.956026C32.2217 0.942562 32.2284 0.888702 32.2419 0.834842C32.4034 0.821377 32.5313 0.969491 32.6727 1.06375C32.7199 1.07721 32.7872 1.03682 32.8343 1.05028C32.9757 1.14454 33.0497 1.28592 33.0632 1.46096L33.0699 1.45423Z" fill="#008ACF"/>
<path d="M10.0652 11.7413C10.1123 11.7817 10.1864 11.849 10.2268 11.8962C10.3076 11.95 10.3951 11.9568 10.4826 11.9164C10.5702 11.9164 10.6442 12.1385 10.7317 12.1453C10.8529 12.2059 10.9337 12.4213 11.0549 12.5223C11.1357 12.5761 11.2232 12.6569 11.304 12.7108C11.4184 12.8589 11.4925 13.007 11.6137 13.108C11.6945 13.209 11.8224 13.1753 11.9099 13.1821C12.0782 13.2427 12.1456 13.485 12.26 13.6331C12.3004 13.6331 12.3745 13.7813 12.3745 13.8284C12.4552 13.8822 12.536 13.9832 12.6572 14.0371C12.6909 14.0909 12.6909 14.1785 12.7245 14.2323C13.0342 14.7238 13.4382 15.0402 13.694 15.5788C13.694 15.5788 13.7277 15.6731 13.7277 15.7202C14.0441 16.0299 14.1855 16.4608 14.4615 16.8109C14.5356 16.959 14.6029 17.1946 14.677 17.3899C14.7577 17.4908 14.8385 17.5447 14.9126 17.6457C15.027 17.8409 15.1348 18.09 15.1617 18.3257C15.1617 18.4199 15.0944 18.696 14.9328 18.5411C14.7308 18.3391 14.7577 18.0564 14.5558 17.9015C14.5558 17.8544 14.5019 17.7332 14.4615 17.6861C14.3807 17.5918 14.2326 17.5918 14.199 17.4504C14.2124 17.3091 14.0508 17.1946 13.97 17.1004C13.7681 16.8109 13.4718 16.7031 13.2295 16.4136C13.1824 16.4136 13.142 16.4136 13.1016 16.454C13.0544 16.5416 12.9198 16.6829 13.0477 16.8243C13.216 16.9253 13.2901 17.1138 13.4988 17.2215C13.62 17.3225 13.6536 17.6053 13.7277 17.8409C13.8085 17.9352 13.8893 18.0362 14.0172 18.09C14.1384 18.191 14.0912 18.3391 14.2057 18.4872C14.2057 18.5344 14.1586 18.5748 14.1518 18.6219C14.2259 18.77 14.4009 18.7363 14.5154 18.8845C14.6096 18.7969 14.7308 18.8643 14.8049 18.9989C14.6635 19.1268 14.7039 19.2278 14.65 19.3625C14.5086 19.5846 14.8318 19.8001 15.0338 19.9078C15.1617 19.9213 15.1415 20.1502 15.2627 20.2579C15.3367 20.406 15.5522 20.4195 15.6666 20.6214C15.707 20.7224 15.6128 20.7561 15.5656 20.8503C15.5522 20.9917 15.7205 21.0523 15.8013 21.1062C15.8821 21.16 15.9225 21.261 15.9561 21.3553C15.8282 21.3889 15.5724 21.2139 15.4445 21.2072C15.3637 21.1735 15.2088 20.985 15.0472 20.9513C14.9934 20.9379 14.953 21.0725 14.8924 21.059C14.8183 21.0456 14.7308 21.0254 14.65 21.0119C14.5625 20.9985 14.3471 20.7561 14.2528 20.7426C14.1451 20.7224 14.0172 20.9177 13.9162 20.9042C13.5324 20.8369 13.519 20.8099 13.3978 20.7628C13.2564 20.709 13.1218 20.6416 12.9938 20.5676C12.9131 20.5204 12.9333 20.4127 12.8592 20.3656C12.7784 20.3117 12.6168 20.3185 12.536 20.2646C12.2263 20.0761 11.9368 19.652 11.6743 19.5173C11.4992 19.4298 11.3579 19.3423 11.1626 19.248C11.0684 19.1874 11.001 19.0595 10.8799 19.0191C10.523 18.8979 10.2335 18.669 9.82285 18.5546C9.04189 18.3324 8.39557 18.7767 7.76272 19.1066C7.72906 19.1066 7.66174 19.1066 7.62807 19.1268C7.47996 19.248 7.31165 19.3221 7.16353 19.4163C6.96829 19.5712 6.69226 19.6116 6.47682 19.7395C6.4095 19.7799 6.40276 19.9078 6.33544 19.9482C6.23445 20.0088 6.05268 20.0222 5.94496 20.0828C5.8507 20.1434 5.84397 20.2511 5.74972 20.3185C5.56794 20.4666 5.3929 20.5878 5.1438 20.7022C5.00241 20.7695 3.8377 20.9715 3.64246 20.9783C3.3395 20.9783 3.13079 21.2341 2.68645 21.2274C2.00647 21.2274 1.31976 21.2072 0.754232 20.7897C0.633047 20.6888 0.61285 20.3993 0.53206 20.3521C0.289692 20.1906 0.309889 19.8674 0.242565 19.625C0.161775 19.5712 -0.00653634 19.5577 0.000196115 19.4163C0.0944505 18.7229 0.437806 18.09 0.861951 17.6053C0.962938 17.4235 1.17838 17.3495 1.19857 17.1138C1.19857 17.1138 1.57559 16.582 1.81123 16.3665C1.85835 16.279 1.7843 16.1309 1.83816 16.0366C2.18825 15.3634 2.8211 14.8988 3.33276 14.2795C3.46741 14.1515 3.5684 13.9698 3.78384 13.9428C3.87136 13.9428 3.95215 13.9563 4.00601 13.8688C4.107 13.6399 4.28877 13.5187 4.42342 13.4312C4.91489 13.0945 5.3323 12.5896 5.89783 12.4954C5.98535 12.455 6.03248 12.3674 6.12673 12.327C6.22099 12.2395 6.38257 12.3472 6.47009 12.3068C6.8875 12.1183 7.27125 11.7144 7.70213 11.6538C7.78965 11.6134 7.84351 11.5259 7.88391 11.5259C8.26766 11.5595 8.71873 11.2229 9.07555 11.5797C9.39871 11.5124 9.88345 11.5797 10.0854 11.7548L10.0652 11.7413ZM12.9938 15.8414C12.9938 15.7943 12.9938 15.7471 12.9938 15.7C12.8255 15.599 12.7515 15.3163 12.5428 15.2557C12.5024 15.2557 12.4149 15.2961 12.4081 15.3432C12.3947 15.6259 12.5158 15.8145 12.637 16.0568C12.6909 15.8751 12.8121 15.8818 12.8929 16.0232C12.94 15.976 12.9804 15.8885 12.9871 15.8414H12.9938Z" fill="#3C9148"/>
<path d="M47.282 27.8589C47.282 29.0707 47.1608 30.2085 46.9184 31.279L52.8564 35.8369L50.9915 38.651L45.6325 34.4836C44.9997 35.4262 44.2254 36.2543 43.2829 36.9342C42.3134 37.6142 41.1285 38.1932 39.7214 38.6779L38.0518 35.8705C39.0212 35.5339 39.8426 35.1703 40.5495 34.7327C41.2295 34.322 41.7883 33.7902 42.2192 33.1573C42.6568 32.5514 42.9732 31.8243 43.1886 30.9491C43.3839 30.1008 43.4781 29.0573 43.4781 27.8454V18.999H47.282V27.8656V27.8589ZM58.5319 39.055H54.7281V28.2224L50.224 29.7709V26.4989L54.7281 24.9505V18.797H58.5319V39.055Z" fill="#1D1D1D"/>
<path d="M60.3499 27.226H80.5876V29.9392H72.374V31.0769H79.4027V36.436H65.3453V37.2843H79.6451V39.5396H61.5415V34.1806H75.5989V33.3323H61.5415V31.0769H68.5702V29.9392H60.3566V27.226H60.3499ZM79.396 22.2574C79.396 23.6174 78.6217 24.5868 77.1204 25.1187C75.5921 25.6977 73.3637 25.967 70.4553 25.967C67.5469 25.967 65.3184 25.6977 63.8171 25.1187C62.2888 24.5868 61.5415 23.6174 61.5415 22.2574C61.5415 20.8975 62.2955 19.9549 63.8171 19.3759C65.3184 18.8441 67.5267 18.5546 70.4553 18.5546C73.3839 18.5546 75.5921 18.8441 77.1204 19.3759C78.6217 19.9549 79.396 20.9042 79.396 22.2574ZM75.5921 22.2574C75.5921 21.8939 75.1343 21.6246 74.212 21.4832C73.2694 21.3351 72.0037 21.2677 70.4553 21.2677C68.9068 21.2677 67.668 21.3418 66.7457 21.4832C65.8031 21.6515 65.3386 21.9208 65.3386 22.2574C65.3386 22.6479 65.7964 22.8903 66.7457 23.0317C67.668 23.1798 68.9001 23.2471 70.4553 23.2471C72.0105 23.2471 73.2694 23.173 74.212 23.0317C75.1343 22.8835 75.5921 22.6412 75.5921 22.2574Z" fill="#1D1D1D"/>
<path d="M90.6661 27.8589C90.6661 29.0977 90.518 30.2085 90.2756 31.2251L96.4762 35.8301L94.6113 38.6443L88.9426 34.3759C88.3097 35.3454 87.5153 36.1937 86.5189 36.8938C85.5023 37.594 84.2904 38.1797 82.8564 38.6645L81.1868 35.857C82.1562 35.5204 82.9776 35.1569 83.7047 34.7193C84.4049 34.3086 84.9906 33.7767 85.4753 33.1439C85.9332 32.5379 86.2765 31.8108 86.5189 30.9356C86.7343 30.0873 86.8555 29.0438 86.8555 27.832V18.9855H90.6593V27.8522L90.6661 27.8589ZM101.667 39.055H97.8631V18.797H101.667V39.055Z" fill="#1D1D1D"/>
<path d="M103.808 21.7997V19.0394H116.142V25.7786H107.612V26.9635H116.626V29.7238H103.808V23.0115H112.338V21.7997H103.808ZM108.628 30.7875V32.2148H119.434V30.7875H123.238V39.533H104.818V30.7875H108.622H108.628ZM119.434 36.6044V35.1501H108.628V36.6044H119.434ZM123.238 18.797V29.7036H119.434V18.797H123.238Z" fill="#1D1D1D"/>
<path d="M133.565 19.7597H138.507V22.7153H133.565V24.0954C133.565 24.459 133.538 24.7956 133.491 25.1389L138.87 28.6062L137.053 31.178L132.232 28.1012C131.068 29.5285 129.034 30.572 126.126 31.252L124.503 28.586C125.473 28.3907 126.274 28.1484 126.954 27.8858C127.607 27.6434 128.139 27.327 128.577 26.9634C128.987 26.6268 129.304 26.2094 129.499 25.7247C129.667 25.2669 129.768 24.7081 129.768 24.0752V22.7153H125.069V19.7597H129.768V17.7467H133.572V19.7597H133.565ZM130.199 32.6322V36.6043H145.051V39.5397H126.389V32.6322H130.192H130.199ZM144.809 18.797V33.265H141.005V26.2633L137.975 26.9432V23.9136L141.005 23.2337V18.797H144.809Z" fill="#1D1D1D"/>
<path d="M154.847 35.1031V31.8311H146.633V28.8756H166.871V31.8311H158.657V35.1031H154.853H154.847ZM151.622 33.3594V36.5842H165.922V39.5398H147.818V33.3594H151.622ZM165.437 27.3742H148.06V19.0394H165.437V27.3742ZM151.864 21.995V24.4187H161.633V21.995H151.864Z" fill="#1D1D1D"/>
<path d="M179.4 19.2818V22.2373H172.008V35.8571H179.642V38.8126H168.52V19.2818H179.4ZM180.854 39.055V18.797H184.342V27.3742L186.476 26.6201V18.7903H189.99V39.0483H186.476V29.8854L184.342 30.6394V39.0483H180.854V39.055Z" fill="#1D1D1D"/>
<path d="M61.4875 6.76611H62.4503L65.3183 14.091H64.3353L63.2918 11.4115L60.3228 12.2396L59.6092 14.091H58.6262L61.4942 6.76611H61.4875ZM60.6392 11.4115L63.036 10.745L61.9723 7.99142L60.646 11.4115H60.6392Z" fill="#1D1D1D"/>
<path d="M73.0675 12.5291C73.2291 12.6772 73.4176 12.8186 73.6263 12.9331C73.835 13.0543 74.0504 13.1485 74.2861 13.2428C74.515 13.3303 74.7371 13.3909 74.9862 13.438C75.2151 13.4784 75.4373 13.5053 75.6527 13.5053C76.1442 13.4986 76.5482 13.3909 76.8579 13.1956C77.1608 12.9869 77.3089 12.6705 77.3089 12.2329C77.3089 12.0511 77.2685 11.8963 77.1945 11.7414C77.107 11.6068 76.9992 11.4789 76.8579 11.3644C76.7097 11.2634 76.5212 11.1692 76.3125 11.0749C76.0971 11.0009 75.848 10.9133 75.5854 10.8393C75.1074 10.7046 74.69 10.5633 74.3534 10.4151C73.9966 10.2738 73.7138 10.1122 73.4849 9.92367C73.2493 9.74189 73.081 9.53992 72.9732 9.31101C72.8588 9.08211 72.8049 8.81955 72.8049 8.51658C72.8049 8.19343 72.8722 7.91066 73.0136 7.6683C73.1483 7.42593 73.3233 7.22395 73.5724 7.05564C73.8013 6.90753 74.0841 6.77961 74.4005 6.69882C74.7102 6.62476 75.0536 6.57764 75.4104 6.57764C75.8547 6.57764 76.2991 6.65169 76.7434 6.80654C77.1743 6.96812 77.5917 7.19029 77.9754 7.48652L77.5984 8.1665C77.457 8.06551 77.3089 7.95779 77.1339 7.86354C76.9656 7.76928 76.7838 7.68176 76.6088 7.6077C76.4203 7.53365 76.2317 7.47305 76.0432 7.42593C75.848 7.38553 75.6595 7.3586 75.4777 7.35187C75.2623 7.35187 75.0536 7.3586 74.8583 7.399C74.6496 7.43939 74.4611 7.49998 74.2995 7.58751C74.1312 7.68176 73.9966 7.80294 73.9023 7.94433C73.8013 8.09244 73.7542 8.28095 73.7542 8.48966C73.7542 8.69836 73.7811 8.86667 73.8484 9.00132C73.9023 9.14944 74.01 9.27735 74.1581 9.37834C74.2928 9.49279 74.4813 9.59378 74.7035 9.6813C74.9324 9.77555 75.2017 9.86981 75.545 9.96406C75.9624 10.0987 76.3395 10.2199 76.6761 10.3478C77.006 10.4892 77.2887 10.6373 77.5311 10.8124C77.76 10.9941 77.9351 11.1894 78.0697 11.4048C78.1909 11.6337 78.2582 11.8828 78.2582 12.1656C78.2582 12.5426 78.1909 12.8725 78.063 13.1351C77.9216 13.3976 77.7331 13.6131 77.4974 13.7881C77.2551 13.9564 76.9723 14.0776 76.6424 14.1651C76.3058 14.2392 75.9422 14.2796 75.5518 14.2796C75.0401 14.2796 74.5419 14.192 74.0437 14.0237C73.532 13.842 73.0742 13.5996 72.677 13.2764L73.0809 12.5224L73.0675 12.5291Z" fill="#1D1D1D"/>
<path d="M89.2119 7.54035V14.0978H88.2693V7.54035H85.6975V6.76611H91.7904V7.54035H89.2186H89.2119Z" fill="#1D1D1D"/>
<path d="M99.4185 6.76611H103.081C103.364 6.76611 103.646 6.81324 103.922 6.8873C104.185 6.97482 104.434 7.096 104.636 7.25758C104.845 7.42589 105.006 7.62787 105.134 7.87024C105.256 8.12607 105.323 8.41557 105.323 8.75892C105.323 9.04168 105.282 9.27732 105.208 9.47256C105.134 9.68127 105.027 9.84958 104.899 9.99096C104.757 10.1391 104.596 10.2535 104.407 10.3478C104.212 10.4488 104.003 10.5363 103.774 10.6036L105.639 14.091H104.65L102.879 10.8258L100.361 11.4317V14.091H99.4185V6.76611ZM104.394 8.75219C104.394 8.56368 104.353 8.3819 104.279 8.23379C104.205 8.08568 104.098 7.95776 103.97 7.85004C103.835 7.75578 103.68 7.66826 103.505 7.6144C103.317 7.56728 103.121 7.54035 102.913 7.54035H100.368V10.5767L102.791 10.065C103.337 9.95057 103.747 9.78899 104.01 9.58701C104.266 9.3985 104.394 9.11574 104.394 8.75892V8.75219Z" fill="#1D1D1D"/>
<path d="M112.991 10.4152C112.991 9.82943 113.085 9.29084 113.294 8.81283C113.482 8.34156 113.758 7.93761 114.095 7.59426C114.432 7.2711 114.822 7.022 115.273 6.83349C115.718 6.66518 116.189 6.57092 116.694 6.57092C117.199 6.57092 117.683 6.66518 118.135 6.83349C118.579 7.022 118.976 7.27783 119.313 7.59426C119.643 7.93088 119.905 8.34156 120.114 8.81283C120.302 9.29084 120.403 9.82943 120.403 10.4152C120.403 11.0009 120.302 11.5529 120.114 12.0309C119.905 12.509 119.643 12.9196 119.313 13.2495C118.976 13.5794 118.579 13.8352 118.135 14.0238C117.683 14.1921 117.199 14.2863 116.694 14.2863C116.189 14.2863 115.711 14.1921 115.273 14.0238C114.822 13.8352 114.432 13.5794 114.095 13.2495C113.758 12.9196 113.482 12.5157 113.294 12.0309C113.085 11.5597 112.991 11.0211 112.991 10.4152ZM113.934 10.4152C113.934 10.9268 114.008 11.3712 114.169 11.7415C114.317 12.1252 114.519 12.4484 114.782 12.7109C115.038 12.9735 115.327 13.1755 115.67 13.3168C115.994 13.4515 116.337 13.5121 116.701 13.5121C117.064 13.5121 117.401 13.4448 117.737 13.3168C118.067 13.1755 118.37 12.9802 118.633 12.7109C118.889 12.4484 119.097 12.1252 119.252 11.7415C119.4 11.3644 119.481 10.9201 119.481 10.4152C119.481 9.91022 119.394 9.49281 119.239 9.10233C119.07 8.72531 118.862 8.39542 118.599 8.13285C118.337 7.87702 118.034 7.68178 117.704 7.5404C117.367 7.40575 117.037 7.34516 116.707 7.34516C116.377 7.34516 116.041 7.41248 115.718 7.5404C115.381 7.68178 115.085 7.87702 114.829 8.13285C114.566 8.39542 114.351 8.72531 114.189 9.10233C114.021 9.48608 113.947 9.92369 113.947 10.4152H113.934Z" fill="#1D1D1D"/>
<path d="M128.462 12.5291C128.624 12.6772 128.812 12.8186 129.021 12.9331C129.23 13.0543 129.445 13.1485 129.681 13.2428C129.909 13.3303 130.132 13.3909 130.381 13.438C130.61 13.4784 130.832 13.5053 131.047 13.5053C131.539 13.4986 131.943 13.3909 132.252 13.1956C132.555 12.9869 132.703 12.6705 132.703 12.2329C132.703 12.0511 132.663 11.8963 132.589 11.7414C132.501 11.6068 132.394 11.4789 132.252 11.3644C132.104 11.2634 131.916 11.1692 131.707 11.0749C131.492 11.0009 131.243 10.9133 130.98 10.8393C130.502 10.7046 130.085 10.5633 129.748 10.4151C129.391 10.2738 129.108 10.1122 128.879 9.92367C128.644 9.74189 128.475 9.53992 128.368 9.31101C128.253 9.08211 128.199 8.81955 128.199 8.51658C128.199 8.19343 128.267 7.91066 128.408 7.6683C128.543 7.42593 128.718 7.22395 128.967 7.05564C129.196 6.90753 129.479 6.77961 129.795 6.69882C130.105 6.62476 130.448 6.57764 130.805 6.57764C131.249 6.57764 131.694 6.65169 132.138 6.80654C132.569 6.96812 132.986 7.19029 133.37 7.48652L132.993 8.1665C132.852 8.06551 132.703 7.95779 132.528 7.86354C132.36 7.76928 132.178 7.68176 132.003 7.6077C131.815 7.53365 131.626 7.47305 131.438 7.42593C131.243 7.38553 131.054 7.3586 130.872 7.35187C130.657 7.35187 130.448 7.3586 130.253 7.399C130.044 7.43939 129.856 7.49998 129.694 7.58751C129.526 7.68176 129.391 7.80294 129.297 7.94433C129.196 8.09244 129.149 8.28095 129.149 8.48966C129.149 8.69836 129.176 8.86667 129.243 9.00132C129.297 9.14944 129.405 9.27735 129.553 9.37834C129.687 9.49279 129.876 9.59378 130.098 9.6813C130.327 9.77555 130.596 9.86981 130.94 9.96406C131.357 10.0987 131.734 10.2199 132.071 10.3478C132.4 10.4892 132.683 10.6373 132.926 10.8124C133.155 10.9941 133.33 11.1894 133.464 11.4048C133.585 11.6337 133.653 11.8828 133.653 12.1656C133.653 12.5426 133.585 12.8725 133.458 13.1351C133.316 13.3976 133.128 13.6131 132.892 13.7881C132.65 13.9564 132.367 14.0776 132.037 14.1651C131.7 14.2392 131.337 14.2796 130.946 14.2796C130.435 14.2796 129.936 14.192 129.438 14.0237C128.927 13.842 128.469 13.5996 128.072 13.2764L128.475 12.5224L128.462 12.5291Z" fill="#1D1D1D"/>
<path d="M146.492 9.96403V10.7383H142.412V13.3303H146.768V14.091H141.469V6.76611H146.673V7.54035H142.412V9.96403H146.492Z" fill="#1D1D1D"/>
<path d="M154.402 10.4152C154.402 9.82943 154.497 9.29084 154.705 8.81283C154.894 8.34156 155.17 7.93761 155.506 7.59426C155.843 7.2711 156.234 7.022 156.685 6.83349C157.129 6.66518 157.6 6.57092 158.105 6.57092C158.61 6.57092 159.095 6.66518 159.546 6.83349C159.99 7.022 160.387 7.27783 160.724 7.59426C161.054 7.93088 161.317 8.34156 161.525 8.81283C161.714 9.29084 161.815 9.82943 161.815 10.4152C161.815 11.0009 161.714 11.5529 161.525 12.0309C161.317 12.509 161.054 12.9196 160.724 13.2495C160.387 13.5794 159.99 13.8352 159.546 14.0238C159.095 14.1921 158.61 14.2863 158.105 14.2863C157.6 14.2863 157.122 14.1921 156.685 14.0238C156.234 13.8352 155.843 13.5794 155.506 13.2495C155.17 12.9196 154.894 12.5157 154.705 12.0309C154.497 11.5597 154.402 11.0211 154.402 10.4152ZM155.345 10.4152C155.345 10.9268 155.419 11.3712 155.581 11.7415C155.729 12.1252 155.931 12.4484 156.193 12.7109C156.449 12.9735 156.739 13.1755 157.082 13.3168C157.405 13.4515 157.748 13.5121 158.112 13.5121C158.475 13.5121 158.812 13.4448 159.149 13.3168C159.479 13.1755 159.782 12.9802 160.044 12.7109C160.3 12.4484 160.509 12.1252 160.664 11.7415C160.812 11.3644 160.892 10.9201 160.892 10.4152C160.892 9.91022 160.805 9.49281 160.65 9.10233C160.482 8.72531 160.273 8.39542 160.01 8.13285C159.748 7.87702 159.445 7.68178 159.115 7.5404C158.778 7.40575 158.449 7.34516 158.119 7.34516C157.789 7.34516 157.452 7.41248 157.129 7.5404C156.792 7.68178 156.496 7.87702 156.24 8.13285C155.978 8.39542 155.762 8.72531 155.601 9.10233C155.432 9.48608 155.358 9.92369 155.358 10.4152H155.345Z" fill="#1D1D1D"/>
<path d="M172.694 14.2795C172.243 14.2795 171.839 14.2055 171.469 14.0641C171.092 13.916 170.762 13.7073 170.499 13.4514C170.223 13.1889 170.021 12.8792 169.867 12.5156C169.718 12.1655 169.638 11.7885 169.638 11.3778V6.76611H170.58V11.2836C170.58 11.5664 170.627 11.8424 170.722 12.0982C170.809 12.3608 170.937 12.5964 171.126 12.7984C171.294 13.0071 171.523 13.1552 171.785 13.2764C172.041 13.3909 172.344 13.4582 172.688 13.4582C173.031 13.4582 173.341 13.3909 173.603 13.2764C173.859 13.1552 174.074 13.0004 174.256 12.7984C174.424 12.6032 174.566 12.3675 174.66 12.0982C174.748 11.8424 174.795 11.5731 174.795 11.2836V6.76611H175.737V11.3778C175.737 11.7953 175.663 12.1723 175.508 12.5156C175.36 12.8725 175.152 13.1889 174.889 13.4514C174.613 13.7073 174.297 13.916 173.926 14.0641C173.549 14.2055 173.132 14.2795 172.694 14.2795Z" fill="#1D1D1D"/>
<path d="M183.749 6.76611H184.692V13.3235H188.852V14.0978H183.749V6.77285V6.76611Z" fill="#1D1D1D"/>
</svg>
