<?xml version="1.0" encoding="utf-8"?>
<!-- Generator: Adobe Illustrator 25.2.0, SVG Export Plug-In . SVG Version: 6.00 Build 0)  -->
<svg version="1.1" id="Layer_1" xmlns="http://www.w3.org/2000/svg" xmlns:xlink="http://www.w3.org/1999/xlink" x="0px" y="0px"
	 viewBox="0 0 30 30" style="enable-background:new 0 0 30 30;" xml:space="preserve">
<style type="text/css">
	.st0{fill:#F1F1F1;}
</style>
<path class="st0" d="M6.8,19.6c0,1,0.3,1.8,1.1,2.5c0.7,0.7,1.6,1.1,2.5,1.1h6.9c1,0,1.8-0.4,2.5-1c0.7-0.7,1-1.5,1-2.5
	c0-0.5-0.1-0.9-0.2-1.2c0.8-0.5,1.5-1.2,2-2.1c0.5-0.9,0.7-1.8,0.7-2.8c0-0.8-0.2-1.6-0.5-2.3c-0.3-0.7-0.7-1.4-1.3-1.9
	s-1.2-1-1.9-1.3S18,7.4,17.2,7.4c-1.1,0-2.1,0.3-3,0.8s-1.6,1.3-2.2,2.2c-0.5,0.9-0.8,1.9-0.8,3v0.3c-1,0.6-1.7,1.4-2,2.5
	c-0.8,0.2-1.4,0.7-1.8,1.3C7,18.1,6.8,18.8,6.8,19.6z M8.8,19.6c0-0.4,0.1-0.8,0.4-1.1c0.3-0.3,0.6-0.5,1-0.5l0.6-0.1
	c0.1,0,0.2-0.1,0.2-0.2l0.1-0.6c0.1-0.6,0.3-1.1,0.7-1.4c0.4-0.4,0.9-0.6,1.5-0.6c0.6,0,1.1,0.2,1.5,0.6c0.4,0.4,0.7,0.9,0.8,1.4
	l0.1,0.6c0.1,0.1,0.1,0.2,0.3,0.2h1.3c0.4,0,0.8,0.2,1.1,0.5c0.3,0.3,0.5,0.7,0.5,1.1c0,0.5-0.2,0.8-0.5,1.1s-0.7,0.5-1.1,0.5h-6.9
	c-0.4,0-0.8-0.2-1.1-0.5S8.8,20.1,8.8,19.6z M13.2,13.2c0.1-1.1,0.5-2,1.3-2.8c0.8-0.7,1.7-1.1,2.8-1.1c1.1,0,2.1,0.4,2.8,1.2
	c0.8,0.8,1.2,1.8,1.2,2.9c0,0.7-0.2,1.4-0.5,1.9c-0.3,0.6-0.8,1.1-1.4,1.5c-0.6-0.5-1.3-0.7-2-0.7c-0.3-0.9-0.8-1.6-1.5-2.1
	s-1.6-0.8-2.5-0.8C13.3,13.2,13.2,13.2,13.2,13.2z"/>
</svg>
