<?xml version="1.0" encoding="utf-8"?>
<!-- Generator: Adobe Illustrator 25.2.0, SVG Export Plug-In . SVG Version: 6.00 Build 0)  -->
<svg version="1.1" id="Layer_1" xmlns="http://www.w3.org/2000/svg" xmlns:xlink="http://www.w3.org/1999/xlink" x="0px" y="0px"
	 viewBox="0 0 30 30" style="enable-background:new 0 0 30 30;" xml:space="preserve">
<style type="text/css">
	.st0{fill:#F1F1F1;}
</style>
<path class="st0" d="M1.5,16.9c0,1.3,0.5,2.5,1.4,3.4s2.1,1.5,3.4,1.5c0.1,0,0.2-0.1,0.2-0.2v-1.3c0-0.1-0.1-0.2-0.2-0.2
	c-0.9,0-1.6-0.4-2.2-1s-0.9-1.4-0.9-2.3c0-0.8,0.3-1.5,0.8-2.2s1.3-1,2.1-1.1l0.5-0.1c0.1,0,0.2-0.1,0.2-0.2L7,12.9
	c0.1-1.1,0.6-2,1.4-2.7s1.8-1.1,2.9-1.1s2,0.4,2.9,1.1s1.3,1.6,1.4,2.7l0.1,0.6c0,0.1,0.1,0.2,0.2,0.2h1.6c0.9,0,1.6,0.3,2.3,1
	s1,1.4,1,2.3s-0.3,1.6-0.9,2.3s-1.3,1-2.2,1c-0.1,0-0.2,0.1-0.2,0.2v1.3c0,0.1,0.1,0.2,0.2,0.2c1.3,0,2.5-0.5,3.4-1.5
	s1.4-2.1,1.4-3.5c0-0.7-0.1-1.4-0.4-2c0.8-1,1.2-2.1,1.2-3.3c0-0.9-0.2-1.8-0.7-2.6S21.2,7.5,20.4,7s-1.7-0.7-2.6-0.7
	c-1.6,0-2.9,0.6-3.9,1.7c-0.8-0.4-1.7-0.7-2.7-0.7c-1.4,0-2.7,0.4-3.8,1.3c-1.1,0.9-1.8,2-2.1,3.4c-1.1,0.3-2,0.8-2.7,1.7
	S1.5,15.7,1.5,16.9z M6.9,23.8c0,0.2,0.1,0.3,0.2,0.5s0.3,0.3,0.5,0.3c0.1,0,0.2,0,0.3,0c0.4,0,0.7-0.2,0.8-0.6l1.6-5.9
	c0.1-0.2,0-0.5-0.1-0.7C10,17.2,9.8,17.1,9.6,17S9.2,17,9,17.1c-0.2,0.1-0.3,0.3-0.4,0.5L7,23.5C6.9,23.7,6.9,23.7,6.9,23.8z
	 M9.5,26.8c0,0.2,0.1,0.4,0.1,0.5c0.1,0.2,0.3,0.3,0.5,0.3c0.1,0,0.2,0,0.3,0c0.2,0,0.3-0.1,0.4-0.2c0.1-0.1,0.2-0.3,0.3-0.5
	l2.4-8.9c0.1-0.2,0-0.5-0.1-0.6s-0.3-0.3-0.5-0.4s-0.4,0-0.6,0.1c-0.2,0.1-0.3,0.3-0.4,0.5l-2.4,8.9C9.5,26.7,9.5,26.8,9.5,26.8z
	 M9.9,4.6c0,0.2,0.1,0.4,0.3,0.6l0.6,0.7C11,6,11.2,6.1,11.5,6.1c0.2,0,0.4-0.1,0.6-0.2c0.2-0.2,0.3-0.3,0.3-0.6
	c0-0.2-0.1-0.5-0.2-0.6L11.4,4c-0.2-0.2-0.4-0.3-0.6-0.3c-0.2,0-0.4,0.1-0.6,0.3C10,4.2,9.9,4.4,9.9,4.6z M13.7,23.8
	c0,0.2,0.1,0.3,0.1,0.5s0.3,0.3,0.5,0.3c0.1,0,0.2,0,0.3,0c0.2,0,0.3,0,0.5-0.1s0.3-0.3,0.3-0.5l1.6-5.9c0.1-0.2,0-0.5-0.1-0.6
	c-0.1-0.2-0.3-0.3-0.5-0.4s-0.4,0-0.6,0.1c-0.2,0.1-0.3,0.3-0.4,0.5l-1.6,5.9C13.7,23.7,13.7,23.8,13.7,23.8z M15.3,9
	c0.7-0.7,1.5-1,2.5-1s1.8,0.4,2.5,1c0.7,0.7,1,1.5,1,2.5c0,0.6-0.2,1.2-0.5,1.9c-1-1-2.1-1.4-3.5-1.4H17C16.7,10.8,16.1,9.8,15.3,9z
	 M16.9,3.8c0,0.2,0.1,0.4,0.3,0.6s0.4,0.2,0.6,0.2s0.4-0.1,0.6-0.2c0.2-0.2,0.2-0.3,0.2-0.6V1.7c0-0.3-0.1-0.5-0.2-0.6
	c-0.2-0.2-0.4-0.2-0.6-0.2c-0.3,0-0.5,0.1-0.6,0.3S17,1.6,17,1.8L16.9,3.8L16.9,3.8z M22.5,6.1c0,0.2,0.1,0.4,0.3,0.6
	c0.1,0.2,0.3,0.2,0.5,0.3s0.4-0.1,0.6-0.3l1.4-1.4c0.2-0.2,0.3-0.4,0.3-0.6s-0.1-0.4-0.3-0.6c-0.2-0.2-0.4-0.2-0.6-0.2
	S24.3,4,24.1,4.2l-1.4,1.4C22.5,5.6,22.5,5.8,22.5,6.1z M23.3,17.9c0,0.2,0.1,0.5,0.2,0.6l0.6,0.6c0.2,0.1,0.4,0.2,0.6,0.2l0,0
	c0.2,0,0.4-0.1,0.6-0.2s0.2-0.4,0.2-0.6s-0.1-0.4-0.3-0.6l-0.6-0.7C24.4,17,24.2,17,24,17s-0.4,0.1-0.6,0.3S23.3,17.7,23.3,17.9z
	 M24.7,11.6c0,0.2,0.1,0.4,0.3,0.6c0.2,0.2,0.4,0.3,0.6,0.3h2c0.2,0,0.4-0.1,0.6-0.3s0.3-0.4,0.3-0.6c0-0.2-0.1-0.4-0.3-0.6
	s-0.4-0.3-0.6-0.3h-2c-0.2,0-0.4,0.1-0.6,0.3S24.7,11.3,24.7,11.6z"/>
</svg>
