<?xml version="1.0" encoding="utf-8"?>
<!-- Generator: Adobe Illustrator 25.2.0, SVG Export Plug-In . SVG Version: 6.00 Build 0)  -->
<svg version="1.1" id="Layer_1" xmlns="http://www.w3.org/2000/svg" xmlns:xlink="http://www.w3.org/1999/xlink" x="0px" y="0px"
	 viewBox="0 0 30 30" style="enable-background:new 0 0 30 30;" xml:space="preserve">
<style type="text/css">
	.st0{fill:#F1F1F1;}
</style>
<path class="st0" d="M4.6,16.9c0,1.1,0.3,2.1,1,3s1.5,1.5,2.6,1.8l-0.7,1.7c0,0.1,0,0.2,0.1,0.2h2.1l-1,4.3H9l3.9-5.8V22l-0.1-0.1
	h-2.2l2.5-4.6c0.1-0.1,0-0.2-0.1-0.2h-2.9c-0.1,0-0.2,0-0.2,0.1l-1.1,2.9c-0.7-0.2-1.3-0.6-1.8-1.2s-0.7-1.3-0.7-2
	c0-0.8,0.3-1.6,0.8-2.2c0.6-0.6,1.3-1,2.1-1.1l0.5-0.1c0.1,0,0.2-0.1,0.2-0.2l0.1-0.5c0.1-1.1,0.6-2,1.4-2.7C12.2,9.4,13.2,9,14.2,9
	s2,0.4,2.9,1.1c0.8,0.7,1.3,1.6,1.4,2.7l0.1,0.6c0,0.1,0.1,0.2,0.2,0.2h1.6c0.9,0,1.7,0.3,2.3,0.9s1,1.4,1,2.3s-0.3,1.6-0.9,2.2
	s-1.3,1-2.2,1c-0.1,0-0.2,0.1-0.2,0.2v1.4c0,0.1,0.1,0.2,0.2,0.2c1.3,0,2.5-0.5,3.4-1.5s1.4-2.1,1.4-3.5c0-0.9-0.2-1.7-0.7-2.5
	c-0.4-0.8-1-1.4-1.8-1.8c-0.8-0.4-1.6-0.7-2.5-0.7h-0.3c-0.3-1.3-1-2.4-2.1-3.3s-2.3-1.3-3.7-1.3s-2.7,0.4-3.8,1.3s-1.8,2-2.1,3.4
	c-1.1,0.3-2,0.8-2.7,1.7S4.6,15.8,4.6,16.9z M12.8,26.6c0,0.4,0.2,0.6,0.6,0.8h0.1c0.1,0,0.1,0,0.1,0c0.2,0,0.3,0,0.5-0.1
	s0.3-0.3,0.3-0.5l2.3-8.7c0.1-0.2,0-0.5-0.1-0.6c-0.1-0.2-0.3-0.3-0.5-0.4c-0.2,0-0.3,0-0.3,0c-0.2,0-0.3,0-0.5,0.1
	c-0.1,0.1-0.3,0.3-0.3,0.5l-2.3,8.7C12.8,26.4,12.8,26.5,12.8,26.6z M16.9,23.6c0,0.1,0,0.3,0.1,0.4c0.1,0.2,0.3,0.4,0.5,0.4
	c0.1,0,0.2,0,0.3,0s0.2,0,0.3-0.1c0.2-0.1,0.4-0.3,0.4-0.6l1.4-5.7c0-0.1,0-0.2,0-0.3c0-0.1,0-0.3-0.2-0.5s-0.3-0.3-0.5-0.3
	s-0.3,0-0.3,0c-0.2,0-0.3,0-0.5,0.1s-0.2,0.3-0.3,0.5L17,23.3c0,0,0,0,0,0.1C16.9,23.5,16.9,23.5,16.9,23.6z"/>
</svg>
