<?xml version="1.0" encoding="utf-8"?>
<!-- Generator: Adobe Illustrator 25.2.0, SVG Export Plug-In . SVG Version: 6.00 Build 0)  -->
<svg version="1.1" id="Layer_1" xmlns="http://www.w3.org/2000/svg" xmlns:xlink="http://www.w3.org/1999/xlink" x="0px" y="0px"
	 viewBox="0 0 30 30" style="enable-background:new 0 0 30 30;" xml:space="preserve">
<style type="text/css">
	.st0{fill:#F1F1F1;}
</style>
<path class="st0" d="M4.1,16.9c0,1.3,0.5,2.5,1.4,3.4s2.1,1.5,3.4,1.5c0.1,0,0.2-0.1,0.2-0.2v-1.3c0-0.1-0.1-0.2-0.2-0.2
	c-0.9,0-1.6-0.4-2.2-1c-0.6-0.6-0.9-1.4-0.9-2.2s0.3-1.6,0.8-2.2s1.3-1,2.1-1l0.5-0.1c0.1,0,0.2-0.1,0.2-0.2l0.1-0.5
	c0.1-1.1,0.6-2,1.4-2.8s1.8-1.1,2.9-1.1c1.1,0,2,0.4,2.9,1.1s1.3,1.6,1.4,2.7l0.1,0.6c0,0.1,0.1,0.2,0.2,0.2h1.6
	c0.9,0,1.7,0.3,2.3,1c0.6,0.6,1,1.4,1,2.3c0,0.9-0.3,1.6-0.9,2.2s-1.3,1-2.2,1c-0.1,0-0.2,0.1-0.2,0.2v1.3c0,0.1,0.1,0.2,0.2,0.2
	c0.9,0,1.7-0.3,2.4-0.7c0.7-0.5,1.3-1,1.7-1.8s0.6-1.6,0.6-2.4c0-0.9-0.2-1.7-0.6-2.5c0.7-0.7,1.2-1.5,1.5-2.6l0.2-0.7
	c0,0,0,0,0-0.1c0-0.1,0-0.1-0.2-0.2l-0.6-0.2c-0.4-0.1-0.8-0.3-1.2-0.6s-0.6-0.5-0.8-0.8C23,9,22.8,8.7,22.7,8.4
	c-0.1-0.3-0.1-0.6-0.1-0.9c0-0.3,0-0.6,0.1-0.9L22.8,6c0-0.1,0-0.2-0.1-0.2l-0.8-0.2c-0.4-0.1-0.9-0.2-1.3-0.2c-0.4,0-0.7,0-1.1,0.1
	c-0.4,0.1-0.8,0.2-1.2,0.4s-0.8,0.4-1.2,0.8c-0.4,0.3-0.7,0.8-1,1.2c-0.8-0.3-1.6-0.5-2.4-0.5c-1.4,0-2.7,0.4-3.8,1.3
	s-1.8,2-2.1,3.4c-1.1,0.3-2,0.9-2.8,1.8C4.4,14.7,4.1,15.8,4.1,16.9z M10.5,21c0,0.2,0.1,0.4,0.2,0.6c0.2,0.2,0.4,0.3,0.6,0.3
	s0.4-0.1,0.6-0.3s0.2-0.4,0.2-0.6c0-0.2-0.1-0.4-0.2-0.6s-0.4-0.2-0.6-0.2c-0.2,0-0.4,0.1-0.6,0.2S10.5,20.8,10.5,21z M10.5,24.7
	c0,0.2,0.1,0.4,0.2,0.6s0.4,0.2,0.6,0.2c0.2,0,0.4-0.1,0.6-0.2c0.2-0.2,0.2-0.4,0.2-0.6s-0.1-0.4-0.2-0.6s-0.4-0.2-0.6-0.2
	c-0.2,0-0.4,0.1-0.6,0.2C10.5,24.2,10.5,24.4,10.5,24.7z M13.7,23c0,0.2,0.1,0.4,0.2,0.6c0.2,0.2,0.4,0.2,0.6,0.2
	c0.2,0,0.4-0.1,0.6-0.2s0.3-0.4,0.3-0.6c0-0.2-0.1-0.4-0.3-0.6s-0.4-0.3-0.6-0.3c-0.2,0-0.4,0.1-0.6,0.3S13.7,22.7,13.7,23z
	 M13.7,19.3c0,0.2,0.1,0.4,0.2,0.6c0.2,0.2,0.4,0.2,0.6,0.2c0.2,0,0.4-0.1,0.6-0.2s0.3-0.4,0.3-0.6c0-0.2-0.1-0.4-0.3-0.6
	s-0.4-0.3-0.6-0.3c-0.2,0-0.4,0.1-0.6,0.3S13.7,19.1,13.7,19.3z M13.7,26.6c0,0.2,0.1,0.4,0.2,0.6c0.2,0.2,0.4,0.3,0.6,0.3
	c0.2,0,0.4-0.1,0.6-0.2s0.3-0.4,0.3-0.6s-0.1-0.4-0.3-0.6s-0.4-0.3-0.6-0.3c-0.2,0-0.4,0.1-0.6,0.3C13.8,26.2,13.7,26.4,13.7,26.6z
	 M16.9,21c0,0.2,0.1,0.4,0.3,0.6s0.4,0.3,0.6,0.3s0.4-0.1,0.6-0.3s0.2-0.4,0.2-0.6c0-0.2-0.1-0.4-0.2-0.6s-0.4-0.2-0.6-0.2
	s-0.4,0.1-0.6,0.2S16.9,20.8,16.9,21z M16.9,24.7c0,0.2,0.1,0.4,0.2,0.6s0.4,0.2,0.6,0.2s0.4-0.1,0.6-0.2s0.2-0.4,0.2-0.6
	s-0.1-0.4-0.2-0.6c-0.2-0.2-0.4-0.2-0.6-0.2s-0.4,0.1-0.6,0.2C17,24.2,16.9,24.4,16.9,24.7z M17.6,8.8c0.3-0.5,0.8-1,1.3-1.3
	s1.1-0.5,1.7-0.5c0.1,0,0.3,0,0.3,0v0.3c0,1,0.3,1.9,0.8,2.7s1.3,1.5,2.2,2c-0.2,0.4-0.4,0.7-0.8,1.1c-0.9-0.8-2-1.2-3.2-1.2h-0.3
	C19.3,10.7,18.6,9.7,17.6,8.8z"/>
</svg>
