<?xml version="1.0" encoding="UTF-8"?><svg id="Layer_1" xmlns="http://www.w3.org/2000/svg" viewBox="0 0 124 90"><defs><style>.cls-1{stroke:#434343;}.cls-1,.cls-2,.cls-3,.cls-4,.cls-5,.cls-6,.cls-7,.cls-8,.cls-9,.cls-10,.cls-11,.cls-12,.cls-13,.cls-14,.cls-15,.cls-16,.cls-17,.cls-18,.cls-19,.cls-20,.cls-21,.cls-22,.cls-23,.cls-24,.cls-25,.cls-26{fill:none;stroke-linecap:round;stroke-linejoin:round;stroke-width:.7px;}.cls-2{stroke:#bfbfbf;}.cls-3{stroke:#404040;}.cls-4{stroke:#a7a7a7;}.cls-5{stroke:#e4e4e4;}.cls-6{stroke:#535353;}.cls-7{stroke:#646464;}.cls-8{stroke:#5f5f5f;}.cls-9{stroke:#f4f4f4;}.cls-10{stroke:#f6f6f6;}.cls-11{stroke:#9e9e9e;}.cls-12{stroke:#4d4d4d;}.cls-13{stroke:#b2b2b2;}.cls-14{stroke:#515151;}.cls-15{stroke:#eee;}.cls-16{stroke:#585858;}.cls-27{fill:#1040ff;}.cls-17{stroke:#1040ff;}.cls-18{stroke:#b6b6b6;}.cls-19{stroke:#256ef4;}.cls-20{stroke:#ebebeb;}.cls-21{stroke:#a4a4a4;}.cls-22{stroke:#bababa;}.cls-23{stroke:#cacaca;}.cls-24{stroke:#cecece;}.cls-25{stroke:#b4b4b4;}.cls-26{stroke:#fdfdfd;}</style></defs><path class="cls-17" d="M15.7,24.9l.2-.1h0"/><path class="cls-17" d="M10.4,52.1s.2-.2.2-.1-.6.9-.6,1c0,0,.4-.3.5-.3"/><path class="cls-17" d="M18.2,44.2c0,.1,1.5-1.1,1.6-.9,0,0-.9.9-.8,1.1,0,0,1.1-.8,1.2-.7,0,0-.3.4-.2.5,0,0,.9-.6.9-.5"/><path class="cls-17" d="M13.3,43.7s.6-.5.7-.4c0,0-1,.6-1,.7.3.5,4.3-3.5,4.7-2.7.2.3-4.6,3-4.4,3.3.3.5,4.6-3.3,4.9-2.8.2.3-4,3.5-3.8,3.7.3.6,3.6-2.5,3.8-2.2.3.5-4.5,3.4-4.3,3.8.3.5,3.3-2.2,3.4-2,.2.4-5.6,3.4-5.1,4.2.3.6,3.7-2.5,3.8-2.2.2.3-5,3.2-4.7,3.7.4.7,3.9-3,4.2-2.4.2.4-2.4,2.2-2.2,2.6,0,0,.5-.5.6-.3"/><path class="cls-17" d="M13.1,39.2c.2.3,2.8-2.2,3.1-1.8.2.4-1.7,2.6-1.6,2.8.2.3,2-1.5,2.2-1.3.2.3-2,1.5-1.9,1.7.2.3,2-1.4,2.1-1.2.2.4-2.3,2-2.1,2.3s2.2-1.7,2.4-1.4c.2.3-2.8,2.2-2.6,2.4.3.5,2.9-2,3-1.8"/><path class="cls-17" d="M25,35.4c.2.3,2.4-1.6,2.5-1.4.1.2-2.3,1.1-2.2,1.3.1.2,2.2-1.6,2.4-1.4"/><path class="cls-17" d="M25,34.9s.1-.1.2,0c0,.2-.9.8-.9,1,0,0,1.2-.8,1.2-.7,0,0-.5.3-.5.4l.3-.2c.1.2-2.2,2.8-2,3.2.2.3,2.9-2.2,3.1-1.8.2.3-3.7,3.3-3.4,3.8.2.3,2.5-1.9,2.7-1.5s-2.3,2.2-2.2,2.4c.2.3,2.2-1.6,2.3-1.3.2.3-2.2,2.8-2.1,3,.2.3,1.8-1.2,1.8-1.1.2.3-1.8,2.6-1.7,2.8,0,.1,1.8-1.2,1.8-1.1.1.2-1.7,1.4-1.6,1.6.2.3,1.8-1.4,1.9-1.1,0,.2-2,1-1.9,1.1.1.2,2.2-1.4,2.2-1.3.2.3-2.2,1.4-2.1,1.5.1.3,2.1-1.5,2.2-1.3.2.3-1.8,1.5-1.7,1.7,0,.1,1.8-1.2,1.9-1.1,0,.1-.4,1.5-.3,1.6,0,0,.5-.5.6-.3,0,0-.3.9-.2,1,0,0,.6-.4.7-.4"/><path class="cls-17" d="M25.6,32.8c0,.1,1.8-1.3,2-1.1,0,.1-1.9.9-1.8,1.1.1.3,2.1-1.4,2.2-1.3"/><path class="cls-17" d="M25.1,32.4s.5-.3.6-.3c.1.2-1,1.5-.9,1.8.2.3,2.4-1.6,2.5-1.4.1.2-1.8,1.9-1.6,2.2.2.3,2.2-1.5,2.3-1.3"/><path class="cls-17" d="M27.6,29.4c.8,1.4,9.1-6.4,9.6-5.5.8,1.4-9.1,6.3-8.6,7.1.6,1,9.8-6.9,10.3-6,.9,1.5-9.7,5.8-9.1,6.7.4.7,9-6.6,9.6-5.6.7,1.2-10.3,6.7-9.9,7.3.5.8,10.5-7.2,11-6.4.9,1.6-11.9,7.3-11.4,8.1.4.7,11.6-8.8,12.5-7.2.7,1.2-12.7,6.8-12,8,.8,1.4,12.3-8.5,12.9-7.5.5.9-13.2,8.4-12.7,9.2.7,1.3,12.9-9.3,13.7-7.9,1.2,2-14.9,7.9-14.2,9.1.6,1.1,14.6-10,15.2-8.8.7,1.3-16.8,6.8-15.6,9,.9,1.5,15.3-10,15.8-9.1.7,1.2-17.1,6.9-15.7,9.3,1,1.8,14.6-11.4,15.9-9.2.9,1.6-16.8,7.9-15.6,10,.7,1.2,15.1-10.1,15.7-9.1.9,1.6-16.8,8.1-15.5,10.3,1.2,2.1,16.1-10.8,16.8-9.7,1.3,2.2-17.6,8.8-16.8,10.3.6,1,16.6-11.3,17.3-10,1.3,2.3-17.3,9.4-16.3,11.2.7,1.2,15.7-12,17-9.8.7,1.1-17.4,9-16.2,11.1,1.5,2.5,16-10.6,16.6-9.6,1,1.8-17.6,9-16.9,10.1,1.3,2.2,15.8-12.3,17.2-10,1.1,1.8-17.7,9.3-16.9,10.7,1.1,1.9,16-10.7,16.6-9.6,1.1,1.9-17.2,7.5-16.1,9.4,1,1.7,15.8-10.9,16.6-9.6,1.5,2.6-16.8,9-15.6,11.2,1.2,2.2,14.2-10.3,15.1-8.7,1.2,2.1-16.8,9-15.9,10.6.6,1.1,15.1-11.9,16.5-9.6,1.1,1.9-16.7,7.9-15.7,9.8.9,1.5,14.1-9.9,14.8-8.6.9,1.5-12.7,7.5-12.2,8.3.8,1.4,11.4-8.9,12.4-7.2.4.7-10.8,5.7-9.9,7.3.5.8,11.7-9.3,12.8-7.4.4.7-11.6,7.1-10.8,8.5.7,1.3,8.4-6.6,9.2-5.3.4.8-9.2,4.6-8.5,5.8.4.6,7.6-6,8.3-4.8s-7.9,5.3-7.5,5.9c.7,1.2,7-5.1,7.4-4.3.6,1.1-8.7,5.3-8.3,6.1.6,1.1,7.3-4.8,7.5-4.4.3.6-7.7,3.5-7.3,4.3.3.5,6.7-4.9,7.1-4.1.3.5-8.5,4.5-7.9,5.5.2.3,2.5-1.8,2.6-1.5.1.2-2.4,2-2.3,2.2,0,.1,2-1.3,2-1.2.1.2-2.4,1.2-2.3,1.4.1.2,2.1-1.4,2.1-1.2.1.2-2,1.5-1.9,1.7l.8-.5"/><path class="cls-17" d="M21.8,30.2c1.2,2.1,13.1-9.4,13.9-8,.5.9-11.3,6.6-10.7,7.8.9,1.5,11.1-8.5,12-6.9,1,1.8-12.4,6.6-11.6,8,0,.2,2.2-1.5,2.3-1.3.1.2-2,2-1.9,2.2.1.2,1.4-1.1,1.6-.9.2.3-2,1.4-1.9,1.5.1.2,1.7-1.3,1.9-1.1"/><path class="cls-17" d="M1.8,37.1h0s.4.8.4.9c0,0,2.1-1.4,2.2-1.2s-.7,1.3-.6,1.5c1.7,3,27-21.2,29.4-17,1.1,2-31,13.2-28.6,17.2,1.7,2.9,28.2-18.7,29.2-16.9,2,3.5-31.2,15.4-29.7,17.8,2.5,4.4,28.9-19.4,30.1-17.4C35.7,24.6.2,38.2,2.1,41.5c2.1,3.6,30.6-24.3,33.5-19.4C38.2,26.6-.7,39.7,1.3,43.1c1.2,2.1,14.4-9.9,15-8.7.7,1.3-15.7,10-15.2,10.9.6,1.1,13.9-11,15.2-8.8,1.2,2.1-16,7.5-14.6,9.8.7,1.3,10.2-7.8,11-6.4.7,1.2-11.5,5.4-10.9,6.6.7,1.2,9.9-6.7,10.3-6,.8,1.3-10.5,6.1-10,7,.5.8,8.9-6.6,9.6-5.5.9,1.5-9.5,5.9-9,6.7.7,1.2,9-6,9.4-5.4.6,1-9.8,5.2-9.1,6.3.7,1.2,7.6-6.1,8.3-4.8.4.7-7.9,4.4-7.4,5.2.6,1,7.3-4.9,7.6-4.4.4.8-7.9,5-7.4,6,.6,1,6.3-4.8,6.8-3.9.4.6-7.1,3.7-6.7,4.3.5.8,6.5-5.1,7.1-4.1.6,1-7.3,4-6.7,5.1.4.6,5.8-3.8,6-3.5.2.4-5.5,3.3-5.2,3.9.3.5,5.2-4,5.6-3.2.5.9-5.5,3.7-5.3,4,.3.5,4.4-3.3,4.7-2.7.4.7-4.7,3.1-4.3,3.8.3.5,3.9-3,4.2-2.4.2.4-3.1,3.4-2.9,3.6.2.4,3-2.4,3.3-1.9,0,.1-1.2,1.9-1,2.3,0,.1.5-.5.6-.4,0,0-.3.3-.2.3,0,0,.3-.3.3-.2"/><path class="cls-17" d="M25.1,23.8c.1.2,2.9-2.1,3.1-1.8.4.7-5.1,2.6-4.8,3.2.3.6,6.6-4.9,7.1-4.1"/><path class="cls-17" d="M11.1,27c.1.3,2.9-1.9,2.9-1.7.5.9-6.8,5.4-6.6,5.8.9,1.5,10-7.3,10.6-6.2.7,1.2-11.8,5.9-11.1,7.1,1,1.8,11.6-9.2,12.7-7.3.8,1.4-14.5,8.8-13.9,9.7.8,1.3,14.7-10.2,15.4-8.9.9,1.5-16.3,7.6-15.3,9.3,1.1,1.9,15.4-11.5,16.5-9.5.6,1-18.8,9.4-17.6,11.4,1.6,2.7,25.1-17.9,26.6-15.4"/><path class="cls-17" d="M5.1,34.6s1.1-.8,1.1-.7c.1.2-1.2,1.1-1,1.3,0,0,.7-.5.8-.4"/><path class="cls-17" d="M3.6,34.6c0,.1,1.1-.7,1.1-.7,0,0-.6.8-.5,1,0,.2,2.2-1.5,2.3-1.3"/><path class="cls-17" d="M10.9,56l.3-.2c0,.1-1,.7-1,.8l1.3-.8"/><path class="cls-17" d="M8.2,56.9l.9-.5c0,.1,1,1.4,1,1.5,0,0,1-.7,1-.6s-.9,1.2-.8,1.4c0,0,.1-.1.2,0"/><path class="cls-17" d="M19.4,22.8s.4-.3.4-.2c0,0,1,1.5,1.1,1.6,0,0,.4-.3.4-.2l.3.7.5-.3"/><path class="cls-17" d="M11.8,60.6l.6-.4c0,.1-.9.8-.8.9l.8-.5c.1.2-.1,1.8,0,2l.8-.5s-.2,1-.2,1.1h.1"/><path class="cls-19" d="M2.3,37s.4-.3.4-.2v.3s.2-.2.2-.1h.5l.4-.3.1.2.3-.2"/><path class="cls-19" d="M1,37l.7-.4c0,.1.2.9.3,1h.1"/><path class="cls-22" d="M20.6,25.1h0c0,.2,2.2.5,2.3.7,0,0,0-.1.1,0l-.1.1h0"/><path class="cls-19" d="M18,21.8c0,.1.2-.2.2-.1,0,0,.3.4.4.5,0,0,.3-.3.4-.2"/><path class="cls-19" d="M15.9,21.8l.9-.5c0,.1-.3.9-.3,1.1,0,.1,1.3-.9,1.3-.8,0,0-.7.6-.6.7l.2-.1"/><path class="cls-17" d="M11.2,59.1l.3-.2v.2l.6-.4c.1.2-1.2.9-1.1,1,0,.1,1.3-.8,1.3-.8,0,0-.5,1.5-.4,1.7l.3-.2s-.2.2-.1.2h0"/><path class="cls-17" d="M17.5,22.1l.4-.2.2.3.6-.4-.4.2s.3-.3.3-.2.2.9.3,1.1l.8-.5"/><path class="cls-17" d="M14,65.2l1-.6c0,.2-1,.8-1,.9,0,0,1.2-.8,1.3-.7,0,.1-.7,1.1-.7,1.2l.3-.2s.3.4.3.5l.3-.2"/><path class="cls-19" d="M3.2,34.9s.6-.4.6-.3c.1.2-1.2,1.9-1.1,2,0,.1,1.2-.8,1.2-.7"/><path class="cls-19" d="M16.6,21.6l.8-.5s-.6.6-.5.6l.3-.2"/><path class="cls-19" d="M16.1,21.4s0-.1,0,0c0,0,0,.8.1.9h0"/><path class="cls-17" d="M10.6,58.3l.3-.2c0,.2-.5,1.2-.4,1.3,0,0,1.2-.8,1.2-.7s-.9.6-.8.7c0,0,.9-.6.9-.5"/><path class="cls-17" d="M13,63.3s.2-.2.2-.1.5,1.2.5,1.3c0,0,0-.1.1,0"/><path class="cls-17" d="M3.6,34.7l.5-.3c0,.1-.6,1.2-.5,1.3l.5-.3"/><path class="cls-17" d="M15,66.3l.3-.2s-.6.3-.5.4c0,0,.5-.4.5-.3s-.8.5-.7.6c0,0,1.1-.7,1.1-.6,0,0,.4.5.5.6l.2-.1"/><path class="cls-17" d="M13.7,64.6s.4-.3.5-.3c0,0-.3,1.1-.2,1.2l.6-.3"/><path class="cls-17" d="M17.3,21.9l.2-.1v.6l.6-.4v.2l.4-.2"/><path class="cls-26" d="M15.3,57c.5.8,4.9-3.8,5.3-3.1.3.5-4.9,3.2-4.7,3.6.3.5,4.7-3.1,4.8-2.8.2.3-2.3,2.1-2.2,2.3.1.2,1.2-.9,1.3-.8"/><path class="cls-26" d="M16,53.2l1.1-.7-.4.5s.9-.6.9-.5"/><path class="cls-26" d="M14.8,52.8c0,.2,1.6-1.1,1.7-1,0,.1-1.3,1.1-1.2,1.2,0,.2,1.5-1.1,1.6-.9"/><path class="cls-26" d="M16.6,50.6c.3.6,4.8-3.6,5.1-3,.1.3-3.9,2.2-3.6,2.8.1.2,3.5-2.4,3.7-2.1.1.2-2.7,1.9-2.6,2.1.2.3,2.5-1.7,2.6-1.5.2.3-1.8,1.3-1.7,1.5,0,0,.9-.6,1-.6"/><path class="cls-26" d="M32.8,60.1l.4-.3s-.9.5-.8.7c0,0,.8-.6.9-.5,0,.1-.6.5-.6.6s.6-.4.7-.4"/><path class="cls-26" d="M29.3,60.4c0,.1.9-.7,1-.6.1.2-1.2,1.1-1.2,1.2.2.3,2.2-1.5,2.3-1.3"/><path class="cls-26" d="M20.9,62l.7-.4s-.2,1.5-.1,1.6c.2.4,3-2.1,3.2-1.8.2.4-3.3,1.5-3.1,1.9.1.2,3.2-2.2,3.4-2,0,.2-1.7,2.1-1.5,2.3.1.2,2.6-1.9,2.8-1.6.1.2-1.6,1.3-1.5,1.5.5.8,6.3-4.7,6.8-3.9.2.3-4.4,4-4.3,4.3.3.5,6.1-4.5,6.5-3.8.3.6-4.4,2.6-4.2,3,.2.4,3.4-2.6,3.6-2.1"/><path class="cls-26" d="M19.6,62.4s.8-.6.9-.5c0,.2-.9.9-.9,1s.4-.4.5-.3c.1.2.6,1.6.6,1.8s1.5-1.2,1.6-.9c0,.1-.8.9-.8,1s1.7-1.1,1.7-1c.1.2-.6,2.1-.4,2.3.2.3,2.4-2,2.7-1.6.1.2,0,1.6,0,1.7.4.6,7.9-5.5,8.3-4.8.4.7-8,3.4-7.4,4.5.6,1.1,7.1-5,7.5-4.3.3.6-7.8,3.3-7.2,4.3.5.9,6.6-5.3,7.2-4.2.2.3-4.9,4.1-4.6,4.7,0,.1.4-.4.5-.3"/><path class="cls-26" d="M27.8,68.8c.1.2,1.9-1.4,2.1-1.2.2.4-2.7,2.9-2.5,3.3s6.6-4.7,6.9-4c.3.5-5.8,3.1-5.3,3.9.3.5,3.6-2.5,3.8-2.2"/><path class="cls-26" d="M31,66.4c0,.1,1.2-.9,1.3-.7.2.3-2.1,1.5-1.9,1.8.3.5,5.7-4.4,6.2-3.6"/><path class="cls-26" d="M31.3,64.5c.2.4,2.9-1.9,3-1.8.1.2-2.1,1.6-1.9,2,.3.6,5-3.5,5.3-3.1.2.4-5.4,3.4-5.2,3.8.2.3,4.3-3.2,4.6-2.7"/><path class="cls-26" d="M35,60.5c.1.2,3.7-2.5,3.9-2.3.2.4-3.8,2.3-3.7,2.5.3.6,3.5-2.7,3.8-2.2.2.3-4.2,3.1-3.9,3.6.2.3,2.7-2,2.9-1.7.2.4-3.7,2.3-3.5,2.6s3.3-2.3,3.4-2c.1.2-3.1,1.4-2.9,1.8.3.5,2.2-1.9,2.5-1.4"/><path class="cls-26" d="M35.2,56.6c.2.4,4.7-3.4,5-2.9.4.7-3.8,3.9-3.6,4.3.1.3,3.8-2.5,4-2.3.4.6-4,2.8-3.7,3.3.1.3,2.9-1.9,3-1.8.1.3-3.5,1.6-3.2,2,0,.2,2.4-1.8,2.6-1.5,0,.2-2.1,1.3-2,1.4.2.3,1.9-1.3,2-1.2"/><path class="cls-26" d="M30.9,53.5s1-.7,1-.6c0,.2-1,2-.9,2.2.2.4,3.7-2.7,4-2.3.4.6-4.4,2.7-4,3.3s5.6-4.2,6-3.5c.2.3-4.9,4.3-4.7,4.7.4.8,5.5-3.7,5.7-3.3s-6,3-5.8,3.4c.4.8,5.6-3.8,5.9-3.4.3.5-5.9,3.1-5.6,3.6.2.4,6.2-4,6.4-3.7.3.5-4.1,3.5-3.9,3.9,0,0,.7-.5.7-.4"/><path class="cls-26" d="M34.6,48.5s.1-.2.2-.1v.1c0,.1.2-.2.2-.1"/><path class="cls-26" d="M30.1,48c.1.2,2.2-1.6,2.4-1.4.2.3-2.1,1.6-2,1.9,0,.1,1.5-1.1,1.6-.9.1.2-1.5,1.3-1.4,1.5s1-.7,1-.6-.7,1.2-.6,1.4c0,0,1.1-.9,1.2-.7.1.2,0,1.4,0,1.5.2.4,3.6-2.6,3.8-2.2.2.3-3.8,2-3.6,2.4.1.2,3.6-2.7,3.9-2.2,0,.1-.7,1.7-.6,1.9.2.3,1.9-1.6,2.1-1.2,0,0,.8,1.7.8,1.8s1.3-1,1.4-.8c.1.2-1.4.7-1.2.9.1.2,1.3-1.1,1.4-.8.2.3-1.6,2.4-1.5,2.6.1.2,2.4-1.6,2.5-1.5.1.2-2.6,2-2.4,2.4.1.2,1.4-1.1,1.5-.9"/><path class="cls-26" d="M26.5,48.4c.4.7,4.6-3.1,4.8-2.8.2.4-4.6,2.2-4.3,2.7.3.5,4.2-3.4,4.7-2.7.3.5-4.8,2.6-4.5,3.1.2.3,4.9-3.7,5.3-3.1.2.4-4.3,2.6-4.1,3,.3.5,3.4-2.5,3.6-2.1.3.5-3.1,1.8-2.9,2.1,0,0,.5-.5.6-.3"/><path class="cls-26" d="M26.9,30l1-.6c.2.3-1.1,2.2-.9,2.6.1.2,1.8-1.2,1.9-1.1,0,.1-1.4.9-1.3,1.1,0,.1,1.4-1.1,1.5-.9,0,0-1.7.8-1.5,1,0,.1.9-.8,1-.6.1.2-1.1,1.1-1,1.2,0,.2,1.7-1.3,1.9-1.1,0,0-1.7,1-1.6,1.2,0,.1,1.1-.8,1.1-.7.1.2-1.4,1.3-1.3,1.5,0,.1,1.8-1.4,2-1.1.2.3-3,2.3-2.7,2.8.1.2,2.1-1.5,2.2-1.3.2.4-2.7,2.7-2.6,3,.2.4,2.2-1.8,2.4-1.4.4.6-3.6,3.2-3.3,3.7.2.4,3.2-2.5,3.5-2,.2.4-3.6,1.7-3.5,2,.3.5,3.1-2.5,3.4-2,.2.3-4,2.6-3.6,3.2.2.4,3.5-2.4,3.7-2.1.3.5-3.6,3.3-3.2,3.9.1.2,3.1-2.6,3.4-2,.2.3-4.1,2.8-3.8,3.2.3.6,3.4-2.5,3.6-2.1.3.6-3.7,3-3.4,3.6.2.4,4.1-3.1,4.4-2.6s-3.3,2.8-3.1,3.2c.3.5,3.1-2.3,3.3-1.9.3.6-4.1,2.1-3.9,2.4.2.4,3.4-2.6,3.7-2.1.2.4-2.4,2.3-2.2,2.7.2.4,2.9-2.3,3.2-1.8"/><path class="cls-26" d="M25.2,46.8h0c.1.3-.7,1.6-.6,1.9.2.4,2.7-2,2.9-1.7.1.3-3.1,1.8-3,1.9.2.3,3-2.1,3.1-1.8.4.6-3.7,3.7-3.6,4,.2.3,2-1.3,2.1-1.2.2.4-2.8,2.4-2.6,2.8.1.2,2.1-1.5,2.2-1.3.2.4-2.2,2.2-2,2.5,0,.1,1.6-1.2,1.7-1,0,.1-1.8,1.3-1.7,1.4.2.3,1.8-1.2,1.9-1.1.2.3-2.3,1.7-2.2,1.9.2.3,2.4-1.6,2.5-1.4,0,.2-1.4,1.6-1.3,1.7.2.3,1.9-1.3,2-1.1,0,.1-2.2,1.2-2.2,1.3.1.2,2.5-1.9,2.7-1.6"/><path class="cls-26" d="M22,47.1c0,.1,2.4-1.6,2.5-1.4,0,.2-1.3,1.7-1.2,1.8,0,.1,1.5-1,1.6-.9,0,.2-2.4,1.2-2.3,1.3.1.2,1.6-1.3,1.8-1,.1.2-1.3,2-1.2,2.2.1.2,1.7-1.3,1.8-1,.3.6-3.9,3.6-3.6,4.1.1.2,2.1-1.5,2.2-1.3.2.3-2.3,1.2-2.2,1.5,0,.2,1.8-1.6,2-1.2.1.2-2.2,1.1-2.1,1.3.2.3,2.3-1.7,2.5-1.4.2.4-3.2,1.5-3,1.9.1.2,2.7-1.8,2.8-1.6,0,.2-2.4,1.6-2.3,1.8,0,.1,2.3-1.6,2.4-1.4.2.3-3.4,3.3-3.2,3.7.2.3,2.5-2,2.8-1.6.2.4-3.2,1.5-3,2,.2.4,2.6-1.8,2.7-1.6.2.4-2.2,2.3-2.1,2.6.2.3,2.7-1.7,2.8-1.6,0,.2-2.1,1.2-2,1.3.2.3,2.1-1.6,2.2-1.3.2.3-2.6,1.3-2.5,1.6.1.2,2.5-1.9,2.7-1.6,0,.2-1.5,2.1-1.3,2.4.3.5,4.2-3.1,4.5-2.6.3.5-3.4,2.8-3,3.4.1.2,1.2-.9,1.3-.7,0,.1-1.6.8-1.5,1,0,0,1.5-1,1.5-.9"/><path class="cls-26" d="M11,52s.3-.3.4-.2c0,.1-.8.9-.7,1,.8,1.4,12.7-9.4,13.5-7.8.5.8-12.8,7.8-12,9.1.3.6,4.4-3.3,4.7-2.7.2.4-4.5,2.8-4.2,3.5.2.4,4.7-3.1,4.9-2.8.4.7-6,2.9-5.6,3.7.2.3,4.3-3,4.5-2.6.3.6-3.8,2.8-3.5,3.4.2.3,5.6-4.3,6.1-3.5.4.8-6,4.6-5.6,5.3,0,.1,1.5-1.2,1.7-1,0,.1-1.3,2.2-1.1,2.6.1.2,1.7-1.3,1.8-1.1,0,.2-.5,1.2-.5,1.3l.2-.1"/><path class="cls-26" d="M17.8,44.2s.4-.4.4-.3l-1,.6c0,.1,1.4-.9,1.4-.8.3.6-3.1,3.1-2.8,3.6.6,1,7.2-5,7.5-4.4.3.5-8.5,4.6-8.1,5.3.6,1.1,7.8-5.5,8.2-4.8.6,1.1-10.1,5.2-9.3,6.6.4.6,8.6-6.4,9.2-5.3.6,1.1-9.6,4.1-8.9,5.3.8,1.5,8.8-6.5,9.4-5.4.8,1.4-10.2,4.5-9.6,5.6.3.6,8.6-6,9-5.2"/><path class="cls-26" d="M18.6,33.9s.3-.3.4-.2c.2.3-2.4,2.8-2.2,3.2.1.2,1.9-1.5,2.1-1.2.2.4-2.1,2.5-1.8,2.9,0,0,.8-.6.9-.5.1.2-1.6.8-1.5,1,0,.1,1.7-1.2,1.8-1,.1.2-1.2,2.1-1,2.4,0,0,2-1.4,2.1-1.2s-1.4,1.7-1.3,2c.2.3,1.6-1.2,1.8-1,.1.2-1.8,1.9-1.6,2.2.2.3,1.6-1.2,1.7-1s-2,1.6-1.8,1.9c.4.7,4.9-3.7,5.3-3.1.2.4-3.7,2.9-3.4,3.3.1.2,2.8-2,2.9-1.7.2.3-2.3,1.6-2.1,1.8.2.3,2.6-1.8,2.7-1.6"/><path class="cls-26" d="M22,37.8s.5-.4.5-.3c.2.3-1.7,2-1.5,2.3.1.3,2.4-1.9,2.6-1.5.3.4-2.7,2.7-2.5,2.9,0,.2,1.8-1.5,2-1.2"/><path class="cls-26" d="M22.4,32.8c.2.4,2.8-1.9,2.9-1.7,0,.2-2.3,1.8-2.1,2.1.2.3,1.9-1.4,2-1.2.2.4-2.4,2.6-2.3,2.8,0,.2,2.4-1.6,2.5-1.4.2.3-2.8,2.7-2.6,3.1.1.2,1.7-1.3,1.8-1.1.1.2-1.9,1.6-1.8,1.8s1.2-.8,1.2-.7"/><path class="cls-26" d="M22.4,30.1s.2-.2.2-.1-1.1.8-1,1,1.7-1.2,1.8-1c.3.5-3.7,2.9-3.5,3.4.3.6,5.3-3.6,5.5-3.2.2.4-5.6,3.2-5.1,4.1,0,.1,1.2-.8,1.2-.7,0,0-.7.6-.7.7l.6-.4"/><path class="cls-17" d="M28.1,29.5s.6-.4.6-.3c0,0-.6.5-.5.5l.3-.2c0,.1.2,1.2.3,1.3,0,0,.2-.2.2-.1,0,0-.5.7-.4.8l.7-.4s-.8.8-.7.9l.7-.4c0,.1-.2,1.9,0,2.2,0,0,.2-.2.2-.1,0,0-.1.6,0,.7l.7-.4c.1.2-.9,1.9-.7,2.2,0,0,.4-.3.4-.2s-.9,2.3-.8,2.5c0,0,.5-.3.6-.3,0,0-.7,1.1-.7,1.2l.3-.2v1.5h0c0,.1.3,1.3.4,1.4l.5-.3c0,.1-.6.6-.5.7h0"/><path class="cls-17" d="M26.7,29.4s.6-.4.6-.3c.1.2-.5,2.1-.4,2.3l.4-.2s-.1,1.2,0,1.4c0,0,.1-.1.1,0l-.4.3.6-.4c0,.1-.8,1.4-.7,1.6,0,0,1-.6,1.1-.6.1.2-1.1,1.3-1,1.5,0,0,.2-.2.2-.1l-.2.4s.2-.1.2,0-.4,1-.3,1.1l.2-.1"/><path class="cls-17" d="M22.3,30.2c0,.1,1.1-.8,1.2-.7v.5s.6-.6.7-.4.6,1.2.8,1.4c0,0,.6-.4.6-.3,0,0-.4.7-.4.8l.3-.2s-.4.4-.3.4l.7-.4c.2.3-1.3,2.1-1.1,2.5l.9-.5c0,.1-.9,1.3-.8,1.4,0,0,.2-.2.3-.2,0,.1-1.3,1.8-1.2,1.9,0,0,.6-.4.6-.3l-.5.4.3-.2c.1.2-.9,2.2-.7,2.5,0,0,.2-.2.3-.1.1.2-.9,2.2-.9,2.4,0,0,.7-.5.8-.5,0,.1-1.1,1.1-1,1.2l.6-.4c.1.2-.4,2.1-.3,2.3,0,0,.2-.2.3-.1,0,0-.3,1-.2,1.2,0,0,.8-.5.8-.4"/><path class="cls-17" d="M20,30.8c0,.1,2-1.4,2.1-1.2,0,.2-1.8.9-1.7,1.1.1.3,1.5-1.1,1.6-.9s-1.6,1.3-1.5,1.4c.1.3,2.6-1.9,2.8-1.6"/><path class="cls-17" d="M12.7,39.1c0,.1.6-.4.6-.4,0,0,.4,1,.5,1.1h0s-.2.6-.2.7c0,0,1-.7,1.1-.6.2.3-1.1,2.4-.9,2.8.1.2.9-.6.9-.5.1.2-2.2,2.3-2,2.7,0,0,.5-.4.6-.3,0,.1-.2,2.1,0,2.2,0,.1,1.1-.8,1.2-.7,0,.1-.9.8-.8,1,0,.1.6-.6.7-.4.1.2-1.7,1.7-1.5,1.9,0,0,.9-.7,1-.6,0,.1-1,.7-1,.7,0,0,1-.7,1.1-.6,0,.1-.9.6-.9.7,0,0,.2-.2.2-.1"/><path class="cls-19" d="M18,33.4c0,.2,1.9-1.4,2.1-1.2.1.2-1.8.8-1.6,1,0,.1,1.3-1,1.4-.8"/><path class="cls-19" d="M16.1,33.8c0,.1,1.8-1.3,1.9-1.1s-2.6,1.8-2.4,2.2c0,0,1.1-.9,1.2-.7s-1.2,2.3-1.2,2.5c0,0,.4-.3.5-.3.1.2-.5,1.5-.4,1.6l.5-.3c0,.1.6,1.1.6,1.2h.1"/><path class="cls-19" d="M22.6,30.3s.5-.4.5-.3v.3s.7-.5.7-.4c0,0,.6.7.7.8l1-.6"/><path class="cls-19" d="M20.1,31.2c0,.2,1.9-1.4,2-1.2.3.5-3.2,1.7-2.9,2.1.3.5,3.8-2.8,4.1-2.3"/><path class="cls-17" d="M10.1,50.9s.5-.4.6-.3c0,.1-.2,1.9,0,2.1l.4-.3s-.4,1.6-.3,1.8c0,0,.5-.4.6-.3,0,0-.6.6-.5.6,0,0,.4-.4.5-.3,0,.1-.7.9-.6,1,0,0,.5-.4.6-.3,0,.1-.2.8-.2.9,0,0,.5-.4.5-.3"/><path class="cls-17" d="M12,48.8s.5-.4.6-.3c0,0-.9.4-.8.5,0,0,1.2-.8,1.3-.7"/><path class="cls-17" d="M11,48.5s.2-.2.2-.1c.1.2-.9,1.3-.8,1.5.2.4,2.6-2,2.8-1.6.3.5-3.2,2.3-3,2.5.1.2,2-1.3,2-1.2"/><path class="cls-20" d="M38.3,25.4l.5-.3v.1s.2-.2.2-.1.2,1.2.2,1.3.8-.5.8-.5c.1.2,0,1.6,0,1.8.1.2,1.5-1.1,1.6-.9s-1.6.9-1.5,1.1c0,.1,1.4-1,1.5-.9,0,.2-1.5.9-1.4,1.1,0,.1,1.2-.9,1.3-.7.1.2.3,1.6.4,1.8l.3-.2"/><path class="cls-19" d="M11.9,51.3s.7-.5.8-.4c0,0-.6.3-.6.4,0,0,.6-.4.6-.3"/><path class="cls-19" d="M12.2,51.6c.1.2,1.6-1.1,1.7-1,.1.2-1.6.7-1.5.9s1.7-1.1,1.8-1"/><path class="cls-19" d="M10.6,52.1s1.2-.8,1.3-.7c.1.2-1.4,2-1.2,2.4l.3-.2.2.4s0-.1.1,0c0,0,.2.9.3,1,0,0,.6-.4.6-.3.1.2-1.3.8-1.2,1l1-.6s-.9,1.2-.8,1.3c0,.1,1-.7,1.1-.6,0,.1-.9.6-.9.7,0,0,.4-.3.4-.2"/><path class="cls-19" d="M16,47.6h0c.1.2-1.4,1.8-1.3,1.9,0,0,.2-.3.3-.2,0,.1-1.1.8-1.1.9s1.3-.8,1.3-.8"/><path class="cls-17" d="M17.4,44.1s.9-.6.9-.5c.1.2-1.8,1.1-1.6,1.4.1.2,2.1-1.5,2.3-1.3.2.3-2,.9-1.8,1.2,0,0,.9-.6.9-.5.3.5-2.5,2.8-2.3,3.1,0,0,.9-.6,1-.6.1.2-1.4.9-1.3,1l.6-.4"/><path class="cls-17" d="M18.4,44.1s.3-.3.4-.2c0,.1,1,.4,1,.5l1-.6"/><path class="cls-17" d="M17.3,40.7l.5-.3c0,.1-.3,1.6-.2,1.9l.3-.2c.1.2,1.3,1.1,1.4,1.3h.1s.7.4.7.5l.6-.4"/><path class="cls-17" d="M40.1,49.9l.5-.3c0,.1,0,1.2.2,1.3h0c.1.2-.6,1.2-.5,1.4,0,0,.9-.6,1-.6,0,0-1,.7-.9.8,0,0,.9-.6.9-.5.1.2-1,2.5-.9,2.8l.3-.2c0,.1-.8.6-.8.6,0,0,.9-.6,1-.6,0,0-.5.3-.5.4h0c0,.1-.6.9-.6.9l.3-.2c.2.3-2.1,3.1-1.9,3.4,0,0,.4-.3.4-.2l.2.6h0"/><path class="cls-17" d="M47.1,34.5l.4-.2s-.3.6-.2.6l.3-.2s-.2.6-.1.6l.4-.3c0,.1-.2,1.4-.1,1.6l.4-.2c.1.2-.9,1-.8,1.2,0,0,.8-.5.8-.4,0,0-.4.6-.3.6,0,0,.6-.4.6-.3,0,0-.8.4-.8.5,0,0,.8-.5.8-.4,0,0-.7.6-.6.7l.3-.2c0,.1-.6.9-.6,1,0,0,.3-.2.4-.2l-.2.5.3-.2s-1,1.3-.9,1.5l.7-.4c0,.1-.4,1-.4,1.1,0,0,.2-.2.2-.1.1.2.3,1.5.4,1.7,0,0,.9-.6.9-.5"/><path class="cls-17" d="M26.3,37.4s.1-.1.1,0c0,0-.1.3,0,.3,0,0,.3-.3.4-.2,0,.1-.9,1.4-.8,1.6,0,0,.5-.4.6-.3,0,.2-1.6,2.1-1.5,2.3l.5-.3s-.3.6-.2.7l.4-.2c0,.1-.8.4-.7.5l.8-.5-.5.6s.3-.3.4-.2c0,0-.4.9-.3,1,0,0,.2-.2.3-.2,0,.2-.2,1.1-.2,1.1l.4-.2c.2.3.4,1.8.5,2h0s-.2.2-.1.2l.3-.2"/><path class="cls-13" d="M3.1,42.1h0l-.3.3c0,.1.6-.5.7-.4,0,.2-1,.7-.9.8,0,.1.7-.5.7-.4s-1.1,1.5-1,1.7c0,.1.7-.5.7-.4,0,.2-.9,1.5-.8,1.7,0,0,.4-.4.5-.3l-.2.3s.1-.1.1,0"/><path class="cls-7" d="M9.1,43.1l.3-.2c0,.2-.7,1.7-.7,1.8s.7-.6.8-.5c0,0-1.2,1.4-1.1,1.5,0,.1,1.2-.8,1.2-.7,0,.2-.7,1.6-.6,1.8,0,0,0-.1.1,0,0,0-.5.2-.4.3l.6-.4"/><path class="cls-6" d="M24,45.2h0v1.4s.5-.4.6-.3v1c0,.1,1-.7,1-.6.1.2-1.3.9-1.3.9,0,0,.7-.5.7-.4v1h.1l-.4.4h.1"/><path class="cls-17" d="M11.9,40.3s.9-.6,1-.6c0,.1-.8.5-.8.6l.8-.5c0,.1-1.3,1.3-1.3,1.4,0,0,.9-.6,1-.6,0,.2-1.1,1.3-1,1.5,0,0,.8-.6.8-.5.1.2-1.1,2-.9,2.3l.3-.2c0,.1-1.1,1.1-1,1.3,0,0,.5-.4.6-.3,0,.1-.2.8-.1.9h.1"/><path class="cls-2" d="M38.6,37.9s.1-.1.1,0-.5.7-.4.8c0,0,.5-.4.5-.3s-.1,1.4,0,1.5h0c0,.1-.2,1.2-.2,1.3l.9-.5"/><path class="cls-17" d="M33.1,33.8s.9-.6.9-.5c.1.2-.6,1.7-.5,1.8l.4-.3c0,.2-.4,1.5-.3,1.6l.8-.5s-.4.4-.4.5c0,0,.1-.1.1,0"/><path class="cls-3" d="M33.6,37.4s.6-.4.6-.3c0,0-.6,1.2-.5,1.3l.5-.3s-.3,1.1-.3,1.2c0,0,1-.7,1.1-.6.1.2-.8,1.2-.7,1.4,0,0,0-.1.1,0,0,0-.2.1-.1.2l.3-.2"/><path class="cls-17" d="M30.7,44.5h0c0,.1,1.3,1.1,1.4,1.3h0s.2.6.2.7c0,0,.5-.4.5-.3,0,0-.7.9-.6,1,0,0,.8-.6.8-.5.1.2-1.4,1.1-1.3,1.3h.1"/><path class="cls-4" d="M35.3,41.1h0l-.4.7.7-.4c0,.2-.6,1.3-.6,1.4l.6-.4.6.7h0"/><path class="cls-17" d="M10.3,40.5s.2-.2.2-.1c0,.2-.9,1.5-.8,1.7,0,0,1.1-.7,1.1-.6s-.7,1.2-.6,1.4h0"/><path class="cls-17" d="M34.1,37.3h.1l.5-.3s-.4.2-.4.3h.1"/><path class="cls-17" d="M33.7,35.8l.3-.2c0,.1-.2,1.7-.1,1.9,0,0,.4-.3.4-.2,0,0-.6,1.3-.6,1.5l.4-.2"/><path class="cls-14" d="M36.2,23.3l.3-.2c0,.1.8,1.3,1,1.5,0,.1.7-.5.8-.4,0,0-.5.7-.4.7,0,0,.5-.4.5-.3"/><path class="cls-17" d="M39.2,44.8l.6-.3c.1.2.2,1.5.3,1.6,0,0,.3-.3.4-.2,0,0-.4.7-.3.8h0"/><path class="cls-17" d="M41.7,29.3l1.2-.7s0,1,.2,1.1h0"/><path class="cls-17" d="M42.4,28.3l.6-.4c0,.2-1.2.9-1.1,1.1,0,.1.7-.5.7-.4"/><path class="cls-16" d="M40,42.6h.1s-.5.4-.5.5l.3-.2s-.3,1.2-.3,1.3c0,0,.4-.3.4-.2s-.9.6-.8.7c0,0,.7-.5.8-.4,0,.1-.4.8-.3.9,0,0,.2-.2.2-.1,0,0-.4.3-.4.4,0,0,.8-.5.9-.5,0,.1-.9.8-.8.9l.8-.5"/><path class="cls-17" d="M40.4,55.9l.2-.1v1.2h.1"/><path class="cls-17" d="M41.3,54.9l.5-.3s-1.1.9-1,1l.3-.2"/><path class="cls-18" d="M39.1,43.1s.5-.4.5-.3-.1.9,0,1.1c0,0,.5-.4.5-.3,0,0-.6.9-.6,1,0,0,.2-.2.2-.1"/><path class="cls-17" d="M23.1,40.5l.2-.1v1.3l.3-.2c.1.2-.3,1.7-.2,1.9h0"/><path class="cls-17" d="M11.1,45.7h.1c.1.2-.3,1.4-.2,1.5,0,0,.8-.6.9-.5,0,.2-1.3,1.6-1.2,1.8,0,0,.5-.4.6-.3,0,0-.5.4-.4.4l.5-.3"/><path class="cls-17" d="M40.7,50.7l.2-.1s-.2.2-.1.3l.4-.2s.2.9.3,1l.3-.2c0,.1-.7,1.4-.5,1.6l.2-.1"/><path class="cls-17" d="M40.5,42h.1v1.1l.2-.1c0,.1-.3,1.1-.2,1.2l.2-.1-.4.5.3-.2"/><path class="cls-5" d="M39.2,40.8l.2-.1c0,.1-.2,1.9-.2,2l.5-.3"/><path class="cls-17" d="M29.7,42h0v.8s.4-.3.4-.2v1.5h.1v.5l.4-.2"/><path class="cls-17" d="M26.6,47s.2-.2.2-.1v.3s1-.7,1-.6c0,0,.4.7.4.8h0"/><path class="cls-17" d="M3.3,44.6s.2-.1.2,0-1,.5-.9.7c0,0,.4-.3.5-.3"/><path class="cls-17" d="M2,45.1l.2-.1s.5.6.5.7c0,0,.4-.3.5-.3"/><path class="cls-17" d="M40.9,50.4s.2-.1.2,0c0,0-.5.5-.4.6,0,0,.2-.2.2-.1s-.3.9-.2.9.8-.5.8-.5c.1.2-.5,1.5-.3,1.7,0,0,.3-.2.4-.2"/><path class="cls-17" d="M9.1,45.3s.6-.4.7-.4c0,.1-.7,1.1-.6,1.2l.7-.4"/><path class="cls-17" d="M8.1,45.1s.2-.1.2,0v.8h.1c0,.2-.2,1.1,0,1.2l.4-.3"/><path class="cls-17" d="M47.3,44c0,.1,1.5-1,1.5-.9,0,0-.7.9-.6,1.1h.2"/><path class="cls-17" d="M9.8,43.1s.6-.4.6-.3-.7,1.2-.7,1.4c0,0,.7-.5.8-.5"/><path class="cls-19" d="M39.1,42.2h0v1l.3-.2s-.6.4-.6.5l.4-.3"/><path class="cls-19" d="M39.6,41.7h0s-.3.5-.3.6l.2-.1"/><path class="cls-17" d="M29.4,31.7h0s-.3.3-.2.3l.6-.4s-.2,1.1-.2,1.2c0,0,.2-.2.3-.1l-.3.2s.1-.1.1,0c0,0-.4.3-.3.4,0,0,.8-.5.8-.4"/><path class="cls-17" d="M37.7,36.8l.5-.3c0,.1-.2,1.2-.1,1.3h0"/><path class="cls-17" d="M38.9,42h0v1.8s.1-.1.1,0c0,0,0,.3.1.4l.3-.2"/><path class="cls-17" d="M26.6,35.9l.4-.2c0,.1-.8,1.4-.7,1.7,0,0,.2-.2.3-.2"/><path class="cls-19" d="M34.4,40.4s.6-.4.6-.3-.6,1.4-.5,1.5c0,0,.4-.3.4-.2"/><path class="cls-8" d="M38.4,37.5l.3-.2c0,.1-.6,1.3-.6,1.4,0,0,.4-.3.4-.2,0,0-.3.2-.3.3h0"/><path class="cls-19" d="M35.1,40.2h-.1"/><path class="cls-19" d="M34.2,39.9l.3-.2s-.3.9-.2,1h.1"/><path class="cls-17" d="M37.8,38s.2-.2.2-.1c0,0-.4.6-.4.7,0,0,.2-.2.2-.1v.6h.1s-.1.2,0,.3h0"/><path class="cls-17" d="M9.5,42.6s.3-.3.4-.2c0,.2-1.2,1.5-1.1,1.6l.4-.2"/><path class="cls-17" d="M38.7,44.5l.4-.3c0,.1-.4,1.4-.4,1.5h0s.3-.1.3,0h0"/><path class="cls-17" d="M29.5,39.5h0s.3.7.4.7h0"/><path class="cls-17" d="M9.3,46h0c0,.1-.5,1.6-.5,1.7h.1"/><path class="cls-17" d="M9.9,41.3l.2-.1s-.7,1.3-.6,1.4c0,0,.7-.5.8-.4"/><path class="cls-17" d="M8.5,46.8l.6-.3s-.7.5-.7.6l.4-.2s-.2.8-.1.9l.2-.1"/><path class="cls-17" d="M16.3,39.9l.6-.4-.2.2.3-.2v.8s.2-.2.2-.1v.5h0"/><path class="cls-17" d="M38.3,39.8h.1s-.6.7-.5.8l1-.6s-.3,1-.2,1.1h.1"/><path class="cls-17" d="M25.7,32.2h0v.2h.4l.3-.2-.7.4.6-.4s-.9.9-.9,1l.7-.4"/><path class="cls-17" d="M37.7,36.5s.3-.2.4-.2h0l.3-.2s-.1.5,0,.6h0"/><path class="cls-17" d="M17.8,43.4h0s.4.3.5.4c0,0,.9-.6.9-.5"/><path class="cls-17" d="M50.1,41.8s.5-.4.6-.3v.4s.2-.2.2-.1"/><path class="cls-17" d="M38.4,48.8l.5-.3v.4l.5-.3"/><path class="cls-17" d="M47.8,46s.2-.1.3-.1c0,0,.2.8.3.8l.3-.2"/><path class="cls-17" d="M24.7,45.7h0s.7.5.7.6h0"/><path class="cls-25" d="M38,24.9l1-.6c0,.1-.7,1-.6,1.1,0,0,.2-.2.2-.1"/><path class="cls-17" d="M33.9,40.4l.3-.2v.8h0l.3.3h0"/><path class="cls-17" d="M15.1,25.2l.7-.4v.4s.6-.4.7-.4"/><path class="cls-17" d="M38.3,40l.5-.3v1h0"/><path class="cls-17" d="M9.8,44.5l.4-.3c0,.1-.9.6-.9.7,0,0,.7-.5.8-.4,0,0-.2.6-.2.7h.1"/><path class="cls-17" d="M9.7,52.5l.9-.5s-.5,1-.4,1.1h0"/><path class="cls-17" d="M24.8,34.7l.8-.5s-.4.6-.3.7c0,0,.1-.1.1,0,0,0-.3.4-.2.5,0,0,.2-.2.2-.1"/><path class="cls-17" d="M48.8,43.3s1.4-1,1.5-.9c0,0-1,.5-.9.6,0,0,.5-.4.5-.3"/><path class="cls-17" d="M3.5,41.5s.1-.1.2,0l-.1.2s.1-.1.2,0v.5l.2-.1"/><path class="cls-17" d="M10.1,56.1l1-.6c0,.1-.8.7-.7.8l.8-.5"/><path class="cls-17" d="M26.5,45.7h0c0,.1.4.6.5.7h0"/><path class="cls-17" d="M10.8,46.3h.1c0,.1-.5,1-.4,1.1,0,0,.3-.2.4-.2l-.5.3.5-.3"/><path class="cls-17" d="M40,40.2h0s-.4.7-.3.8l.7-.4"/><path class="cls-17" d="M15.7,38.3s.2-.2.2-.1c0,0-.7.5-.6.6,0,0,.1-.1.1,0"/><path class="cls-17" d="M15.1,36.8s.4-.3.4-.2c0,0-.5.8-.5.9l.2-.1"/><path class="cls-26" d="M20.2,20.4h0c.1.2-.9,1.5-.8,1.7,0,.2,1.6-1,1.6-.9"/><path class="cls-17" d="M39.7,24.8h0c.1.2.3,1.6.3,1.7,0,0,1.3-.9,1.4-.8,0,0,.2,1.5.3,1.6l.4-.2"/><path class="cls-17" d="M23.3,22.2l.3-.2-.1.5.4-.2"/><path class="cls-17" d="M22.9,21.7h.1c.1.2-.3,1.7-.2,1.9l.3-.2v1h0"/><path class="cls-17" d="M23.3,21.3l.4-.2s-.4.5-.3.6c0,0,.2-.2.2-.1"/><path class="cls-17" d="M37.6,60.9h.1s-.4,1.1-.4,1.2c0,0,.2-.2.2-.1.1.2-1.1,1.2-1,1.3,0,.1.9-.7,1-.6,0,.1-.8,1.1-.7,1.2l.2-.1"/><path class="cls-17" d="M21.1,19.1l.2-.1c0,.1,0,.8.1.9l.6-.4s.2.8.3.9c0,0,.5-.4.5-.3,0,0-.2.5-.1.5,0,0,.4-.3.4-.2"/><path class="cls-17" d="M40.1,56.7l.2-.1c.2.3-1.3,1.9-1.2,2.2h0"/><path class="cls-17" d="M35.8,64.6l.4-.3s-.6.3-.5.4c0,0,.6-.5.7-.4,0,0-1.4,1.3-1.3,1.5,0,0,1-.7,1.1-.6,0,.1-1.5,1.1-1.4,1.3l.3-.2"/><path class="cls-17" d="M22.9,20.4h.1c0,.1,0,1.6.1,1.8h0s0,.4.1.4l.3-.2-.6.3.7-.4s-.8.6-.7.7l.5-.3"/><path class="cls-17" d="M38.4,24.1l.4-.2v1.5l.7-.4-.1.3h.1"/><path class="cls-17" d="M38.1,59.6l.5-.3c0,.2-1,1.2-.9,1.3l1.1-.7c0,.1-1.1,1.2-.9,1.4l.3-.2"/><path class="cls-17" d="M41.5,27.7l.3-.2s.3,1,.3,1.1c0,0,.6-.4.6-.3"/><path class="cls-17" d="M40,57.6l.6-.4c.1.2-1.4,1-1.3,1.2,0,.1,1-.7,1-.6"/><path class="cls-17" d="M36.5,63.5l.2-.1c0,.1-.6.9-.5,1l.8-.5"/><path class="cls-11" d="M21.1,18.4l.2-.1s-.2.7-.1.8c0,0,.8-.6.9-.5"/><path class="cls-17" d="M37.9,61.1l.5-.3s-.8.5-.7.6l.3-.2.1.4.3-.2"/><path class="cls-19" d="M10.6,56.7s1.3-.8,1.4-.8c.2.3-1.6,2-1.5,2.4.2.3,2.6-1.7,2.7-1.6,0,.2-1.6,1.7-1.5,1.9s1.9-1.3,2-1.2c0,.1-2.2,1.3-2.1,1.6.1.2,1.7-1.2,1.7-1,.2.3-.9,2.2-.7,2.6.2.3,2.3-1.7,2.5-1.4s-2.2,3-2,3.4,2.3-1.7,2.5-1.4-1.7,2-1.5,2.3c.2.4,2.6-1.8,2.7-1.6.2.3-3,2.8-2.8,3,.1.2,2.9-2,3-1.7.2.3-2.4,1.4-2.3,1.6.2.4,1.8-1.3,1.9-1.1.2.4-1.4,2.6-1.2,2.9s1.9-1.6,2.1-1.2c.1.2-1.8,1.6-1.7,1.7,0,.2,1.9-1.5,2.1-1.2,0,.2-.7,2.4-.5,2.6.1.3,2.2-1.5,2.3-1.4.1.2-1.2,2.1-1,2.4.1.2,1.7-1.3,1.9-1.1.2.3-2,.9-1.9,1.1,0,.1,1.6-1.3,1.8-1,.1.2-1,1.9-.9,2,.1.2,1.8-1.3,1.9-1.1,0,.1-1.4.9-1.3,1.1s1.8-1.2,1.9-1.1c0,.2.3,1.7.4,1.9.1.2,1.5-1.1,1.6-.9,0,.1,1.3.9,1.4,1,0,.1,1.2-.9,1.3-.8l.4.5s.5-.4.5-.3"/><path class="cls-19" d="M11,52.6l.2-.1s0,.8.1,1c0,0,.8-.6.8-.5,0,0-1,1.2-.9,1.4,0,0,1.1-.7,1.1-.6.2.3-1.1,2-.9,2.3,0,.1,1.1-.8,1.1-.7"/><path class="cls-19" d="M10.2,57.3l.2-.1c0,.1.1,1.1.2,1.2h.1"/><path class="cls-23" d="M13.1,62.9l.5-.3c.1.2.1,1.8.2,2h0s.2,0,.3.1l.6-.3"/><path class="cls-19" d="M12.8,61.4h0c0,.1-.1,1.5,0,1.6,0,0,.8-.5.8-.4"/><path class="cls-21" d="M12.2,59.4l.2-.1c0,.1-.6,1.3-.5,1.4l1.1-.6s-.4.6-.4.7h0"/><path class="cls-19" d="M10.7,58.9l.9-.5v.5l.5-.3s.3.7.3.8h.1"/><path class="cls-26" d="M29.4,68.2c0,.2,1.5-1,1.5-.9,0,0-.8.7-.7.7,0,0,.8-.6.9-.5"/><path class="cls-26" d="M32.3,65.8c0,.1,1.2-.9,1.3-.7,0,.1-1.3.7-1.2.8,0,.1,1-.8,1.1-.6,0,0-.4.3-.4.4,0,0,.2-.2.2-.1"/><path class="cls-26" d="M29.4,64.9s.7-.5.7-.4-.2,1-.2,1.1c.2.3,2.3-1.7,2.5-1.4"/><path class="cls-26" d="M36.1,60.1c0,.2,1.1-.9,1.2-.7,0,.1-1.2.7-1.1.9,0,0,1.1-.7,1.1-.6"/><path class="cls-26" d="M32.7,60.4c.2.3,4.1-2.8,4.3-2.5.3.5-3.9,2.5-3.6,3,.2.4,4.1-2.8,4.3-2.5.3.6-4,3-3.8,3.5,0,.1,1.4-.9,1.4-.8,0,.2-1.7,1-1.5,1.3,0,0,1.5-1,1.5-.9.2.3-2,1.9-1.8,2.2,0,.1,1.7-1.1,1.8-1,0,.1-.9.9-.9,1.1,0,0,.2-.2.2-.1"/><path class="cls-26" d="M34,56.5s.3-.2.4-.2c0,.1-.6.6-.6.8,0,0,.8-.6.8-.5s.7.6.7.7c0,.2,1.4-1,1.5-.8,0,0-1.3.7-1.3.9.1.2,1.5-1.1,1.6-1"/><path class="cls-26" d="M29.8,60.3c.2.4,3.9-2.8,4.1-2.4.2.3-2.1,3.2-2,3.4,0,.1.6-.4.6-.4,0,0-.4.6-.4.7l.4-.3"/><path class="cls-26" d="M20.2,62c.7,1.2,10.8-7.9,11.5-6.6.6,1-8.1,5.6-7.7,6.2.4.7,7.9-5.8,8.4-4.9.4.7-7.5,4.5-7.2,5,.7,1.1,7.9-5.3,8.2-4.8.5.9-7.4,4.9-7.1,5.4.2.4,2.9-2,3.1-1.8,0,.1-.6.9-.5,1,0,0,.3-.3.4-.2"/><path class="cls-26" d="M31.7,53.3c.3.6,4.8-3.6,5.2-3,.1.2-3.6,2.9-3.4,3.2.3.5,5.1-4,5.5-3.2.2.4-4.2,2.6-4,3,.1.2,4-3.1,4.3-2.5.2.3-3.1,2.2-2.9,2.5.2.3,2.6-2,2.8-1.6.2.3-1.8,2.5-1.7,2.7s1.4-1.1,1.6-.9c0,.1-.5,1.3-.5,1.4,0,0,.6-.4.6-.3"/><path class="cls-26" d="M25.7,48.3s.7-.5.7-.4-1,1.2-.9,1.3c.1.2,1.8-1.3,1.9-1.1s-2.3,1.5-2.2,1.8c0,.2,2.5-1.8,2.6-1.5.1.2-2.8,1.5-2.5,1.9.1.2,2.8-1.9,2.9-1.7.2.3-3.1,1.6-3,1.8.2.4,3.2-2.4,3.4-2,.2.3-3.3,1.7-3.2,1.9.1.3,2.9-2,3-1.7.2.3-2.6,2.2-2.4,2.6.4.7,4.5-3.6,4.9-2.8.3.6-6,4.8-5.6,5.4.4.6,6.1-4.3,6.4-3.7.4.7-6.3,2.9-5.9,3.7.4.7,5.3-4.1,5.8-3.3.3.5-4.5,3.8-4.2,4.3.4.7,6.9-5.5,7.6-4.4.5.9-7.6,4.5-7.1,5.4.1.2,2.9-2.1,3.1-1.8s-4.1,1.9-3.8,2.3c.3.5,4.1-2.9,4.3-2.5.2.3-4.5,2.3-4.3,2.6.3.5,3.3-2.6,3.6-2.1"/><path class="cls-26" d="M25.5,57.2s.9-.6.9-.5c0,0-.5.5-.4.5.2.3,4.9-3.8,5.4-3.1.2.4-6,2.7-5.6,3.5.3.5,4.9-3.4,5.1-3"/><path class="cls-26" d="M14.2,56.8l.7-.4s.9,1.3,1,1.5c0,.1,1.6-1,1.6-.9.1.2-1.5.7-1.4,1,0,.1,1.7-1.2,1.8-1,.3.4-2.8,2.8-2.5,3.3.4.7,6.2-4.1,6.4-3.7.3.5-6.5,4.3-6.1,5,.5.8,7.7-5.3,8-4.6.3.6-7.7,5.9-7.3,6.5.7,1.2,13.2-10.5,14.5-8.4.5.9-15,6.3-13.8,8.4.7,1.2,12.8-9.7,13.8-8,1.1,1.8-14.6,8.3-14.1,9.2.1.3,3-2,3.1-1.8s-1.8,2.2-1.6,2.6c.2.4,2-1.5,2.1-1.2.2.4-2.1,2.5-1.9,3,.2.4,4.2-2.9,4.4-2.5.3.5-3,2.9-2.9,3.2.2.3,2.9-2.3,3.1-1.8.2.4-3.1,1.8-3,2s2.9-2.2,3.1-1.8c.2.4-2.6,1.8-2.5,2.1.4.8,4.7-3.6,5.1-2.9.4.7-4.1,3.7-3.8,4.3.4.8,5.9-4.4,6.3-3.7.2.4-6,3.4-5.6,4.1.5.9,9.7-7.1,10.3-6,.8,1.4-9.4,5.2-8.8,6.3.4.6,6.3-5,6.9-4,.3.6-6.9,3.4-6.6,4,.6,1,6.2-4.3,6.5-3.8.5.8-6,3.6-5.7,4,0,0,1.2-.9,1.3-.8"/><path class="cls-26" d="M15.1,53.2l.5-.3c.1.2,2,0,2.2.4.3.6,4.6-3.4,5-2.9.4.8-5.6,2.7-5.4,3.1.3.5,4.8-3.5,5.1-3,.2.3-3,2.8-2.8,3,0,.1,1.4-1.1,1.5-.9.1.2-1.9,2.8-1.7,3.2,0,.1,1.4-1,1.5-.9,0,.1-2.2,1.3-2.1,1.5,0,.2,1.6-1.2,1.7-1"/><path class="cls-26" d="M15.9,50.4s.9-.6.9-.5c.2.3-1.5,1.8-1.4,1.9.3.5,3-2,3.2-1.8.2.3-1.2,2.2-1.1,2.4.5.8,5.5-3.9,5.8-3.4"/><path class="cls-26" d="M21.2,47s1-.7,1-.6c0,0-.8,1-.8,1.1s1.2-.9,1.3-.7c.2.3-1.6,2.3-1.5,2.6.2.3,1.7-1.5,1.9-1.1"/><path class="cls-26" d="M22.1,38c0,.1,1.4-.9,1.4-.8,0,0-.4.6-.4.7,0,0,.1-.1.1,0"/><path class="cls-26" d="M21.8,32.6s.2-.2.3-.2c0,.2-.5,1-.4,1.2.2.3,1.3-1,1.4-.8"/><path class="cls-26" d="M19.2,33.8l.7-.4c0,.1-1.1,1.4-.9,1.6,0,.1,1.4-1.1,1.5-.9.2.3-3.5,3.4-3.2,4,.5.8,6.2-4.3,6.5-3.8.2.4-6.6,3.6-6.1,4.4.3.5,5.6-4,5.9-3.4.4.7-5.7,3.8-5.3,4.5.4.6,4.5-2.9,4.6-2.7.3.5-3.4,3.2-3.1,3.8,0,.1,1.2-1,1.3-.8.1.2-1,1.7-.8,1.9,0,0,.7-.5.7-.4"/><path class="cls-19" d="M32,54.4l1.3-.8c.2.3,0,1.9.1,2.1.1.2,2.9-2.3,3.2-1.8,0,.1-1.1,2.1-1,2.3,0,.1,1.3-.9,1.4-.8"/><path class="cls-19" d="M14.1,54.5s1.2-.8,1.3-.7c0,.2-.9,1.2-.8,1.4.1.2,2.6-1.9,2.8-1.6.3.4-1.9,2.6-1.8,2.7.3.5,3.8-2.6,3.9-2.3.1.2-1,1.7-.9,1.8,0,.1.2-.2.2-.1"/><path class="cls-19" d="M16.3,34.2c0,.1,1.7-1.2,1.8-1,.1.2-1.7,2.8-1.6,3s1.4-1,1.5-.9c.2.3-2.2,1.3-2.2,1.4s1.8-1.2,1.9-1.1c.1.2-1.5,1.6-1.5,1.7h.1"/><path class="cls-19" d="M21.1,31c0,.1.6-.4.6-.4.2.3-2.5,1.5-2.4,1.7.2.4,3.2-2.3,3.4-2"/><path class="cls-17" d="M22.7,64.1s.6-.4.6-.3v.4c0,.1.9-.7,1-.6,0,0,.3.6.4.7,0,.1,1-.8,1.1-.6.2.3,2.3.2,2.5.6,0,0,.9-.7,1-.6"/><path class="cls-17" d="M23.2,63.4l.2-.1.2.3.3-.2"/><path class="cls-26" d="M28.6,45.8s.5-.4.5-.3l-.6.4s.6-.5.7-.4"/><path class="cls-26" d="M27.5,44.6s1-.7,1.1-.6c0,.2-1.2,2.1-1.1,2.2.2.3,1.5-1.1,1.6-.9.1.2-1.9.9-1.8,1.1.1.2,2-1.5,2.1-1.2"/><path class="cls-17" d="M17.2,47.7h.1c0,.2.7,1.1.7,1.2,0,0,.9-.6,1-.6,0,0-.5,1-.4,1.1,0,0,1.2-.8,1.2-.7"/><path class="cls-17" d="M17.1,47.7c.1.2,1.9-1.3,2-1.2,0,0-.3,1.2-.3,1.3,0,0,.5-.4.6-.3v.5s.4-.3.4-.2"/><path class="cls-17" d="M17.6,47c0,.1.4-.4.5-.3,0,.1-.9.6-.8.7,0,0,1.1-.8,1.2-.7"/><path class="cls-12" d="M23.3,52.1l.8-.5c.1.2-.9,1-.8,1.2,0,0,.6-.5.6-.4,0,.2-.7,1.7-.6,1.8,0,0,.4-.3.4-.2,0,0-.4.9-.3,1l.6-.4"/><path class="cls-17" d="M24.7,48.2s.1-.1.1,0c.1.2-.9,2.2-.8,2.4l.7-.4"/><path class="cls-17" d="M28.5,70.9c.1.2,2.5-1.7,2.6-1.5,0,.1-.8.8-.7.9,0,.2,1.1-.8,1.1-.7"/><path class="cls-26" d="M15.1,52.9s.4-.3.4-.2l-.4.3.5-.3"/><path class="cls-26" d="M13.5,53.2c0,.1.7-.6.8-.5,0,0-1.3,1-1.2,1.2.2.3,2.4-1.7,2.5-1.4"/><path class="cls-17" d="M23.9,50.5l.3-.2c0,.1-.4,1.3-.4,1.4l.3-.2"/><path class="cls-17" d="M30.3,62.6c0,.1.8-.5.8-.5,0,.1-1.2,1.1-1.1,1.3,0,0,1.6-1.1,1.6-.9"/><path class="cls-24" d="M29.5,47.8s.9-.6.9-.5-.3.9-.2,1l1-.6"/><path class="cls-1" d="M20.7,62.7l.3-.2c0,.1.7.7.8.8,0,0,.5-.4.6-.3,0,0-.6.5-.6.6l.2-.1"/><path class="cls-17" d="M30.6,69.7c0,.2,1.6-1.2,1.7-1,0,.1-1.3,1.1-1.2,1.2,0,.2,1.2-.9,1.3-.7"/><path class="cls-17" d="M27.8,70.7l.3-.2v.6c.1.2.8-.6.8-.5v.3s.6-.4.6-.3"/><path class="cls-17" d="M29.5,63s0-.1.1,0c0,0-.2.6-.1.7,0,0,1-.7,1.1-.6"/><path class="cls-17" d="M23.7,54.9l.2-.1h.2s-.2.9-.2,1c0,0,1.1-.7,1.1-.6,0,0-.2.6-.2.7l.3-.2"/><path class="cls-17" d="M34.4,66.4l.8-.5c.1.2-1.4,1.5-1.3,1.6l.4-.2"/><path class="cls-19" d="M21,62.6h.2l.3-.2"/><path class="cls-19" d="M20.6,62h0l.2.7.3-.2"/><path class="cls-19" d="M24.9,55.7s.4-.3.4-.2c0,0-.8.8-.8.9l.5-.3"/><path class="cls-19" d="M24.6,55.5l.7-.4s-.7.5-.6.6c0,0,.3-.3.4-.2"/><path class="cls-17" d="M22.4,63.2s.2-.2.2-.1c0,0,.3.6.3.7,0,0,.2-.2.3-.2"/><path class="cls-17" d="M31.9,68.9s.5-.4.6-.3c0,0-.2.5-.2.6h0"/><path class="cls-17" d="M22.1,63.2s.4-.3.4-.2v.5l.2-.1"/><path class="cls-17" d="M23.3,41.5h0v.3s.4-.3.5-.3c0,.2-.7,1-.7,1.1h0"/><path class="cls-19" d="M11.7,45.8c.1.2,2-1.3,2.1-1.2.1.2-1.7,2.8-1.6,3,0,.2,1.4-1.2,1.6-.9"/><path class="cls-19" d="M11.3,45.6s.6-.4.6-.3c.1.2-.5,1.3-.4,1.4l.4-.3c.1.2-.9,1.7-.8,1.9l1-.6c.2.3-1.5,2.1-1.4,2.3,0,0,.7-.5.7-.4"/><path class="cls-19" d="M12,42.9s.2-.1.2,0c0,0-.9,1.1-.8,1.2,0,0,1.4-.9,1.4-.8.2.3-1.6,1.9-1.5,2.1,0,.1,1.5-1.1,1.6-.9,0,.2-1.6.8-1.4,1,.1.2,1.1-.7,1.1-.6"/><path class="cls-19" d="M13.6,43.3s.8-.6.9-.5c0,.1-1,.5-.9.6,0,0,1-.7,1-.6"/><path class="cls-19" d="M12.6,39.6l.4-.3c0,.1.8,1.5.9,1.7,0,0,.7-.5.8-.4,0,0-.9,1.1-.8,1.3,0,.1.5-.4.6-.3.2.3-2.6,2.5-2.4,2.9l.3-.2.5.2h0"/><path class="cls-19" d="M12.8,39.5l.2-.1c0,.2-.9,2.3-.7,2.6,0,0,.4-.3.4-.2.2.3-1.3,2.1-1.2,2.4l.4-.3s-.8,1.4-.8,1.6h.1"/><path class="cls-19" d="M11.2,45.8l.5-.3s-.4.6-.3.7l.5-.3c0,.1-.9.9-.8,1.1l.7-.4c0,.1-.6,1.2-.6,1.3,0,0,.2-.2.2-.1s-.8.5-.8.5c0,0,.9-.6,1-.6,0,.2-.9,1.4-.8,1.5l.4-.2"/><path class="cls-10" d="M11.7,54.7h0l.1.2.2-.1c0,.1-.5,1-.4,1.1h0"/><path class="cls-17" d="M10.1,41.4l.7-.4c.1.2-.7,1.6-.7,1.7l.3-.2"/><path class="cls-17" d="M19.4,70.3s.7-.5.7-.4c0,.2.5,1,.5,1.1,0,0,1.1-.8,1.1-.7s-1.4.7-1.3.8c0,.1,1.2-.8,1.3-.7v1.1l.5-.3"/><path class="cls-17" d="M17.9,69.8l1.2-.7s.5,1,.6,1.1l.6-.4"/><path class="cls-17" d="M22.5,71.1l.3-.2s.3.1.4.2c0,0,.2-.2.3-.2,0,.1-.9.6-.9.6,0,.1,1.3-.9,1.3-.8.1.2,2.2.3,2.3.6,0,0,.7-.5.7-.4v.2l.5-.3"/><path class="cls-17" d="M17.9,68.9s.1-.1.2,0c0,0,0,.6.1.7,0,.1,0,0,0,0,0,0-.3.3-.2.3l.6-.4"/><path class="cls-19" d="M14.8,61.9l.2-.1s.1.4.2.4c0,0,.2-.2.3-.2"/><path class="cls-17" d="M26.5,71.2s.1-.1.2,0l.1.2s.8-.6.9-.5l-.4.6h0"/><path class="cls-19" d="M12.1,57.1s.9-.6,1-.6c0,.1-.7.8-.7.8l.5-.3"/><path class="cls-17" d="M21.8,71.1l.5-.3s.3.4.4.5h0"/><path class="cls-19" d="M19.8,68.8s.2-.1.2,0v.3s.2-.2.3-.2"/><path class="cls-19" d="M16.7,65.1s.2-.2.2-.1v.3l.2-.1"/><path class="cls-17" d="M22.7,71.4h0s-.3.3-.2.4c0,0,.9-.6,1-.6,0,.1,2.1.4,2.1.5s.7-.6.8-.5l.7.2h.1"/><path class="cls-17" d="M23.2,63.7s.1-.1.2,0c0,0,.4.3.4.4,0,0,.2-.2.2-.1"/><path class="cls-17" d="M27.8,63.8s.2-.2.2-.1c0,0-.3.3-.3.4,0,0,.2-.2.2-.1"/><path class="cls-17" d="M17.1,47.7c.1.2,1.7-1.1,1.8-1,0,.1-.6,1.5-.5,1.7,0,.1,1.5-1,1.5-.9s-1.4,1.3-1.3,1.4c0,0,1.2-.8,1.3-.7"/><path class="cls-17" d="M23.4,52.8h0s-.2.7-.2.8h.1"/><path class="cls-15" d="M12.7,39.9l.4-.2c0,.1-.8,2.2-.6,2.5,0,.1,1.7-1.3,1.9-1.1.2.3-1.7,1.6-1.6,1.9,0,.2,1.5-1.2,1.6-.9.1.2-1.5,1-1.4,1.2,0,.1,1-.7,1.1-.6"/><path class="cls-9" d="M12.1,45h0c.1.2-1,2.4-.8,2.7,0,0,.2-.1.2,0,0,0,.3-.2.3-.1h.1"/><path class="cls-27" d="M78.6,50.8h-3v-15.9h3s0,15.9,0,15.9ZM81.4,43.8h-3.8v-2.4h3.8v2.4ZM74.3,39.4h-12.7v-2.4h12.7v2.4ZM68,40.2c1,0,1.9.2,2.7.5.8.3,1.4.8,1.9,1.5.4.6.7,1.3.7,2.2s-.2,1.5-.7,2.1c-.4.6-1.1,1.1-1.9,1.4-.8.3-1.7.5-2.7.5s-1.9-.2-2.8-.5c-.8-.3-1.4-.8-1.9-1.4-.4-.6-.7-1.3-.7-2.1s.2-1.5.7-2.2c.4-.6,1.1-1.1,1.9-1.5s1.7-.5,2.8-.5ZM68,42.5c-.5,0-.9,0-1.3.2-.4.1-.6.4-.8.6-.2.3-.3.6-.3,1s0,.7.3,1c.2.3.5.5.8.6.4.1.8.2,1.3.2s.9,0,1.3-.2c.4-.1.7-.3.9-.6.2-.3.3-.6.3-1s-.1-.7-.3-1c-.2-.3-.5-.5-.9-.6s-.8-.2-1.3-.2ZM69.5,38.2h-3v-3.4h3v3.4ZM79.3,55.8h-14.6v-2.4h14.6v2.4ZM67.7,54.4h-3v-4.9h3v4.9Z"/></svg>