<svg width="32" height="41" viewBox="0 0 32 41" fill="none" xmlns="http://www.w3.org/2000/svg">
<path d="M15.5913 40.24C15.3113 40.24 15.0913 40.02 15.0913 39.74V0.5C15.0913 0.22 15.3113 0 15.5913 0C15.8713 0 16.0913 0.22 16.0913 0.5V39.74C16.0913 40.02 15.8713 40.24 15.5913 40.24Z" fill="white"/>
<path d="M15.5914 40.51C15.4114 40.51 15.2314 40.41 15.1514 40.24C12.2614 34.61 6.76138 30.94 0.461377 30.41C0.181377 30.39 -0.0186229 30.14 0.00137708 29.87C0.0213771 29.59 0.271377 29.39 0.541377 29.41C7.19138 29.97 12.9814 33.85 16.0414 39.78C16.1714 40.03 16.0714 40.33 15.8214 40.45C15.7514 40.49 15.6714 40.51 15.5914 40.51Z" fill="white"/>
<path d="M15.5915 40.51C15.5115 40.51 15.4315 40.49 15.3615 40.45C15.1115 40.32 15.0215 40.02 15.1415 39.78C18.1915 33.85 23.9915 29.97 30.6415 29.41C30.9115 29.38 31.1615 29.59 31.1815 29.87C31.2015 30.14 31.0015 30.39 30.7215 30.41C24.4215 30.94 18.9215 34.62 16.0315 40.24C15.9415 40.41 15.7715 40.51 15.5915 40.51Z" fill="white"/>
</svg>
