<svg width="221" height="61" viewBox="0 0 221 61" fill="none" xmlns="http://www.w3.org/2000/svg">
<path d="M85.91 34.3201V30.1301H74.5V26.9701H100.93V30.1301H89.49V34.3201H98.8V44.3401H95.22V37.4401H76.3V34.3101H85.9L85.91 34.3201ZM98.74 16.1201V24.6901H95.16V19.2801H76.57V16.1201H98.74Z" fill="#B2B2B2"/>
<path d="M118.04 40.51H114.5V20.53H103.77V17.31H118.05V40.51H118.04ZM127.9 26.69H132.02V30.27H127.9V44.29H124.36V15.54H127.9V26.69Z" fill="#B2B2B2"/>
<path d="M134.7 34.1002H161.13V37.2902H155.26V44.2802H151.75V37.2902H144.08V44.2802H140.57V37.2902H134.7V34.1002ZM156.49 23.3002C156.49 24.4202 156.26 25.4702 155.81 26.4402C155.36 27.4102 154.75 28.2802 153.97 29.0302C153.18 29.7802 152.26 30.3702 151.23 30.8002C150.2 31.2302 149.09 31.4402 147.91 31.4402C146.73 31.4402 145.62 31.2302 144.58 30.8002C143.54 30.3702 142.63 29.7802 141.86 29.0302C141.09 28.2802 140.47 27.4102 140.02 26.4402C139.57 25.4702 139.34 24.4102 139.34 23.3002C139.34 22.1902 139.57 21.1002 140.02 20.1302C140.47 19.1602 141.08 18.2902 141.86 17.5402C142.63 16.8102 143.54 16.2302 144.58 15.8002C145.62 15.3702 146.73 15.1602 147.91 15.1602C149.09 15.1602 150.2 15.3702 151.23 15.8002C152.26 16.2302 153.17 16.8102 153.97 17.5402C154.74 18.2902 155.36 19.1602 155.81 20.1302C156.26 21.1002 156.49 22.1702 156.49 23.3002ZM152.98 23.3002C152.98 22.6102 152.84 21.9702 152.56 21.3702C152.28 20.7702 151.93 20.2302 151.5 19.7602C151.03 19.3102 150.48 18.9502 149.87 18.6802C149.26 18.4102 148.61 18.2802 147.92 18.2802C147.23 18.2802 146.58 18.4102 145.97 18.6802C145.36 18.9502 144.82 19.3102 144.34 19.7602C143.91 20.2302 143.56 20.7702 143.28 21.3702C143 21.9702 142.86 22.6202 142.86 23.3002C142.86 23.9802 143 24.6002 143.28 25.2202C143.56 25.8302 143.91 26.3602 144.34 26.8102C144.81 27.2802 145.36 27.6502 145.97 27.9102C146.58 28.1702 147.23 28.3002 147.92 28.3002C148.61 28.3002 149.26 28.1702 149.87 27.9102C150.48 27.6502 151.02 27.2902 151.5 26.8102C151.93 26.3602 152.28 25.8302 152.56 25.2202C152.84 24.6102 152.98 23.9702 152.98 23.3002Z" fill="#B2B2B2"/>
<path d="M172.63 15.3701L181.46 30.1001L178.56 31.8401L172.63 21.5901L166.76 32.0601L163.8 30.3201L172.63 15.3701ZM169.51 34.1001V40.5501H188.85V43.7101H165.94V34.1101H169.52L169.51 34.1001ZM188.1 33.9401H184.56V15.5401H188.1V22.3101H192.22V25.8201H188.1V33.9401Z" fill="#B2B2B2"/>
<path d="M194.71 21.01V18.01H201.45V15.21H205.25V18.01H211.66V21.01H204.7L211.92 28.33L209.54 30.55L203.32 24.1L197.23 31.06L194.78 28.8L201.97 21H194.72L194.71 21.01ZM217.66 38.16C217.66 39.13 217.46 40.04 217.06 40.88C216.66 41.73 216.13 42.47 215.47 43.12C214.8 43.76 214.01 44.27 213.1 44.65C212.19 45.03 211.21 45.21 210.18 45.21C209.15 45.21 208.2 45.02 207.28 44.65C206.36 44.28 205.56 43.76 204.9 43.12C204.24 42.48 203.7 41.73 203.31 40.88C202.91 40.03 202.71 39.12 202.71 38.16C202.71 37.2 202.91 36.29 203.31 35.44C203.71 34.59 204.24 33.85 204.9 33.2C205.56 32.55 206.36 32.05 207.28 31.67C208.2 31.29 209.17 31.11 210.18 31.11C211.19 31.11 212.18 31.3 213.1 31.67C214.01 32.05 214.8 32.56 215.47 33.2C216.14 33.84 216.67 34.59 217.06 35.44C217.46 36.29 217.66 37.2 217.66 38.16ZM214.14 38.13C214.14 37.06 213.75 36.13 212.96 35.36C212.17 34.59 211.24 34.2 210.14 34.2C209.04 34.2 208.14 34.59 207.37 35.36C206.6 36.13 206.21 37.06 206.21 38.13C206.21 39.2 206.6 40.16 207.37 40.92C208.14 41.68 209.07 42.06 210.14 42.06C211.21 42.06 212.18 41.68 212.96 40.92C213.74 40.16 214.14 39.23 214.14 38.13ZM216.53 31.62V25.08H211.5V22.02H216.53V15.54H220.11V31.62H216.53Z" fill="#B2B2B2"/>
<path d="M60.75 30.37C60.75 47.15 47.15 60.75 30.38 60.75C13.61 60.75 0 47.15 0 30.37C0 13.59 13.6 0 30.37 0C47.14 0 60.74 13.6 60.74 30.37H60.75Z" fill="#F3F1E0"/>
<path d="M44.6502 28.2602C39.8202 24.9802 33.6302 26.3202 30.3902 31.2502C27.6802 35.3702 23.5902 35.8802 22.0002 35.8802C16.8302 35.8802 13.2902 32.2502 12.2502 28.4902C12.2502 28.4902 12.2302 28.4202 12.2202 28.3902C12.2102 28.3502 12.2002 28.3102 12.1902 28.2602C11.7802 26.6902 11.6802 25.9402 11.6802 24.2702C11.6802 15.2702 20.9102 5.26022 34.2002 5.26022C47.4902 5.26022 55.6002 15.6202 57.6002 21.3802C57.5702 21.2802 57.5302 21.1802 57.5002 21.0702C53.6302 9.82022 42.9502 1.72021 30.3802 1.72021C14.5502 1.72021 1.72021 14.5502 1.72021 30.3802C1.72021 44.5302 11.9302 56.6402 26.0802 56.6402C37.3702 56.6402 44.9502 50.3102 48.4302 41.5902C50.3402 36.8202 48.9902 31.2102 44.6502 28.2702V28.2602Z" fill="#B2B2B2"/>
<path d="M57.7704 21.9403C56.1004 16.3203 48.2504 5.26025 34.1904 5.26025C20.9004 5.26025 11.6704 15.2703 11.6704 24.2703C11.6704 25.9403 11.7704 26.6903 12.1804 28.2603C12.0004 27.5703 11.9204 26.8903 11.9204 26.2203C11.9204 16.8503 21.3004 10.3603 30.9404 10.3603C43.9904 10.3603 54.5704 20.9403 54.5704 33.9803C54.5704 44.2103 48.6804 53.0703 40.1304 57.3203C51.1604 53.3302 59.0304 42.7703 59.0304 30.3703C59.0304 27.4303 58.6404 24.8503 57.7704 21.9403Z" fill="#B2B2B2"/>
</svg>
