<svg width="158" height="71" viewBox="0 0 158 71" fill="none" xmlns="http://www.w3.org/2000/svg">
<path fill-rule="evenodd" clip-rule="evenodd" d="M39.9239 5.318L40.7759 3.325C40.9725 2.86642 41.343 2.50459 41.8061 2.31898C42.2692 2.13336 42.787 2.13912 43.2459 2.335C43.5899 2.483 43.8639 2.722 44.0599 3.011L43.6879 2.137C43.6459 2.035 43.5899 1.94 43.5359 1.842C42.9519 0.791 41.7379 0 39.9239 0C37.9439 0 36.6739 0.934 36.1619 2.132L30.8999 14.435L33.4539 20.445L39.9239 5.318Z" fill="#B2B2B2"/>
<path fill-rule="evenodd" clip-rule="evenodd" d="M57.0352 37.515C57.1352 37.329 57.2222 37.125 57.2952 36.913L57.0352 37.515ZM57.0462 33.04L57.2922 33.61C57.224 33.4144 57.1418 33.2239 57.0462 33.04Z" fill="#B2B2B2"/>
<path fill-rule="evenodd" clip-rule="evenodd" d="M57.2911 33.6102L57.0461 33.0402L44.0601 3.01024C43.8708 2.73121 43.6098 2.50826 43.3046 2.36475C42.9995 2.22125 42.6613 2.16247 42.3256 2.19458C41.9899 2.22668 41.669 2.3485 41.3966 2.54725C41.1242 2.746 40.9102 3.01437 40.7771 3.32424L39.9251 5.31624L54.7951 39.7202C54.9591 40.1002 55.0601 40.6242 55.0601 41.2022C55.0601 41.8292 54.9401 42.3922 54.7541 42.7772H54.7641L57.0341 37.5152L57.2941 36.9132C57.4641 36.4202 57.5641 35.8632 57.5641 35.2692C57.5621 34.6692 57.4641 34.1062 57.2911 33.6102ZM28.7401 3.01024C28.5505 2.73106 28.2893 2.50803 27.9838 2.36455C27.6784 2.22107 27.3399 2.16241 27.004 2.19472C26.6681 2.22704 26.347 2.34914 26.0745 2.54822C25.802 2.7473 25.5881 3.01603 25.4551 3.32624L24.5981 5.32824L46.0981 55.8902L49.0881 50.8602L28.7381 3.01024H28.7401Z" fill="#B2B2B2"/>
<path fill-rule="evenodd" clip-rule="evenodd" d="M29.682 17.2822L15.458 50.5322L18.008 56.5582L32.24 23.2902" fill="#B2B2B2"/>
<path fill-rule="evenodd" clip-rule="evenodd" d="M53.443 42.8881L51.51 38.4131L39.832 65.4881L38.972 67.4841C38.7752 67.9425 38.4047 68.3041 37.9417 68.4897C37.4786 68.6753 36.9609 68.6697 36.502 68.4741C36.172 68.3325 35.89 68.0984 35.69 67.8001C35.69 67.8001 35.688 67.8001 35.687 67.7981L36.057 68.6711C36.102 68.7741 36.157 68.8691 36.211 68.9671C36.797 70.0201 38.009 70.8091 39.823 70.8091C41.803 70.8091 43.073 69.8751 43.585 68.6791L53.455 45.8151C53.611 45.4381 53.71 44.9351 53.71 44.3691C53.71 43.7911 53.608 43.2651 53.443 42.8881Z" fill="#B2B2B2"/>
<path fill-rule="evenodd" clip-rule="evenodd" d="M54.7538 42.7771C54.9418 42.3921 55.0598 41.8301 55.0598 41.2031C55.0598 40.6251 54.9598 40.0991 54.7938 39.7201L52.8698 35.2661L51.5098 38.4141L53.4438 42.8881C53.6068 43.2651 53.7088 43.7911 53.7088 44.3681C53.7088 44.9331 53.6088 45.4381 53.4518 45.8141L54.7618 42.7771H54.7518H54.7538Z" fill="#B2B2B2"/>
<path fill-rule="evenodd" clip-rule="evenodd" d="M24.5978 5.328L25.4548 3.325C25.6513 2.86642 26.0219 2.50459 26.485 2.31898C26.9481 2.13336 27.4659 2.13912 27.9248 2.335C28.2688 2.482 28.5448 2.722 28.7388 3.011L28.3658 2.138C28.3238 2.038 28.2658 1.941 28.2128 1.844C27.6298 0.79 26.4168 0 24.6038 0C22.6238 0 21.3538 0.933 20.8408 2.132L15.5298 14.52L18.0798 20.532L24.5998 5.328H24.5978Z" fill="#B2B2B2"/>
<path fill-rule="evenodd" clip-rule="evenodd" d="M4.58994 18.4862C4.4688 18.2012 4.2927 17.9428 4.0717 17.7258C3.8507 17.5088 3.58912 17.3375 3.30191 17.2216C3.0147 17.1057 2.70747 17.0475 2.39778 17.0504C2.08808 17.0532 1.78197 17.1171 1.49694 17.2382C1.21191 17.3593 0.953525 17.5354 0.736547 17.7564C0.51957 17.9774 0.348247 18.239 0.232359 18.5262C0.116472 18.8134 0.0582896 19.1207 0.0611347 19.4304C0.0639797 19.7401 0.127796 20.0462 0.248941 20.3312L6.59594 35.3362L9.17594 29.3262L4.58994 18.4862Z" fill="#B2B2B2"/>
<path fill-rule="evenodd" clip-rule="evenodd" d="M14.2362 53.3882L8.23015 67.4232C8.07671 67.782 8.01462 68.1732 8.04946 68.5619C8.0843 68.9506 8.21498 69.3245 8.42979 69.6503C8.6446 69.9761 8.93684 70.2435 9.28035 70.4287C9.62386 70.6138 10.0079 70.7109 10.3982 70.7112C10.8601 70.7114 11.312 70.576 11.6977 70.3218C12.0835 70.0676 12.3861 69.7058 12.5682 69.2812L16.7852 59.4162L14.2352 53.3892L14.2362 53.3882Z" fill="#B2B2B2"/>
<path fill-rule="evenodd" clip-rule="evenodd" d="M11.724 35.3462L9.14404 41.3562L20.334 67.8042C20.53 68.0902 20.804 68.3282 21.144 68.4742C22.099 68.8842 23.204 68.4392 23.614 67.4842L24.474 65.4782L11.724 35.3462Z" fill="#B2B2B2"/>
<path fill-rule="evenodd" clip-rule="evenodd" d="M45.0901 17.27L30.8301 50.61L33.3831 56.63L47.6681 23.23M29.6101 53.464L24.4741 65.478L23.6161 67.484C23.4195 67.9426 23.049 68.3044 22.5859 68.49C22.1228 68.6757 21.6049 68.6699 21.1461 68.474C20.8178 68.3323 20.5368 68.0999 20.3361 67.804C20.3361 67.802 20.3331 67.8 20.3311 67.798L20.7041 68.671C20.7471 68.773 20.8021 68.868 20.8571 68.966C21.4401 70.018 22.6521 70.808 24.4661 70.808C26.4461 70.808 27.7161 69.874 28.2291 68.678L32.1611 59.482L29.6121 53.464H29.6101Z" fill="#B2B2B2"/>
<path fill-rule="evenodd" clip-rule="evenodd" d="M27.0671 35.3799L24.4941 41.3959L35.6901 67.7999C35.8851 68.0869 36.1581 68.3269 36.5001 68.4739C36.959 68.67 37.4769 68.6759 37.9401 68.4903C38.4033 68.3046 38.7738 67.9426 38.9701 67.4839L39.8331 65.4869L27.0671 35.3799Z" fill="#B2B2B2"/>
<path fill-rule="evenodd" clip-rule="evenodd" d="M14.3052 17.3682L0.19023 50.2702C-0.0558399 50.8458 -0.0634719 51.4955 0.16901 52.0767C0.401491 52.6579 0.855088 53.1231 1.43023 53.3702C2.00566 53.6158 2.65503 53.6229 3.23572 53.39C3.8164 53.1571 4.28091 52.7033 4.52723 52.1282L16.8552 23.3802L14.3052 17.3662V17.3682Z" fill="#B2B2B2"/>
<path fill-rule="evenodd" clip-rule="evenodd" d="M28.3301 20.4442L30.8841 26.4542L32.2361 23.2912L29.6821 17.2832" fill="#B2B2B2"/>
<path fill-rule="evenodd" clip-rule="evenodd" d="M43.7378 20.43L46.3148 26.395L47.6678 23.232L45.0898 17.269" fill="#B2B2B2"/>
<path fill-rule="evenodd" clip-rule="evenodd" d="M54.7538 42.7771C54.9418 42.3921 55.0598 41.8301 55.0598 41.2031C55.0598 40.6251 54.9598 40.0991 54.7938 39.7201L52.8698 35.2661L51.5098 38.4141L53.4438 42.8881C53.6068 43.2651 53.7088 43.7911 53.7088 44.3681C53.7088 44.9331 53.6088 45.4381 53.4518 45.8141L54.7618 42.7771H54.7518H54.7538Z" fill="#B2B2B2"/>
<path fill-rule="evenodd" clip-rule="evenodd" d="M12.8828 56.5482L15.4328 62.5782L16.7858 59.4152L14.2358 53.3882" fill="#B2B2B2"/>
<path fill-rule="evenodd" clip-rule="evenodd" d="M28.2578 56.6268L30.8098 62.6438L32.1618 59.4808L29.6118 53.4658" fill="#B2B2B2"/>
<path fill-rule="evenodd" clip-rule="evenodd" d="M12.9502 20.5252L15.5002 26.5402L16.8552 23.3822L14.3052 17.3682" fill="#B2B2B2"/>
<path fill-rule="evenodd" clip-rule="evenodd" d="M12.6831 1.46023C12.4382 0.884708 11.9747 0.430057 11.3945 0.196293C10.8144 -0.0374715 10.1651 -0.0312 9.58962 0.213727C9.0141 0.458655 8.55945 0.922175 8.32569 1.50232C8.09192 2.08246 8.09819 2.73171 8.34312 3.30723L21.9401 35.3772L24.5141 29.3612L12.6841 1.46123L12.6831 1.46023Z" fill="#B2B2B2"/>
<path fill-rule="evenodd" clip-rule="evenodd" d="M76.7602 14.5721H76.7262L75.1102 19.2101H78.3802L76.7602 14.5721ZM82.7502 24.1781H80.1162L78.9412 20.9281H74.5512L73.3912 24.1781H70.8462L75.5162 12.0581H78.0812L82.7502 24.1781ZM97.7632 24.1781H95.3932V19.2781C95.3932 17.9081 94.8302 17.3651 93.8132 17.3651C93.0212 17.3651 92.4582 17.7691 92.1232 18.1001C92.1452 18.3301 92.1612 18.5761 92.1612 18.8201V24.1781H89.7902V19.2781C89.7902 17.9081 89.2322 17.3651 88.2122 17.3651C87.4222 17.3651 86.8422 17.8371 86.5622 18.1721V24.1781H84.1722V15.5201H86.4382V16.4501H86.4732C86.8252 16.0121 87.6532 15.3101 89.1262 15.3101C90.2492 15.3101 91.1462 15.7141 91.6562 16.5901C92.0362 16.1797 92.4982 15.8537 93.0123 15.6332C93.5263 15.4127 94.0809 15.3026 94.6402 15.3101C96.5362 15.3101 97.7662 16.3601 97.7662 18.8201V24.1781H97.7632ZM101.726 18.9601H105.186C105.166 17.9071 104.676 17.2421 103.57 17.2421C102.603 17.2421 101.865 17.8901 101.726 18.9621M103.552 15.3101C106.028 15.3101 107.328 16.7501 107.328 19.6641V20.4711H101.726C101.884 21.7731 102.638 22.4231 104.113 22.4231C105.519 22.4231 106.238 21.8431 106.538 21.5971L107.312 23.1601C106.872 23.5631 105.922 24.3901 103.869 24.3901C101.164 24.3901 99.3892 22.9331 99.3892 19.7521C99.3892 16.8381 101.268 15.3101 103.552 15.3101ZM114.53 17.3801C114.512 17.3801 114.302 17.3651 114.072 17.3651C112.896 17.3651 112.175 17.9071 111.806 18.5751V24.1781H109.419V15.5201H111.683V16.8541H111.719C112.052 16.0821 112.684 15.3441 114.529 15.3441V17.3811L114.53 17.3801ZM116.156 24.1781H118.526V15.5201H116.156V24.1781ZM118.536 13.3981V13.4581C118.536 14.1531 118.089 14.5551 117.349 14.5551C116.592 14.5551 116.146 14.1531 116.146 13.4591V13.3961C116.146 12.7031 116.592 12.2861 117.348 12.2861C118.088 12.2861 118.533 12.7031 118.533 13.3961L118.536 13.3981ZM94.9062 41.7471H97.2762V33.0901H94.9062V41.7471ZM97.2862 30.9671V31.0291C97.2862 31.7221 96.8392 32.1221 96.0992 32.1221C95.3422 32.1221 94.8952 31.7221 94.8952 31.0281V30.9651C94.8952 30.2721 95.3422 29.8551 96.0982 29.8551C96.8382 29.8551 97.2852 30.2721 97.2852 30.9651L97.2862 30.9671ZM126.877 17.8901C126.547 17.6451 126.037 17.3471 125.123 17.3471C123.751 17.3471 122.61 18.1171 122.61 19.8401C122.61 21.5601 123.594 22.3501 125.085 22.3501C126.125 22.3501 126.67 22.0361 126.968 21.8241L127.615 23.5801C127.108 23.9321 126.317 24.3901 124.699 24.3901C122.119 24.3901 120.186 22.9841 120.186 19.8581C120.186 16.7331 122.523 15.3101 124.876 15.3101C126.458 15.3101 127.194 15.7461 127.704 16.1001L126.877 17.8901ZM134.22 21.9131V20.5951C134.22 20.5951 133.694 20.5771 133.15 20.5771C131.92 20.5771 131.34 20.9121 131.34 21.5971C131.34 22.1931 131.743 22.5451 132.497 22.5451C133.429 22.5451 133.957 22.1931 134.22 21.9131ZM137.713 24.1081C137.593 24.1611 137.187 24.3541 136.538 24.3541C135.623 24.3541 134.941 24.0381 134.553 23.3541C134.133 23.8441 133.339 24.3911 131.9 24.3911C130.058 24.3911 129.055 23.4231 129.055 21.8791C129.055 20.0691 130.55 19.1041 132.865 19.1041C133.605 19.1041 134.22 19.1571 134.22 19.1571V19.0171C134.22 17.8371 133.694 17.2771 132.427 17.2771C131.994 17.2707 131.565 17.3513 131.164 17.5142C130.763 17.677 130.399 17.9188 130.093 18.2251L129.126 16.7511C129.652 16.2071 130.741 15.3111 132.743 15.3111C135.433 15.3111 136.538 16.7341 136.538 19.0861V21.5461C136.538 22.2831 136.765 22.5101 137.258 22.5101C137.486 22.5101 137.661 22.4581 137.713 22.4381V24.1081ZM141.35 16.4501H141.388C141.738 16.0481 142.528 15.3101 144.126 15.3101C145.986 15.3101 147.253 16.3601 147.253 18.8201V24.1781H144.863V19.2781C144.863 17.9081 144.303 17.3651 143.23 17.3651C142.37 17.3651 141.753 17.8551 141.475 18.1721V24.1781H139.088V15.5201H141.351L141.35 16.4501ZM76.7602 32.1331H76.7262L75.1102 36.7701H78.3802L76.7602 32.1331ZM82.7502 41.7401H80.1162L78.9412 38.4901H74.5512L73.3912 41.7401H70.8462L75.5162 29.6221H78.0812L82.7502 41.7401ZM87.7852 41.6541C87.6802 41.7221 87.2752 41.8811 86.6092 41.8811C85.0442 41.8811 84.1492 41.2141 84.1492 39.1261V29.2701H86.5192V38.8771C86.5192 39.7541 86.8192 39.9651 87.3452 39.9651C87.5732 39.9651 87.7312 39.9151 87.7852 39.8951V41.6541ZM93.1062 41.6541C93.0022 41.7221 92.5962 41.8811 91.9282 41.8811C90.3652 41.8811 89.4702 41.2141 89.4702 39.1261V29.2701H91.8402V38.8771C91.8402 39.7541 92.1402 39.9651 92.6662 39.9651C92.8942 39.9651 93.0522 39.9151 93.1062 39.8951V41.6541ZM104.543 39.4741V38.1601C104.543 38.1601 104.015 38.1401 103.471 38.1401C102.243 38.1401 101.663 38.4741 101.663 39.1601C101.663 39.7551 102.065 40.1101 102.821 40.1101C103.751 40.1101 104.278 39.7551 104.544 39.4761L104.543 39.4741ZM108.035 41.6691C107.912 41.7211 107.51 41.9121 106.86 41.9121C105.947 41.9121 105.263 41.5961 104.876 40.9121C104.454 41.4051 103.663 41.9481 102.222 41.9481C100.382 41.9481 99.3792 40.9821 99.3792 39.4381C99.3792 37.6281 100.869 36.6631 103.189 36.6631C103.925 36.6631 104.542 36.7131 104.542 36.7131V36.5731C104.542 35.3971 104.014 34.8381 102.748 34.8381C102.315 34.8312 101.885 34.9114 101.484 35.0739C101.082 35.2364 100.718 35.4779 100.411 35.7841L99.4482 34.3081C99.9732 33.7651 101.063 32.8681 103.063 32.8681C105.753 32.8681 106.857 34.2921 106.857 36.6461V39.1031C106.857 39.8411 107.087 40.0701 107.577 40.0701C107.732 40.0704 107.886 40.0468 108.033 40.0001V41.6671L108.035 41.6691ZM111.898 34.0131H111.933C112.285 33.6101 113.073 32.8701 114.673 32.8701C116.535 32.8701 117.8 33.9241 117.8 36.3841V41.7401H115.41V36.8401C115.41 35.4701 114.848 34.9261 113.777 34.9261C112.917 34.9261 112.302 35.4161 112.021 35.7331V41.7401H109.633V33.0821H111.899V34.0121L111.898 34.0131ZM126.08 35.4531C125.748 35.2071 125.24 34.9081 124.327 34.9081C122.955 34.9081 121.815 35.6811 121.815 37.4021C121.815 39.1241 122.797 39.9121 124.291 39.9121C125.326 39.9121 125.871 39.5971 126.171 39.3861L126.821 41.1421C126.311 41.4921 125.521 41.9491 123.905 41.9491C121.325 41.9491 119.391 40.5451 119.391 37.4191C119.391 34.2931 121.727 32.8691 124.081 32.8691C125.661 32.8691 126.397 33.3071 126.907 33.6591L126.082 35.4521L126.08 35.4531ZM129.97 36.5241H133.43C133.41 35.4701 132.92 34.8021 131.813 34.8021C130.846 34.8021 130.109 35.4521 129.97 36.5241ZM131.796 32.8701C134.271 32.8701 135.572 34.3101 135.572 37.2261V38.0321H129.97C130.126 39.3351 130.88 39.9841 132.357 39.9841C133.761 39.9841 134.482 39.4041 134.779 39.1571L135.551 40.7221C135.114 41.1241 134.166 41.9481 132.111 41.9481C129.405 41.9481 127.631 40.4931 127.631 37.3141C127.631 34.3991 129.511 32.8701 131.795 32.8701M83.4702 59.3041H81.0702V50.8841H81.0332L78.1652 55.5561H76.2352L73.3472 50.8841H73.3112V59.3041H70.9002V47.1841H73.7132L77.1792 52.7511H77.2122L80.6802 47.1841H83.4702M93.7932 59.3041H91.5432V58.3861H91.5102C91.1932 58.7761 90.5102 59.5161 88.7702 59.5161C86.9082 59.5161 85.6622 58.4781 85.6622 56.0011V50.6471H88.0502V55.5451C88.0502 56.9511 88.5582 57.4771 89.6652 57.4771C90.5792 57.4771 91.1412 56.9671 91.4212 56.6531V50.6471H93.7942V59.3051L93.7932 59.3041ZM101.52 53.0001C101.116 52.7001 100.396 52.2801 99.2902 52.2801C98.4302 52.2781 98.0442 52.5601 98.0442 52.9621C98.0442 53.3841 98.3412 53.6121 99.2022 53.8421L99.8162 54.0351C101.451 54.5271 102.469 55.2451 102.469 56.7581C102.469 58.3861 101.186 59.5161 98.8692 59.5161C97.0392 59.5161 96.0932 58.8621 95.6532 58.5111L96.3912 56.7041C96.7782 57.0371 97.5712 57.6001 98.7812 57.6001C99.7632 57.6001 100.166 57.2841 100.166 56.8621C100.166 56.3881 99.8162 56.1751 98.9032 55.8601L98.3072 55.6851C96.8132 55.2291 95.7932 54.5101 95.7932 53.0311C95.7932 51.4011 97.2502 50.4361 99.2532 50.4361C100.905 50.4361 101.768 50.9621 102.256 51.2761L101.52 53.0001ZM106.04 54.0871H109.498C109.483 53.0301 108.988 52.3671 107.883 52.3671C106.918 52.3671 106.18 53.0151 106.04 54.0871ZM107.865 50.4351C110.342 50.4351 111.641 51.8751 111.641 54.7881V55.5981H106.041C106.198 56.8961 106.953 57.5461 108.429 57.5461C109.833 57.5461 110.553 56.9661 110.851 56.7221L111.626 58.2841C111.186 58.6871 110.236 59.5141 108.183 59.5141C105.479 59.5141 103.703 58.0561 103.703 54.8761C103.703 51.9621 105.583 50.4361 107.866 50.4361M121.435 59.3041H119.187V58.3861H119.15C118.835 58.7761 118.152 59.5161 116.412 59.5161C114.55 59.5161 113.304 58.4781 113.304 56.0011V50.6471H115.692V55.5451C115.692 56.9511 116.202 57.4771 117.309 57.4771C118.219 57.4771 118.782 56.9671 119.064 56.6531V50.6471H121.434V59.3051L121.435 59.3041ZM137.096 59.3041H134.726V54.4041C134.726 53.0311 134.162 52.4901 133.146 52.4901C132.356 52.4901 131.791 52.8921 131.458 53.2241C131.476 53.4521 131.492 53.7001 131.492 53.9471V59.3041H129.122V54.4041C129.122 53.0311 128.559 52.4901 127.542 52.4901C126.752 52.4901 126.172 52.9621 125.89 53.2981V59.3041H123.503V50.6461H125.767V51.5761H125.804C126.154 51.1361 126.98 50.4361 128.456 50.4361C129.578 50.4361 130.474 50.8361 130.984 51.7141C131.365 51.3042 131.827 50.9785 132.341 50.7581C132.855 50.5376 133.409 50.4272 133.968 50.4341C135.866 50.4341 137.096 51.4881 137.096 53.9471V59.3041ZM144.53 53.0001C144.125 52.7001 143.406 52.2801 142.298 52.2801C141.438 52.2781 141.048 52.5601 141.048 52.9621C141.048 53.3841 141.35 53.6121 142.211 53.8421L142.825 54.0351C144.458 54.5271 145.477 55.2451 145.477 56.7581C145.477 58.3861 144.194 59.5161 141.877 59.5161C140.051 59.5161 139.102 58.8621 138.662 58.5111L139.402 56.7041C140.062 57.2852 140.913 57.604 141.792 57.6001C142.772 57.6001 143.178 57.2841 143.178 56.8621C143.178 56.3881 142.826 56.1751 141.913 55.8601L141.317 55.6851C139.825 55.2291 138.807 54.5101 138.807 53.0311C138.807 51.4011 140.265 50.4361 142.265 50.4361C143.917 50.4361 144.778 50.9621 145.268 51.2761L144.53 53.0001ZM145.814 34.9261C144.709 34.9261 143.864 35.6961 143.864 37.4361C143.864 39.1581 144.709 39.9311 145.814 39.9311C146.956 39.9311 147.764 39.1591 147.764 37.4381C147.764 35.6981 146.956 34.9281 145.814 34.9281M145.814 41.9681C143.514 41.9681 141.441 40.5651 141.441 37.4381C141.441 34.3111 143.514 32.8901 145.815 32.8901C148.133 32.8901 150.205 34.3101 150.205 37.4371C150.205 40.5641 148.133 41.9671 145.815 41.9671M157.06 31.2731C156.823 31.1964 156.574 31.1609 156.324 31.1681C155.427 31.1681 154.884 31.5181 154.884 32.5731V33.1001H157.06V35.0501H154.884V41.7571H152.496V35.0501H151.406V33.1001H152.496V32.6251C152.496 30.2551 153.936 29.1831 155.919 29.1831C156.551 29.1831 156.903 29.2891 157.059 29.3431L157.06 31.2731Z" fill="#B2B2B2"/>
</svg>
