<svg width="296" height="48" viewBox="0 0 296 48" fill="none" xmlns="http://www.w3.org/2000/svg">
<path d="M12.9337 7.10975C11.4165 10.56 18.7104 12.9483 13.9002 15.1735C12.3212 15.1117 11.2872 16.5278 9.70819 16.466C8.77537 14.9151 7.61216 13.4653 7.4492 11.6277C5.76901 8.981 2.99866 6.21065 0.35194 4.53046C-0.423533 2.33891 3.06048 3.14248 4.22369 1.95117C7.83694 1.95117 10.0285 5.40146 12.9337 7.10975Z" fill="#B2B2B2"/>
<path d="M62.2886 6.14369C63.9351 8.11047 66.2222 10.2402 65.1938 12.9207C63.5473 15.6966 60.8051 17.1464 57.4503 16.4665C56.5456 15.3033 58.1921 14.4323 58.0965 13.241C57.3211 9.98172 54.0956 7.17766 51.6455 5.17716C52.4828 3.50259 55.2925 4.27244 56.8097 4.53093C58.1977 6.10998 60.4848 5.5649 62.2942 6.14369H62.2886Z" fill="#B2B2B2"/>
<path d="M62.2887 24.5302C63.7722 24.4684 64.9635 22.8219 66.4807 23.8839C67.2225 23.4344 68.189 23.5299 68.7397 22.5915C68.6104 21.0743 66.447 21.5912 65.5142 20.6584C61.7717 21.2091 59.2542 16.8822 55.5117 19.366C52.3817 19.5289 48.0604 20.6584 45.5092 18.3994C46.4757 15.4942 46.4757 12.5946 45.5092 9.68941C46.6724 7.46414 44.9304 5.6266 43.8965 3.8846C42.2275 1.14235 39.356 -0.144487 36.1586 0.012855C33.8996 2.33365 37.451 3.8846 38.0917 5.81766C41.6094 8.68916 41.4464 13.4656 41.3172 17.4329C40.1259 20.7258 36.3834 19.1412 33.8996 20.0122C30.8033 17.3992 31.8991 13.0779 30.6741 9.68941C29.9941 5.91319 26.482 4.27234 23.2565 3.23837C21.6775 3.94641 20.6435 3.17656 19.0645 3.8846C19.0982 4.59264 18.9015 5.40183 19.7107 5.81766C25.1278 7.91369 26.0662 13.5274 26.808 18.3994L25.8414 20.0122C20.4525 21.1417 14.8387 21.7879 9.06761 21.9453C6.71309 20.782 3.71235 20.237 1.00381 20.9787C-0.642662 21.108 0.295773 22.8837 0.0372822 23.8839C1.61632 25.817 4.16752 26.7891 6.81424 26.7891C8.46072 28.4019 10.6523 30.3687 10.686 32.9199C7.75268 35.6284 3.90903 37.5671 3.90903 41.9502C4.26305 43.9507 5.94324 44.8835 7.45485 46.1423C12.3268 47.6595 17.6484 46.4963 21.3291 43.237C21.9079 39.7193 20.8795 36.078 18.1036 33.5605C17.491 32.268 19.3286 31.9814 19.396 30.9812C20.1378 27.8175 15.4625 28.8177 13.9115 26.7891C13.6193 25.8844 14.3611 25.4012 14.878 24.8561C18.8453 25.89 22.009 23.0186 26.1674 23.5636C27.2968 24.5976 27.4261 26.0474 27.7801 27.4354C26.9709 32.5659 28.1004 37.3367 26.8136 42.2761C30.0054 48.8901 34.1693 37.6008 38.7491 43.2427C40.5867 42.7594 42.7838 43.1471 43.9133 40.9837C43.7841 39.8879 44.3011 38.4999 43.2671 37.7582C44.5595 34.3697 43.43 29.1774 44.2336 25.1764L45.2001 23.8839C48.8471 21.8834 50.5554 26.5925 52.9436 28.076C52.7526 30.7845 49.6507 30.6272 48.4257 32.9143C48.5212 33.465 48.1672 34.173 48.746 34.527C48.0042 37.2018 46.2622 39.4945 46.487 42.5908C47.3243 44.2373 47.875 46.5581 50.0328 47.1088C55.0959 47.3336 61.3558 48.4968 65.1939 44.8498C66.5818 43.1078 66.5481 40.7533 66.4863 38.3988C66.2278 34.7518 62.7438 32.7232 59.7094 31.6218C57.8718 31.043 58.1584 29.3965 58.7428 28.076C58.3888 26.4969 56.2591 26.4969 55.1914 25.1708C56.3827 21.5575 59.7375 25.2326 62.2887 24.5245V24.5302ZM14.5465 36.1454C15.0972 38.0785 16.0918 39.8205 16.1593 41.9502C15.1927 43.3045 13.6081 45.5635 11.6413 44.2092C10.3825 42.7875 8.99456 41.0174 10.0285 39.045C12.0908 38.011 11.9335 34.8192 14.5465 36.1398V36.1454ZM38.4176 37.1119C37.8669 38.7865 36.0631 38.8202 34.8718 39.6912C33.422 39.7249 33.259 38.1122 32.9387 37.1119L33.5849 23.5636C34.5852 23.2714 35.6472 22.8219 36.4901 22.9174L39.3953 23.5636C39.5583 28.6941 39.2324 32.4029 38.4288 37.1119H38.4176ZM56.8041 33.2402C59.0631 33.8864 59.7375 36.3365 60.6759 38.0785C60.7377 40.3037 60.7714 42.5627 59.3834 44.2092C58.1247 45.5297 56.2872 46.3389 54.5452 45.5016C52.9324 44.6981 51.994 43.0516 51.9659 41.3096C51.9041 37.9211 54.1911 34.9541 56.8041 33.2458V33.2402Z" fill="#B2B2B2"/>
<path d="M77.6129 38.3536V47.1985H76.7981V38.3536H73.7805V37.5781H80.7823V38.3536H77.6073H77.6129Z" fill="#B2B2B2"/>
<path d="M88.1154 47.1987V42.5796H82.704V47.1987H81.9004V37.5728H82.704V41.7985H88.1154V37.5728H88.9583V47.1987H88.1154Z" fill="#B2B2B2"/>
<path d="M90.7566 47.1987V37.5728H96.9548V38.3482H91.5546V41.7985H96.4659V42.574H91.5546V46.4682H97.0952V47.1931H90.751L90.7566 47.1987Z" fill="#B2B2B2"/>
<path d="M108.654 47.1985L104.743 42.3546L103.057 44.0292V47.2041H102.243V37.5781H103.057V43.0177C103.726 42.349 104.569 41.4667 105.586 40.3597C106.418 39.4494 107.255 38.5222 108.087 37.5837H109.177L105.294 41.8769L109.795 47.2097H108.649L108.654 47.1985Z" fill="#B2B2B2"/>
<path d="M117.617 46.1195C116.864 46.9511 115.813 47.3726 114.47 47.3726C113.127 47.3726 112.015 46.9399 111.256 46.0689C110.52 45.2091 110.149 43.9953 110.149 42.4219C110.149 40.8485 110.514 39.601 111.239 38.7244C111.987 37.8365 113.06 37.3926 114.465 37.3926C115.87 37.3926 116.921 37.8309 117.662 38.7075C118.41 39.5785 118.781 40.8092 118.781 42.4051C118.781 44.001 118.393 45.2597 117.612 46.1195H117.617ZM117.027 39.2638C116.42 38.5277 115.572 38.1568 114.476 38.1568C113.38 38.1568 112.464 38.5333 111.857 39.2919C111.267 40.0281 110.975 41.0733 110.975 42.4275C110.975 43.7818 111.284 44.8382 111.908 45.5744C112.521 46.2937 113.38 46.6533 114.476 46.6533C115.572 46.6533 116.398 46.288 117.005 45.5631C117.617 44.8158 117.926 43.7706 117.926 42.4275C117.926 41.0845 117.629 40.0056 117.033 39.2694L117.027 39.2638Z" fill="#B2B2B2"/>
<path d="M126.372 47.1987L123.737 42.8044H120.719V47.1987H119.904V37.5728H123.551C124.49 37.5728 125.243 37.7807 125.816 38.2021C126.44 38.6685 126.749 39.3148 126.749 40.152C126.749 40.8882 126.552 41.4782 126.159 41.9165C125.81 42.3099 125.299 42.5796 124.63 42.7201L127.316 47.1987H126.367H126.372ZM125.108 38.7247C124.686 38.455 124.169 38.3145 123.557 38.3145H120.725V42.0289H123.607C124.389 42.0289 124.956 41.8884 125.305 41.6075C125.675 41.3153 125.855 40.8376 125.855 40.1577C125.855 39.5339 125.602 39.0563 125.102 38.7247H125.108Z" fill="#B2B2B2"/>
<path d="M128.305 47.1987V37.5728H134.503V38.3482H129.103V41.7985H134.014V42.574H129.103V46.4682H134.644V47.1931H128.3L128.305 47.1987Z" fill="#B2B2B2"/>
<path d="M142.77 47.1984L141.635 44.1021H137.263L136.172 47.1984H135.318L138.965 37.3926H139.966L143.663 47.1984H142.77ZM139.482 38.2467L137.56 43.3547H141.393L139.482 38.2467Z" fill="#B2B2B2"/>
<path d="M150.457 47.1987L145.349 38.854V47.1987H144.545V37.5728H145.478L150.586 45.9737V37.5728H151.418V47.1987H150.457Z" fill="#B2B2B2"/>
<path d="M164.882 47.1987V38.618L161.578 47.1987H160.971L157.678 38.618V47.1987H156.863V37.5728H158.077L161.291 46.1592L164.528 37.5728H165.742V47.1987H164.887H164.882Z" fill="#B2B2B2"/>
<path d="M173.569 46.4511C173.019 47.0636 172.142 47.3727 170.951 47.3727C169.759 47.3727 168.916 47.058 168.332 46.423C167.742 45.7993 167.45 44.8777 167.45 43.6583V37.5781H168.265V43.6583C168.265 44.6417 168.456 45.3722 168.843 45.8442C169.27 46.3781 169.973 46.6478 170.951 46.6478C171.928 46.6478 172.552 46.4118 172.962 45.9341C173.373 45.4677 173.58 44.7091 173.58 43.6583V37.5781H174.384V43.6583C174.384 44.9226 174.114 45.8555 173.569 46.4511Z" fill="#B2B2B2"/>
<path d="M182.043 46.5805C181.42 47.1087 180.554 47.3728 179.447 47.3728C178.587 47.3728 177.862 47.1424 177.272 46.6873C176.705 46.2546 176.283 45.6364 176.008 44.816L176.879 44.6306C177.07 45.3161 177.407 45.8275 177.879 46.1703C178.306 46.485 178.829 46.6423 179.447 46.6423C180.2 46.6423 180.801 46.485 181.251 46.1703C181.785 45.8106 182.054 45.2599 182.054 44.5126C182.054 44.181 182.004 43.8944 181.908 43.6584C181.818 43.4561 181.695 43.2932 181.526 43.1695C181.459 43.1077 181.375 43.0572 181.29 43.0122C181.228 42.9841 181.139 42.9504 181.026 42.9054L180.919 42.8661L180.223 42.6413L179.526 42.4334C179.217 42.3435 178.986 42.2761 178.829 42.2255C178.582 42.1468 178.363 42.0738 178.16 42.0007C177.486 41.7535 177.014 41.5062 176.75 41.2477C176.39 40.9049 176.21 40.416 176.21 39.7867C176.21 38.9887 176.519 38.3762 177.132 37.9548C177.699 37.5783 178.475 37.3872 179.447 37.3872C180.256 37.3872 180.959 37.5951 181.566 38.0166C182.178 38.4493 182.577 39.0281 182.751 39.753L181.88 39.9103C181.768 39.3596 181.47 38.9213 180.998 38.5954C180.548 38.2975 180.032 38.1458 179.447 38.1458C178.733 38.1458 178.194 38.2357 177.812 38.4212C177.284 38.6853 177.02 39.1461 177.02 39.8035C177.02 40.0733 177.076 40.3093 177.188 40.5003C177.295 40.6745 177.458 40.8319 177.688 40.9611C177.778 41.0117 177.885 41.0679 178.02 41.1185C178.098 41.1522 178.228 41.2028 178.402 41.2646L178.548 41.3151L179.706 41.6579C180.858 41.9839 181.622 42.2873 182.01 42.5683C182.622 43.001 182.931 43.6416 182.931 44.5013C182.931 45.3611 182.633 46.0579 182.038 46.5693L182.043 46.5805Z" fill="#B2B2B2"/>
<path d="M184.201 47.1987V37.5728H190.405V38.3482H185.005V41.7985H189.916V42.574H185.005V46.4682H190.545V47.1931H184.201V47.1987Z" fill="#B2B2B2"/>
<path d="M198.412 46.4511C197.862 47.0636 196.985 47.3727 195.794 47.3727C194.603 47.3727 193.76 47.058 193.175 46.423C192.585 45.7993 192.293 44.8777 192.293 43.6583V37.5781H193.108V43.6583C193.108 44.6417 193.299 45.3722 193.687 45.8442C194.114 46.3781 194.816 46.6478 195.794 46.6478C196.772 46.6478 197.395 46.4118 197.806 45.9341C198.216 45.4677 198.424 44.7091 198.424 43.6583V37.5781H199.227V43.6583C199.227 44.9226 198.958 45.8555 198.412 46.4511Z" fill="#B2B2B2"/>
<path d="M209.061 47.1987V38.618L205.757 47.1987H205.15L201.857 38.618V47.1987H201.042V37.5728H202.256L205.471 46.1592L208.707 37.5728H209.921V47.1987H209.067H209.061Z" fill="#B2B2B2"/>
<path d="M221.812 47.1984L220.682 44.1021H216.31L215.22 47.1984H214.366L218.013 37.3926H219.013L222.711 47.1984H221.817H221.812ZM218.524 38.2467L216.602 43.3547H220.435L218.524 38.2467Z" fill="#B2B2B2"/>
<path d="M229.235 46.5805C228.611 47.1087 227.746 47.3728 226.639 47.3728C225.779 47.3728 225.054 47.1424 224.464 46.6873C223.896 46.2546 223.475 45.6364 223.199 44.816L224.07 44.6306C224.262 45.3161 224.599 45.8275 225.071 46.1703C225.498 46.485 226.02 46.6423 226.639 46.6423C227.392 46.6423 227.993 46.485 228.442 46.1703C228.976 45.8106 229.246 45.2599 229.246 44.5126C229.246 44.181 229.195 43.8944 229.1 43.6584C229.01 43.4561 228.886 43.2932 228.718 43.1695C228.65 43.1077 228.566 43.0572 228.482 43.0122C228.42 42.9841 228.33 42.9504 228.218 42.9054L228.111 42.8661L227.414 42.6413L226.717 42.4334C226.408 42.3435 226.178 42.2761 226.02 42.2255C225.773 42.1468 225.554 42.0738 225.352 42.0007C224.677 41.7535 224.205 41.5062 223.941 41.2477C223.582 40.9049 223.402 40.416 223.402 39.7867C223.402 38.9887 223.711 38.3762 224.323 37.9548C224.891 37.5783 225.666 37.3872 226.639 37.3872C227.448 37.3872 228.15 37.5951 228.757 38.0166C229.37 38.4493 229.769 39.0281 229.943 39.753L229.072 39.9103C228.959 39.3596 228.661 38.9213 228.189 38.5954C227.74 38.2975 227.223 38.1458 226.639 38.1458C225.925 38.1458 225.385 38.2357 225.003 38.4212C224.475 38.6853 224.211 39.1461 224.211 39.8035C224.211 40.0733 224.267 40.3093 224.38 40.5003C224.486 40.6745 224.649 40.8319 224.88 40.9611C224.97 41.0117 225.076 41.0679 225.211 41.1185C225.29 41.1522 225.419 41.2028 225.593 41.2646L225.739 41.3151L226.897 41.6579C228.049 41.9839 228.813 42.2873 229.201 42.5683C229.813 43.001 230.123 43.6416 230.123 44.5013C230.123 45.3611 229.825 46.0579 229.229 46.5693L229.235 46.5805Z" fill="#B2B2B2"/>
<path d="M237.186 46.5805C236.562 47.1087 235.697 47.3728 234.59 47.3728C233.73 47.3728 233.005 47.1424 232.415 46.6873C231.848 46.2546 231.426 45.6364 231.151 44.816L232.022 44.6306C232.213 45.3161 232.55 45.8275 233.022 46.1703C233.449 46.485 233.972 46.6423 234.59 46.6423C235.343 46.6423 235.944 46.485 236.394 46.1703C236.928 45.8106 237.197 45.2599 237.197 44.5126C237.197 44.181 237.147 43.8944 237.051 43.6584C236.961 43.4561 236.838 43.2932 236.669 43.1695C236.602 43.1077 236.517 43.0572 236.433 43.0122C236.371 42.9841 236.281 42.9504 236.169 42.9054L236.062 42.8661L235.365 42.6413L234.669 42.4334C234.36 42.3435 234.129 42.2761 233.972 42.2255C233.725 42.1468 233.505 42.0738 233.303 42.0007C232.629 41.7535 232.157 41.5062 231.893 41.2477C231.533 40.9049 231.353 40.416 231.353 39.7867C231.353 38.9887 231.662 38.3762 232.275 37.9548C232.842 37.5783 233.618 37.3872 234.59 37.3872C235.399 37.3872 236.102 37.5951 236.708 38.0166C237.321 38.4493 237.72 39.0281 237.894 39.753L237.023 39.9103C236.911 39.3596 236.613 38.9213 236.141 38.5954C235.691 38.2975 235.174 38.1458 234.59 38.1458C233.876 38.1458 233.337 38.2357 232.955 38.4212C232.426 38.6853 232.162 39.1461 232.162 39.8035C232.162 40.0733 232.219 40.3093 232.331 40.5003C232.438 40.6745 232.601 40.8319 232.831 40.9611C232.921 41.0117 233.028 41.0679 233.163 41.1185C233.241 41.1522 233.371 41.2028 233.545 41.2646L233.691 41.3151L234.848 41.6579C236 41.9839 236.765 42.2873 237.152 42.5683C237.765 43.001 238.074 43.6416 238.074 44.5013C238.074 45.3611 237.776 46.0579 237.18 46.5693L237.186 46.5805Z" fill="#B2B2B2"/>
<path d="M246.424 46.1195C245.671 46.9511 244.621 47.3726 243.278 47.3726C241.935 47.3726 240.822 46.9399 240.063 46.0689C239.327 45.2091 238.956 43.9953 238.956 42.4219C238.956 40.8485 239.322 39.601 240.052 38.7244C240.799 37.8365 241.873 37.3926 243.278 37.3926C244.682 37.3926 245.733 37.8309 246.475 38.7075C247.222 39.5785 247.593 40.8092 247.593 42.4051C247.593 44.001 247.2 45.2597 246.424 46.1195ZM245.834 39.2638C245.228 38.5277 244.379 38.1568 243.278 38.1568C242.176 38.1568 241.266 38.5333 240.659 39.2919C240.069 40.0281 239.777 41.0733 239.777 42.4275C239.777 43.7818 240.086 44.8382 240.71 45.5744C241.322 46.2937 242.182 46.6533 243.278 46.6533C244.373 46.6533 245.199 46.288 245.806 45.5631C246.419 44.8158 246.728 43.7706 246.728 42.4275C246.728 41.0845 246.43 40.0056 245.834 39.2694V39.2638Z" fill="#B2B2B2"/>
<path d="M255.376 46.5409C254.707 47.0916 253.808 47.3726 252.679 47.3726C251.336 47.3726 250.308 46.9624 249.588 46.1363C248.835 45.2653 248.453 44.001 248.453 42.332C248.453 40.7698 248.824 39.556 249.56 38.685C250.296 37.8253 251.336 37.3926 252.679 37.3926C253.752 37.3926 254.612 37.6511 255.275 38.168C255.837 38.6176 256.213 39.2189 256.405 39.9831L255.59 40.2472C255.404 39.5898 255.056 39.0784 254.55 38.7075C254.039 38.3366 253.421 38.1568 252.679 38.1568C251.712 38.1568 250.931 38.4546 250.336 39.0503C249.628 39.7696 249.268 40.8597 249.268 42.3151C249.268 43.7706 249.583 44.8607 250.218 45.6081C250.808 46.2993 251.628 46.6477 252.69 46.6477C253.522 46.6477 254.207 46.4173 254.747 45.9509C255.236 45.5294 255.539 44.9787 255.64 44.3044L256.523 44.5798C256.331 45.4114 255.949 46.0689 255.376 46.5409Z" fill="#B2B2B2"/>
<path d="M257.967 47.1987V37.5728H258.77V47.1987H257.967Z" fill="#B2B2B2"/>
<path d="M267.284 47.1984L266.154 44.1021H261.782L260.692 47.1984H259.838L263.485 37.3926H264.485L268.183 47.1984H267.289H267.284ZM263.991 38.2467L262.069 43.3547H265.901L263.991 38.2467Z" fill="#B2B2B2"/>
<path d="M272.032 38.3536V47.1985H271.217V38.3536H268.199V37.5781H275.201V38.3536H272.026H272.032Z" fill="#B2B2B2"/>
<path d="M276.258 47.1987V37.5728H277.061V47.1987H276.258Z" fill="#B2B2B2"/>
<path d="M285.996 46.1195C285.243 46.9511 284.192 47.3726 282.849 47.3726C281.506 47.3726 280.393 46.9399 279.635 46.0689C278.899 45.2091 278.528 43.9953 278.528 42.4219C278.528 40.8485 278.893 39.601 279.624 38.7244C280.371 37.8365 281.444 37.3926 282.849 37.3926C284.254 37.3926 285.305 37.8309 286.047 38.7075C286.794 39.5785 287.165 40.8092 287.165 42.4051C287.165 44.001 286.771 45.2597 285.996 46.1195ZM285.406 39.2638C284.799 38.5277 283.951 38.1568 282.849 38.1568C281.748 38.1568 280.837 38.5333 280.231 39.2919C279.64 40.0281 279.348 41.0733 279.348 42.4275C279.348 43.7818 279.657 44.8382 280.281 45.5744C280.894 46.2937 281.753 46.6533 282.849 46.6533C283.945 46.6533 284.771 46.288 285.378 45.5631C285.99 44.8158 286.299 43.7706 286.299 42.4275C286.299 41.0845 286.002 40.0056 285.406 39.2694V39.2638Z" fill="#B2B2B2"/>
<path d="M294.408 47.1987L289.3 38.854V47.1987H288.497V37.5728H289.429L294.537 45.9737V37.5728H295.369V47.1987H294.408Z" fill="#B2B2B2"/>
<path d="M119.376 8.09923V9.62208H103.125V8.09923H119.376ZM115.864 12.842C116.937 13.6399 117.477 14.6008 117.477 15.7135C117.477 16.8261 116.937 17.7814 115.864 18.585C114.712 19.4447 113.15 19.8718 111.177 19.8718C109.205 19.8718 107.592 19.4447 106.401 18.585C105.344 17.787 104.822 16.8261 104.822 15.7135C104.822 14.6008 105.35 13.6455 106.401 12.842C107.592 12.0047 109.182 11.5832 111.177 11.5832C113.172 11.5832 114.712 12.0047 115.864 12.842ZM107.693 13.7804C106.968 14.3086 106.609 14.9492 106.609 15.7135C106.609 16.4777 106.968 17.1183 107.693 17.6465C108.531 18.2534 109.654 18.5569 111.059 18.5569C112.464 18.5569 113.616 18.2534 114.459 17.6465C115.201 17.1183 115.572 16.4777 115.572 15.7135C115.572 14.9492 115.201 14.3086 114.459 13.7804C113.622 13.196 112.487 12.9038 111.059 12.9038C109.632 12.9038 108.531 13.196 107.693 13.7804ZM109.036 21.8892C109.115 21.9454 109.093 22.0634 108.98 22.2432C108.924 22.3218 108.885 22.378 108.862 22.4174C108.823 22.496 108.806 22.586 108.806 22.6815V27.132H125.585V28.7729H106.811V21.7431H108.334C108.744 21.7599 108.98 21.8105 109.036 21.8892ZM114.661 4.6096V6.13245H108.278V4.6096H114.661ZM124.883 3.82289C124.939 3.87908 124.922 4.00833 124.827 4.205C124.771 4.32301 124.731 4.4073 124.709 4.46911C124.669 4.56464 124.653 4.67141 124.653 4.78942V13.8085H129.485V15.5056H124.653V23.0299H122.601V3.64307H123.922C124.45 3.6824 124.771 3.7386 124.889 3.81727L124.883 3.82289Z" fill="#B2B2B2"/>
<path d="M149.563 13.3981C149.895 12.2461 150.159 11.1504 150.356 10.1164C150.592 8.84642 150.738 7.53711 150.794 6.19408H134.363V4.55322H152.873C152.834 6.05921 152.665 7.7675 152.373 9.67809C152.176 10.9649 151.951 12.2068 151.699 13.3981H156.621V15.0109H144.584V20.2818H152.407V29.447H150.417V21.889H133.868V20.2762H142.623V15.0052H130.705V13.3925H149.563V13.3981Z" fill="#B2B2B2"/>
<path d="M163.527 5.81181C163.567 5.86801 163.555 6.00849 163.499 6.22203C163.46 6.31755 163.432 6.39623 163.409 6.45804C163.387 6.55357 163.381 6.64348 163.381 6.72215V9.56555H171.524V5.64323H173.018C173.429 5.68257 173.665 5.73876 173.721 5.81743C173.76 5.87363 173.721 5.99163 173.603 6.17145C173.564 6.22764 173.535 6.28946 173.513 6.34565C173.474 6.40185 173.457 6.4749 173.457 6.54795V17.4439H161.51V5.63761H162.797C163.207 5.67695 163.449 5.73314 163.527 5.81181ZM181.509 20.6301V29.8571H179.548V22.3609H163.235V20.6357H181.509V20.6301ZM163.381 15.9716H171.524V10.9929H163.381V15.9716ZM181.863 3.94056C181.92 4.01923 181.903 4.14286 181.807 4.32268C181.751 4.41821 181.712 4.49688 181.689 4.55869C181.65 4.6767 181.633 4.78347 181.633 4.879V11.9369H186.466V13.6059H181.633V18.7307H179.582V3.76074H180.902C181.431 3.78322 181.751 3.83941 181.869 3.93494L181.863 3.94056Z" fill="#B2B2B2"/>
<path d="M213.72 14.5106V15.9773H201.245V19.0792H208.685V24.4063H193.456V27.334H209.741V28.8007H191.585V23.0015H206.757V20.484H191.383V19.0792H199.351V15.9773H187.781V14.5106H213.725H213.72ZM209.033 4.69922V12.0213H192.136V4.69922H209.033ZM194.125 10.4366H206.982V6.22207H194.125V10.4366Z" fill="#B2B2B2"/>
<path d="M225.312 11.9654C225.369 12.0216 225.324 12.1677 225.166 12.4037C225.048 12.5386 224.981 12.6397 224.958 12.6959C224.88 12.8139 224.852 12.9319 224.868 13.0499V17.8545C225.885 17.8545 227.358 17.8039 229.291 17.7084C231.421 17.6129 233.275 17.4836 234.854 17.3263L235.174 18.8772C233.106 19.0908 230.224 19.2762 226.537 19.4335C223.492 19.5515 220.738 19.619 218.277 19.6358C218.12 19.6583 217.957 19.7033 217.777 19.7819C217.698 19.8381 217.591 19.9112 217.456 19.9899C217.282 20.1247 217.153 20.1641 217.074 20.1079C216.939 20.0685 216.81 19.8718 216.692 19.5234L216.282 17.9725H219.328C220.48 17.9556 221.66 17.9219 222.874 17.8826V11.7912H224.396C224.925 11.7912 225.228 11.8474 225.307 11.9654H225.312ZM231.752 6.31231C231.752 8.26223 231.702 10.0323 231.606 11.6114C231.51 12.9994 231.381 14.3817 231.224 15.7697H229.263C229.398 14.6009 229.504 13.4264 229.583 12.2576C229.662 10.7516 229.679 9.30743 229.639 7.92507H218.513V6.31231H231.752ZM222.295 21.9791C222.682 21.9791 222.907 22.0184 222.969 22.0971C223.048 22.1533 223.025 22.2713 222.913 22.4511C222.857 22.5467 222.806 22.6253 222.767 22.6871C222.727 22.7827 222.716 22.8838 222.739 22.9794V27.2838H239.4V28.8347H220.716V21.9847H222.295V21.9791ZM237.933 3.58691C238.36 3.58691 238.608 3.64311 238.664 3.76111C238.703 3.81731 238.675 3.95779 238.574 4.17133C238.535 4.25 238.507 4.30619 238.484 4.34553C238.462 4.40172 238.456 4.46354 238.456 4.51973V14.4492H242.907V16.0619H238.456V23.7043H236.467V3.58691H237.933Z" fill="#B2B2B2"/>
<path d="M260.124 7.86315V9.47591H245.362V7.86315H260.124ZM256.96 12.1395C257.916 12.8981 258.393 13.8478 258.393 14.9829C258.393 16.118 257.916 17.0621 256.96 17.8263C255.887 18.7254 254.454 19.1749 252.656 19.1749C250.858 19.1749 249.369 18.7254 248.295 17.8263C247.34 17.0677 246.862 16.118 246.862 14.9829C246.862 13.8478 247.34 12.9037 248.295 12.1395C249.369 11.2629 250.824 10.8189 252.656 10.8189C254.488 10.8189 255.887 11.2572 256.96 12.1395ZM249.756 13.1341C249.093 13.6399 248.762 14.258 248.762 14.9773C248.762 15.6965 249.093 16.2978 249.756 16.8204C250.459 17.388 251.425 17.6689 252.656 17.6689C253.887 17.6689 254.791 17.388 255.499 16.8204C256.123 16.2922 256.438 15.6797 256.438 14.9773C256.438 14.2748 256.123 13.6399 255.499 13.1341C254.797 12.589 253.847 12.3137 252.656 12.3137C251.465 12.3137 250.459 12.589 249.756 13.1341ZM267.21 20.192C267.289 20.2707 267.368 20.3887 267.446 20.5461C267.25 20.7034 267.115 20.8607 267.036 21.0125C266.997 21.226 266.98 21.4114 266.98 21.5688L267.008 29.7393H265.047V28.8009H251.369V29.7955H249.408V20.1021H250.757C251.184 20.1583 251.448 20.237 251.549 20.3381C251.605 20.3943 251.577 20.5067 251.459 20.6584C251.42 20.7371 251.403 20.8046 251.403 20.8664C251.364 20.945 251.352 21.0237 251.375 21.1024V22.8612H265.052V20.0797H266.283C266.772 20.1358 267.081 20.1752 267.221 20.1977L267.21 20.192ZM256.112 4.60953V6.16048H249.728V4.60953H256.112ZM251.369 27.4242H265.047V24.3223H251.369V27.4242ZM267.328 3.87901C267.368 3.93521 267.339 4.04759 267.238 4.19932C267.199 4.29485 267.16 4.37352 267.12 4.43533C267.042 4.53086 267.002 4.63763 267.002 4.75564V19.2255H265.041V16.7361H260.529V15.1852H265.041V12.4598H260.529V10.8189H265.041V3.73291H266.738C267.07 3.77225 267.266 3.82282 267.323 3.87901H267.328Z" fill="#B2B2B2"/>
<path d="M287.092 13.1903C288.283 13.8533 288.879 14.7412 288.879 15.8538C288.879 17.062 288.255 18.0229 287.007 18.7253C285.99 19.3491 284.849 19.6638 283.58 19.6638V22.2431C284.574 22.1869 285.855 22.0857 287.418 21.9509C288.766 21.8328 290.188 21.698 291.694 21.5406L292.048 23.0354C289.682 23.2714 287.086 23.4962 284.259 23.7097C281.292 23.9233 278.629 24.1031 276.263 24.2379C275.87 24.2773 275.538 24.3447 275.268 24.4402C275.072 24.4796 274.869 24.5582 274.656 24.6762C274.482 24.7718 274.364 24.8111 274.302 24.7943C274.246 24.7549 274.167 24.6088 274.066 24.3559L273.392 22.6589V22.6308C274.954 22.5915 276.224 22.5521 277.202 22.5128C278.882 22.4566 280.405 22.3948 281.77 22.3386V19.675C280.405 19.675 279.225 19.3603 278.224 18.7366C277.072 18.051 276.493 17.1351 276.493 15.9831C276.493 14.9266 277.039 14.05 278.134 13.3476C279.247 12.6452 280.641 12.2912 282.321 12.2912H282.703C284.501 12.2912 285.962 12.5946 287.097 13.2015L287.092 13.1903ZM290.75 9.12184V10.7346H274.465V9.12184H290.75ZM279.534 14.3366C278.831 14.7862 278.477 15.3312 278.477 15.9775C278.477 16.6237 278.826 17.1688 279.534 17.6183C280.315 18.1465 281.377 18.4107 282.725 18.4107C284.074 18.4107 285.08 18.1465 285.861 17.6183C286.563 17.1688 286.917 16.6237 286.917 15.9775C286.917 15.3312 286.569 14.7862 285.861 14.3366C285.08 13.8477 284.035 13.6061 282.725 13.6061C281.416 13.6061 280.315 13.8477 279.534 14.3366ZM286.215 5.3119V6.92466H278.719V5.3119H286.215ZM295.847 3.67667C295.925 3.716 295.903 3.80591 295.79 3.94078C295.712 4.07564 295.656 4.17679 295.616 4.23298C295.577 4.35099 295.56 4.469 295.56 4.587V29.2729H293.571V3.46875H294.919C295.448 3.52494 295.757 3.598 295.858 3.67105L295.847 3.67667Z" fill="#B2B2B2"/>
<path d="M78.8828 5.46368C78.894 5.49739 78.8715 5.57044 78.8153 5.68283C78.7816 5.7615 78.7535 5.82332 78.7367 5.86265C78.7086 5.94694 78.6917 6.03123 78.6861 6.1099L78.6074 6.7168C78.6243 7.77886 78.9614 8.81282 79.6189 9.81307C80.2314 10.7459 80.9563 11.4314 81.7824 11.8585L81.0462 12.5047C80.4056 12.0889 79.7987 11.482 79.2199 10.6785C78.6411 9.88612 78.2815 9.16684 78.1466 8.52623C77.8881 9.3579 77.5004 10.139 76.9778 10.8695C76.4327 11.6394 75.7753 12.2968 75.0054 12.8419L74.303 12.3249C75.41 11.5832 76.2529 10.6391 76.8429 9.49838C77.4498 8.30708 77.7757 6.87414 77.8263 5.2108L78.5625 5.34005C78.7367 5.36815 78.8378 5.40748 78.8715 5.45806L78.8828 5.46368ZM84.1425 4.06445C84.3335 4.06445 84.4459 4.08693 84.4797 4.13189C84.4965 4.1656 84.4797 4.23303 84.4403 4.32856C84.4235 4.36228 84.4122 4.39038 84.401 4.40723C84.3897 4.43533 84.3897 4.45781 84.3897 4.48591V9.65573H86.4127V10.3694H84.3897V15.5673H83.5075V4.06445H84.1425Z" fill="#B2B2B2"/>
<path d="M93.5887 5.48039V6.20529H88.7392V9.96465C89.5484 9.96465 90.543 9.9197 91.7062 9.82417C92.9593 9.72302 93.9034 9.58815 94.544 9.43643L94.7407 10.2007C93.7123 10.3636 92.6896 10.4873 91.6669 10.5659C90.4756 10.6502 89.2056 10.7008 87.8569 10.7064V5.48601H93.5831L93.5887 5.48039ZM89.8574 11.982C90.0204 11.982 90.1272 11.9932 90.1665 12.0213C90.1834 12.0494 90.1665 12.0944 90.1159 12.1618C90.0878 12.2124 90.071 12.2517 90.0653 12.2798C90.0485 12.3248 90.0373 12.3641 90.0373 12.4091V14.522H97.4267V15.2244H89.1606V11.982H89.863H89.8574ZM96.7412 3.92383C96.9378 3.92383 97.0502 3.95192 97.0783 4.0025C97.0952 4.03622 97.0783 4.09803 97.0277 4.18232C97.0109 4.22727 96.9996 4.25537 96.9884 4.27223C96.9772 4.30033 96.9772 4.3228 96.9772 4.3509V8.37999H99.0114V9.10489H96.9772V12.9542H96.1118V3.92383H96.7468H96.7412Z" fill="#B2B2B2"/>
<path d="M75.955 18.8429C75.955 18.8429 75.9663 18.916 75.9157 18.9834C75.8876 19.0171 75.8708 19.0508 75.8651 19.0733C75.8539 19.107 75.8539 19.1407 75.8539 19.1632V20.5624H79.5458V18.7586H80.2314C80.4224 18.7755 80.5348 18.8036 80.5686 18.8373C80.5854 18.8541 80.5686 18.8935 80.5292 18.9553C80.4955 19.0002 80.4674 19.0396 80.4505 19.0733C80.4337 19.1183 80.4225 19.1576 80.4225 19.2025V24.142H74.9941V18.7642H75.528C75.7696 18.7755 75.9101 18.798 75.955 18.8429ZM75.8483 23.4452H79.5402V21.2143H75.8483V23.4452ZM84.4178 25.1197C84.4178 25.1197 84.4403 25.1928 84.4066 25.2602C84.3785 25.3108 84.3616 25.3501 84.356 25.3782C84.3448 25.4232 84.3448 25.4681 84.3448 25.5187V29.4467H83.5019V29.0196H77.2419V29.4748H76.3596V25.0579H76.9441C77.1407 25.0748 77.2644 25.1029 77.3093 25.1478C77.3374 25.1759 77.3262 25.2153 77.2812 25.2771C77.2644 25.322 77.2531 25.3501 77.2531 25.367C77.2363 25.4007 77.2306 25.4344 77.2419 25.4681V26.3223H83.5019V25.0411H84.0582C84.2549 25.0523 84.3785 25.0748 84.4234 25.1197H84.4178ZM77.2363 28.3958H83.4963V26.9573H77.2363V28.3958ZM84.5471 18.0787C84.5471 18.0787 84.5583 18.1573 84.5077 18.236C84.4628 18.281 84.4403 18.3147 84.4291 18.3372C84.401 18.3877 84.3897 18.4383 84.3897 18.4945V24.2881H83.5075V21.8886H80.9675V21.1637H83.5075V18H84.1312C84.3616 18.0281 84.5021 18.0506 84.5471 18.0787Z" fill="#B2B2B2"/>
<path d="M92.9536 20.0401C93.4706 20.5065 93.7291 21.0853 93.7291 21.7765C93.7291 22.4677 93.4706 23.0128 92.9536 23.4848C92.3917 24.013 91.6331 24.2771 90.6722 24.2771C89.7113 24.2771 88.9302 24.013 88.3795 23.4848C87.8625 23.0184 87.604 22.4452 87.604 21.7765C87.604 21.1078 87.8625 20.4953 88.3795 20.0401C88.9302 19.5231 89.6944 19.2646 90.6722 19.2646C91.6499 19.2646 92.3917 19.5231 92.9536 20.0401ZM89.0257 20.5459C88.6604 20.8718 88.4806 21.282 88.4806 21.7653C88.4806 22.2485 88.6604 22.6419 89.0257 22.9678C89.4247 23.3499 89.9698 23.541 90.6722 23.541C91.3746 23.541 91.8691 23.3499 92.2681 22.9678C92.639 22.6419 92.8244 22.2373 92.8244 21.7653C92.8244 21.2932 92.639 20.8774 92.2681 20.5459C91.8691 20.1806 91.3409 20.0008 90.6722 20.0008C89.9698 20.0008 89.4247 20.1806 89.0257 20.5459ZM90.2957 25.9067C90.3294 25.9236 90.3238 25.9685 90.2844 26.036C90.2563 26.0809 90.2395 26.1146 90.2339 26.1371C90.217 26.1877 90.2058 26.2383 90.2058 26.2776V28.4411H97.348V29.166H89.273V25.8112H89.8967C90.1215 25.8281 90.2563 25.8562 90.2957 25.9011V25.9067ZM97.1513 18.0059C97.1513 18.0059 97.1738 18.0902 97.1401 18.1745C97.112 18.2251 97.0951 18.27 97.0895 18.3037C97.0726 18.3543 97.0614 18.4105 97.0614 18.4723V26.7384H96.1173V17.9497H96.7411C96.9715 17.9497 97.112 17.9666 97.1569 18.0003L97.1513 18.0059Z" fill="#B2B2B2"/>
</svg>
