<svg width="272" height="44" viewBox="0 0 272 44" fill="none" xmlns="http://www.w3.org/2000/svg">
<path d="M57.3555 34.6938H58.9346V38.5159H58.9724C59.18 38.195 59.4002 37.8993 59.6078 37.6162L61.8853 34.6938H63.8545L60.8503 38.2328L64.0495 43.0048H62.1841L59.7116 39.1953L58.9346 40.0824V43.0048H57.3555V34.6938Z" fill="#B2B2B2"/>
<path d="M66.7672 38.8871C66.7672 40.5763 67.6605 41.9321 69.1893 41.9321C70.7181 41.9321 71.5989 40.5637 71.5989 38.8242C71.5989 37.2576 70.7842 35.7665 69.1893 35.7665C67.5945 35.7665 66.7672 37.1727 66.7672 38.8871ZM73.2787 38.7644C73.2787 41.5515 71.5046 43.14 69.095 43.14C66.6854 43.14 65.0811 41.3533 65.0811 38.9122C65.0811 36.4712 66.764 34.5586 69.2239 34.5586C71.6839 34.5586 73.2787 36.3957 73.2787 38.7644Z" fill="#B2B2B2"/>
<path d="M76.8775 38.4812H77.8212C78.897 38.4812 79.5702 37.9401 79.5702 37.1128C79.5702 36.2006 78.897 35.7822 77.8621 35.7822C77.3556 35.7822 77.0348 35.8199 76.8775 35.8577V38.4843V38.4812ZM75.2983 34.8039C75.8929 34.7064 76.7863 34.6309 77.7079 34.6309C78.9631 34.6309 79.8187 34.829 80.4007 35.2977C80.8788 35.6784 81.1525 36.2603 81.1525 36.9618C81.1525 38.0345 80.3881 38.7612 79.5733 39.0443V39.082C80.1962 39.3054 80.5705 39.8842 80.7907 40.6863C81.0612 41.7212 81.2972 42.6838 81.4765 43.0047H79.8313C79.7023 42.7593 79.4947 42.0799 79.2493 41.0449C79.004 39.9597 78.5887 39.6136 77.6828 39.5916H76.8806V43.0078H75.3015V34.807L75.2983 34.8039Z" fill="#B2B2B2"/>
<path d="M88.1956 39.318H84.9052V41.7591H88.5825V43.0048H83.3135V34.6938H88.3875V35.9395H84.9052V38.0849H88.1956V39.318Z" fill="#B2B2B2"/>
<path d="M94.8742 39.5036L94.1884 37.4558C94.0217 36.9493 93.877 36.3831 93.748 35.9018H93.7229C93.5939 36.3831 93.4649 36.9619 93.3076 37.4558L92.6345 39.5036H94.8742ZM92.3765 40.6486L91.6247 43.0048H89.9795L92.776 34.6938H94.8081L97.6455 43.0048H95.9374L95.1479 40.6486H92.3765Z" fill="#B2B2B2"/>
<path d="M109.089 42.7594C108.715 42.945 107.885 43.14 106.837 43.14C104.066 43.14 102.383 41.476 102.383 38.9468C102.383 36.2101 104.377 34.5586 107.045 34.5586C108.092 34.5586 108.844 34.7694 109.168 34.9298L108.819 36.1377C108.404 35.9647 107.834 35.8169 107.111 35.8169C105.337 35.8169 104.056 36.877 104.056 38.8745C104.056 40.699 105.182 41.8692 107.098 41.8692C107.746 41.8692 108.419 41.7465 108.835 41.5609L109.093 42.7563L109.089 42.7594Z" fill="#B2B2B2"/>
<path d="M112.675 38.4812H113.619C114.695 38.4812 115.368 37.9401 115.368 37.1128C115.368 36.2006 114.695 35.7822 113.66 35.7822C113.153 35.7822 112.833 35.8199 112.675 35.8577V38.4843V38.4812ZM111.096 34.8039C111.691 34.7064 112.584 34.6309 113.506 34.6309C114.761 34.6309 115.617 34.829 116.199 35.2977C116.677 35.6784 116.95 36.2603 116.95 36.9618C116.95 38.0345 116.186 38.7612 115.371 39.0443V39.082C115.994 39.3054 116.368 39.8842 116.589 40.6863C116.859 41.7212 117.095 42.6838 117.274 43.0047H115.629C115.5 42.7593 115.293 42.0799 115.047 41.0449C114.802 39.9597 114.387 39.6136 113.481 39.5916H112.678V43.0078H111.099V34.807L111.096 34.8039Z" fill="#B2B2B2"/>
<path d="M123.991 39.318H120.704V41.7591H124.381V43.0048H119.112V34.6938H124.186V35.9395H120.704V38.0849H123.991V39.318Z" fill="#B2B2B2"/>
<path d="M130.672 39.5036L129.986 37.4558C129.82 36.9493 129.675 36.3831 129.546 35.9018H129.521C129.392 36.3831 129.263 36.9619 129.105 37.4558L128.432 39.5036H130.672ZM128.174 40.6486L127.423 43.0048H125.777L128.574 34.6938H130.606L133.443 43.0048H131.735L130.946 40.6486H128.174Z" fill="#B2B2B2"/>
<path d="M136.976 35.9647H134.491V34.6938H141.081V35.9647H138.571V43.0048H136.976V35.9647Z" fill="#B2B2B2"/>
<path d="M144.343 34.6938H142.751V43.0048H144.343V34.6938Z" fill="#B2B2B2"/>
<path d="M148.81 43.0048L145.985 34.6938H147.722L148.914 38.4687C149.251 39.5162 149.534 40.4914 149.77 41.5011H149.795C150.028 40.5165 150.339 39.5036 150.688 38.4938L151.956 34.697H153.651L150.635 43.0079H148.81V43.0048Z" fill="#B2B2B2"/>
<path d="M160.128 39.318H156.838V41.7591H160.515V43.0048H155.246V34.6938H160.32V35.9395H156.838V38.0849H160.128V39.318Z" fill="#B2B2B2"/>
<path d="M171.884 42.7594C171.51 42.945 170.679 43.14 169.632 43.14C166.86 43.14 165.177 41.476 165.177 38.9468C165.177 36.2101 167.172 34.5586 169.839 34.5586C170.887 34.5586 171.638 34.7694 171.962 34.9298L171.613 36.1377C171.198 35.9647 170.629 35.8169 169.905 35.8169C168.131 35.8169 166.851 36.877 166.851 38.8745C166.851 40.699 167.977 41.8692 169.893 41.8692C170.541 41.8692 171.214 41.7465 171.629 41.5609L171.887 42.7563L171.884 42.7594Z" fill="#B2B2B2"/>
<path d="M174.51 38.8871C174.51 40.5763 175.403 41.9321 176.932 41.9321C178.461 41.9321 179.342 40.5637 179.342 38.8242C179.342 37.2576 178.527 35.7665 176.932 35.7665C175.337 35.7665 174.51 37.1727 174.51 38.8871ZM181.025 38.7644C181.025 41.5515 179.251 43.14 176.841 43.14C174.431 43.14 172.827 41.3533 172.827 38.9122C172.827 36.4712 174.51 34.5586 176.97 34.5586C179.43 34.5586 181.025 36.3957 181.025 38.7644Z" fill="#B2B2B2"/>
<path d="M182.435 43.0048V34.6938H184.246L186.499 38.2579C187.081 39.1827 187.587 40.1453 187.987 41.045H188.012C187.908 39.9346 187.87 38.8619 187.87 37.5942V34.697H189.346V43.0079H187.7L185.42 39.3463C184.863 38.4467 184.281 37.4243 183.853 36.4869L183.812 36.4995C183.878 37.5722 183.891 38.67 183.891 40.0384V43.0111H182.428L182.435 43.0048Z" fill="#B2B2B2"/>
<path d="M192.894 35.9647H190.409V34.6938H196.999V35.9647H194.489V43.0048H192.894V35.9647Z" fill="#B2B2B2"/>
<path d="M202.941 39.318H199.654V41.7591H203.331V43.0048H198.059V34.6938H203.136V35.9395H199.654V38.0849H202.941V39.318Z" fill="#B2B2B2"/>
<path d="M204.769 43.0048V34.6938H206.581L208.833 38.2579C209.415 39.1827 209.921 40.1453 210.321 41.045H210.346C210.242 39.9346 210.205 38.8619 210.205 37.5942V34.697H211.68V43.0079H210.035L207.757 39.3463C207.2 38.4467 206.618 37.4243 206.191 36.4869L206.15 36.4995C206.213 37.5722 206.228 38.67 206.228 40.0384V43.0111H204.766L204.769 43.0048Z" fill="#B2B2B2"/>
<path d="M215.228 35.9647H212.743V34.6938H219.333V35.9647H216.82V43.0048H215.228V35.9647Z" fill="#B2B2B2"/>
<path d="M226.842 39.5036L226.157 37.4558C225.99 36.9493 225.845 36.3831 225.716 35.9018H225.691C225.562 36.3831 225.433 36.9619 225.276 37.4558L224.603 39.5036H226.842ZM224.345 40.6486L223.593 43.0048H221.948L224.744 34.6938H226.776L229.614 43.0048H227.903L227.113 40.6486H224.342H224.345Z" fill="#B2B2B2"/>
<path d="M237.862 42.6241C237.305 42.8223 236.216 43.0928 235.053 43.0928C233.577 43.0928 232.464 42.7342 231.633 41.9824C230.856 41.2778 230.403 40.1831 230.416 38.9248C230.416 36.2981 232.385 34.6089 235.27 34.6089C236.345 34.6089 237.185 34.8196 237.588 35.0021L237.239 36.2226C236.757 36.0244 236.176 35.864 235.257 35.864C233.392 35.864 232.086 36.9115 232.086 38.8493C232.086 40.787 233.304 41.8566 235.115 41.8566C235.685 41.8566 236.113 41.7842 236.32 41.6836V39.6137H234.779V38.4183H237.862V42.6241Z" fill="#B2B2B2"/>
<path d="M244.411 39.318H241.124V41.7591H244.801V43.0048H239.529V34.6938H244.606V35.9395H241.124V38.0849H244.411V39.318Z" fill="#B2B2B2"/>
<path d="M246.235 43.0048V34.6938H248.047L250.3 38.2579C250.881 39.1827 251.388 40.1453 251.787 41.045H251.813C251.709 39.9346 251.671 38.8619 251.671 37.5942V34.697H253.146V43.0079H251.501L249.221 39.3463C248.664 38.4467 248.082 37.4243 247.654 36.4869L247.613 36.4995C247.679 37.5722 247.692 38.67 247.692 40.0384V43.0111H246.229L246.235 43.0048Z" fill="#B2B2B2"/>
<path d="M261.281 42.7594C260.906 42.945 260.076 43.14 259.029 43.14C256.257 43.14 254.574 41.476 254.574 38.9468C254.574 36.2101 256.569 34.5586 259.236 34.5586C260.284 34.5586 261.035 34.7694 261.359 34.9298L261.01 36.1377C260.595 35.9647 260.026 35.8169 259.302 35.8169C257.528 35.8169 256.245 36.877 256.245 38.8745C256.245 40.699 257.371 41.8692 259.286 41.8692C259.934 41.8692 260.608 41.7465 261.023 41.5609L261.281 42.7563V42.7594Z" fill="#B2B2B2"/>
<path d="M264.66 43.0048V39.5382L261.901 34.6938H263.713L264.76 36.8266C265.059 37.4432 265.276 37.9119 265.512 38.4781H265.537C265.757 37.9465 266.003 37.4306 266.302 36.8266L267.349 34.6938H269.149L266.248 39.5036V43.0048H264.657H264.66Z" fill="#B2B2B2"/>
<path d="M58.7555 12.4475C58.7555 11.0917 59.9131 9.98755 61.3381 9.98755C62.7631 9.98755 63.9207 11.0917 63.9207 12.4475C63.9207 13.8033 62.7631 14.9074 61.3381 14.9074C59.9131 14.9074 58.7555 13.8033 58.7555 12.4475ZM67.1859 12.4475C67.1859 9.37729 64.5624 6.87646 61.3381 6.87646C58.1137 6.87646 55.4902 9.37729 55.4902 12.4475C55.4902 15.5177 58.1137 18.0185 61.3381 18.0185C64.5624 18.0185 67.1859 15.5208 67.1859 12.4475Z" fill="#B2B2B2"/>
<path d="M256.723 3.73107C258.092 3.73107 259.205 4.73769 259.205 5.97709C259.205 7.21649 258.092 8.21997 256.723 8.21997C255.355 8.21997 254.241 7.21335 254.241 5.97709C254.241 4.74083 255.355 3.73107 256.723 3.73107ZM256.723 11.2681C259.948 11.2681 262.571 8.89315 262.571 5.97709C262.571 3.06103 259.948 0.686035 256.723 0.686035C253.499 0.686035 250.875 3.05789 250.875 5.97709C250.875 8.89629 253.499 11.2681 256.723 11.2681Z" fill="#B2B2B2"/>
<path d="M232.517 10.4059C231.149 10.4059 230.035 9.44966 230.035 8.27317C230.035 7.09668 231.149 6.14039 232.517 6.14039C233.886 6.14039 234.999 7.09668 234.999 8.27317C234.999 9.44966 233.886 10.4059 232.517 10.4059ZM226.669 8.27631C226.669 11.0477 229.293 13.3031 232.517 13.3031C235.742 13.3031 238.368 11.0477 238.368 8.27631C238.368 6.97085 237.783 5.78807 236.833 4.8947H240.01C240.608 4.8947 241.162 4.57383 241.46 4.05794L242.574 2.12963H234.2V0H230.806V2.12963H222.46V4.8947H228.201C227.251 5.78807 226.666 6.974 226.666 8.27631" fill="#B2B2B2"/>
<path d="M232.517 25.9838C231.023 25.9838 229.805 25.0086 229.805 23.8069C229.805 22.6053 231.023 21.6301 232.517 21.6301C234.011 21.6301 235.228 22.6053 235.228 23.8069C235.228 25.0086 234.011 25.9838 232.517 25.9838ZM232.517 18.6826C228.994 18.6826 226.128 20.9821 226.128 23.8101C226.128 26.6381 228.994 28.9376 232.517 28.9376C236.04 28.9376 238.906 26.6381 238.906 23.8101C238.906 20.9821 236.04 18.6826 232.517 18.6826Z" fill="#B2B2B2"/>
<path d="M74.3926 0.808594H70.9858V20.4377H74.3926V12.4445H77.2992C77.8969 12.4445 78.4506 12.1236 78.7494 11.6078L80.0203 9.40577H74.3926V0.808594Z" fill="#B2B2B2"/>
<path d="M60.8881 19.5002H57.4404V27.7073H73.5023C74.1 27.7073 74.6537 27.3896 74.9525 26.8706L76.2234 24.6686H60.8881V19.4971V19.5002Z" fill="#B2B2B2"/>
<path d="M102.575 2.22363H85.5975V5.26237H99.1271C99.1271 7.19068 99.0579 8.4867 98.9226 10.7422H81.7534V13.7809H92.0681V17.798H84.9117V20.865H99.1806V27.6974H102.628V17.798H95.4875V13.7809H104.61C105.208 13.7809 105.761 13.46 106.06 12.9441L107.331 10.7422H102.232C102.458 6.99879 102.575 4.68985 102.575 2.22363Z" fill="#B2B2B2"/>
<path d="M149.694 14.0143C147.215 14.2345 144.711 14.3446 142.185 14.3446V11.1611H147.071V8.2954H142.185V5.21892H149.162V2.18018H138.832V17.3802C141.924 17.3802 144.636 17.3204 146.973 17.1977C147.539 17.1694 148.049 16.8548 148.335 16.361L149.691 14.0111L149.694 14.0143Z" fill="#B2B2B2"/>
<path d="M160.738 0.808594H157.344V20.7397H160.738V0.808594Z" fill="#B2B2B2"/>
<path d="M148.577 11.2052H151.257H152.078V19.859H155.472V1.36865H152.078V8.3112H148.577V11.2052Z" fill="#B2B2B2"/>
<path d="M146.989 19.5H143.541V27.6788H159.408C160.006 27.6788 160.559 27.3611 160.858 26.842L162.145 24.6117H146.989V19.5Z" fill="#B2B2B2"/>
<path d="M173.375 11.9537C171.55 13.3944 169.301 14.3098 166.63 14.7062L168.902 17.4996C173.17 16.2224 176.262 14.206 178.178 11.4504C179.043 12.7087 180.386 13.9072 182.202 15.0491C184.017 16.191 185.838 16.9994 187.675 17.4681L189.644 14.6433C186.926 14.2029 184.677 13.2812 182.894 11.8845C181.11 10.4878 180.129 8.77343 179.946 7.02442H185.269C185.866 7.02442 186.42 6.70356 186.719 6.18767L187.933 4.08634H179.946V0.802246H176.498V4.08634H168.483V7.02442H176.445C176.225 8.77343 175.206 10.5098 173.381 11.9506" fill="#B2B2B2"/>
<path d="M165.96 24.8132H189.377C189.975 24.8132 190.528 24.4923 190.827 23.9764L192.082 21.8027H165.96V24.8132Z" fill="#B2B2B2"/>
<path d="M202.126 19.5127H198.679V27.6506H215.146C215.744 27.6506 216.298 27.3329 216.597 26.8138L217.867 24.615H202.126V19.5158V19.5127Z" fill="#B2B2B2"/>
<path d="M215.945 0.808594H212.58V20.6831H215.945V0.808594Z" fill="#B2B2B2"/>
<path d="M251.382 19.5127V27.7104H268.315C268.913 27.7104 269.466 27.3895 269.765 26.8736L271.036 24.6716H254.801V19.5158H251.382V19.5127Z" fill="#B2B2B2"/>
<path d="M261.307 17.1219V18.377V19.9153H266.409V21.9191H269.857V3.56709V0.805176H266.409V9.53761V17.1219H262.03H261.307Z" fill="#B2B2B2"/>
<path d="M127.41 12.9322L130.735 13.1618C130.999 10.6264 131.131 6.93964 131.131 2.10156H113.729V5.1403H127.737L127.709 6.88302L113.726 7.39891V10.2678L127.627 9.53169C127.545 11.1643 127.473 12.2968 127.407 12.9322" fill="#B2B2B2"/>
<path d="M117.177 19.5127H113.729V27.7009H130.295C130.892 27.7009 131.446 27.3832 131.745 26.8642L133.016 24.6622H117.177V19.5127Z" fill="#B2B2B2"/>
<path d="M122.496 10.9155H119.02V14.3443H110.14V17.3831H131.789C132.386 17.3831 132.94 17.0622 133.239 16.5463L134.51 14.3443H122.493V10.9155H122.496Z" fill="#B2B2B2"/>
<path d="M220.274 17.3422H243.222C243.819 17.3422 244.373 17.0245 244.672 16.5054L245.852 14.4639H220.274V17.3453V17.3422Z" fill="#B2B2B2"/>
<path d="M255.739 20.601H259.076V15.6968C260.077 15.6528 261.077 15.5993 262.074 15.5396C262.637 15.5081 263.144 15.1935 263.424 14.706L264.77 12.375C259.963 12.7179 254.458 12.8909 248.258 12.9003V16.0271C250.246 16.0271 252.741 15.9642 255.739 15.8384V20.5978V20.601Z" fill="#B2B2B2"/>
<path d="M59.6141 0.805176V3.1959H53.7505V6.08994H66.7831C67.3808 6.08994 67.9344 5.77222 68.2333 5.25318L69.4192 3.1959H63.0586V0.805176H59.6109H59.6141Z" fill="#B2B2B2"/>
<path d="M202.155 11.9822C203.596 14.181 205.562 15.9237 208.053 17.2103L210.227 14.4578C208.358 13.813 206.817 12.8032 205.603 11.4254C204.388 10.0476 203.781 8.52507 203.781 6.85156V5.09626H207.471C208.069 5.09626 208.622 4.77855 208.921 4.25951L210.167 2.10156H194.904V5.09626H200.337V6.96795C200.337 8.66662 199.692 9.92175 198.421 11.5827C197.15 13.2436 195.599 14.1118 193.756 14.851L196.191 17.3865C197.257 16.8486 201.107 14.181 202.155 11.979" fill="#B2B2B2"/>
<path d="M13.3345 13.7561L24.9893 2.10449H42.7058L13.3345 31.479V13.7561Z" fill="#B2B2B2"/>
<path d="M13.3345 31.4787L24.9893 43.1398H42.7058L13.3345 13.7559V31.4787Z" fill="#B2B2B2"/>
<path d="M22.1937 22.626L13.3311 31.4824L17.1578 35.3118L26.0204 26.4554L22.1937 22.626Z" fill="#B2B2B2"/>
<path d="M0.00292969 34.2881V37.2324L4.52329 34.2881H0.00292969Z" fill="#B2B2B2"/>
<path d="M0.00292969 18.4497V21.3941L4.52329 18.4497H0.00292969Z" fill="#B2B2B2"/>
<path d="M5.2721 14.2533C5.72508 13.8129 5.95472 13.2781 5.95472 12.6458C5.95472 12.0135 5.73452 11.4725 5.29098 11.0384C4.84743 10.6043 4.28435 10.3872 3.60174 10.3872C2.84048 10.3872 2.23651 10.6609 1.79297 11.2082C1.44694 11.6329 1.27393 12.1205 1.27393 12.671C1.27393 13.2938 1.49727 13.8223 1.9471 14.2596C2.39694 14.6968 2.95058 14.917 3.61117 14.917C4.27177 14.917 4.82227 14.6968 5.27525 14.2564" fill="#B2B2B2"/>
<path d="M3.34707 2.10764C3.32505 2.10764 3.30303 2.10764 3.28416 2.10449H0.00634766V5.59306C0.0912813 4.54869 0.37754 3.76856 1.02241 3.12055C1.63896 2.50085 2.38764 2.19257 3.35022 2.10764" fill="#B2B2B2"/>
<path d="M5.59912 41.9478H0.00292969V43.14H5.59912V41.9478Z" fill="#B2B2B2"/>
<path d="M3.81887 2.10156C4.47947 2.1456 4.97648 2.28087 5.46407 2.56084C5.99883 2.87226 6.42665 3.3158 6.75065 3.89461C7.07466 4.47342 7.23823 5.09626 7.23823 5.7663C7.23823 6.33567 7.1187 6.87987 6.87963 7.40835C6.64055 7.93368 6.29768 8.38666 5.85413 8.76728L4.97963 7.85189C5.64022 7.22904 5.96738 6.52755 5.96738 5.74742C5.96738 5.08997 5.74403 4.53633 5.29105 4.08335C4.84122 3.63352 4.28758 3.40703 3.62698 3.40703C3.16771 3.40703 2.75877 3.50769 2.40331 3.70587C2.04785 3.90405 1.76788 4.18716 1.56341 4.55206C1.35894 4.91696 1.25828 5.32275 1.25828 5.76944C1.25828 6.15007 1.33063 6.4961 1.47218 6.81381C1.61374 7.12838 1.87168 7.4744 2.24917 7.85189L1.32119 8.74212C0.82417 8.23252 0.48129 7.75122 0.286257 7.30139C0.110098 6.88931 0 6.4206 0 5.90156V12.5264C0.0912251 11.4915 0.386918 10.7459 1.06953 10.0916C1.78361 9.40901 2.63294 9.06612 3.61755 9.06612C4.27499 9.06612 4.88211 9.22656 5.43575 9.54427C5.9894 9.86199 6.42665 10.3024 6.75065 10.8592C7.07466 11.416 7.23509 12.0168 7.23509 12.6617C7.23509 13.6368 6.88277 14.4736 6.17814 15.1751C5.4735 15.8765 4.61158 16.2289 3.59867 16.2289C2.58576 16.2289 1.74271 15.8828 1.04751 15.1908C0.396355 14.5428 0.0786419 13.8444 0.00943669 12.8598C0.00943669 12.863 0.00943669 12.8693 0.00943669 12.8724V12.9636C0.0188738 13.1744 0.0157281 13.3883 0.00943669 13.6022V17.1411H6.8985V18.3994L2.36556 21.3469H6.8985V22.6587H0.00943669V24.782H5.60562V23.5615H6.8985V27.3678H5.60562V26.1126H0.00943669V28.2706H6.8985V32.0297H5.61506V29.5729H4.36937V32.0297H3.11109V29.5729H1.29917V32.0297H0.0125831V32.9765H6.90165V34.2348L2.36871 37.1823H6.90165V38.4941H0.0125831V40.6174H5.60877V39.3937H6.90165V43.1403H12.4569V2.10156H3.82516H3.81887Z" fill="#B2B2B2"/>
</svg>
