<svg width="298" height="58" viewBox="0 0 298 58" fill="none" xmlns="http://www.w3.org/2000/svg">
<path d="M82.5095 42.1055V50.9254H81.0917V43.824L78.7901 50.9254H77.4275L75.1258 43.824V50.9254H73.708V42.1055H75.8869L78.1149 48.9798L80.3429 42.1055H82.5157H82.5095Z" fill="#B2B2B2"/>
<path d="M85.7811 42.7991C85.7811 43.0446 85.689 43.2594 85.511 43.4374C85.333 43.6215 85.112 43.7075 84.8604 43.7075C84.6087 43.7075 84.3878 43.6154 84.2037 43.4374C84.0195 43.2594 83.9336 43.0446 83.9336 42.7991C83.9336 42.5536 84.0257 42.3265 84.2037 42.1485C84.3878 41.9705 84.6026 41.8784 84.8604 41.8784C85.1182 41.8784 85.3269 41.9705 85.511 42.1485C85.6951 42.3326 85.7811 42.5474 85.7811 42.7991ZM84.1484 50.9255V44.5852H85.5908V50.9255H84.1484Z" fill="#B2B2B2"/>
<path d="M88.6042 47.7394V50.9249H87.1741V44.5846H88.5551V45.4316C88.7269 45.137 88.9724 44.8976 89.2916 44.7135C89.6108 44.5294 89.9545 44.4312 90.3289 44.4312C91.0777 44.4312 91.6792 44.6889 92.1334 45.1984C92.5876 45.7078 92.8085 46.3891 92.8085 47.2422V50.9249H91.3662V47.6105C91.3662 46.9354 91.2557 46.4321 91.0347 46.1129C90.8199 45.7876 90.4823 45.6219 90.022 45.6219C89.7888 45.6219 89.5555 45.7017 89.3346 45.8551C89.1075 46.0086 88.9418 46.2234 88.819 46.4934C88.6717 46.8065 88.6042 47.2177 88.6042 47.7333V47.7394Z" fill="#B2B2B2"/>
<path d="M95.9634 42.7991C95.9634 43.0446 95.8714 43.2594 95.6934 43.4374C95.5092 43.6215 95.2944 43.7075 95.0428 43.7075C94.7911 43.7075 94.5702 43.6154 94.386 43.4374C94.2019 43.2594 94.116 43.0446 94.116 42.7991C94.116 42.5536 94.208 42.3265 94.386 42.1485C94.5702 41.9705 94.785 41.8784 95.0428 41.8784C95.3006 41.8784 95.5154 41.9705 95.6934 42.1485C95.8714 42.3326 95.9634 42.5474 95.9634 42.7991ZM94.3369 50.9255V44.5852H95.7793V50.9255H94.3369Z" fill="#B2B2B2"/>
<path d="M96.9519 49.7464L97.8541 48.8258C98.1058 49.1695 98.382 49.4396 98.6889 49.636C98.9835 49.814 99.3027 49.8999 99.6341 49.8999C99.9655 49.8999 100.229 49.8324 100.45 49.7035C100.671 49.5746 100.788 49.3966 100.788 49.1818C100.788 48.967 100.678 48.789 100.463 48.6662C100.248 48.5434 99.9901 48.4268 99.6955 48.3164C99.3518 48.2059 99.0019 48.0831 98.6336 47.9481C98.1426 47.7701 97.7866 47.543 97.5534 47.2668C97.3263 46.9845 97.2097 46.6714 97.2097 46.3154C97.2097 45.7937 97.4552 45.3518 97.9462 44.9836C98.4311 44.6153 99.0142 44.4312 99.6832 44.4312C100.389 44.4312 100.972 44.603 101.42 44.9406C101.647 45.1186 101.825 45.3395 101.96 45.5973L101.076 46.4566C100.954 46.2541 100.819 46.0883 100.659 45.9656C100.383 45.7201 100.033 45.5973 99.6095 45.5973C99.364 45.5973 99.1492 45.6587 98.9712 45.7815C98.7932 45.9042 98.7012 46.0515 98.7012 46.2172C98.7012 46.4014 98.7994 46.5548 99.0019 46.6837C99.2045 46.8126 99.5052 46.9354 99.898 47.052C100.045 47.0949 100.205 47.144 100.395 47.2054C101.015 47.408 101.475 47.6658 101.795 47.9911C102.108 48.3102 102.267 48.6908 102.267 49.1388C102.267 49.6605 102.016 50.1147 101.512 50.5014C101.003 50.8881 100.358 51.0783 99.5727 51.0783C98.916 51.0783 98.3329 50.9249 97.8235 50.618C97.4859 50.4155 97.1974 50.127 96.9519 49.7464Z" fill="#B2B2B2"/>
<path d="M105.311 42.5469V44.5846H106.692V45.7508H105.311V48.9792C105.311 49.2861 105.385 49.4887 105.538 49.6053C105.686 49.7219 105.888 49.7771 106.164 49.7771H106.698V50.931H105.827C105.139 50.931 104.648 50.7776 104.335 50.4769C104.028 50.1761 103.869 49.7219 103.869 49.1265V45.7569H102.782V44.5907H103.869V42.553H105.324L105.311 42.5469Z" fill="#B2B2B2"/>
<path d="M107.895 50.9253V44.585H109.246V45.5364C109.46 45.2233 109.718 44.984 110.019 44.8121C110.381 44.5912 110.811 44.4868 111.302 44.4868H111.4V45.7757H111.253C110.651 45.7757 110.179 45.9599 109.823 46.3159C109.491 46.6719 109.332 47.2243 109.332 47.9731V50.9192H107.901L107.895 50.9253Z" fill="#B2B2B2"/>
<path d="M114.432 50.6859L111.94 44.585H113.432L115.15 48.9121L116.857 44.585H118.336L114.807 53.3865H113.34L114.426 50.692L114.432 50.6859Z" fill="#B2B2B2"/>
<path d="M125.363 51.0783C124.436 51.0783 123.645 50.7592 122.994 50.1209C122.337 49.4825 122.012 48.6969 122.012 47.764C122.012 46.831 122.337 46.0392 122.994 45.3948C123.645 44.7565 124.436 44.4312 125.363 44.4312C126.29 44.4312 127.094 44.7503 127.745 45.3948C128.395 46.0392 128.721 46.831 128.721 47.764C128.721 48.6969 128.395 49.4825 127.745 50.1209C127.094 50.7592 126.296 51.0783 125.363 51.0783ZM125.363 49.8876C125.885 49.8876 126.333 49.6912 126.713 49.2861C127.088 48.8872 127.272 48.3777 127.272 47.764C127.272 47.1502 127.082 46.6469 126.713 46.2357C126.333 45.8244 125.885 45.6219 125.363 45.6219C124.841 45.6219 124.406 45.8306 124.025 46.2357C123.651 46.6469 123.46 47.1502 123.46 47.764C123.46 48.3777 123.651 48.8872 124.025 49.2861C124.4 49.6912 124.848 49.8876 125.363 49.8876Z" fill="#B2B2B2"/>
<path d="M130.267 43.9161C130.267 43.3269 130.433 42.8788 130.764 42.5658C131.096 42.2589 131.605 42.1055 132.293 42.1055H132.986V43.2594H132.569C132.299 43.2594 132.09 43.3146 131.943 43.4251C131.796 43.5417 131.722 43.7504 131.722 44.0573V44.5851H132.986V45.7513H131.722V50.9254H130.267V45.7513H129.175V44.5851H130.267V43.9161Z" fill="#B2B2B2"/>
<path d="M142.144 49.8387C143.065 49.8387 143.906 49.5441 144.667 48.9548L145.274 50.0289C144.495 50.7286 143.451 51.0785 142.15 51.0785C140.849 51.0785 139.799 50.6427 138.916 49.7712C138.038 48.8935 137.596 47.8194 137.596 46.5243C137.596 45.2292 138.038 44.1367 138.916 43.2651C139.793 42.3936 140.874 41.9517 142.15 41.9517C143.427 41.9517 144.458 42.3077 145.231 43.0135L144.636 44.0876C143.887 43.4861 143.059 43.1915 142.156 43.1915C141.315 43.1915 140.591 43.5045 139.996 44.1306C139.388 44.7812 139.087 45.5791 139.087 46.5243C139.087 47.4695 139.388 48.2613 139.996 48.8996C140.591 49.5256 141.315 49.8387 142.156 49.8387H142.144Z" fill="#B2B2B2"/>
<path d="M150.639 47.7769V44.5852H152.081V50.9255H150.7V50.0908C150.522 50.4038 150.289 50.6371 149.994 50.7966C149.651 50.9808 149.289 51.0728 148.92 51.0728C148.178 51.0728 147.576 50.8212 147.128 50.3118C146.674 49.8085 146.453 49.121 146.453 48.2618V44.5791H147.883V47.9058C147.883 48.5748 147.993 49.0719 148.221 49.3911C148.442 49.7164 148.785 49.876 149.239 49.876C149.467 49.876 149.7 49.8023 149.921 49.6427C150.148 49.4832 150.32 49.2745 150.442 49.0106C150.571 48.6975 150.645 48.2802 150.645 47.7585L150.639 47.7769Z" fill="#B2B2B2"/>
<path d="M153.751 50.9254V42.1055H155.181V50.9254H153.751Z" fill="#B2B2B2"/>
<path d="M158.734 42.5469V44.5846H160.115V45.7508H158.734V48.9792C158.734 49.2861 158.808 49.4887 158.955 49.6053C159.102 49.7219 159.311 49.7771 159.581 49.7771H160.115V50.931H159.243C158.562 50.931 158.065 50.7776 157.752 50.4769C157.433 50.1761 157.279 49.7219 157.279 49.1265V45.7569H156.187V44.5907H157.279V42.553H158.734V42.5469Z" fill="#B2B2B2"/>
<path d="M165.504 47.7769V44.5852H166.946V50.9255H165.565V50.0908C165.387 50.4038 165.154 50.6371 164.86 50.7966C164.51 50.9808 164.154 51.0728 163.779 51.0728C163.037 51.0728 162.441 50.8212 161.987 50.3118C161.539 49.8085 161.312 49.121 161.312 48.2618V44.5791H162.742V47.9058C162.742 48.5748 162.853 49.0719 163.08 49.3911C163.301 49.7164 163.644 49.876 164.092 49.876C164.32 49.876 164.553 49.8023 164.78 49.6427C165.007 49.4832 165.185 49.2745 165.302 49.0106C165.437 48.6975 165.504 48.2802 165.504 47.7585V47.7769Z" fill="#B2B2B2"/>
<path d="M168.61 50.9253V44.585H169.966V45.5364C170.175 45.2233 170.433 44.984 170.74 44.8121C171.102 44.5912 171.531 44.4868 172.016 44.4868H172.121V45.7757H171.967C171.372 45.7757 170.893 45.9599 170.537 46.3159C170.212 46.6719 170.046 47.2243 170.046 47.9731V50.9192H168.61V50.9253Z" fill="#B2B2B2"/>
<path d="M174.066 48.3964C174.146 48.7831 174.33 49.1023 174.606 49.3416C175.018 49.716 175.552 49.9002 176.214 49.9002C176.914 49.9002 177.571 49.6424 178.179 49.1268L178.608 50.1886C177.927 50.7779 177.117 51.0786 176.178 51.0786C175.11 51.0786 174.232 50.7717 173.563 50.1641C172.894 49.5565 172.556 48.7585 172.556 47.7704C172.556 46.7822 172.857 45.9966 173.453 45.3705C174.048 44.7383 174.827 44.4253 175.785 44.4253C176.742 44.4253 177.503 44.7383 178.105 45.3644C178.713 45.9904 179.007 46.7576 179.007 47.6783C179.007 47.93 178.989 48.1632 178.946 48.3841H174.06L174.066 48.3964ZM174.036 47.2548H177.559C177.54 46.8436 177.368 46.463 177.037 46.1193C176.712 45.7756 176.294 45.6099 175.785 45.6099C175.275 45.6099 174.827 45.794 174.49 46.1684C174.244 46.4446 174.097 46.8067 174.036 47.2548Z" fill="#B2B2B2"/>
<path d="M180.646 51.4839H180.585C180.333 51.4839 180.112 51.3918 179.928 51.2138C179.744 51.0359 179.646 50.821 179.646 50.5694C179.646 50.3177 179.738 50.0906 179.928 49.9126C180.112 49.7346 180.333 49.6426 180.585 49.6426C180.836 49.6426 181.063 49.7285 181.241 49.9004C181.45 50.1029 181.56 50.3852 181.56 50.7474C181.56 51.3612 181.407 51.8706 181.106 52.2757C180.812 52.6562 180.474 52.9201 180.094 53.0736L179.713 52.6562C180.057 52.4353 180.315 52.1836 180.486 51.8951C180.56 51.7662 180.615 51.6312 180.652 51.4778L180.646 51.4839Z" fill="#B2B2B2"/>
<path d="M185.918 49.139L186.888 48.1569C187.152 48.7093 187.484 49.1206 187.876 49.3845C188.306 49.6668 188.742 49.8141 189.178 49.8141C189.644 49.8141 190.037 49.6914 190.368 49.4459C190.7 49.2126 190.866 48.8996 190.866 48.5068C190.866 48.1631 190.7 47.8807 190.362 47.6659C190.031 47.4511 189.669 47.267 189.282 47.1135C188.895 46.9723 188.49 46.8128 188.067 46.647C187.392 46.4015 186.913 46.0824 186.618 45.6834C186.33 45.2845 186.182 44.8671 186.182 44.4313C186.182 43.75 186.471 43.1669 187.054 42.6821C187.631 42.1972 188.349 41.9517 189.19 41.9517C190.074 41.9517 190.798 42.1788 191.357 42.6391C191.645 42.86 191.841 43.0994 191.952 43.3695L191.062 44.3086C190.988 44.1551 190.847 43.9833 190.645 43.793C190.221 43.4063 189.705 43.2099 189.116 43.2099C188.748 43.2099 188.423 43.3142 188.134 43.5229C187.852 43.7255 187.711 44.0078 187.711 44.3515C187.711 44.8732 188.282 45.3397 189.429 45.7448C189.638 45.8123 189.859 45.886 190.092 45.9719C190.859 46.2665 191.436 46.6164 191.817 47.0153C192.204 47.4143 192.394 47.9114 192.394 48.5006C192.394 49.2003 192.093 49.8018 191.498 50.3113C190.908 50.8207 190.141 51.0846 189.202 51.0846C188.343 51.0846 187.631 50.8882 187.066 50.5016C186.52 50.121 186.133 49.6668 185.912 49.1451L185.918 49.139Z" fill="#B2B2B2"/>
<path d="M196.929 51.0783C196.15 51.0783 195.506 50.7776 194.984 50.1822V53.3861H193.554V44.5846H194.929V45.3948C195.481 44.7565 196.144 44.4312 196.929 44.4312C197.85 44.4312 198.599 44.7626 199.176 45.4255C199.753 46.0883 200.041 46.8678 200.041 47.764C200.041 48.6601 199.753 49.4334 199.176 50.0902C198.593 50.7469 197.85 51.0783 196.929 51.0783ZM194.99 48.169C195.045 48.6417 195.217 49.0406 195.524 49.3598C195.862 49.7158 196.285 49.8938 196.794 49.8938C197.341 49.8938 197.783 49.6973 198.102 49.2923C198.427 48.8933 198.587 48.3839 198.587 47.7701C198.587 47.1563 198.427 46.653 198.102 46.2418C197.776 45.8306 197.341 45.628 196.794 45.628C196.285 45.628 195.868 45.806 195.524 46.1559C195.217 46.4812 195.045 46.8801 194.99 47.3589C194.965 47.6166 194.965 47.8928 194.99 48.169Z" fill="#B2B2B2"/>
<path d="M204.166 51.0783C203.239 51.0783 202.447 50.7592 201.79 50.1209C201.134 49.4825 200.808 48.6969 200.808 47.764C200.808 46.831 201.134 46.0392 201.79 45.3948C202.441 44.7565 203.233 44.4312 204.166 44.4312C205.099 44.4312 205.897 44.7503 206.541 45.3948C207.192 46.0392 207.517 46.831 207.517 47.764C207.517 48.6969 207.192 49.4825 206.541 50.1209C205.89 50.7592 205.099 51.0783 204.166 51.0783ZM204.166 49.8876C204.687 49.8876 205.135 49.6912 205.516 49.2861C205.89 48.8872 206.081 48.3777 206.081 47.764C206.081 47.1502 205.89 46.6469 205.516 46.2357C205.142 45.8244 204.687 45.6219 204.166 45.6219C203.644 45.6219 203.208 45.8306 202.828 46.2357C202.453 46.6469 202.269 47.1502 202.269 47.764C202.269 48.3777 202.459 48.8872 202.828 49.2861C203.202 49.6912 203.65 49.8876 204.166 49.8876Z" fill="#B2B2B2"/>
<path d="M208.757 50.9253V44.585H210.113V45.5364C210.322 45.2233 210.58 44.984 210.887 44.8121C211.249 44.5912 211.678 44.4868 212.163 44.4868H212.262V45.7757H212.108C211.507 45.7757 211.028 45.9599 210.678 46.3159C210.347 46.6719 210.181 47.2243 210.181 47.9731V50.9192H208.751L208.757 50.9253Z" fill="#B2B2B2"/>
<path d="M215.564 42.5469V44.5846H216.945V45.7508H215.564V48.9792C215.564 49.2861 215.637 49.4887 215.785 49.6053C215.932 49.7219 216.141 49.7771 216.411 49.7771H216.939V50.931H216.067C215.386 50.931 214.882 50.7776 214.569 50.4769C214.256 50.1761 214.103 49.7219 214.103 49.1265V45.7569H213.017V44.5907H214.103V42.553H215.558L215.564 42.5469Z" fill="#B2B2B2"/>
<path d="M217.736 49.7464L218.639 48.8258C218.89 49.1695 219.173 49.4396 219.473 49.636C219.768 49.814 220.081 49.8999 220.419 49.8999C220.756 49.8999 221.014 49.8324 221.235 49.7035C221.456 49.5746 221.572 49.3966 221.572 49.1818C221.572 48.967 221.462 48.789 221.247 48.6662C221.032 48.5434 220.781 48.4268 220.48 48.3164C220.136 48.2059 219.78 48.0831 219.418 47.9481C218.927 47.7701 218.571 47.543 218.344 47.2668C218.117 46.9845 218 46.6714 218 46.3154C218 45.7937 218.246 45.3518 218.737 44.9836C219.228 44.6153 219.805 44.4312 220.468 44.4312C221.18 44.4312 221.757 44.603 222.205 44.9406C222.432 45.1186 222.61 45.3395 222.751 45.5973L221.867 46.4566C221.75 46.2541 221.609 46.0883 221.45 45.9656C221.173 45.7201 220.817 45.5973 220.394 45.5973C220.148 45.5973 219.934 45.6587 219.756 45.7815C219.578 45.9042 219.486 46.0515 219.486 46.2172C219.486 46.4014 219.59 46.5548 219.792 46.6837C219.995 46.8126 220.29 46.9354 220.689 47.052C220.83 47.0949 220.995 47.144 221.186 47.2054C221.8 47.408 222.266 47.6658 222.579 47.9911C222.898 48.3102 223.058 48.6908 223.058 49.1388C223.058 49.6605 222.806 50.1147 222.297 50.5014C221.787 50.8881 221.143 51.0783 220.357 51.0783C219.7 51.0783 219.117 50.9249 218.614 50.618C218.27 50.4155 217.982 50.127 217.736 49.7464Z" fill="#B2B2B2"/>
<path d="M230.994 46.8374H232.485C232.485 46.42 232.326 46.1131 232.007 45.9044C231.681 45.6957 231.221 45.5975 230.613 45.5975H230.576C230.006 45.5975 229.392 45.7326 228.754 46.0026L228.385 44.8794C229.054 44.5909 229.785 44.4436 230.583 44.4375H230.613C231.675 44.4375 232.491 44.64 233.062 45.0513C233.633 45.4625 233.922 46.1131 233.922 47.0092V50.9312H232.553V50.2377C232.283 50.5077 231.951 50.7164 231.558 50.8637C231.172 51.011 230.767 51.0847 230.362 51.0847C229.601 51.0847 228.987 50.8821 228.52 50.4832C228.048 50.0842 227.814 49.5932 227.814 49.0101C227.814 48.3595 228.109 47.8255 228.692 47.402C229.232 47.0276 229.999 46.8435 230.994 46.8435V46.8374ZM230.595 49.9431C230.969 49.9431 231.331 49.851 231.693 49.6669C232.062 49.4889 232.32 49.2802 232.479 49.0408V47.9667H231.202C230.478 47.9667 229.969 48.0588 229.686 48.2429C229.41 48.4516 229.269 48.7094 229.269 49.004C229.269 49.274 229.386 49.495 229.625 49.673C229.858 49.851 230.184 49.9369 230.601 49.9369L230.595 49.9431Z" fill="#B2B2B2"/>
<path d="M237.016 47.7394V50.9249H235.585V44.5846H236.966V45.4316C237.132 45.137 237.378 44.8976 237.703 44.7073C238.022 44.5232 238.366 44.4312 238.74 44.4312C239.489 44.4312 240.091 44.6889 240.545 45.1984C240.993 45.7078 241.22 46.3891 241.22 47.2422V50.9249H239.771V47.6105C239.771 46.9354 239.661 46.4382 239.44 46.1129C239.225 45.7876 238.888 45.628 238.433 45.628C238.2 45.628 237.967 45.7078 237.74 45.8613C237.525 46.0147 237.347 46.2295 237.23 46.4996C237.089 46.8126 237.016 47.2238 237.016 47.7394Z" fill="#B2B2B2"/>
<path d="M245.552 44.4317C246.307 44.4317 246.946 44.7386 247.486 45.3462V42.1055H248.928V50.9254H247.535V50.1275C247.007 50.7597 246.344 51.0727 245.552 51.0727C244.625 51.0727 243.871 50.7474 243.3 50.0845C242.729 49.4278 242.44 48.6545 242.44 47.7583C242.44 46.8622 242.729 46.0827 243.3 45.4199C243.871 44.757 244.625 44.4255 245.552 44.4255V44.4317ZM247.48 48.1696C247.504 47.8934 247.504 47.6233 247.48 47.3594C247.43 46.8745 247.252 46.4755 246.946 46.1564C246.608 45.8004 246.191 45.6224 245.693 45.6224C245.141 45.6224 244.693 45.8249 244.374 46.2362C244.055 46.6474 243.889 47.1568 243.889 47.7645C243.889 48.3721 244.049 48.8877 244.374 49.2866C244.693 49.6856 245.135 49.8881 245.693 49.8881C246.191 49.8881 246.608 49.7101 246.946 49.3542C247.252 49.035 247.424 48.636 247.48 48.1634V48.1696Z" fill="#B2B2B2"/>
<path d="M257.662 43.3453V50.9254H256.177V43.3453H253.482V42.1055H260.351V43.3453H257.662Z" fill="#B2B2B2"/>
<path d="M263.303 51.0783C262.376 51.0783 261.584 50.7592 260.934 50.1209C260.277 49.4887 259.952 48.6969 259.952 47.764C259.952 46.831 260.283 46.0392 260.934 45.3948C261.584 44.7565 262.382 44.4312 263.303 44.4312C264.224 44.4312 265.034 44.7503 265.684 45.3948C266.329 46.0331 266.654 46.8249 266.654 47.764C266.654 48.703 266.329 49.4887 265.684 50.1209C265.034 50.7592 264.236 51.0783 263.303 51.0783ZM263.303 49.8876C263.825 49.8876 264.273 49.6851 264.653 49.2861C265.028 48.881 265.218 48.3777 265.218 47.764C265.218 47.1502 265.028 46.6469 264.653 46.2357C264.273 45.8244 263.825 45.6219 263.303 45.6219C262.781 45.6219 262.345 45.8244 261.971 46.2357C261.597 46.6469 261.406 47.1563 261.406 47.764C261.406 48.3716 261.597 48.8872 261.971 49.2861C262.345 49.6851 262.793 49.8876 263.303 49.8876Z" fill="#B2B2B2"/>
<path d="M272.08 47.7766V44.585H273.523V50.9253H272.148V50.0905C271.97 50.4036 271.73 50.6368 271.436 50.7964C271.092 50.9805 270.736 51.0726 270.362 51.0726C269.619 51.0726 269.024 50.8209 268.569 50.3176C268.115 49.8082 267.888 49.1269 267.888 48.2676V44.585H269.324V47.9116C269.324 48.5745 269.435 49.0717 269.662 49.397C269.889 49.7223 270.227 49.8818 270.675 49.8818C270.902 49.8818 271.135 49.8082 271.362 49.6486C271.589 49.4952 271.761 49.2865 271.878 49.0226C272.019 48.7095 272.08 48.2922 272.08 47.7705V47.7766Z" fill="#B2B2B2"/>
<path d="M275.192 50.9253V44.585H276.548V45.5364C276.757 45.2233 277.015 44.984 277.322 44.8183C277.684 44.5973 278.113 44.4868 278.598 44.4868H278.703V45.7819H278.549C277.948 45.7819 277.475 45.966 277.119 46.3281C276.788 46.6841 276.622 47.2304 276.622 47.9853V50.9315H275.192V50.9253Z" fill="#B2B2B2"/>
<path d="M281.378 42.7991C281.378 43.0446 281.286 43.2594 281.102 43.4374C280.924 43.6154 280.709 43.7075 280.452 43.7075C280.194 43.7075 279.979 43.6154 279.801 43.4374C279.617 43.2533 279.525 43.0446 279.525 42.7991C279.525 42.5536 279.617 42.3265 279.801 42.1485C279.979 41.9705 280.194 41.8784 280.452 41.8784C280.709 41.8784 280.918 41.9705 281.102 42.1485C281.286 42.3326 281.378 42.5474 281.378 42.7991ZM279.746 50.9255V44.5852H281.188V50.9255H279.746Z" fill="#B2B2B2"/>
<path d="M282.361 49.7465L283.257 48.8197C283.508 49.1634 283.791 49.4335 284.092 49.6299C284.386 49.8079 284.705 49.8938 285.037 49.8938C285.368 49.8938 285.632 49.8263 285.853 49.6974C286.074 49.5685 286.185 49.3905 286.185 49.1696C286.185 48.9486 286.074 48.7767 285.859 48.654C285.644 48.5312 285.387 48.4146 285.092 48.3041C284.742 48.1937 284.392 48.0709 284.03 47.9359C283.539 47.7579 283.183 47.5308 282.956 47.2546C282.729 46.9784 282.612 46.6592 282.612 46.3094C282.612 45.7877 282.858 45.3396 283.343 44.9713C283.834 44.6031 284.411 44.4189 285.08 44.4189C285.786 44.4189 286.363 44.5847 286.811 44.9284C287.038 45.1064 287.216 45.3273 287.357 45.5851L286.467 46.4444C286.35 46.2419 286.209 46.0761 286.049 45.9534C285.767 45.7079 285.417 45.5851 285 45.5851C284.761 45.5851 284.546 45.6465 284.362 45.7692C284.184 45.892 284.085 46.0393 284.085 46.205C284.085 46.3892 284.19 46.5487 284.392 46.6715C284.589 46.7943 284.896 46.917 285.288 47.0398C285.436 47.0827 285.595 47.1318 285.786 47.1932C286.399 47.3958 286.866 47.6597 287.185 47.9788C287.504 48.298 287.664 48.6847 287.664 49.1327C287.664 49.6544 287.412 50.1086 286.903 50.4953C286.393 50.882 285.755 51.0723 284.969 51.0723C284.313 51.0723 283.723 50.9188 283.22 50.6181C282.882 50.4155 282.588 50.1271 282.342 49.7465H282.361Z" fill="#B2B2B2"/>
<path d="M295.551 44.4312C296.294 44.4312 296.871 44.6889 297.282 45.1984C297.699 45.7078 297.902 46.3891 297.902 47.2422V50.9249H296.484V47.6105C296.484 46.9354 296.392 46.4382 296.208 46.1129C296.03 45.7876 295.729 45.628 295.318 45.628C295.072 45.628 294.864 45.6955 294.679 45.8367C294.495 45.9717 294.354 46.1804 294.244 46.4505C294.127 46.7328 294.066 47.1195 294.066 47.6166V50.931H292.648V47.6166C292.648 46.9415 292.556 46.4443 292.372 46.119C292.188 45.7937 291.887 45.6342 291.482 45.6342C291.236 45.6342 291.027 45.7017 290.856 45.8428C290.684 45.9779 290.53 46.1866 290.42 46.4566C290.291 46.7696 290.236 47.187 290.236 47.6964V47.6842V50.9372H288.818V44.5969H290.162V45.4439C290.518 44.7749 291.064 44.4434 291.801 44.4434C292.599 44.4434 293.176 44.824 293.55 45.5973C293.771 45.2168 294.035 44.9344 294.342 44.738C294.649 44.5478 295.054 44.4496 295.551 44.4496V44.4312Z" fill="#B2B2B2"/>
<path d="M44.1734 27.3069C39.2018 23.9311 32.837 25.306 29.498 30.388C26.7054 34.6292 22.4949 35.1571 20.8622 35.1571C15.5469 35.1571 11.9072 31.4192 10.827 27.5462C10.8209 27.5094 10.8086 27.4726 10.8024 27.4358C10.7902 27.3928 10.7779 27.3498 10.7718 27.3069C10.3483 25.6926 10.2439 24.9193 10.2439 23.2068C10.2439 13.9511 19.739 3.65196 33.4139 3.65196C47.0888 3.65196 55.43 14.3132 57.4862 20.2362C57.4555 20.1318 57.4187 20.0275 57.3819 19.9231C53.4046 8.33507 42.418 0 29.4796 0C13.2023 0 0 13.1962 0 29.4858C0 44.0384 10.4956 56.498 25.0604 56.498C36.6731 56.498 44.4803 49.9859 48.0586 41.0125C50.0227 36.1023 48.6294 30.3328 44.1734 27.3069Z" fill="#B2B2B2"/>
<path d="M57.664 20.8074C55.9393 15.0256 47.8743 3.65234 33.4076 3.65234C19.7327 3.65234 10.2375 13.9515 10.2375 23.2072C10.2375 24.9258 10.3419 25.693 10.7654 27.3072C10.5874 26.6014 10.4953 25.8956 10.4953 25.202C10.4953 15.5657 20.1439 8.88785 30.0625 8.88785C43.4858 8.88785 54.3741 19.7762 54.3741 33.1995C54.3741 43.7257 48.3223 52.8342 39.5146 57.2104C50.8572 53.1104 58.959 42.2465 58.959 29.4861C58.959 26.4664 58.5539 23.8026 57.664 20.8135V20.8074Z" fill="#B2B2B2"/>
<path d="M96.7555 20.5495V23.3054H86.9167V27.1844H83.7374V23.3054H73.7021V20.5495H96.7555ZM75.5557 17.9901V8.34766H94.9019V17.9901H75.5557ZM78.6799 25.073V29.9403H95.2088V32.6961H75.5557V25.0792H78.6799V25.073ZM91.8085 11.0176H78.6246V15.4061H91.8085V11.0176Z" fill="#B2B2B2"/>
<path d="M115.721 30.6157H99.2781V27.8905H105.888V24.7664C105.588 24.6927 105.305 24.6007 105.041 24.484C104.293 24.1833 103.636 23.7843 103.071 23.2749C102.513 22.7471 102.071 22.1456 101.752 21.4581C101.432 20.7707 101.273 20.0464 101.273 19.2792C101.273 18.512 101.432 17.7877 101.752 17.1126C102.071 16.4374 102.507 15.8359 103.071 15.3142C103.636 14.7925 104.286 14.3813 105.023 14.0928C105.766 13.8043 106.557 13.657 107.398 13.657C108.239 13.657 109.031 13.8043 109.761 14.0928C110.498 14.3813 111.13 14.7925 111.676 15.3142C112.235 15.8421 112.683 16.4374 113.008 17.1126C113.34 17.7816 113.499 18.512 113.499 19.2792C113.499 20.0464 113.334 20.7707 113.008 21.4581C112.683 22.1456 112.235 22.7471 111.676 23.2749C111.13 23.7782 110.498 24.1833 109.761 24.484C109.461 24.6191 109.154 24.7173 108.835 24.7909V27.8844H115.721V30.6095V30.6157ZM105.661 10.5391V7.86914H109.037V10.5391H115.138V13.209H99.5666V10.5391H105.667H105.661ZM110.467 19.2608C110.467 18.4322 110.166 17.7264 109.565 17.1371C108.963 16.5479 108.233 16.2472 107.374 16.2472C106.514 16.2472 105.778 16.5418 105.176 17.1371C104.581 17.7264 104.28 18.4322 104.28 19.2608C104.28 20.0894 104.587 20.7952 105.176 21.3967C105.778 21.9982 106.508 22.299 107.374 22.299C108.239 22.299 108.963 21.9982 109.565 21.3967C110.166 20.7952 110.467 20.0833 110.467 19.2608ZM120.588 33.1199H117.495V8.041H120.588V18.9171H123.792V21.9246H120.588V33.1199Z" fill="#B2B2B2"/>
<path d="M125.173 13.209V10.5391H130.489V7.86914H133.779V10.5391H138.787V13.209H133.103L139.063 28.983L136.338 29.9098L132.152 18.5488L127.966 30.1062L125.155 29.204L131.145 13.2028H125.186L125.173 13.209ZM140.855 8.06555H143.752V32.9787H140.855V20.8566H137.596V18.021H140.855V8.06555ZM146.115 8.041H149.123V33.1199H146.115V8.041Z" fill="#B2B2B2"/>
<path d="M173.386 25.4415V33.175H170.262V28.1114H153.45V25.4415H157.44L157.471 22.5138H152.186V19.8132H175.239V22.5138H169.924V25.4415H173.386ZM169.9 13.1844C169.9 13.97 169.734 14.7127 169.396 15.4063C169.059 16.0998 168.617 16.7197 168.077 17.2599C167.512 17.7631 166.861 18.1744 166.106 18.4813C165.358 18.7882 164.56 18.9416 163.719 18.9416C162.878 18.9416 162.074 18.7882 161.313 18.4813C160.552 18.1682 159.895 17.7631 159.33 17.2599C158.79 16.7197 158.348 16.0998 158.011 15.4063C157.673 14.7127 157.501 13.97 157.501 13.1844C157.501 12.3988 157.673 11.6561 158.011 10.9625C158.348 10.269 158.79 9.64904 159.33 9.10892C159.889 8.58107 160.552 8.1637 161.313 7.85682C162.068 7.54993 162.872 7.39648 163.719 7.39648C164.566 7.39648 165.358 7.54993 166.106 7.85682C166.855 8.1637 167.512 8.58721 168.077 9.10892C168.617 9.64904 169.059 10.2751 169.396 10.9625C169.734 11.6561 169.9 12.3988 169.9 13.1844ZM160.312 25.4415H167.064V22.5138H160.343L160.312 25.4415ZM166.837 13.1844C166.837 12.3374 166.53 11.6193 165.922 11.03C165.315 10.4408 164.578 10.1462 163.719 10.1462C162.86 10.1462 162.117 10.4408 161.497 11.03C160.877 11.6193 160.564 12.3374 160.564 13.1844C160.564 14.0314 160.877 14.7495 161.497 15.351C162.117 15.9525 162.853 16.2533 163.719 16.2533C164.584 16.2533 165.315 15.9525 165.922 15.351C166.53 14.7495 166.837 14.0314 166.837 13.1844Z" fill="#B2B2B2"/>
<path d="M193.431 20.046V22.7711H178.449V20.046H183.506V14.5895H186.459V20.046H193.431ZM189.521 17.7382V11.3304H179.149V8.54382H192.56V17.7382H189.521ZM182.69 24.7659V29.8602H200.035V32.6161H179.566V24.772H182.684L182.69 24.7659ZM199.36 23.6427H196.242V8.04053H199.36V14.1721H202.564V17.149H199.36V23.6427Z" fill="#B2B2B2"/>
<path d="M209.764 18.8061V13.9144H212.716V18.8061H219.689V21.4208H204.707V18.8061H209.77H209.764ZM215.779 16.5597V11.2997H205.4V8.54382H218.811V16.5597H215.779ZM223.371 28.1417C223.371 28.9519 223.2 29.6945 222.868 30.3758C222.531 31.0632 222.083 31.677 221.518 32.2171C220.972 32.745 220.321 33.1624 219.578 33.4692C218.83 33.7823 218.019 33.9357 217.16 33.9357C216.301 33.9357 215.491 33.7823 214.742 33.4692C213.993 33.1624 213.33 32.745 212.772 32.2171C212.207 31.677 211.765 31.0632 211.44 30.3758C211.114 29.6945 210.943 28.9519 210.943 28.1417C210.943 27.3315 211.108 26.5827 211.44 25.8768C211.765 25.1771 212.213 24.5511 212.772 24.011C213.336 23.5015 213.993 23.0964 214.742 22.7895C215.491 22.4827 216.295 22.3292 217.16 22.3292C218.025 22.3292 218.83 22.4827 219.578 22.7895C220.321 23.1026 220.972 23.5077 221.518 24.011C222.076 24.5511 222.531 25.1771 222.868 25.8768C223.206 26.5827 223.371 27.3376 223.371 28.1417ZM220.303 28.111C220.303 27.2517 219.996 26.5152 219.376 25.9075C218.756 25.2999 218.013 24.993 217.154 24.993C216.295 24.993 215.546 25.2938 214.92 25.9075C214.294 26.5152 213.981 27.2517 213.981 28.111C213.981 28.9703 214.294 29.7007 214.92 30.2899C215.546 30.8791 216.295 31.1737 217.154 31.1737C218.013 31.1737 218.756 30.8791 219.376 30.2899C219.996 29.7007 220.303 28.9764 220.303 28.111ZM225.618 21.8443H222.5V8.04053H225.618V13.1594H228.822V16.081H225.618V21.8443Z" fill="#B2B2B2"/>
<path d="M230.527 23.8764H253.581V26.6322H243.601V33.0953H240.483V26.6322H230.533V23.8764H230.527ZM235.45 11.6193H248.64V8.44608H251.727V20.5068H232.387V8.43994H235.45V11.6132V11.6193ZM248.634 14.3199H235.444V17.7755H248.634V14.3199Z" fill="#B2B2B2"/>
</svg>
