<svg width="90" height="63" viewBox="0 0 90 63" fill="none" xmlns="http://www.w3.org/2000/svg">
<g opacity="0.4">
<path d="M44.9711 15.7466C33.342 15.7466 23.9131 26.1676 23.9131 39.0184C23.9131 51.8693 33.342 62.2903 44.9711 62.2903C56.6003 62.2903 66.0292 51.8693 66.0292 39.0184C66.0292 26.1676 56.6003 15.7466 44.9711 15.7466ZM44.9711 50.1144C39.4232 50.1144 34.9281 45.1469 34.9281 39.0184C34.9281 32.89 39.4232 27.9225 44.9711 27.9225C50.5191 27.9225 55.0142 32.89 55.0142 39.0184C55.0142 45.1469 50.5191 50.1144 44.9711 50.1144Z" fill="#B2B2B2"/>
</g>
<path d="M9.65827 28.5703H0.0876465V30.0349H9.65827V28.5703Z" fill="#B2B2B2"/>
<path d="M9.65827 48.1436H0.0876465V49.6082H9.65827V48.1436Z" fill="#B2B2B2"/>
<path d="M9.65827 45.3491H0.0876465V46.8137H9.65827V45.3491Z" fill="#B2B2B2"/>
<path d="M9.65827 42.5547H0.0876465V44.0193H9.65827V42.5547Z" fill="#B2B2B2"/>
<path d="M9.65827 39.7539H0.0876465V41.2185H9.65827V39.7539Z" fill="#B2B2B2"/>
<path d="M9.65827 36.9595H0.0876465V38.4241H9.65827V36.9595Z" fill="#B2B2B2"/>
<path d="M9.65827 34.1655H0.0876465V35.6301H9.65827V34.1655Z" fill="#B2B2B2"/>
<path d="M9.65827 31.3711H0.0876465V32.8357H9.65827V31.3711Z" fill="#B2B2B2"/>
<path d="M89.0243 56.1345H0.674938C0.303722 56.1345 0 55.8308 0 55.4596C0 55.0884 0.303722 54.7847 0.674938 54.7847H89.0243C89.3955 54.7847 89.6992 55.0884 89.6992 55.4596C89.6992 55.8308 89.3955 56.1345 89.0243 56.1345Z" fill="#B2B2B2"/>
<g opacity="0.4">
<path d="M44.9712 6.18918V0C30.5275 0 18.1154 9.58412 12.6484 23.3124H18.8781C23.9199 13.1073 33.7133 6.18918 44.9712 6.18918Z" fill="#B2B2B2"/>
</g>
<path d="M89.3347 48.69H87.0939V29.3665H89.3414C89.4831 29.3665 89.5979 29.3058 89.5979 29.083C89.5979 28.8603 89.4831 28.7658 89.3414 28.7658H80.2837C80.1757 28.7658 80.0813 28.8738 80.0475 29.029L75.3297 40.719L69.5725 28.9211C69.532 28.8401 69.4442 28.7051 69.2215 28.7051H57.1739C56.8769 28.7051 56.9174 29.0156 56.9174 29.1573C56.9174 29.299 57.0321 29.4138 57.1739 29.4138H61.6487V48.7305H57.2076C57.0659 48.7305 56.9444 48.8992 56.9444 49.1017C56.9444 49.3042 57.0591 49.4729 57.2076 49.4729H66.6837C66.8255 49.4729 66.947 49.3042 66.947 49.1017C66.947 48.8992 66.8322 48.7305 66.6837 48.7305H62.2966L62.2224 30.3587L71.847 49.7496C71.901 49.8576 72.0158 49.9319 72.1305 49.9319C72.1305 49.9319 72.1372 49.9319 72.144 49.9319C72.2722 49.9319 72.3802 49.8441 72.4275 49.7294L75.7279 41.8056L80.2837 30.2169V48.69H78.3804C78.2387 48.69 78.1172 48.8722 78.1172 49.1017C78.1172 49.3312 78.2319 49.5134 78.3804 49.5134H89.3347C89.4764 49.5134 89.5979 49.3312 89.5979 49.1017C89.5979 48.8722 89.4831 48.69 89.3347 48.69Z" fill="#B2B2B2"/>
<path d="M32.7614 33.8414L32.7411 27.1258C32.7411 27.038 32.6736 26.9638 32.5792 26.957H32.5117C32.4172 26.957 32.3429 27.0178 32.3362 27.1055C32.2282 28.2124 31.3305 29.0493 30.2641 29.0493C29.8997 29.0493 29.5082 28.8671 28.9547 28.6174C28.2258 28.2867 27.4969 28.0032 26.0728 27.6185C25.3371 27.4295 24.4259 27.3012 23.7442 27.2945H23.7037C23.7037 27.2945 23.6565 27.2945 23.6362 27.2945C18.0207 27.2945 13.4514 32.559 13.4514 39.0317C13.4514 45.5043 18.0207 50.7688 23.6362 50.7688C25.5935 50.7688 27.4901 50.1277 29.1302 48.9128C30.7433 47.7181 31.479 46.4627 32.2687 44.5594C32.3564 44.3772 32.6399 43.7427 32.6332 43.3985C32.6197 43.0678 32.5049 42.8721 32.4577 42.8113C32.4239 42.7506 32.3564 42.7101 32.2822 42.7101C32.2079 42.7101 32.1134 42.7776 32.0932 42.8451C30.6826 47.0297 27.5306 49.7294 24.0614 49.7294C23.9265 49.7294 23.7915 49.7294 23.6565 49.7159C22.0636 49.6215 20.9297 48.6225 20.842 47.2254C20.599 43.52 20.8082 39.4231 20.8352 38.9507V30.5612C20.8352 29.1978 22.2999 28.4621 23.6632 28.3474V28.3272C23.6632 28.3272 23.7037 28.3407 23.724 28.3407C23.7375 28.3407 23.7577 28.3407 23.7712 28.3407C23.9265 28.3339 24.0817 28.3272 24.2369 28.3272C27.7601 28.3272 30.9998 31.1281 32.3024 35.3195C32.3227 35.387 32.3902 35.4343 32.4644 35.4343H32.6062C32.7006 35.4343 32.7749 35.36 32.7749 35.2655V33.8751C32.7749 33.8751 32.7749 33.8549 32.7749 33.8414H32.7614Z" fill="#B2B2B2"/>
</svg>
