<svg width="141" height="141" viewBox="0 0 141 141" fill="none" xmlns="http://www.w3.org/2000/svg">
<path d="M29.068 81.3036L30.8283 83.5628L32.5979 82.4285C32.9146 82.5308 33.2406 82.6331 33.5666 82.7446L35.1406 85.7104L37.292 83.9626C37.5621 84.0555 37.8322 84.1392 38.1023 84.2322L39.5553 87.263L41.9209 85.5059C43.0106 85.8778 44.119 86.2496 45.2459 86.6401C45.2645 86.6401 45.2739 86.6494 45.2925 86.6587C47.4346 90.0336 52.3802 92.0138 53.9729 94.8866C55.9194 98.4102 51.3371 103.979 51.3371 103.979C57.838 104.416 63.7802 97.8617 66.3973 94.4869C74.6679 97.09 83.4414 98.4753 95.4467 96.5322C95.5305 96.5229 95.6051 96.5043 95.6889 96.4857C91.1065 100.855 85.1085 103.096 85.1085 103.096C95.8379 103.589 102.926 98.2615 106.865 93.9569C124.887 88.9086 141 80.1322 141 80.1322C138.681 79.8254 133.409 77.8172 133.409 77.8172C136.818 75.651 139.92 72.2482 139.92 72.2482C139.92 72.2482 122.727 63.4067 105.487 58.972C103.578 53.0683 97.4026 37.003 85.7139 34C85.7139 34 90.1286 45.4075 85.1178 50.0468C80.461 54.3606 69.4243 54.4908 64.8326 60.7198C64.5998 60.7756 64.3669 60.8407 64.1341 60.8965C59.3003 57.7169 50.5361 53.8772 39.6763 57.6146C39.6763 57.6146 49.2042 58.3026 55.2488 63.2858C52.9297 63.9459 50.6385 64.6246 48.3846 65.3033L46.5498 63.9459L45.4695 66.1958C44.8641 66.3818 44.268 66.5677 43.6812 66.7536L42.1351 65.4985L41.0175 67.5997C40.291 67.8321 39.5646 68.0645 38.8567 68.297L37.8322 67.6369L36.7891 68.9756C36.0812 69.2081 35.3734 69.4405 34.6842 69.6729L33.9018 68.9664L33.2033 70.1657C28.8911 71.6253 25.1004 72.9734 22.0735 74.0705C21.0955 70.8351 15.6563 54.3978 4.60096 49.0985C4.60096 49.0985 12.0333 60.8221 10.1426 74.1169C8.25193 87.4025 0 98.0384 0 98.0384C0 98.0384 17.072 93.6222 22.1573 79.2489V79.1188C23.2656 79.4535 24.4764 79.8254 25.771 80.2344L26.9073 82.1961L28.2298 81.0061C28.5092 81.0898 28.7886 81.1827 29.068 81.2757V81.3036Z" fill="#12203A"/>
<path d="M3.09627 36.6475C3.47132 36.8467 3.87522 36.9617 4.30798 36.9923C4.75035 37.023 5.17349 36.9617 5.57739 36.8084C5.98129 36.6475 6.31788 36.4252 6.5583 36.1187C6.80833 35.8198 6.95258 35.4902 6.99105 35.1453C7.02952 34.7928 6.94297 34.4556 6.75063 34.1261C6.54868 33.8042 6.2698 33.5436 5.90436 33.3443C5.53892 33.1451 5.13502 33.0378 4.68303 33.0071C4.23104 32.9765 3.80791 33.0455 3.404 33.1987C3.0001 33.3597 2.67313 33.5819 2.43271 33.8731C2.19229 34.1644 2.04804 34.4863 2.00957 34.8388C1.97111 35.1913 2.04804 35.5285 2.24999 35.8581C2.45194 36.1876 2.73083 36.4482 3.10588 36.6475H3.09627Z" fill="#12203A"/>
<path d="M15.2069 34.2602C15.9876 35.097 16.8749 35.626 17.8775 35.8665C18.8801 36.0974 19.9093 36.03 20.9829 35.6549C22.0476 35.2798 22.926 34.6834 23.6092 33.8562C24.2923 33.029 24.7271 32.0382 24.9134 30.8647C25.0997 29.6913 24.9844 28.4216 24.5763 27.0461C24.1681 25.6706 23.5737 24.5644 22.7929 23.7276C22.0121 22.8908 21.1248 22.3617 20.1222 22.1309C19.1196 21.9 18.0904 21.977 17.0257 22.3425C15.961 22.7176 15.0826 23.314 14.3906 24.1316C13.6985 24.9492 13.2726 25.9495 13.0863 27.123C12.9 28.2965 13.0153 29.5662 13.4323 30.9513C13.8405 32.3172 14.4349 33.4233 15.2157 34.2602H15.2069ZM15.615 27.6136C15.6771 26.8826 15.89 26.2766 16.2538 25.786C16.6176 25.2955 17.1056 24.9396 17.7178 24.728C18.3389 24.5067 18.9333 24.4875 19.4923 24.651C20.0513 24.8241 20.557 25.18 20.9918 25.7283C21.4354 26.2766 21.7903 27.0076 22.0565 27.9214C22.3226 28.8256 22.4291 29.6432 22.367 30.3646C22.3049 31.086 22.092 31.692 21.7282 32.1921C21.3644 32.6827 20.8764 33.0482 20.2553 33.2694C19.6343 33.4811 19.0487 33.5003 18.4897 33.3272C17.9307 33.154 17.4339 32.7981 16.9814 32.2498C16.5377 31.7016 16.1828 30.9802 15.9078 30.076C15.6327 29.1622 15.5351 28.3446 15.5972 27.6136H15.615Z" fill="#12203A"/>
<path d="M27.861 29.9939C28.643 30.8423 29.5636 31.4228 30.6525 31.7353C31.7315 32.0479 32.8896 32.0836 34.1171 31.8425C35.2258 31.6192 36.1662 31.2263 36.9284 30.6548C37.6906 30.0832 38.235 29.4224 38.5815 28.6544C38.9279 27.8864 39.0566 27.1094 38.9774 26.3146L36.087 26.8594C36.0969 27.3148 36.0078 27.7256 35.8098 28.1007C35.6118 28.4668 35.3248 28.7794 34.9486 29.0294C34.5724 29.2795 34.1171 29.4581 33.6023 29.5653C32.8995 29.6992 32.2363 29.6635 31.6424 29.4492C31.0484 29.2348 30.5139 28.8598 30.0783 28.315C29.6329 27.7703 29.3062 27.0648 29.0984 26.1896C28.8905 25.3412 28.8608 24.5821 29.0093 23.9124C29.1577 23.2426 29.4547 22.6978 29.9101 22.2692C30.3654 21.8405 30.9395 21.5637 31.6622 21.4208C32.1868 21.3136 32.6916 21.3136 33.1569 21.4029C33.6221 21.4922 34.028 21.6798 34.3745 21.9566C34.7209 22.2335 34.9882 22.5907 35.1763 23.0372L38.0568 22.4657C37.7005 21.5637 37.1659 20.8225 36.473 20.2509C35.7801 19.6794 34.9585 19.3043 34.028 19.1257C33.0975 18.9471 32.0977 18.956 31.0484 19.1704C29.8309 19.4115 28.8113 19.8759 27.9699 20.5635C27.1285 21.2511 26.5543 22.1352 26.2376 23.1979C25.9208 24.2606 25.9208 25.4573 26.2376 26.7611C26.5543 28.065 27.1087 29.1455 27.8808 29.9939H27.861Z" fill="#12203A"/>
<path d="M50 29.6799L49.6722 27.3429L43.3961 28.2523L42.9238 24.9179L48.7082 24.0769L48.3804 21.7399L42.596 22.5808L42.1236 19.2562L48.3804 18.3468L48.0526 16L39 17.3103L40.9281 31L50 29.6799Z" fill="#12203A"/>
<path d="M54.5059 25.6187L59.0503 25.2578L60.2041 28.2687L63 28.0502L57.7278 15L54.3905 15.2659L51 29L53.7781 28.7815L54.5059 25.6187ZM56.3254 18.1533L58.2337 23.1398L55.0207 23.3962L56.2189 18.1628H56.3254V18.1533Z" fill="#12203A"/>
<path d="M66.8101 27.9726L66.7454 19.7746H66.8471L72.6521 27.927L75 27.9087L74.8983 15L72.1992 15.0183L72.2639 23.2163H72.1437L66.3849 15.073L64 15.0913L64.1017 28L66.8101 27.9726Z" fill="#12203A"/>
<path d="M84.2043 24.5286L86.6438 24.7336C87.6699 24.8215 88.5799 24.7043 89.3544 24.3724C90.1288 24.0404 90.7484 23.5523 91.1937 22.8884C91.639 22.2245 91.9004 21.4338 91.9778 20.516C92.0553 19.6081 91.9294 18.7782 91.6099 18.046C91.2808 17.3138 90.7677 16.7183 90.061 16.2594C89.3544 15.8103 88.4928 15.537 87.4763 15.4491L82.1423 15L81 28.7559L83.8267 29L84.2043 24.5188V24.5286ZM86.7696 17.7727C87.3118 17.8215 87.7667 17.9484 88.1346 18.1729C88.4928 18.3877 88.7542 18.6806 88.9091 19.0418C89.0639 19.4031 89.122 19.8131 89.0833 20.2817C89.0446 20.7503 88.9187 21.1506 88.7058 21.4826C88.4928 21.8145 88.1927 22.0586 87.8055 22.2245C87.4182 22.3905 86.9439 22.4393 86.4018 22.4003L84.4076 22.2343L84.7948 17.6067L86.7793 17.7727H86.7696Z" fill="#12203A"/>
<path d="M93.0075 29.6138L94.4918 26.7954L99.4104 27.4748L99.9731 30.5777L103 31L100.293 17.5049L96.6746 17L90 29.1915L93.0075 29.6046V29.6138ZM97.9746 20.1397L98.091 20.158L99.0224 25.2898L95.5396 24.8033L97.9843 20.1397H97.9746Z" fill="#12203A"/>
<path d="M107.446 26.8078L109.353 27.2606L110.674 32.3346L113.455 33L111.951 27.427C111.995 27.427 112.038 27.4177 112.091 27.4085C112.817 27.2421 113.42 26.8909 113.893 26.3641C114.365 25.8373 114.689 25.1534 114.872 24.3124C115.056 23.4713 115.039 22.695 114.838 21.9926C114.636 21.2902 114.243 20.6802 113.665 20.1904C113.088 19.7006 112.345 19.3401 111.444 19.1275L106.729 18L104 30.7449L106.502 31.3457L107.473 26.817L107.446 26.8078ZM110.499 21.1793C110.989 21.2994 111.382 21.4658 111.68 21.6969C111.977 21.9279 112.178 22.2052 112.275 22.5379C112.371 22.8799 112.371 23.2588 112.275 23.6839C112.187 24.1091 112.03 24.451 111.802 24.6821C111.584 24.9224 111.295 25.0795 110.936 25.1442C110.578 25.2089 110.158 25.1811 109.668 25.0702L107.901 24.6451L108.732 20.7542L110.49 21.1793H110.499Z" fill="#12203A"/>
<path d="M116.708 34.4757L117.888 30.8628L119.774 29.6616L121.679 36.0053L124.928 37L122.279 28.4979L129 24.3314L125.741 23.3273L119.174 27.4845L119 27.4375L120.828 21.8258L118.13 21L114 33.6499L116.708 34.4757Z" fill="#12203A"/>
<path d="M134.162 36.774C134.491 36.9659 134.829 37.0331 135.189 36.9851C135.55 36.9371 135.872 36.7836 136.156 36.5437C136.447 36.2943 136.662 35.9584 136.815 35.5459C136.969 35.1333 137.022 34.7111 136.992 34.2697C136.961 33.8284 136.838 33.4254 136.631 33.0608C136.424 32.6961 136.163 32.4179 135.834 32.226C135.504 32.0341 135.166 31.9669 134.814 32.0149C134.461 32.0629 134.146 32.2068 133.855 32.4563C133.563 32.7057 133.341 33.0416 133.188 33.4446C133.034 33.8571 132.973 34.2889 133.011 34.7303C133.049 35.1716 133.165 35.5746 133.364 35.9392C133.563 36.3039 133.824 36.5821 134.154 36.7644L134.162 36.774Z" fill="#12203A"/>
<path d="M6.83903 102.181C6.5086 102.027 6.17048 101.973 5.81699 102.012C5.46351 102.05 5.14844 102.166 4.85643 102.366C4.56442 102.566 4.34157 102.835 4.18788 103.158C4.03419 103.489 3.97272 103.835 4.01114 104.188C4.04188 104.542 4.16483 104.865 4.36463 105.157C4.56442 105.45 4.8257 105.673 5.15613 105.819C5.48656 105.973 5.82468 106.027 6.18585 105.988C6.54702 105.95 6.86977 105.827 7.1541 105.634C7.44611 105.434 7.66127 105.165 7.81496 104.834C7.96865 104.504 8.02245 104.165 7.99171 103.812C7.96097 103.458 7.83802 103.135 7.63054 102.843C7.42305 102.55 7.1541 102.327 6.83135 102.173L6.83903 102.181Z" fill="#12203A"/>
<path d="M25.4415 104.934C24.6813 104.183 23.7286 103.638 22.5643 103.299C21.3999 102.959 20.2837 102.914 19.1963 103.138C18.1185 103.361 17.1563 103.871 16.3191 104.657C15.4819 105.444 14.8468 106.48 14.4234 107.758C14 109.037 13.8941 110.216 14.1059 111.307C14.3176 112.397 14.7987 113.318 15.5493 114.068C16.2998 114.819 17.2621 115.373 18.4265 115.704C19.5908 116.035 20.7071 116.088 21.7944 115.865C22.8722 115.641 23.8345 115.132 24.6716 114.345C25.5088 113.559 26.1343 112.531 26.5673 111.244C27.0004 109.957 27.1062 108.777 26.8945 107.687C26.6828 106.597 26.2017 105.676 25.4415 104.925V104.934ZM23.8345 110.467C23.5554 111.316 23.1801 111.995 22.7086 112.504C22.2371 113.023 21.6982 113.362 21.092 113.523C20.4857 113.693 19.841 113.675 19.1674 113.487C18.4938 113.291 17.9646 112.96 17.57 112.504C17.1755 112.049 16.9349 111.485 16.858 110.815C16.781 110.145 16.8772 109.385 17.1563 108.536C17.4353 107.687 17.8202 107.008 18.2918 106.489C18.7729 105.971 19.3118 105.631 19.9084 105.47C20.5146 105.31 21.1497 105.319 21.8137 105.515C22.4873 105.712 23.0262 106.034 23.4303 106.489C23.8345 106.945 24.0654 107.508 24.1424 108.179C24.2194 108.849 24.1135 109.618 23.8248 110.467H23.8345Z" fill="#12203A"/>
<path d="M37.9934 107.303C37.2793 106.754 36.437 106.369 35.4665 106.157C34.3404 105.907 33.2783 105.955 32.2804 106.302C31.2824 106.649 30.431 107.274 29.7077 108.199C28.9936 109.123 28.49 110.288 28.2062 111.703C27.9224 113.119 27.9315 114.39 28.2337 115.535C28.5358 116.681 29.076 117.625 29.8542 118.356C30.6324 119.088 31.5937 119.589 32.729 119.839C33.7636 120.07 34.7157 120.051 35.5947 119.791C36.4736 119.531 37.2152 119.098 37.8286 118.481C38.442 117.865 38.8815 117.153 39.147 116.334L36.4827 115.718C36.2996 116.171 36.0524 116.537 35.732 116.825C35.4116 117.114 35.0362 117.297 34.615 117.394C34.1939 117.49 33.7361 117.49 33.2509 117.394C32.6008 117.239 32.0607 116.941 31.6395 116.498C31.2184 116.055 30.9345 115.468 30.7972 114.755C30.6599 114.043 30.6782 113.215 30.8613 112.281C31.0444 111.357 31.3374 110.596 31.7402 109.999C32.1431 109.402 32.6283 108.979 33.1868 108.738C33.7453 108.497 34.3587 108.449 35.027 108.603C35.5214 108.709 35.9426 108.901 36.2905 109.181C36.6384 109.46 36.9039 109.807 37.087 110.211C37.261 110.625 37.3342 111.087 37.3067 111.588L39.9801 112.175C40.0534 111.145 39.9252 110.211 39.5773 109.364C39.2294 108.516 38.6984 107.833 37.9842 107.284L37.9934 107.303Z" fill="#12203A"/>
<path d="M41 120.846L49.3525 122L49.636 119.801L43.8609 118.995L44.2595 115.87L49.5917 116.603L49.8751 114.414L44.5518 113.681L44.9504 110.556L50.7077 111.353L51 109.154L42.6652 108L41 120.846Z" fill="#12203A"/>
<path d="M56.5728 110L51 122.212L54.0074 122.398L55.2372 119.573L60.1567 119.874L60.9734 122.814L64 123L60.2047 110.221L56.592 110H56.5728ZM56.0924 117.589L58.1197 112.931H58.235L59.5802 117.802L56.102 117.589H56.0924Z" fill="#12203A"/>
<path d="M74.1992 110.027L74.2639 118.216H74.1437L68.3849 110.073L66 110.091L66.1017 123L68.8101 122.982L68.7454 114.775H68.8471L74.6521 122.927L77 122.909L76.8983 110L74.1992 110.027Z" fill="#12203A"/>
<path d="M92.2122 110.82C91.7951 110.168 91.2239 109.68 90.4985 109.364C89.7732 109.048 88.939 108.943 87.9869 109.029L83 109.517L84.1878 123L86.8354 122.741L86.4455 118.346L88.7304 118.126C89.6916 118.03 90.5076 117.762 91.1786 117.312C91.8405 116.862 92.3301 116.278 92.6384 115.56C92.9467 114.841 93.0555 114.037 92.9739 113.137C92.8923 112.246 92.6474 111.471 92.2304 110.82H92.2122ZM90.0814 114.631C89.9364 114.985 89.7006 115.282 89.3742 115.502C89.0478 115.722 88.6216 115.866 88.1048 115.914L86.237 116.096L85.838 111.557L87.6968 111.375C88.2045 111.327 88.6488 111.375 89.0206 111.519C89.3923 111.672 89.6734 111.902 89.8729 112.227C90.0724 112.553 90.1902 112.936 90.2356 113.395C90.2719 113.855 90.2265 114.267 90.0814 114.621V114.631Z" fill="#12203A"/>
<path d="M96.3749 108.54L94 122L96.7782 121.561L97.2711 118.461L101.815 117.739L103.204 120.537L106 120.089L99.7177 108L96.3839 108.53L96.3749 108.54ZM97.6116 116.294L98.4272 111.173L98.5347 111.155L100.829 115.782L97.6116 116.294Z" fill="#12203A"/>
<path d="M114.243 112.807C114.863 112.285 115.28 111.656 115.493 110.918C115.705 110.18 115.715 109.363 115.52 108.468C115.326 107.572 114.965 106.844 114.465 106.263C113.957 105.683 113.327 105.309 112.559 105.122C111.791 104.935 110.931 104.964 109.978 105.201L105 106.46L108.016 120L110.653 119.341L109.58 114.539L111.588 114.027L115.067 118.229L118 117.491L114.114 112.905C114.114 112.905 114.197 112.846 114.234 112.817L114.243 112.807ZM108.155 108.103L110.006 107.641C110.524 107.513 110.968 107.484 111.357 107.552C111.736 107.621 112.051 107.789 112.291 108.064C112.532 108.34 112.707 108.704 112.8 109.156C112.902 109.609 112.902 110.012 112.8 110.347C112.698 110.682 112.485 110.977 112.18 111.213C111.875 111.449 111.458 111.636 110.94 111.764L109.08 112.236L108.155 108.103Z" fill="#12203A"/>
<path d="M125.997 101L122.996 102.028L120.396 109.103L120.235 109.159L118.484 103.589L116 104.449L119.949 117L122.442 116.14L121.307 112.551L122.049 110.514L127.016 114.561L130 113.533L123.281 108.159L125.997 101Z" fill="#12203A"/>
<path d="M137.897 101.43C137.532 101.181 137.129 101.047 136.678 101.009C136.227 100.971 135.804 101.057 135.401 101.248C134.998 101.45 134.672 101.727 134.432 102.091C134.192 102.455 134.048 102.858 134.01 103.298C133.971 103.739 134.048 104.161 134.25 104.573C134.451 104.985 134.729 105.31 135.104 105.559C135.468 105.808 135.881 105.952 136.313 105.99C136.755 106.029 137.177 105.952 137.58 105.761C137.983 105.559 138.319 105.282 138.559 104.898C138.809 104.525 138.953 104.113 138.991 103.682C139.029 103.241 138.943 102.819 138.751 102.408C138.55 102.005 138.271 101.68 137.906 101.43H137.897Z" fill="#12203A"/>
</svg>
