<svg xmlns="http://www.w3.org/2000/svg" width="14.882" height="14.5" viewBox="0 0 14.882 14.5">
  <path id="person_FILL0_wght300_GRAD0_opsz24" d="M187.442-765.361a3.344,3.344,0,0,1-2.452-1.02,3.344,3.344,0,0,1-1.02-2.452,3.344,3.344,0,0,1,1.02-2.452,3.344,3.344,0,0,1,2.452-1.02,3.344,3.344,0,0,1,2.452,1.02,3.344,3.344,0,0,1,1.02,2.452,3.344,3.344,0,0,1-1.02,2.452A3.344,3.344,0,0,1,187.442-765.361ZM180-757.806v-2.206a2.463,2.463,0,0,1,.4-1.35,2.643,2.643,0,0,1,1.058-.955,14.391,14.391,0,0,1,2.968-1.082,12.846,12.846,0,0,1,3.019-.361,12.846,12.846,0,0,1,3.019.361,14.391,14.391,0,0,1,2.968,1.082,2.643,2.643,0,0,1,1.058.955,2.463,2.463,0,0,1,.4,1.35v2.206Zm1.488-1.488h11.905v-.717a.972.972,0,0,0-.175-.558,1.322,1.322,0,0,0-.474-.419,12.748,12.748,0,0,0-2.615-.957,11.3,11.3,0,0,0-2.689-.325,11.3,11.3,0,0,0-2.689.325,12.748,12.748,0,0,0-2.615.957,1.322,1.322,0,0,0-.474.419.972.972,0,0,0-.175.558Zm5.953-7.555a1.911,1.911,0,0,0,1.4-.583,1.911,1.911,0,0,0,.583-1.4,1.911,1.911,0,0,0-.583-1.4,1.911,1.911,0,0,0-1.4-.583,1.911,1.911,0,0,0-1.4.583,1.911,1.911,0,0,0-.583,1.4,1.911,1.911,0,0,0,.583,1.4A1.911,1.911,0,0,0,187.442-766.849ZM187.442-768.834ZM187.442-759.294Z" transform="translate(-180.001 772.306)"/>
</svg>
