<svg width="150" height="150" viewBox="0 0 150 150" fill="none" xmlns="http://www.w3.org/2000/svg">
<path d="M90.9497 53.1493C107.031 67.5471 119.712 83.0807 127.227 96.5251C130.987 103.251 133.424 109.404 134.373 114.595C135.323 119.792 134.759 123.876 132.716 126.675C130.673 129.473 127.186 130.94 122.398 131.001C117.616 131.061 111.674 129.71 104.947 127.048C91.5029 121.727 75.1315 111.249 59.0503 96.8509C42.9692 82.453 30.2878 66.9195 22.773 53.4751C19.0132 46.7487 16.5755 40.5962 15.6268 35.4053C14.6769 30.2083 15.2413 26.1245 17.2843 23.3257C19.3273 20.5268 22.8145 19.0599 27.6019 18.9996C32.3836 18.9394 38.3263 20.2901 45.0527 22.9522C58.4971 28.2731 74.8685 38.7514 90.9497 53.1493Z" stroke="#801C21" stroke-width="2"/>
</svg>
