<svg xmlns="http://www.w3.org/2000/svg" width="21" height="21" viewBox="0 0 21 21">
  <g id="Bed" transform="translate(-2 -2)">
    <path id="패스_221" data-name="패스 221" d="M22.25,11.75H21.5V4.205A2.205,2.205,0,0,0,19.3,2H5.7A2.205,2.205,0,0,0,3.5,4.205V11.75H2.75A.75.75,0,0,0,2,12.5v6.75a.75.75,0,0,0,.75.75H3.5v2.25a.75.75,0,0,0,.75.75h3A.75.75,0,0,0,8,22.25V20h9v2.25a.75.75,0,0,0,.75.75h3a.75.75,0,0,0,.75-.75V20h.75a.75.75,0,0,0,.75-.75V12.5A.75.75,0,0,0,22.25,11.75ZM5,4.205A.7.7,0,0,1,5.7,3.5H19.3a.7.7,0,0,1,.7.705V11.75H18.875V8.66a.75.75,0,0,0-.75-.75H6.875a.75.75,0,0,0-.75.75v3.09H5ZM7.625,11.75V9.41H11.75v2.34ZM13.25,9.41h4.125v2.34H13.25Zm-9,3.84H21.5v1.222H3.5V13.25ZM6.5,21.5H5V20H6.5Zm13.5,0H18.5V20H20Zm-16.5-3V15.972h18V18.5Z"/>
  </g>
</svg>
