<svg width="67" height="30" viewBox="0 0 67 30" fill="none" xmlns="http://www.w3.org/2000/svg">
<g clip-path="url(#clip0_222_188)">
<path fill-rule="evenodd" clip-rule="evenodd" d="M43.7216 6.65685L37.6722 0.292893C37.3009 -0.097631 36.6991 -0.097631 36.3278 0.292893L30.2784 6.65685C29.9072 7.04738 29.9072 7.68054 30.2784 8.07107C30.6496 8.46159 31.2515 8.46159 31.6227 8.07107L36.0494 3.41421V18C36.0494 18.5523 36.475 19 37 19C37.525 19 37.9506 18.5523 37.9506 18V3.41421L42.3773 8.07107C42.7485 8.46159 43.3504 8.46159 43.7216 8.07107C44.0928 7.68054 44.0928 7.04738 43.7216 6.65685Z" fill="white"/>
<g clip-path="url(#clip1_222_188)">
<path fill-rule="evenodd" clip-rule="evenodd" d="M59.4353 17.5566C57.8302 18.7298 55.8515 19.4222 53.7111 19.4222C48.3478 19.4222 44 15.0744 44 9.71111C44 4.34781 48.3478 0 53.7111 0C59.0744 0 63.4222 4.34781 63.4222 9.71111C63.4222 11.8515 62.7298 13.8302 61.5566 15.4353L66.5273 20.406C67.1131 20.9918 67.1131 21.9415 66.5273 22.5273C65.9415 23.1131 64.9918 23.1131 64.406 22.5273L59.4353 17.5566ZM60.4222 9.71111C60.4222 13.4176 57.4176 16.4222 53.7111 16.4222C50.0047 16.4222 47 13.4176 47 9.71111C47 6.00467 50.0047 3 53.7111 3C57.4176 3 60.4222 6.00467 60.4222 9.71111Z" fill="#264037"/>
</g>
<g clip-path="url(#clip2_222_188)">
<path fill-rule="evenodd" clip-rule="evenodd" d="M14.5 2C7.59644 2 2 7.59644 2 14.5C2 21.4036 7.59644 27 14.5 27C17.0711 27 19.458 26.2248 21.4437 24.8957C21.7347 24.7009 22.1064 24.6725 22.4236 24.8208L26.9264 26.9264L24.8208 22.4236C24.6725 22.1064 24.7009 21.7347 24.8957 21.4437C26.2248 19.458 27 17.0711 27 14.5C27 7.59644 21.4036 2 14.5 2ZM0 14.5C0 6.49187 6.49187 0 14.5 0C22.5081 0 29 6.49187 29 14.5C29 17.275 28.2195 19.8704 26.8659 22.0756L29.9059 28.5764C30.0841 28.9576 30.0047 29.4096 29.7071 29.7071C29.4096 30.0047 28.9576 30.0841 28.5764 29.9059L22.0756 26.8659C19.8704 28.2195 17.275 29 14.5 29C6.49187 29 0 22.5081 0 14.5Z" fill="white"/>
<path fill-rule="evenodd" clip-rule="evenodd" d="M14.5 9C13.0266 9 12 10.0971 12 11.25C12 12.0784 11.3284 12.75 10.5 12.75C9.67157 12.75 9 12.0784 9 11.25C9 8.26078 11.5551 6 14.5 6C17.4449 6 20 8.26078 20 11.25C20 13.7156 18.2616 15.6856 16 16.3001V16.5C16 17.3284 15.3284 18 14.5 18C13.6716 18 13 17.3284 13 16.5V15C13 14.1716 13.6716 13.5 14.5 13.5C15.9734 13.5 17 12.4029 17 11.25C17 10.0971 15.9734 9 14.5 9Z" fill="white"/>
<path d="M16 21.5C16 22.3284 15.3284 23 14.5 23C13.6716 23 13 22.3284 13 21.5C13 20.6716 13.6716 20 14.5 20C15.3284 20 16 20.6716 16 21.5Z" fill="white"/>
</g>
</g>
<defs>
<clipPath id="clip0_222_188">
<rect width="67" height="30" fill="white"/>
</clipPath>
<clipPath id="clip1_222_188">
<rect width="23" height="23" fill="white" transform="translate(44)"/>
</clipPath>
<clipPath id="clip2_222_188">
<rect width="30" height="30" fill="white"/>
</clipPath>
</defs>
</svg>
