<svg width="562" height="80" viewBox="0 0 562 80" fill="none" xmlns="http://www.w3.org/2000/svg">
<g clip-path="url(#clip0_67_4942)">
<path d="M190.058 44.4663L198.128 25.0224L206.198 44.4663H190.058ZM228.713 66.6878L208.342 17.4846C207.837 16.265 206.982 15.2229 205.884 14.4903C204.785 13.7578 203.494 13.3678 202.174 13.3699H197.759C196.439 13.3678 195.148 13.7578 194.05 14.4903C192.952 15.2229 192.096 16.265 191.591 17.4846L171.22 66.6878H180.847L190.069 44.4893C190.079 46.8412 191.019 49.0938 192.684 50.7546C194.35 52.4155 196.605 53.3496 198.958 53.3526H209.818L215.34 66.6878H228.713Z" fill="white"/>
<path d="M284.395 57.8015H253.268V35.6145C253.278 37.9653 254.218 40.2167 255.884 41.8757C257.55 43.5348 259.805 44.4663 262.157 44.4663H286.367C286.367 43.2993 286.137 42.1437 285.69 41.0656C285.243 39.9875 284.589 39.0078 283.763 38.1827C282.938 37.3575 281.958 36.7029 280.88 36.2564C279.801 35.8098 278.645 35.5799 277.478 35.5799H253.268V22.2562H284.395C286.752 22.2531 289.011 21.3159 290.677 19.6501C292.343 17.9842 293.281 15.7257 293.284 13.3699H239.976V66.6878H293.284C293.284 65.5209 293.054 64.3653 292.607 63.2872C292.16 62.209 291.506 61.2294 290.68 60.4042C289.855 59.5791 288.875 58.9245 287.797 58.4779C286.718 58.0314 285.562 57.8015 284.395 57.8015Z" fill="white"/>
<path d="M353.231 13.3699C351.257 13.368 349.327 13.9518 347.685 15.0475C346.044 16.1431 344.764 17.7013 344.009 19.5246L333.276 45.3192L322.543 19.5246C321.787 17.7013 320.508 16.1431 318.866 15.0475C317.224 13.9518 315.294 13.368 313.32 13.3699H306.656V66.6878H319.995V34.7386L329.932 58.6314C330.207 59.2946 330.673 59.8615 331.27 60.2603C331.867 60.6591 332.569 60.872 333.287 60.872C334.005 60.872 334.707 60.6591 335.304 60.2603C335.902 59.8615 336.367 59.2946 336.642 58.6314L346.579 34.7386V66.6878H359.918V13.3699H353.231Z" fill="white"/>
<path d="M153.328 13.3699H146.665V35.5799H119.953V13.3699H106.615V66.6878H119.953V35.5684C119.963 37.9192 120.903 40.1706 122.569 41.8296C124.235 43.4887 126.491 44.4202 128.842 44.4202H146.619V66.6878H159.946V20.0317C159.949 18.2719 159.254 16.5827 158.014 15.334C156.773 14.0853 155.088 13.379 153.328 13.3699Z" fill="white"/>
<path d="M496.161 66.6878L480.425 48.8576C483.892 48.6859 487.161 47.1877 489.553 44.6731C491.946 42.1585 493.28 38.8202 493.279 35.3494V26.9241C493.279 23.3293 491.851 19.8817 489.308 17.3398C486.766 14.7979 483.317 13.3699 479.721 13.3699H439.948V66.6878H453.275V22.2562H474.292C475.848 22.3564 477.307 23.049 478.369 24.1916C479.43 25.3343 480.013 26.8401 479.998 28.3994V33.8626C480.016 35.4215 479.433 36.9276 478.371 38.069C477.309 39.2104 475.848 39.8997 474.292 39.9943H459.305L459.374 40.075L482.869 66.6878H496.161Z" fill="white"/>
<path d="M415.312 46.368C415.312 49.3912 414.111 52.2906 411.973 54.4283C409.834 56.566 406.934 57.7669 403.91 57.7669H395.84C392.817 57.7669 389.917 56.566 387.778 54.4283C385.64 52.2906 384.439 49.3912 384.439 46.368V33.6897C384.439 30.6665 385.64 27.7672 387.778 25.6295C389.917 23.4917 392.817 22.2908 395.84 22.2908H403.91C406.934 22.2908 409.834 23.4917 411.973 25.6295C414.111 27.7672 415.312 30.6665 415.312 33.6897V46.368ZM407.3 13.3699H392.486C389.681 13.3684 386.903 13.9194 384.312 14.9914C381.72 16.0634 379.365 17.6355 377.381 19.6178C375.397 21.6001 373.824 23.9537 372.75 26.5442C371.676 29.1347 371.124 31.9114 371.124 34.7155V45.3307C371.122 48.1358 371.674 50.9137 372.747 53.5055C373.82 56.0974 375.393 58.4524 377.377 60.4359C379.361 62.4193 381.717 63.9924 384.309 65.0652C386.901 66.138 389.68 66.6894 392.486 66.6878H407.3C410.106 66.6894 412.884 66.138 415.477 65.0652C418.069 63.9924 420.425 62.4193 422.409 60.4359C424.392 58.4524 425.966 56.0974 427.039 53.5055C428.112 50.9137 428.663 48.1358 428.662 45.3307V34.7155C428.662 31.9114 428.109 29.1347 427.036 26.5442C425.962 23.9537 424.388 21.6001 422.404 19.6178C420.421 17.6355 418.066 16.0634 415.474 14.9914C412.882 13.9194 410.105 13.3684 407.3 13.3699Z" fill="white"/>
<path d="M548.65 46.368C548.65 47.8669 548.354 49.351 547.78 50.7355C547.206 52.12 546.364 53.3776 545.303 54.4364C544.241 55.4952 542.982 56.3344 541.596 56.9059C540.21 57.4774 538.725 57.77 537.225 57.7669H529.156C526.132 57.7669 523.232 56.566 521.093 54.4283C518.955 52.2906 517.754 49.3912 517.754 46.368V33.6897C517.754 30.6665 518.955 27.7672 521.093 25.6295C523.232 23.4917 526.132 22.2908 529.156 22.2908H537.225C540.249 22.2908 543.149 23.4917 545.288 25.6295C547.426 27.7672 548.627 30.6665 548.627 33.6897L548.65 46.368ZM540.684 13.3699H525.812C520.149 13.3699 514.717 15.6184 510.711 19.6212C506.705 23.6239 504.453 29.0532 504.45 34.7155V45.3307C504.45 50.995 506.701 56.4272 510.707 60.4325C514.713 64.4377 520.147 66.6878 525.812 66.6878H540.684C543.49 66.6894 546.269 66.1381 548.862 65.0654C551.456 63.9928 553.812 62.4199 555.797 60.4366C557.782 58.4532 559.356 56.0983 560.43 53.5064C561.505 50.9145 562.058 48.1363 562.058 45.3307V34.7155C562.056 31.9108 561.502 29.1339 560.427 26.5434C559.352 23.9528 557.777 21.5992 555.793 19.6171C553.808 17.635 551.452 16.0631 548.86 14.9912C546.267 13.9193 543.489 13.3684 540.684 13.3699Z" fill="white"/>
<path d="M78.0476 59.0116C77.4233 58.3867 76.682 57.891 75.8661 57.5528C75.0501 57.2146 74.1754 57.0405 73.2921 57.0405C72.4088 57.0405 71.5341 57.2146 70.7181 57.5528C69.9021 57.891 69.1608 58.3867 68.5366 59.0116L59.0256 68.5088C57.7644 69.7697 57.0558 71.4799 57.0558 73.2631C57.0558 75.0464 57.7644 76.7566 59.0256 78.0175C60.2869 79.2784 61.9975 79.9868 63.7811 79.9868C65.5648 79.9868 67.2754 79.2784 68.5366 78.0175L78.0476 68.5088C79.3035 67.2474 80.0086 65.54 80.0086 63.7602C80.0086 61.9804 79.3035 60.273 78.0476 59.0116Z" fill="white"/>
<path d="M20.9818 59.0116C20.3585 58.3871 19.6182 57.8916 18.8032 57.5536C17.9881 57.2155 17.1144 57.0415 16.232 57.0415C15.3497 57.0415 14.4759 57.2155 13.6609 57.5536C12.8459 57.8916 12.1056 58.3871 11.4823 59.0116L1.97135 68.5203C1.34685 69.1477 0.852071 69.8919 0.515253 70.7104C0.178435 71.529 0.00617947 72.4058 0.0083205 73.2909C0.0104615 74.1761 0.186957 75.0521 0.527731 75.869C0.868505 76.6859 1.36688 77.4277 1.99441 78.0521C3.26176 79.313 4.97822 80.019 6.7662 80.0146C7.65151 80.0125 8.52774 79.836 9.34484 79.4953C10.1619 79.1546 10.9039 78.6564 11.5284 78.029L21.0279 68.5203C21.6529 67.8962 22.1487 67.1551 22.487 66.3393C22.8253 65.5235 22.9994 64.6491 22.9994 63.7659C22.9994 62.8828 22.8253 62.0084 22.487 61.1926C22.1487 60.3768 21.6529 59.6356 21.0279 59.0116" fill="white"/>
<path d="M49.5723 11.5257C48.9481 10.9009 48.2068 10.4052 47.3908 10.067C46.5748 9.72877 45.7002 9.55469 44.8168 9.55469C43.9335 9.55469 43.0588 9.72877 42.2428 10.067C41.4269 10.4052 40.6856 10.9009 40.0613 11.5257L11.5285 39.9943C10.2596 41.2491 9.54126 42.9564 9.53153 44.7408C9.52672 45.6243 9.69601 46.5001 10.0297 47.3181C10.3635 48.1362 10.8551 48.8806 11.4766 49.5087C12.098 50.1369 12.8372 50.6365 13.6518 50.979C14.4664 51.3216 15.3405 51.5004 16.2242 51.5052C18.0089 51.5149 19.7244 50.8154 20.9933 49.5606L49.5723 20.9768C50.8198 19.7203 51.5198 18.0217 51.5198 16.2513C51.5198 14.4809 50.8198 12.7823 49.5723 11.5257Z" fill="white"/>
<path d="M20.9933 1.97081C20.3691 1.34596 19.6278 0.850258 18.8118 0.512048C17.9958 0.173838 17.1212 -0.000244141 16.2378 -0.000244141C15.3545 -0.000244141 14.4798 0.173838 13.6638 0.512048C12.8479 0.850258 12.1066 1.34596 11.4823 1.97081L1.97138 11.5256C1.35066 12.153 0.859629 12.8965 0.526308 13.7136C0.192987 14.5307 0.0239083 15.4054 0.0287256 16.2878C0.0384546 18.07 0.755909 19.7753 2.02326 21.0286C3.2906 22.2819 5.00403 22.9805 6.7866 22.9708C8.56917 22.961 10.2749 22.2438 11.5285 20.9767L20.9933 11.5256C21.6183 10.9016 22.1141 10.1604 22.4524 9.34464C22.7907 8.52885 22.9648 7.65439 22.9648 6.77127C22.9648 5.88815 22.7907 5.01369 22.4524 4.1979C22.1141 3.38211 21.6183 2.64098 20.9933 2.01691" fill="#1BB769"/>
<path d="M78.0476 1.97081C77.4234 1.34596 76.6821 0.850258 75.8661 0.512048C75.0501 0.173838 74.1754 -0.000244141 73.2921 -0.000244141C72.4088 -0.000244141 71.5341 0.173838 70.7181 0.512048C69.9021 0.850258 69.1608 1.34596 68.5366 1.97081L59.0256 11.5256C57.7659 12.7866 57.0589 14.4961 57.0599 16.2783C57.061 18.0604 57.7702 19.7692 59.0314 21.0286C60.2926 22.288 62.0026 22.9949 63.7852 22.9938C65.5678 22.9927 67.2769 22.2838 68.5366 21.0228L78.0476 11.5256C79.3042 10.2623 80.0096 8.55298 80.0096 6.77127C80.0096 4.98956 79.3042 3.28029 78.0476 2.01691" fill="#1BB769"/>
<path d="M68.5135 30.4625C67.2499 29.2062 65.5402 28.501 63.758 28.501C61.9759 28.501 60.2662 29.2062 59.0026 30.4625L30.4812 58.9887C29.22 60.2496 28.5114 61.9598 28.5114 63.743C28.5114 65.5263 29.22 67.2364 30.4812 68.4974C31.7424 69.7583 33.453 70.4667 35.2367 70.4667C37.0203 70.4667 38.7309 69.7583 39.9922 68.4974L68.5135 39.9712C69.1385 39.3472 69.6343 38.606 69.9726 37.7902C70.3109 36.9745 70.485 36.1 70.485 35.2169C70.485 34.3338 70.3109 33.4593 69.9726 32.6435C69.6343 31.8277 69.1385 31.0866 68.5135 30.4625Z" fill="#1BB769"/>
</g>
<defs>
<clipPath id="clip0_67_4942">
<rect width="562" height="80" fill="white"/>
</clipPath>
</defs>
</svg>
