<svg width="135" height="45" viewBox="0 0 135 45" fill="none" xmlns="http://www.w3.org/2000/svg">
<g clip-path="url(#clip0_67_5048)">
<path d="M52.15 44.11C51.05 43.01 51.05 41.24 52.15 40.14L66.76 25.53C67.86 24.43 69.63 24.43 70.73 25.53C71.83 26.63 71.83 28.4 70.73 29.5L56.12 44.11C55.02 45.21 53.24 45.21 52.15 44.11Z" fill="white"/>
<path d="M52.15 19.47C51.05 18.37 51.05 16.6 52.15 15.5L66.75 0.890001C67.85 -0.209999 69.62 -0.209999 70.72 0.890001C71.82 1.99 71.82 3.76 70.72 4.86L56.12 19.47C55.02 20.57 53.24 20.57 52.15 19.47Z" fill="#158D51"/>
<path d="M62.21 21.74C61.11 20.64 61.11 18.87 62.21 17.77L66.76 13.23C67.86 12.13 69.63 12.13 70.73 13.23C71.83 14.33 71.83 16.1 70.73 17.2L66.18 21.75C65.08 22.84 63.31 22.84 62.21 21.74Z" fill="white"/>
<path d="M52.14 31.78C51.04 30.68 51.04 28.91 52.14 27.81L56.69 23.27C57.79 22.17 59.56 22.17 60.66 23.27C61.76 24.37 61.76 26.14 60.66 27.24L56.11 31.79C55.02 32.87 53.24 32.87 52.14 31.78Z" fill="#158D51"/>
<path d="M21.1 13.25H18.28V20.56H5.62V13.25H0V31.61H5.62V24.3H18.28V31.61H23.9V16.05C23.89 14.5 22.64 13.25 21.1 13.25Z" fill="white"/>
<path d="M43.51 16.05C43.51 14.52 42.27 13.27 40.73 13.27H37.92V24.3C37.91 25.07 37.94 25.58 37.92 25.83C37.91 26 37.91 26.24 37.91 26.5C37.78 27.27 37.11 27.86 36.3 27.87H34.15H26.82L26.84 31.61C28.7 31.61 37.97 31.61 37.97 31.61C39.58 31.61 41.03 30.92 42.05 29.83C42.11 29.77 42.15 29.72 42.2 29.67C42.24 29.62 42.29 29.57 42.33 29.52L42.34 29.51C43.02 28.66 43.45 27.6 43.53 26.44C43.54 26.33 43.55 26.2 43.55 26.05L43.51 16.05Z" fill="white"/>
<path d="M112.11 19.66L112.07 19.81L115.1 20.11L115.13 20.01C115.6 18.32 115.67 16.9 115.69 15.56V14.82V14.28C115.69 13.63 115.16 13.1 114.51 13.1H113.31H101.85V15.53H112.62C112.61 16.87 112.52 18.09 112.11 19.66Z" fill="white"/>
<path d="M108.7 29.49C106.04 29.49 104.57 28.99 104.57 28.07C104.57 27.14 106.04 26.63 108.7 26.63C111.38 26.63 112.85 27.14 112.85 28.07C112.85 28.99 111.38 29.49 108.7 29.49ZM108.7 24.31C104.34 24.31 101.63 25.75 101.63 28.08C101.63 30.39 104.34 31.83 108.7 31.83C113.07 31.83 115.79 30.39 115.79 28.08C115.79 25.75 113.08 24.31 108.7 24.31Z" fill="white"/>
<path d="M116.66 21.04H116.6H115.47H115.41H109.48V17.7H106.41V21.05H99.87V23.5H107.32H110.39H117.84V22.23C117.84 21.57 117.31 21.04 116.66 21.04Z" fill="white"/>
<path d="M123.89 20C122.47 20 121.55 19.15 121.55 17.83C121.55 16.51 122.47 15.66 123.89 15.66C125.32 15.66 126.25 16.51 126.25 17.83C126.25 19.15 125.32 20 123.89 20ZM133.82 13.1H132.62H131.93V16.55H129.03C128.42 14.48 126.37 13.1 123.89 13.1C120.83 13.1 118.61 15.09 118.61 17.83C118.61 20.57 120.83 22.56 123.89 22.56C126.41 22.56 128.47 21.15 129.06 19.05H131.94V22.56H135V15.56V14.29C135 13.63 134.47 13.1 133.82 13.1Z" fill="white"/>
<path d="M131.95 29.14H124.8V27.68H131.95V29.14ZM133.82 23.49H132.62H131.95V25.23H124.8V23.49H121.75V31.59H135V25.95V24.68C135 24.02 134.47 23.49 133.82 23.49Z" fill="white"/>
<path d="M93.01 28.07C93.01 28.98 91.57 29.49 88.97 29.49C86.38 29.49 84.95 28.99 84.95 28.07C84.95 27.14 86.38 26.63 88.97 26.63C91.57 26.63 93.01 27.15 93.01 28.07ZM97.99 23.5V22.23C97.99 21.58 97.46 21.05 96.81 21.05H95.61H80.02V23.5H87.47V24.37C83.99 24.67 81.89 26.03 81.89 28.07C81.89 30.38 84.6 31.82 88.96 31.82C93.33 31.82 96.05 30.38 96.05 28.07C96.05 26.04 93.98 24.68 90.54 24.37V23.5H97.99Z" fill="white"/>
<path d="M89.01 17.18C90.2 19.07 92.73 20.26 96.15 20.55L96.76 20.59V18.14C93.82 17.86 91.89 16.9 91.25 15.55H96.4V14.28C96.4 13.63 95.87 13.1 95.22 13.1H95.21H94.02H81.64V15.55H86.77C86.12 16.9 84.2 17.85 81.28 18.13V20.58L81.87 20.54C85.29 20.26 87.81 19.07 89.01 17.18Z" fill="white"/>
</g>
<defs>
<clipPath id="clip0_67_5048">
<rect width="135" height="45" fill="white"/>
</clipPath>
</defs>
</svg>
