<svg width="135" height="45" viewBox="0 0 135 45" fill="none" xmlns="http://www.w3.org/2000/svg">
<g clip-path="url(#clip0_151_16)">
<path d="M52.15 44.0451C51.05 42.9451 51.05 41.1751 52.15 40.0751L66.76 25.4651C67.86 24.3651 69.63 24.3651 70.73 25.4651C71.83 26.5651 71.83 28.3351 70.73 29.4351L56.12 44.0451C55.02 45.1451 53.24 45.1451 52.15 44.0451Z" fill="#CCCCCC"/>
<path d="M52.15 19.405C51.05 18.305 51.05 16.535 52.15 15.435L66.75 0.825C67.85 -0.275 69.62 -0.275 70.72 0.825C71.82 1.925 71.82 3.695 70.72 4.795L56.12 19.405C55.02 20.505 53.24 20.505 52.15 19.405Z" fill="#158D51"/>
<path d="M62.21 21.6748C61.11 20.5748 61.11 18.8048 62.21 17.7048L66.76 13.1648C67.86 12.0648 69.63 12.0648 70.73 13.1648C71.83 14.2648 71.83 16.0348 70.73 17.1348L66.18 21.6848C65.08 22.7748 63.31 22.7748 62.21 21.6748Z" fill="#CCCCCC"/>
<path d="M52.14 31.7149C51.04 30.6149 51.04 28.8449 52.14 27.7449L56.69 23.2049C57.79 22.1049 59.56 22.1049 60.66 23.2049C61.76 24.3049 61.76 26.0749 60.66 27.1749L56.11 31.7249C55.02 32.8049 53.24 32.8049 52.14 31.7149Z" fill="#158D51"/>
<path d="M21.1 13.1851H18.28V20.4951H5.62V13.1851H0V31.5451H5.62V24.2351H18.28V31.5451H23.9V15.9851C23.89 14.4351 22.64 13.1851 21.1 13.1851Z" fill="#CCCCCC"/>
<path d="M43.51 15.9851C43.51 14.4551 42.27 13.2051 40.73 13.2051H37.92V24.2351C37.91 25.0051 37.94 25.5151 37.92 25.7651C37.91 25.9351 37.91 26.1751 37.91 26.4351C37.78 27.2051 37.11 27.7951 36.3 27.8051H34.15H26.82L26.84 31.5451C28.7 31.5451 37.97 31.5451 37.97 31.5451C39.58 31.5451 41.03 30.8551 42.05 29.7651C42.11 29.7051 42.15 29.6551 42.2 29.6051C42.24 29.5551 42.29 29.5051 42.33 29.4551L42.34 29.4451C43.02 28.5951 43.45 27.5351 43.53 26.3751C43.54 26.2651 43.55 26.1351 43.55 25.9851L43.51 15.9851Z" fill="#CCCCCC"/>
<path d="M112.11 19.5952L112.07 19.7452L115.1 20.0452L115.13 19.9452C115.6 18.2552 115.67 16.8352 115.69 15.4952V14.7552V14.2152C115.69 13.5652 115.16 13.0352 114.51 13.0352H113.31H101.85V15.4652H112.62C112.61 16.8052 112.52 18.0252 112.11 19.5952Z" fill="#CCCCCC"/>
<path d="M108.7 29.4251C106.04 29.4251 104.57 28.9251 104.57 28.0051C104.57 27.0751 106.04 26.5651 108.7 26.5651C111.38 26.5651 112.85 27.0751 112.85 28.0051C112.85 28.9251 111.38 29.4251 108.7 29.4251ZM108.7 24.2451C104.34 24.2451 101.63 25.6851 101.63 28.0151C101.63 30.3251 104.34 31.7651 108.7 31.7651C113.07 31.7651 115.79 30.3251 115.79 28.0151C115.79 25.6851 113.08 24.2451 108.7 24.2451Z" fill="#CCCCCC"/>
<path d="M116.66 20.9748H116.6H115.47H115.41H109.48V17.6348H106.41V20.9848H99.87V23.4348H107.32H110.39H117.84V22.1648C117.84 21.5048 117.31 20.9748 116.66 20.9748Z" fill="#CCCCCC"/>
<path d="M123.89 19.9352C122.47 19.9352 121.55 19.0852 121.55 17.7652C121.55 16.4452 122.47 15.5952 123.89 15.5952C125.32 15.5952 126.25 16.4452 126.25 17.7652C126.25 19.0852 125.32 19.9352 123.89 19.9352ZM133.82 13.0352H132.62H131.93V16.4852H129.03C128.42 14.4152 126.37 13.0352 123.89 13.0352C120.83 13.0352 118.61 15.0252 118.61 17.7652C118.61 20.5052 120.83 22.4952 123.89 22.4952C126.41 22.4952 128.47 21.0852 129.06 18.9852H131.94V22.4952H135V15.4952V14.2252C135 13.5652 134.47 13.0352 133.82 13.0352Z" fill="#CCCCCC"/>
<path d="M131.95 29.0748H124.8V27.6148H131.95V29.0748ZM133.82 23.4248H132.62H131.95V25.1648H124.8V23.4248H121.75V31.5248H135V25.8848V24.6148C135 23.9548 134.47 23.4248 133.82 23.4248Z" fill="#CCCCCC"/>
<path d="M93.01 28.0049C93.01 28.9149 91.57 29.4249 88.97 29.4249C86.38 29.4249 84.95 28.9249 84.95 28.0049C84.95 27.0749 86.38 26.5649 88.97 26.5649C91.57 26.5649 93.01 27.0849 93.01 28.0049ZM97.99 23.4349V22.1649C97.99 21.5149 97.46 20.9849 96.81 20.9849H95.61H80.02V23.4349H87.47V24.3049C83.99 24.6049 81.89 25.9649 81.89 28.0049C81.89 30.3149 84.6 31.7549 88.96 31.7549C93.33 31.7549 96.05 30.3149 96.05 28.0049C96.05 25.9749 93.98 24.6149 90.54 24.3049V23.4349H97.99Z" fill="#CCCCCC"/>
<path d="M89.01 17.1152C90.2 19.0052 92.73 20.1952 96.15 20.4852L96.76 20.5252V18.0752C93.82 17.7952 91.89 16.8352 91.25 15.4852H96.4V14.2152C96.4 13.5652 95.87 13.0352 95.22 13.0352H95.21H94.02H81.64V15.4852H86.77C86.12 16.8352 84.2 17.7852 81.28 18.0652V20.5152L81.87 20.4752C85.29 20.1952 87.81 19.0052 89.01 17.1152Z" fill="#CCCCCC"/>
</g>
<defs>
<clipPath id="clip0_151_16">
<rect width="135" height="45" fill="white"/>
</clipPath>
</defs>
</svg>
