<svg width="2959" height="70" viewBox="0 0 2959 70" fill="none" xmlns="http://www.w3.org/2000/svg">
<g clip-path="url(#clip0_228_525)">
<path d="M1985.7 27.8581H1950.03C1946.26 27.8581 1943.23 24.8272 1943.23 21.0548C1943.23 17.2823 1946.26 14.2515 1950.03 14.2515H2004.88V0H1943.23C1931.59 0 1922.18 9.41501 1922.18 21.0548C1922.18 32.6946 1931.59 42.1096 1943.23 42.1096H1978.73C1982.47 42.1096 1985.53 45.1404 1985.53 48.9129C1985.53 52.6854 1982.5 55.7162 1978.73 55.7162H1924.14V69.9677H1985.7C1997.33 69.9677 2006.75 60.5527 2006.75 48.9129C2006.75 37.2731 1997.33 27.8581 1985.7 27.8581Z" fill="#264037"/>
<path d="M2652.17 70V0H2663.04C2668.75 0 2673.39 4.64302 2673.39 10.3501V70H2652.17Z" fill="#264037"/>
<path d="M2352.85 0V44.8825C2352.85 50.8797 2347.99 55.7484 2341.99 55.7484H2316.13C2310.13 55.7484 2305.26 50.8797 2305.26 44.8825V0H2284.05V48.7517C2284.05 60.4882 2293.53 69.9677 2305.26 70H2352.92C2364.62 70 2374.14 60.4882 2374.14 48.7517V0H2352.92H2352.85Z" fill="#264037"/>
<path d="M1883.57 0H1872.8V50.7185L1826.18 0H1803.09V70H1824.5V19.2814L1871.12 70H1894.18V10.6402C1894.18 4.77198 1889.4 0 1883.54 0" fill="#264037"/>
<path d="M2905.47 0H2894.7V50.7185L2848.08 0H2824.99V70H2846.4V19.2814L2893.02 70H2916.08V10.6402C2916.08 4.77198 2911.31 0 2905.44 0" fill="#264037"/>
<path d="M1588.71 55.7486C1584.97 55.7486 1581.91 52.7177 1581.91 48.9453V21.0871C1581.91 17.3147 1584.94 14.2839 1588.71 14.2839H1651.23V0.0323486H1581.91L1581.75 0.193574V0.0323486C1570.01 0.0323486 1560.53 9.54409 1560.53 21.2484V48.7841C1560.53 60.5206 1570.04 70.0001 1581.75 70.0001H1651.49V55.7486H1588.71Z" fill="#264037"/>
<path d="M2430.32 55.7486C2426.54 55.7486 2423.51 52.7177 2423.51 48.9453V21.0871C2423.51 17.3147 2426.54 14.2839 2430.32 14.2839H2492.84V0.0323486H2423.51L2423.35 0.193574V0.0323486C2411.61 0.0323486 2402.14 9.54409 2402.14 21.2484V48.7841C2402.14 60.5206 2411.65 70.0001 2423.35 70.0001H2493.09V55.7486H2430.32Z" fill="#264037"/>
<path d="M1700.87 48.9452V21.087C1700.87 17.3468 1703.9 14.2837 1707.67 14.2837H1746.91C1750.65 14.2837 1753.71 17.3146 1753.71 21.087V48.9452C1753.71 52.7176 1750.68 55.7484 1746.91 55.7484H1707.67C1703.93 55.7484 1700.87 52.7176 1700.87 48.9452ZM1753.87 0V0.161201L1753.71 0H1700.87L1700.7 0.161201V0C1688.97 0 1679.49 9.51172 1679.49 21.216V48.7517C1679.49 60.4882 1689 69.9677 1700.7 69.9677H1753.87C1765.61 69.9677 1775.09 60.456 1775.09 48.7517V21.216C1775.09 9.47948 1765.58 0 1753.87 0Z" fill="#264037"/>
<path d="M2722.77 48.9452V21.087C2722.77 17.3468 2725.8 14.2837 2729.57 14.2837H2768.81C2772.55 14.2837 2775.61 17.3146 2775.61 21.087V48.9452C2775.61 52.7176 2772.58 55.7484 2768.81 55.7484H2729.57C2725.83 55.7484 2722.77 52.7176 2722.77 48.9452ZM2775.78 0V0.161201L2775.61 0H2722.77L2722.61 0.161201V0C2710.87 0 2701.39 9.51172 2701.39 21.216V48.7517C2701.39 60.4882 2710.9 69.9677 2722.61 69.9677H2775.78C2787.51 69.9677 2796.99 60.456 2796.99 48.7517V21.216C2796.99 9.47948 2787.48 0 2775.78 0Z" fill="#264037"/>
<path d="M2137.86 0H2034.75V14.2515H2075.63V70H2097.01V14.2515H2137.86V0Z" fill="#264037"/>
<path d="M2624.17 0H2521.09V14.2515H2561.95V70H2583.32V14.2515H2624.17V0Z" fill="#264037"/>
<path d="M2234.54 49.3321C2245.5 46.6559 2253.66 36.8539 2253.66 25.0529C2253.66 11.2206 2242.44 0 2228.61 0H2165.86V70H2187.08V14.2515H2221.81C2227.77 14.2515 2232.61 19.088 2232.61 25.0529C2232.61 31.0179 2227.77 35.8544 2221.81 35.8544H2199.33L2234.83 70H2256.05L2234.54 49.3321Z" fill="#264037"/>
<path d="M417.242 0.194824H406.522V27.9674H358.416V0.194824H337.075V69.9674H358.416V42.1948H406.522V69.9674H427.864V10.8166C427.864 4.93728 423.121 0.194824 417.242 0.194824Z" fill="#264037"/>
<path d="M309.075 48.9838C309.075 37.3875 299.687 28 288.091 28H252.555C248.82 28 245.766 24.9791 245.766 21.2112C245.766 17.4432 248.787 14.4223 252.555 14.4223H307.158V0.227417H245.766C234.17 0.227417 224.782 9.61488 224.782 21.2112C224.782 32.8074 234.17 42.1949 245.766 42.1949H281.107C284.843 42.1949 287.896 45.2158 287.896 48.9838C287.896 52.7518 284.875 55.7726 281.107 55.7726H226.731V69.9675H288.026C299.622 69.9675 309.01 60.5801 309.01 48.9838" fill="#264037"/>
<path d="M526.156 14.3897H565.427C571.372 14.3897 576.179 19.1971 576.179 25.1415C576.179 31.0858 571.372 35.8932 565.427 35.8932H526.156V14.3572V14.3897ZM572.216 0.194824H505.01V69.9674H526.156V50.153H572.216C586.021 50.153 597.195 38.979 597.195 25.1739C597.195 11.3688 586.021 0.194824 572.216 0.194824Z" fill="#264037"/>
<path d="M455.864 69.9999V0.227295H466.713C472.397 0.227295 477.01 4.83982 477.01 10.5243V69.9999H455.864Z" fill="#264037"/>
<path d="M646.309 42.1623H689.251C692.986 42.1623 696.04 45.2157 696.04 48.9512C696.04 52.6867 692.986 55.74 689.251 55.74H689.543H646.309V42.1623ZM646.309 14.3897H687.107C690.843 14.3897 693.896 17.4431 693.896 21.1786C693.896 24.9141 690.875 27.9674 687.107 27.9674H646.309V14.3897ZM717.283 52.3618C717.283 43.3317 710.43 35.9581 701.659 34.9512C709.39 33.0672 715.14 26.1484 715.14 17.8653C715.14 8.15305 707.279 0.259778 697.599 0.227295H646.342H625.195V14.4222V27.9999V42.1948V55.7725V69.9674H701.464L701.529 69.7725C710.365 68.863 717.283 61.457 717.283 52.3618Z" fill="#264037"/>
<path d="M813.822 0.194824V44.9233C813.822 50.9001 808.982 55.7401 803.005 55.7401H777.247C771.27 55.7401 766.43 50.9001 766.43 44.9233V0.194824H745.284V48.7888C745.284 60.4825 754.736 69.9349 766.43 69.9674H813.919C825.581 69.9674 835.066 60.4825 835.066 48.7888V0.194824H813.919H813.822Z" fill="#264037"/>
<path d="M863.066 69.9999V0.227295H873.915C879.599 0.227295 884.212 4.83982 884.212 10.5243V69.9999H863.066Z" fill="#264037"/>
<path d="M1051.11 14.3897H1082.32C1093.76 14.3897 1103.01 23.6473 1103.01 35.0811C1103.01 46.515 1093.76 55.7725 1082.32 55.7725H1051.11V14.4222V14.3897ZM1089.27 0.194824H1029.99V69.9674H1089.27C1108.54 69.9674 1124.16 54.3433 1124.16 35.0811C1124.16 15.819 1108.54 0.194824 1089.27 0.194824Z" fill="#264037"/>
<path d="M1281.38 0.292358H1270.66V50.7703L1224.27 0.292358H1201.31V69.9675H1222.62V19.4896L1269 69.9675H1291.97V10.8817C1291.97 5.03481 1287.22 0.292358 1281.38 0.292358Z" fill="#264037"/>
<path d="M1152.16 69.9999V0.227295H1163.01C1168.69 0.227295 1173.31 4.83982 1173.31 10.5243V69.9999H1152.16Z" fill="#264037"/>
<path d="M1389.22 27.9999V55.5776H1347.97C1344.23 55.5776 1341.21 52.5567 1341.21 48.8212V21.1461C1341.21 17.4106 1344.23 14.3897 1347.97 14.3897H1410.07V0.227295H1341.21L1341.05 0.389705V0.227295C1329.42 0.227295 1319.97 9.67972 1319.97 21.3085V48.6588C1319.97 60.2876 1329.42 69.74 1341.05 69.74H1389.22V69.9999H1410.36V28.0324H1389.22V27.9999Z" fill="#264037"/>
<path d="M1492.9 55.5452H1480.1H1480.4C1476.66 55.5452 1473.61 52.4919 1473.61 48.7564C1473.61 45.0209 1476.66 41.9675 1480.4 41.9675H1492.9V55.5452ZM1518.53 41.9675V27.7726H1507.1V18.8399H1492.9V27.7726H1480.4C1476.66 27.7726 1473.61 24.7517 1473.61 20.9837C1473.61 17.2158 1476.66 14.1949 1480.4 14.1949H1492.9V0H1469.91C1460.19 0.0649652 1452.36 7.92575 1452.36 17.6705C1452.36 26.181 1458.37 33.2622 1466.36 34.9513C1458.37 36.6079 1452.36 43.6891 1452.36 52.167C1452.36 61.2622 1459.28 68.6682 1468.15 69.5777L1468.22 69.7726H1518.53V55.5777H1507.1V42H1518.53V41.9675Z" fill="#264037"/>
<path d="M944.175 55.7401C938.198 55.7401 933.358 50.9001 933.358 44.9233V0.194824H912.212V48.7888C912.212 60.4825 921.664 69.9349 933.358 69.9674H1001.99V55.7725H944.24L944.175 55.7401Z" fill="#264037"/>
<path d="M80.4428 0H69.6969V27.8567H21.4092V0H0V70H21.4092V42.1433H69.6831V70H91.0923V10.6633C91.0923 4.78056 86.3255 0 80.429 0" fill="#264037"/>
<path d="M182.741 10.6635C182.741 4.8221 178.002 0.0690918 172.147 0.0690918H161.428V42.1022C161.401 45.0366 161.497 46.9791 161.428 47.9297C161.401 48.5635 161.387 49.5003 161.387 50.4922C160.877 53.4405 158.329 55.6999 155.229 55.6999H147.045H119.092L119.147 69.9726C126.229 69.9726 161.58 69.9726 161.58 69.9726C167.724 69.9726 173.249 67.3413 177.12 63.1669C177.327 62.9465 177.52 62.7398 177.685 62.5469C177.85 62.3541 178.016 62.1612 178.167 61.9545C178.167 61.9545 178.181 61.927 178.195 61.9132C180.771 58.6619 182.411 54.6253 182.714 50.2167C182.755 49.7896 182.782 49.3074 182.782 48.7288L182.714 10.6221L182.741 10.6635Z" fill="#264037"/>
</g>
<defs>
<clipPath id="clip0_228_525">
<rect width="2959" height="70" fill="white"/>
</clipPath>
</defs>
</svg>
