<svg width="90" height="71" viewBox="0 0 90 71" fill="none" xmlns="http://www.w3.org/2000/svg">
<path fill-rule="evenodd" clip-rule="evenodd" d="M60.404 2.61519L87.2364 28.9117C90.9212 32.5228 90.9212 38.4772 87.2364 42.0883L60.404 68.3848C56.846 71.8717 51.1664 71.8717 47.6084 68.3848C43.9237 64.7737 43.9237 58.8193 47.6084 55.2081L58.3271 44.7035H9.16136C4.32665 44.7035 0 40.8082 0 35.5C0 30.1918 4.32665 26.2965 9.16136 26.2965H58.3271L47.6084 15.7919C43.9237 12.1807 43.9237 6.22634 47.6084 2.61519L48.975 4.08179C46.1055 6.89395 46.1055 11.5131 48.975 14.3253L63.2601 28.3251H9.16136C5.32253 28.3251 1.97802 31.4086 1.97802 35.5C1.97802 39.5914 5.32253 42.6749 9.16136 42.6749H63.2601L48.975 56.6747C46.1055 59.4869 46.1055 64.106 48.975 66.9182C51.7684 69.6558 56.244 69.6558 59.0374 66.9182L85.8699 40.6217C88.7393 37.8096 88.7393 33.1904 85.8699 30.3783L59.0374 4.08179C56.244 1.34417 51.7684 1.34417 48.975 4.08179L47.6084 2.61519C51.1664 -0.871728 56.846 -0.87173 60.404 2.61519Z" fill="white"/>
</svg>
