<svg width="696" height="302" viewBox="0 0 696 302" fill="none" xmlns="http://www.w3.org/2000/svg">
<g clip-path="url(#clip0_223_515)">
<path fill-rule="evenodd" clip-rule="evenodd" d="M292.144 0H337.212C361.824 0 381.801 20.561 381.961 46.0566V302H292.144V181.759H89.8168V302H0V0H89.8168V120.241H292.144V0ZM650.932 0.328264C675.544 0.328264 695.361 20.8892 695.361 46.0559L696 210.544C696 213.011 695.84 215.15 695.68 216.959C694.402 236.04 687.53 253.475 676.662 267.457L676.503 267.621C676.183 268.032 675.823 268.444 675.464 268.855C675.104 269.266 674.745 269.677 674.425 270.089C674.044 270.481 673.699 270.873 673.338 271.284C672.943 271.733 672.529 272.204 672.028 272.72C655.726 290.65 632.553 301.999 606.823 301.999H428.947L428.627 240.481H545.773H580.133C593.078 240.316 603.786 230.611 605.864 217.946C605.864 213.669 605.864 209.721 606.023 206.925C606.187 204.816 606.141 201.581 606.079 197.22C606.019 193.08 605.946 187.927 606.023 181.758V0.328264H650.932Z" fill="white"/>
<path d="M0 5.46168L5.45082 0.000488281H6.86381L0 6.87735V5.46168Z" fill="#EEEEEE"/>
<path d="M0 13.9519V12.5363L12.512 0.000488281H13.925L0 13.9519Z" fill="#EEEEEE"/>
<path d="M0 21.0271V19.6114L19.5737 0.000488281H20.9867L0 21.0271Z" fill="#EEEEEE"/>
<path d="M0 28.1026V26.6869L26.6358 0.000488281H28.0488L0 28.1026Z" fill="#EEEEEE"/>
<path d="M0 35.1782V33.7625L33.6979 0.000488281H35.1109L0 35.1782Z" fill="#EEEEEE"/>
<path d="M0 42.2523V40.8367L40.7587 0.000488281H42.1716L0 42.2523Z" fill="#EEEEEE"/>
<path d="M0 49.3279V47.9123L47.8208 0.000488281H49.2338L0 49.3279Z" fill="#EEEEEE"/>
<path d="M0 56.4031V54.9874L54.8826 0.000488281H56.2955L0 56.4031Z" fill="#EEEEEE"/>
<path d="M0 63.4781V62.0624L61.9442 0.000488281H63.3571L0 63.4781Z" fill="#EEEEEE"/>
<path d="M0 70.5538V69.1381L69.0064 0.000488281H70.4194L0 70.5538Z" fill="#EEEEEE"/>
<path d="M0 77.6283V76.2126L76.0675 0.000488281H77.4805L0 77.6283Z" fill="#EEEEEE"/>
<path d="M0 84.7034V83.2878L83.1292 0.000488281H84.5422L0 84.7034Z" fill="#EEEEEE"/>
<path d="M0 91.7785V90.3629L89.818 0.374101V1.78974L0 91.7785Z" fill="#EEEEEE"/>
<path d="M0 98.854V97.4384L89.818 7.44963V8.86527L0 98.854Z" fill="#EEEEEE"/>
<path d="M0 105.929V104.513L89.818 14.5243V15.94L0 105.929Z" fill="#EEEEEE"/>
<path d="M0 113.004V111.589L89.818 21.5998V23.0155L0 113.004Z" fill="#EEEEEE"/>
<path d="M0 120.08V118.664L89.818 28.6751V30.0907L0 120.08Z" fill="#EEEEEE"/>
<path d="M0 127.154V125.739L89.818 35.7501V37.1657L0 127.154Z" fill="#EEEEEE"/>
<path d="M0 134.23V132.814L89.818 42.8256V44.2412L0 134.23Z" fill="#EEEEEE"/>
<path d="M0 141.305V139.889L89.818 49.9003V51.3159L0 141.305Z" fill="#EEEEEE"/>
<path d="M0 148.38V146.964L89.818 56.9754V58.391L0 148.38Z" fill="#EEEEEE"/>
<path d="M0 155.455V154.04L89.818 64.0511V65.4667L0 155.455Z" fill="#EEEEEE"/>
<path d="M0 162.53V161.114L89.818 71.1256V72.5412L0 162.53Z" fill="#EEEEEE"/>
<path d="M0 169.605V168.189L89.818 78.2006V79.6162L0 169.605Z" fill="#EEEEEE"/>
<path d="M0 176.681V175.265L89.818 85.2763V86.6919L0 176.681Z" fill="#EEEEEE"/>
<path d="M0 183.755V182.34L89.818 92.3508V93.7665L0 183.755Z" fill="#EEEEEE"/>
<path d="M0 190.831V189.416L89.818 99.427V100.843L0 190.831Z" fill="#EEEEEE"/>
<path d="M0 197.906V196.491L89.818 106.502V107.918L0 197.906Z" fill="#EEEEEE"/>
<path d="M0 204.981V203.565L89.818 113.577V114.992L0 204.981Z" fill="#EEEEEE"/>
<path d="M0 212.057V210.641L90.2283 120.241H91.6412L0 212.057Z" fill="#EEEEEE"/>
<path d="M0 219.131V217.716L97.2895 120.241H98.7024L0 219.131Z" fill="#EEEEEE"/>
<path d="M0 226.207V224.791L104.352 120.241H105.765L0 226.207Z" fill="#EEEEEE"/>
<path d="M0 233.282V231.866L111.413 120.241H112.826L0 233.282Z" fill="#EEEEEE"/>
<path d="M0 240.357V238.941L118.474 120.241H119.887L0 240.357Z" fill="#EEEEEE"/>
<path d="M0 247.432V246.017L125.537 120.241H126.95L0 247.432Z" fill="#EEEEEE"/>
<path d="M0 254.508V253.092L132.599 120.241H134.012L0 254.508Z" fill="#EEEEEE"/>
<path d="M0 261.582V260.166L139.66 120.241H141.072L0 261.582Z" fill="#EEEEEE"/>
<path d="M0 268.658V267.242L146.722 120.241H148.135L0 268.658Z" fill="#EEEEEE"/>
<path d="M0 275.733V274.317L89.818 184.329V185.744L0 275.733Z" fill="#EEEEEE"/>
<path d="M0 282.808V281.392L89.818 191.403V192.819L0 282.808Z" fill="#EEEEEE"/>
<path d="M0 289.883V288.468L89.818 198.479V199.895L0 289.883Z" fill="#EEEEEE"/>
<path d="M0 296.958V295.543L89.818 205.554V206.97L0 296.958Z" fill="#EEEEEE"/>
<path d="M2.0287 302H0.615739L89.818 212.629V214.044L2.0287 302Z" fill="#EEEEEE"/>
<path d="M9.09126 302H7.6783L89.818 219.705V221.12L9.09126 302Z" fill="#EEEEEE"/>
<path d="M16.1529 302H14.74L89.818 226.78V228.195L16.1529 302Z" fill="#EEEEEE"/>
<path d="M23.2141 302H21.8012L89.818 233.854V235.27L23.2141 302Z" fill="#EEEEEE"/>
<path d="M30.2764 302H28.8635L89.818 240.93V242.346L30.2764 302Z" fill="#EEEEEE"/>
<path d="M37.3375 302H35.9245L89.818 248.005V249.42L37.3375 302Z" fill="#EEEEEE"/>
<path d="M44.3996 302H42.9867L89.818 255.08V256.496L44.3996 302Z" fill="#EEEEEE"/>
<path d="M51.4614 302H50.0484L89.818 262.155V263.571L51.4614 302Z" fill="#EEEEEE"/>
<path d="M58.523 302H57.11L89.818 269.23V270.646L58.523 302Z" fill="#EEEEEE"/>
<path d="M65.5847 302H64.1717L89.818 276.305V277.721L65.5847 302Z" fill="#EEEEEE"/>
<path d="M72.6464 302H71.2334L89.818 283.381V284.796L72.6464 302Z" fill="#EEEEEE"/>
<path d="M79.708 302H78.295L89.818 290.456V291.871L79.708 302Z" fill="#EEEEEE"/>
<path d="M86.7692 302H85.3563L89.818 297.53V298.946L86.7692 302Z" fill="#EEEEEE"/>
<path d="M213.844 181.76H212.431L273.833 120.241H275.246L213.844 181.76Z" fill="#EEEEEE"/>
<path d="M220.906 181.76H219.493L280.895 120.241H282.308L220.906 181.76Z" fill="#EEEEEE"/>
<path d="M227.968 181.76H226.555L287.957 120.241H289.369L227.968 181.76Z" fill="#EEEEEE"/>
<path d="M235.029 181.76H233.616L380.512 34.5845C380.608 34.9633 380.699 35.3439 380.786 35.7264L235.029 181.76Z" fill="#EEEEEE"/>
<path d="M242.091 181.76H240.678L381.619 40.5502C381.67 40.9746 381.716 41.4008 381.756 41.8287L242.091 181.76Z" fill="#EEEEEE"/>
<path d="M249.153 181.76H247.74L381.966 47.2781V48.6937L249.153 181.76Z" fill="#EEEEEE"/>
<path d="M256.214 181.76H254.801L381.966 54.3533V55.7689L256.214 181.76Z" fill="#EEEEEE"/>
<path d="M263.276 181.76H261.863L381.966 61.4283V62.8439L263.276 181.76Z" fill="#EEEEEE"/>
<path d="M270.338 181.76H268.925L381.966 68.5035V69.9191L270.338 181.76Z" fill="#EEEEEE"/>
<path d="M277.399 181.76H275.987L381.966 75.5786V76.9942L277.399 181.76Z" fill="#EEEEEE"/>
<path d="M284.461 181.76H283.048L381.966 82.6536V84.0692L284.461 181.76Z" fill="#EEEEEE"/>
<path d="M291.523 181.76H290.11L381.966 89.7287V91.1443L291.523 181.76Z" fill="#EEEEEE"/>
<path d="M292.148 188.208V186.792L381.966 96.8033V98.2189L292.148 188.208Z" fill="#EEEEEE"/>
<path d="M292.148 195.283V193.868L381.966 103.879V105.295L292.148 195.283Z" fill="#EEEEEE"/>
<path d="M292.148 202.359V200.943L381.966 110.955V112.37L292.148 202.359Z" fill="#EEEEEE"/>
<path d="M292.148 209.434V208.018L381.966 118.03V119.445L292.148 209.434Z" fill="#EEEEEE"/>
<path d="M292.148 216.509V215.094L381.966 125.105V126.52L292.148 216.509Z" fill="#EEEEEE"/>
<path d="M292.148 223.584V222.169L381.966 132.18V133.596L292.148 223.584Z" fill="#EEEEEE"/>
<path d="M292.148 230.659V229.244L381.966 139.255V140.671L292.148 230.659Z" fill="#EEEEEE"/>
<path d="M292.148 237.734V236.319L381.966 146.33V147.746L292.148 237.734Z" fill="#EEEEEE"/>
<path d="M292.148 244.81V243.394L381.966 153.406V154.821L292.148 244.81Z" fill="#EEEEEE"/>
<path d="M292.148 251.885V250.469L381.966 160.48V161.896L292.148 251.885Z" fill="#EEEEEE"/>
<path d="M292.148 258.96V257.544L381.966 167.555V168.971L292.148 258.96Z" fill="#EEEEEE"/>
<path d="M292.148 266.035V264.62L381.966 174.631V176.047L292.148 266.035Z" fill="#EEEEEE"/>
<path d="M292.148 273.11V271.694L381.966 181.706V183.121L292.148 273.11Z" fill="#EEEEEE"/>
<path d="M292.148 280.186V278.77L381.966 188.781V190.197L292.148 280.186Z" fill="#EEEEEE"/>
<path d="M292.148 287.261V285.845L381.966 195.856V197.272L292.148 287.261Z" fill="#EEEEEE"/>
<path d="M292.148 294.336V292.92L381.966 202.931V204.347L292.148 294.336Z" fill="#EEEEEE"/>
<path d="M292.148 301.411V299.996L381.966 210.007V211.423L292.148 301.411Z" fill="#EEEEEE"/>
<path d="M298.622 302H297.209L381.966 217.083V218.498L298.622 302Z" fill="#EEEEEE"/>
<path d="M305.683 302H304.27L381.966 224.157V225.572L305.683 302Z" fill="#EEEEEE"/>
<path d="M312.745 302H311.332L381.966 231.232V232.648L312.745 302Z" fill="#EEEEEE"/>
<path d="M319.806 302H318.393L381.966 238.307V239.722L319.806 302Z" fill="#EEEEEE"/>
<path d="M326.868 302H325.455L381.966 245.382V246.798L326.868 302Z" fill="#EEEEEE"/>
<path d="M333.93 302H332.517L381.966 252.457V253.873L333.93 302Z" fill="#EEEEEE"/>
<path d="M340.991 302H339.578L381.966 259.532V260.948L340.991 302Z" fill="#EEEEEE"/>
<path d="M348.054 302H346.641L381.966 266.608V268.023L348.054 302Z" fill="#EEEEEE"/>
<path d="M355.116 302H353.703L381.966 273.683V275.099L355.116 302Z" fill="#EEEEEE"/>
<path d="M362.177 302H360.764L381.966 280.758V282.174L362.177 302Z" fill="#EEEEEE"/>
<path d="M369.239 302H367.826L381.966 287.833V289.249L369.239 302Z" fill="#EEEEEE"/>
<path d="M376.301 302H374.888L381.966 294.909V296.324L376.301 302Z" fill="#EEEEEE"/>
<path d="M428.753 263.599L428.746 262.191L450.414 240.481H451.827L428.753 263.599Z" fill="#EEEEEE"/>
<path d="M428.79 270.637L428.783 269.228L457.475 240.481H458.888L428.79 270.637Z" fill="#EEEEEE"/>
<path d="M428.827 277.675L428.819 276.267L464.537 240.481H465.95L428.827 277.675Z" fill="#EEEEEE"/>
<path d="M428.863 284.714L428.856 283.305L471.599 240.481H473.012L428.863 284.714Z" fill="#EEEEEE"/>
<path d="M428.9 291.752L428.892 290.344L478.66 240.481H480.073L428.9 291.752Z" fill="#EEEEEE"/>
<path d="M428.936 298.791L428.929 297.383L485.723 240.481H487.136L428.936 298.791Z" fill="#EEEEEE"/>
<path d="M432.795 302H431.382L492.784 240.481H494.197L432.795 302Z" fill="#EEEEEE"/>
<path d="M439.857 302H438.444L499.846 240.481H501.259L439.857 302Z" fill="#EEEEEE"/>
<path d="M446.919 302H445.506L506.908 240.481H508.321L446.919 302Z" fill="#EEEEEE"/>
<path d="M453.98 302H452.568L513.969 240.481H515.382L453.98 302Z" fill="#EEEEEE"/>
<path d="M461.042 302H459.629L521.031 240.481H522.443L461.042 302Z" fill="#EEEEEE"/>
<path d="M468.104 302H466.691L528.093 240.481H529.505L468.104 302Z" fill="#EEEEEE"/>
<path d="M475.166 302H473.753L535.154 240.481H536.567L475.166 302Z" fill="#EEEEEE"/>
<path d="M482.228 302H480.815L542.216 240.481H543.629L482.228 302Z" fill="#EEEEEE"/>
<path d="M489.288 302H487.875L549.277 240.481H550.69L489.288 302Z" fill="#EEEEEE"/>
<path d="M496.351 302H494.938L556.34 240.481H557.753L496.351 302Z" fill="#EEEEEE"/>
<path d="M503.412 302H501.999L563.401 240.481H564.814L503.412 302Z" fill="#EEEEEE"/>
<path d="M510.474 302H509.061L570.463 240.481H571.876L510.474 302Z" fill="#EEEEEE"/>
<path d="M517.537 302H516.124L577.525 240.481H578.938L517.537 302Z" fill="#EEEEEE"/>
<path d="M524.597 302H523.184L585.133 239.933C585.768 239.8 586.395 239.643 587.014 239.464L524.597 302Z" fill="#EEEEEE"/>
<path d="M531.659 302H530.246L695.721 136.211L695.726 137.621L531.659 302Z" fill="#EEEEEE"/>
<path d="M538.721 302H537.308L695.748 143.258L695.754 144.669L538.721 302Z" fill="#EEEEEE"/>
<path d="M545.783 302H544.37L695.775 150.306L695.781 151.716L545.783 302Z" fill="#EEEEEE"/>
<path d="M552.844 302H551.432L695.803 157.354L695.808 158.764L552.844 302Z" fill="#EEEEEE"/>
<path d="M559.906 302H558.494L695.83 164.402L695.836 165.812L559.906 302Z" fill="#EEEEEE"/>
<path d="M566.968 302H565.555L695.858 171.449L695.863 172.859L566.968 302Z" fill="#EEEEEE"/>
<path d="M574.03 302H572.617L695.885 178.497L695.89 179.907L574.03 302Z" fill="#EEEEEE"/>
<path d="M581.092 302H579.679L695.912 185.545L695.918 186.955L581.092 302Z" fill="#EEEEEE"/>
<path d="M588.153 302H586.74L695.94 192.593L695.945 194.003L588.153 302Z" fill="#EEEEEE"/>
<path d="M595.215 302H593.802L695.967 199.64L695.973 201.05L595.215 302Z" fill="#EEEEEE"/>
<path d="M602.277 302H600.864L695.995 206.688L696 208.098L602.277 302Z" fill="#EEEEEE"/>
<path d="M609.375 301.963C608.895 301.977 608.414 301.987 607.932 301.993L695.918 213.839C695.89 214.363 695.857 214.867 695.821 215.352L609.375 301.963Z" fill="#EEEEEE"/>
<path d="M616.995 301.403C616.468 301.466 615.94 301.523 615.41 301.576L695.27 221.564C695.207 222.105 695.14 222.644 695.069 223.181L616.995 301.403Z" fill="#EEEEEE"/>
<path d="M625.491 299.966C624.897 300.098 624.301 300.223 623.703 300.342L693.905 230.006C693.779 230.613 693.647 231.218 693.508 231.82L625.491 299.966Z" fill="#EEEEEE"/>
<path d="M635.354 297.16C634.65 297.406 633.942 297.644 633.23 297.872L691.354 239.638C691.123 240.354 690.883 241.066 690.635 241.774L635.354 297.16Z" fill="#EEEEEE"/>
<path d="M647.983 291.583C647.023 292.1 646.053 292.6 645.073 293.083L686.596 251.48C686.126 252.45 685.639 253.41 685.136 254.359L647.983 291.583Z" fill="#EEEEEE"/>
<path d="M695.693 129.162L695.699 130.572L605.086 221.358C605.274 220.729 605.44 220.091 605.583 219.443L695.693 129.162Z" fill="#EEEEEE"/>
<path d="M695.666 122.116L695.671 123.526L605.879 213.489C605.882 213.003 605.885 212.527 605.89 212.063L695.666 122.116Z" fill="#EEEEEE"/>
<path d="M695.639 115.067L695.644 116.477L606.077 206.215C606.1 205.767 606.117 205.278 606.127 204.749L695.639 115.067Z" fill="#EEEEEE"/>
<path d="M695.611 108.02L695.617 109.43L606.113 199.103C606.107 198.652 606.101 198.187 606.094 197.707L695.611 108.02Z" fill="#EEEEEE"/>
<path d="M695.584 100.972L695.589 102.383L606.023 192.119C606.018 191.66 606.014 191.192 606.011 190.715L695.584 100.972Z" fill="#EEEEEE"/>
<path d="M695.556 93.9237L695.562 95.3338L606.003 185.063C606.005 184.594 606.008 184.12 606.012 183.638L695.556 93.9237Z" fill="#EEEEEE"/>
<path d="M695.529 86.8772L695.534 88.2873L606.032 177.96V176.545L695.529 86.8772Z" fill="#EEEEEE"/>
<path d="M695.502 79.8291L695.507 81.2392L606.032 170.885V169.469L695.502 79.8291Z" fill="#EEEEEE"/>
<path d="M695.474 72.7813L695.48 74.1914L606.032 163.809V162.394L695.474 72.7813Z" fill="#EEEEEE"/>
<path d="M695.447 65.7333L695.452 67.1434L606.032 156.734V155.318L695.447 65.7333Z" fill="#EEEEEE"/>
<path d="M695.419 58.6861L695.425 60.0962L606.032 149.659V148.244L695.419 58.6861Z" fill="#EEEEEE"/>
<path d="M695.392 51.6383L695.397 53.0484L606.032 142.584V141.169L695.392 51.6383Z" fill="#EEEEEE"/>
<path d="M695.348 44.6071C695.362 45.07 695.37 45.5345 695.37 46.0007L606.032 135.509V134.094L695.348 44.6071Z" fill="#EEEEEE"/>
<path d="M694.711 38.1704C694.779 38.5769 694.843 38.9851 694.901 39.3951L606.032 128.433V127.018L694.711 38.1704Z" fill="#EEEEEE"/>
<path d="M693.365 32.444C693.475 32.8078 693.581 33.1736 693.683 33.5413L606.032 121.359V119.943L693.365 32.444Z" fill="#EEEEEE"/>
<path d="M691.458 27.2786C691.603 27.6076 691.743 27.9387 691.88 28.2718L606.032 114.283V112.868L691.458 27.2786Z" fill="#EEEEEE"/>
<path d="M689.076 22.5903C689.25 22.889 689.421 23.1899 689.588 23.493L606.032 107.208V105.793L689.076 22.5903Z" fill="#EEEEEE"/>
<path d="M686.268 18.3287C686.469 18.5997 686.667 18.873 686.862 19.1487L606.032 100.133V98.7174L686.268 18.3287Z" fill="#EEEEEE"/>
<path d="M683.06 14.4672C683.287 14.7117 683.512 14.9588 683.733 15.2085L606.032 93.058V91.6424L683.06 14.4672Z" fill="#EEEEEE"/>
<path d="M679.463 10.9967C679.716 11.2149 679.966 11.4359 680.214 11.6597L606.032 85.9834V84.5678L679.463 10.9967Z" fill="#EEEEEE"/>
<path d="M675.468 7.92284C675.748 8.11377 676.025 8.30786 676.3 8.50507L606.032 78.9072V77.4916L675.468 7.92284Z" fill="#EEEEEE"/>
<path d="M671.054 5.27096C671.363 5.43242 671.669 5.59748 671.973 5.76607L606.032 71.8327V70.4171L671.054 5.27096Z" fill="#EEEEEE"/>
<path d="M666.173 3.08562C666.514 3.21369 666.853 3.34594 667.19 3.48231L606.032 64.757V63.3414L666.173 3.08562Z" fill="#EEEEEE"/>
<path d="M660.749 1.44571C661.129 1.53379 661.507 1.62687 661.883 1.72489L606.032 57.6824V56.2668L660.749 1.44571Z" fill="#EEEEEE"/>
<path d="M654.646 0.485269C655.076 0.521767 655.504 0.564563 655.931 0.613565L606.032 50.6073V49.1917L654.646 0.485269Z" fill="#EEEEEE"/>
<path d="M647.74 0.328753H649.153L606.032 43.5317V42.1161L647.74 0.328753Z" fill="#EEEEEE"/>
<path d="M640.678 0.328753H642.091L606.032 36.4561V35.0405L640.678 0.328753Z" fill="#EEEEEE"/>
<path d="M633.616 0.328753H635.029L606.032 29.3811V27.9655L633.616 0.328753Z" fill="#EEEEEE"/>
<path d="M626.555 0.328753H627.968L606.032 22.3063V20.8907L626.555 0.328753Z" fill="#EEEEEE"/>
<path d="M619.493 0.328753H620.906L606.032 15.2308V13.8152L619.493 0.328753Z" fill="#EEEEEE"/>
<path d="M612.431 0.328753H613.844L606.032 8.15622V6.74063L612.431 0.328753Z" fill="#EEEEEE"/>
<path d="M606.782 0.328753H606.032V1.08059L606.782 0.328753Z" fill="#EEEEEE"/>
<path d="M428.636 241.074L429.228 240.481H430.641L428.644 242.482L428.636 241.074Z" fill="#EEEEEE"/>
<path d="M428.673 248.113L428.68 249.521L437.703 240.481H436.29L428.673 248.113Z" fill="#EEEEEE"/>
<path d="M443.352 240.481L428.71 255.151L428.717 256.559L444.764 240.481H443.352Z" fill="#EEEEEE"/>
<path d="M381.966 301.983V302H381.949L381.966 301.983Z" fill="#EEEEEE"/>
<path d="M378.81 29.2147C378.942 29.5568 379.069 29.9009 379.193 30.2469L292.148 117.457V116.042L378.81 29.2147Z" fill="#EEEEEE"/>
<path d="M376.613 24.3416C376.775 24.6523 376.933 24.9652 377.089 25.2802L292.148 110.382V108.967L376.613 24.3416Z" fill="#EEEEEE"/>
<path d="M373.978 19.9059C374.167 20.1884 374.354 20.4732 374.538 20.7602L292.148 103.307V101.891L373.978 19.9059Z" fill="#EEEEEE"/>
<path d="M370.939 15.8744C371.155 16.1303 371.368 16.3887 371.579 16.6496L292.148 96.231V94.8154L370.939 15.8744Z" fill="#EEEEEE"/>
<path d="M367.513 12.2321C367.755 12.4621 367.994 12.6947 368.23 12.93L292.148 89.1563V87.7407L367.513 12.2321Z" fill="#EEEEEE"/>
<path d="M363.699 8.97879C363.966 9.18222 364.231 9.38866 364.494 9.59806L292.148 82.0813V80.6656L363.699 8.97879Z" fill="#EEEEEE"/>
<path d="M359.48 6.13057C359.775 6.30591 360.067 6.48463 360.358 6.66667L292.148 75.0061V73.5905L359.48 6.13057Z" fill="#EEEEEE"/>
<path d="M354.822 3.72241C355.147 3.8666 355.47 4.01467 355.792 4.16656L292.148 67.931V66.5154L354.822 3.72241Z" fill="#EEEEEE"/>
<path d="M349.664 1.81551C350.024 1.92338 350.383 2.03583 350.74 2.15278L292.148 60.856V59.4404L349.664 1.81551Z" fill="#EEEEEE"/>
<path d="M343.901 0.513645C344.306 0.576359 344.709 0.64468 345.11 0.718529L292.148 53.7808V52.3652L343.901 0.513645Z" fill="#EEEEEE"/>
<path d="M337.351 0.000692112C337.815 0.00210171 338.278 0.0108191 338.738 0.0267392L292.148 46.7053V45.2896L337.351 0.000692112Z" fill="#EEEEEE"/>
<path d="M330.29 0.000488281H331.703L292.148 39.6307V38.2151L330.29 0.000488281Z" fill="#EEEEEE"/>
<path d="M323.228 0.000488281H324.641L292.148 32.555V31.1394L323.228 0.000488281Z" fill="#EEEEEE"/>
<path d="M316.167 0.000488281H317.58L292.148 25.4804V24.0648L316.167 0.000488281Z" fill="#EEEEEE"/>
<path d="M309.105 0.000488281H310.518L292.148 18.4053V16.9897L309.105 0.000488281Z" fill="#EEEEEE"/>
<path d="M302.043 0.000488281H303.456L292.148 11.3293V9.91369L302.043 0.000488281Z" fill="#EEEEEE"/>
<path d="M294.981 0.000488281H296.394L292.148 4.25465V2.83904L294.981 0.000488281Z" fill="#EEEEEE"/>
<path d="M167.907 120.241H169.32L107.918 181.76H106.505L167.907 120.241Z" fill="#EEEEEE"/>
<path d="M160.845 120.241H162.258L100.856 181.76H99.4432L160.845 120.241Z" fill="#EEEEEE"/>
<path d="M153.784 120.241H155.197L93.795 181.76H92.382L153.784 120.241Z" fill="#EEEEEE"/>
<path d="M113.567 181.76L174.969 120.241H176.382L114.98 181.76H113.567Z" fill="#EEEEEE"/>
<path d="M120.628 181.76H122.041L183.443 120.241H182.03L120.628 181.76Z" fill="#EEEEEE"/>
<path d="M189.093 120.241L127.691 181.76H129.104L190.506 120.241H189.093Z" fill="#EEEEEE"/>
<path d="M196.154 120.241L134.753 181.76H136.165L197.567 120.241H196.154Z" fill="#EEEEEE"/>
<path d="M203.215 120.241L141.814 181.76H143.227L204.628 120.241H203.215Z" fill="#EEEEEE"/>
<path d="M210.278 120.241L148.876 181.76H150.289L211.691 120.241H210.278Z" fill="#EEEEEE"/>
<path d="M217.339 120.241L155.937 181.76H157.35L218.752 120.241H217.339Z" fill="#EEEEEE"/>
<path d="M224.401 120.241L162.999 181.76H164.412L225.814 120.241H224.401Z" fill="#EEEEEE"/>
<path d="M231.463 120.241L170.061 181.76H171.474L232.876 120.241H231.463Z" fill="#EEEEEE"/>
<path d="M238.524 120.241L177.123 181.76H178.536L239.937 120.241H238.524Z" fill="#EEEEEE"/>
<path d="M245.586 120.241L184.184 181.76H185.597L246.999 120.241H245.586Z" fill="#EEEEEE"/>
<path d="M252.648 120.241L191.246 181.76H192.659L254.061 120.241H252.648Z" fill="#EEEEEE"/>
<path d="M259.709 120.241L198.308 181.76H199.721L261.122 120.241H259.709Z" fill="#EEEEEE"/>
<path d="M266.771 120.241L205.369 181.76H206.782L268.184 120.241H266.771Z" fill="#EEEEEE"/>
</g>
<defs>
<clipPath id="clip0_223_515">
<rect width="696" height="302" fill="white"/>
</clipPath>
</defs>
</svg>
