<svg width="100" height="50" viewBox="0 0 100 50" fill="none" xmlns="http://www.w3.org/2000/svg">
<g clip-path="url(#clip0_223_197)">
<g clip-path="url(#clip1_223_197)">
<path fill-rule="evenodd" clip-rule="evenodd" d="M56.3045 18.7274C54.1608 20.4211 52.9763 22.8597 53.0871 25.9504C53.1719 28.3177 53.4062 29.2779 53.6973 30.4711C53.8414 31.0615 53.9993 31.7089 54.16 32.6121C54.4903 34.4691 53.7929 35.9104 53.1406 36.979C52.9996 37.2099 52.8552 37.4321 52.7241 37.6337C52.7049 37.6633 52.6859 37.6925 52.6673 37.7212C52.5175 37.9519 52.3897 38.1517 52.2825 38.3391C52.0561 38.7343 52 38.9454 52 39.065C52 39.3436 52.0482 39.4693 52.0742 39.5194C52.0959 39.561 52.1288 39.6037 52.2196 39.6619C52.329 39.7321 52.4807 39.7992 52.7357 39.8974C52.7716 39.9112 52.8098 39.9257 52.85 39.941C53.0665 40.0232 53.3398 40.1271 53.6089 40.2565C54.2977 40.5878 54.769 41.0022 54.9963 41.6586C55.089 41.9263 55.1263 42.1971 55.1527 42.4039C55.1587 42.4504 55.1643 42.4956 55.1698 42.5401C55.1913 42.7142 55.2116 42.8777 55.2468 43.0702C55.3101 43.4156 55.3832 43.4984 55.4184 43.5384L55.4195 43.5396C55.4573 43.5825 55.5093 43.6305 55.6225 43.7264C55.635 43.737 55.6483 43.7482 55.6623 43.76C55.7635 43.8453 55.8998 43.9602 56.0441 44.099C56.2801 44.3261 56.39 44.6543 56.3383 44.9777C56.0858 46.5565 56.3771 47.239 56.6526 47.5361C56.9365 47.8424 57.4749 48.0355 58.4091 47.9946C59.3194 47.9547 60.3875 47.7004 61.4608 47.3801C61.9908 47.2219 62.5048 47.0531 62.9896 46.894L63 46.8905C63.4527 46.7419 63.8907 46.5981 64.271 46.4885C64.754 46.2936 65.2036 46.1136 65.6248 45.945C69.3285 44.4623 70.8389 43.8576 73.5917 41.7114C74.0272 41.3718 74.6556 41.4496 74.9952 41.8851C75.3348 42.3207 75.257 42.9491 74.8214 43.2886C71.8385 45.6143 70.0844 46.3158 66.3776 47.7983C65.9379 47.9741 65.4708 48.161 64.9709 48.3628L64.921 48.3829L64.8694 48.3976C64.5222 48.496 64.1039 48.6331 63.6145 48.7938L63.6035 48.7974C63.1247 48.9546 62.5891 49.1305 62.0328 49.2966C60.9243 49.6274 59.6626 49.9416 58.4966 49.9927C57.3544 50.0427 56.0698 49.8492 55.186 48.8959C54.3864 48.0335 54.1254 46.7799 54.2893 45.2181C54.181 45.1257 54.0467 45.0068 53.9193 44.8622C53.5903 44.4891 53.3924 44.0469 53.2795 43.4304C53.2327 43.1749 53.2041 42.9427 53.1823 42.7651C53.1775 42.7266 53.1731 42.6906 53.1689 42.6575C53.1423 42.45 53.1243 42.3648 53.1064 42.3129C53.0976 42.2877 53.094 42.2819 53.076 42.2642C53.044 42.2329 52.957 42.1622 52.742 42.0588C52.5564 41.9696 52.3748 41.9004 52.1593 41.8182C52.1137 41.8008 52.0665 41.7828 52.0175 41.764C51.7628 41.666 51.4385 41.5369 51.14 41.3455C50.8229 41.1422 50.516 40.8579 50.2997 40.4418C50.0877 40.034 50 39.5712 50 39.065C50 38.4 50.2822 37.8074 50.5468 37.3453C50.685 37.1039 50.8409 36.8616 50.9897 36.6323C51.0094 36.602 51.029 36.5718 51.0485 36.5417C51.1806 36.3385 51.3085 36.1418 51.4335 35.937C52.0018 35.0059 52.392 34.093 52.1909 32.9623C52.0634 32.2457 51.923 31.6642 51.7856 31.0956C51.475 29.8094 51.1804 28.5897 51.0884 26.022C50.9554 22.3118 52.4078 19.2572 55.0646 17.1581C57.6913 15.0828 61.4149 14 65.7719 14C66.2923 14 66.7688 14.045 67.1125 14.0892C67.2855 14.1114 67.4278 14.1337 67.5287 14.1509C67.5792 14.1595 67.6196 14.1668 67.6484 14.1722L67.6829 14.1788L67.6934 14.1809L67.6969 14.1816L67.6982 14.1819C67.6984 14.1819 67.6993 14.1821 67.5 15.162L67.6993 14.1821C68.2405 14.2921 68.59 14.8201 68.4799 15.3613C68.37 15.9021 67.8427 16.2515 67.3019 16.1422C67.3019 16.1422 67.3019 16.1422 67.3019 16.1422L67.3009 16.142C67.3009 16.142 67.301 16.142 67.3009 16.142L67.2987 16.1416L67.2795 16.1379C67.2611 16.1345 67.2319 16.1291 67.1932 16.1225C67.1156 16.1093 67.0005 16.0912 66.8579 16.0729C66.5703 16.036 66.1828 16 65.7719 16C61.7187 16 58.4784 17.0098 56.3045 18.7274Z" fill="white"/>
<path fill-rule="evenodd" clip-rule="evenodd" d="M82 8.00349C76.4643 8.14769 72 12.7414 72 18.413C72 21.2547 73.121 23.827 74.9382 25.7052L74.9902 25.7589L75.0336 25.8197C75.2653 26.1446 75.557 26.497 75.8971 26.9081L75.9458 26.9668C76.2965 27.3908 76.687 27.8654 77.0458 28.3683C77.7493 29.3545 78.439 30.5922 78.439 32H76.439C76.439 31.2339 76.0555 30.424 75.4177 29.5299C75.1057 29.0927 74.7583 28.6691 74.4048 28.2418C74.3829 28.2153 74.3609 28.1887 74.3389 28.1621C74.0327 27.7922 73.7158 27.4095 73.4494 27.0424C71.3138 24.8084 70 21.764 70 18.413C70 11.7509 75.1942 6.29597 81.7317 6.01164V6C81.8214 6 81.9108 6.00097 82 6.0029C82.0892 6.00097 82.1786 6 82.2683 6V6.01164C88.8058 6.29597 94 11.7509 94 18.413C94 21.764 92.6863 24.8084 90.5506 27.0424C90.2842 27.4095 89.9674 27.7922 89.6611 28.1621C89.6391 28.1887 89.6171 28.2153 89.5952 28.2418C89.2417 28.6691 88.8943 29.0927 88.5823 29.5299C87.9445 30.424 87.561 31.2339 87.561 32H85.561C85.561 30.5922 86.2507 29.3545 86.9542 28.3683C87.313 27.8654 87.7035 27.3908 88.0542 26.9668L88.1029 26.908C88.443 26.497 88.7347 26.1445 88.9664 25.8197L89.0098 25.7589L89.0618 25.7052C90.879 23.827 92 21.2547 92 18.413C92 12.7414 87.5357 8.14769 82 8.00349Z" fill="white"/>
<path fill-rule="evenodd" clip-rule="evenodd" d="M74 34.5C74 33.0508 75.242 32 76.6154 32H87.3846C88.758 32 90 33.0508 90 34.5C90 35.0768 89.8032 35.5905 89.4797 36C89.8032 36.4095 90 36.9232 90 37.5C90 38.9492 88.758 40 87.3846 40H76.6154C75.242 40 74 38.9492 74 37.5C74 36.9232 74.1968 36.4095 74.5203 36C74.1968 35.5905 74 35.0768 74 34.5ZM76.6154 37H77.1538C77.7061 37 78.1538 36.5523 78.1538 36C78.1538 35.4477 77.7061 35 77.1538 35H76.6154C76.2044 35 76 34.7076 76 34.5C76 34.2924 76.2044 34 76.6154 34H87.3846C87.7956 34 88 34.2924 88 34.5C88 34.7076 87.7956 35 87.3846 35H86.8462C86.2939 35 85.8462 35.4477 85.8462 36C85.8462 36.5523 86.2939 37 86.8462 37H87.3846C87.7956 37 88 37.2924 88 37.5C88 37.7076 87.7956 38 87.3846 38H76.6154C76.2044 38 76 37.7076 76 37.5C76 37.2924 76.2044 37 76.6154 37Z" fill="white"/>
<path fill-rule="evenodd" clip-rule="evenodd" d="M77 40.5C77 39.1193 78.1193 38 79.5 38H84.5C85.8807 38 87 39.1193 87 40.5C87 41.8807 85.8807 43 84.5 43H79.5C78.1193 43 77 41.8807 77 40.5ZM79.5 40C79.2239 40 79 40.2239 79 40.5C79 40.7761 79.2239 41 79.5 41H84.5C84.7761 41 85 40.7761 85 40.5C85 40.2239 84.7761 40 84.5 40H79.5Z" fill="white"/>
<path fill-rule="evenodd" clip-rule="evenodd" d="M95 18C95 17.4477 95.4477 17 96 17L99 17C99.5523 17 100 17.4477 100 18C100 18.5523 99.5523 19 99 19L96 19C95.4477 19 95 18.5523 95 18Z" fill="#1BB769"/>
<path fill-rule="evenodd" clip-rule="evenodd" d="M82 -1.95106e-06C82.5523 -1.92692e-06 83 0.447713 83 0.999998L83 4C83 4.55228 82.5523 5 82 5C81.4477 5 81 4.55228 81 4L81 0.999998C81 0.447713 81.4477 -1.9752e-06 82 -1.95106e-06Z" fill="#1BB769"/>
<path fill-rule="evenodd" clip-rule="evenodd" d="M72.8284 8.82843C72.4379 9.21895 71.8047 9.21895 71.4142 8.82843L69.2929 6.7071C68.9024 6.31658 68.9024 5.68342 69.2929 5.29289C69.6834 4.90237 70.3166 4.90237 70.7071 5.29289L72.8284 7.41421C73.219 7.80474 73.219 8.4379 72.8284 8.82843Z" fill="#1BB769"/>
<path fill-rule="evenodd" clip-rule="evenodd" d="M94.8284 5.29289C95.2189 5.68342 95.2189 6.31658 94.8284 6.7071L92.7071 8.82843C92.3166 9.21895 91.6834 9.21895 91.2929 8.82843C90.9024 8.4379 90.9024 7.80474 91.2929 7.41421L93.4142 5.29289C93.8047 4.90237 94.4379 4.90237 94.8284 5.29289Z" fill="#1BB769"/>
<path fill-rule="evenodd" clip-rule="evenodd" d="M92.1425 27.4855C92.4267 27.0119 93.0409 26.8584 93.5145 27.1425L96.0145 28.6425C96.4881 28.9267 96.6416 29.5409 96.3575 30.0145C96.0733 30.4881 95.4591 30.6416 94.9855 30.3575L92.4855 28.8575C92.0119 28.5733 91.8584 27.9591 92.1425 27.4855Z" fill="#1BB769"/>
<path d="M78.33 27.7835C77.8952 27.3394 77.8952 26.6247 78.33 26.1806L84.1047 20.2817C84.5395 19.8376 85.2391 19.8376 85.6739 20.2817C86.1087 20.7258 86.1087 21.4405 85.6739 21.8846L79.8992 27.7835C79.4644 28.2276 78.7609 28.2276 78.33 27.7835Z" fill="white"/>
<path d="M78.3301 17.8349C77.8953 17.3908 77.8953 16.6761 78.3301 16.232L84.1008 10.3331C84.5356 9.88897 85.2352 9.88897 85.67 10.3331C86.1048 10.7772 86.1048 11.4919 85.67 11.936L79.8992 17.8349C79.4644 18.279 78.7609 18.279 78.3301 17.8349Z" fill="#1BB769"/>
<path d="M82.3063 18.7514C81.8715 18.3073 81.8715 17.5927 82.3063 17.1485L84.1047 15.3155C84.5395 14.8713 85.2391 14.8713 85.6739 15.3155C86.1087 15.7596 86.1087 16.4742 85.6739 16.9184L83.8755 18.7555C83.4407 19.1956 82.7411 19.1956 82.3063 18.7514Z" fill="white"/>
<path d="M78.3261 22.8052C77.8913 22.361 77.8913 21.6464 78.3261 21.2023L80.1245 19.3692C80.5593 18.9251 81.2589 18.9251 81.6937 19.3692C82.1285 19.8133 82.1285 20.528 81.6937 20.9721L79.8953 22.8092C79.4644 23.2453 78.7609 23.2453 78.3261 22.8052Z" fill="#1BB769"/>
</g>
<path fill-rule="evenodd" clip-rule="evenodd" d="M10.5858 0H36V19C36 19.5523 35.5523 20 35 20C34.4477 20 34 19.5523 34 19V2H11.4142L2 11.4142V42H25C25.5523 42 26 42.4477 26 43C26 43.5523 25.5523 44 25 44H0V10.5858L10.5858 0Z" fill="white"/>
<path fill-rule="evenodd" clip-rule="evenodd" d="M10 10V1H12V12H1V10H10Z" fill="white"/>
<path fill-rule="evenodd" clip-rule="evenodd" d="M24.5 5C23.6716 5 23 5.67157 23 6.5C23 7.32843 23.6716 8 24.5 8C25.3284 8 26 7.32843 26 6.5C26 5.67157 25.3284 5 24.5 5ZM21 6.5C21 4.567 22.567 3 24.5 3C26.433 3 28 4.567 28 6.5C28 8.433 26.433 10 24.5 10C22.567 10 21 8.433 21 6.5Z" fill="#1BB769"/>
<path fill-rule="evenodd" clip-rule="evenodd" d="M19 15C19 12.7909 20.7909 11 23 11H26C28.2091 11 30 12.7909 30 15V19H19V15ZM23 13C21.8954 13 21 13.8954 21 15V17H28V15C28 13.8954 27.1046 13 26 13H23Z" fill="#1BB769"/>
<path fill-rule="evenodd" clip-rule="evenodd" d="M4 23C4 22.4477 4.44772 22 5 22H21C21.5523 22 22 22.4477 22 23C22 23.5523 21.5523 24 21 24H5C4.44772 24 4 23.5523 4 23Z" fill="#1BB769"/>
<path fill-rule="evenodd" clip-rule="evenodd" d="M4 28C4 27.4477 4.44772 27 5 27H17C17.5523 27 18 27.4477 18 28C18 28.5523 17.5523 29 17 29H5C4.44772 29 4 28.5523 4 28Z" fill="#1BB769"/>
<path fill-rule="evenodd" clip-rule="evenodd" d="M14 38C14 37.4477 14.4477 37 15 37L20 37C20.5523 37 21 37.4477 21 38C21 38.5523 20.5523 39 20 39L15 39C14.4477 39 14 38.5523 14 38Z" fill="#1BB769"/>
<path fill-rule="evenodd" clip-rule="evenodd" d="M4 33C4 32.4477 4.44772 32 5 32H19C19.5523 32 20 32.4477 20 33C20 33.5523 19.5523 34 19 34H5C4.44772 34 4 33.5523 4 33Z" fill="#1BB769"/>
<path fill-rule="evenodd" clip-rule="evenodd" d="M47.7834 46.3692L39.1213 37.7071L40.5355 36.2929L49.1976 44.955C50.2715 46.0289 50.2715 47.7701 49.1976 48.844L48.844 49.1976C47.7701 50.2715 46.0289 50.2715 44.955 49.1976L36.2929 40.5355L37.7071 39.1213L46.3692 47.7834C46.6621 48.0763 47.1369 48.0763 47.4298 47.7834L47.7834 47.4298C48.0763 47.1369 48.0763 46.6621 47.7834 46.3692Z" fill="white"/>
<path fill-rule="evenodd" clip-rule="evenodd" d="M31.5 23C26.8056 23 23 26.8056 23 31.5C23 36.1944 26.8056 40 31.5 40C36.1944 40 40 36.1944 40 31.5C40 26.8056 36.1944 23 31.5 23ZM21 31.5C21 25.701 25.701 21 31.5 21C37.299 21 42 25.701 42 31.5C42 37.299 37.299 42 31.5 42C25.701 42 21 37.299 21 31.5Z" fill="white"/>
<path fill-rule="evenodd" clip-rule="evenodd" d="M31.5 26.7333C28.8674 26.7333 26.7333 28.8674 26.7333 31.5C26.7333 34.1326 28.8674 36.2667 31.5 36.2667C34.1326 36.2667 36.2667 34.1326 36.2667 31.5C36.2667 28.8674 34.1326 26.7333 31.5 26.7333ZM25 31.5C25 27.9101 27.9101 25 31.5 25C35.0899 25 38 27.9101 38 31.5C38 35.0899 35.0899 38 31.5 38C27.9101 38 25 35.0899 25 31.5Z" fill="white"/>
</g>
<defs>
<clipPath id="clip0_223_197">
<rect width="100" height="50" fill="white"/>
</clipPath>
<clipPath id="clip1_223_197">
<rect width="50" height="50" fill="white" transform="translate(50)"/>
</clipPath>
</defs>
</svg>
