<svg width="286" height="100" viewBox="0 0 286 100" fill="none" xmlns="http://www.w3.org/2000/svg">
<g clip-path="url(#clip0_318_252)">
<path d="M47.0491 29.3809H40.7551V45.6645H12.5003V29.3809H0V70.2847H12.5198V54.0108H40.7746V70.3042H53.2846V35.6138C53.2846 33.9607 52.6277 32.3754 51.4583 31.2064C50.2889 30.0375 48.7028 29.3809 47.0491 29.3809Z" fill="#264037"/>
<path d="M116.293 98.1675C115.119 96.9932 114.46 95.4011 114.46 93.7411C114.46 92.0811 115.119 90.489 116.293 89.3147L148.873 56.7475C150.048 55.5748 151.64 54.9165 153.3 54.9175C154.96 54.9184 156.552 55.5784 157.725 56.7524C158.898 57.9263 159.557 59.518 159.556 61.1773C159.555 62.8366 158.895 64.4276 157.72 65.6002L125.149 98.1675C123.974 99.3409 122.382 100 120.721 100C119.06 100 117.467 99.3409 116.293 98.1675Z" fill="#264037"/>
<path d="M116.293 43.2492C115.119 42.075 114.46 40.4829 114.46 38.8228C114.46 37.1628 115.119 35.5707 116.293 34.3964L148.864 1.8292C149.447 1.24792 150.139 0.787197 150.901 0.473344C151.663 0.159492 152.478 -0.00134802 153.302 8.50964e-06C154.126 0.00136504 154.941 0.164891 155.702 0.48125C156.462 0.797609 157.153 1.26061 157.735 1.84381C158.316 2.427 158.777 3.11898 159.091 3.88024C159.405 4.64149 159.566 5.4571 159.565 6.28052C159.563 7.10393 159.4 7.91901 159.083 8.67922C158.767 9.43943 158.304 10.1299 157.72 10.7112L125.139 43.2492C124.559 43.8299 123.869 44.2905 123.11 44.6048C122.351 44.9191 121.538 45.0809 120.716 45.0809C119.895 45.0809 119.081 44.9191 118.322 44.6048C117.563 44.2905 116.874 43.8299 116.293 43.2492Z" fill="#158D51"/>
<path d="M138.731 48.3037C137.557 47.1295 136.898 45.5374 136.898 43.8774C136.898 42.2173 137.557 40.6252 138.731 39.451L148.864 29.3224C150.049 28.2009 151.625 27.5859 153.257 27.6082C154.888 27.6304 156.447 28.2883 157.601 29.4417C158.755 30.5952 159.413 32.1532 159.435 33.7842C159.457 35.4153 158.842 36.9907 157.72 38.1752L147.587 48.3037C146.413 49.4771 144.82 50.1362 143.159 50.1362C141.499 50.1362 139.906 49.4771 138.731 48.3037Z" fill="#264037"/>
<path d="M116.283 70.684C115.109 69.5098 114.45 67.9177 114.45 66.2576C114.45 64.5976 115.109 63.0055 116.283 61.8313L126.416 51.7027C126.997 51.1214 127.686 50.6602 128.446 50.3453C129.205 50.0305 130.019 49.8682 130.841 49.8678C131.662 49.8673 132.476 50.0287 133.236 50.3427C133.996 50.6567 134.686 51.1172 135.267 51.6978C135.849 52.2785 136.31 52.9679 136.625 53.7268C136.94 54.4857 137.103 55.2991 137.103 56.1208C137.103 56.9424 136.942 57.756 136.628 58.5152C136.314 59.2745 135.853 59.9644 135.272 60.5457L125.139 70.684C123.965 71.8574 122.372 72.5165 120.711 72.5165C119.051 72.5165 117.458 71.8574 116.283 70.684Z" fill="#158D51"/>
<path d="M213.119 45.645H192.24C191.7 45.6717 191.161 45.5885 190.655 45.4007C190.149 45.2128 189.686 44.924 189.295 44.552C188.904 44.1799 188.593 43.7323 188.38 43.2363C188.167 42.7403 188.058 42.2063 188.058 41.6666C188.058 41.1269 188.167 40.5929 188.38 40.0969C188.593 39.6009 188.904 39.1533 189.295 38.7812C189.686 38.4092 190.149 38.1205 190.655 37.9326C191.161 37.7447 191.7 37.6615 192.24 37.6882H224.343V29.3419H188.294C186.645 29.2956 185.004 29.5801 183.468 30.1786C181.932 30.7772 180.531 31.6776 179.349 32.8266C178.166 33.9757 177.226 35.35 176.585 36.8684C175.943 38.3867 175.612 40.0183 175.612 41.6666C175.612 43.3149 175.943 44.9465 176.585 46.4649C177.226 47.9832 178.166 49.3576 179.349 50.5066C180.531 51.6556 181.932 52.556 183.468 53.1546C185.004 53.7531 186.645 54.0376 188.294 53.9913H209.076C210.132 53.9913 211.146 54.411 211.893 55.158C212.641 55.905 213.06 56.9182 213.06 57.9746C213.06 59.031 212.641 60.0442 211.893 60.7912C211.146 61.5382 210.132 61.9578 209.076 61.9578H177.118V70.3042H213.168C216.439 70.3042 219.576 69.0052 221.89 66.6929C224.203 64.3807 225.502 61.2446 225.502 57.9746C225.502 54.7046 224.203 51.5685 221.89 49.2563C219.576 46.944 216.439 45.645 213.168 45.645" fill="#264037"/>
<path d="M248.964 61.9968C247.907 61.9968 246.893 61.5771 246.146 60.8301C245.399 60.0831 244.979 59.07 244.979 58.0135V41.7104C244.979 40.654 245.399 39.6409 246.146 38.8939C246.893 38.1469 247.907 37.7272 248.964 37.7272H285.558V29.3809H244.979L244.881 29.4782V29.3809C243.249 29.3796 241.633 29.6998 240.124 30.3233C238.616 30.9467 237.246 31.8612 236.091 33.0143C234.936 34.1675 234.021 35.5368 233.396 37.044C232.771 38.5511 232.449 40.1666 232.449 41.7981V57.9162C232.449 61.212 233.759 64.3728 236.09 66.7034C238.422 69.0339 241.584 70.3431 244.881 70.3431H285.714V61.9968H248.964Z" fill="#264037"/>
<path d="M97.0405 35.6138C97.0405 33.9711 96.3877 32.3956 95.2256 31.234C94.0635 30.0724 92.4874 29.4198 90.844 29.4198H84.5694V54.0011C84.5694 55.7152 84.5694 56.8546 84.5694 57.4097C84.5694 57.7798 84.5694 58.3252 84.5694 58.9095C84.4211 59.7593 83.9789 60.53 83.32 61.0872C82.6611 61.6443 81.8275 61.9524 80.9645 61.9579H59.8124V70.3042H84.6669C86.3742 70.3035 88.0629 69.9501 89.6271 69.2664C91.1914 68.5826 92.5975 67.5832 93.7571 66.3307L94.0884 65.9606C94.1858 65.8437 94.2832 65.7366 94.3709 65.6197C95.9216 63.6663 96.8454 61.2899 97.021 58.8024C97.021 58.5589 97.021 58.2765 97.021 57.9356L97.0405 35.6138Z" fill="#264037"/>
</g>
<defs>
<clipPath id="clip0_318_252">
<rect width="286" height="100" fill="white"/>
</clipPath>
</defs>
</svg>
