<svg width="483" height="100" viewBox="0 0 483 100" fill="none" xmlns="http://www.w3.org/2000/svg">
<g clip-path="url(#clip0_318_253)">
<path d="M116.313 98.1591C115.729 97.5784 115.266 96.8881 114.95 96.1279C114.633 95.3678 114.471 94.5527 114.471 93.7295C114.471 92.9063 114.633 92.0912 114.95 91.331C115.266 90.5708 115.729 89.8806 116.313 89.2998L148.897 56.738C149.479 56.1563 150.17 55.6949 150.931 55.3801C151.691 55.0653 152.506 54.9032 153.329 54.9032C154.153 54.9032 154.968 55.0653 155.728 55.3801C156.489 55.6949 157.18 56.1563 157.762 56.738C158.344 57.3198 158.806 58.0103 159.121 58.7704C159.436 59.5304 159.598 60.345 159.598 61.1677C159.598 61.9903 159.436 62.8049 159.121 63.565C158.806 64.325 158.344 65.0156 157.762 65.5973L125.178 98.1591C124.597 98.7426 123.906 99.2055 123.146 99.5215C122.385 99.8374 121.569 100 120.745 100C119.922 100 119.106 99.8374 118.345 99.5215C117.585 99.2055 116.894 98.7426 116.313 98.1591Z" fill="#264037"/>
<path d="M116.313 43.2478C115.729 42.6671 115.266 41.9768 114.95 41.2166C114.633 40.4565 114.471 39.6414 114.471 38.8182C114.471 37.995 114.633 37.1799 114.95 36.4197C115.266 35.6595 115.729 34.9693 116.313 34.3886L148.897 1.83481C149.479 1.25311 150.17 0.79167 150.931 0.476852C151.691 0.162035 152.506 0 153.329 0C154.153 0 154.968 0.162035 155.728 0.476852C156.489 0.79167 157.18 1.25311 157.762 1.83481C158.344 2.41652 158.806 3.10711 159.121 3.86714C159.436 4.62718 159.598 5.44178 159.598 6.26444C159.598 7.0871 159.436 7.9017 159.121 8.66174C158.806 9.42178 158.344 10.1124 157.762 10.6941L125.17 43.2478C123.994 44.4223 122.4 45.082 120.737 45.082C119.075 45.082 117.481 44.4223 116.305 43.2478" fill="#158D51"/>
<path d="M138.758 48.3217C138.174 47.741 137.711 47.0508 137.395 46.2906C137.079 45.5304 136.916 44.7153 136.916 43.8921C136.916 43.0689 137.079 42.2538 137.395 41.4937C137.711 40.7335 138.174 40.0432 138.758 39.4625L148.897 29.3307C149.479 28.749 150.17 28.2876 150.931 27.9728C151.691 27.6579 152.506 27.4959 153.329 27.4959C154.153 27.4959 154.968 27.6579 155.728 27.9728C156.489 28.2876 157.18 28.749 157.762 29.3307C158.344 29.9124 158.806 30.603 159.121 31.3631C159.436 32.1231 159.598 32.9377 159.598 33.7604C159.598 34.583 159.436 35.3976 159.121 36.1577C158.806 36.9177 158.344 37.6083 157.762 38.19L147.615 48.3217C146.44 49.4962 144.845 50.156 143.183 50.156C141.52 50.156 139.926 49.4962 138.75 48.3217" fill="#264037"/>
<path d="M116.305 70.6793C115.721 70.0986 115.258 69.4083 114.941 68.6481C114.625 67.888 114.463 67.0729 114.463 66.2497C114.463 65.4265 114.625 64.6114 114.941 63.8512C115.258 63.091 115.721 62.4008 116.305 61.82L126.443 51.6883C127.619 50.5135 129.214 49.8535 130.876 49.8535C132.539 49.8535 134.133 50.5135 135.309 51.6883C136.484 52.8631 137.145 54.4565 137.145 56.1179C137.145 57.7793 136.484 59.3727 135.309 60.5475L125.162 70.6793C123.986 71.8537 122.392 72.5135 120.729 72.5135C119.067 72.5135 117.472 71.8537 116.297 70.6793" fill="#158D51"/>
<path d="M224.05 29.6368H221.391V36.5228H209.487V29.6368H204.192V46.9365H209.487V40.0504H221.423V46.9365H226.718V32.2704C226.719 31.9215 226.651 31.5759 226.517 31.2538C226.383 30.9316 226.186 30.6394 225.937 30.3942C225.689 30.149 225.394 29.9558 225.07 29.8257C224.746 29.6956 224.4 29.6314 224.05 29.6368Z" fill="#264037"/>
<path d="M198.301 41.7337C198.301 40.3538 197.752 39.0305 196.776 38.0547C195.799 37.079 194.475 36.5309 193.094 36.5309H184.277C183.852 36.5014 183.453 36.3117 183.162 36C182.871 35.6883 182.709 35.2779 182.709 34.8517C182.709 34.4254 182.871 34.015 183.162 33.7033C183.453 33.3916 183.852 33.2019 184.277 33.1724H197.833V29.6448H182.601C181.22 29.6448 179.896 30.193 178.92 31.1687C177.943 32.1444 177.395 33.4678 177.395 34.8476C177.395 36.2275 177.943 37.5508 178.92 38.5266C179.896 39.5023 181.22 40.0504 182.601 40.0504H191.37C191.6 40.0345 191.831 40.066 192.049 40.1432C192.267 40.2204 192.466 40.3415 192.635 40.499C192.804 40.6565 192.939 40.847 193.031 41.0587C193.123 41.2704 193.171 41.4988 193.171 41.7297C193.171 41.9605 193.123 42.1889 193.031 42.4006C192.939 42.6123 192.804 42.8029 192.635 42.9604C192.466 43.1178 192.267 43.2389 192.049 43.3161C191.831 43.3933 191.6 43.4248 191.37 43.4089H177.878V46.9365H193.094C194.475 46.9344 195.798 46.3855 196.773 45.4103C197.749 44.435 198.299 43.1129 198.301 41.7337Z" fill="#264037"/>
<path d="M249.034 33.1563H258.778C259.141 33.1364 259.505 33.1906 259.846 33.3158C260.188 33.441 260.5 33.6344 260.764 33.8843C261.029 34.1342 261.239 34.4352 261.383 34.7691C261.527 35.103 261.601 35.4627 261.601 35.8262C261.601 36.1897 261.527 36.5493 261.383 36.8832C261.239 37.2171 261.029 37.5182 260.764 37.7681C260.5 38.0179 260.188 38.2114 259.846 38.3365C259.505 38.4617 259.141 38.516 258.778 38.496H249.034V33.1563ZM260.455 29.6368H243.764V46.9365H249.034V42.0156H260.455C261.287 42.0456 262.116 41.9077 262.894 41.6102C263.672 41.3126 264.381 40.8615 264.981 40.2838C265.58 39.7061 266.057 39.0137 266.382 38.2478C266.708 37.4819 266.876 36.6583 266.876 35.8262C266.876 34.994 266.708 34.1704 266.382 33.4046C266.057 32.6387 265.58 31.9462 264.981 31.3685C264.381 30.7908 263.672 30.3397 262.894 30.0422C262.116 29.7447 261.287 29.6068 260.455 29.6368Z" fill="#264037"/>
<path d="M232.618 46.9445V29.6529H235.334C236.008 29.6593 236.653 29.9322 237.127 30.412C237.601 30.8919 237.866 31.5397 237.864 32.214V46.9526L232.618 46.9445Z" fill="#264037"/>
<path d="M277.774 40.0424H288.429C288.875 40.0424 289.304 40.2197 289.62 40.5354C289.936 40.8511 290.113 41.2792 290.113 41.7256C290.113 42.1721 289.936 42.6002 289.62 42.9159C289.304 43.2315 288.875 43.4089 288.429 43.4089H277.774V40.0424ZM277.774 33.1563H287.897C288.343 33.1563 288.772 33.3337 289.088 33.6493C289.404 33.965 289.581 34.3931 289.581 34.8396C289.581 35.286 289.404 35.7141 289.088 36.0298C288.772 36.3455 288.343 36.5228 287.897 36.5228H277.774V33.1563ZM295.384 42.5713C295.382 41.5012 294.986 40.4692 294.271 39.6728C293.556 38.8763 292.572 38.3713 291.507 38.2544C292.541 37.998 293.446 37.3735 294.052 36.4979C294.659 35.6223 294.924 34.5558 294.8 33.4984C294.675 32.441 294.169 31.4654 293.376 30.7544C292.583 30.0435 291.557 29.6461 290.492 29.6368H272.528V46.9365H291.451V46.8882C292.521 46.7787 293.513 46.2769 294.235 45.4797C294.957 44.6825 295.357 43.6464 295.36 42.5713" fill="#264037"/>
<path d="M318.345 29.6368V40.7269C318.343 41.439 318.058 42.1211 317.554 42.6239C317.049 43.1266 316.366 43.4089 315.653 43.4089H309.262C308.91 43.4089 308.561 43.3395 308.235 43.2047C307.909 43.07 307.614 42.8724 307.364 42.6234C307.115 42.3743 306.918 42.0787 306.783 41.7533C306.648 41.4279 306.578 41.0791 306.578 40.7269V29.6368H301.332V41.7176C301.332 43.1089 301.884 44.4433 302.868 45.4278C303.852 46.4124 305.186 46.9666 306.578 46.9687H318.345C319.737 46.9644 321.07 46.4096 322.053 45.4255C323.036 44.4414 323.59 43.1082 323.592 41.7176V29.6368H318.345Z" fill="#264037"/>
<path d="M329.451 46.9445V29.6529H332.143C332.479 29.6529 332.812 29.7192 333.122 29.848C333.433 29.9768 333.715 30.1656 333.952 30.4035C334.189 30.6414 334.377 30.9238 334.505 31.2345C334.633 31.5452 334.699 31.8781 334.698 32.214V46.9526L329.451 46.9445Z" fill="#264037"/>
<path d="M374.011 33.1563H381.756C383.081 33.2088 384.335 33.7719 385.254 34.7275C386.173 35.6831 386.687 36.9571 386.687 38.2826C386.687 39.6081 386.173 40.8821 385.254 41.8377C384.335 42.7933 383.081 43.3564 381.756 43.4089H374.011V33.1563ZM383.481 29.6368H368.764V46.9365H383.481C385.777 46.9365 387.978 46.0252 389.601 44.403C391.225 42.7808 392.137 40.5807 392.137 38.2866C392.137 35.9925 391.225 33.7924 389.601 32.1703C387.978 30.5481 385.777 29.6368 383.481 29.6368Z" fill="#264037"/>
<path d="M429.04 29.6609H426.381V42.1766L414.872 29.6609H409.174V46.9365H414.461V34.4208L425.97 46.9365H431.668V32.2865C431.668 31.5902 431.391 30.9223 430.898 30.4299C430.406 29.9376 429.737 29.6609 429.04 29.6609Z" fill="#264037"/>
<path d="M398.028 46.9445V29.6529H400.72C401.056 29.6529 401.389 29.7192 401.699 29.848C402.01 29.9768 402.292 30.1656 402.529 30.4035C402.767 30.6414 402.955 30.9238 403.083 31.2345C403.21 31.5452 403.276 31.8781 403.275 32.214V46.9526L398.028 46.9445Z" fill="#264037"/>
<path d="M454.75 36.5309V43.3606H444.506C444.062 43.3606 443.635 43.1841 443.321 42.8699C443.007 42.5557 442.83 42.1297 442.83 41.6854V34.8235C442.83 34.3792 443.007 33.9531 443.321 33.6389C443.635 33.3248 444.062 33.1483 444.506 33.1483H459.916V29.6368H442.83L442.79 29.677V29.6368C441.403 29.6389 440.074 30.1903 439.094 31.1701C438.113 32.1498 437.561 33.4781 437.559 34.8637V41.6451C437.559 43.0314 438.11 44.3609 439.091 45.3411C440.072 46.3214 441.403 46.8721 442.79 46.8721H454.75V46.9365H459.997V36.5309H454.75Z" fill="#264037"/>
<path d="M475.946 43.3606H472.843C472.396 43.3606 471.968 43.1832 471.652 42.8675C471.336 42.5519 471.159 42.1237 471.159 41.6773C471.159 41.2309 471.336 40.8027 471.652 40.4871C471.968 40.1714 472.396 39.9941 472.843 39.9941H475.946V43.3606ZM482.313 39.9941V36.4665H479.476V34.2597H475.946V36.4665H472.843C472.396 36.4665 471.968 36.2891 471.652 35.9734C471.336 35.6578 471.159 35.2296 471.159 34.7832C471.159 34.3368 471.336 33.9086 471.652 33.593C471.968 33.2773 472.396 33.0999 472.843 33.0999H475.946V29.5804H470.248C469.163 29.5799 468.117 29.9819 467.312 30.7084C466.508 31.4349 466.001 32.4342 465.892 33.5125C465.783 34.5908 466.078 35.6713 466.72 36.5445C467.363 37.4176 468.307 38.0213 469.37 38.2383C468.346 38.443 467.43 39.0085 466.789 39.8316C466.148 40.6548 465.824 41.6809 465.877 42.7227C465.93 43.7645 466.355 44.7526 467.076 45.5069C467.797 46.2612 468.766 46.7314 469.805 46.8318V46.8801H482.297V43.3606H479.46V39.9941H482.313Z" fill="#264037"/>
<path d="M274.212 59.8952H265.298C264.847 59.8952 264.415 59.7161 264.096 59.3974C263.777 59.0787 263.598 58.6465 263.598 58.1958C263.598 57.7451 263.777 57.3129 264.096 56.9942C264.415 56.6755 264.847 56.4964 265.298 56.4964H278.999V52.9366H263.598C262.237 52.9898 260.949 53.5676 260.005 54.5489C259.06 55.5301 258.533 56.8385 258.533 58.1998C258.533 59.5611 259.06 60.8696 260.005 61.8508C260.949 62.832 262.237 63.4098 263.598 63.463H272.463C272.914 63.463 273.347 63.6421 273.666 63.9608C273.984 64.2795 274.164 64.7117 274.164 65.1624C274.164 65.6131 273.984 66.0453 273.666 66.364C273.347 66.6827 272.914 66.8618 272.463 66.8618H258.827V70.4216H274.212C274.921 70.4493 275.628 70.3337 276.291 70.0817C276.955 69.8297 277.56 69.4464 278.071 68.955C278.583 68.4635 278.99 67.8739 279.268 67.2215C279.546 66.5691 279.689 65.8674 279.689 65.1584C279.689 64.4493 279.546 63.7476 279.268 63.0952C278.99 62.4428 278.583 61.8532 278.071 61.3618C277.56 60.8703 276.955 60.4871 276.291 60.2351C275.628 59.9831 274.921 59.8674 274.212 59.8952Z" fill="#264037"/>
<path d="M422.456 70.4216V52.9366H425.172C425.858 52.9366 426.516 53.209 427.001 53.6938C427.486 54.1787 427.759 54.8363 427.759 55.5219V70.4216H422.456Z" fill="#264037"/>
<path d="M356.829 52.9366V64.1476C356.824 64.866 356.535 65.5535 356.024 66.0592C355.514 66.565 354.823 66.8478 354.104 66.8457H347.657C346.939 66.8457 346.251 66.5619 345.742 66.0564C345.233 65.5509 344.945 64.8647 344.941 64.1476V52.9366H339.638V65.1141C339.638 66.5203 340.196 67.8691 341.191 68.8642C342.185 69.8593 343.534 70.4194 344.941 70.4216H356.853C358.26 70.4194 359.609 69.8593 360.603 68.8642C361.597 67.8691 362.156 66.5203 362.156 65.1141V52.9366H356.829Z" fill="#264037"/>
<path d="M251.734 52.9366H249.034V65.6054L237.397 52.9366H231.626V70.4216H236.945V57.7528L248.632 70.4216H254.394V55.5702C254.394 54.8653 254.114 54.1893 253.615 53.6909C253.116 53.1925 252.44 52.9125 251.734 52.9125" fill="#264037"/>
<path d="M479.653 52.9366H476.953V65.6054L465.308 52.9366H459.537V70.4216H464.889V57.7528L476.542 70.4216H482.313V55.5702C482.313 54.8653 482.033 54.1893 481.534 53.6909C481.035 53.1925 480.359 52.9125 479.653 52.9125" fill="#264037"/>
<path d="M184.157 66.8457C183.706 66.8457 183.273 66.6666 182.954 66.3479C182.635 66.0292 182.456 65.597 182.456 65.1463V58.1958C182.456 57.7451 182.635 57.3129 182.954 56.9942C183.273 56.6755 183.706 56.4964 184.157 56.4964H199.784V52.9366H182.408C181.002 52.9388 179.654 53.4978 178.66 54.4911C177.666 55.4845 177.107 56.8312 177.105 58.2361V65.1221C177.107 66.527 177.666 67.8737 178.66 68.867C179.654 69.8604 181.002 70.4194 182.408 70.4216H199.872V66.8457H184.157Z" fill="#264037"/>
<path d="M373.149 66.8457C372.698 66.8457 372.265 66.6666 371.946 66.3479C371.627 66.0292 371.448 65.597 371.448 65.1463V58.1958C371.448 57.7451 371.627 57.3129 371.946 56.9942C372.265 56.6755 372.698 56.4964 373.149 56.4964H388.776V52.9366H371.408C370.001 52.9366 368.651 53.4947 367.655 54.4883C366.659 55.4819 366.099 56.8298 366.097 58.2361V65.1221C366.099 66.5284 366.659 67.8763 367.655 68.8699C368.651 69.8635 370.001 70.4216 371.408 70.4216H388.84V66.8457H373.149Z" fill="#264037"/>
<path d="M209.133 65.1624V58.1958C209.133 57.7451 209.312 57.3129 209.631 56.9942C209.95 56.6755 210.382 56.4964 210.833 56.4964H220.641C221.092 56.4986 221.523 56.6783 221.841 56.9965C222.16 57.3147 222.34 57.7458 222.342 58.1958V65.1624C222.336 65.6096 222.154 66.0365 221.836 66.3513C221.518 66.6661 221.089 66.8436 220.641 66.8457H210.833C210.382 66.8457 209.95 66.6666 209.631 66.3479C209.312 66.0292 209.133 65.597 209.133 65.1463M222.382 52.9205H209.092C207.685 52.9205 206.335 53.4786 205.34 54.4722C204.344 55.4658 203.783 56.8137 203.781 58.22V65.106C203.783 66.5123 204.344 67.8602 205.34 68.8538C206.335 69.8474 207.685 70.4055 209.092 70.4055H222.382C223.788 70.4033 225.136 69.8443 226.13 68.8509C227.124 67.8576 227.683 66.5109 227.685 65.106V58.2361C227.683 56.8312 227.124 55.4845 226.13 54.4911C225.136 53.4978 223.788 52.9388 222.382 52.9366" fill="#264037"/>
<path d="M437.043 65.1624V58.1958C437.046 57.7458 437.225 57.3147 437.544 56.9965C437.862 56.6783 438.294 56.4986 438.744 56.4964H448.552C449.003 56.4964 449.436 56.6755 449.755 56.9942C450.074 57.3129 450.253 57.7451 450.253 58.1958V65.1624C450.248 65.6103 450.067 66.0384 449.749 66.3536C449.431 66.6688 449 66.8457 448.552 66.8457H438.744C438.294 66.8435 437.862 66.6638 437.544 66.3456C437.225 66.0273 437.046 65.5963 437.043 65.1463M450.293 52.9205H437.043C435.638 52.9226 434.29 53.4817 433.296 54.475C432.302 55.4684 431.742 56.8151 431.74 58.22V65.106C431.742 66.5109 432.302 67.8576 433.296 68.8509C434.29 69.8443 435.638 70.4033 437.043 70.4055H450.333C451.741 70.4055 453.09 69.8474 454.086 68.8538C455.082 67.8602 455.642 66.5123 455.644 65.106V58.2361C455.642 56.8298 455.082 55.4819 454.086 54.4883C453.09 53.4947 451.741 52.9366 450.333 52.9366" fill="#264037"/>
<path d="M309.19 52.9366H283.416V56.4964H293.627V70.4216H298.978V56.4964H309.19V52.9366Z" fill="#264037"/>
<path d="M418.515 52.9366H392.749V56.4964H402.96V70.4216H408.304V56.4964H418.515V52.9366Z" fill="#264037"/>
<path d="M330.297 65.2349C331.762 64.8549 333.039 63.9571 333.891 62.7081C334.744 61.459 335.115 59.9433 334.935 58.442C334.755 56.9407 334.036 55.5555 332.912 54.5431C331.788 53.5308 330.335 52.9601 328.822 52.9366H313.131V70.4216H318.434V56.4964H327.114C327.83 56.4964 328.516 56.7807 329.023 57.2867C329.529 57.7927 329.814 58.4789 329.814 59.1945C329.814 59.91 329.529 60.5963 329.023 61.1023C328.516 61.6083 327.83 61.8925 327.114 61.8925H321.472L330.337 70.4216H335.64L330.297 65.2349Z" fill="#264037"/>
<path d="M348.535 43.4089C347.823 43.4089 347.139 43.1266 346.635 42.6239C346.13 42.1211 345.846 41.439 345.844 40.7269V29.6368H340.597V41.7176C340.597 43.1089 341.149 44.4433 342.133 45.4278C343.117 46.4124 344.451 46.9666 345.844 46.9687H362.865V43.4089H348.535Z" fill="#264037"/>
<path d="M47.0587 29.379H40.7643V45.664H12.5565V29.379H0V70.3008H12.5243V54.0078H40.732V70.3008H53.2885V35.6127C53.2896 34.7945 53.1292 33.9841 52.8166 33.2278C52.504 32.4716 52.0453 31.7843 51.4667 31.2053C50.8881 30.6264 50.201 30.1671 49.4446 29.8537C48.6882 29.5403 47.8774 29.379 47.0587 29.379Z" fill="#264037"/>
<path d="M97.059 35.6127C97.059 33.9701 96.406 32.3948 95.2437 31.2333C94.0814 30.0718 92.505 29.4193 90.8613 29.4193H84.6234V53.9997C84.6234 55.7152 84.6234 56.8508 84.6234 57.4065C84.6234 57.777 84.6234 58.3247 84.6234 58.9045C84.4788 59.7552 84.0379 60.5273 83.3787 61.0844C82.7194 61.6416 81.8842 61.9478 81.0208 61.9489H59.8247V70.3008C63.9672 70.3008 84.6475 70.3008 84.6475 70.3008C86.3556 70.3007 88.0452 69.9471 89.6098 69.2624C91.1744 68.5777 92.5801 67.5766 93.7385 66.3222C93.8675 66.1933 93.9722 66.0725 94.0689 65.9597L94.3591 65.6134C95.9256 63.6637 96.8641 61.2853 97.0509 58.7918C97.0857 58.5059 97.1018 58.218 97.0993 57.93L97.059 35.6127Z" fill="#264037"/>
</g>
<defs>
<clipPath id="clip0_318_253">
<rect width="483" height="100" fill="white"/>
</clipPath>
</defs>
</svg>
