<svg width="301" height="100" viewBox="0 0 301 100" fill="none" xmlns="http://www.w3.org/2000/svg">
<g clip-path="url(#clip0_318_251)">
<path d="M116.146 98.1614C113.697 95.7098 113.697 91.7651 116.146 89.3136L148.685 56.7528C151.135 54.3013 155.077 54.3013 157.527 56.7528C159.977 59.2044 159.977 63.1491 157.527 65.6006L124.988 98.1614C122.538 100.613 118.574 100.613 116.146 98.1614Z" fill="#264037"/>
<path d="M116.146 43.2472C113.697 40.7956 113.697 36.8509 116.146 34.3994L148.663 1.83865C151.113 -0.612882 155.055 -0.612882 157.505 1.83865C159.955 4.29017 159.955 8.2349 157.505 10.6864L124.988 43.2472C122.538 45.6987 118.574 45.6987 116.146 43.2472Z" fill="#158D51"/>
<path d="M138.552 48.3062C136.102 45.8547 136.102 41.91 138.552 39.4584L148.685 29.3403C151.135 26.8888 155.077 26.8888 157.527 29.3403C159.977 31.7918 159.977 35.7366 157.527 38.1881L147.393 48.3285C144.944 50.7577 141.002 50.7577 138.552 48.3062Z" fill="#264037"/>
<path d="M116.124 70.682C113.674 68.2304 113.674 64.2857 116.124 61.8342L126.258 51.7161C128.708 49.2645 132.65 49.2645 135.1 51.7161C137.549 54.1676 137.549 58.1123 135.1 60.5639L124.966 70.7043C122.538 73.1112 118.574 73.1112 116.124 70.682Z" fill="#158D51"/>
<path d="M46.9931 29.3849H40.7125V45.6764H12.5166V29.3849H0V70.3031H12.5166V54.0116H40.7125V70.3031H53.2291V35.6251C53.2069 32.1707 50.4229 29.3849 46.9931 29.3849Z" fill="#264037"/>
<path d="M96.9038 35.6251C96.9038 32.2153 94.1421 29.4295 90.7123 29.4295H84.4539V54.0116C84.4316 55.7277 84.4985 56.8643 84.4539 57.4214C84.4316 57.8003 84.4317 58.3352 84.4317 58.9146C84.1421 60.6307 82.6499 61.9456 80.8459 61.9679H59.7324L59.777 70.3031C63.9195 70.3031 84.5653 70.3031 84.5653 70.3031C88.151 70.3031 91.3804 68.7653 93.6521 66.3361C93.7857 66.2024 93.8748 66.0909 93.9862 65.9795C94.0753 65.8681 94.1866 65.7566 94.2757 65.6452L94.298 65.6229C95.8124 63.7286 96.7701 61.3662 96.9483 58.7809C96.9706 58.5358 96.9928 58.246 96.9928 57.9117L96.9038 35.6251Z" fill="#264037"/>
<path d="M249.687 43.6706L249.598 44.0049L256.346 44.6735L256.413 44.4506C257.46 40.6842 257.616 37.5195 257.66 34.5331V31.6804C257.66 30.2318 256.48 29.0506 255.032 29.0506H226.836V34.4662H250.823C250.801 37.4526 250.6 40.1716 249.687 43.6706Z" fill="#264037"/>
<path d="M242.092 65.5783C236.168 65.5783 232.894 64.464 232.894 62.4136C232.894 60.341 236.168 59.2044 242.092 59.2044C248.061 59.2044 251.335 60.341 251.335 62.4136C251.335 64.464 248.061 65.5783 242.092 65.5783ZM242.092 54.0339C232.382 54.0339 226.346 57.2431 226.346 62.4359C226.346 67.5841 232.382 70.7934 242.092 70.7934C251.825 70.7934 257.883 67.5841 257.883 62.4359C257.883 57.2431 251.847 54.0339 242.092 54.0339Z" fill="#264037"/>
<path d="M259.821 46.7462H243.83V39.3024H236.992V46.7684H222.427V52.2287H262.449V49.3983C262.449 47.9273 261.268 46.7462 259.821 46.7462Z" fill="#264037"/>
<path d="M275.923 44.4283C272.76 44.4283 270.711 42.534 270.711 39.5922C270.711 36.6503 272.76 34.756 275.923 34.756C279.108 34.756 281.179 36.6503 281.179 39.5922C281.179 42.534 279.108 44.4283 275.923 44.4283ZM298.039 29.0506H293.829V36.7395H287.371C286.012 32.1261 281.446 29.0506 275.923 29.0506C269.108 29.0506 264.164 33.4856 264.164 39.5922C264.164 45.6987 269.108 50.1337 275.923 50.1337C281.535 50.1337 286.123 46.9913 287.437 42.3111H293.852V50.1337H300.667V31.7027C300.667 30.2318 299.486 29.0506 298.039 29.0506Z" fill="#264037"/>
<path d="M293.874 64.7983H277.95V61.5445H293.874V64.7983ZM298.039 52.2064H293.874V56.0842H277.95V52.2064H271.157V70.2585H300.667V54.8585C300.667 53.3876 299.486 52.2064 298.039 52.2064Z" fill="#264037"/>
<path d="M207.148 62.4136C207.148 64.4417 203.941 65.5783 198.15 65.5783C192.382 65.5783 189.197 64.464 189.197 62.4136C189.197 60.341 192.382 59.2044 198.15 59.2044C203.941 59.2044 207.148 60.3633 207.148 62.4136ZM218.239 52.2287V49.3983C218.239 47.9496 217.059 46.7684 215.611 46.7684H178.217V52.2287H194.81V54.1676C187.059 54.8362 182.382 57.8672 182.382 62.4136C182.382 67.5618 188.418 70.7711 198.128 70.7711C207.861 70.7711 213.919 67.5618 213.919 62.4136C213.919 57.8895 209.309 54.8585 201.647 54.1676V52.2287H218.239Z" fill="#264037"/>
<path d="M198.24 38.1435C200.89 42.3557 206.525 45.0078 214.141 45.6541L215.5 45.7433V40.283C208.952 39.659 204.654 37.5195 203.228 34.5108H214.698V31.6804C214.698 30.2318 213.518 29.0506 212.07 29.0506H181.825V34.5108H193.251C191.803 37.5195 187.527 39.6367 181.024 40.2608V45.721L182.338 45.6318C189.955 45.0078 195.567 42.3557 198.24 38.1435Z" fill="#264037"/>
</g>
<defs>
<clipPath id="clip0_318_251">
<rect width="301" height="100" fill="white"/>
</clipPath>
</defs>
</svg>
