<svg width="100" height="100" viewBox="0 0 100 100" fill="none" xmlns="http://www.w3.org/2000/svg">
<g clip-path="url(#clip0_221_164)">
<g clip-path="url(#clip1_221_164)">
<path fill-rule="evenodd" clip-rule="evenodd" d="M65.6636 62.357L74.1523 70.6785L74.1626 70.6889C74.2742 70.8015 74.3828 70.87 74.4963 70.915C74.627 70.9668 74.7822 71 74.9797 71C75.1772 71 75.3323 70.9668 75.4631 70.915C75.5765 70.87 75.6851 70.8015 75.7967 70.6889L75.807 70.6785L84.2964 62.3552C84.8457 61.7749 85.2624 61.1265 85.556 60.4007C85.8511 59.6715 86 58.9066 86 58.0911C86 56.3775 85.4383 54.9691 84.2903 53.7581C83.1643 52.5702 81.8386 52 80.1878 52C79.4608 52 78.776 52.1312 78.1193 52.3924C77.4728 52.6495 76.8936 53.0241 76.3726 53.5298L74.9797 54.8818L73.5867 53.5298C73.0657 53.0241 72.4865 52.6495 71.84 52.3924C71.1833 52.1312 70.4985 52 69.7715 52C68.1498 52 66.8335 52.5623 65.7037 53.7438C64.5612 54.9386 64 56.3367 64 58.05C64 58.884 64.1421 59.6945 64.4302 60.4916C64.6892 61.2082 65.0902 61.8182 65.6482 62.3426L65.6636 62.357ZM85.7214 63.7589L77.2175 72.0964C76.9191 72.3976 76.5801 72.6235 76.2003 72.7741C75.8206 72.9247 75.4137 73 74.9797 73C74.5456 73 74.1388 72.9247 73.759 72.7741C73.3792 72.6235 73.0402 72.3976 72.7418 72.0964L64.2786 63.8C63.4919 63.0607 62.9155 62.1845 62.5493 61.1714C62.1831 60.1583 62 59.1179 62 58.05C62 55.8321 62.7527 53.936 64.2582 52.3616C65.7637 50.7872 67.6015 50 69.7715 50C70.748 50 71.6839 50.178 72.579 50.5339C73.4742 50.8899 74.2744 51.4101 74.9797 52.0946C75.6849 51.4101 76.4851 50.8899 77.3803 50.5339C78.2754 50.178 79.2113 50 80.1878 50C82.385 50 84.2363 50.794 85.7418 52.3821C87.2473 53.9702 88 55.8732 88 58.0911C88 59.1589 87.8033 60.1789 87.41 61.1509C87.0167 62.1229 86.4538 62.9923 85.7214 63.7589Z" fill="#1BB769"/>
<path fill-rule="evenodd" clip-rule="evenodd" d="M54.4241 59.9999C54.4384 60 54.4522 60 54.4655 60C55.0571 60 55.8884 60.1777 56.5798 60.8231C57.2914 61.4872 57.7143 62.5146 57.7143 63.9326C57.7143 64.824 57.6772 65.9693 57.6343 67.2919C57.6178 67.8028 57.6004 68.3402 57.5839 68.8997C57.5407 70.3683 57.5032 72.0088 57.5019 73.7704C58.1693 73.4521 58.8952 73.3742 59.5601 73.4472C60.5586 73.5568 61.5312 74.0135 62.1764 74.6622C62.3494 74.836 62.5194 75.0067 62.6882 75.1761C63.9414 76.4342 65.129 77.6263 66.9662 79.5776C68.0983 80.78 68.7484 81.7296 69.4186 82.7085C69.5801 82.9444 69.7427 83.182 69.9136 83.4252C70.619 84.4295 71.1553 85.2613 71.5026 86.128C71.8615 87.0233 72 87.9053 72 89V95C72 95.5523 71.5523 96 71 96C70.4477 96 70 95.5523 70 95V89C70 88.0947 69.8885 87.4767 69.6462 86.872C69.3923 86.2387 68.9763 85.5704 68.2769 84.5748C68.0856 84.3024 67.9105 84.0469 67.7421 83.8013C67.0833 82.8401 66.5278 82.0295 65.51 80.9486C63.6928 79.0185 62.523 77.8442 61.2716 76.5879C61.1026 76.4183 60.9322 76.2472 60.7585 76.0726C60.4602 75.7728 59.9225 75.499 59.3418 75.4352C58.7815 75.3737 58.2959 75.5148 57.952 75.876C57.7465 76.0917 57.6089 76.3743 57.5444 76.7041C57.5595 76.9561 57.5842 77.2318 57.626 77.5124C57.7355 78.2479 57.931 78.7773 58.1645 79.0225L62.9759 84.0744C63.3568 84.4743 63.3413 85.1073 62.9414 85.4882C62.5415 85.8691 61.9085 85.8537 61.5276 85.4537L56.7162 80.4018C56.0673 79.7203 55.6345 78.6902 55.5282 77.66C55.4933 77.3215 55.4922 76.9651 55.5366 76.6069C55.5242 76.3335 55.5212 76.1028 55.5191 75.9426C55.5187 75.9072 55.5182 75.8753 55.5178 75.8471C55.4753 73.2602 55.5249 70.8765 55.5848 68.8409C55.6019 68.2585 55.6198 67.7075 55.6365 67.1897C55.6788 65.8842 55.7143 64.7894 55.7143 63.9326C55.7143 62.918 55.4229 62.4791 55.2151 62.2851C54.9872 62.0723 54.6941 62 54.4655 62C54.0389 62 53.8631 62.0227 53.6974 62.1529C53.5201 62.2922 53.1598 62.7275 52.9368 64.0937C52.4699 66.954 52 73.68 52 79C52 79.5281 52.1942 80.2096 52.6067 81.0253C53.0132 81.8291 53.5959 82.6938 54.2854 83.5685C55.6642 85.3178 57.4023 87.0233 58.8014 88.2474C60.277 89.5386 61.2066 90.6398 61.7533 91.7437C62.312 92.8719 62.4286 93.9184 62.4286 95C62.4286 95.5523 61.9809 96 61.4286 96C60.8763 96 60.4286 95.5523 60.4286 95C60.4286 94.0816 60.3308 93.378 59.961 92.6313C59.5791 91.8602 58.8659 90.9614 57.4844 89.7526C56.0262 88.4767 54.193 86.6821 52.7146 84.8065C51.9755 83.8687 51.3083 82.8896 50.8219 81.9278C50.3415 80.9779 50 79.9719 50 79C50 73.619 50.4724 66.7763 50.9629 63.7715C51.2186 62.2051 51.706 61.1741 52.4618 60.5803C53.2033 59.9977 54.0151 59.9992 54.4241 59.9999Z" fill="white"/>
<path fill-rule="evenodd" clip-rule="evenodd" d="M58 96C58 94.8954 58.8954 94 60 94H72C73.1046 94 74 94.8954 74 96V99C74 99.5523 73.5523 100 73 100C72.4477 100 72 99.5523 72 99V96H60V99C60 99.5523 59.5523 100 59 100C58.4477 100 58 99.5523 58 99V96Z" fill="white"/>
<path fill-rule="evenodd" clip-rule="evenodd" d="M95.5759 59.9999C95.5616 60 95.5478 60 95.5345 60C94.9429 60 94.1116 60.1777 93.4202 60.8231C92.7086 61.4872 92.2857 62.5146 92.2857 63.9326C92.2857 64.824 92.3228 65.9693 92.3657 67.2919C92.3822 67.8028 92.3996 68.3402 92.4161 68.8997C92.4593 70.3683 92.4968 72.0088 92.4981 73.7704C91.8307 73.4521 91.1048 73.3742 90.4399 73.4472C89.4414 73.5568 88.4688 74.0135 87.8236 74.6622C87.6506 74.836 87.4806 75.0067 87.3118 75.1761C86.0586 76.4342 84.871 77.6263 83.0338 79.5776C81.9017 80.78 81.2516 81.7296 80.5814 82.7085C80.4199 82.9444 80.2573 83.182 80.0864 83.4252C79.381 84.4295 78.8447 85.2613 78.4974 86.128C78.1385 87.0233 78 87.9053 78 89V95C78 95.5523 78.4477 96 79 96C79.5523 96 80 95.5523 80 95V89C80 88.0947 80.1115 87.4767 80.3538 86.872C80.6076 86.2387 81.0237 85.5704 81.7231 84.5748C81.9144 84.3024 82.0895 84.0469 82.2579 83.8013C82.9167 82.8401 83.4722 82.0295 84.49 80.9486C86.3072 79.0185 87.477 77.8442 88.7284 76.5879C88.8974 76.4183 89.0678 76.2472 89.2415 76.0726C89.5397 75.7728 90.0775 75.499 90.6582 75.4352C91.2185 75.3737 91.7041 75.5148 92.048 75.876C92.2535 76.0917 92.3911 76.3743 92.4556 76.7041C92.4405 76.9561 92.4158 77.2318 92.374 77.5124C92.2645 78.2479 92.069 78.7773 91.8355 79.0225L87.0241 84.0744C86.6432 84.4743 86.6587 85.1073 87.0586 85.4882C87.4585 85.8691 88.0915 85.8537 88.4724 85.4537L93.2838 80.4018C93.9327 79.7203 94.3655 78.6902 94.4718 77.66C94.5067 77.3215 94.5078 76.9651 94.4634 76.6069C94.4758 76.3335 94.4788 76.1028 94.4809 75.9426C94.4813 75.9072 94.4818 75.8753 94.4822 75.8471C94.5247 73.2602 94.4751 70.8765 94.4152 68.8409C94.3981 68.2585 94.3802 67.7075 94.3635 67.1897C94.3212 65.8842 94.2857 64.7894 94.2857 63.9326C94.2857 62.918 94.5771 62.4791 94.7849 62.2851C95.0128 62.0723 95.3059 62 95.5345 62C95.9611 62 96.1368 62.0227 96.3025 62.1529C96.4799 62.2922 96.8402 62.7275 97.0632 64.0937C97.5301 66.954 98 73.68 98 79C98 79.5281 97.8058 80.2096 97.3933 81.0253C96.9868 81.8291 96.4041 82.6938 95.7146 83.5685C94.3358 85.3178 92.5977 87.0233 91.1986 88.2474C89.723 89.5386 88.7934 90.6398 88.2467 91.7437C87.688 92.8719 87.5714 93.9184 87.5714 95C87.5714 95.5523 88.0191 96 88.5714 96C89.1237 96 89.5714 95.5523 89.5714 95C89.5714 94.0816 89.6692 93.378 90.039 92.6313C90.4209 91.8602 91.1341 90.9614 92.5156 89.7526C93.9738 88.4767 95.807 86.6821 97.2854 84.8065C98.0245 83.8687 98.6917 82.8896 99.1781 81.9278C99.6585 80.9779 100 79.9719 100 79C100 73.619 99.5276 66.7763 99.0371 63.7715C98.7814 62.2051 98.2939 61.1741 97.5382 60.5803C96.7967 59.9977 95.9849 59.9992 95.5759 59.9999Z" fill="white"/>
<path fill-rule="evenodd" clip-rule="evenodd" d="M92 96C92 94.8954 91.1046 94 90 94H78C76.8954 94 76 94.8954 76 96V99C76 99.5523 76.4477 100 77 100C77.5523 100 78 99.5523 78 99L78 96H90V99C90 99.5523 90.4477 100 91 100C91.5523 100 92 99.5523 92 99V96Z" fill="white"/>
</g>
<g clip-path="url(#clip2_221_164)">
<path fill-rule="evenodd" clip-rule="evenodd" d="M11 51C11 50.4477 11.4477 50 12 50H16C16.5523 50 17 50.4477 17 51V52.379C18.0739 52.6553 19.1173 53.0826 20.0965 53.6609L21.0711 52.6863C21.2586 52.4988 21.513 52.3934 21.7782 52.3934C22.0434 52.3934 22.2977 52.4988 22.4853 52.6863L25.3137 55.5147C25.7042 55.9052 25.7042 56.5384 25.3137 56.9289L24.3391 57.9035C24.5673 58.29 24.7721 58.6866 24.9533 59.0912C25.1791 59.5952 24.9535 60.1868 24.4495 60.4126C23.9455 60.6384 23.3538 60.4128 23.1281 59.9088C22.8837 59.3634 22.5881 58.8354 22.2409 58.332C21.9447 57.9025 22.0304 57.323 22.4241 56.9959C22.4433 56.9729 22.4637 56.9505 22.4853 56.9289L23.1924 56.2218L21.7782 54.8076L21.0711 55.5147C21.0494 55.5363 21.0271 55.5568 21.004 55.576C20.6769 55.9696 20.0974 56.0553 19.668 55.7591C18.4901 54.9468 17.1767 54.4155 15.8206 54.1658C15.3107 54.0719 14.9628 53.6066 15.005 53.1005C15.0017 53.0674 15 53.0339 15 53V52H13V53C13 53.0307 12.9986 53.0611 12.9959 53.0912C13.0431 53.6009 12.6941 54.0714 12.1809 54.1658C10.8242 54.4154 9.51017 54.9466 8.33201 55.7591C7.90252 56.0553 7.32303 55.9696 6.99589 55.5759C6.97288 55.5567 6.95054 55.5363 6.92893 55.5147L6.22183 54.8076L4.80761 56.2218L5.51472 56.9289C5.53634 56.9506 5.55676 56.9729 5.57599 56.9959C5.96959 57.3231 6.05526 57.9025 5.75908 58.332C4.94657 59.5102 4.41539 60.8242 4.1658 62.1809C4.0714 62.6941 3.60088 63.0431 3.09116 62.9959C3.06113 62.9986 3.03073 63 3 63H2V65H3C3.03073 65 3.06113 65.0014 3.09115 65.0041C3.60087 64.9569 4.0714 65.3059 4.1658 65.8191C4.41539 67.1758 4.94657 68.4898 5.75908 69.668C6.05525 70.0974 5.96959 70.6769 5.576 71.004C5.55677 71.0271 5.53634 71.0494 5.51472 71.0711L4.80762 71.7782L6.22183 73.1924L6.92894 72.4853C6.95054 72.4637 6.97289 72.4433 6.9959 72.424C7.32305 72.0304 7.90253 71.9447 8.33201 72.2409C9.51017 73.0534 10.8242 73.5846 12.1809 73.8342C12.694 73.9286 13.0431 74.3991 12.9959 74.9088C12.9986 74.9388 13 74.9692 13 75V76H15V75C15 74.9693 15.0014 74.9389 15.0041 74.9088C14.9569 74.3991 15.3059 73.9286 15.8191 73.8342C16.9415 73.6277 18.0346 73.2285 19.0455 72.6369C19.5222 72.358 20.1347 72.5183 20.4137 72.9949C20.6926 73.4716 20.5323 74.0842 20.0557 74.3631C19.0882 74.9292 18.0588 75.3484 17 75.6207V77C17 77.5523 16.5523 78 16 78H12C11.4477 78 11 77.5523 11 77V75.6207C9.92617 75.3445 8.88271 74.9173 7.90354 74.3391L6.92894 75.3137C6.53841 75.7042 5.90525 75.7042 5.51472 75.3137L2.68629 72.4853C2.49876 72.2977 2.3934 72.0434 2.3934 71.7782C2.3934 71.513 2.49876 71.2586 2.68629 71.0711L3.66089 70.0965C3.08267 69.1173 2.65548 68.0738 2.37925 67H1C0.734784 67 0.48043 66.8946 0.292893 66.7071C0.105357 66.5196 0 66.2652 0 66L1.78814e-07 62C1.78814e-07 61.4477 0.447715 61 1 61H2.37925C2.65548 59.9262 3.08267 58.8827 3.66089 57.9035L2.68629 56.9289C2.49876 56.7414 2.3934 56.487 2.3934 56.2218C2.3934 55.9566 2.49876 55.7023 2.68629 55.5147L5.51472 52.6863C5.70226 52.4988 5.95661 52.3934 6.22183 52.3934C6.48704 52.3934 6.7414 52.4988 6.92894 52.6863L7.90354 53.6609C8.88271 53.0827 9.92617 52.6555 11 52.3793V51ZM14 58C10.6863 58 8 60.6863 8 64C8 67.3137 10.6863 70 14 70C15.6791 70 17.1956 69.3116 18.2858 68.1991C18.6723 67.8046 19.3054 67.7982 19.6999 68.1847C20.0944 68.5713 20.1008 69.2044 19.7142 69.5989C18.2634 71.0795 16.2383 72 14 72C9.58172 72 6 68.4183 6 64C6 59.5817 9.58172 56 14 56C18.4183 56 22 59.5817 22 64C22 64.5523 21.5523 65 21 65C20.4477 65 20 64.5523 20 64C20 60.6863 17.3137 58 14 58Z" fill="white"/>
<path fill-rule="evenodd" clip-rule="evenodd" d="M27 72C27 76.4183 30.5817 80 35 80C39.4183 80 43 76.4183 43 72C43 67.5817 39.4183 64 35 64C30.5817 64 27 67.5817 27 72ZM35 62C29.4772 62 25 66.4772 25 72C25 77.5228 29.4772 82 35 82C40.5228 82 45 77.5228 45 72C45 66.4772 40.5228 62 35 62Z" fill="#1BB769"/>
<path fill-rule="evenodd" clip-rule="evenodd" d="M35.6342 59.2673C35.2771 58.9109 34.7229 58.9109 34.3658 59.2673C32.7579 60.8721 30.5135 61.6284 28.2831 61.303C27.8173 61.235 27.3374 61.5588 27.2441 62.1071C26.8605 64.3633 25.4869 66.3234 23.505 67.4084C23.0647 67.6494 22.8632 68.2342 23.1 68.734C24.0768 70.7956 24.0768 73.2044 23.1 75.266C22.8632 75.7658 23.0647 76.3506 23.505 76.5916C25.4869 77.6766 26.8605 79.6367 27.2441 81.8929C27.3374 82.4412 27.8173 82.765 28.2831 82.697C30.5135 82.3716 32.7579 83.1279 34.3658 84.7327C34.7229 85.0891 35.2771 85.0891 35.6342 84.7327C37.242 83.1279 39.4865 82.3716 41.7169 82.697C42.1827 82.765 42.6626 82.4412 42.7559 81.8929C43.1395 79.6367 44.513 77.6766 46.495 76.5916C46.9353 76.3506 47.1368 75.7658 46.9 75.266C45.9232 73.2043 45.9232 70.7956 46.9 68.734C47.1368 68.2342 46.9353 67.6494 46.495 67.4084C44.513 66.3234 43.1395 64.3633 42.7559 62.1071C42.6626 61.5588 42.1827 61.235 41.7169 61.303C39.4865 61.6284 37.242 60.8721 35.6342 59.2673ZM32.9529 57.8518C34.0908 56.7161 35.9092 56.7161 37.0471 57.8518C38.2161 59.0186 39.8329 59.5567 41.4281 59.3239C43.0219 59.0913 44.4614 60.2064 44.7276 61.7719C45.0115 63.4419 46.0243 64.8706 47.4553 65.654C48.8525 66.4188 49.3841 68.1621 48.7074 69.5903C47.9874 71.11 47.9874 72.89 48.7074 74.4097C49.3841 75.8379 48.8525 77.5812 47.4553 78.346C46.0243 79.1294 45.0115 80.5581 44.7276 82.2281C44.4614 83.7936 43.0219 84.9087 41.4281 84.6761C39.8329 84.4433 38.2161 84.9814 37.0471 86.1482C35.9092 87.2839 34.0908 87.2839 32.9529 86.1482C31.7838 84.9814 30.1671 84.4433 28.5719 84.6761C26.9781 84.9087 25.5386 83.7936 25.2724 82.2281C24.9885 80.5581 23.9757 79.1294 22.5446 78.346C21.1475 77.5812 20.6159 75.8379 21.2926 74.4097C22.0126 72.89 22.0126 71.11 21.2926 69.5903C20.6159 68.1621 21.1475 66.4188 22.5446 65.654C23.9757 64.8706 24.9885 63.4419 25.2724 61.7719C25.5386 60.2064 26.9781 59.0913 28.5719 59.3239C30.1671 59.5567 31.7838 59.0186 32.9529 57.8518Z" fill="#1BB769"/>
<path fill-rule="evenodd" clip-rule="evenodd" d="M40.2853 69.3809C40.6272 69.8146 40.5528 70.4434 40.1191 70.7853L33.777 75.7853C33.3736 76.1033 32.7949 76.064 32.4383 75.6944L29.2804 72.4216C28.8969 72.0242 28.9082 71.3911 29.3056 71.0077C29.7031 70.6242 30.3361 70.6355 30.7196 71.0329L33.2493 73.6546L38.8809 69.2147C39.3146 68.8728 39.9434 68.9472 40.2853 69.3809Z" fill="#1BB769"/>
<path fill-rule="evenodd" clip-rule="evenodd" d="M26.3515 85.5638C26.8685 85.7579 27.1303 86.3345 26.9362 86.8515L24.0671 94.4931L25.8967 93.2172C26.1386 93.0485 26.4426 92.9952 26.7275 93.0715C27.0124 93.1479 27.249 93.346 27.3742 93.6131L28.5863 96.1996L31.0442 88.2061C31.2065 87.6782 31.766 87.3818 32.2939 87.5442C32.8218 87.7065 33.1182 88.266 32.9558 88.7939L29.7364 99.2645C29.6149 99.6596 29.2628 99.9392 28.8505 99.9681C28.4381 99.997 28.0505 99.7692 27.875 99.3949L26.0669 95.5367L22.572 97.974C22.2128 98.2245 21.7323 98.2121 21.3865 97.9434C21.0406 97.6747 20.9099 97.2122 21.0638 96.8022L25.0638 86.1485C25.2579 85.6315 25.8345 85.3697 26.3515 85.5638Z" fill="white"/>
<path fill-rule="evenodd" clip-rule="evenodd" d="M43.7466 85.5638C43.2295 85.7579 42.9678 86.3345 43.1619 86.8515L46.031 94.4931L44.2014 93.2172C43.9595 93.0485 43.6555 92.9952 43.3706 93.0715C43.0857 93.1479 42.8491 93.346 42.7239 93.6131L41.5117 96.1996L39.0539 88.2061C38.8916 87.6782 38.3321 87.3818 37.8042 87.5442C37.2763 87.7065 36.9799 88.266 37.1422 88.7939L40.3617 99.2645C40.4832 99.6596 40.8353 99.9392 41.2476 99.9681C41.66 99.997 42.0476 99.7692 42.223 99.3949L44.0311 95.5367L47.5261 97.974C47.8853 98.2245 48.3657 98.2121 48.7116 97.9434C49.0574 97.6747 49.1882 97.2122 49.0343 96.8022L45.0343 86.1485C44.8401 85.6315 44.2636 85.3697 43.7466 85.5638Z" fill="white"/>
</g>
<g clip-path="url(#clip3_221_164)">
<path fill-rule="evenodd" clip-rule="evenodd" d="M70.2724 0.314014C70.4613 0.113604 70.7246 0 71 0H99C99.2754 0 99.5387 0.113604 99.7276 0.314014C99.9166 0.514423 100.014 0.783889 99.9983 1.05885L99.0495 17.1536C98.7089 22.9322 94.8469 27.9054 89.3325 29.6663L85.3042 30.9526C85.1063 31.0158 84.8937 31.0158 84.6958 30.9526L80.6675 29.6663C75.1531 27.9054 71.2911 22.9322 70.9505 17.1536L70.0017 1.05885C69.9855 0.783889 70.0834 0.514423 70.2724 0.314014ZM72.0607 2L72.947 17.0359C73.239 21.989 76.5493 26.2517 81.2759 27.761L85 28.9503L88.7241 27.761C93.4507 26.2517 96.761 21.989 97.053 17.0359L97.9393 2H72.0607Z" fill="#1BB769"/>
<path fill-rule="evenodd" clip-rule="evenodd" d="M81 6C81 4.89543 81.8954 4 83 4H87C88.1046 4 89 4.89543 89 6V10H93C94.1046 10 95 10.8954 95 12V16C95 17.1046 94.1046 18 93 18H89V22C89 23.1046 88.1046 24 87 24H83C81.8954 24 81 23.1046 81 22V18H77C75.8954 18 75 17.1046 75 16V12C75 10.8954 75.8954 10 77 10H81V6ZM83 12H77V16H83V22H87V16H93V12H87V6H83V12Z" fill="#1BB769"/>
<path fill-rule="evenodd" clip-rule="evenodd" d="M70.2072 20.2929C70.5977 20.6834 70.5977 21.3166 70.2072 21.7071C70.0746 21.8397 70.0001 22.0196 70.0001 22.2071V30.6754C70.0001 30.9979 69.9481 31.3182 69.8462 31.6241L68.9488 34.3162C68.7741 34.8402 68.2078 35.1233 67.6839 34.9487C67.1599 34.774 66.8768 34.2077 67.0514 33.6838L67.9488 30.9917C67.9828 30.8897 68.0001 30.7829 68.0001 30.6754V26.3415C67.0295 26.5331 66.0779 26.8044 65.1573 27.1531C63.1487 27.9137 61.3292 29.0266 59.8005 30.4243C58.272 31.8218 57.0648 33.4759 56.2431 35.2897C55.4215 37.1032 55.0001 39.0432 55.0001 41C55.0001 41.5522 54.5524 42 54.0001 42H52.7809L52.1648 44.4643L54.4473 45.6055C54.5088 45.6362 54.5668 45.6732 54.6207 45.7158C54.6274 45.7206 54.6478 45.7349 54.684 45.7573C54.7571 45.8026 54.8948 45.8812 55.1145 45.9826C55.5545 46.1857 56.3201 46.4786 57.5496 46.7785C60.0117 47.379 64.3025 48 71.5001 48C78.6977 48 82.9885 47.379 85.4506 46.7785C86.6801 46.4786 87.4457 46.1857 87.8857 45.9826C88.1054 45.8812 88.2431 45.8026 88.3163 45.7573C88.3524 45.7349 88.3728 45.7207 88.3795 45.7158C88.4334 45.6732 88.4915 45.6362 88.5529 45.6055L90.8354 44.4643L90.2193 42H89.0001C88.4478 42 88.0001 41.5522 88.0001 41C88.0001 39.0432 87.5787 37.1032 86.7571 35.2897C86.4834 34.6855 86.1669 34.099 85.81 33.5339C85.5151 33.0669 85.6546 32.4493 86.1216 32.1544C86.5886 31.8595 87.2062 31.999 87.5011 32.466C87.9064 33.108 88.2667 33.7754 88.5789 34.4644C89.3768 36.2256 89.8461 38.097 89.9681 40H91.0001C91.459 40 91.859 40.3123 91.9702 40.7574L92.9702 44.7574C93.0839 45.2121 92.8665 45.6848 92.4473 45.8944L89.5239 47.3561C89.4827 47.385 89.4317 47.419 89.3695 47.4575C89.222 47.5489 89.012 47.6656 88.7239 47.7985C88.1483 48.0642 87.2576 48.3964 85.9246 48.7215C83.2617 49.371 78.8025 50 71.5001 50C64.1977 50 59.7385 49.371 57.0756 48.7215C55.7426 48.3964 54.852 48.0642 54.2764 47.7985C53.9883 47.6656 53.7782 47.5489 53.6307 47.4575C53.5686 47.419 53.5175 47.385 53.4763 47.3561L50.5529 45.8944C50.1337 45.6848 49.9163 45.2121 50.03 44.7574L51.03 40.7574C51.1413 40.3123 51.5412 40 52.0001 40H53.0321C53.1541 38.097 53.6234 36.2256 54.4213 34.4644C55.3585 32.3957 56.7294 30.5222 58.451 28.9482C60.1723 27.3744 62.2112 26.1302 64.449 25.2827C65.5974 24.8478 66.7872 24.5215 68.0001 24.3068V22.2071C68.0001 21.4891 68.2853 20.8006 68.793 20.2929C69.1835 19.9024 69.8167 19.9024 70.2072 20.2929ZM54.6386 45.7303C54.6386 45.7303 54.6386 45.7303 54.6385 45.7303L54.6379 45.7297C54.6381 45.7299 54.6383 45.7301 54.6386 45.7303ZM54.6367 45.7288C54.637 45.729 54.6372 45.7291 54.6374 45.7293L54.6369 45.7289L54.6367 45.7288ZM74.0001 27.5C74.5524 27.5 75.0001 27.9477 75.0001 28.5V30.6754C75.0001 30.7829 75.0174 30.8897 75.0514 30.9917L75.9488 33.6838C76.1234 34.2077 75.8403 34.774 75.3163 34.9487C74.7924 35.1233 74.2261 34.8402 74.0514 34.3162L73.1541 31.6241C73.0521 31.3182 73.0001 30.9979 73.0001 30.6754V28.5C73.0001 27.9477 73.4478 27.5 74.0001 27.5Z" fill="white"/>
</g>
<g clip-path="url(#clip4_221_164)">
<path fill-rule="evenodd" clip-rule="evenodd" d="M22 2C10.9543 2 2 10.9543 2 22C2 33.0457 10.9543 42 22 42C23.4724 42 24.9066 41.841 26.2867 41.5397C26.8263 41.4219 27.3592 41.7639 27.477 42.3034C27.5948 42.843 27.2529 43.3759 26.7133 43.4937C25.194 43.8254 23.6168 44 22 44C9.84974 44 0 34.1503 0 22C0 9.84974 9.84974 0 22 0C34.1503 0 44 9.84974 44 22C44 22.3509 43.9918 22.6999 43.9755 23.0468C43.9496 23.5985 43.4815 24.0248 42.9298 23.9989C42.3781 23.973 41.9518 23.5049 41.9777 22.9532C41.9925 22.6374 42 22.3196 42 22C42 10.9543 33.0457 2 22 2Z" fill="white"/>
<path fill-rule="evenodd" clip-rule="evenodd" d="M31 2.5C31.5523 2.5 32 2.94772 32 3.5C32 3.9147 31.8119 4.26987 31.6718 4.49C31.5122 4.74077 31.3043 4.98492 31.0821 5.20711C30.6392 5.65005 30.053 6.09152 29.4472 6.39443C29.4443 6.39588 29.4348 6.40077 29.4179 6.41967C29.3995 6.44034 29.3706 6.48017 29.3384 6.55031C29.2709 6.69708 29.2102 6.93044 29.1846 7.2642C29.1331 7.9327 29.2354 8.81856 29.4701 9.75746C29.5619 10.1246 29.6042 10.6331 29.3088 11.0941C29.0078 11.5641 28.5291 11.7168 28.2049 11.7687C27.8753 11.8214 27.5227 11.8016 27.2126 11.7674C26.8913 11.732 26.5407 11.6715 26.1961 11.6089C26.1004 11.5915 26.0047 11.5738 25.9089 11.5562C25.2894 11.442 24.6685 11.3277 24.0593 11.2779C23.3499 11.22 22.7832 11.2638 22.3714 11.4285C21.7986 11.6576 21.4942 11.8504 21.3137 12.0219C21.1551 12.1726 21.0476 12.3485 20.9615 12.6497C20.8656 12.9854 20.809 13.4282 20.7457 14.1082C20.7328 14.2468 20.7197 14.3937 20.7059 14.5487C20.6545 15.1269 20.5929 15.8191 20.4923 16.624C20.3697 17.6049 20.3909 18.0836 20.4441 18.3182C20.4605 18.3907 20.4761 18.4213 20.4808 18.4291C20.4853 18.4335 20.4987 18.445 20.53 18.4645C20.5764 18.4935 20.6459 18.5265 20.7337 18.5681C21.1787 18.7791 22.0941 19.2132 22.8575 20.4855C23.1416 20.9591 22.9881 21.5733 22.5145 21.8575C22.0409 22.1416 21.4267 21.9881 21.1425 21.5145C20.7146 20.8013 20.4029 20.6471 19.9861 20.441C19.8321 20.3649 19.6638 20.2816 19.47 20.1605C19.2725 20.0371 19.056 19.8674 18.8704 19.6152C18.6847 19.363 18.565 19.0759 18.4934 18.7599C18.3591 18.1664 18.3803 17.3951 18.5077 16.376C18.6035 15.6101 18.6611 14.9627 18.7123 14.3877C18.7266 14.2275 18.7404 14.073 18.7543 13.923C18.816 13.2593 18.8844 12.6396 19.0385 12.1003C19.2024 11.5265 19.4699 11.0149 19.9363 10.5719C20.3808 10.1496 20.9514 9.84243 21.6286 9.57152C22.4668 9.23625 23.4001 9.21747 24.222 9.28456C24.9405 9.34322 25.6709 9.47821 26.2832 9.59136C26.3763 9.60857 26.4667 9.62528 26.5539 9.64113C26.8923 9.70265 27.1791 9.75112 27.4222 9.77839C27.2264 8.86174 27.1275 7.92865 27.1904 7.1108C27.2583 6.22839 27.55 5.10699 28.5528 4.60557C28.947 4.40848 29.3608 4.09995 29.6679 3.79289C29.8207 3.64007 29.9253 3.50923 29.9845 3.41625C29.9941 3.40113 30.0016 3.3885 30.0073 3.37828C30.0674 2.8834 30.4889 2.5 31 2.5ZM6.28059 16.0039C4.90423 16.1852 3.43247 16.8221 2.50387 17.3638C2.02682 17.6421 1.4145 17.4809 1.13622 17.0039C0.857941 16.5268 1.01908 15.9145 1.49613 15.6362C2.56753 15.0112 4.29577 14.2481 6.01941 14.0211C7.728 13.796 9.76762 14.0778 10.8682 16.0039C11.803 17.6396 11.8002 19.0701 11.1506 20.1801C10.6287 21.0718 9.77751 21.6 9.07716 21.8617C8.83174 22.1547 8.59492 22.4758 8.41194 22.7826C8.28195 23.0005 8.20255 23.1727 8.1564 23.2985C8.4327 23.3068 8.92727 23.256 9.73688 23.0352C11.0243 22.6841 12.1562 22.7761 13.0726 23.3355C13.9669 23.8814 14.4877 24.771 14.7867 25.6728C15.3722 27.439 15.2478 29.6664 14.9891 31.1491C14.8976 31.8678 14.6861 32.9711 14.3358 34.0174C14.1584 34.5474 13.937 35.0885 13.6627 35.5665C13.4059 36.0138 13.0661 36.4713 12.6137 36.7915C13.089 36.9202 14.1975 36.929 16.0939 36.0862C16.2275 36.0268 16.3213 35.9859 16.3932 35.9546C16.4896 35.9126 16.5468 35.8877 16.6083 35.8581C16.686 35.8206 16.7617 35.7792 16.9788 35.6466C17.4501 35.3587 18.0655 35.5074 18.3534 35.9788C18.6413 36.4501 18.4926 37.0655 18.0212 37.3534C17.7928 37.4929 17.6475 37.5775 17.4761 37.66C17.384 37.7044 17.2743 37.7523 17.1414 37.8104C17.07 37.8416 16.9918 37.8757 16.9061 37.9138C14.5759 38.9495 12.7141 39.1001 11.5528 38.5194C10.9396 38.2129 10.4375 37.6358 10.4375 36.8594C10.4375 36.119 10.8972 35.5334 11.4453 35.1679C11.5633 35.0892 11.7343 34.9086 11.928 34.571C12.1151 34.2449 12.2874 33.836 12.4392 33.3826C12.7432 32.4745 12.9308 31.4913 13.0077 30.876C13.0098 30.8593 13.0123 30.8427 13.0152 30.8262C13.2536 29.4754 13.3245 27.6179 12.8883 26.3022C12.6748 25.6582 12.3769 25.254 12.0305 25.0426C11.7063 24.8447 11.1757 24.7159 10.2631 24.9648C9.13306 25.273 8.19863 25.3906 7.48939 25.221C7.10834 25.13 6.72999 24.9406 6.45582 24.5939C6.18026 24.2454 6.09602 23.8468 6.10007 23.5008C6.10747 22.8678 6.40954 22.2354 6.69431 21.758C7.00048 21.2447 7.38973 20.7439 7.75259 20.3356C7.87874 20.1937 8.0427 20.0906 8.22528 20.0385C8.65108 19.9168 9.16595 19.6116 9.42443 19.1699C9.63318 18.8132 9.79705 18.1604 9.13176 16.9961C8.63238 16.1222 7.672 15.8207 6.28059 16.0039ZM12.4199 36.9526C12.4199 36.9526 12.4207 36.95 12.424 36.9453C12.4218 36.9503 12.4199 36.9526 12.4199 36.9526ZM37.2849 17.6828C37.2761 16.9807 36.9765 16.1755 36.1461 15.9402C35.3673 15.7196 34.6654 16.1838 34.3805 16.7888C34.372 16.8068 34.3641 16.825 34.3567 16.8435C34.2269 17.168 33.9311 17.7223 33.4994 18.2283C33.0627 18.7402 32.5629 19.1146 32.0426 19.2447C31.3811 19.4101 30.7243 19.7862 30.5 20.5264C30.2939 21.2065 30.5745 21.8266 30.8281 22.2071C31.1015 22.6172 31.4861 22.9734 31.8762 23.23C32.2422 23.4708 32.7515 23.7148 33.2852 23.7148C33.546 23.7148 33.8133 23.6873 34.0128 23.6667C34.0527 23.6626 34.0898 23.6588 34.1237 23.6555C34.3635 23.6323 34.4922 23.6296 34.5812 23.6423C34.6375 23.6503 34.6459 23.6598 34.6491 23.6634L34.6499 23.6643C34.6658 23.6788 34.7465 23.7612 34.8365 24.0311C35.0641 24.7141 35.559 25.1699 36.1707 25.3581C36.7379 25.5326 37.327 25.4569 37.8144 25.2796C38.7336 24.9454 39.7852 24.0361 39.7852 22.7148C39.7852 22.0965 39.5385 21.4849 39.2859 20.9882C39.0223 20.4697 38.6802 19.9422 38.3672 19.4726C38.2987 19.3699 38.232 19.2705 38.1673 19.1741C37.923 18.8099 37.7082 18.4898 37.5377 18.2C37.4321 18.0205 37.3608 17.881 37.318 17.7764C37.2974 17.7261 37.2885 17.6958 37.2849 17.6828ZM35.5785 18.7809C35.4164 19.028 35.2302 19.281 35.0209 19.5264C34.4453 20.2011 33.6198 20.9045 32.5519 21.1789C32.6564 21.3097 32.8071 21.4484 32.9754 21.5591C33.0736 21.6237 33.1611 21.6676 33.2283 21.6932C33.2679 21.7082 33.2909 21.7133 33.2984 21.7148C33.4426 21.714 33.5829 21.6998 33.771 21.6807C33.8207 21.6757 33.8737 21.6704 33.931 21.6648C34.1755 21.6411 34.5156 21.6126 34.8641 21.6624C35.2397 21.7161 35.642 21.8618 35.9985 22.1873C36.342 22.5009 36.5738 22.9185 36.7338 23.3986C36.7422 23.4236 36.7496 23.4379 36.754 23.4449C36.754 23.4449 36.7569 23.446 36.7589 23.4466C36.8011 23.4596 36.9308 23.4728 37.1309 23.4001C37.3237 23.3299 37.5053 23.2059 37.6289 23.0623C37.7499 22.9219 37.7852 22.8016 37.7852 22.7148C37.7852 22.5832 37.7193 22.3198 37.5031 21.8947C37.298 21.4913 37.0151 21.05 36.7031 20.582C36.645 20.4948 36.5852 20.4059 36.5249 20.316C36.2765 19.9461 36.0176 19.5604 35.8138 19.2141C35.7312 19.0736 35.6505 18.9279 35.5785 18.7809ZM32.328 21.2548C32.3221 21.2598 32.318 21.2617 32.318 21.2617C32.318 21.2617 32.3206 21.2591 32.328 21.2548Z" fill="white"/>
<path fill-rule="evenodd" clip-rule="evenodd" d="M18.6134 41.6118C18.1164 41.8864 17.5164 42.2152 16.8143 42.5343C16.3115 42.7628 15.7187 42.5405 15.4902 42.0377C15.2616 41.5349 15.484 40.942 15.9868 40.7135C16.6118 40.4295 17.1526 40.1339 17.6461 39.8612C17.678 39.8436 17.7099 39.826 17.7418 39.8083C18.1825 39.5645 18.6292 39.3173 19.0318 39.154C19.4542 38.9826 20.0243 38.8172 20.6225 38.9915C21.2596 39.1772 21.6623 39.6637 21.9315 40.1883C22.1716 40.6561 22.3858 40.818 22.5655 40.9313C22.6228 40.9675 22.682 41.0015 22.7572 41.0441C22.7629 41.0473 22.7688 41.0507 22.7749 41.0541C22.8416 41.0919 22.9264 41.14 23.0096 41.1917C23.201 41.3107 23.433 41.478 23.6413 41.7402C23.985 42.1725 23.913 42.8016 23.4807 43.1452C23.0483 43.4888 22.4192 43.4169 22.0756 42.9846C22.064 42.9699 22.0412 42.9446 21.9536 42.8902C21.9065 42.8609 21.8556 42.832 21.779 42.7886L21.7707 42.7839C21.6956 42.7413 21.5998 42.6868 21.4987 42.6231C21.0447 42.3368 20.5706 41.9168 20.1521 41.1014C20.1054 41.0103 20.0684 40.9553 20.0436 40.9235C19.998 40.9322 19.9157 40.9537 19.7839 41.0072C19.4963 41.1239 19.1478 41.3165 18.6466 41.5934L18.6134 41.6118ZM20.0076 40.8852C20.0076 40.8852 20.0099 40.8864 20.0144 40.8906C20.0097 40.8875 20.0076 40.8852 20.0076 40.8852Z" fill="white"/>
<path fill-rule="evenodd" clip-rule="evenodd" d="M16 24C16 23.4477 16.4477 23 17 23H21C29.2843 23 36 29.7157 36 38V40C36 40.5523 35.5523 41 35 41H31C22.7157 41 16 34.2843 16 26V24ZM18 25V26C18 33.1797 23.8203 39 31 39H34V38C34 30.8203 28.1797 25 21 25H18Z" fill="#1BB769"/>
<path fill-rule="evenodd" clip-rule="evenodd" d="M50 26C50 25.4477 49.5523 25 49 25H45C38.9249 25 34 29.9249 34 36V38C34 38.5523 34.4477 39 35 39H39C45.0751 39 50 34.0751 50 28V26ZM48 27V28C48 32.9706 43.9706 37 39 37H36V36C36 31.0294 40.0294 27 45 27H48Z" fill="#1BB769"/>
<path fill-rule="evenodd" clip-rule="evenodd" d="M35 36C35.5523 36 36 36.4477 36 37V49C36 49.5523 35.5523 50 35 50C34.4477 50 34 49.5523 34 49V37C34 36.4477 34.4477 36 35 36Z" fill="#1BB769"/>
<path fill-rule="evenodd" clip-rule="evenodd" d="M44.8944 29.5528C45.1414 30.0468 44.9412 30.6474 44.4472 30.8944C40.5114 32.8623 37.7485 34.7391 35.8944 38.4472C35.6474 38.9412 35.0468 39.1414 34.5528 38.8944C34.0588 38.6474 33.8586 38.0468 34.1056 37.5528C36.2515 33.2609 39.4886 31.1377 43.5528 29.1056C44.0468 28.8586 44.6474 29.0588 44.8944 29.5528Z" fill="#1BB769"/>
<path fill-rule="evenodd" clip-rule="evenodd" d="M23.0299 29.7575C22.8959 30.2933 23.2217 30.8362 23.7575 30.9701C27.3636 31.8717 31.1836 35.5829 34.1425 40.5145C34.4267 40.9881 35.0409 41.1416 35.5145 40.8575C35.9881 40.5733 36.1416 39.9591 35.8575 39.4855C32.8164 34.4171 28.6364 30.1283 24.2425 29.0299C23.7067 28.8959 23.1638 29.2217 23.0299 29.7575Z" fill="#1BB769"/>
</g>
</g>
<defs>
<clipPath id="clip0_221_164">
<rect width="100" height="100" fill="white"/>
</clipPath>
<clipPath id="clip1_221_164">
<rect width="50" height="50" fill="white" transform="translate(50 50)"/>
</clipPath>
<clipPath id="clip2_221_164">
<rect width="50" height="50" fill="white" transform="translate(0 50)"/>
</clipPath>
<clipPath id="clip3_221_164">
<rect width="50" height="50" fill="white" transform="translate(50)"/>
</clipPath>
<clipPath id="clip4_221_164">
<rect width="50" height="50" fill="white"/>
</clipPath>
</defs>
</svg>
