<svg width="475" height="1050" viewBox="0 0 475 1050" fill="none" xmlns="http://www.w3.org/2000/svg">
<path d="M20.3123 1030.69C-5.43745 1004.94 -5.43745 963.504 20.3123 937.754L362.316 595.75C388.066 570.001 429.5 570.001 455.25 595.75C481 621.5 481 662.934 455.25 688.684L113.246 1030.69C87.4958 1056.44 45.8281 1056.44 20.3123 1030.69Z" fill="#EEEEEE"/>
<path d="M256.042 507.384C230.292 481.635 230.292 440.201 256.042 414.451L362.552 308.175C388.302 282.425 429.736 282.425 455.486 308.175C481.235 333.924 481.235 375.358 455.486 401.108L348.975 507.618C323.225 533.134 281.791 533.134 256.042 507.384Z" fill="#EEEEEE"/>
<path d="M31.2016 443.692L31.1775 443.667L31.1533 443.643C11.2614 423.751 11.2614 391.815 31.1533 371.923L31.157 371.919L372.923 29.9189C372.924 29.9177 372.926 29.9165 372.927 29.9153C392.819 10.027 424.753 10.0282 444.643 29.9189C464.535 49.8109 464.535 81.7472 444.643 101.639L444.64 101.643L102.873 443.643C102.872 443.644 102.871 443.646 102.87 443.647C82.9507 463.562 50.8208 463.491 31.2016 443.692Z" stroke="#EEEEEE" stroke-width="30"/>
<path d="M137.418 553.819L137.424 553.813L137.429 553.808C157.321 533.916 189.258 533.916 209.15 553.808C229.042 573.7 229.042 605.636 209.15 625.528L102.688 731.989C102.681 731.997 102.673 732.004 102.666 732.012C83.037 751.436 50.8278 751.505 30.8957 731.781C11.0302 711.891 11.0348 679.979 30.9093 660.094C30.9125 660.09 30.9157 660.087 30.9189 660.084L137.418 553.819Z" stroke="#EEEEEE" stroke-width="30"/>
</svg>
