<svg width="192" height="45" viewBox="0 0 192 45" fill="none" xmlns="http://www.w3.org/2000/svg">
<circle cx="81.5" cy="22.5" r="22.5" fill="white"/>
<path d="M23.01 21.49L27.09 19.75C27.48 19.6 29.19 22.96 28.47 22.96L23.01 22.9V27.01C23.01 31.93 22.17 35.5 21.75 36.58C21.45 36.88 20.85 37.03 20.46 36.94C20.22 36.1 19.74 33.43 19.74 28.99V11.53C19.74 10.81 17.31 9.46 16.59 9.1C16.38 9.01 17.04 8.29 17.22 8.29C18.81 8.29 23.22 9.19 23.13 9.94C23.07 10.39 23.01 10.96 23.01 11.59V21.49ZM11.88 21.28C14.34 22.84 17.07 24.58 17.61 25.39C18.15 26.2 16.86 29.92 16.26 29.05C15.36 27.76 12.87 24.61 10.95 22.42C7.83 26.05 4.32 28.9 1.26 30.55C0.87 30.52 0.48 29.89 0.48 29.56C5.52 25.75 9.33 20.23 11.67 15.46L7.14 15.49C5.91 15.49 5.07 15.85 4.71 16.18C3.72 15.91 1.86 14.41 1.77 14.02C1.74 13.9 1.92 13.54 2.04 13.57C2.64 13.72 4.74 13.84 6.75 13.81L11.04 13.75C12.03 13.75 12.57 13.6 12.93 13.27C13.32 13.12 16.65 13.84 16.41 14.29C15.15 16.78 13.59 19.15 11.88 21.28ZM43.7388 21.28C42.7188 23.14 40.5588 24.28 37.7088 24.28C33.6888 24.28 31.0188 22.03 31.0188 18.64C31.0188 15.49 33.3588 13.33 36.9288 13.06C36.9588 12.97 36.9888 12.85 36.9888 12.76C36.9888 12.43 36.8988 12.1 36.4788 11.8C36.4788 11.08 38.7888 11.8 38.7888 12.16C38.7888 12.31 38.6088 12.73 38.4888 13.06C42.0588 13.33 44.3988 15.49 44.3988 18.64C44.3988 19.39 44.2788 20.08 44.0388 20.68C44.6688 20.83 46.7088 20.92 48.6588 20.92H50.6688V16.78H48.5688C47.3388 16.78 46.4988 17.05 46.1088 17.41C45.1188 17.11 43.8888 15.67 43.7988 15.31C43.7688 15.19 43.9488 14.83 44.0688 14.86C44.6688 15.01 46.7688 15.1 48.7788 15.1H50.6688V11.53C50.6688 10.81 48.2388 9.46 47.5188 9.1C47.3388 9.01 47.9688 8.29 48.1488 8.29C49.7388 8.29 54.1488 9.19 54.0588 9.94C53.9988 10.39 53.9388 10.96 53.9388 11.59V23.53C53.9388 26.86 53.0988 28.93 52.6788 29.86C52.3788 30.16 51.7788 30.31 51.3888 30.22C51.1488 29.35 50.6688 28.06 50.6688 23.53V22.6H48.4488C47.2188 22.6 46.3788 22.87 46.0188 23.2C45.1488 22.96 44.0388 21.79 43.7388 21.28ZM34.3188 18.55C34.3188 20.89 35.6088 22.45 37.5888 22.45C39.6588 22.45 41.0388 20.89 41.0388 18.55C41.0388 16.24 39.6888 14.71 37.6488 14.71C35.6388 14.71 34.3188 16.24 34.3188 18.55ZM53.0988 32.68C53.4888 32.68 55.3788 34.51 55.3788 35.32C55.3788 35.47 55.2588 35.56 55.0188 35.56L41.6688 35.62C38.7288 35.62 38.1588 34.63 38.1588 32.68V29.53C38.1588 28.99 36.9888 28.21 36.4188 28.03C36.2388 27.94 36.8988 27.13 37.1988 27.13C38.3988 27.13 40.1688 27.43 41.0688 27.73C41.2788 27.79 41.5488 27.88 41.4888 28.3C41.4288 28.72 41.4288 29.35 41.4288 29.92V32.71C41.4288 33.76 41.7888 33.88 42.7188 33.88L49.9488 33.85C52.0788 33.85 52.7988 32.68 53.0988 32.68Z" fill="white"/>
<path d="M128.19 21.07L132.3 19.48C132.72 19.33 134.4 22.69 133.71 22.69L128.19 22.63V24.16C128.19 27.19 127.35 29.59 126.93 30.49C126.66 30.79 126.03 30.94 125.67 30.85C125.43 30.01 124.92 28.39 124.92 24.16V11.56C124.92 10.84 122.52 9.49 121.77 9.13C121.59 9.04 122.22 8.32 122.43 8.32C123.99 8.32 128.4 9.22 128.31 9.97C128.25 10.42 128.19 10.99 128.19 11.62V21.07ZM117.69 13.39H112.83C111.87 13.39 109.83 11.23 109.71 10.96C109.65 10.84 109.86 10.33 110.04 10.36C111.24 10.6 112.38 10.81 113.85 10.96L116.91 11.32C117.24 11.35 118.59 13.39 117.69 13.39ZM118.83 16.42L111.21 16.45C109.98 16.45 109.14 16.72 108.75 17.05C107.76 16.78 106.53 15.34 106.44 14.98C106.41 14.86 106.59 14.5 106.71 14.53C107.31 14.68 109.41 14.8 111.42 14.77L118.5 14.71C120.57 14.68 121.17 13.63 121.5 13.63C121.86 13.63 123.15 15.43 123.15 16.27C123.15 16.42 123.03 16.51 122.79 16.51C122.46 16.51 120.45 16.42 118.83 16.42ZM121.14 22.54C121.14 25.18 118.74 26.95 115.14 26.95C111.51 26.95 109.11 25.18 109.11 22.54C109.11 20.14 111.21 18.49 114.48 18.31C114.54 18.19 114.57 18.07 114.57 17.95C114.57 17.68 114.48 17.38 114.12 17.08C114.12 16.45 116.19 17.08 116.19 17.44C116.19 17.59 116.01 17.98 115.89 18.31C119.07 18.52 121.14 20.17 121.14 22.54ZM112.35 22.57C112.35 24.28 113.46 25.42 115.14 25.42C116.79 25.42 117.9 24.28 117.9 22.57C117.9 20.89 116.79 19.72 115.14 19.72C113.46 19.72 112.35 20.89 112.35 22.57ZM127.98 32.83C128.34 32.83 130.26 34.66 130.26 35.47C130.26 35.65 130.14 35.74 129.9 35.74L116.7 35.77C113.76 35.77 113.19 34.78 113.19 32.83V30.85C113.19 30.34 112.05 29.56 111.45 29.35C111.27 29.29 111.93 28.48 112.23 28.48C113.43 28.48 115.2 28.78 116.1 29.08C116.31 29.14 116.58 29.23 116.52 29.65C116.46 30.07 116.46 30.7 116.46 31.27V32.86C116.46 33.91 116.82 34.03 117.75 34.03L124.83 34C126.96 34 127.68 32.83 127.98 32.83ZM153.479 8.29C155.069 8.29 159.479 9.19 159.389 9.94C159.329 10.39 159.269 10.96 159.269 11.59V27.01C159.269 31.93 158.429 35.5 158.009 36.58C157.739 36.88 157.109 37.03 156.749 36.94C156.479 36.1 155.999 33.43 155.999 28.99V11.53C155.999 10.81 153.599 9.46 152.849 9.1C152.669 9.01 153.299 8.29 153.479 8.29ZM144.929 23.83C140.789 23.83 138.059 21.61 138.059 18.34C138.059 15.22 140.489 13.09 144.239 12.88C144.269 12.76 144.299 12.67 144.299 12.55C144.299 12.25 144.209 11.92 143.789 11.62C143.789 10.9 146.099 11.62 146.099 11.98C146.099 12.13 145.919 12.55 145.799 12.88C149.429 13.18 151.769 15.28 151.769 18.34C151.769 21.61 149.039 23.83 144.929 23.83ZM144.869 14.53C142.799 14.53 141.419 16.03 141.419 18.25C141.419 20.53 142.769 22.03 144.809 22.03C146.969 22.03 148.409 20.53 148.409 18.25C148.409 16.03 146.999 14.53 144.869 14.53ZM154.679 25.69C154.979 25.6 154.889 27.1 154.379 27.28C151.169 28.48 144.389 29.62 140.999 30.13C139.649 30.34 138.959 30.67 138.329 31.09C137.279 30.79 135.359 28.78 135.179 28.24C135.149 28.15 135.359 27.76 135.419 27.76C136.559 27.76 138.389 27.82 140.399 27.7C147.209 27.28 152.339 26.35 154.679 25.69ZM181.438 9.1C181.228 9.01 181.888 8.29 182.068 8.29C183.658 8.29 188.068 9.19 187.978 9.94C187.918 10.39 187.858 10.96 187.858 11.59V24.73C187.858 27.76 187.018 30.16 186.598 31.09C186.298 31.39 185.698 31.54 185.308 31.45C185.098 30.73 184.738 29.47 184.618 26.59H182.038C180.808 26.59 179.968 26.86 179.608 27.19C178.618 26.92 177.388 25.48 177.298 25.12C177.268 25 177.448 24.61 177.568 24.64C178.138 24.79 180.238 24.88 182.248 24.88H184.588V11.53C184.588 10.81 182.158 9.46 181.438 9.1ZM173.308 20.5C169.558 20.5 167.038 18.67 167.038 15.97C167.038 13.42 169.198 11.68 172.528 11.44C172.588 11.29 172.648 11.11 172.648 10.96C172.648 10.66 172.558 10.33 172.138 10.03C172.138 9.31 174.448 10.03 174.448 10.39C174.448 10.57 174.208 11.08 174.088 11.44C177.388 11.68 179.608 13.39 179.608 15.97C179.608 18.67 177.058 20.5 173.308 20.5ZM173.308 13.06C171.538 13.06 170.338 14.17 170.338 15.85C170.338 17.56 171.538 18.7 173.308 18.7C175.078 18.7 176.308 17.56 176.308 15.85C176.308 14.17 175.078 13.06 173.308 13.06ZM172.378 28.66C172.168 27.85 171.688 26.71 171.628 24.22C170.458 24.4 169.348 24.55 168.418 24.67C167.338 24.82 166.648 25.03 166.018 25.42C164.968 25.15 163.648 23.62 163.468 23.05C163.438 22.96 163.648 22.6 163.708 22.6C164.848 22.6 166.378 22.66 168.388 22.54C175.528 22.12 181.018 21.31 183.328 20.65C183.658 20.56 183.508 21.79 183.118 21.97C181.318 22.69 178.138 23.29 174.958 23.77C174.838 26.02 174.088 27.4 173.638 28.3C173.368 28.6 172.768 28.75 172.378 28.66ZM186.658 33.19C187.018 33.19 188.938 35.02 188.938 35.86C188.938 36.01 188.818 36.1 188.578 36.1L174.868 36.13C171.928 36.13 171.358 35.14 171.358 33.19V31.27C171.358 30.73 170.218 29.95 169.618 29.77C169.438 29.71 170.128 28.87 170.398 28.87C171.598 28.87 173.368 29.17 174.298 29.47C174.478 29.56 174.748 29.65 174.688 30.04C174.628 30.46 174.628 31.12 174.628 31.66V33.22C174.628 34.3 174.988 34.42 175.918 34.42L183.508 34.39C185.638 34.39 186.328 33.19 186.658 33.19Z" fill="white"/>
<path d="M78.587 27.3984C80.6886 27.3984 82.6425 27.234 84.4511 26.9075C86.4669 26.5453 88.1611 26.0044 89.5383 25.2801C89.7623 25.1419 89.9077 24.9703 89.9768 24.763C90.0626 24.5557 90.0626 24.3675 89.9768 24.1959C89.9077 24.0077 89.7862 23.8861 89.6146 23.8337C89.424 23.7646 89.219 23.8003 88.9951 23.9362C87.7369 24.5914 86.1881 25.1157 84.3462 25.5112C82.521 25.8901 80.6171 26.0783 78.637 26.0783C78.1557 26.0783 77.8007 25.9663 77.5791 25.7423C77.3384 25.5017 77.2169 25.1323 77.2169 24.6319V11.3574C77.2169 10.8927 77.2955 10.5663 77.4504 10.3757C77.622 10.1874 77.9246 10.0921 78.3535 10.0921H86.3597C86.8577 10.0921 87.1174 9.86812 87.1341 9.42015C87.1341 8.98887 86.8839 8.77441 86.3859 8.77441H78.3011C77.4909 8.77441 76.8452 9.00793 76.3638 9.47257C75.9159 9.92054 75.6919 10.5234 75.6919 11.2811V24.6343C75.6919 25.5303 75.9421 26.2189 76.4401 26.7002C76.9214 27.1649 77.6363 27.3984 78.5846 27.3984H78.587Z" fill="#C7A88B"/>
<path d="M95.7377 18.1507H92.8712V8.69816C92.8712 8.47418 92.7854 8.29308 92.6139 8.15488C92.4757 8.05242 92.3041 8 92.0968 8C91.8895 8 91.7179 8.05242 91.5797 8.15488C91.4249 8.29308 91.3462 8.47418 91.3462 8.69816V27.6795C91.208 27.6652 91.0627 27.6557 90.9078 27.6557H80.464C80.4473 27.6557 80.433 27.6533 80.4163 27.6533H67.4444C67.2085 27.6533 67.0202 27.7081 66.8796 27.8177C66.7534 27.944 66.6914 28.0846 66.6914 28.2419C66.6914 28.3991 66.7534 28.5397 66.8796 28.666C67.0202 28.7923 67.2085 28.8543 67.4444 28.8543H76.1178C76.0939 29.002 76.082 29.1616 76.082 29.338V31.5111H68.5238C67.9591 31.5111 67.5373 31.6517 67.2537 31.9352C67.0036 32.2021 66.8773 32.569 66.8773 33.0408V35.6262C66.8773 36.0813 67.025 36.4173 67.3228 36.6365C67.604 36.8414 68.0282 36.9415 68.5929 36.9415H82.1296C82.2606 36.9415 82.3726 36.92 82.4751 36.8819H91.0603C91.594 36.8819 92.0253 36.7437 92.3518 36.4697C92.6973 36.1599 92.8688 35.7382 92.8688 35.2044V29.2379C92.8688 29.1521 92.8641 29.0711 92.8545 28.9925C92.8641 28.9472 92.8688 28.8995 92.8688 28.8495V19.4208H95.7353C96.1476 19.4208 96.3549 19.2063 96.3549 18.775C96.3549 18.3437 96.1476 18.1555 95.7353 18.1555L95.7377 18.1507ZM77.7619 30.0075C77.7619 29.6453 77.8405 29.388 77.9954 29.2331C78.1836 29.0616 78.5029 28.9758 78.9509 28.9758H80.3544C80.3854 28.9901 80.4163 29.002 80.4425 29.0187C80.5998 29.1283 80.6784 29.2998 80.6784 29.5357V30.994C80.6784 31.1823 80.5927 31.3157 80.4187 31.3943C80.2614 31.473 80.0351 31.5111 79.7372 31.5111H77.7619V30.0099V30.0075ZM68.6191 35.5976C68.4618 35.5047 68.3832 35.3307 68.3832 35.0805V33.577C68.3832 33.2791 68.4309 33.0599 68.5238 32.9193C68.6167 32.7787 68.8049 32.7072 69.0885 32.7072H76.082V35.1472C76.082 35.3664 76.1011 35.5618 76.1392 35.7382H69.3006C68.986 35.7382 68.7597 35.6905 68.6191 35.5976ZM91.2176 34.6302C91.2176 34.9399 91.1151 35.1639 90.9078 35.3021C90.7005 35.457 90.3907 35.5356 89.9785 35.5356H79.0272C78.5458 35.5356 78.2099 35.457 78.0192 35.3021C77.8477 35.1472 77.7619 34.8708 77.7619 34.4753V32.7072H80.5116C81.012 32.7072 81.4123 32.5905 81.7102 32.3546C82.039 32.1187 82.2034 31.8065 82.2034 31.4134V29.2045C82.2034 29.1235 82.1963 29.0473 82.1891 28.9734H89.9547C90.4026 28.9734 90.7196 29.0425 90.9102 29.1807C91.1175 29.3356 91.2199 29.5929 91.2199 29.9551V34.6302H91.2176Z" fill="#C7A88B"/>
</svg>
