<?xml version="1.0" encoding="utf-8"?>
<!-- Generator: Adobe Illustrator 25.2.0, SVG Export Plug-In . SVG Version: 6.00 Build 0)  -->
<svg version="1.1" id="Layer_1" xmlns="http://www.w3.org/2000/svg" xmlns:xlink="http://www.w3.org/1999/xlink" x="0px" y="0px"
	 viewBox="0 0 30 30" style="enable-background:new 0 0 30 30;" xml:space="preserve">
<style type="text/css">
	.st0{fill:#F1F1F1;}
</style>
<path class="st0" d="M4.1,16.9c0,1.3,0.5,2.5,1.4,3.4s2.1,1.5,3.4,1.5C9,21.9,9,21.8,9,21.7v-1.4c0-0.1-0.1-0.2-0.2-0.2
	c-0.9-0.1-1.6-0.4-2.2-1c-0.6-0.6-0.9-1.4-0.9-2.2c0-0.8,0.3-1.5,0.8-2.2s1.3-1,2.1-1.1l0.5-0.1c0.1,0,0.2-0.1,0.2-0.2l0.1-0.5
	c0.1-1.1,0.6-2,1.4-2.7c0.8-0.7,1.8-1.1,2.8-1.1s2,0.4,2.9,1.1c0.8,0.7,1.3,1.6,1.4,2.7l0.1,0.6c0,0.1,0.1,0.2,0.2,0.2h1.6
	c0.9,0,1.7,0.3,2.3,0.9c0.6,0.6,1,1.4,1,2.3c0,0.9-0.3,1.6-0.9,2.2s-1.3,1-2.2,1c-0.1,0-0.2,0.1-0.2,0.2v1.4c0,0.1,0.1,0.2,0.2,0.2
	c1.3,0,2.5-0.5,3.4-1.5c0.9-1,1.4-2.1,1.4-3.5c0-0.9-0.2-1.7-0.6-2.4c0.8-0.7,1.3-1.6,1.6-2.6v-0.1l0.2-0.8l-0.8-0.2
	c-0.8-0.2-1.4-0.7-1.9-1.4c-0.5-0.7-0.7-1.3-0.7-2c0-0.3,0-0.5,0.1-0.8l0.2-0.8L22,5.5l-0.1,0c-0.5-0.1-0.9-0.1-1.3-0.1
	c-0.4,0-0.8,0-1.1,0.1c-0.4,0.1-0.8,0.2-1.2,0.4c-0.4,0.2-0.8,0.4-1.2,0.8c-0.4,0.3-0.7,0.8-1,1.2c-0.7-0.3-1.5-0.5-2.4-0.5
	c-1.4,0-2.7,0.4-3.8,1.3s-1.8,2-2.1,3.4c-1.1,0.3-2.1,0.8-2.8,1.7C4.4,14.7,4.1,15.8,4.1,16.9z M9.5,23.7c0,0.1,0.1,0.3,0.1,0.5
	c0.1,0.1,0.3,0.3,0.4,0.3c0.2,0.1,0.4,0.1,0.6,0s0.3-0.3,0.4-0.5l0.3-1.1c0.1-0.2,0.1-0.4-0.1-0.6c-0.1-0.2-0.3-0.3-0.5-0.4
	c-0.2-0.1-0.4,0-0.6,0.1s-0.3,0.3-0.4,0.5l-0.2,1C9.5,23.6,9.5,23.7,9.5,23.7z M10.8,19c0,0.1,0,0.2,0.1,0.4
	c0.1,0.2,0.3,0.3,0.5,0.4c0.2,0.1,0.5,0,0.7-0.1c0.2-0.1,0.3-0.3,0.4-0.5l0.3-1c0.1-0.2,0.1-0.5-0.1-0.6c-0.1-0.2-0.3-0.3-0.5-0.4
	c-0.2-0.1-0.5,0-0.7,0.1s-0.3,0.3-0.4,0.5l-0.3,1C10.8,18.8,10.8,18.9,10.8,19z M12,26.8c0,0.2,0.1,0.3,0.1,0.5
	c0.1,0.2,0.3,0.3,0.4,0.3c0.1,0,0.2,0,0.2,0c0.1,0,0.2,0,0.4-0.1c0.2-0.1,0.3-0.3,0.4-0.5l0.3-1c0.1-0.2,0.1-0.4-0.1-0.6
	s-0.3-0.3-0.5-0.4c-0.2-0.1-0.5,0-0.7,0.1s-0.3,0.3-0.4,0.5l-0.3,1C12,26.6,12,26.7,12,26.8z M13.4,22c0,0.1,0.1,0.3,0.1,0.5
	s0.3,0.3,0.5,0.3c0.2,0.1,0.4,0,0.6-0.1c0.2-0.1,0.3-0.3,0.4-0.5l0.3-1c0.1-0.2,0.1-0.4-0.1-0.6c-0.1-0.2-0.3-0.3-0.5-0.4
	c-0.2-0.1-0.5,0-0.7,0.1s-0.4,0.3-0.4,0.5l-0.2,1L13.4,22z M16.2,23.8c0,0.4,0.2,0.6,0.6,0.8c0.1,0,0.2,0,0.2,0c0.1,0,0.3,0,0.4-0.1
	c0.2-0.1,0.4-0.3,0.4-0.6l0.3-1c0.1-0.3,0-0.5-0.1-0.7s-0.3-0.3-0.5-0.4c-0.2-0.1-0.5,0-0.6,0.1s-0.3,0.3-0.4,0.5l-0.3,1
	c0,0,0,0.1,0,0.1C16.2,23.7,16.2,23.8,16.2,23.8z M17.5,19c0,0.2,0,0.3,0.1,0.5s0.3,0.3,0.5,0.3c0.1,0,0.2,0,0.2,0
	c0.1,0,0.2,0,0.4-0.1c0.2-0.1,0.4-0.3,0.4-0.5l0.3-1c0.1-0.2,0-0.4-0.1-0.6s-0.3-0.3-0.5-0.4c-0.2-0.1-0.4,0-0.6,0.1
	s-0.3,0.3-0.4,0.5l-0.3,1.1C17.6,18.8,17.5,18.9,17.5,19z M17.6,8.8c0.3-0.6,0.8-1,1.3-1.3S20.1,7,20.7,7h0.2c0,0.1,0,0.2,0,0.4
	c0,0.9,0.3,1.9,0.8,2.7s1.3,1.5,2.2,2c-0.2,0.4-0.5,0.8-0.8,1.1c-0.9-0.8-2-1.2-3.3-1.2h-0.3C19.3,10.8,18.6,9.7,17.6,8.8z"/>
</svg>
