<?xml version="1.0" encoding="utf-8"?>
<!-- Generator: Adobe Illustrator 25.2.0, SVG Export Plug-In . SVG Version: 6.00 Build 0)  -->
<svg version="1.1" id="Layer_1" xmlns="http://www.w3.org/2000/svg" xmlns:xlink="http://www.w3.org/1999/xlink" x="0px" y="0px"
	 viewBox="0 0 30 30" style="enable-background:new 0 0 30 30;" xml:space="preserve">
<style type="text/css">
	.st0{fill:#F1F1F1;}
</style>
<path class="st0" d="M4.1,16.9c0,1.3,0.5,2.5,1.4,3.4s2.1,1.5,3.4,1.5c0.1,0,0.2-0.1,0.2-0.2v-1.3c0-0.1-0.1-0.2-0.2-0.2
	c-0.9,0-1.6-0.4-2.2-1c-0.6-0.6-0.9-1.4-0.9-2.3c0-0.8,0.3-1.6,0.8-2.2s1.3-1,2.1-1.1l0.5,0c0.1,0,0.2-0.1,0.2-0.2l0.1-0.5
	c0.1-1.1,0.6-2,1.4-2.7s1.8-1.1,2.9-1.1s2,0.4,2.9,1.1s1.3,1.6,1.4,2.7l0.1,0.6c0,0.1,0.1,0.2,0.2,0.2h1.6c0.9,0,1.7,0.3,2.3,1
	s1,1.4,1,2.3c0,0.9-0.3,1.6-0.9,2.3s-1.3,1-2.2,1c-0.1,0-0.2,0.1-0.2,0.2v1.3c0,0.1,0.1,0.2,0.2,0.2c1.3,0,2.5-0.5,3.4-1.5
	c0.9-1,1.4-2.1,1.4-3.5c0-0.9-0.2-1.7-0.7-2.5c0.8-0.7,1.3-1.6,1.6-2.6l0.1-0.7c0,0,0,0,0-0.1c0-0.1,0-0.1-0.2-0.2l-0.6-0.2
	c-0.6-0.2-1.1-0.4-1.5-0.8c-0.4-0.4-0.7-0.8-0.9-1.2s-0.3-0.9-0.3-1.3c0-0.2,0-0.5,0.1-0.8l0.1-0.6c0-0.1,0-0.2-0.1-0.2l-0.8-0.2
	c-0.5-0.1-0.9-0.2-1.3-0.2c-0.4,0-0.8,0-1.1,0.1c-0.4,0.1-0.8,0.2-1.2,0.4c-0.4,0.2-0.8,0.4-1.2,0.8c-0.4,0.3-0.7,0.8-1,1.2
	c-0.8-0.3-1.6-0.4-2.3-0.4c-1.4,0-2.7,0.4-3.8,1.3s-1.8,2-2.1,3.4c-1.1,0.3-2,0.8-2.7,1.7C4.4,14.7,4.1,15.8,4.1,16.9z M9.6,23.7
	c0,0.2,0.1,0.3,0.2,0.5s0.3,0.3,0.5,0.3c0.2,0.1,0.4,0,0.6,0c0.2-0.1,0.3-0.3,0.4-0.6l1.4-5.9c0.1-0.3,0-0.5-0.1-0.7
	c-0.1-0.2-0.3-0.3-0.5-0.4c-0.2-0.1-0.4,0-0.6,0.1c-0.2,0.1-0.3,0.3-0.4,0.5l-1.4,5.9c0,0,0,0,0,0.1C9.6,23.7,9.6,23.7,9.6,23.7z
	 M12.2,26.8c0,0.2,0.1,0.3,0.1,0.5c0.1,0.1,0.3,0.3,0.4,0.3c0.1,0,0.2,0,0.2,0c0.4,0,0.7-0.2,0.8-0.6l2.2-8.9c0.1-0.2,0-0.5-0.1-0.6
	c-0.1-0.2-0.3-0.3-0.5-0.4c-0.2-0.1-0.4,0-0.7,0.1s-0.3,0.3-0.4,0.5l-2.3,8.9c0,0,0,0,0,0.1C12.2,26.7,12.2,26.8,12.2,26.8z
	 M16.4,23.8c0,0.4,0.2,0.6,0.6,0.7c0.1,0,0.2,0.1,0.3,0.1c0.1,0,0.2,0,0.4-0.1c0.2-0.1,0.3-0.3,0.4-0.6l1.4-5.9
	c0.1-0.2,0-0.5-0.1-0.6c-0.1-0.2-0.3-0.3-0.5-0.4s-0.5,0-0.7,0.1c-0.2,0.1-0.3,0.3-0.4,0.5l-1.4,5.9C16.4,23.7,16.4,23.8,16.4,23.8z
	 M17.6,8.8c0.3-0.6,0.8-1,1.3-1.3C19.4,7.1,20,7,20.6,7c0.1,0,0.2,0,0.3,0v0.3c0,1,0.2,1.9,0.8,2.8c0.5,0.9,1.3,1.5,2.2,2
	c-0.2,0.5-0.5,0.8-0.8,1.1c-0.9-0.8-2-1.1-3.2-1.1h-0.3C19.3,10.7,18.6,9.6,17.6,8.8z"/>
</svg>
