<?xml version="1.0" encoding="utf-8"?>
<!-- Generator: Adobe Illustrator 25.2.0, SVG Export Plug-In . SVG Version: 6.00 Build 0)  -->
<svg version="1.1" id="Layer_1" xmlns="http://www.w3.org/2000/svg" xmlns:xlink="http://www.w3.org/1999/xlink" x="0px" y="0px"
	 viewBox="0 0 30 30" style="enable-background:new 0 0 30 30;" xml:space="preserve">
<style type="text/css">
	.st0{fill:#F1F1F1;}
</style>
<path class="st0" d="M4.1,16.9c0,1.1,0.3,2.1,1,3s1.5,1.5,2.6,1.8L7,23.3c0,0.1,0,0.2,0.2,0.2h2.1l-1,3.5h0.3l3.9-4.9
	c0,0,0-0.1,0-0.1s-0.1-0.1-0.1-0.1h-2.2l2.5-4.6c0.1-0.1,0-0.2-0.1-0.2h-3c-0.1,0-0.2,0-0.2,0.1l-1.1,2.9c-0.7-0.2-1.3-0.6-1.8-1.2
	s-0.7-1.3-0.7-2c0-0.8,0.3-1.6,0.8-2.2s1.3-1,2.1-1.1l0.5-0.1c0.1,0,0.2-0.1,0.2-0.2l0.1-0.5c0.1-1.1,0.6-2,1.4-2.7s1.8-1.1,2.9-1.1
	c1.1,0,2,0.4,2.9,1.1c0.8,0.7,1.3,1.6,1.4,2.7l0.1,0.6c0,0.1,0.1,0.2,0.2,0.2h1.6c0.9,0,1.7,0.3,2.3,0.9s1,1.4,1,2.3
	c0,0.9-0.3,1.6-0.9,2.2c-0.6,0.6-1.3,1-2.2,1c-0.1,0-0.2,0.1-0.2,0.2v1.4c0,0.1,0.1,0.2,0.2,0.2c0.9,0,1.7-0.3,2.4-0.7
	c0.7-0.5,1.3-1,1.7-1.8s0.6-1.6,0.6-2.5c0-0.9-0.2-1.7-0.7-2.4c0.8-0.8,1.3-1.6,1.6-2.6l0.1-0.7c0,0,0,0,0-0.1c0-0.1,0-0.1-0.2-0.1
	l-0.6-0.2c-0.6-0.2-1.1-0.4-1.5-0.8c-0.4-0.4-0.7-0.8-0.9-1.2c-0.2-0.4-0.3-0.9-0.3-1.3c0-0.3,0-0.5,0.1-0.8l0.1-0.6
	c0-0.1,0-0.2-0.1-0.2c-0.2-0.1-0.5-0.2-0.9-0.3c-0.4-0.1-0.8-0.1-1.1-0.1c-0.4,0-0.7,0-1.1,0.1c-0.4,0.1-0.8,0.2-1.2,0.4
	c-0.4,0.2-0.8,0.4-1.2,0.8c-0.4,0.3-0.7,0.8-1,1.2c-0.8-0.3-1.6-0.4-2.4-0.4c-1.4,0-2.7,0.4-3.8,1.3s-1.8,2-2.1,3.4
	c-1.1,0.3-2,0.8-2.7,1.7C4.4,14.7,4.1,15.7,4.1,16.9z M12.2,26.7c0,0.2,0.1,0.3,0.1,0.5c0.1,0.1,0.3,0.3,0.4,0.3c0.1,0,0.2,0,0.3,0
	c0.4,0,0.7-0.2,0.8-0.6l2.3-8.8c0.1-0.2,0-0.5-0.1-0.6c-0.1-0.2-0.3-0.3-0.5-0.4c-0.2-0.1-0.4,0-0.6,0.1c-0.2,0.1-0.3,0.3-0.4,0.5
	l-2.3,8.8C12.2,26.5,12.2,26.6,12.2,26.7z M16.4,23.7c0,0.2,0,0.3,0.1,0.5s0.3,0.3,0.5,0.3c0,0,0.1,0,0.1,0s0.1,0,0.2,0
	c0.4,0,0.6-0.2,0.7-0.6l1.5-5.8c0.1-0.2,0-0.5-0.1-0.7c-0.1-0.2-0.3-0.3-0.5-0.4c-0.2-0.1-0.5,0-0.6,0.1c-0.2,0.1-0.3,0.3-0.4,0.5
	l-1.5,5.8C16.4,23.5,16.4,23.6,16.4,23.7z M17.6,8.8c0.3-0.6,0.8-1,1.3-1.3C19.5,7.1,20.1,7,20.7,7c0.1,0,0.2,0,0.3,0v0.3
	c0,1,0.3,1.9,0.8,2.7s1.3,1.5,2.2,2c-0.2,0.4-0.4,0.8-0.8,1.1c-0.9-0.8-2-1.2-3.2-1.2h-0.3C19.3,10.7,18.6,9.6,17.6,8.8z"/>
</svg>
