<svg width="150" height="150" viewBox="0 0 150 150" fill="none" xmlns="http://www.w3.org/2000/svg">
<g clip-path="url(#clip0_44_63)">
<path d="M116.527 134.898C117.043 135.071 117.577 135.088 118.145 134.95C118.713 134.83 119.264 134.554 119.797 134.141C120.348 133.728 120.761 133.245 121.053 132.729C121.346 132.212 121.466 131.678 121.432 131.145C121.415 130.611 121.225 130.111 120.881 129.664C120.451 129.078 119.883 128.785 119.195 128.734C118.506 128.682 117.715 128.854 116.82 129.199L115.288 129.767C114.118 130.215 113.068 130.421 112.156 130.37C111.244 130.318 110.469 129.87 109.85 129.061C109.385 128.441 109.127 127.77 109.075 127.029C109.024 126.289 109.196 125.565 109.574 124.825C109.953 124.085 110.538 123.43 111.33 122.828C112.087 122.259 112.844 121.88 113.602 121.708C114.359 121.536 115.082 121.553 115.753 121.76C116.424 121.967 117.009 122.363 117.508 122.931L116.648 123.585C116.252 123.155 115.804 122.862 115.271 122.724C114.737 122.586 114.187 122.586 113.602 122.724C113.016 122.879 112.448 123.155 111.881 123.602C111.278 124.067 110.814 124.567 110.504 125.135C110.194 125.703 110.039 126.271 110.074 126.84C110.108 127.408 110.297 127.942 110.659 128.424C110.951 128.82 111.313 129.078 111.708 129.233C112.104 129.388 112.569 129.405 113.085 129.337C113.602 129.268 114.204 129.095 114.892 128.837L116.562 128.2C117.697 127.77 118.696 127.615 119.539 127.735C120.382 127.856 121.071 128.269 121.604 128.992C122.052 129.595 122.31 130.249 122.344 130.972C122.378 131.696 122.224 132.402 121.862 133.073C121.501 133.762 120.967 134.365 120.279 134.898C119.591 135.415 118.868 135.759 118.128 135.914C117.388 136.069 116.682 136.035 115.994 135.794C115.305 135.553 114.737 135.157 114.255 134.588L115.082 133.969C115.477 134.399 115.925 134.692 116.441 134.864L116.527 134.898Z" fill="#272727"/>
<path d="M106.873 126.564L108.577 142.01L107.51 142.527L96.3408 131.747L97.339 131.265L107.424 141.08L107.493 141.046L105.892 127.064L106.89 126.581L106.873 126.564ZM100.867 135.691L100.454 134.847L106.822 131.713L107.235 132.574L100.867 135.708V135.691Z" fill="#272727"/>
<path d="M92.2622 134.227L92.1589 134.261L91.2984 148.312L90.2314 148.622L91.2468 133.125L92.3827 132.798L101.521 145.368L100.454 145.678L92.245 134.244L92.2622 134.227Z" fill="#272727"/>
<path d="M83.3643 134.743L84.3968 134.588L86.5136 149.036L85.4811 149.191L83.3643 134.726V134.743Z" fill="#272727"/>
<path d="M69.029 135.208H70.0444L78.9074 148.089H79.0107L79.2172 135.363H80.2498L80.0088 149.983H78.9935L70.1304 137.085H70.0444L69.8379 149.811H68.7881L69.029 135.191V135.208Z" fill="#272727"/>
<path d="M67.531 135.122L59.1671 148.209L58.014 147.951L56.0693 132.539L57.1535 132.78L58.8573 146.745H58.9434L66.464 134.864L67.5482 135.105L67.531 135.122ZM57.1191 138.446L57.3256 137.516L64.244 139.066L64.0374 139.995L57.1191 138.446Z" fill="#272727"/>
<path d="M42.0778 142.475L43.9536 128.389L43.8676 128.338L32.4919 136.844L31.4766 136.259L38.8595 123.654L39.72 124.153L33.5417 134.709L33.6278 134.761L44.2634 126.805L45.1067 127.305L43.3685 140.478L43.4373 140.512L49.6156 129.956L50.4761 130.456L43.0931 143.061L42.0778 142.458V142.475Z" fill="#272727"/>
<path d="M18.6904 124.567L25.4711 117.679C26.1595 116.973 26.9511 116.508 27.8288 116.267C28.7065 116.026 29.6014 116.043 30.5135 116.301C31.4256 116.559 32.2517 117.059 32.9917 117.799C33.7317 118.54 34.248 119.349 34.5234 120.244C34.7987 121.14 34.8159 122.035 34.5922 122.931C34.3685 123.826 33.921 124.601 33.2154 125.307L26.4348 132.195L25.6948 131.472L32.4238 124.635C32.9917 124.05 33.3703 123.413 33.5596 122.69C33.7489 121.966 33.7317 121.243 33.508 120.52C33.2843 119.78 32.8712 119.125 32.2689 118.523C31.6666 117.92 30.9954 117.524 30.2554 117.317C29.5153 117.11 28.7925 117.11 28.0869 117.317C27.3813 117.524 26.7274 117.903 26.1595 118.488L19.4304 125.324L18.6904 124.601V124.567Z" fill="#272727"/>
<path d="M12.7009 112.565C12.4944 113.064 12.4428 113.598 12.546 114.183C12.6321 114.751 12.873 115.32 13.2344 115.888C13.613 116.456 14.0605 116.904 14.5596 117.231C15.0586 117.541 15.5749 117.713 16.1256 117.713C16.6592 117.713 17.1582 117.575 17.6401 117.266C18.2424 116.869 18.5866 116.336 18.6727 115.647C18.7587 114.958 18.6555 114.166 18.3629 113.253L17.881 111.686C17.5024 110.481 17.3647 109.431 17.4852 108.518C17.6057 107.605 18.0876 106.865 18.948 106.297C19.602 105.866 20.2904 105.66 21.0132 105.642C21.736 105.625 22.476 105.849 23.1816 106.279C23.8872 106.71 24.524 107.33 25.0575 108.156C25.5738 108.948 25.9008 109.723 26.0212 110.498C26.1417 111.273 26.0729 111.996 25.8319 112.651C25.5738 113.305 25.1608 113.873 24.5584 114.338L23.9733 113.443C24.4379 113.081 24.7477 112.651 24.9198 112.117C25.0919 111.6 25.1263 111.049 25.0059 110.464C24.9026 109.878 24.6445 109.276 24.2486 108.69C23.8356 108.053 23.3537 107.554 22.803 107.209C22.2523 106.848 21.7016 106.675 21.1165 106.658C20.5486 106.658 19.9978 106.813 19.4988 107.14C19.0857 107.416 18.7932 107.743 18.6383 108.139C18.4662 108.535 18.4145 109 18.449 109.517C18.5006 110.033 18.6211 110.653 18.8448 111.342L19.3611 113.064C19.7225 114.235 19.8085 115.234 19.6364 116.077C19.4643 116.921 18.9997 117.575 18.2597 118.058C17.6401 118.471 16.9517 118.678 16.2461 118.678C15.5233 118.678 14.8349 118.471 14.1809 118.058C13.527 117.662 12.9418 117.093 12.46 116.353C11.9781 115.63 11.6855 114.889 11.5823 114.132C11.479 113.374 11.5651 112.668 11.8404 112.014C12.1158 111.359 12.546 110.808 13.1484 110.36L13.7163 111.221C13.2688 111.583 12.9246 112.014 12.7353 112.513L12.7009 112.565Z" fill="#272727"/>
<path d="M7.64107 107.76L4.42285 100.149L5.30055 99.7705L8.10573 106.417L13.5096 104.127L10.8765 97.8936L11.737 97.532L14.3701 103.765L19.7739 101.475L16.8999 94.6735L17.7948 94.2947L21.0647 102.044L7.62386 107.743L7.64107 107.76Z" fill="#272727"/>
<path d="M0.620117 84.3245L10.1027 82.4476C11.0664 82.2581 11.9785 82.3098 12.839 82.6025C13.6995 82.8953 14.4223 83.4119 15.0419 84.1351C15.6442 84.8583 16.04 85.7365 16.2466 86.7697C16.4531 87.8029 16.4186 88.7672 16.1261 89.6626C15.8507 90.558 15.3689 91.3157 14.6805 91.9183C13.9921 92.521 13.1832 92.9343 12.2195 93.1065L2.73691 94.9834L2.5304 93.9675L11.9441 92.1078C12.7358 91.9528 13.4242 91.6256 13.9749 91.1435C14.5256 90.6613 14.9214 90.0414 15.1623 89.3182C15.3861 88.595 15.4205 87.8029 15.2656 86.9591C15.0935 86.1153 14.7665 85.4093 14.2846 84.8239C13.7856 84.2384 13.2004 83.8251 12.4948 83.6013C11.7892 83.3602 11.0492 83.3258 10.2404 83.4807L0.826634 85.3405L0.620117 84.3245Z" fill="#272727"/>
<path d="M0.0692073 76.6789L13.424 71.8575V71.7541L0.637128 65.5723L0.705967 64.4014L15.2826 65.159L15.231 66.1578L3.01207 65.5206V65.624L14.9556 71.4097L14.904 72.374L2.42694 76.9028V76.9889L14.6458 77.626L14.5942 78.6248L0.0175781 77.8671L0.086417 76.6962L0.0692073 76.6789Z" fill="#272727"/>
<path d="M17.933 46.5446C18.7935 47.4573 19.3442 48.456 19.568 49.5581C19.7917 50.6601 19.6884 51.7794 19.241 52.8987C18.7935 54.0352 18.1051 54.9134 17.1758 55.5677C16.2465 56.2221 15.1623 56.5837 13.906 56.6526C12.6496 56.7214 11.3417 56.4804 9.96493 55.9293C8.57094 55.3783 7.45231 54.6551 6.59182 53.7424C5.73134 52.8298 5.18063 51.8311 4.9569 50.729C4.73317 49.6269 4.83643 48.5077 5.28389 47.3712C5.73134 46.2519 6.41973 45.3565 7.33184 44.7194C8.26117 44.065 9.34538 43.7206 10.5845 43.6345C11.8408 43.5656 13.1487 43.8067 14.5427 44.3578C15.9367 44.9088 17.0553 45.632 17.9158 46.5446H17.933ZM10.7394 44.6677C9.67237 44.7194 8.74304 45.0121 7.95139 45.5459C7.17696 46.0797 6.59182 46.8202 6.23042 47.75C5.86902 48.6799 5.78297 49.627 5.97227 50.5396C6.17879 51.4694 6.64345 52.3132 7.40068 53.0881C8.1407 53.863 9.13886 54.5001 10.3608 54.9822C11.5826 55.4644 12.7185 55.6883 13.8027 55.6366C14.8697 55.5849 15.799 55.2922 16.5907 54.7584C17.3823 54.2246 17.9502 53.4841 18.3289 52.5371C18.6903 51.59 18.7763 50.6601 18.5698 49.7475C18.3633 48.8348 17.8814 47.9739 17.1414 47.199C16.4014 46.4241 15.4204 45.8042 14.1985 45.322C12.9766 44.8399 11.8236 44.616 10.7566 44.6677H10.7394Z" fill="#272727"/>
<path d="M10.3955 37.1599L14.9217 30.2549L15.7305 30.7887L11.7723 36.8328L16.6771 40.0528L20.2739 34.577L21.0655 35.0936L17.4687 40.5694L23.1823 44.3233L22.6144 45.1843L10.4127 37.1599H10.3955Z" fill="#272727"/>
<path d="M30.8576 17.8739C30.152 17.7189 29.4464 17.7189 28.7236 17.8911C28.0008 18.0633 27.3296 18.4077 26.7272 18.9415C26.0044 19.5786 25.5053 20.3363 25.2472 21.2489C24.9891 22.1444 25.0063 23.1259 25.2988 24.1763C25.5914 25.2267 26.1765 26.2598 27.0714 27.293C27.9663 28.3262 28.9129 29.0494 29.911 29.4799C30.9092 29.9104 31.8729 30.0654 32.7851 29.9276C33.7144 29.7899 34.5405 29.411 35.2633 28.7739C35.8656 28.2401 36.3131 27.6202 36.5712 26.9314C36.8293 26.2426 36.9498 25.5366 36.8982 24.8306C36.8466 24.1246 36.64 23.4703 36.2958 22.8676L37.1047 22.1616C37.5349 22.902 37.8103 23.7113 37.9136 24.5895C38.0168 25.4677 37.9136 26.3287 37.5694 27.2069C37.2424 28.0679 36.6917 28.8428 35.9172 29.5143C35.0051 30.3064 33.9897 30.7886 32.8711 30.9436C31.7525 31.0985 30.6166 30.9091 29.4808 30.4098C28.3449 29.9104 27.2779 29.0839 26.297 27.9646C25.316 26.8453 24.6449 25.6744 24.3007 24.469C23.9565 23.2636 23.9393 22.1271 24.2318 21.0423C24.5416 19.9575 25.1439 19.0104 26.0733 18.2183C26.8477 17.5467 27.691 17.099 28.5859 16.8924C29.4808 16.6857 30.3585 16.6857 31.219 16.9268C32.0795 17.1507 32.8367 17.5295 33.5251 18.0805L32.7162 18.7865C32.1827 18.356 31.5632 18.0633 30.8576 17.9083V17.8739Z" fill="#272727"/>
<path d="M49.9425 16.3069C50.0114 17.5467 49.7704 18.6832 49.2369 19.6647C48.7034 20.6635 47.8946 21.4383 46.8276 22.0066C45.7606 22.5748 44.6592 22.8159 43.5233 22.7126C42.3875 22.6093 41.3377 22.1788 40.3395 21.4211C39.3414 20.6635 38.4981 19.6303 37.7925 18.3216C37.0869 16.9957 36.7083 15.7214 36.6394 14.4644C36.5706 13.2074 36.8115 12.0881 37.345 11.1066C37.8785 10.1251 38.6874 9.33296 39.7544 8.76471C40.8214 8.19646 41.9228 7.95539 43.0414 8.05871C44.1601 8.16202 45.2271 8.59251 46.2252 9.35018C47.2234 10.1078 48.0839 11.141 48.7895 12.4497C49.4951 13.7584 49.8737 15.0499 49.9425 16.2897V16.3069ZM45.6573 10.2284C44.7968 9.57403 43.9019 9.1952 42.9726 9.09188C42.0433 8.98856 41.114 9.17798 40.2363 9.66013C39.3586 10.1423 38.6874 10.7966 38.2399 11.6232C37.7925 12.4669 37.6032 13.414 37.672 14.4988C37.7408 15.5837 38.085 16.7029 38.7046 17.8567C39.3241 19.0104 40.0642 19.923 40.9074 20.5774C41.7679 21.2317 42.6628 21.6105 43.6094 21.6966C44.5559 21.8 45.468 21.6105 46.3801 21.1284C47.2578 20.6462 47.929 19.9919 48.3765 19.1481C48.8239 18.3044 48.996 17.3573 48.9272 16.2897C48.8583 15.2221 48.5141 14.1028 47.8946 12.9491C47.275 11.7781 46.535 10.8827 45.6745 10.2112L45.6573 10.2284Z" fill="#272727"/>
<path d="M65.1391 15.3255L64.1582 15.5838L52.1458 5.59645L52.0425 5.63089L55.278 17.9257L54.2798 18.184L50.5625 4.04669L51.5435 3.78839L63.5558 13.793H63.6419L60.4065 1.46375L61.4218 1.18823L65.1391 15.3255Z" fill="#272727"/>
<path d="M66.4814 0.464929L76.8417 0L76.8933 0.964298L72.2467 1.17093L72.8663 14.8089L71.8165 14.8605L71.1969 1.22259L66.5331 1.42923L66.4987 0.464929H66.4814Z" fill="#272727"/>
<path d="M81.5747 0.344482L89.7493 1.48098L89.6116 2.42805L82.4696 1.44654L81.6607 7.26676L88.3553 8.19662L88.2176 9.12648L81.5231 8.19662L80.7142 14.0169L88.0111 15.0328L87.8735 15.9971L79.5439 14.8434L81.5747 0.344482Z" fill="#272727"/>
<path d="M96.4264 3.0306L96.9255 17.2196L97.0288 17.254L106.821 6.97389L107.923 7.38716L102.742 21.0423L101.813 20.6807L106.15 9.22966L106.064 9.19522L96.8911 18.8038L95.979 18.4594L95.4971 5.18305L95.4283 5.14862L91.0914 16.5824L90.1621 16.2208L95.3422 2.56567L96.4437 2.97894L96.4264 3.0306Z" fill="#272727"/>
<path d="M113.343 10.5383L117.129 13.0868C117.904 13.6034 118.472 14.2233 118.833 14.9293C119.195 15.6353 119.332 16.3586 119.246 17.1162C119.177 17.8739 118.885 18.6143 118.42 19.3203C117.955 20.0263 117.37 20.5601 116.699 20.9045C116.028 21.2661 115.305 21.4039 114.513 21.335C113.739 21.2661 112.947 20.9734 112.173 20.4568L108.989 18.3216L109.523 17.5123L112.672 19.6303C113.274 20.0436 113.894 20.2674 114.496 20.3191C115.099 20.3707 115.667 20.2502 116.183 19.9747C116.699 19.6992 117.147 19.2687 117.525 18.7176C117.904 18.1494 118.128 17.5639 118.179 16.9785C118.248 16.393 118.145 15.8247 117.869 15.2909C117.594 14.7571 117.147 14.275 116.527 13.8617L113.619 11.9159L106.012 23.2464L105.151 22.6609L113.292 10.5383H113.343Z" fill="#272727"/>
<path d="M124.512 34.6285C123.325 35.0418 122.189 35.1279 121.088 34.8868C119.986 34.6458 119.005 34.0947 118.179 33.2165C117.336 32.3383 116.802 31.3568 116.596 30.2375C116.389 29.1183 116.51 27.9818 116.957 26.8108C117.405 25.6399 118.162 24.5379 119.229 23.5047C120.296 22.4715 121.432 21.7311 122.602 21.3178C123.79 20.9045 124.925 20.8184 126.027 21.0595C127.128 21.3006 128.092 21.8688 128.952 22.7298C129.796 23.5908 130.329 24.5895 130.536 25.6916C130.742 26.7936 130.622 27.9301 130.174 29.1011C129.727 30.272 128.97 31.374 127.903 32.4244C126.836 33.4576 125.7 34.1981 124.53 34.5941L124.512 34.6285ZM129.176 28.8255C129.572 27.8268 129.692 26.8625 129.52 25.9326C129.348 25.0028 128.918 24.1762 128.212 23.453C127.507 22.7298 126.698 22.2649 125.769 22.0755C124.839 21.886 123.876 21.9549 122.86 22.3165C121.845 22.6781 120.864 23.3153 119.917 24.2451C118.971 25.1578 118.317 26.1221 117.921 27.1208C117.525 28.1195 117.422 29.0838 117.577 30.0309C117.749 30.9608 118.179 31.8045 118.885 32.5278C119.59 33.251 120.416 33.6987 121.329 33.8881C122.241 34.0775 123.222 33.9914 124.237 33.6298C125.252 33.2682 126.233 32.6311 127.163 31.7184C128.109 30.8058 128.78 29.8415 129.176 28.8428V28.8255Z" fill="#272727"/>
<path d="M136.233 31.6497L138.659 35.5241C139.158 36.3334 139.451 37.1083 139.502 37.8832C139.571 38.658 139.416 39.364 139.055 40.0184C138.694 40.6727 138.16 41.2238 137.437 41.6715C136.714 42.1192 135.992 42.3603 135.269 42.4119C134.529 42.4464 133.84 42.2742 133.169 41.8781C132.498 41.4821 131.913 40.8966 131.414 40.0873L129.28 36.6778L130.106 36.1612L132.223 39.5362C132.619 40.1561 133.066 40.6211 133.582 40.931C134.099 41.241 134.632 41.3615 135.183 41.3443C135.751 41.3099 136.319 41.1204 136.887 40.7761C137.454 40.4144 137.885 39.984 138.16 39.4846C138.453 38.9852 138.556 38.4342 138.504 37.8315C138.453 37.2288 138.229 36.6261 137.833 36.0062L135.974 33.0444L124.427 40.3111L123.876 39.4329L136.233 31.6669V31.6497ZM129.056 47.6811L128.402 46.6479L132.102 40.1045L132.739 41.1032L129.056 47.6639V47.6811Z" fill="#272727"/>
<path d="M129.193 47.8877L144.717 47.5605L145.147 48.6626L133.427 58.8394L133.031 57.8062L143.701 48.6282L143.667 48.5593L129.606 48.9209L129.211 47.8877H129.193ZM137.729 54.6895L136.852 55.0339L134.305 48.4215L135.182 48.0771L137.729 54.6895Z" fill="#272727"/>
<path d="M148.073 57.9097L148.865 62.404C149.02 63.3338 148.985 64.1776 148.762 64.9008C148.538 65.624 148.125 66.2267 147.54 66.7089C146.955 67.1738 146.249 67.4838 145.406 67.6387C144.562 67.7765 143.805 67.7421 143.117 67.501C142.428 67.2599 141.843 66.8294 141.379 66.2267C140.914 65.6068 140.587 64.8492 140.432 63.9193L139.744 59.9588L140.69 59.7866L141.379 63.7299C141.499 64.4531 141.757 65.0558 142.101 65.538C142.463 66.0029 142.91 66.3301 143.444 66.5195C143.977 66.7089 144.58 66.7433 145.234 66.6228C145.888 66.5022 146.456 66.2612 146.903 65.8996C147.35 65.538 147.677 65.073 147.85 64.5048C148.022 63.9365 148.056 63.2822 147.918 62.559L147.316 59.115L133.875 61.4569L133.703 60.4409L148.09 57.9269L148.073 57.9097ZM135.372 70.0323L135.166 68.8269L141.069 64.1776L141.275 65.3485L135.372 70.0323Z" fill="#272727"/>
<path d="M149.983 71.1514L142.927 75.5424V75.6458L149.845 80.2434V81.5004L141.843 76.1107L135.32 76.0074V74.9397L141.86 75.0431L150.017 69.9116V71.1342L149.983 71.1514Z" fill="#272727"/>
<path d="M134.632 85.9258L147.23 95.0177L146.903 96.1714L131.414 97.2391L131.724 96.1714L145.767 95.2588V95.1899L134.34 87.0106L134.649 85.943L134.632 85.9258ZM137.369 96.4986L136.457 96.2403L138.401 89.4214L139.313 89.6797L137.369 96.4986Z" fill="#272727"/>
<path d="M126.269 107.313L126.819 106.228L134.323 106.056L133.789 107.123L126.269 107.313ZM143.702 105.263L141.62 109.327C141.189 110.171 140.656 110.825 140.036 111.256C139.417 111.704 138.728 111.927 137.971 111.962C137.231 111.979 136.474 111.807 135.717 111.411C134.959 111.032 134.374 110.533 133.979 109.913C133.565 109.31 133.359 108.621 133.359 107.846C133.359 107.072 133.565 106.262 133.996 105.436L135.82 101.854L136.68 102.302L134.873 105.866C134.529 106.52 134.374 107.158 134.374 107.743C134.374 108.329 134.529 108.862 134.856 109.327C135.166 109.792 135.631 110.188 136.216 110.498C136.818 110.791 137.403 110.946 137.988 110.929C138.556 110.929 139.09 110.739 139.572 110.378C140.054 110.033 140.467 109.517 140.794 108.862L142.377 105.746L130.227 99.5466L130.691 98.6167L143.702 105.263Z" fill="#272727"/>
<path d="M137.299 116.973L130.932 125.152L130.175 124.567L133.031 120.899L122.275 112.496L122.929 111.652L133.685 120.055L136.559 116.387L137.317 116.973H137.299Z" fill="#272727"/>
<path d="M70.2676 60.3548C70.2676 68.4136 72.4876 74.9398 75.224 74.9398C77.9603 74.9398 80.1804 68.4136 80.1804 60.3548C80.1804 52.296 77.9603 45.7698 75.224 45.7698C72.4876 45.7698 70.2676 52.296 70.2676 60.3548Z" fill="#272727"/>
<path d="M70.2676 89.542C70.2676 97.6008 72.4876 104.127 75.224 104.127C77.9603 104.127 80.1804 97.6008 80.1804 89.542C80.1804 81.4833 77.9603 74.957 75.224 74.957C72.4876 74.957 70.2676 81.4833 70.2676 89.542Z" fill="#272727"/>
<path d="M60.647 79.9163C68.7011 79.9163 75.2236 77.695 75.2236 74.957C75.2236 72.2191 68.7011 69.9978 60.647 69.9978C52.5928 69.9978 46.0703 72.2191 46.0703 74.957C46.0703 77.695 52.5928 79.9163 60.647 79.9163Z" fill="#272727"/>
<path d="M89.8178 79.9163C97.872 79.9163 104.394 77.695 104.394 74.957C104.394 72.2191 97.872 69.9978 89.8178 69.9978C81.7637 69.9978 75.2412 72.2191 75.2412 74.957C75.2412 77.695 81.7637 79.9163 89.8178 79.9163Z" fill="#272727"/>
</g>
<defs>
<clipPath id="clip0_44_63">
<rect width="150" height="150" fill="white"/>
</clipPath>
</defs>
</svg>
