<svg xmlns="http://www.w3.org/2000/svg" viewBox="0 0 22.01 14"><defs><style>.cls-1{fill:#5c5249;}</style></defs><g id="Layer_2" data-name="Layer 2"><g id="Layer_1-2" data-name="Layer 1"><path class="cls-1" d="M19.5,5.94a3,3,0,0,0,.15-.39,2.51,2.51,0,0,0-1.5-2.93l-2-.8a2.53,2.53,0,0,0-1.41-.12,2.58,2.58,0,0,0-.52-.89A2.51,2.51,0,0,0,12.36,0H9.65A2.48,2.48,0,0,0,7.8.81a2.5,2.5,0,0,0-.53.88,2.53,2.53,0,0,0-1.41.12l-2,.8a2.51,2.51,0,0,0-1.5,2.93l.15.38C.1,10.55,0,10.55,0,11.38A2.59,2.59,0,0,0,1.24,13.6c1.42.88,2.49.14,4-.61H16.77c1.52.76,1.86,1,2.63,1A2.61,2.61,0,0,0,22,11.39C22,10.54,21.88,10.51,19.5,5.94Zm-.38,6-1.68-.84,1.08-2.7,1.41,2.71A.61.61,0,0,1,19.12,11.93Zm-5-.94.62-6.9a.5.5,0,0,1,.68-.42l2,.8a.5.5,0,0,1,.31.54l-2.4,6ZM6.68,11,4.28,5a.5.5,0,0,1,.31-.54l2-.8a.5.5,0,0,1,.68.42L7.9,11Zm-4.61.11L3.48,8.38l1.08,2.71-1.68.84A.61.61,0,0,1,2.07,11.1ZM9.15,2.54A.5.5,0,0,1,9.65,2h2.71a.5.5,0,0,1,.5.54L12.09,11H9.92Z"/></g></g></svg>