<svg xmlns="http://www.w3.org/2000/svg" viewBox="0 0 18 22"><defs><style>.cls-1{fill:#5c5249;}</style></defs><g id="Layer_2" data-name="Layer 2"><g id="Layer_1-2" data-name="Layer 1"><path class="cls-1" d="M9,6a2,2,0,0,0,2-2,1.9,1.9,0,0,0-.29-1L9,0,7.29,3A1.9,1.9,0,0,0,7,4,2,2,0,0,0,9,6Zm6,3H10V7H8V9H3a3,3,0,0,0-3,3v9a1,1,0,0,0,1,1H17a1,1,0,0,0,1-1V12A3,3,0,0,0,15,9Zm1,11H2V17a3.44,3.44,0,0,0,2.4-1l1.09-1.07L6.56,16a3.54,3.54,0,0,0,4.89,0l1.08-1.07L13.6,16A3.44,3.44,0,0,0,16,17Zm0-4.5a1.91,1.91,0,0,1-1.35-.57L12.52,12.8l-2.14,2.13a2,2,0,0,1-2.77,0L5.48,12.8,3.34,14.93A1.91,1.91,0,0,1,2,15.5V12a1,1,0,0,1,1-1H15a1,1,0,0,1,1,1Z"/></g></g></svg>