<svg xmlns="http://www.w3.org/2000/svg" viewBox="0 0 377.28 292.05"><defs><style>.cls-1,.cls-2{fill:#0d4732;}.cls-2{font-size:21px;font-family:MonotypeCorsiva, Monotype Corsiva;}.cls-3{fill:none;stroke:#0d4732;stroke-width:5px;}</style></defs><g id="Layer_2" data-name="Layer 2"><g id="Layer_2-2" data-name="Layer 2"><path class="cls-1" d="M199.77,217.34c-53.45,3.39-96.24.2-139,.54-7.39.06-11.2-2.24-11.79-9.63-.3-3.73-1.29-7.41-1.51-11.14-1.58-26.89.88-29.78,27.46-29.73,78,.16,156.12-3.07,234.12,1.27,6.34.35,16.5-4.26,19.14,6.71,3.19,13.23,3.71,26.88-1.8,39.53-2,4.69-8.94,2.36-13.64,2.38C271.52,217.39,230.33,217.34,199.77,217.34Zm111.8-34c-7-9.92-30.26-11.92-82.71-6C256.26,184.76,284.9,177.93,311.57,183.3Z"/><path class="cls-1" d="M43.92,177.84v26.81c-7.66-6.57-14.4-7.75-22.88-4.14A16.55,16.55,0,0,1,1.7,196c-2.95-3.32-1.68-6.18.89-8.32C8.27,183,15,180,22,184.16,29.7,188.78,36,187.56,43.92,177.84Z"/><path class="cls-1" d="M334.73,204.58V180.71c7.37,5.6,13.92,8.24,22.31,4.35,6.45-3,13.92-2.31,19,4.14a5.41,5.41,0,0,1-.54,7.37,16.36,16.36,0,0,1-19.45,3.26C347.77,195.65,341.8,198.21,334.73,204.58Z"/><text class="cls-2" transform="matrix(0.85, 0.53, -0.53, 0.85, 157.88, 237.12)">s</text><text class="cls-2" transform="translate(164.29 241) rotate(26.73)">i</text><text class="cls-2" transform="translate(169.62 243.77) rotate(20.4)">n</text><text class="cls-2" transform="translate(179.75 247.38) rotate(13.16)">c</text><text class="cls-2" transform="translate(187.62 249.17) rotate(7.02)">e</text><text class="cls-2" transform="translate(195.48 250.04) rotate(2.02)"> </text><text class="cls-2" transform="matrix(1, -0.07, 0.07, 1, 200.98, 250.31)">1</text><text class="cls-2" transform="translate(211.38 249.54) rotate(-11.7)">9</text><text class="cls-2" transform="translate(221.62 247.33) rotate(-19.69)">9</text><text class="cls-2" transform="translate(231.43 243.73) rotate(-27.64)">7</text><circle class="cls-3" cx="196.18" cy="149.32" r="121.53"/><path class="cls-1" d="M104.15,131.45a13.31,13.31,0,0,0-3.13.65c-1,.41-1.36.72-1.69,2.67l-.59,3.55L116,141.2c2.77.46,3.21.24,4-3.1l1,.17-1.72,10.33-1-.16c.33-3.34,0-3.68-2.78-4.15l-17.29-2.88-.54,3.24c-.32,1.95-.2,2.55.76,3.33a15.93,15.93,0,0,0,2.68,1.65L101,150.7c-2.13-.58-4.33-1.16-6.3-1.6l.14-.81c.94-.4,1-.79,1.13-1.79l2.34-14.06a1.8,1.8,0,0,0-.51-1.94l.14-.86c1.67.28,4.25.56,6.34.73Z"/><path class="cls-1" d="M106.07,110.38a11.58,11.58,0,0,1,15.85-5.12c6.92,3.47,8.88,10.33,5.92,16.25a11.71,11.71,0,0,1-16.1,5.31C106,123.94,102.67,117.17,106.07,110.38Zm.87,1.24c-1.8,3.61-.42,8.4,5.6,11.42s12,1.92,14.33-2.65c1.95-3.9.52-8.28-5.69-11.39C114.42,105.62,109.05,107.4,106.94,111.62Z"/><path class="cls-1" d="M135.19,76.06c-1.49,1.71-1.67,2.7-.55,3.92.56.61,1.58,1.73,3.93,4.07l2.76,2.74c2.6,2.59,4.28,4.88,4.37,7.91.05,2.44-1.29,4.56-3,6.32a9.75,9.75,0,0,1-5.34,3c-2.7.37-5.2-.65-8.18-3.62l-6.51-6.48c-2.3-2.28-2.65-2.23-4.86-.37l-.72-.71,6.68-6.71.72.71c-1.91,2.17-1.91,2.58.39,4.86l6.38,6.35c3.72,3.71,7.52,4,10.57.92,3.6-3.62,2.5-7-1.73-11.22l-2.61-2.59c-2.34-2.34-3.39-3.23-4.13-3.86-1.22-1.07-2.24-.91-4.22.87l-.72-.71,6.1-6.12Z"/><path class="cls-1" d="M153.55,70.43c-1.73-1.74-3.78-3.26-6.7-1.55-2.43,1.42-2.23,3.68-1.29,5.29,1.26,2.15,3.26,2.44,6.62,2.27,4.85-.25,7.31.23,9,3.18,1.91,3.27.53,7.41-3.48,9.75a15,15,0,0,1-5.35,1.75A48.14,48.14,0,0,1,148.81,87l.82-.81c1.84,1.72,4.79,3.62,8,1.73a4,4,0,0,0,1.52-5.68c-1.4-2.39-3.24-2.61-6.84-2.5-4.3.13-7-.29-8.7-3.18s-.84-6.72,3.26-9.12a23.29,23.29,0,0,1,4.45-1.8c.78,1,1.63,2.21,3.06,4.09Z"/><path class="cls-1" d="M172.88,81.75l-.27-1c2.17-.82,2.4-1.07,1.77-3.36l-4.56-16.63c-.58-2.12-.81-2.28-3.11-1.95l-.25-.9a25.1,25.1,0,0,0,4.81-2.59l1.36,4.93,4.49,16.39c.63,2.29.88,2.4,3.2,2l.27,1Z"/><path class="cls-1" d="M194.16,74.64c-1.94,3.13-4.36,4-5.51,4.19-4.36.53-7.44-2.72-7.94-6.83a9.25,9.25,0,0,1,1.56-6.54,7.42,7.42,0,0,1,5-3.26,5.61,5.61,0,0,1,6.14,4.87c.05.72,0,1.06-.57,1.27s-5.23,1.11-9.47,1.77c.48,4.8,3.65,6.41,6.19,6.1a6.08,6.08,0,0,0,3.92-2.33Zm-7.57-11c-1.65.21-3.07,1.94-3.22,4.89,2-.24,4-.48,6.1-.85.64-.08.84-.28.77-.82A3.34,3.34,0,0,0,186.59,63.66Z"/><path class="cls-1" d="M205.83,66.66c-.55-2.12-1.42-3.6-3.61-3.71a2.18,2.18,0,0,0-2.34,2.23c-.08,1.55.93,2.32,2.9,3.35,3,1.62,4.52,2.78,4.4,5.15-.15,3.31-3.26,4.85-6.1,4.72a9.54,9.54,0,0,1-4.23-1.21c-.13-1.06-.36-3-.44-4.24l1.05-.13c.53,2.33,1.7,4.26,4.22,4.38a2.4,2.4,0,0,0,2.64-2.32c.07-1.62-.86-2.5-2.72-3.52-2.46-1.35-4.45-2.59-4.33-5.18s2.45-4.54,5.83-4.37a18.52,18.52,0,0,1,3.43.63c.07.87.21,3.14.35,4Z"/><path class="cls-1" d="M232.13,61.43c-2.78-.51-3.12-.39-4,2.5l-3.93,12.73c-1.4,4.54-2.85,6.69-5.79,8a12.08,12.08,0,0,1-3.82,1l-.23-1.2A6.38,6.38,0,0,0,219.19,81a38.79,38.79,0,0,0,2.36-6.43L225.12,63c.9-2.89.66-3.23-2.08-4.38l.3-1,9.08,2.8Z"/><path class="cls-1" d="M249.91,68.35a11.57,11.57,0,0,1,4,16.16c-4,6.66-10.93,8.14-16.63,4.76a11.73,11.73,0,0,1-4.16-16.43C236.4,67.29,243.38,64.48,249.91,68.35Zm-1.3.78c-3.47-2.06-8.35-1-11.78,4.78s-2.76,11.87,1.63,14.48c3.75,2.22,8.22,1.1,11.76-4.88C254.07,77,252.67,71.53,248.61,69.13Z"/><path class="cls-1" d="M282.11,99.8c-1.6-1.61-2.58-1.86-3.87-.82-.65.52-1.84,1.46-4.33,3.63L271,105.17c-2.77,2.41-5.17,3.93-8.2,3.8-2.44-.11-4.46-1.6-6.09-3.47a9.82,9.82,0,0,1-2.63-5.54c-.17-2.72,1-5.14,4.19-7.91l6.91-6c2.45-2.13,2.42-2.49.72-4.83l.75-.66,6.23,7.14-.76.66c-2-2-2.44-2.08-4.88,0l-6.78,5.91c-4,3.46-4.5,7.23-1.66,10.48,3.36,3.85,6.81,3,11.32-.94l2.77-2.41c2.49-2.18,3.45-3.16,4.14-3.85,1.15-1.15,1.06-2.18-.58-4.28l.76-.66,5.68,6.51Z"/><path class="cls-1" d="M273.71,134.7a13.31,13.31,0,0,1-.49-1.24,6.38,6.38,0,0,1,.47-6.39c1.12-2,2.64-4.1,3.83-5.91.75-1.14.75-1.65,0-3.32l-.52-1.15-5.14,2.36c-2.78,1.27-2.78,1.71-1.84,4.44l-.92.42-4-8.74.92-.42c1.54,2.59,1.78,2.76,4.56,1.48l13.06-6c2.78-1.28,2.71-1.68,1.82-4.41l.92-.41,3.82,8.34c1.1,2.39,1.54,4.13,1.29,5.75a5.37,5.37,0,0,1-3.3,4.2c-2.81,1.29-5.41.3-7.56-1.64-.75,1.06-2.3,3.47-3.32,5.12a34.21,34.21,0,0,0-2.19,4.14,5.17,5.17,0,0,0-.41,3.07Zm5.1-16.95a5.85,5.85,0,0,0,2.6,3.17,5.06,5.06,0,0,0,4.85,0c3.5-1.6,3.71-4.51,2.56-7a3.37,3.37,0,0,0-1.12-1.59c-.37-.19-.74-.13-1.59.26l-8,3.67Z"/><path class="cls-1" d="M293.43,144.44c2.23-1,4.35-2.43,3.75-5.76-.49-2.76-2.68-3.36-4.53-3-2.44.44-3.4,2.23-4.4,5.44-1.43,4.65-2.73,6.78-6.09,7.39-3.72.66-7.14-2-8-6.62a15,15,0,0,1,.2-5.63,48.86,48.86,0,0,1,5.14-1.91l.48,1c-2.25,1.14-5,3.25-4.39,6.94a4,4,0,0,0,4.82,3.37c2.72-.49,3.56-2.14,4.7-5.56,1.35-4.08,2.68-6.48,6-7.07s6.6,1.52,7.44,6.2a22.73,22.73,0,0,1,.17,4.8c-1.25.37-2.64.76-4.89,1.46Z"/><path class="cls-3" d="M59.16,165.49a57.13,57.13,0,0,0,6.1-25.94c0-3.19-.31-6.36-.51-9.54-.72-11.51-.3-23,.12-34.57.37-10.18,7.75-18.77,14.71-26.21l44.86-47.94c6.69-7.15,13.84-14.59,23.22-17.43,8.67-2.63,18-.93,26.88.79l49.26,9.52c7.88,1.52,15.8,3,23.36,5.78,28.06,10.1,47.67,35,65.71,58.79a95.6,95.6,0,0,1,9.63,15.57,92.14,92.14,0,0,1,4,9,71.64,71.64,0,0,1,2.9,10.77,102.42,102.42,0,0,1-1.86,46.77"/><path class="cls-3" d="M304.46,223.58c-1.37,8.55-6.68,15.91-12.29,22.5-17.86,21-41.62,38.36-68.88,42.46-13.89,2.09-28.08.67-41.9-1.84a185.81,185.81,0,0,1-23.87-5.82A142.43,142.43,0,0,1,83.3,224.6"/></g></g></svg>