<svg xmlns="http://www.w3.org/2000/svg" viewBox="0 0 228.59 305.07"><defs><style>.cls-1{fill:#fff;}</style></defs><g id="Layer_2" data-name="Layer 2"><g id="Layer_1-2" data-name="Layer 1"><path class="cls-1" d="M133.58,196.86c0-2.27.58-3.16,2.9-3,2.52.14,5.06,0,7.6,0h76c5.63,0,8.42-2,8.42-6.77q.19-29.78,0-59.57c0-4-2.29-6.64-6-6.64q-19.4-.21-38.77,0c-3.6,0-5.6,2.52-5.8,5.94a5.83,5.83,0,0,0,4.8,6.43,17.91,17.91,0,0,0,4,.39c8.53,0,17.06.14,25.59-.06,2.86-.06,3.48.81,3.48,3.56-.16,13.35-.19,26.68,0,40,0,3.2-.91,3.91-4,3.91-27.05-.13-54.11-.07-81.17-.07-8,0-9.9,1.88-9.9,9.88q.09,51.31,0,102.64h12.89v9.23Q133.67,249.8,133.58,196.86Z"/><path class="cls-1" d="M64.49,181c-16,0-32-.06-48,.06-2.69,0-3.6-.55-3.6-3.46.18-13.46.21-26.92,0-40.38-.05-3.25,1.12-3.58,3.88-3.58,15.46.12,30.93,0,46.39,0,8.52,0,10.38-1.74,10.22-10.33-.24-12.65,1.13-25.12,5.92-36.83,16-39,45.4-62,86-71.22,15.88-3.62,32.11-2,48.21-2.36,2.71-.06,2.16,1.65,2.16,3.16,0,13.46-.11,26.92.09,40.38.05,3.26-1,3.89-4,3.89-13.3.08-26.68-1-39.88,1.42C154.78,64.9,140.15,72.22,130,87c-8.45,12.28-9.9,26.17-9.11,40.49.22,4,3,6.09,7.49,6.14q11.6.14,23.19,0c4.7,0,7.53-2.57,7.54-6.48s-2.75-6.33-7.52-6.41c-5.06-.08-10.13,0-15.19,0-1.62,0-2.86,0-2.75-2.26.4-7.93,1.62-15.64,5.89-22.52,9.38-15.11,24.2-20.52,40.81-22.17,13.27-1.32,26.63-.39,39.95-.59,6-.09,8.28-2.29,8.28-8.2q.06-28.39,0-56.77c0-5.91-2.28-8.18-8.28-8.18-9.47,0-18.93.14-28.39,0-29.15-.43-55.8,7.51-79.43,24.51C80.89,47.22,61.81,77.21,60.64,117c-.1,3.38-1.36,3.77-4.23,3.77-15.86-.12-31.72,0-47.58,0-6.69,0-8.83,2.15-8.83,8.85v55.18c0,7,2.11,9.11,9,9.11,15.86,0,31.73.09,47.58-.07,3.11-.06,4,.72,4,3.94q-.18,46.56,0,93.16a5.89,5.89,0,0,1-.35,2.6H73.4V189.83C73.4,183.18,71.18,181,64.49,181Z"/><path class="cls-1" d="M133.58,302.73v2.34h0Z"/><path class="cls-1" d="M73.4,293.5v8.69a16.75,16.75,0,0,1-.24,2.88h47.51c0-3.85,0-7.71,0-11.57Z"/><polygon class="cls-1" points="60.23 293.5 60.23 293.5 60.23 293.5 60.23 293.5"/><path class="cls-1" d="M133.58,302.73V293.5H120.69c0,3.86,0,7.72,0,11.57h12.91Z"/><path class="cls-1" d="M73.4,293.5H60.23v11.57H73.16a16.75,16.75,0,0,0,.24-2.88Z"/></g></g></svg>