<svg xmlns="http://www.w3.org/2000/svg" viewBox="0 0 20 20"><defs><style>.cls-1{fill:#5c5249;}</style></defs><g id="Layer_2" data-name="Layer 2"><g id="Layer_1-2" data-name="Layer 1"><path class="cls-1" d="M13.49,7.63A11.79,11.79,0,0,0,10.06,0,12.19,12.19,0,0,0,6.51,7.63,13.87,13.87,0,0,1,10,10.26,14.36,14.36,0,0,1,13.49,7.63ZM10.05,3.19a10.15,10.15,0,0,1,1.3,3.38,14.37,14.37,0,0,0-1.34,1,16.17,16.17,0,0,0-1.33-1A10.21,10.21,0,0,1,10.05,3.19ZM10,13.45a12.11,12.11,0,0,0-3.06-3.2c-.13-.09-.27-.16-.4-.26l.39.25A11.78,11.78,0,0,0,0,8,12.17,12.17,0,0,0,8,19.49,10.75,10.75,0,0,0,10,20a12.94,12.94,0,0,0,2-.51A12.17,12.17,0,0,0,20,8,12,12,0,0,0,10,13.45Zm1.32,4.15A12.5,12.5,0,0,1,10,18a9,9,0,0,1-1.28-.36,10.15,10.15,0,0,1-6.45-7.35,10.11,10.11,0,0,1,3.12,1.33h0a4.25,4.25,0,0,0,.39.25l.07,0a9.9,9.9,0,0,1,2.51,2.65L10,17.1l1.67-2.55a10.19,10.19,0,0,1,2.53-2.66l.07-.05.27-.17v0a10,10,0,0,1,3.21-1.4A10.12,10.12,0,0,1,11.32,17.6ZM7,10.28l0,0H7Z"/></g></g></svg>