<svg xmlns="http://www.w3.org/2000/svg" viewBox="0 0 267.02 219.31"><defs><style>.cls-1{fill:#fff;}</style></defs><g id="Layer_2" data-name="Layer 2"><g id="Layer_1-2" data-name="Layer 1"><g id="Layer_2-2" data-name="Layer 2"><g id="Layer_1-2-2" data-name="Layer 1-2"><path class="cls-1" d="M248.14,28.29c3.34.16,5.45-1.4,7.76-2.25,3.53-1.3,7-2.33,9.76,1.29,2.61,3.42,1,6.38-1,9.43a107.74,107.74,0,0,1-23.37,25.53,10.54,10.54,0,0,0-4.59,9,143.1,143.1,0,0,1-8.89,45.93,154.52,154.52,0,0,1-29.81,50c-2.83,3.22-6.72,3.67-9.56,1.33s-3.25-6.2-.46-9.57a175.37,175.37,0,0,0,16-21.85,140.68,140.68,0,0,0,20.12-72,10.69,10.69,0,0,1,5-9.66A65,65,0,0,0,241,45c-4.86.68-9.06,1.23-13.25,1.85-3.82.56-6.94-.21-8.37-4.25s.76-6.28,3.7-8.31,6.36-3.78,9.19-7.75c-5.26,1.09-9.73,1.8-14.07,3s-7.78-.12-11.18-3.14C191.92,13,174.32,9.4,155.39,15.91c-19.28,6.68-30.67,20.78-34.12,41a61.08,61.08,0,0,0-.68,7.52c-.24,5.73-2.45,8.06-8.1,7.86-11.84-.41-23.06-3.9-34.12-7.65A152.9,152.9,0,0,1,22.25,30.5c-.66-.63-1.35-1.25-2.4-2.22A46,46,0,0,0,38.56,78.11a27.58,27.58,0,0,1,2.89,2.13,6.34,6.34,0,0,1-3.91,11.27,45.8,45.8,0,0,1-11.91-.87c-2.85-.71-3.15.45-2.49,2.81C27.23,108,36.28,118,50.51,123.34c1.5.56,3,1,4.52,1.57a6,6,0,0,1,4.21,6.5c-.18,3-2,4.84-4.82,5.65a45.36,45.36,0,0,1-10.75,1.6,36.72,36.72,0,0,0,10.93,13,42.83,42.83,0,0,0,24.29,9.2c3.55.2,6.71,1.1,7.87,4.88s-1.25,6.16-4,8.33c-14.76,11.68-31.45,19.16-50.67,23a118.24,118.24,0,0,0,28.13,7.57,140.72,140.72,0,0,0,84.29-12.76A136.83,136.83,0,0,0,164,180.29c2.28-1.61,4.73-2.57,7.48-1.51,4.85,1.88,5.39,8.25.84,11.59a141.41,141.41,0,0,1-21.14,12.77,155.6,155.6,0,0,1-147-4.74c-2.89-1.67-4.71-4-4-7.47s3.41-5.25,8-5.1a100.56,100.56,0,0,0,48.67-10.54c2.25-1.12,4.44-2.36,7.24-3.86-3.38-1.59-6.38-2.8-9.2-4.34A56.67,56.67,0,0,1,27.72,135c-.89-2.58-1.09-5.05.79-7.1,1.45-1.59.41-2.21-.6-3.11-12.19-10.84-18.24-24.53-19-40.7-.29-6.08,1.47-8.61,7.28-9.66C14.4,70.42,11.76,67,10.14,63c-6.42-16-6.4-31.8.54-47.59C13.59,8.77,18.4,7.8,23.3,13.1A146.45,146.45,0,0,0,81.37,52c7.88,2.88,16.09,4.56,24.22,6.56,3,.75,2.59-1.48,2.78-2.94A63.94,63.94,0,0,1,119.73,27.1c21.19-30.24,65-36.22,93.43-12.62A7,7,0,0,0,220,16.1a95.61,95.61,0,0,0,24.55-9.16c3.2-1.76,6.44-2.87,9.52.12,2.92,2.83,2,6,.65,9.21A60.21,60.21,0,0,1,248.14,28.29Z"/></g></g></g></g></svg>