<svg xmlns="http://www.w3.org/2000/svg" viewBox="0 0 305.35 236.43"><defs><style>.cls-1{fill:#fff;}</style></defs><g id="Layer_2" data-name="Layer 2"><g id="Layer_1-2" data-name="Layer 1"><g id="Layer_2-2" data-name="Layer 2"><g id="Layer_1-2-2" data-name="Layer 1-2"><path class="cls-1" d="M152.69,0A1086.76,1086.76,0,0,1,270.14,6.27c2.9.32,5.83.51,8.72.93a23.29,23.29,0,0,1,19.89,20A637.71,637.71,0,0,1,305,141.31a614.72,614.72,0,0,1-6.19,67.87c-1.52,10.5-9.37,18.72-19.84,20-13.2,1.57-26.44,2.73-39.68,3.92-5,.45-8-1.91-8.3-5.92-.27-3.84,2.49-6.4,7.55-6.9,12.3-1.21,24.61-2.29,36.9-3.64,6.88-.76,9.73-3.84,10.72-10.66a615.8,615.8,0,0,0,4.52-134.86Q289.1,50.45,286,29.92c-.89-6-3.93-9.27-10.07-10-16.76-2-33.58-3.45-50.43-4.55a1100.59,1100.59,0,0,0-112.85-1.69c-27.11,1-54.15,3.08-81.13,5.9-8.68.9-11.22,3.42-12.45,12.11a610.14,610.14,0,0,0-4.85,126.12q1.61,24.28,5,48.37c.93,6.55,3.82,9.65,10.49,10.46,20.73,2.52,41.54,4.14,62.38,5.28a1088.69,1088.69,0,0,0,111.66.47c5.17-.25,8.41,2.22,8.52,6.29.09,3.81-2.86,6.45-7.89,6.65-34.83,1.39-69.66,1.58-104.5-.12-24.3-1.19-48.56-3-72.72-5.9-11.55-1.39-19-9.41-20.71-20.89A635.9,635.9,0,0,1,.35,96.66,607.79,607.79,0,0,1,6.66,26.8,22.77,22.77,0,0,1,26.53,7.23C53.86,3.92,81.31,2.05,108.82.85,123.44.21,138.06.12,152.69,0Z"/><path class="cls-1" d="M109.68,53a12,12,0,0,1,4.49,1.52Q168.55,83.12,223,111.65c2.74,1.44,4.92,3.13,4.9,6.58s-2.23,5.11-5,6.54q-54.22,28.46-108.42,57c-6.72,3.52-11.25.78-11.25-6.74V61.36C103.21,56.12,105.66,53,109.68,53Zm6.55,113.21,91.38-48-91.38-48Z"/></g></g></g></g></svg>