<svg width="232" height="53" viewBox="0 0 232 53" fill="none" xmlns="http://www.w3.org/2000/svg">
<path d="M57.5557 39.6468V32.1665H59.1159L61.0497 35.3724C61.5551 36.1994 61.9873 37.0704 62.3316 37.8829H62.3535C62.2656 36.8801 62.2363 35.914 62.2363 34.7722V32.1592H63.5035V39.6395H62.0898L60.1341 36.3458C59.6579 35.5334 59.1525 34.6111 58.7863 33.7694L58.757 33.7841C58.8156 34.7502 58.8229 35.7383 58.8229 36.968V39.6468H57.563H57.5557Z" fill="black"/>
<path d="M69.217 38.3512C69.217 38.8416 69.239 39.3173 69.2903 39.6467H68.0597L67.9718 39.0465H67.9425C67.6055 39.471 67.0415 39.7711 66.3383 39.7711C65.2469 39.7711 64.6389 38.9806 64.6389 38.1609C64.6389 36.7922 65.8475 36.1041 67.8473 36.1188V36.0309C67.8473 35.6723 67.7008 35.0868 66.7485 35.0868C66.2138 35.0868 65.6571 35.2551 65.2908 35.482L65.0271 34.5964C65.43 34.3548 66.1259 34.1206 66.9829 34.1206C68.7189 34.1206 69.217 35.2185 69.217 36.3969V38.3512ZM67.8766 37.0044C66.9097 36.9825 65.9867 37.1947 65.9867 38.0145C65.9867 38.5488 66.331 38.7903 66.7632 38.7903C67.3052 38.7903 67.7081 38.439 67.8326 38.0438C67.8619 37.9413 67.8766 37.8315 67.8766 37.7437V36.9971V37.0044Z" fill="black"/>
<path d="M72.1616 32.8545V34.2452H73.4654V35.2625H72.1616V37.6486C72.1616 38.3074 72.3374 38.6514 72.8648 38.6514C73.1212 38.6514 73.2457 38.6294 73.3995 38.5855L73.4215 39.6248C73.2164 39.7054 72.8648 39.7712 72.4326 39.7712C71.9345 39.7712 71.5097 39.5956 71.2533 39.3174C70.9676 39.01 70.8358 38.5196 70.8358 37.8097V35.2625H70.0593V34.2452H70.8358V33.2424L72.1689 32.8545H72.1616Z" fill="black"/>
<path d="M75.9486 32.73C75.9486 33.1398 75.6483 33.4619 75.1722 33.4619C74.6961 33.4619 74.4177 33.1398 74.4177 32.73C74.4177 32.3201 74.7327 31.9834 75.1868 31.9834C75.641 31.9834 75.9413 32.3054 75.956 32.73M74.4983 34.2377H75.8754V39.6467H74.4983V34.2377Z" fill="black"/>
<path d="M82.4898 36.8946C82.4898 38.8782 81.0908 39.7711 79.7137 39.7711C78.1827 39.7711 77.0034 38.7171 77.0034 36.9825C77.0034 35.2478 78.1681 34.1206 79.8016 34.1206C81.435 34.1206 82.4898 35.2551 82.4898 36.8946ZM78.4098 36.9459C78.4098 37.9925 78.9226 38.7757 79.7576 38.7757C80.5341 38.7757 81.0761 38.0072 81.0761 36.9239C81.0761 36.0822 80.7025 35.116 79.7649 35.116C78.8273 35.116 78.4098 36.0529 78.4098 36.9459Z" fill="black"/>
<path d="M83.6106 35.848C83.6106 35.2258 83.596 34.7061 83.5667 34.2377H84.7679L84.8339 35.0502H84.8705C85.1049 34.6256 85.6909 34.1133 86.5919 34.1133C87.5368 34.1133 88.5183 34.7281 88.5183 36.4335V39.6394H87.1486V36.5872C87.1486 35.8114 86.8629 35.2185 86.1157 35.2185C85.5737 35.2185 85.1928 35.6064 85.0463 36.0163C85.0023 36.1407 84.995 36.3018 84.995 36.4628V39.6394H83.6179V35.8406L83.6106 35.848Z" fill="black"/>
<path d="M94.1733 38.3512C94.1733 38.8416 94.1953 39.3173 94.2539 39.6467H93.0233L92.9354 39.0465H92.8988C92.5618 39.471 91.9978 39.7711 91.2946 39.7711C90.2032 39.7711 89.5952 38.9806 89.5952 38.1609C89.5952 36.7922 90.8038 36.1041 92.8035 36.1188V36.0309C92.8035 35.6723 92.657 35.0868 91.7048 35.0868C91.1701 35.0868 90.6134 35.2551 90.2471 35.482L89.9834 34.5964C90.379 34.3548 91.0822 34.1206 91.9392 34.1206C93.6752 34.1206 94.1733 35.2185 94.1733 36.3969V38.3512ZM92.8402 37.0044C91.8733 36.9825 90.9503 37.1947 90.9503 38.0145C90.9503 38.5488 91.2946 38.7903 91.7268 38.7903C92.2688 38.7903 92.6717 38.439 92.7962 38.0438C92.8329 37.9413 92.8402 37.8315 92.8402 37.7437V36.9971V37.0044Z" fill="black"/>
<path d="M97.0006 31.7637H95.6235V39.6466H97.0006V31.7637Z" fill="black"/>
<path d="M107.16 36.5947C107.116 35.6285 107.058 34.4648 107.072 33.4401H107.043C106.801 34.3623 106.486 35.3724 106.157 36.3165L105.065 39.559H104.011L103.007 36.3605C102.721 35.4016 102.45 34.3843 102.253 33.4401H102.231C102.201 34.4282 102.157 35.6139 102.099 36.6386L101.93 39.6468H100.656L101.154 32.1665H102.956L103.937 35.1747C104.201 36.0531 104.435 36.9387 104.626 37.7731H104.663C104.86 36.9606 105.117 36.0384 105.402 35.1674L106.435 32.1665H108.215L108.647 39.6468H107.314L107.168 36.5947H107.16Z" fill="black"/>
<path d="M114.822 38.0287C114.822 38.6728 114.844 39.2071 114.866 39.6463H113.665L113.599 38.8265H113.577C113.343 39.2144 112.808 39.7707 111.841 39.7707C110.874 39.7707 109.951 39.1852 109.951 37.4212V34.2446H111.314V37.187C111.314 38.0873 111.599 38.6655 112.324 38.6655C112.867 38.6655 113.225 38.2776 113.372 37.9336C113.416 37.8091 113.445 37.6701 113.445 37.509V34.2446H114.815V38.0287H114.822Z" fill="black"/>
<path d="M116.236 38.3951C116.551 38.5854 117.137 38.783 117.628 38.783C118.229 38.783 118.492 38.5415 118.492 38.1828C118.492 37.8242 118.272 37.6265 117.606 37.3923C116.551 37.0264 116.104 36.4481 116.119 35.8114C116.119 34.8599 116.91 34.1133 118.163 34.1133C118.763 34.1133 119.283 34.267 119.598 34.4353L119.327 35.4015C119.093 35.2697 118.661 35.0941 118.185 35.0941C117.708 35.0941 117.43 35.3283 117.43 35.665C117.43 36.0017 117.686 36.1773 118.375 36.4189C119.357 36.7775 119.811 37.2752 119.818 38.073C119.818 39.0465 119.049 39.7711 117.621 39.7711C116.961 39.7711 116.375 39.6028 115.972 39.3832L116.243 38.3951H116.236Z" fill="black"/>
<path d="M121.906 37.3265C121.942 38.2999 122.704 38.7244 123.576 38.7244C124.213 38.7244 124.667 38.6366 125.077 38.4829L125.275 39.4271C124.814 39.6174 124.169 39.7711 123.385 39.7711C121.627 39.7711 120.594 38.6805 120.594 37.0264C120.594 35.5259 121.51 34.1206 123.239 34.1206C124.967 34.1206 125.575 35.5625 125.575 36.7556C125.575 37.0117 125.553 37.2094 125.532 37.3338H121.906V37.3265ZM124.279 36.375C124.294 35.8772 124.067 35.0575 123.158 35.0575C122.316 35.0575 121.957 35.826 121.906 36.375H124.279Z" fill="black"/>
<path d="M131.516 38.0287C131.516 38.6728 131.538 39.2071 131.56 39.6463H130.359L130.293 38.8265H130.271C130.036 39.2144 129.502 39.7707 128.535 39.7707C127.568 39.7707 126.645 39.1852 126.645 37.4212V34.2446H128.007V37.187C128.007 38.0873 128.293 38.6655 129.018 38.6655C129.56 38.6655 129.919 38.2776 130.066 37.9336C130.11 37.8091 130.146 37.6701 130.146 37.509V34.2446H131.516V38.0287Z" fill="black"/>
<path d="M132.996 35.848C132.996 35.2258 132.988 34.7061 132.952 34.2377H134.131L134.19 35.0355H134.226C134.49 34.611 134.981 34.1133 135.896 34.1133C136.607 34.1133 137.164 34.5158 137.398 35.116H137.42C137.61 34.8159 137.83 34.5964 138.086 34.4427C138.387 34.2304 138.731 34.1206 139.178 34.1206C140.079 34.1206 140.987 34.7354 140.987 36.4628V39.6467H139.654V36.6604C139.654 35.7601 139.339 35.2258 138.687 35.2258C138.218 35.2258 137.874 35.5625 137.735 35.9504C137.698 36.0822 137.669 36.2505 137.669 36.4042V39.6467H136.336V36.514C136.336 35.7601 136.035 35.2258 135.398 35.2258C134.885 35.2258 134.541 35.6211 134.424 36.0017C134.365 36.1334 134.343 36.2871 134.343 36.4481V39.6467H133.01V35.848H132.996Z" fill="black"/>
<path d="M149.872 36.8946C149.872 38.8782 148.473 39.7711 147.096 39.7711C145.565 39.7711 144.386 38.7171 144.386 36.9825C144.386 35.2478 145.551 34.1206 147.184 34.1206C148.818 34.1206 149.872 35.2551 149.872 36.8946ZM145.792 36.9459C145.792 37.9925 146.305 38.7757 147.14 38.7757C147.917 38.7757 148.466 38.0072 148.466 36.9239C148.466 36.0822 148.085 35.116 147.155 35.116C146.225 35.116 145.8 36.0529 145.8 36.9459" fill="black"/>
<path d="M151.154 39.6465V35.2622H150.422V34.2448H151.154V34.0106C151.154 33.308 151.345 32.6126 151.814 32.1662C152.209 31.7929 152.759 31.6465 153.227 31.6465C153.594 31.6465 153.879 31.6977 154.106 31.7782L154.004 32.8322C153.857 32.781 153.667 32.7371 153.425 32.7371C152.751 32.7371 152.517 33.3006 152.517 33.9667V34.2448H153.703V35.2622H152.524V39.6465H151.162H151.154Z" fill="black"/>
<path d="M63.8771 47.4199C63.8332 46.4537 63.7746 45.2899 63.7892 44.2652H63.7526C63.5109 45.1875 63.1959 46.1975 62.8663 47.1417L61.7749 50.3842H60.7201L59.7166 47.1856C59.4309 46.2341 59.1598 45.2094 58.9621 44.2652H58.9401C58.9035 45.2534 58.8595 46.4391 58.8083 47.4638L58.6398 50.472H57.3652L57.8633 42.9844H59.6653L60.6395 45.9926C60.9032 46.8709 61.1376 47.7566 61.328 48.591H61.3647C61.5624 47.7785 61.8188 46.8563 62.1045 45.978L63.1373 42.9771H64.9173L65.3495 50.4647H64.0163L63.8698 47.4126L63.8771 47.4199Z" fill="black"/>
<path d="M71.8907 47.7198C71.8907 49.7033 70.4916 50.5963 69.1145 50.5963C67.5763 50.5963 66.4043 49.5423 66.4043 47.8077C66.4043 46.073 67.569 44.9458 69.2024 44.9458C70.8359 44.9458 71.8907 46.0803 71.8907 47.7198ZM67.8107 47.7784C67.8107 48.8177 68.3234 49.6082 69.1585 49.6082C69.9349 49.6082 70.4843 48.8397 70.4843 47.7564C70.4843 46.9147 70.1034 45.9485 69.1731 45.9485C68.2429 45.9485 67.818 46.8781 67.818 47.7784" fill="black"/>
<path d="M78.007 42.5894V48.9498C78.007 49.5061 78.029 50.1063 78.051 50.4722H76.8277L76.7764 49.6159H76.7545C76.4322 50.2161 75.7729 50.5967 74.9892 50.5967C73.7 50.5967 72.6818 49.4988 72.6818 47.83C72.6671 46.0221 73.8025 44.9462 75.099 44.9462C75.8462 44.9462 76.3736 45.2536 76.6226 45.6561H76.6446V42.5894H78.007ZM76.6373 47.3176C76.6373 47.2078 76.6299 47.0761 76.608 46.959C76.4834 46.4247 76.0513 45.9928 75.4286 45.9928C74.5497 45.9928 74.0662 46.7687 74.0662 47.7787C74.0662 48.7888 74.557 49.4915 75.4213 49.4915C75.978 49.4915 76.4688 49.1109 76.6006 48.5253C76.6373 48.4009 76.6446 48.2691 76.6446 48.1301V47.3176H76.6373Z" fill="black"/>
<path d="M80.4462 48.1517C80.4828 49.1251 81.2446 49.5496 82.1163 49.5496C82.7462 49.5496 83.2077 49.4618 83.6179 49.3081L83.8157 50.2523C83.3469 50.4426 82.7023 50.5963 81.9258 50.5963C80.1678 50.5963 79.135 49.5057 79.135 47.8516C79.135 46.3511 80.0433 44.9458 81.7793 44.9458C83.5153 44.9458 84.116 46.3877 84.116 47.5807C84.116 47.8369 84.094 48.0345 84.072 48.159H80.4462V48.1517ZM82.8195 47.2001C82.8268 46.7024 82.607 45.8754 81.6988 45.8754C80.8564 45.8754 80.4975 46.6439 80.4462 47.2001H82.8268H82.8195Z" fill="black"/>
<path d="M85.2148 46.8122C85.2148 46.0803 85.2075 45.5606 85.1709 45.0702H86.3575L86.4015 46.1023H86.4454C86.7091 45.3337 87.3464 44.9458 87.9251 44.9458C88.0569 44.9458 88.1375 44.9604 88.2474 44.9824V46.2706C88.1375 46.2486 88.013 46.2267 87.8445 46.2267C87.1926 46.2267 86.7458 46.6512 86.6212 47.2587C86.5993 47.3831 86.5773 47.5222 86.5773 47.6832V50.4792H85.2075V46.8122H85.2148Z" fill="black"/>
<path d="M89.1704 46.6732C89.1704 46.051 89.1631 45.5313 89.1265 45.0629H90.3278L90.3937 45.8754H90.4303C90.6647 45.4508 91.2507 44.9458 92.1517 44.9458C93.0527 44.9458 94.0708 45.5533 94.0708 47.266V50.4719H92.7084V47.4197C92.7084 46.6439 92.4227 46.0583 91.6756 46.0583C91.1335 46.0583 90.7526 46.4463 90.6061 46.8561C90.5622 46.9806 90.5475 47.1416 90.5475 47.2953V50.4719H89.1704V46.6732Z" fill="black"/>
<path d="M102.033 49.1764C102.033 49.6668 102.055 50.1425 102.114 50.4719H100.883L100.795 49.8717H100.758C100.421 50.2962 99.8574 50.5963 99.1616 50.5963C98.0701 50.5963 97.4622 49.8058 97.4622 48.9861C97.4622 47.6174 98.6708 46.9367 100.678 46.944V46.8561C100.678 46.4975 100.531 45.9119 99.5791 45.9119C99.0444 45.9119 98.4877 46.0803 98.1214 46.3072L97.8577 45.4216C98.2606 45.18 98.9565 44.9458 99.8135 44.9458C101.55 44.9458 102.048 46.0437 102.048 47.2221V49.1764H102.033ZM100.7 47.8296C99.7329 47.8077 98.81 48.0199 98.81 48.8397C98.81 49.374 99.1542 49.6155 99.5864 49.6155C100.128 49.6155 100.531 49.2569 100.656 48.8689C100.685 48.7665 100.7 48.6567 100.7 48.5689V47.8223V47.8296Z" fill="black"/>
<path d="M103.483 46.6732C103.483 46.051 103.476 45.5313 103.439 45.0629H104.641L104.707 45.8754H104.743C104.978 45.4508 105.564 44.9458 106.465 44.9458C107.366 44.9458 108.384 45.5533 108.384 47.266V50.4719H107.014V47.4197C107.014 46.6439 106.728 46.0583 105.981 46.0583C105.439 46.0583 105.058 46.4463 104.912 46.8561C104.868 46.9806 104.853 47.1416 104.853 47.2953V50.4719H103.476V46.6732H103.483Z" fill="black"/>
<path d="M114.83 42.5894V48.9498C114.83 49.5061 114.852 50.1063 114.874 50.4722H113.65L113.599 49.6159H113.577C113.255 50.2161 112.596 50.5967 111.812 50.5967C110.523 50.5967 109.505 49.4988 109.505 47.83C109.49 46.0221 110.625 44.9462 111.922 44.9462C112.669 44.9462 113.196 45.2536 113.445 45.6561H113.467V42.5894H114.837H114.83ZM113.46 47.3176C113.46 47.2078 113.453 47.0761 113.431 46.959C113.306 46.4247 112.874 45.9928 112.251 45.9928C111.372 45.9928 110.889 46.7687 110.889 47.7787C110.889 48.7888 111.38 49.4915 112.244 49.4915C112.801 49.4915 113.292 49.1109 113.423 48.5253C113.46 48.4009 113.467 48.2691 113.467 48.1301V47.3176H113.46Z" fill="black"/>
<path d="M124.023 50.2524C123.7 50.4207 122.99 50.5964 122.089 50.5964C119.715 50.5964 118.265 49.0959 118.265 46.8196C118.265 44.353 119.979 42.8672 122.265 42.8672C123.166 42.8672 123.81 43.0575 124.088 43.2039L123.788 44.2871C123.437 44.1334 122.946 44.0017 122.323 44.0017C120.8 44.0017 119.701 44.9605 119.701 46.7537C119.701 48.4006 120.668 49.4546 122.316 49.4546C122.873 49.4546 123.451 49.3448 123.803 49.1764L124.023 50.2524Z" fill="black"/>
<path d="M130.102 47.7198C130.102 49.7033 128.703 50.5963 127.326 50.5963C125.788 50.5963 124.616 49.5423 124.616 47.8077C124.616 46.073 125.781 44.9458 127.414 44.9458C129.048 44.9458 130.102 46.0803 130.102 47.7198ZM126.03 47.7784C126.03 48.8177 126.542 49.6082 127.377 49.6082C128.154 49.6082 128.696 48.8397 128.696 47.7564C128.696 46.9147 128.315 45.9485 127.385 45.9485C126.455 45.9485 126.03 46.8781 126.03 47.7784Z" fill="black"/>
<path d="M131.23 46.6732C131.23 46.051 131.223 45.5313 131.186 45.0629H132.388L132.453 45.8754H132.49C132.725 45.4508 133.311 44.9458 134.211 44.9458C135.156 44.9458 136.131 45.5533 136.131 47.266V50.4719H134.768V47.4197C134.768 46.6439 134.483 46.0583 133.735 46.0583C133.186 46.0583 132.812 46.4463 132.666 46.8561C132.622 46.9806 132.607 47.1416 132.607 47.2953V50.4719H131.23V46.6732Z" fill="black"/>
<path d="M139.105 43.6797V45.0704H140.409V46.0951H139.105V48.4812C139.105 49.1326 139.281 49.4766 139.808 49.4766C140.064 49.4766 140.181 49.4546 140.343 49.4107L140.365 50.4574C140.167 50.5306 139.808 50.6038 139.376 50.6038C138.878 50.6038 138.453 50.4281 138.196 50.15C137.911 49.8425 137.772 49.3522 137.772 48.6422V46.1024H136.995V45.0777H137.772V44.0822L139.105 43.6943V43.6797Z" fill="black"/>
<path d="M142.335 48.1517C142.364 49.1251 143.134 49.5496 144.005 49.5496C144.635 49.5496 145.097 49.4618 145.507 49.3081L145.705 50.2523C145.236 50.4426 144.591 50.5963 143.815 50.5963C142.057 50.5963 141.024 49.5057 141.024 47.8516C141.024 46.3511 141.932 44.9458 143.668 44.9458C145.404 44.9458 146.005 46.3877 146.005 47.5807C146.005 47.8369 145.983 48.0345 145.961 48.159H142.335V48.1517ZM144.716 47.2001C144.73 46.7024 144.503 45.8754 143.595 45.8754C142.753 45.8754 142.394 46.6439 142.342 47.2001H144.716Z" fill="black"/>
<path d="M147.111 46.6732C147.111 46.051 147.096 45.5313 147.067 45.0629H148.246L148.297 45.8607H148.334C148.598 45.4362 149.089 44.9385 150.004 44.9385C150.715 44.9385 151.271 45.341 151.506 45.9412H151.528C151.718 45.6411 151.938 45.4216 152.194 45.2678C152.495 45.0556 152.839 44.9458 153.286 44.9458C154.187 44.9458 155.095 45.5533 155.095 47.288V50.4719H153.762V47.4856C153.762 46.5853 153.447 46.051 152.795 46.051C152.326 46.051 151.982 46.3804 151.843 46.7756C151.806 46.9147 151.777 47.0757 151.777 47.2294V50.4719H150.444V47.3392C150.444 46.5853 150.143 46.051 149.513 46.051C149.001 46.051 148.656 46.4536 148.532 46.8269C148.473 46.9586 148.451 47.1123 148.451 47.266V50.4646H147.118V46.6658L147.111 46.6732Z" fill="black"/>
<path d="M156.538 46.8635C156.538 46.1535 156.516 45.5753 156.494 45.0629H157.695L157.761 45.8973H157.783C158.179 45.2825 158.816 44.9385 159.637 44.9385C160.882 44.9385 161.915 46.0071 161.915 47.6905C161.915 49.6448 160.684 50.589 159.446 50.589C158.765 50.589 158.201 50.3035 157.923 49.8644H157.901V52.6603H156.531V46.8561L156.538 46.8635ZM157.901 48.2102C157.901 48.342 157.908 48.4664 157.944 48.5908C158.076 49.1471 158.567 49.5423 159.146 49.5423C160.01 49.5423 160.523 48.8177 160.523 47.7564C160.523 46.7976 160.054 46.0217 159.175 46.0217C158.604 46.0217 158.084 46.4316 157.952 47.0318C157.915 47.1416 157.901 47.266 157.901 47.3758V48.2102Z" fill="black"/>
<path d="M168.185 47.7198C168.185 49.7033 166.786 50.5963 165.409 50.5963C163.878 50.5963 162.698 49.5423 162.698 47.8077C162.698 46.073 163.863 44.9458 165.497 44.9458C167.13 44.9458 168.185 46.0803 168.185 47.7198ZM164.105 47.7784C164.105 48.8177 164.618 49.6082 165.453 49.6082C166.229 49.6082 166.771 48.8397 166.771 47.7564C166.771 46.9147 166.398 45.9485 165.46 45.9485C164.522 45.9485 164.105 46.8781 164.105 47.7784Z" fill="black"/>
<path d="M169.306 46.8122C169.306 46.0803 169.298 45.5606 169.262 45.0702H170.448L170.492 46.1023H170.536C170.8 45.3337 171.437 44.9458 172.016 44.9458C172.148 44.9458 172.228 44.9604 172.338 44.9824V46.2706C172.228 46.2486 172.104 46.2267 171.935 46.2267C171.276 46.2267 170.837 46.6512 170.712 47.2587C170.69 47.3831 170.668 47.5222 170.668 47.6832V50.4792H169.298V46.8122H169.306Z" fill="black"/>
<path d="M177.37 49.1764C177.37 49.6668 177.392 50.1425 177.451 50.4719H176.22L176.132 49.8717H176.096C175.759 50.2962 175.195 50.5963 174.499 50.5963C173.408 50.5963 172.8 49.8058 172.8 48.9861C172.8 47.6174 174.008 46.9367 176.008 46.944V46.8561C176.008 46.4975 175.861 45.9119 174.909 45.9119C174.374 45.9119 173.818 46.0803 173.451 46.3072L173.188 45.4216C173.591 45.18 174.287 44.9458 175.144 44.9458C176.88 44.9458 177.378 46.0437 177.378 47.2221V49.1764H177.37ZM176.037 47.8296C175.07 47.8077 174.147 48.0199 174.147 48.8397C174.147 49.374 174.492 49.6155 174.924 49.6155C175.466 49.6155 175.869 49.2569 175.993 48.8689C176.023 48.7665 176.037 48.6567 176.037 48.5689V47.8223V47.8296Z" fill="black"/>
<path d="M178.813 46.8122C178.813 46.0803 178.806 45.5606 178.77 45.0702H179.956L180 46.1023H180.044C180.308 45.3337 180.945 44.9458 181.524 44.9458C181.656 44.9458 181.736 44.9604 181.846 44.9824V46.2706C181.736 46.2486 181.612 46.2267 181.45 46.2267C180.791 46.2267 180.352 46.6512 180.227 47.2587C180.205 47.3831 180.183 47.5222 180.183 47.6832V50.4792H178.813V46.8122Z" fill="black"/>
<path d="M183.875 45.063L184.849 47.9614C184.959 48.2981 185.069 48.708 185.149 49.0154H185.179C185.267 48.708 185.369 48.3054 185.464 47.9468L186.307 45.063H187.772L186.417 48.7519C185.67 50.772 185.171 51.6723 184.527 52.2286C183.992 52.7043 183.435 52.8873 183.091 52.9312L182.776 51.7748C183.011 51.7162 183.296 51.5991 183.575 51.3942C183.831 51.2258 184.131 50.9038 184.322 50.5378C184.38 50.4354 184.41 50.3622 184.41 50.2963C184.41 50.2377 184.395 50.1645 184.329 50.0328L182.351 45.0703H183.853L183.875 45.063Z" fill="black"/>
<path d="M192.438 48.3494L191.793 50.472H190.379L192.782 42.9844H194.525L196.957 50.472H195.492L194.818 48.3494H192.438ZM194.577 47.3174L193.991 45.4729C193.844 45.0191 193.727 44.5068 193.61 44.075H193.588C193.478 44.5068 193.368 45.0265 193.229 45.4729L192.65 47.3174H194.569H194.577Z" fill="black"/>
<path d="M197.895 46.8122C197.895 46.0803 197.88 45.5606 197.851 45.0702H199.038L199.082 46.1023H199.126C199.389 45.3337 200.027 44.9458 200.605 44.9458C200.737 44.9458 200.818 44.9604 200.928 44.9824V46.2706C200.818 46.2486 200.693 46.2267 200.525 46.2267C199.873 46.2267 199.426 46.6512 199.301 47.2587C199.279 47.3831 199.257 47.5222 199.257 47.6832V50.4792H197.888V46.8122H197.895Z" fill="black"/>
<path d="M203.674 43.6797V45.0704H204.971V46.0951H203.674V48.4812C203.674 49.1326 203.85 49.4766 204.377 49.4766C204.634 49.4766 204.758 49.4546 204.912 49.4107L204.934 50.4574C204.736 50.5306 204.377 50.6038 203.945 50.6038C203.447 50.6038 203.022 50.4281 202.766 50.15C202.48 49.8425 202.341 49.3522 202.341 48.6422V46.1024H201.565V45.0777H202.341V44.0822L203.674 43.6943V43.6797Z" fill="black"/>
<path d="M205.301 51.8188C205.601 50.977 205.901 49.8059 206.048 48.891L207.483 48.7739C207.176 49.8206 206.67 51.0136 206.238 51.7309L205.308 51.8188H205.301Z" fill="black"/>
<path d="M210.926 42.9917H212.281V46.4318H212.318C212.494 46.1463 212.684 45.8755 212.86 45.6193L214.816 42.9844H216.508L213.929 46.1683L216.676 50.4647H215.072L212.948 47.0319L212.281 47.8298V50.4647H210.926V42.9771V42.9917Z" fill="black"/>
<path d="M222.382 47.7198C222.382 49.7033 220.983 50.5963 219.606 50.5963C218.075 50.5963 216.896 49.5423 216.896 47.8077C216.896 46.073 218.061 44.9458 219.694 44.9458C221.328 44.9458 222.382 46.0803 222.382 47.7198ZM218.31 47.7784C218.31 48.8177 218.822 49.6082 219.65 49.6082C220.427 49.6082 220.969 48.8397 220.969 47.7564C220.969 46.9147 220.595 45.9485 219.658 45.9485C218.72 45.9485 218.302 46.8781 218.302 47.7784" fill="black"/>
<path d="M223.511 46.8122C223.511 46.0803 223.496 45.5606 223.467 45.0702H224.653L224.697 46.1023H224.741C225.005 45.3337 225.642 44.9458 226.221 44.9458C226.353 44.9458 226.433 44.9604 226.543 44.9824V46.2706C226.433 46.2486 226.309 46.2267 226.147 46.2267C225.488 46.2267 225.049 46.6512 224.924 47.2587C224.902 47.3831 224.88 47.5222 224.88 47.6832V50.4792H223.518V46.8122H223.511Z" fill="black"/>
<path d="M228.338 48.1517C228.367 49.1251 229.136 49.5496 230.008 49.5496C230.638 49.5496 231.099 49.4618 231.509 49.3081L231.707 50.2523C231.238 50.4426 230.594 50.5963 229.817 50.5963C228.059 50.5963 227.026 49.5057 227.026 47.8516C227.026 46.3511 227.935 44.9458 229.671 44.9458C231.407 44.9458 232 46.3877 232 47.5807C232 47.8369 231.978 48.0345 231.956 48.159H228.33L228.338 48.1517ZM230.711 47.2001C230.725 46.7024 230.498 45.8754 229.59 45.8754C228.748 45.8754 228.389 46.6439 228.338 47.2001H230.718H230.711Z" fill="black"/>
<path d="M45.3962 49.579L35.295 24.0639C35.1998 23.8297 34.9654 23.6687 34.709 23.6687C34.4526 23.6687 34.2256 23.8297 34.1303 24.0639L29.8086 34.9843V16.6787C29.8086 16.3859 29.6108 16.1298 29.3178 16.0712C29.0322 16.0053 28.7465 16.1444 28.622 16.4152L19.788 34.9404L13.7596 22.2853L21.8464 5.3338V22.7537C21.8464 23.0977 22.1174 23.3759 22.469 23.3759C22.8206 23.3759 23.0916 23.0977 23.0916 22.7537V2.57442C23.0916 2.28165 22.8938 2.03279 22.6082 1.96691C22.3225 1.90104 22.0295 2.04011 21.9123 2.3036L13.0784 20.8288L4.22979 2.31092C4.10526 2.04743 3.81226 1.90836 3.53392 1.97423C3.24824 2.04011 3.05047 2.28896 3.05047 2.58174V22.7537C3.05047 23.0977 3.32882 23.3759 3.67309 23.3759C4.01736 23.3759 4.29571 23.0977 4.29571 22.7537V5.32648L9.76747 16.8105V28.0676C9.44517 28.1261 9.12288 28.2066 8.80058 28.3018C4.29571 29.6412 1.37305 33.762 1.37305 38.2341C1.37305 39.2075 1.51222 40.203 1.80522 41.1911C3.13837 45.6924 7.26966 48.6055 11.7379 48.6055C12.7121 48.6055 13.7083 48.4665 14.6899 48.181C18.1692 47.149 20.7037 44.4482 21.6779 41.2203C21.7804 40.891 21.59 40.5396 21.2604 40.4445C20.9381 40.342 20.5865 40.5323 20.4839 40.8617C19.6269 43.7089 17.4001 46.0804 14.3309 46.988C13.4666 47.2515 12.5876 47.3686 11.7306 47.3686C7.79705 47.3686 4.16386 44.7995 2.98454 40.8397C2.72817 39.9687 2.61097 39.0977 2.61097 38.2414C2.61097 34.3109 5.17471 30.6732 9.13752 29.5021C9.34995 29.4436 9.54772 29.385 9.75282 29.3411V36.8434C9.75282 37.1874 10.0312 37.4655 10.3754 37.4655C10.7197 37.4655 10.9981 37.1874 10.9981 36.8434V29.1508C11.2471 29.1289 11.4888 29.1215 11.7379 29.1215C11.9137 29.1215 12.0968 29.1215 12.2799 29.1362C12.6242 29.1581 12.9172 28.8946 12.9319 28.5506C12.9538 28.2066 12.6901 27.9138 12.3532 27.8919C12.1481 27.8773 11.943 27.8699 11.7379 27.8699C11.4962 27.8699 11.2471 27.8773 10.9981 27.8992V19.4235L19.2094 36.6458C19.3119 36.8654 19.5317 37.0044 19.7734 37.0044C20.0151 37.0044 20.2349 36.8654 20.3374 36.6458L28.5487 19.4235V38.1243L24.0146 49.5643C23.8827 49.8864 24.0439 50.245 24.3662 50.3695C24.6885 50.5012 25.0474 50.3402 25.1792 50.0181L28.036 42.8013H41.3674L44.2242 50.0181C44.3267 50.267 44.5611 50.4134 44.8102 50.4134C44.8907 50.4134 44.964 50.3988 45.0372 50.3695C45.3595 50.245 45.5134 49.8864 45.3888 49.5643M28.5341 41.5717L34.709 25.9816L40.8767 41.5717H28.5341Z" fill="black"/>
<path d="M45.3962 49.579L35.295 24.0639C35.1998 23.8297 34.9654 23.6687 34.709 23.6687C34.4526 23.6687 34.2256 23.8297 34.1303 24.0639L29.8086 34.9843V16.6787C29.8086 16.3859 29.6108 16.1298 29.3178 16.0712C29.0322 16.0053 28.7465 16.1444 28.622 16.4152L19.788 34.9404L13.7596 22.2853L21.8464 5.3338V22.7537C21.8464 23.0977 22.1174 23.3759 22.469 23.3759C22.8206 23.3759 23.0916 23.0977 23.0916 22.7537V2.57442C23.0916 2.28165 22.8938 2.03279 22.6082 1.96691C22.3225 1.90104 22.0295 2.04011 21.9123 2.3036L13.0784 20.8288L4.22979 2.31092C4.10526 2.04743 3.81226 1.90836 3.53392 1.97423C3.24824 2.04011 3.05047 2.28896 3.05047 2.58174V22.7537C3.05047 23.0977 3.32882 23.3759 3.67309 23.3759C4.01736 23.3759 4.29571 23.0977 4.29571 22.7537V5.32648L9.76747 16.8105V28.0676C9.44517 28.1261 9.12288 28.2066 8.80058 28.3018C4.29571 29.6412 1.37305 33.762 1.37305 38.2341C1.37305 39.2075 1.51222 40.203 1.80522 41.1911C3.13837 45.6924 7.26966 48.6055 11.7379 48.6055C12.7121 48.6055 13.7083 48.4665 14.6899 48.181C18.1692 47.149 20.7037 44.4482 21.6779 41.2203C21.7804 40.891 21.59 40.5397 21.2604 40.4445C20.9381 40.342 20.5865 40.5323 20.4839 40.8617C19.6269 43.7089 17.4001 46.0804 14.3309 46.988C13.4666 47.2515 12.5876 47.3686 11.7306 47.3686C7.79705 47.3686 4.16386 44.7995 2.98454 40.8397C2.72817 39.9687 2.61097 39.0977 2.61097 38.2414C2.61097 34.3109 5.17471 30.6732 9.13752 29.5021C9.34995 29.4436 9.54772 29.385 9.75282 29.3411V36.8434C9.75282 37.1874 10.0312 37.4655 10.3754 37.4655C10.7197 37.4655 10.9981 37.1874 10.9981 36.8434V29.1508C11.2471 29.1289 11.4888 29.1215 11.7379 29.1215C11.9137 29.1215 12.0968 29.1215 12.2799 29.1362C12.6242 29.1581 12.9172 28.8946 12.9319 28.5506C12.9538 28.2066 12.6901 27.9138 12.3532 27.8919C12.1481 27.8773 11.943 27.8699 11.7379 27.8699C11.4962 27.8699 11.2471 27.8773 10.9981 27.8992V19.4235L19.2094 36.6458C19.3119 36.8654 19.5317 37.0044 19.7734 37.0044C20.0151 37.0044 20.2349 36.8654 20.3374 36.6458L28.5487 19.4235V38.1243L24.0146 49.5643C23.8827 49.8864 24.0439 50.245 24.3662 50.3695C24.6885 50.5012 25.0474 50.3402 25.1792 50.0181L28.036 42.8013H41.3674L44.2242 50.0181C44.3267 50.267 44.5611 50.4134 44.8102 50.4134C44.8907 50.4134 44.964 50.3988 45.0372 50.3695C45.3595 50.245 45.5134 49.8864 45.3888 49.5643M28.5341 41.5717L34.709 25.9816L40.8767 41.5717H28.5341Z" stroke="black" stroke-miterlimit="10"/>
<path d="M67.4958 13.3995V17.7179H73.6561V26.9914H70.7041V20.3089H58.1051V17.7179H64.5438V13.3995H54.3401V10.8085H69.5321C69.7079 10.34 69.8764 9.84962 70.0155 9.32995C70.1987 8.70049 70.3378 8.06371 70.4477 7.43425C70.5576 6.80479 70.6382 6.20461 70.6968 5.64102C70.748 5.07012 70.7773 4.56508 70.7773 4.11861H58.2297V1.52757H73.7293V2.66938C73.7293 4.30159 73.5975 5.88988 73.3411 7.42693C73.1213 8.71513 72.8357 9.83498 72.4914 10.7938H77.6335V13.3848H67.4884L67.4958 13.3995ZM81.047 7.03901V13.6703C81.047 14.4169 81.4132 14.7828 82.1604 14.7828H85.9254C86.6799 14.7828 87.5076 14.7609 88.3939 14.7096C89.2729 14.6657 90.1446 14.6072 90.987 14.5267C91.8293 14.4535 92.6424 14.3583 93.4042 14.2485C94.1807 14.1387 94.8326 13.9997 95.3673 13.8313L94.9498 11.3794C94.4517 11.5111 93.8657 11.6209 93.1918 11.7234C92.5252 11.8258 91.8367 11.9137 91.1481 11.9795C90.4522 12.0381 89.7783 12.0966 89.1264 12.1332C88.4745 12.1698 87.9105 12.1918 87.427 12.1918H83.9989V9.60077H92.137V1.85694H81.047V4.44798H89.185V7.03901H81.047ZM100.634 26.9841V16.7664H97.682V19.4672H89.0385V16.7664H86.0866V25.8716C86.0866 26.6108 86.4528 26.9841 87.1999 26.9841H100.634ZM89.0385 22.0289H97.682V24.3931H89.0385V22.0289ZM100.634 0.781004H97.682V15.2366H100.634V0.781004ZM117.152 10.0399C117.423 10.6621 117.555 11.3208 117.555 12.0308C117.555 12.7407 117.423 13.3922 117.152 13.9923C116.881 14.5925 116.507 15.1342 116.024 15.5953C115.548 16.0637 114.962 16.4224 114.288 16.6785C113.606 16.9347 112.859 17.0665 112.039 17.0665C111.219 17.0665 110.508 16.9347 109.841 16.6785C109.175 16.415 108.589 16.0564 108.098 15.5953C107.607 15.1342 107.226 14.5999 106.955 13.9923C106.684 13.3922 106.553 12.7334 106.553 12.0308C106.553 11.3281 106.684 10.6621 106.955 10.0399C107.226 9.41778 107.607 8.87615 108.098 8.42968C108.589 7.97588 109.175 7.61723 109.841 7.35374C110.508 7.09756 111.248 6.96582 112.039 6.96582C112.83 6.96582 113.606 7.09756 114.288 7.35374C114.962 7.61723 115.548 7.97588 116.024 8.42968C116.507 8.88347 116.881 9.4251 117.152 10.0399ZM114.515 13.0335C114.647 12.7188 114.713 12.3821 114.713 12.0308C114.713 11.3062 114.464 10.6913 113.973 10.179C113.482 9.66664 112.83 9.41046 112.032 9.41046C111.233 9.41046 110.618 9.66664 110.127 10.179C109.636 10.6913 109.387 11.3062 109.387 12.0308C109.387 12.7554 109.629 13.3483 110.127 13.8533C110.618 14.3656 111.255 14.6145 112.032 14.6145C112.42 14.6145 112.786 14.5486 113.123 14.4095C113.46 14.2705 113.738 14.0875 113.973 13.8533C114.207 13.6191 114.383 13.3483 114.515 13.0335ZM113.511 3.59162V0.415039H110.559V3.59162H104.846V6.07286H119.283V3.59162H113.511ZM126.476 26.34V23.749H114.434V18.9622H111.482V25.2275C111.482 25.9667 111.856 26.34 112.596 26.34H126.476ZM122.99 20.0454H125.942V0.781004H122.99V7.32446H119.086V9.88622H122.99V12.3089H119.086V14.8707H122.99V20.0527V20.0454ZM130.432 15.9832C130.432 16.7225 130.806 17.0957 131.545 17.0957H133.333C134.798 17.0738 136.255 17.0225 137.706 16.942C139.156 16.8542 140.489 16.6785 141.698 16.3931L141.273 13.9411C140.35 14.1607 139.324 14.2998 138.218 14.3583C137.112 14.4169 136.028 14.4608 134.966 14.4974H133.377V5.05548H139.764V2.46444H130.425V15.9759L130.432 15.9832ZM148.547 23.1708H151.418V0.781004H148.547V8.21742H145.873V1.11037H143.002V22.3656H145.873V10.7499H148.547V23.1708ZM156.187 15.7343C156.187 16.4736 156.568 16.8469 157.329 16.8469H168.002V2.31074H156.187V15.7343ZM159.117 4.86518H165.079V14.2851H159.117V4.86518ZM175.891 0.781004H172.939V23.1708H175.891V0.781004ZM198.891 22.7609V16.0491H192.87V14.0729H203.074V11.5111H179.766V14.0729H189.911V16.0491H183.751V18.5596H196.013V20.287H183.751V25.8862C183.751 26.6255 184.124 26.9988 184.871 26.9988H199.58V24.4882H186.622V22.7609H198.884H198.891ZM189.911 1.36655C189.911 2.12776 189.691 2.83773 189.244 3.50379C188.797 4.16252 188.204 4.76271 187.479 5.32629C186.746 5.88256 185.889 6.37295 184.922 6.80479C183.956 7.23663 182.952 7.59528 181.912 7.88805L183.084 10.2009C185.054 9.60809 186.768 8.87615 188.226 7.99784C189.684 7.12684 190.746 6.16069 191.42 5.09939C192.086 6.15337 193.156 7.12684 194.613 7.99784C196.071 8.86884 197.785 9.60077 199.748 10.2009L200.928 7.88805C199.887 7.58796 198.884 7.22931 197.917 6.80479C196.95 6.38027 196.1 5.88988 195.368 5.32629C194.635 4.77003 194.042 4.16252 193.595 3.50379C193.148 2.83773 192.929 2.12776 192.929 1.36655V0.532148H189.918V1.36655H189.911ZM212.684 8.32721H209.725V13.5093H204.707V16.1003H211.197C212.032 16.1003 212.897 16.0784 213.776 16.0344C214.662 15.9832 215.526 15.9246 216.398 15.8515C217.262 15.7783 218.083 15.6758 218.852 15.544C219.621 15.4196 220.317 15.2659 220.925 15.0976L220.507 12.6749C219.409 12.953 218.258 13.1506 217.064 13.2751C215.863 13.3995 214.677 13.4727 213.483 13.5093H212.677V8.32721H212.684ZM218.925 2.11312H206.355V4.70415H216.024C216.024 5.80205 215.958 6.8853 215.827 7.96124C215.702 9.03718 215.526 10.1058 215.321 11.1671L218.141 11.4452C218.383 10.4425 218.573 9.25676 218.713 7.89537C218.852 6.52666 218.918 4.97497 218.918 3.23297V2.12044L218.925 2.11312ZM225.789 26.34V23.749H213.527V18.4278H210.567V25.2202C210.567 25.9594 210.941 26.3327 211.681 26.3327H225.789V26.34ZM225.034 8.18814V0.781004H222.075V19.5477H225.034V10.7499H228.792V8.18814H225.034Z" fill="black"/>
</svg>
