<svg width="111" height="121" viewBox="0 0 111 121" fill="none" xmlns="http://www.w3.org/2000/svg">
<g clip-path="url(#clip0_35_669)">
<path d="M8.80636 2.89587C8.50159 2.52584 8.08454 2.23625 7.57124 2.04319C7.05795 1.85013 6.48049 1.7536 5.83887 1.7536C5.14913 1.7536 4.5396 1.86622 4.0263 2.09145C3.51301 2.31669 3.09595 2.62237 2.79119 3.02457C2.48642 3.42678 2.35809 3.87725 2.35809 4.37599C2.35809 5.11605 2.66286 5.67914 3.2724 6.08135C3.88194 6.48355 4.58772 6.77314 5.43786 6.98229L7.00983 7.41668C8.24494 7.73844 9.28757 8.22109 10.1858 8.86462C11.0841 9.50815 11.5172 10.5056 11.5172 11.8088C11.5172 12.6775 11.2926 13.4659 10.8435 14.1738C10.3944 14.8816 9.73671 15.4286 8.85448 15.8309C7.97226 16.2331 6.94567 16.4422 5.75867 16.4422C4.63584 16.4422 3.65737 16.2491 2.82327 15.8791C1.98916 15.5091 1.3315 14.9943 0.85029 14.3346C0.369076 13.675 0.0963884 12.9028 0.0322266 12.0179H2.05332C2.10145 12.5971 2.30997 13.0798 2.64682 13.4659C2.98367 13.852 3.4328 14.1577 3.97818 14.3507C4.52356 14.5438 5.11705 14.6403 5.75867 14.6242C6.49653 14.6242 7.15419 14.5116 7.73165 14.2703C8.30911 14.029 8.77428 13.7072 9.09509 13.2567C9.4159 12.8063 9.59234 12.3236 9.59234 11.7605C9.59234 11.2618 9.46402 10.8596 9.19133 10.5217C8.91864 10.1839 8.56575 9.92645 8.11662 9.7173C7.66749 9.50815 7.12211 9.31509 6.46445 9.13812L4.50752 8.60721C3.20824 8.22109 2.21373 7.70626 1.50795 7.03056C0.802169 6.35485 0.465319 5.50217 0.465319 4.45643C0.465319 3.57157 0.705926 2.79934 1.1711 2.10754C1.63627 1.41574 2.29393 0.900919 3.12804 0.530888C3.96214 0.160858 4.89249 -0.0161133 5.91908 -0.0161133C6.94567 -0.0161133 7.84393 0.160858 8.64596 0.530888C9.44798 0.900919 10.0896 1.39966 10.5548 2.04319C11.0199 2.68672 11.2606 3.41069 11.2766 4.19902H9.35174C9.30361 3.68419 9.12717 3.24981 8.80636 2.86369V2.89587Z" fill="white" fill-opacity="0.5"/>
<path d="M20.0024 16.1525L25.809 0.225098H27.8943L33.7009 16.1525H31.6157L26.8998 2.79922H26.7714L22.0555 16.1525H19.9863H20.0024ZM30.9259 9.92633V11.6639H22.7934V9.92633H30.9259Z" fill="white" fill-opacity="0.5"/>
<path d="M46.7901 13.5784H46.9666L51.6664 0.225098H53.7517L47.9451 16.1525H45.8598L40.0371 0.225098H42.1224L46.7901 13.5784Z" fill="white" fill-opacity="0.5"/>
<path d="M64.9163 16.1525H62.9434V0.225098H64.9163V16.1525Z" fill="white" fill-opacity="0.5"/>
<path d="M88.0945 16.1525H86.2018L77.6041 3.74843H77.4437V16.1525H75.4707V0.225098H77.3795L85.9772 12.6453H86.1376V0.225098H88.0945V16.1525Z" fill="white" fill-opacity="0.5"/>
<path d="M97.2856 16.1525L103.092 0.225098H105.177L110.984 16.1525H108.899L104.183 2.79922H104.055L99.3388 16.1525H97.2695H97.2856ZM108.209 9.92633V11.6639H100.077V9.92633H108.209Z" fill="white" fill-opacity="0.5"/>
<path d="M8.80636 23.8104C8.50159 23.4404 8.08454 23.1508 7.57124 22.9577C7.05795 22.7647 6.48049 22.6681 5.83887 22.6681C5.14913 22.6681 4.5396 22.7808 4.0263 23.006C3.51301 23.2312 3.09595 23.5369 2.79119 23.9391C2.48642 24.3413 2.35809 24.7918 2.35809 25.2905C2.35809 26.0306 2.66286 26.5937 3.2724 26.9959C3.88194 27.3981 4.58772 27.6877 5.43786 27.8968L7.00983 28.3312C8.24494 28.653 9.28757 29.1356 10.1858 29.7792C11.0841 30.4227 11.5172 31.4202 11.5172 32.7233C11.5172 33.5921 11.2926 34.3804 10.8435 35.0883C10.3944 35.7962 9.73671 36.3432 8.85448 36.7454C7.97226 37.1476 6.94567 37.3568 5.75867 37.3568C4.63584 37.3568 3.65737 37.1637 2.82327 36.7937C1.98916 36.4236 1.3315 35.9088 0.85029 35.2492C0.369076 34.5896 0.0963884 33.8173 0.0322266 32.9325H2.05332C2.10145 33.5117 2.30997 33.9943 2.64682 34.3804C2.98367 34.7665 3.4328 35.0722 3.97818 35.2653C4.52356 35.4583 5.11705 35.5549 5.75867 35.5388C6.49653 35.5388 7.15419 35.4262 7.73165 35.1848C8.30911 34.9435 8.77428 34.6217 9.09509 34.1713C9.4159 33.7208 9.59234 33.2382 9.59234 32.6751C9.59234 32.1763 9.46402 31.7741 9.19133 31.4363C8.91864 31.0984 8.56575 30.841 8.11662 30.6319C7.66749 30.4227 7.12211 30.2296 6.46445 30.0527L4.50752 29.5218C3.20824 29.1356 2.21373 28.6208 1.50795 27.9451C0.802169 27.2694 0.465319 26.4167 0.465319 25.371C0.465319 24.4861 0.705926 23.7139 1.1711 23.0221C1.63627 22.3303 2.29393 21.8155 3.12804 21.4454C3.96214 21.0754 4.89249 20.8984 5.91908 20.8984C6.94567 20.8984 7.84393 21.0754 8.64596 21.4454C9.44798 21.8155 10.0896 22.3142 10.5548 22.9577C11.0199 23.6013 11.2606 24.3252 11.2766 25.1136H9.35174C9.30361 24.5987 9.12717 24.1644 8.80636 23.7782V23.8104Z" fill="white" fill-opacity="0.5"/>
<path d="M20.0024 37.0671L25.809 21.1396H27.8943L33.7009 37.0671H31.6157L26.8998 23.7138H26.7714L22.0555 37.0671H19.9863H20.0024ZM30.9259 30.8409V32.5784H22.7934V30.8409H30.9259Z" fill="white" fill-opacity="0.5"/>
<path d="M46.7897 34.4929H46.9662L51.666 21.1396H53.7513L47.9446 37.0671H45.8594L40.0527 21.1396H42.138L46.8058 34.4929H46.7897Z" fill="white" fill-opacity="0.5"/>
<path d="M64.9163 37.0671H62.9434V21.1396H64.9163V37.0671Z" fill="white" fill-opacity="0.5"/>
<path d="M88.0945 37.0671H86.2018L77.6041 24.663H77.4437V37.0671H75.4707V21.1396H77.3795L85.9772 33.5598H86.1376V21.1396H88.0945V37.0671Z" fill="white" fill-opacity="0.5"/>
<path d="M97.2856 37.0671L103.092 21.1396H105.177L110.984 37.0671H108.899L104.183 23.7138H104.055L99.3388 37.0671H97.2695H97.2856ZM108.209 30.8409V32.5784H100.077V30.8409H108.209Z" fill="white" fill-opacity="0.5"/>
<path d="M8.80636 44.7255C8.50159 44.3554 8.08454 44.0658 7.57124 43.8728C7.05795 43.6797 6.48049 43.5832 5.83887 43.5832C5.14913 43.5832 4.5396 43.6958 4.0263 43.921C3.51301 44.1463 3.09595 44.452 2.79119 44.8542C2.48642 45.2564 2.35809 45.7068 2.35809 46.2056C2.35809 46.9456 2.66286 47.5087 3.2724 47.9109C3.88194 48.3131 4.58772 48.6027 5.43786 48.8119L7.00983 49.2463C8.24494 49.568 9.28757 50.0507 10.1858 50.6942C11.0841 51.3377 11.5172 52.3352 11.5172 53.6384C11.5172 54.5071 11.2926 55.2955 10.8435 56.0033C10.3944 56.7112 9.73671 57.2582 8.85448 57.6604C7.97226 58.0626 6.94567 58.2718 5.75867 58.2718C4.63584 58.2718 3.65737 58.0787 2.82327 57.7087C1.98916 57.3387 1.3315 56.8238 0.85029 56.1642C0.369076 55.5046 0.0963884 54.7324 0.0322266 53.8475H2.05332C2.10145 54.4267 2.30997 54.9093 2.64682 55.2955C2.98367 55.6816 3.4328 55.9873 3.97818 56.1803C4.52356 56.3734 5.11705 56.4699 5.75867 56.4538C6.49653 56.4538 7.15419 56.3412 7.73165 56.0999C8.30911 55.8586 8.77428 55.5368 9.09509 55.0863C9.4159 54.6358 9.59234 54.1532 9.59234 53.5901C9.59234 53.0914 9.46402 52.6892 9.19133 52.3513C8.91864 52.0135 8.56575 51.756 8.11662 51.5469C7.66749 51.3377 7.12211 51.1447 6.46445 50.9677L4.50752 50.4368C3.20824 50.0507 2.21373 49.5359 1.50795 48.8601C0.802169 48.1844 0.465319 47.3318 0.465319 46.286C0.465319 45.4012 0.705926 44.6289 1.1711 43.9371C1.63627 43.2453 2.29393 42.7305 3.12804 42.3605C3.96214 41.9904 4.89249 41.8135 5.91908 41.8135C6.94567 41.8135 7.84393 41.9904 8.64596 42.3605C9.44798 42.7305 10.0896 43.2292 10.5548 43.8728C11.0199 44.5163 11.2606 45.2403 11.2766 46.0286H9.35174C9.30361 45.5138 9.12717 45.0794 8.80636 44.6933V44.7255Z" fill="white" fill-opacity="0.5"/>
<path d="M20.0024 57.9821L25.809 42.0547H27.8943L33.7009 57.9821H31.6157L26.8998 44.6288H26.7714L22.0555 57.9821H19.9863H20.0024ZM30.9259 51.7559V53.4935H22.7934V51.7559H30.9259Z" fill="white" fill-opacity="0.5"/>
<path d="M46.7897 55.408H46.9662L51.666 42.0547H53.7513L47.9446 57.9821H45.8594L40.0527 42.0547H42.138L46.8058 55.408H46.7897Z" fill="white" fill-opacity="0.5"/>
<path d="M64.9163 57.9821H62.9434V42.0547H64.9163V57.9821Z" fill="white" fill-opacity="0.5"/>
<path d="M88.0945 57.9821H86.2018L77.6041 45.578H77.4437V57.9821H75.4707V42.0547H77.3795L85.9772 54.4748H86.1376V42.0547H88.0945V57.9821Z" fill="white" fill-opacity="0.5"/>
<path d="M97.2856 57.9821L103.092 42.0547H105.177L110.984 57.9821H108.899L104.183 44.6288H104.055L99.3388 57.9821H97.2695H97.2856ZM108.209 51.7559V53.4935H100.077V51.7559H108.209Z" fill="white" fill-opacity="0.5"/>
<path d="M3.04782 62.9692L8.40533 76.0812H8.59782L13.9553 62.9692H16.3293V78.8966H14.4686V66.8626H14.3082L9.36776 78.8966H7.61935L2.67889 66.8626H2.55056V78.8966H0.673828V62.9692H3.04782Z" fill="white" fill-opacity="0.5"/>
<path d="M35.6578 62.9692V73.5071C35.6578 74.585 35.4012 75.5664 34.8879 76.419C34.3746 77.2717 33.6527 77.9474 32.7224 78.4462C31.792 78.9288 30.7013 79.1862 29.4822 79.1862C28.2631 79.1862 27.1724 78.9449 26.242 78.4462C25.3117 77.9474 24.5899 77.2878 24.0766 76.419C23.5633 75.5503 23.3066 74.585 23.3066 73.5071V62.9692H25.2796V73.3462C25.2796 74.1184 25.44 74.7941 25.7769 75.4055C26.1137 76.0168 26.5949 76.4673 27.2366 76.8213C27.8782 77.1591 28.616 77.3361 29.4822 77.3361C30.3484 77.3361 31.0863 77.1591 31.7279 76.8213C32.3695 76.4834 32.8507 76.0007 33.1876 75.4055C33.5244 74.8102 33.6848 74.1184 33.7009 73.3462V62.9692H35.6738H35.6578Z" fill="white" fill-opacity="0.5"/>
<path d="M50.736 65.64C50.4313 65.27 50.0142 64.9804 49.5009 64.7874C48.9876 64.5943 48.4102 64.4978 47.7686 64.4978C47.0788 64.4978 46.4693 64.6104 45.956 64.8356C45.4427 65.0609 45.0256 65.3665 44.7209 65.7687C44.4161 66.1709 44.2878 66.6214 44.2878 67.1202C44.2878 67.8602 44.5926 68.4233 45.2021 68.8255C45.8116 69.2277 46.5174 69.5173 47.3676 69.7265L48.9395 70.1608C50.1746 70.4826 51.2173 70.9653 52.1155 71.6088C52.9978 72.2684 53.4469 73.2498 53.4469 74.5529C53.4469 75.4217 53.2223 76.21 52.7732 76.9179C52.3241 77.6258 51.6664 78.1728 50.7842 78.575C49.918 78.9772 48.8754 79.1864 47.6884 79.1864C46.5655 79.1864 45.5871 78.9933 44.753 78.6233C43.9189 78.2532 43.2612 77.7384 42.78 77.0788C42.2988 76.4192 42.0261 75.6469 41.9619 74.7621H43.983C44.0311 75.3413 44.2397 75.8239 44.5765 76.21C44.9134 76.5962 45.3625 76.9018 45.9079 77.0949C46.4532 77.2879 47.0467 77.3845 47.6884 77.3684C48.4262 77.3684 49.0839 77.2558 49.6613 77.0145C50.2388 76.7731 50.704 76.4514 51.0248 76.017C51.3456 75.5826 51.522 75.0839 51.522 74.5208C51.522 74.0381 51.3937 73.6198 51.121 73.282C50.8483 72.9441 50.4954 72.6867 50.0463 72.4776C49.5972 72.2684 49.0518 72.0753 48.3941 71.8984L46.4372 71.3675C45.1379 70.9813 44.1434 70.4665 43.4376 69.7908C42.7319 69.1151 42.395 68.2624 42.395 67.2167C42.395 66.3318 42.6356 65.5596 43.1008 64.8678C43.566 64.176 44.2236 63.6612 45.0577 63.2911C45.8918 62.9211 46.8222 62.7441 47.8488 62.7441C48.8754 62.7441 49.7736 62.9211 50.5756 63.2911C51.3937 63.6612 52.0193 64.1599 52.4845 64.8034C52.9496 65.447 53.1902 66.1709 53.2063 66.9593H51.2814C51.2333 66.4444 51.0569 66.0101 50.736 65.6239V65.64Z" fill="white" fill-opacity="0.5"/>
<path d="M59.7188 62.9692H69.343V64.7228H61.6917V70.0481H68.8458V71.7856H61.6917V77.1269H69.4553V78.8805H59.7188V62.9531V62.9692Z" fill="white" fill-opacity="0.5"/>
<path d="M88.2867 62.9692V73.5071C88.2867 74.585 88.0301 75.5664 87.5168 76.419C87.0035 77.2717 86.2816 77.9474 85.3513 78.4462C84.4209 78.9288 83.3302 79.1862 82.1111 79.1862C80.892 79.1862 79.8013 78.9449 78.8709 78.4462C77.9406 77.9474 77.2188 77.2878 76.7055 76.419C76.1922 75.5503 75.9355 74.585 75.9355 73.5071V62.9692H77.9085V73.3462C77.9085 74.1184 78.0689 74.7941 78.4058 75.4055C78.7426 76.0168 79.2238 76.4673 79.8655 76.8213C80.5071 77.1591 81.2449 77.3361 82.1111 77.3361C82.9773 77.3361 83.7152 77.1591 84.3568 76.8213C84.9984 76.4834 85.4796 76.0007 85.8165 75.4055C86.1533 74.8102 86.3137 74.1184 86.3298 73.3462V62.9692H88.3027H88.2867Z" fill="white" fill-opacity="0.5"/>
<path d="M97.6226 62.9692L102.98 76.0812H103.173L108.53 62.9692H110.904V78.8966H109.043V66.8626H108.883L103.943 78.8966H102.194L97.2537 66.8626H97.1253V78.8966H95.2646V62.9692H97.6386H97.6226Z" fill="white" fill-opacity="0.5"/>
<path d="M3.04782 83.8843L8.40533 96.9962H8.59782L13.9553 83.8843H16.3293V99.8117H14.4686V87.7776H14.3082L9.36776 99.8117H7.61935L2.67889 87.7776H2.55056V99.8117H0.673828V83.8843H3.04782Z" fill="white" fill-opacity="0.5"/>
<path d="M35.6578 83.8843V94.4221C35.6578 95.5 35.4012 96.4814 34.8879 97.3341C34.3746 98.1868 33.6527 98.8625 32.7224 99.3612C31.792 99.8439 30.7013 100.101 29.4822 100.101C28.2631 100.101 27.1724 99.8599 26.242 99.3612C25.3117 98.8625 24.5899 98.2029 24.0766 97.3341C23.5633 96.4653 23.3066 95.5 23.3066 94.4221V83.8843H25.2796V94.2612C25.2796 95.0335 25.44 95.7092 25.7769 96.3205C26.1137 96.9319 26.5949 97.3823 27.2366 97.7363C27.8782 98.0741 28.616 98.2511 29.4822 98.2511C30.3484 98.2511 31.0863 98.0741 31.7279 97.7363C32.3695 97.3984 32.8507 96.9158 33.1876 96.3205C33.5244 95.7253 33.6848 95.0335 33.7009 94.2612V83.8843H35.6738H35.6578Z" fill="white" fill-opacity="0.5"/>
<path d="M50.736 86.5551C50.4313 86.185 50.0142 85.8955 49.5009 85.7024C48.9876 85.5093 48.4102 85.4128 47.7686 85.4128C47.0788 85.4128 46.4693 85.5254 45.956 85.7507C45.4427 85.9759 45.0256 86.2816 44.7209 86.6838C44.4161 87.086 44.2878 87.5365 44.2878 88.0352C44.2878 88.7753 44.5926 89.3383 45.2021 89.7406C45.8116 90.1428 46.5174 90.4323 47.3676 90.6415L48.9395 91.0759C50.1746 91.3976 51.2173 91.8803 52.1155 92.5238C52.9978 93.1834 53.4469 94.1648 53.4469 95.468C53.4469 96.3368 53.2223 97.1251 52.7732 97.833C52.3241 98.5408 51.6664 99.0878 50.7842 99.4901C49.918 99.8923 48.8754 100.101 47.6884 100.101C46.5655 100.101 45.5871 99.9083 44.753 99.5383C43.9189 99.1683 43.2612 98.6535 42.78 97.9938C42.2988 97.3342 42.0261 96.562 41.9619 95.6771H43.983C44.0311 96.2563 44.2397 96.739 44.5765 97.1251C44.9134 97.5112 45.3625 97.8169 45.9079 98.0099C46.4532 98.203 47.0467 98.2995 47.6884 98.2834C48.4262 98.2834 49.0839 98.1708 49.6613 97.9295C50.2388 97.6882 50.704 97.3664 51.0248 96.932C51.3456 96.4976 51.522 95.9989 51.522 95.4358C51.522 94.9532 51.3937 94.5349 51.121 94.197C50.8483 93.8592 50.4954 93.6017 50.0463 93.3926C49.5972 93.1834 49.0518 92.9904 48.3941 92.8134L46.4372 92.2825C45.1379 91.8964 44.1434 91.3816 43.4376 90.7059C42.7319 90.0301 42.395 89.1775 42.395 88.1317C42.395 87.2469 42.6356 86.4746 43.1008 85.7828C43.566 85.091 44.2236 84.5762 45.0577 84.2062C45.8918 83.8362 46.8222 83.6592 47.8488 83.6592C48.8754 83.6592 49.7736 83.8362 50.5756 84.2062C51.3937 84.5762 52.0193 85.0749 52.4845 85.7185C52.9496 86.362 53.1902 87.086 53.2063 87.8743H51.2814C51.2333 87.3595 51.0569 86.9251 50.736 86.539V86.5551Z" fill="white" fill-opacity="0.5"/>
<path d="M59.7188 83.8842H69.343V85.6379H61.6917V90.9631H68.8458V92.7006H61.6917V98.0419H69.4553V99.7956H59.7188V83.8682V83.8842Z" fill="white" fill-opacity="0.5"/>
<path d="M88.2867 83.8843V94.4221C88.2867 95.5 88.0301 96.4814 87.5168 97.3341C87.0035 98.1868 86.2816 98.8625 85.3513 99.3612C84.4209 99.8439 83.3302 100.101 82.1111 100.101C80.892 100.101 79.8013 99.8599 78.8709 99.3612C77.9406 98.8625 77.2188 98.2029 76.7055 97.3341C76.1922 96.4653 75.9355 95.5 75.9355 94.4221V83.8843H77.9085V94.2612C77.9085 95.0335 78.0689 95.7092 78.4058 96.3205C78.7426 96.9319 79.2238 97.3823 79.8655 97.7363C80.5071 98.0741 81.2449 98.2511 82.1111 98.2511C82.9773 98.2511 83.7152 98.0741 84.3568 97.7363C84.9984 97.3984 85.4796 96.9158 85.8165 96.3205C86.1533 95.7253 86.3137 95.0335 86.3298 94.2612V83.8843H88.3027H88.2867Z" fill="white" fill-opacity="0.5"/>
<path d="M97.6226 83.8843L102.98 96.9962H103.173L108.53 83.8843H110.904V99.8117H109.043V87.7776H108.883L103.943 99.8117H102.194L97.2537 87.7776H97.1253V99.8117H95.2646V83.8843H97.6386H97.6226Z" fill="white" fill-opacity="0.5"/>
<path d="M3.04782 104.799L8.40533 117.911H8.59782L13.9553 104.799H16.3293V120.726H14.4686V108.692H14.3082L9.36776 120.726H7.61935L2.67889 108.692H2.55056V120.726H0.673828V104.799H3.04782Z" fill="white" fill-opacity="0.5"/>
<path d="M35.6578 104.799V115.337C35.6578 116.415 35.4012 117.396 34.8879 118.249C34.3746 119.101 33.6527 119.777 32.7224 120.276C31.792 120.758 30.7013 121.016 29.4822 121.016C28.2631 121.016 27.1724 120.774 26.242 120.276C25.3117 119.777 24.5899 119.117 24.0766 118.249C23.5633 117.38 23.3066 116.415 23.3066 115.337V104.799H25.2796V115.176C25.2796 115.948 25.44 116.624 25.7769 117.235C26.1137 117.846 26.5949 118.297 27.2366 118.651C27.8782 118.989 28.616 119.166 29.4822 119.166C30.3484 119.166 31.0863 118.989 31.7279 118.651C32.3695 118.313 32.8507 117.83 33.1876 117.235C33.5244 116.64 33.6848 115.948 33.7009 115.176V104.799H35.6738H35.6578Z" fill="white" fill-opacity="0.5"/>
<path d="M50.736 107.47C50.4313 107.1 50.0142 106.81 49.5009 106.617C48.9876 106.424 48.4102 106.327 47.7686 106.327C47.0788 106.327 46.4693 106.44 45.956 106.665C45.4427 106.89 45.0256 107.196 44.7209 107.598C44.4161 108.001 44.2878 108.451 44.2878 108.95C44.2878 109.69 44.5926 110.253 45.2021 110.655C45.8116 111.057 46.5174 111.347 47.3676 111.556L48.9395 111.99C50.1746 112.312 51.2173 112.795 52.1155 113.438C52.9978 114.098 53.4469 115.079 53.4469 116.383C53.4469 117.251 53.2223 118.04 52.7732 118.748C52.3241 119.455 51.6664 120.002 50.7842 120.405C49.918 120.807 48.8754 121.016 47.6884 121.016C46.5655 121.016 45.5871 120.823 44.753 120.453C43.9189 120.083 43.2612 119.568 42.78 118.908C42.2988 118.249 42.0261 117.477 41.9619 116.592H43.983C44.0311 117.171 44.2397 117.654 44.5765 118.04C44.9134 118.426 45.3625 118.731 45.9079 118.924C46.4532 119.118 47.0467 119.214 47.6884 119.198C48.4262 119.198 49.0839 119.085 49.6613 118.844C50.2388 118.603 50.704 118.281 51.0248 117.847C51.3456 117.412 51.522 116.913 51.522 116.35C51.522 115.868 51.3937 115.449 51.121 115.112C50.8483 114.774 50.4954 114.516 50.0463 114.307C49.5972 114.098 49.0518 113.905 48.3941 113.728L46.4372 113.197C45.1379 112.811 44.1434 112.296 43.4376 111.62C42.7319 110.945 42.395 110.092 42.395 109.046C42.395 108.161 42.6356 107.389 43.1008 106.697C43.566 106.006 44.2236 105.491 45.0577 105.121C45.8918 104.751 46.8222 104.574 47.8488 104.574C48.8754 104.574 49.7736 104.751 50.5756 105.121C51.3937 105.491 52.0193 105.989 52.4845 106.633C52.9496 107.277 53.1902 108.001 53.2063 108.789H51.2814C51.2333 108.274 51.0569 107.84 50.736 107.454V107.47Z" fill="white" fill-opacity="0.5"/>
<path d="M59.7188 104.799H69.343V106.552H61.6917V111.878H68.8458V113.615H61.6917V118.957H69.4553V120.71H59.7188V104.783V104.799Z" fill="white" fill-opacity="0.5"/>
<path d="M88.2867 104.799V115.337C88.2867 116.415 88.0301 117.396 87.5168 118.249C87.0035 119.101 86.2816 119.777 85.3513 120.276C84.4209 120.758 83.3302 121.016 82.1111 121.016C80.892 121.016 79.8013 120.774 78.8709 120.276C77.9406 119.777 77.2188 119.117 76.7055 118.249C76.1922 117.38 75.9355 116.415 75.9355 115.337V104.799H77.9085V115.176C77.9085 115.948 78.0689 116.624 78.4058 117.235C78.7426 117.846 79.2238 118.297 79.8655 118.651C80.5071 118.989 81.2449 119.166 82.1111 119.166C82.9773 119.166 83.7152 118.989 84.3568 118.651C84.9984 118.313 85.4796 117.83 85.8165 117.235C86.1533 116.64 86.3137 115.948 86.3298 115.176V104.799H88.3027H88.2867Z" fill="white" fill-opacity="0.5"/>
<path d="M97.6226 104.799L102.98 117.911H103.173L108.53 104.799H110.904V120.726H109.043V108.692H108.883L103.943 120.726H102.194L97.2537 108.692H97.1253V120.726H95.2646V104.799H97.6386H97.6226Z" fill="white" fill-opacity="0.5"/>
</g>
<defs>
<clipPath id="clip0_35_669">
<rect width="111" height="121" fill="white"/>
</clipPath>
</defs>
</svg>
