<?xml version="1.0" encoding="UTF-8"?>
<svg id="Layer_1" data-name="Layer 1" xmlns="http://www.w3.org/2000/svg" version="1.1" viewBox="0 0 212.6 212.6">
  <defs>
    <style>
      .cls-1 {
        fill: #000;
        stroke-width: 0px;
      }
    </style>
  </defs>
  <path class="cls-1" d="M17.71,210.99c1.23-2.62,2.45-5.24,3.94-8.41-3.16-.15-6.26-.3-9.57-.46.35-4.59,3.83-5.79,8.1-6.28,2.65-.31,5.27-.96,8.62-1.59-2.17-8.34-4.39-15.65-5.88-23.11-.85-4.24-.27-8.74-.77-13.08-.78-6.84-1.7-13.67-3.01-20.42-.73-3.73-2.43-7.26-3.54-10.94-.17-.56.53-1.4.89-2.08.47-.88,1.65-2.13,1.41-2.52-2.36-3.78-.76-6.89.96-10.33,1.01-2.02.85-4.62,1.21-6.95.48,0,.97,0,1.45,0-.72-.49-1.45-.98-2.66-1.81,3.5-3.1,6.8-6.03,10.1-8.96.87-.77,1.89-1.43,2.58-2.34,1.92-2.5,4.46-4.86,5.36-7.71,1.39-4.38-4.01-3.91-5.74-6.29-3.74-5.17-8.91-7.19-15.22-6.25-1.98.3-3.95.67-6.05,1.03-1.62-4.72-.3-8.34,4.53-11,3.71-2.05,7.33-4.62,11.33-5.74,4.87-1.36,10.31-2.61,15.14-1.79,8.24,1.4,15.33.26,21.72-5.41,5.42,5.22,5.51,12.06,7.3,18.1,1.83,6.18,2.95,12.56,4.38,18.86.73.09,1.46.17,2.18.26,1.61-2.7,3.53-5.27,4.79-8.12,5.79-13.05,15.57-19.66,29.96-18.67,12.46.86,24.93,1.76,37.34,3.14,19.3,2.14,37.36-1.28,54.32-10.68,1.94,5.57-1.85,9.36-15.02,15.23,1.93-.34,3.87-.68,5.8-1.01,1.84-.31,3.68-.62,5.52-.92.27.52.53,1.04.8,1.56-3.2,2.58-6.41,5.16-9.74,7.85,1.43,4.09-.02,5.28-11.79,8.14,2.32.96,3.79,1.57,5.26,2.17-8.16,5.06-15.43.95-22.97,1.94,3.1,1.55,6.19,3.1,9.98,4.99-5.36,2.8-9.92,5.18-15.03,7.85,0,.07.13,1.12.29,2.56-1.87-.49-3.39-.89-5.33-1.4,1.4,2.67,2.61,4.98,4.27,8.15-2.51-.29-3.91-.45-5.6-.64-.17.91-.36,1.92-.7,3.72-3.27-2.87-6.1-5.35-9.86-8.65,2.08,4.8,3.71,8.55,5.37,12.38-4.57,1.16-8.38,2.13-12.58,3.2v1.65c-1.89,1.45-3.31,2.52-5.24,4-1.3-.66-3.34-1.7-6.66-3.38,2.48,2.97,4.15,4.96,5.43,6.49-4.22,2.41-8.12,4.64-12.22,6.99-.08,6.09-5.08,1.19-7.9,2.96,8.1,6.46,12.75,15.14,17.13,24.05,4.73,9.61,4.43,19.25.26,29.21,7.75-3.79,11.23-13.24,9.5-23.13-1.05-6.01-2.13-12.27-1.55-18.25,1.13-11.54,14.85-19.21,24.64-13.97,4.27,2.29,7.68,6.17,11.23,10.01-7.32,1.52-14.23,5.52-21.43-.21-4.07-3.24-8.61-.65-8.47,5.15.11,4.72,1.46,9.5,2.79,14.1,4.42,15.36-1.89,32.05-16.14,39.09-5.28,2.61-11.82,3.18-17.86,3.63-12.54.94-25.13,1.38-37.7,1.57-4.11.06-8.38-.88-12.3-2.19-1.77-.59-4.34-4.26-4.01-4.73,1.78-2.5,4.05-5.51,6.75-6.3,3.68-1.09,7.91-.34,11.9-.38.98,0,1.95,0,4.28,0-10.85-6.5-16.31-14.61-14.06-26.71-4.14-.81-8.29-1.62-12.61-2.47-.31,5.64-.99,11.42-.8,17.17.11,3.5-1.89,5.57-3.17,8.27-.75,1.58-.27,3.95.16,5.85,1.01,4.36,2.58,8.71-2.95,12.33,0-1.47.24-2.42-.05-3.18-.62-1.65-1.13-3.83-2.4-4.62-1.07-.66-3.25.11-4.78.68-1.01.37-1.66,1.61-2.6,2.29-3.75,2.72-7.55,5.38-11.34,8.06-.56-.54-1.13-1.07-1.69-1.61Z"/>
</svg>