<svg width="44" height="45" viewBox="0 0 44 45" fill="none" xmlns="http://www.w3.org/2000/svg">
<rect x="0.000244141" width="44" height="45" rx="5" fill="#333130"/>
<g clip-path="url(#clip0_53_37)">
<path d="M21.5002 22.5C21.5002 21.2181 22.0007 19.9887 22.8915 19.0823C23.7823 18.1759 24.9905 17.6666 26.2502 17.6666C27.51 17.6666 28.7182 18.1759 29.609 19.0823C30.4998 19.9887 31.0002 21.2181 31.0002 22.5C31.0002 23.7818 30.4998 25.0112 29.609 25.9176C28.7182 26.8241 27.51 27.3333 26.2502 27.3333C24.9905 27.3333 23.7823 26.8241 22.8915 25.9176C22.0007 25.0112 21.5002 23.7818 21.5002 22.5Z" fill="#1ABCFE"/>
<path d="M12.0002 32.1667C12.0002 30.8848 12.5007 29.6555 13.3915 28.749C14.2823 27.8426 15.4905 27.3334 16.7502 27.3334H21.5002V32.1667C21.5002 33.4486 20.9998 34.678 20.109 35.5844C19.2182 36.4908 18.01 37 16.7502 37C15.4905 37 14.2823 36.4908 13.3915 35.5844C12.5007 34.678 12.0002 33.4486 12.0002 32.1667V32.1667Z" fill="#0ACF83"/>
<path d="M21.5002 8V17.6667H26.2502C27.51 17.6667 28.7182 17.1574 29.609 16.251C30.4998 15.3446 31.0002 14.1152 31.0002 12.8333C31.0002 11.5515 30.4998 10.3221 29.609 9.41565C28.7182 8.50922 27.51 8 26.2502 8H21.5002Z" fill="#FF7262"/>
<path d="M12.0002 12.8333C12.0002 14.1152 12.5007 15.3446 13.3915 16.251C14.2823 17.1574 15.4905 17.6667 16.7502 17.6667H21.5002V8H16.7502C15.4905 8 14.2823 8.50922 13.3915 9.41565C12.5007 10.3221 12.0002 11.5515 12.0002 12.8333V12.8333Z" fill="#F24E1E"/>
<path d="M12.0002 22.5C12.0002 23.7818 12.5007 25.0112 13.3915 25.9176C14.2823 26.8241 15.4905 27.3333 16.7502 27.3333H21.5002V17.6666H16.7502C15.4905 17.6666 14.2823 18.1759 13.3915 19.0823C12.5007 19.9887 12.0002 21.2181 12.0002 22.5V22.5Z" fill="#A259FF"/>
</g>
<defs>
<clipPath id="clip0_53_37">
<rect width="19" height="29" fill="white" transform="translate(12.0002 8)"/>
</clipPath>
</defs>
</svg>
