<svg width="44" height="45" viewBox="0 0 44 45" fill="none" xmlns="http://www.w3.org/2000/svg">
<rect x="0.000244141" width="44" height="45" rx="5" fill="#333130"/>
<path d="M7.51294 32L13.6165 14.3242H18.3284L24.4441 32H20.5012L16.0457 18.3159H15.8992L11.4314 32H7.51294ZM20.6721 25.0542V27.9229H11.2361V25.0542H20.6721ZM30.5427 32.2563C29.2 32.2563 28.0321 31.9797 27.0393 31.4263C26.0546 30.8729 25.2978 30.0835 24.7688 29.0581C24.2398 28.0327 23.9753 26.8283 23.9753 25.4448C23.9753 24.0858 24.2398 22.8854 24.7688 21.8438C25.3059 20.8021 26.0546 19.9964 27.0149 19.4268C27.9833 18.8571 29.1104 18.5723 30.3962 18.5723C31.5844 18.5723 32.6464 18.8245 33.5823 19.3291C34.5181 19.8255 35.2546 20.5783 35.7917 21.5874C36.337 22.5965 36.6096 23.8294 36.6096 25.2861V26.2993H25.4524V24.041H33.2039C33.1957 23.512 33.0736 23.036 32.8376 22.6128C32.6098 22.1896 32.2883 21.86 31.8733 21.624C31.4583 21.388 30.9862 21.27 30.4573 21.27C29.8958 21.27 29.3953 21.4002 28.9558 21.6606C28.5164 21.9129 28.1705 22.2629 27.9182 22.7104C27.6741 23.158 27.5479 23.6463 27.5398 24.1753V26.2993C27.5398 26.9666 27.6659 27.5444 27.9182 28.0327C28.1786 28.5129 28.5367 28.8872 28.9924 29.1558C29.4482 29.4243 29.9812 29.5586 30.5916 29.5586C30.9985 29.5505 31.3687 29.4894 31.7024 29.3755C32.0361 29.2616 32.3168 29.111 32.5447 28.9238C32.7725 28.7285 32.9516 28.5007 33.0818 28.2402H36.5242C36.3451 29.054 35.9911 29.762 35.4622 30.3643C34.9332 30.9665 34.2496 31.4344 33.4114 31.7681C32.5732 32.0936 31.6169 32.2563 30.5427 32.2563Z" fill="white"/>
</svg>
