<svg width="44" height="45" viewBox="0 0 44 45" fill="none" xmlns="http://www.w3.org/2000/svg">
<rect x="0.000244141" width="44" height="45" rx="5" fill="#333130"/>
<g clip-path="url(#clip0_53_39)">
<path fill-rule="evenodd" clip-rule="evenodd" d="M22.463 10C15.5714 10 10.0002 15.7292 10.0002 22.8169C10.0002 28.4826 13.5699 33.2784 18.5219 34.9758C19.1411 35.1034 19.3678 34.7 19.3678 34.3607C19.3678 34.0635 19.3474 33.0451 19.3474 31.9839C15.8806 32.7479 15.1587 30.456 15.1587 30.456C14.6015 28.9706 13.776 28.5888 13.776 28.5888C12.6413 27.8036 13.8587 27.8036 13.8587 27.8036C15.1173 27.8885 15.7778 29.1193 15.7778 29.1193C16.8918 31.0714 18.687 30.5198 19.4092 30.1802C19.5122 29.3526 19.8426 28.7797 20.1934 28.4615C17.4283 28.1643 14.5191 27.0609 14.5191 22.1378C14.5191 20.7372 15.014 19.5914 15.7982 18.7003C15.6745 18.382 15.2411 17.0661 15.9222 15.3049C15.9222 15.3049 16.9745 14.9654 19.3472 16.6206C20.363 16.34 21.4106 16.1973 22.463 16.1961C23.5153 16.1961 24.588 16.3448 25.5786 16.6206C27.9515 14.9654 29.0038 15.3049 29.0038 15.3049C29.6849 17.0661 29.2513 18.382 29.1275 18.7003C29.9324 19.5914 30.4069 20.7372 30.4069 22.1378C30.4069 27.0609 27.4977 28.143 24.712 28.4615C25.1661 28.8646 25.5579 29.6284 25.5579 30.838C25.5579 32.5568 25.5375 33.9362 25.5375 34.3604C25.5375 34.7 25.7645 35.1034 26.3834 34.976C31.3354 33.2781 34.9051 28.4826 34.9051 22.8169C34.9255 15.7292 29.3339 10 22.463 10Z" fill="white"/>
</g>
<defs>
<clipPath id="clip0_53_39">
<rect width="25" height="25" fill="white" transform="translate(10.0002 10)"/>
</clipPath>
</defs>
</svg>
