<svg width="44" height="45" viewBox="0 0 44 45" fill="none" xmlns="http://www.w3.org/2000/svg">
<rect x="0.000244141" width="44" height="45" rx="5" fill="#333130"/>
<path d="M9.50171 14.3242H16.4109C17.7292 14.3242 18.8645 14.5765 19.8167 15.0811C20.7769 15.5775 21.5053 16.2773 22.0017 17.1807C22.4981 18.084 22.7463 19.1216 22.7463 20.2935C22.7463 21.4735 22.4941 22.5111 21.9895 23.4062C21.4849 24.2933 20.7485 24.9891 19.78 25.4937C18.8116 25.9901 17.6601 26.2383 16.3254 26.2383H11.8821V23.2842H15.7517C16.4597 23.2842 17.0538 23.1621 17.5339 22.918C18.0222 22.6657 18.3844 22.3158 18.6204 21.8682C18.8564 21.4206 18.9744 20.8957 18.9744 20.2935C18.9744 19.6912 18.8564 19.1704 18.6204 18.731C18.3844 18.2834 18.0222 17.9416 17.5339 17.7056C17.0457 17.4614 16.4475 17.3394 15.7395 17.3394H13.1638V32H9.50171V14.3242ZM31.3108 22.686C31.2294 22.214 30.9975 21.8397 30.615 21.563C30.2325 21.2863 29.7402 21.1479 29.1379 21.1479C28.7473 21.1479 28.3974 21.2049 28.0881 21.3188C27.7789 21.4328 27.5307 21.5915 27.3435 21.7949C27.1645 21.9984 27.075 22.2303 27.075 22.4907C27.075 22.8 27.2092 23.0685 27.4778 23.2964C27.7463 23.5243 28.1817 23.6992 28.7839 23.8213L31.1765 24.3096C32.4542 24.5781 33.4063 25.0094 34.033 25.6035C34.6677 26.1895 34.9892 26.9544 34.9973 27.8984C34.9892 28.7611 34.741 29.522 34.2527 30.1812C33.7644 30.8322 33.0767 31.3408 32.1897 31.707C31.3027 32.0732 30.2773 32.2563 29.1135 32.2563C27.9335 32.2563 26.9122 32.0895 26.0496 31.7559C25.1951 31.4141 24.5196 30.9339 24.0232 30.3154C23.5268 29.6888 23.2297 28.9442 23.1321 28.0815H26.7576C26.8471 28.5942 27.0953 28.9849 27.5022 29.2534C27.9091 29.5138 28.4503 29.64 29.1257 29.6318C29.557 29.64 29.9395 29.5911 30.2732 29.4854C30.6069 29.3714 30.8632 29.2127 31.0422 29.0093C31.2213 28.7977 31.3108 28.5535 31.3108 28.2769C31.3108 27.9351 31.1643 27.6543 30.8713 27.4346C30.5865 27.2067 30.1348 27.0277 29.5164 26.8975L27.3191 26.458C26.0577 26.2139 25.1015 25.7744 24.4504 25.1396C23.8075 24.4967 23.4861 23.687 23.4861 22.7104C23.4861 21.8722 23.7139 21.1398 24.1697 20.5132C24.6254 19.8866 25.2724 19.4064 26.1106 19.0728C26.9569 18.7391 27.9498 18.5723 29.0891 18.5723C30.1877 18.5723 31.148 18.7391 31.97 19.0728C32.8 19.4064 33.443 19.8825 33.8987 20.501C34.3625 21.1195 34.627 21.8478 34.6921 22.686H31.3108Z" fill="white"/>
</svg>
