<svg width="44" height="45" viewBox="0 0 44 45" fill="none" xmlns="http://www.w3.org/2000/svg">
<rect x="0.000244141" width="44" height="45" rx="5" fill="#333130"/>
<path d="M11.5017 14.3242H18.4109C19.7292 14.3242 20.8645 14.5765 21.8167 15.0811C22.7769 15.5775 23.5053 16.2773 24.0017 17.1807C24.4981 18.084 24.7463 19.1216 24.7463 20.2935C24.7463 21.4735 24.4941 22.5111 23.9895 23.4062C23.4849 24.2933 22.7485 24.9891 21.78 25.4937C20.8116 25.9901 19.6601 26.2383 18.3254 26.2383H13.8821V23.2842H17.7517C18.4597 23.2842 19.0538 23.1621 19.5339 22.918C20.0222 22.6657 20.3844 22.3158 20.6204 21.8682C20.8564 21.4206 20.9744 20.8957 20.9744 20.2935C20.9744 19.6912 20.8564 19.1704 20.6204 18.731C20.3844 18.2834 20.0222 17.9416 19.5339 17.7056C19.0457 17.4614 18.4475 17.3394 17.7395 17.3394H15.1638V32H11.5017V14.3242ZM25.7424 18.7432H29.2336V21.0503H29.3801C29.6161 20.2446 30.019 19.6302 30.5886 19.207C31.1583 18.7757 31.8175 18.556 32.5662 18.5479C33.087 18.5641 33.4736 18.6048 33.7258 18.6699V21.8926C33.5468 21.8356 33.3108 21.7909 33.0178 21.7583C32.7249 21.7176 32.4441 21.6973 32.1755 21.6973C31.6384 21.6973 31.1583 21.8153 30.7351 22.0513C30.3119 22.2873 29.9742 22.6169 29.7219 23.04C29.4778 23.4551 29.3557 23.9312 29.3557 24.4683V32H25.7424V18.7432Z" fill="white"/>
</svg>
