<svg width="44" height="45" viewBox="0 0 44 45" fill="none" xmlns="http://www.w3.org/2000/svg">
<rect x="0.000244141" width="44" height="45" rx="5" fill="#333130"/>
<path d="M15.4841 20.4033H15.6306L19.2439 14.3242H23.3943L18.011 23.1621L23.5164 32H19.2927L15.6306 25.9209H15.4841L11.822 32H7.6106L13.1526 23.1621L7.70825 14.3242H11.8831L15.4841 20.4033ZM28.4797 32.2075C27.4543 32.2075 26.5347 31.943 25.7209 31.4141C24.9071 30.877 24.2642 30.0998 23.7922 29.0825C23.3284 28.0571 23.0964 26.8242 23.0964 25.3838C23.0964 23.9271 23.3365 22.686 23.8167 21.6606C24.2968 20.6271 24.9397 19.854 25.7454 19.3413C26.5592 18.8286 27.4706 18.5723 28.4797 18.5723C29.1389 18.5723 29.7086 18.6781 30.1887 18.8896C30.677 19.0931 31.0717 19.3576 31.3728 19.6831C31.682 20.0005 31.9384 20.3626 32.1418 20.7695C32.1663 20.8102 32.1825 20.8428 32.1907 20.8672C32.1988 20.8835 32.2151 20.916 32.2395 20.9648H32.3494V14.3242H35.9626V32H32.4104V29.8882H32.2395L32.1663 30.0347C31.9547 30.4416 31.6943 30.8037 31.385 31.1211C31.0758 31.4303 30.677 31.6908 30.1887 31.9023C29.7004 32.1058 29.1308 32.2075 28.4797 32.2075ZM29.6028 29.3267C30.1969 29.3267 30.7055 29.1598 31.1287 28.8262C31.56 28.4925 31.8855 28.0327 32.1052 27.4468C32.3331 26.8527 32.447 26.1569 32.447 25.3594C32.447 24.5618 32.3331 23.8701 32.1052 23.2842C31.8855 22.6901 31.564 22.2384 31.1409 21.9292C30.7177 21.62 30.205 21.4653 29.6028 21.4653C29.0006 21.4653 28.4879 21.6281 28.0647 21.9536C27.6497 22.271 27.3323 22.7227 27.1125 23.3086C26.8928 23.8945 26.783 24.5781 26.783 25.3594C26.783 26.1488 26.8928 26.8405 27.1125 27.4346C27.3404 28.0286 27.6619 28.4925 28.0769 28.8262C28.5001 29.1598 29.0087 29.3267 29.6028 29.3267Z" fill="white"/>
</svg>
