<svg width="44" height="45" viewBox="0 0 44 45" fill="none" xmlns="http://www.w3.org/2000/svg">
<rect x="0.000244141" width="44" height="45" rx="5" fill="#333130"/>
<path d="M10.5129 32L16.6165 14.3242H21.3284L27.4441 32H23.5012L19.0457 18.3159H18.8992L14.4314 32H10.5129ZM23.6721 25.0542V27.9229H14.2361V25.0542H23.6721ZM28.1838 18.7432H31.7971V32H28.1838V18.7432ZM29.9905 16.9976C29.6243 16.9976 29.2906 16.9162 28.9895 16.7534C28.6965 16.5825 28.4605 16.3587 28.2815 16.082C28.1025 15.8053 28.0129 15.5002 28.0129 15.1665C28.0129 14.841 28.1025 14.5358 28.2815 14.251C28.4605 13.9661 28.7006 13.7424 29.0017 13.5796C29.3028 13.4168 29.6324 13.3354 29.9905 13.3354C30.3404 13.3354 30.6659 13.4168 30.967 13.5796C31.2681 13.7424 31.5082 13.9661 31.6873 14.251C31.8663 14.5358 31.9558 14.841 31.9558 15.1665C31.9558 15.5002 31.8663 15.8053 31.6873 16.082C31.5082 16.3587 31.2681 16.5825 30.967 16.7534C30.6659 16.9162 30.3404 16.9976 29.9905 16.9976Z" fill="white"/>
</svg>
