<?xml version="1.0" encoding="utf-8"?>
<!-- Generator: Adobe Illustrator 24.0.0, SVG Export Plug-In . SVG Version: 6.00 Build 0)  -->
<svg version="1.1" id="Layer_1" xmlns="http://www.w3.org/2000/svg" xmlns:xlink="http://www.w3.org/1999/xlink" x="0px" y="0px"
	 viewBox="0 0 14 20" style="enable-background:new 0 0 14 20;" xml:space="preserve">
<style type="text/css">
	.st0{fill:none;stroke:#000000;}
</style>
<title>Iconography/Login White</title>
<desc>Created with Sketch.</desc>
<g id="Navigation">
	<g id="D-Menu-v3---Pro-_x2B_-after-log-in-_x2B_-7-items" transform="translate(-437.000000, -867.000000)">
		<g id="Iconography_x2F_Login-White" transform="translate(434.000000, 867.000000)">
			<g id="icon" transform="translate(4.000000, 0.500000)">
				<path id="Fill-4" class="st0" d="M3.7,3.3c0,1.4,1.2,2.6,2.6,2.6s2.6-1.2,2.6-2.6S7.7,0.7,6.3,0.7S3.7,1.8,3.7,3.3z M3,3.3
					C3,1.5,4.5,0,6.3,0C8,0,9.5,1.5,9.5,3.3C9.5,5,8,6.5,6.3,6.5C4.5,6.5,3,5,3,3.3z"/>
				<path id="Fill-1" class="st0" d="M6,9c3.3,0,6,2.9,6,6.4v3.2c0,0.2-0.2,0.4-0.4,0.4H0.4C0.2,19,0,18.8,0,18.6v-3.2
					C0,11.9,2.7,9,6,9z M6,9.8c-2.9,0-5.2,2.5-5.2,5.5v2.8h10.4v-2.8C11.2,12.3,8.9,9.8,6,9.8z"/>
			</g>
		</g>
	</g>
</g>
</svg>
