<svg xmlns="http://www.w3.org/2000/svg" width="52" height="52" viewBox="0 0 52 52">
  <defs>
    <style>
      .cls-1 {
        fill: #f1f1f1;
      }

      .cls-2 {
        fill: #f57921;
      }
    </style>
  </defs>
  <g id="그룹_87" data-name="그룹 87" transform="translate(-1785 -1005)">
    <circle id="타원_20" data-name="타원 20" class="cls-1" cx="26" cy="26" r="26" transform="translate(1785 1005)"/>
    <path id="instagram-brands" class="cls-2" d="M16.52,39.907a8.506,8.506,0,1,0,8.506,8.506A8.492,8.492,0,0,0,16.52,39.907Zm0,14.036a5.53,5.53,0,1,1,5.53-5.53,5.54,5.54,0,0,1-5.53,5.53ZM27.358,39.559a1.984,1.984,0,1,1-1.984-1.984A1.979,1.979,0,0,1,27.358,39.559Zm5.634,2.014a9.818,9.818,0,0,0-2.68-6.951,9.883,9.883,0,0,0-6.951-2.68c-2.739-.155-10.949-.155-13.688,0a9.869,9.869,0,0,0-6.951,2.672,9.85,9.85,0,0,0-2.68,6.951c-.155,2.739-.155,10.949,0,13.688A9.818,9.818,0,0,0,2.721,62.2a9.9,9.9,0,0,0,6.951,2.68c2.739.155,10.949.155,13.688,0a9.818,9.818,0,0,0,6.951-2.68,9.883,9.883,0,0,0,2.68-6.951C33.147,52.514,33.147,44.312,32.992,41.573ZM29.453,58.192A5.6,5.6,0,0,1,26.3,61.346c-2.184.866-7.366.666-9.779.666s-7.6.192-9.779-.666a5.6,5.6,0,0,1-3.154-3.154c-.866-2.184-.666-7.366-.666-9.779s-.192-7.6.666-9.779A5.6,5.6,0,0,1,6.741,35.48c2.184-.866,7.366-.666,9.779-.666s7.6-.192,9.779.666a5.6,5.6,0,0,1,3.154,3.154c.866,2.184.666,7.366.666,9.779S30.319,56.016,29.453,58.192Z" transform="translate(1794.075 982.175)"/>
  </g>
</svg>
