<svg xmlns="http://www.w3.org/2000/svg" width="210.6" height="210.6" viewBox="0 0 210.6 210.6">
  <defs>
    <style>
      .cls-1 {
        opacity: 0.5;
      }

      .cls-2 {
        fill: #F57921;
      }

      .cls-3, .cls-4 {
        fill: none;
        stroke: #F57921;
        stroke-miterlimit: 10;
        stroke-width: 4px;
      }

      .cls-3 {
        stroke-linecap: round;
        stroke-linejoin: round;
      }
    </style>
  </defs>
  <g id="그룹_52" data-name="그룹 52" transform="translate(-543 -408.7)">
    <g id="drowing_deung_line" transform="translate(542.6 403.3)">
      <g id="그룹_41" data-name="그룹 41" class="cls-1" transform="translate(148.483 67.917)">
        <path id="패스_26" data-name="패스 26" class="cls-2" d="M94.877,20.64,34.36,44.408v80.263L65.441,111.05c-.64-2.7-1.188-5.348-1.783-8-.411-2.011-.777-4.022-1.28-6.033-.366-2.011-.868-3.977-1.371-5.942a58.592,58.592,0,0,0-3.748-11.2A18.309,18.309,0,0,0,54.2,75.215a7.93,7.93,0,0,0-4.8-2.7c1.874-.914,4.205-.32,6.125.731a15.116,15.116,0,0,1,4.754,4.571,32.856,32.856,0,0,1,4.662,10.33c0-.183-.046-.32-.046-.5a171.515,171.515,0,0,1-.457-17.506c.411-5.9.274-11.61,2.788-17.872a4.015,4.015,0,0,1,2.7-2.423,3.287,3.287,0,0,1,3.062,1.691,18.774,18.774,0,0,1,2.011,4.251,50.831,50.831,0,0,1,1.965,8.593c-1.371-2.56-2.605-5.165-3.977-7.542a15.883,15.883,0,0,0-2.194-3.154c-.046-.091-.137-.091-.183-.137a.868.868,0,0,0-.137.411,36.359,36.359,0,0,0-1.051,7.862c-.183,2.788-.32,5.668-.366,8.5-.411,11.427-.457,22.991-1.737,34.647v-.137c.046,1.828,0,3.7-.137,5.531l27.836-12.2V20.64Z" transform="translate(-34.36 -20.64)"/>
      </g>
      <path id="패스_27" data-name="패스 27" class="cls-3" d="M148.483,7.4H62.917L2.4,67.917v85.565L62.917,214h85.565L209,153.483V67.917Z" transform="translate(0 0)"/>
      <path id="패스_28" data-name="패스 28" class="cls-3" d="M15.92,12.04l6.765,7.953H91.841l8.319-8.273" transform="translate(48.277 15.426)"/>
      <path id="패스_29" data-name="패스 29" class="cls-4" d="M17.75,13.53" transform="translate(54.812 21.889)"/>
      <path id="패스_30" data-name="패스 30" class="cls-4" d="M2.4,20.64,63.649,44.408h84.788l58.6-23.768" transform="translate(0 47.277)"/>
      <path id="패스_31" data-name="패스 31" class="cls-4" d="M2.4,38.21,63.649,61.932h84.788l58.6-23.722" transform="translate(0 110.016)"/>
      <path id="패스_32" data-name="패스 32" class="cls-3" d="M34.35,44.408v80.263L94.913,98.115V20.64Z" transform="translate(114.087 47.277)"/>
    </g>
  </g>
</svg>
