<svg xmlns="http://www.w3.org/2000/svg" width="52" height="52" viewBox="0 0 52 52">
  <defs>
    <style>
      .cls-1 {
        fill: #4A4A4A;
      }

      .cls-2 {
        fill: #f1f1f1;
      }
    </style>
  </defs>
  <g id="그룹_86" data-name="그룹 86" transform="translate(-1845 -1005)">
    <circle id="타원_21" data-name="타원 21" class="cls-1" cx="26" cy="26" r="26" transform="translate(1845 1005)"/>
    <path id="youtube-brands" class="cls-2" d="M49.26,67.857a4.405,4.405,0,0,0-3.1-3.12C43.426,64,32.463,64,32.463,64s-10.963,0-13.7.737a4.405,4.405,0,0,0-3.1,3.12,49.6,49.6,0,0,0,0,16.987,4.34,4.34,0,0,0,3.1,3.07c2.734.737,13.7.737,13.7.737s10.963,0,13.7-.737a4.34,4.34,0,0,0,3.1-3.07,49.6,49.6,0,0,0,0-16.987ZM28.877,81.563V71.138l9.163,5.213Z" transform="translate(1838.067 955.586)"/>
  </g>
</svg>
