<svg width="1000" height="600" viewBox="0 0 1000 600" fill="none" xmlns="http://www.w3.org/2000/svg">
<g clip-path="url(#clip0_123_182)">
<path d="M925.392 268.434H990C994.063 268.434 997.5 271.866 997.5 276.279L997.5 328.117C997.5 332.53 994.063 335.962 990 335.962H983.496C976.514 335.962 970.996 341.793 970.996 348.806V498.446C970.996 502.86 967.559 506.291 963.496 506.291H859.139C856.199 506.291 853.672 503.801 853.672 500.549C853.672 494.698 849.065 489.808 843.205 489.808H676.667C669.684 489.808 664.167 495.639 664.167 502.653V525.919C664.167 532.932 669.684 538.764 676.667 538.764H772.875C776.938 538.764 780.375 542.195 780.375 546.609V589.655C780.375 594.068 776.938 597.5 772.875 597.5H511.529C507.466 597.5 504.029 594.068 504.029 589.655V569.685C504.029 562.672 498.512 556.841 491.529 556.841H344.353C340.29 556.841 336.853 553.409 336.853 548.996V509.246C336.853 502.232 331.335 496.401 324.353 496.401H233.242C229.179 496.401 225.742 492.969 225.742 488.556V412.543C225.742 405.529 220.224 399.698 213.242 399.698H196.544C189.562 399.698 184.044 405.529 184.044 412.543V467.677C184.044 472.09 180.607 475.522 176.544 475.522H111.937C107.874 475.522 104.437 472.09 104.437 467.677V434.521C104.437 427.507 98.9196 421.676 91.9368 421.676H47.7653C41.3186 421.676 36.236 427.058 36.236 433.517C36.236 437.375 33.2335 440.357 29.7067 440.357H10C5.93707 440.357 2.5 436.925 2.5 432.512V312.543C2.5 308.129 5.93708 304.698 10 304.698H28.736C35.7188 304.698 41.236 298.866 41.236 291.853V203.035C41.236 198.622 44.6731 195.19 48.736 195.19H254.016C260.999 195.19 266.516 189.359 266.516 182.346V81.7734C266.516 77.3603 269.953 73.9286 274.016 73.9286H362.069C369.052 73.9286 374.569 68.0972 374.569 61.0837V10.3448C374.569 5.93169 378.006 2.5 382.069 2.5H578.175C582.238 2.5 585.675 5.93169 585.675 10.3448V25.9189C585.675 32.9324 591.193 38.7637 598.175 38.7637H784.088C788.151 38.7637 791.588 42.1954 791.588 46.6086V90.7541C791.588 97.7675 797.105 103.599 804.088 103.599H905.392C909.455 103.599 912.892 107.031 912.892 111.444V255.589C912.892 262.603 918.41 268.434 925.392 268.434ZM75.9368 480.522C79.9997 480.522 83.4368 483.954 83.4368 488.367V495.608C83.4368 502.622 88.954 508.453 95.9368 508.453H101.937C106 508.453 109.437 511.885 109.437 516.298V525.608C109.437 530.021 106 533.453 101.937 533.453H74.9368C72.5307 533.453 70.4368 531.411 70.4368 528.712C70.4368 523.412 66.2627 518.97 60.9368 518.97H28.9368C24.8739 518.97 21.4368 515.539 21.4368 511.125V488.367C21.4368 483.954 24.8739 480.522 28.9368 480.522H75.9368Z" fill="#DEC9B6" stroke="#806959" stroke-width="5" stroke-linecap="round" stroke-linejoin="round"/>
<path d="M807.804 141.417C814 118.5 819.078 103.546 839.874 92.9627C833.5 89 825.231 90.9748 817.81 96.9728C820.032 90.685 827.744 79.6989 840.818 86.0572C839.214 82.9062 839.5 79.5 825.5 80.5C829.192 76.6682 837.992 74.092 846 79.5C848.812 81.3988 850 85 850 88C859.64 89.0001 869.5 96.1658 862.295 108.175C861.33 96.9238 857.447 96.0528 854.127 96.0237C861.637 102.675 853.078 109.031 849.36 112.378C853.117 104.827 852.146 101.426 848.001 98.5C848.801 103.7 842.879 106.333 839.818 107C843.672 104.46 842.613 99.6084 841.602 97.5C836.75 99.4688 832.396 103.199 829.5 106.5C823.337 113.524 821.461 124.1 820.5 141.417C818.949 141.159 815 141.417 813 140.5C810.5 141.417 808.285 141.573 807.804 141.417Z" fill="#DEC9B6"/>
<path d="M839.874 92.9627C819.078 103.546 814 118.5 807.804 141.417C808.285 141.573 810.5 141.417 813 140.5C815 141.417 818.949 141.159 820.5 141.417C821.461 124.1 823.337 113.524 829.5 106.5C832.396 103.199 836.75 99.4688 841.602 97.5M839.874 92.9627C833.5 89 825.231 90.9748 817.81 96.9728C820.032 90.685 827.744 79.6989 840.818 86.0572C839.214 82.9062 839.5 79.5 825.5 80.5C829.192 76.6682 837.992 74.092 846 79.5C848.812 81.3988 850 85 850 88C859.64 89.0001 869.5 96.1658 862.295 108.175C861.33 96.9238 857.447 96.0528 854.127 96.0237C861.637 102.675 853.078 109.031 849.36 112.378C853.117 104.827 852.146 101.426 848.001 98.5M839.874 92.9627C841.561 94.2771 842.397 95.6464 844.485 96.5666M844.485 96.5666C843.51 96.8002 842.546 97.1167 841.602 97.5M844.485 96.5666C845.544 96.9908 846.78 97.6381 848.001 98.5M841.602 97.5C842.613 99.6084 843.672 104.46 839.818 107C842.879 106.333 848.801 103.7 848.001 98.5" stroke="#806959" stroke-width="3" stroke-linecap="round" stroke-linejoin="round"/>
<path d="M240.919 120.69C242.931 123.449 244.789 126.015 246.22 128C247.561 123.293 248.929 118.001 250.265 112.5C247.459 114.711 244.3 117.454 240.919 120.69Z" fill="#DEC9B6"/>
<path d="M365 186.5C350.333 155.333 312.9 65.1 308.5 37.5C304.833 39.8333 295.3 45 286.5 47C286.419 50.8445 286.305 55.4313 286.156 60.5C280.937 63.1667 268.3 68.7 259.5 69.5C257.546 79.8309 254.032 96.9911 250.265 112.5C248.929 118.001 247.561 123.293 246.22 128C244.57 133.787 242.961 138.688 241.5 142C241.278 144.367 240.899 148.078 240.441 152C239.866 156.916 239.168 162.162 238.5 165.5C237 173 234.5 248.5 226.5 255.5H389.5L365 186.5Z" fill="#DEC9B6"/>
<path d="M241.5 142C242.961 138.688 244.57 133.787 246.22 128C244.789 126.015 242.931 123.449 240.919 120.69C217.291 143.304 182.85 189.96 182.5 247C182.469 249.223 182.443 252.201 182.274 255.5H214.645C212.456 200.285 235.172 157.58 240.441 152C240.899 148.078 241.278 144.367 241.5 142Z" fill="#DEC9B6"/>
<path d="M226.5 255.5C234.5 248.5 237 173 238.5 165.5C239.168 162.162 239.866 156.916 240.441 152C235.172 157.58 212.456 200.285 214.645 255.5H226.5Z" fill="#DEC9B6"/>
<path d="M240.919 120.69C235.33 113.02 228.559 103.853 226.5 101.5C223 97.5 224.5 93 222 90C219 89.5 212.3 88.2 209.5 87C204 90.8333 191.7 98.3 186.5 97.5C182.167 107.521 175.046 123.82 168.476 138.5C162.916 150.922 157.75 162.183 155 167.5C147.5 182 148 235 128 255.5H182.274C182.443 252.201 182.469 249.223 182.5 247C182.85 189.96 217.291 143.304 240.919 120.69Z" fill="#DEC9B6"/>
<path d="M128 255.5C148 235 147.5 182 155 167.5C157.75 162.183 162.916 150.922 168.476 138.5C161.984 140 148.2 142.1 145 138.5L142 128C141.333 127.667 138.8 127.8 134 131C128 135 125 135.5 122.5 135.5C120 135.5 116 150.5 116 154.5C116 158.5 97.5 195.5 96.5 211C95.5 226.5 95 251.5 88 255.5H128Z" fill="#DEC9B6"/>
<path d="M119 320.5C115.5 320.333 108.7 320.7 105.5 325.5C102.3 330.3 106.833 333.5 109.5 334.5C106.7 342.9 128.333 343.333 139.5 342.5C147.9 353.3 181.504 352 197.256 350C213.062 353.6 219.337 350.5 220.5 348.5C230.833 349.667 251.5 350.1 251.5 342.5C255.166 341.833 262.2 339.2 261 334C262.833 333.167 267.4 330.3 267 327.5C266.5 324 263 322.5 261 322.5M365 186.5C350.333 155.333 312.9 65.1 308.5 37.5C304.833 39.8333 295.3 45 286.5 47C286.419 50.8445 286.305 55.4313 286.156 60.5M304.5 112.5C306 125.5 310.1 150.1 312.5 154.5M319 142C320.5 149.333 324.6 165.8 329 173M286.156 60.5C285.383 86.854 283.684 126.233 281 142M286.156 60.5C280.937 63.1667 268.3 68.7 259.5 69.5C257.546 79.8309 254.032 96.9911 250.265 112.5M226.5 255.5C234.5 248.5 237 173 238.5 165.5C239.168 162.162 239.866 156.916 240.441 152M240.919 120.69C235.33 113.02 228.559 103.853 226.5 101.5C223 97.5 224.5 93 222 90C219 89.5 212.3 88.2 209.5 87C204 90.8333 191.7 98.3 186.5 97.5C182.167 107.521 175.046 123.82 168.476 138.5M240.919 120.69C244.3 117.454 247.459 114.711 250.265 112.5M240.919 120.69C217.291 143.304 182.85 189.96 182.5 247C182.358 257.245 182.326 283.5 167.808 283.5M128 255.5C148 235 147.5 182 155 167.5C157.75 162.183 162.916 150.922 168.476 138.5M168.476 138.5C161.984 140 148.2 142.1 145 138.5M145 138.5L142 128C141.333 127.667 138.8 127.8 134 131C128 135 125 135.5 122.5 135.5C120 135.5 116 150.5 116 154.5C116 158.5 97.5 195.5 96.5 211C95.5 226.5 95 251.5 88 255.5M145 138.5C143 147.167 136.5 165.5 132 171.5M250.265 112.5C248.929 118.001 247.561 123.293 246.22 128C244.57 133.787 242.961 138.688 241.5 142C241.278 144.367 240.899 148.078 240.441 152M155 287.5C152 289.5 150 294.5 155 298.5C160 302.5 168.476 295 168.476 292C168.476 290.453 169.147 286.911 167.808 283.5M240.441 152C234.46 158.333 206 212.5 217 278.5M217 278.5C222.554 274.833 234.817 272.2 239.441 287C243.516 300.046 237.646 310.108 230.5 315.608M217 278.5C214.667 279.667 212.7 281.9 211.5 287.5M221.5 306C222.5 303.5 218.1 295.3 210.5 298.5C206.769 300.071 203.781 303.728 204 308C204.345 314.725 207.522 320.223 214.5 320.4C216.9 320.46 219.444 320.206 221.5 320C224.348 319.715 227.512 317.908 230.5 315.608M230.5 315.608C232.333 320.905 239.3 330.5 252.5 326.5C269 321.5 268.5 304.5 262 298.5C255.5 292.5 245 298.392 248 307C250.4 313.887 255 313.536 257 312.5M140.68 310.5C137.227 305.596 135.5 299.789 135.5 294.5C135.5 285.5 142 273.5 156.5 276C163.522 277.211 166.551 280.297 167.808 283.5M140.68 310.5C143.103 313.941 146.376 316.938 150.5 319C154.516 320.004 158.98 321.008 163.892 319.613M140.68 310.5C135.953 307.667 123.609 306.128 121 317C118 329.5 127.5 333.5 136.5 332C145.5 330.5 143 321.5 135.5 321M176 301.5C166.354 303.828 162.779 312.258 163.892 319.613M181.5 316.5C189.459 314.165 197.608 321.05 191.502 328.004C186.053 334.211 175.222 334.073 168.961 328.987C166.201 326.745 164.452 323.315 163.892 319.613M204 189.5C199.833 204.333 192 238 194 254M228.5 133.5C226.167 130.167 221.1 122.3 219.5 117.5M186 136.5C185.5 141.833 182.3 158.3 173.5 181.5M209.5 108C209.5 113.5 210.3 122.4 213.5 130" stroke="#806959" stroke-width="5" stroke-linecap="round" stroke-linejoin="round"/>
<path d="M954 234C952.8 250 960.833 286 965.5 303.5H911H852C861.072 291.577 868 277 874 259C882 246 885.959 232.706 887.5 225C891.5 205 899.5 183 899.5 176.5C901.333 177.333 908.5 176.5 913 174C920.5 176.5 924.15 178.5 925.75 180.5C925.75 183.667 924.35 192.8 925.75 196H929.5C932.3 202.8 935.333 222.433 938.5 231.399C940.735 231.854 942.661 232.657 943.5 234C945.5 237.2 951.333 235.333 954 234Z" fill="#DEC9B6"/>
<path d="M965.5 303.5C960.833 286 952.8 250 954 234C951.333 235.333 945.5 237.2 943.5 234M943.5 234C942.661 232.657 940.735 231.854 938.5 231.399M943.5 234C943.167 241 943.1 256.5 945.5 262.5M911 303.5C918 294 920 266 922 262.5C923.6 259.7 927.667 240.333 929.5 231C931.725 230.807 935.409 230.77 938.5 231.399M938.5 231.399C935.333 222.433 932.3 202.8 929.5 196H925.75M917.5 219C919.5 210 922.167 201.5 922 196H925.75M925.75 196C924.35 192.8 925.75 183.667 925.75 180.5C924.15 178.5 920.5 176.5 913 174C908.5 176.5 901.333 177.333 899.5 176.5C899.5 183 891.5 205 887.5 225C885.959 232.706 877.5 244 869.5 257C863.5 275 850.072 291.577 841 303.5M901.5 213C899.833 221.833 897.5 238 887.5 254.5" stroke="#806959" stroke-width="5" stroke-linecap="round" stroke-linejoin="round"/>
<path d="M715.088 344.635L710.802 379M715.088 344.635L706.185 341.557M715.088 344.635L722.343 342.306M710.802 379L702.989 375.33M710.802 379L718.386 374.737M749.381 333.624L746.414 358.981L741.467 361.762M749.381 333.624L695.963 317.61M749.381 333.624L747.073 300.594M749.381 333.624C758.728 330.204 766.528 306.266 758.944 296.924C758.271 296.47 757.611 296.14 756.965 295.917M749.381 333.624L744.765 335.107M662 326.284L664.638 357.313L670.573 360.101M662 326.284L695.963 317.61M662 326.284L668.925 328.678M695.963 317.61C695.963 317.61 691.398 297.656 688.05 286.581M695.963 317.61C700.25 315.274 707.359 305.72 706.185 298.592C704.866 290.584 700.58 289.569 695.963 288.469M747.073 300.594C749.352 297.423 752.862 294.501 756.965 295.917M747.073 300.594C747.073 300.594 718.899 293.933 695.963 288.469M688.05 286.581C694.974 284.245 699.261 283.578 706.185 284.245L756.965 295.917M688.05 286.581C690.576 287.184 693.232 287.818 695.963 288.469M668.925 328.678L670.573 360.101M668.925 328.678L682 333.197M670.573 360.101L702.989 375.33M706.185 341.557L702.989 375.33M706.185 341.557L690.5 336.136M722.343 342.306L718.386 374.737M722.343 342.306L744.765 335.107M718.386 374.737L741.467 361.762M744.765 335.107L741.467 361.762M682 333.197V343L690 346.5L690.5 336.136M682 333.197L690.5 336.136M674.2 326.284L715.088 340.297L739.489 333.624L695.963 320.612L674.2 326.284Z" stroke="#806959" stroke-width="5" stroke-linecap="round" stroke-linejoin="round"/>
<path d="M704.796 323.28C704.981 324.543 703.368 325.822 701.195 326.137C699.021 326.452 697.11 325.684 696.925 324.421C696.741 323.159 698.353 321.88 700.527 321.565C702.7 321.25 704.611 322.018 704.796 323.28Z" fill="#DEC9B6"/>
<path d="M721.734 329.198C721.389 330.418 719.395 330.925 717.282 330.332C715.168 329.738 713.734 328.268 714.079 327.049C714.424 325.829 716.418 325.322 718.532 325.916C720.646 326.509 722.08 327.979 721.734 329.198Z" fill="#DEC9B6"/>
<path d="M696.697 330.089C696.7 330.809 696.126 331.455 695.227 331.879C694.545 332.2 693.676 332.394 692.729 332.398C690.533 332.406 688.748 331.386 688.744 330.119C688.743 329.928 688.782 329.743 688.857 329.566C688.872 329.531 688.889 329.496 688.907 329.461C689.393 328.513 690.911 327.817 692.712 327.81C694.908 327.801 696.692 328.822 696.697 330.089Z" fill="#DEC9B6"/>
<path d="M711.792 331.179C711.447 332.398 709.453 332.905 707.34 332.312C705.226 331.718 703.792 330.248 704.137 329.029C704.483 327.81 706.476 327.302 708.59 327.896C710.704 328.489 712.138 329.959 711.792 331.179Z" fill="#DEC9B6"/>
<path d="M690.919 323.851C690.919 325.127 689.138 326.161 686.942 326.161C684.746 326.161 682.965 325.127 682.965 323.851C682.965 322.575 684.746 321.541 686.942 321.541C689.138 321.541 690.919 322.575 690.919 323.851Z" fill="#DEC9B6"/>
<path fill-rule="evenodd" clip-rule="evenodd" d="M679.787 322.531C677.663 322.861 677 323.851 677 324.841C677 325.831 677.928 327.745 681.64 327.481C681.841 328.581 682.971 329.99 685.752 330.451C686.643 330.451 688.447 330.271 688.857 329.566C688.872 329.531 688.889 329.496 688.907 329.461C689.393 328.513 690.911 327.817 692.712 327.81C694.908 327.801 696.692 328.822 696.697 330.089C696.7 330.809 696.126 331.455 695.227 331.879C695.669 333.163 697.679 335.599 702.186 335.071C703.167 336.048 705.644 337.631 708.413 337.052C709.682 339.428 712.523 339.142 713.785 338.702C716.171 339.23 716.868 337.933 716.918 337.219C718.338 338.099 720.241 338.68 721.734 337.382C723.614 337.602 727.439 337.514 727.704 335.401C729.582 335.489 732.012 335.731 732.675 333.751C732.675 333.751 731.746 331.9 729.693 331.338C729.294 331.228 728.852 331.168 728.367 331.179C728.698 329.791 727.853 328.352 727.853 328.352C727.898 327.116 726.926 325.61 725.384 325.171C724.017 324.782 722.765 324.737 721.899 325.171C722.177 324.511 722.137 323.059 719.75 322.531C717.009 321.924 715.108 322.433 714.304 323.287C714.916 321.48 714.686 320.279 712.791 319.231C710.405 317.91 708.041 319.207 707.157 320.021C706.594 319.694 705.841 319.412 704.838 319.231C701.921 318.703 700.75 320.111 700.529 320.881C699.734 319.825 697.637 319.781 696.688 319.891V321.211C695.487 320.759 694.371 320.613 693.424 320.629C692.157 320.65 691.192 320.959 690.723 321.211L690.379 320.221C688.622 319.693 688.018 320.661 687.936 321.211C687.936 320.155 686.48 319.671 685.752 319.561C680.98 319.297 679.787 321.431 679.787 322.531ZM701.195 326.137C703.368 325.822 704.981 324.543 704.796 323.28C704.611 322.018 702.7 321.25 700.527 321.565C698.353 321.88 696.741 323.159 696.925 324.421C697.11 325.684 699.021 326.452 701.195 326.137ZM717.282 330.332C719.395 330.925 721.389 330.418 721.734 329.198C722.08 327.979 720.646 326.509 718.532 325.916C716.418 325.322 714.424 325.829 714.079 327.049C713.734 328.268 715.168 329.738 717.282 330.332ZM707.34 332.312C709.453 332.905 711.447 332.398 711.792 331.179C712.138 329.959 710.704 328.489 708.59 327.896C706.476 327.302 704.483 327.81 704.137 329.029C703.792 330.248 705.226 331.718 707.34 332.312ZM686.942 326.161C689.138 326.161 690.919 325.127 690.919 323.851C690.919 322.575 689.138 321.541 686.942 321.541C684.746 321.541 682.965 322.575 682.965 323.851C682.965 325.127 684.746 326.161 686.942 326.161Z" fill="#DEC9B6"/>
<path d="M696.688 312.63L692.049 314.427L693.424 320.629C694.371 320.613 695.487 320.759 696.688 321.211V319.891V312.63Z" fill="#DEC9B6"/>
<path d="M692.049 314.427L687.741 312.63L690.379 320.221L690.723 321.211C691.192 320.959 692.157 320.65 693.424 320.629L692.049 314.427Z" fill="#DEC9B6"/>
<path d="M696.688 312.63L690.723 309L692.049 314.427L696.688 312.63Z" fill="#DEC9B6"/>
<path d="M690.723 309L687.741 312.63L692.049 314.427L690.723 309Z" fill="#DEC9B6"/>
<path d="M737.646 322.201L732.344 324.511L729.693 331.338C731.746 331.9 732.675 333.751 732.675 333.751L732.959 333.091L734.147 330.332L737.646 322.201Z" fill="#DEC9B6"/>
<path d="M731.681 321.565L727.853 328.352C727.853 328.352 728.698 329.791 728.367 331.179C728.852 331.168 729.294 331.228 729.693 331.338L732.344 324.511L731.681 321.565Z" fill="#DEC9B6"/>
<path d="M737.646 322.201L731.681 321.565L732.344 324.511L737.646 322.201Z" fill="#DEC9B6"/>
<path d="M737.978 332.101C737.712 330.517 735.313 330.261 734.147 330.332L732.959 333.091C734.9 333.751 738.309 334.081 737.978 332.101Z" fill="#DEC9B6"/>
<path d="M687.741 312.63L690.723 309M687.741 312.63L692.049 314.427M687.741 312.63L690.379 320.221M690.723 309L696.688 312.63M690.723 309L692.049 314.427M696.688 312.63L692.049 314.427M696.688 312.63V319.891M692.049 314.427L693.424 320.629M690.379 320.221L690.723 321.211C691.192 320.959 692.157 320.65 693.424 320.629M690.379 320.221C688.622 319.693 688.018 320.661 687.936 321.211C687.936 320.155 686.48 319.671 685.752 319.561C680.98 319.297 679.787 321.431 679.787 322.531C677.663 322.861 677 323.851 677 324.841C677 325.831 677.928 327.745 681.64 327.481M696.688 319.891V321.211C695.487 320.759 694.371 320.613 693.424 320.629M696.688 319.891C697.637 319.781 699.734 319.825 700.529 320.881C700.75 320.111 701.921 318.703 704.838 319.231C705.841 319.412 706.594 319.694 707.157 320.021M707.157 320.021C708.64 320.881 708.814 322.052 708.814 322.531M707.157 320.021C708.041 319.207 710.405 317.91 712.791 319.231C714.686 320.279 714.916 321.48 714.304 323.287C715.108 322.433 717.009 321.924 719.75 322.531C722.137 323.059 722.177 324.511 721.899 325.171M721.899 325.171C722.765 324.737 724.017 324.782 725.384 325.171C726.926 325.61 727.898 327.116 727.853 328.352M721.899 325.171C721.296 325.473 720.881 326.008 720.745 326.821M681.64 327.481C681.841 328.581 682.971 329.99 685.752 330.451C686.643 330.451 688.447 330.271 688.857 329.566M681.64 327.481C681.529 326.821 681.772 325.435 683.628 325.171M688.907 329.461C689.393 328.513 690.911 327.817 692.712 327.81C694.908 327.801 696.692 328.822 696.697 330.089C696.7 330.809 696.126 331.455 695.227 331.879M688.907 329.461C688.889 329.496 688.872 329.531 688.857 329.566M688.907 329.461C688.894 329.497 688.877 329.532 688.857 329.566M695.227 331.879C694.545 332.2 693.676 332.394 692.729 332.398C690.533 332.406 688.748 331.386 688.744 330.119C688.743 329.928 688.782 329.743 688.857 329.566M695.227 331.879C695.669 333.163 697.679 335.599 702.186 335.071C703.167 336.048 705.644 337.631 708.413 337.052C709.682 339.428 712.523 339.142 713.785 338.702C716.171 339.23 716.868 337.933 716.918 337.219M715.442 336.062C715.803 336.421 716.317 336.847 716.918 337.219M732.675 333.751C732.012 335.731 729.582 335.489 727.704 335.401C727.439 337.514 723.614 337.602 721.734 337.382C720.241 338.68 718.338 338.099 716.918 337.219M732.675 333.751C732.675 333.751 731.746 331.9 729.693 331.338M732.675 333.751L732.959 333.091M731.681 321.565L737.646 322.201M731.681 321.565L727.853 328.352M731.681 321.565L732.344 324.511M737.646 322.201L732.344 324.511M737.646 322.201L734.147 330.332M727.853 328.352C727.853 328.352 728.698 329.791 728.367 331.179C728.852 331.168 729.294 331.228 729.693 331.338M732.344 324.511L729.693 331.338M734.147 330.332C735.313 330.261 737.712 330.517 737.978 332.101C738.309 334.081 734.9 333.751 732.959 333.091M734.147 330.332L732.959 333.091M704.796 323.28C704.981 324.543 703.368 325.822 701.195 326.137C699.021 326.452 697.11 325.684 696.925 324.421C696.741 323.159 698.353 321.88 700.527 321.565C702.7 321.25 704.611 322.018 704.796 323.28ZM721.734 329.198C721.389 330.418 719.395 330.925 717.282 330.332C715.168 329.738 713.734 328.268 714.079 327.049C714.424 325.829 716.418 325.322 718.532 325.916C720.646 326.509 722.08 327.979 721.734 329.198ZM711.792 331.179C711.447 332.398 709.453 332.905 707.34 332.312C705.226 331.718 703.792 330.248 704.137 329.029C704.483 327.81 706.476 327.302 708.59 327.896C710.704 328.489 712.138 329.959 711.792 331.179ZM690.919 323.851C690.919 325.127 689.138 326.161 686.942 326.161C684.746 326.161 682.965 325.127 682.965 323.851C682.965 322.575 684.746 321.541 686.942 321.541C689.138 321.541 690.919 322.575 690.919 323.851Z" stroke="#806959" stroke-width="3" stroke-linecap="round" stroke-linejoin="round"/>
<path d="M727.885 378.205C728.153 379.454 726.624 380.841 724.469 381.304C722.314 381.767 720.35 381.13 720.082 379.882C719.813 378.634 721.343 377.247 723.498 376.784C725.653 376.321 727.617 376.957 727.885 378.205Z" fill="#DEC9B6" stroke="#806959" stroke-width="3" stroke-linecap="round" stroke-linejoin="round"/>
<path d="M757.5 375.169C757.768 376.418 756.239 377.805 754.084 378.268C751.929 378.731 749.965 378.095 749.696 376.846C749.428 375.598 750.958 374.211 753.112 373.748C755.267 373.285 757.232 373.921 757.5 375.169Z" fill="#DEC9B6" stroke="#806959" stroke-width="3" stroke-linecap="round" stroke-linejoin="round"/>
<path d="M697.233 381.725C697.05 382.989 695.133 383.757 692.952 383.441C690.771 383.125 689.151 381.845 689.334 380.581C689.517 379.318 691.433 378.549 693.614 378.865C695.796 379.181 697.416 380.461 697.233 381.725Z" fill="#DEC9B6" stroke="#806959" stroke-width="3" stroke-linecap="round" stroke-linejoin="round"/>
<path d="M673.479 377.369C673.566 378.643 671.853 379.796 669.654 379.945C667.455 380.094 665.602 379.182 665.516 377.908C665.43 376.634 667.143 375.481 669.342 375.332C671.541 375.183 673.393 376.095 673.479 377.369Z" fill="#DEC9B6" stroke="#806959" stroke-width="3" stroke-linecap="round" stroke-linejoin="round"/>
<path d="M728.167 343.36C728.167 344.13 727.887 344.816 727.433 345.346C727.814 345.791 728.072 346.346 728.145 346.967C728.416 346.46 728.825 346.041 729.317 345.749C728.622 345.19 728.167 344.343 728.167 343.36ZM728.167 343.36C728.167 342.807 728.023 342.297 727.773 341.856C727.991 341.947 728.221 342.013 728.458 342.054C728.272 342.447 728.167 342.888 728.167 343.36ZM719.333 339.9C719.333 341.442 720.455 342.651 721.862 342.936C721.843 343.074 721.833 343.216 721.833 343.36C721.833 344.13 722.113 344.816 722.568 345.346C722.113 345.877 721.833 346.563 721.833 347.333C721.833 348.864 722.939 350.067 724.332 350.363C724.225 350.673 724.167 351.008 724.167 351.36C724.167 353.129 725.643 354.46 727.333 354.46C728.99 354.46 730.44 353.183 730.498 351.467C730.649 351.489 730.802 351.5 730.957 351.5C732.647 351.5 734.123 350.169 734.123 348.4C734.123 347.417 733.668 346.57 732.973 346.011C733.875 345.476 734.5 344.511 734.5 343.36C734.5 341.783 733.327 340.554 731.875 340.306C732.062 339.913 732.167 339.472 732.167 339C732.167 337.231 730.691 335.9 729 335.9C728.944 335.9 728.888 335.901 728.832 335.904C728.78 334.183 727.327 332.9 725.667 332.9C723.976 332.9 722.5 334.231 722.5 336C722.5 336.279 722.537 336.548 722.606 336.802C722.571 336.801 722.535 336.8 722.5 336.8C720.81 336.8 719.333 338.131 719.333 339.9ZM726.228 340.504C726.039 340.426 725.841 340.365 725.638 340.324C725.657 340.186 725.667 340.044 725.667 339.9C725.667 339.621 725.63 339.352 725.561 339.098C725.596 339.099 725.632 339.1 725.667 339.1C725.723 339.1 725.779 339.098 725.835 339.096C725.851 339.612 725.992 340.089 726.228 340.504Z" fill="#DEC9B6" stroke="#806959" stroke-width="3" stroke-linecap="round" stroke-linejoin="round"/>
<path d="M772.009 344.612C774.667 346.903 776.74 348.722 776.907 348.576C782.189 343.951 795.064 328.757 785.16 317.939M772.009 344.612C777.237 336.024 781.223 329.088 785.16 317.939M772.009 344.612C770.576 343.377 768.957 341.961 767.333 340.532M785.16 317.939C784.249 316.606 782.964 315.454 781.223 314.554M781.223 314.554C781.002 314.44 779.454 313.339 779.218 313.233C778.778 311.361 778.563 308.519 782.849 310.921C799.355 320.17 791.102 340.979 777.237 354.191L767.333 345.363M781.223 314.554C779.218 320.83 773.606 331.4 767.333 340.532M767.333 340.532C764.805 338.305 762.265 336.044 760.4 334.373L759.08 338.006L764.268 342.63M764.268 342.63C760.118 349.236 748.054 364.959 733 375C735.041 374.443 739.226 373.698 741.913 374.429M764.268 342.63L767.333 345.363M770.304 348.576C766.977 355.011 756.153 368.433 751.157 374.339C749.836 373.811 745.985 374.78 743.234 375C742.861 374.751 742.413 374.564 741.913 374.429M767.333 345.363C767.553 346.677 767.135 350.033 763.702 351.618C759.41 353.6 758.42 356.388 758.42 357.709C758.42 359.031 758.42 361.673 754.458 362.334C750.497 362.994 749.506 366.812 749.836 368.464C750.167 370.115 749.506 373.127 741.913 374.429" stroke="#806959" stroke-width="3" stroke-linecap="round" stroke-linejoin="round"/>
<path d="M656.189 348.403C655.98 348.432 655.747 348.477 655.5 348.537C654.539 348.774 653.369 349.261 652.638 350.083C652.102 350.686 651.802 351.47 651.992 352.468C651.024 352.016 648.699 351.384 647.15 352.468C645.213 353.823 646.181 355.855 646.827 356.871C645.966 357.323 644.438 358.632 645.213 360.258C646.181 362.29 648.118 362.629 650.055 362.29C650.27 363.081 651.088 364.729 652.638 365C652.592 366.5 653.5 369.5 657.5 369.5C658 370.333 659.7 371.8 662.5 371C663.833 372 666.9 373.5 668.5 371.5C671.5 372.333 677.7 373.4 678.5 371C680 370.5 682.7 369.1 681.5 367.5C682.167 366.833 682.8 365.1 680 363.5C680.333 362.5 680 360.2 676 359C675.833 357.667 674.7 355 671.5 355C671.623 354.379 671.402 353.299 670 352.774C670.8 350.992 668 349.849 666.5 349.5C666.1 347.15 663.667 347.187 662.5 347.5C662.1 345.5 659.222 345.667 657.833 346C657.082 346.638 656.466 347.434 656.189 348.403Z" fill="#DEC9B6"/>
<path d="M662 344C661.125 344.184 659.719 344.666 658.492 345.5M661 352.468C664.2 351.642 665.333 353.145 665.5 354C665.5 351.891 668.653 352.268 670 352.774M657.833 346C657.082 346.638 656.466 347.434 656.189 348.403C655.98 348.432 655.747 348.477 655.5 348.537M657.833 346C659.222 345.667 662.1 345.5 662.5 347.5C663.667 347.187 666.1 347.15 666.5 349.5C668 349.849 670.8 350.992 670 352.774M657.833 346C658.043 345.821 658.264 345.654 658.492 345.5M670 352.774C671.402 353.299 671.623 354.379 671.5 355C674.7 355 675.833 357.667 676 359C680 360.2 680.333 362.5 680 363.5C682.8 365.1 682.167 366.833 681.5 367.5C682.7 369.1 680 370.5 678.5 371C677.7 373.4 671.5 372.333 668.5 371.5C666.9 373.5 663.833 372 662.5 371C659.7 371.8 658 370.333 657.5 369.5C653.5 369.5 652.592 366.5 652.638 365C651.088 364.729 650.27 363.081 650.055 362.29C648.118 362.629 646.181 362.29 645.213 360.258C644.438 358.632 645.966 357.323 646.827 356.871C646.181 355.855 645.213 353.823 647.15 352.468C648.699 351.384 651.024 352.016 651.992 352.468C651.802 351.47 652.102 350.686 652.638 350.083M652.638 350.083L649 345.5L650.055 335.5M652.638 350.083C653.369 349.261 654.539 348.774 655.5 348.537M650.055 335.5L657.5 341L658.492 345.5M650.055 335.5L655.5 348.537" stroke="#806959" stroke-width="3" stroke-linecap="round" stroke-linejoin="round"/>
<path d="M659.448 357.407C659.49 358.683 657.738 359.776 655.535 359.848C653.332 359.921 651.513 358.945 651.471 357.669C651.429 356.393 653.181 355.3 655.383 355.227C657.586 355.155 659.406 356.131 659.448 357.407Z" fill="#DEC9B6" stroke="#806959" stroke-width="3" stroke-linecap="round" stroke-linejoin="round"/>
<path d="M669.858 365.852C669.303 367.001 667.243 367.156 665.259 366.197C663.274 365.239 662.116 363.529 662.671 362.38C663.226 361.23 665.285 361.075 667.27 362.034C669.255 362.993 670.413 364.702 669.858 365.852Z" fill="#DEC9B6" stroke="#806959" stroke-width="3" stroke-linecap="round" stroke-linejoin="round"/>
<path d="M705.078 385.522C703.182 385.15 702.505 380.455 703.567 375.035C704.629 369.616 707.028 365.523 708.925 365.895C710.822 366.267 711.499 370.962 710.436 376.382C709.374 381.801 706.975 385.894 705.078 385.522Z" fill="#DEC9B6"/>
<path d="M705.078 385.522C703.182 385.15 702.505 380.455 703.567 375.035C704.629 369.616 707.028 365.523 708.925 365.895C707.526 365.319 704.87 364.747 701.928 365.201C700.47 365.709 697.655 367.763 698.064 371.919C698.12 372.492 698.195 372.979 698.285 373.39C698.845 375.958 699.966 375.571 700.527 374.949C699.783 377.011 697.707 381.02 695.351 380.558C692.996 380.097 696.326 375.587 698.285 373.39C698.195 372.979 698.12 372.492 698.064 371.919C697.655 367.763 700.47 365.709 701.928 365.201C699.913 365.513 697.764 366.305 695.793 367.907C690.944 371.848 687.301 369.64 686.576 368.139C686.704 367.485 686.822 365.844 686.268 364.512C685.575 362.848 683.921 366.09 682.959 370.997C681.997 375.903 682.306 379.53 683.575 378.251C684.591 377.227 685.102 375.662 685.23 375.008C686.468 373.892 690.675 373.222 693.677 378.702C696.679 384.182 702.529 385.532 705.078 385.522Z" fill="#DEC9B6"/>
<path d="M695.351 380.558C697.707 381.02 699.783 377.011 700.527 374.949C699.966 375.571 698.845 375.958 698.285 373.39C696.326 375.587 692.996 380.097 695.351 380.558Z" fill="#DEC9B6"/>
<path d="M705.078 385.522C703.182 385.15 702.505 380.455 703.567 375.035C704.629 369.616 707.028 365.523 708.925 365.895M705.078 385.522C706.975 385.894 709.374 381.801 710.436 376.382C711.499 370.962 710.822 366.267 708.925 365.895M705.078 385.522C702.529 385.532 696.679 384.182 693.677 378.702C690.675 373.222 686.468 373.892 685.23 375.008C685.102 375.662 684.591 377.227 683.575 378.251C682.306 379.53 681.997 375.903 682.959 370.997C683.921 366.09 685.575 362.848 686.268 364.512C686.822 365.844 686.704 367.485 686.576 368.139C687.301 369.64 690.944 371.848 695.793 367.907C697.764 366.305 699.913 365.513 701.928 365.201M708.925 365.895C707.526 365.319 704.87 364.747 701.928 365.201M701.928 365.201C700.47 365.709 697.655 367.763 698.064 371.919C698.12 372.492 698.195 372.979 698.285 373.39M698.285 373.39C698.845 375.958 699.966 375.571 700.527 374.949C699.783 377.011 697.707 381.02 695.351 380.558C692.996 380.097 696.326 375.587 698.285 373.39Z" stroke="#806959" stroke-width="3" stroke-linecap="round" stroke-linejoin="round"/>
<path d="M402.482 66.0587C402.576 65.1529 403.733 64.834 404.278 65.5639L407.218 69.5037C407.464 69.8338 407.888 69.9791 408.285 69.8696L413.429 68.4525C414.405 68.1836 415.117 69.3691 414.42 70.1042L411.222 73.4814C410.887 73.8347 410.855 74.3773 411.146 74.7672L413.762 78.2721C414.334 79.0377 413.609 80.092 412.689 79.8327L407.366 78.3314C407.008 78.2305 406.624 78.3363 406.368 78.6062L402.564 82.6223C401.908 83.3159 400.745 82.7816 400.844 81.8314L401.295 77.4813C401.346 76.9974 401.04 76.5476 400.572 76.4155L396.095 75.153C395.121 74.8782 395.125 73.4954 396.101 73.2265L401.245 71.8094C401.642 71.6999 401.931 71.3582 401.974 70.9486L402.482 66.0587Z" fill="#DEC9B6" stroke="#806959" stroke-width="3" stroke-linecap="round" stroke-linejoin="round"/>
<path d="M699.821 558.241C700.207 557.638 701.083 557.625 701.488 558.215L703.902 561.739C704.059 561.968 704.304 562.121 704.579 562.162L710.464 563.045C711.477 563.197 711.633 564.595 710.678 564.966L706.187 566.712C705.719 566.895 705.458 567.396 705.579 567.884L706.64 572.178C706.869 573.103 705.797 573.793 705.049 573.202L700.369 569.504C700.091 569.284 699.717 569.228 699.387 569.357L693.827 571.519C692.939 571.864 692.117 570.89 692.607 570.072L694.694 566.592C695.023 566.044 694.76 565.333 694.155 565.13L690.612 563.94C689.599 563.6 689.753 562.123 690.814 561.999L697.476 561.222C697.774 561.188 698.041 561.021 698.203 560.768L699.821 558.241Z" fill="#DEC9B6" stroke="#806959" stroke-width="3" stroke-linecap="round" stroke-linejoin="round"/>
<path d="M49.4544 501.369C49.627 500.674 50.4526 500.38 51.0252 500.81L53.2035 502.445C53.4255 502.611 53.7068 502.678 53.9801 502.629L57.3502 502.026C58.3593 501.845 58.9544 503.119 58.1684 503.777L56.28 505.358C55.8945 505.681 55.8085 506.239 56.0791 506.663L57.3576 508.664C57.8705 509.467 57.0764 510.465 56.179 510.145L52.7791 508.932C52.4451 508.813 52.0731 508.88 51.8012 509.107L49.0334 511.424C48.3028 512.036 47.2119 511.376 47.4143 510.445L47.8414 508.48C47.977 507.856 47.5007 507.267 46.862 507.268L45.4785 507.271C44.4104 507.273 44.083 505.824 45.0484 505.367L48.4877 503.739C48.7588 503.611 48.958 503.367 49.0303 503.076L49.4544 501.369Z" fill="#DEC9B6" stroke="#806959" stroke-width="3" stroke-linecap="round" stroke-linejoin="round"/>
<path d="M935.423 398.491C934.385 400.805 931.667 401.84 929.352 400.801C927.038 399.763 926.804 397.505 927.842 395.191C928.88 392.876 931.598 391.842 933.913 392.88C936.227 393.918 936.461 396.176 935.423 398.491Z" fill="#DEC9B6" stroke="#806959" stroke-width="3" stroke-linecap="round" stroke-linejoin="round"/>
<path d="M936.5 397C920 413.5 921 431 921 453C921.5 453 922.9 453.1 924.5 453.5C926.1 453.9 930.909 453.333 933.113 453C930.5 421 929 418.5 942 399C947 399.333 956.6 402.7 955 413.5C957.5 409.167 960.2 399.5 951 395.5C954.167 394.5 961.6 395.1 966 405.5C965.667 399.167 962 386.8 950 388C950.833 386.167 953.2 383.4 956 387C956.833 384.833 957 380.5 951 380.5C943.5 380.5 941.5 382.5 940 386C940.333 383.642 939 379.583 931 382.213C921.711 379.549 915.325 386.714 913 391.5C923.8 383.9 931.5 387 934 389.5C919.6 387.5 915.667 400.333 915.5 407C920.7 399 931.333 397.333 936.5 397Z" fill="#DEC9B6"/>
<path d="M937.5 385.5C935.203 383.849 933.032 382.796 931 382.213M931 382.213C921.711 379.549 915.325 386.714 913 391.5C923.8 383.9 931.5 387 934 389.5C919.6 387.5 915.667 400.333 915.5 407C920.7 399 931.333 397.333 936.5 397C920 413.5 921 431 921 453C921.5 453 922.9 453.1 924.5 453.5C926.1 453.9 930.909 453.333 933.113 453C930.5 421 929 418.5 942 399C947 399.333 956.6 402.7 955 413.5C957.5 409.167 960.2 399.5 951 395.5C954.167 394.5 961.6 395.1 966 405.5C965.667 399.167 962 386.8 950 388C950.833 386.167 953.2 383.4 956 387C956.833 384.833 957 380.5 951 380.5C943.5 380.5 941.5 382.5 940 386C940.333 383.642 939 379.583 931 382.213Z" stroke="#806959" stroke-width="3" stroke-linecap="round" stroke-linejoin="round"/>
<path d="M946.773 398.537C947.611 401.169 946.157 403.981 943.525 404.819C940.894 405.656 939.065 403.994 938.227 401.363C937.39 398.732 938.844 395.92 941.475 395.082C944.106 394.244 945.935 395.906 946.773 398.537Z" fill="#DEC9B6" stroke="#806959" stroke-width="3" stroke-linecap="round" stroke-linejoin="round"/>
<path d="M794.288 42.9486C794.492 46.3009 791.94 49.184 788.588 49.388C785.235 49.5921 783.574 47.0875 783.369 43.7351C783.165 40.3828 785.718 37.4998 789.07 37.2957C792.422 37.0916 794.084 39.5963 794.288 42.9486Z" fill="#DEC9B6" stroke="#806959" stroke-width="3" stroke-linecap="round" stroke-linejoin="round"/>
<path d="M797.698 41.3955C774.038 67.7909 775.472 95.7861 775.472 130.98C776.189 130.98 778.196 131.14 780.491 131.78C782.785 132.42 789.68 131.513 792.841 130.98C789.094 79.7888 786.943 75.7895 805.585 44.5949C812.755 45.1281 826.521 50.5139 824.226 67.7909C827.811 60.8588 831.683 45.3948 818.491 38.9959C823.031 37.3961 833.691 38.356 840 54.9931C839.522 44.8615 834.264 25.0783 817.057 26.9979C818.252 24.0651 821.645 19.6392 825.66 25.3982C826.855 21.9321 827.094 15 818.491 15C807.736 15 804.868 18.1995 802.717 23.7985C803.195 20.0261 801.283 13.5332 789.811 17.7401C776.492 13.4781 767.334 24.9402 764 32.597C779.487 20.4391 790.528 25.3982 794.113 29.3975C773.464 26.1981 767.824 46.7279 767.585 57.3927C775.042 44.5949 790.289 41.9287 797.698 41.3955Z" fill="#DEC9B6"/>
<path d="M799.132 22.9988C795.838 20.3572 792.725 18.6724 789.811 17.7401M789.811 17.7401C776.492 13.4781 767.334 24.9402 764 32.597C779.487 20.4391 790.528 25.3982 794.113 29.3975C773.464 26.1981 767.824 46.7279 767.585 57.3927C775.042 44.5949 790.289 41.9287 797.698 41.3955C774.038 67.7909 775.472 95.7861 775.472 130.98C776.189 130.98 778.196 131.14 780.491 131.78C782.785 132.42 789.68 131.513 792.841 130.98C789.094 79.7888 786.943 75.7895 805.585 44.5949C812.755 45.1281 826.521 50.5139 824.226 67.7909C827.811 60.8588 831.683 45.3948 818.491 38.9959C823.031 37.3961 833.691 38.356 840 54.9931C839.522 44.8615 834.264 25.0783 817.057 26.9979C818.252 24.0651 821.645 19.6392 825.66 25.3982C826.855 21.9321 827.094 15 818.491 15C807.736 15 804.868 18.1995 802.717 23.7985C803.195 20.0261 801.283 13.5332 789.811 17.7401Z" stroke="#806959" stroke-width="3" stroke-linecap="round" stroke-linejoin="round"/>
<path d="M812.707 42.4563C815.017 44.81 814.981 48.5903 812.628 50.8999C810.274 53.2095 807.429 52.4227 805.12 50.069C802.81 47.7153 802.846 43.935 805.2 41.6254C807.553 39.3158 810.398 40.1026 812.707 42.4563Z" fill="#DEC9B6" stroke="#806959" stroke-width="3" stroke-linecap="round" stroke-linejoin="round"/>
<path d="M805.159 47.13C804.724 50.7906 801.404 53.4058 797.744 52.9711C794.083 52.5364 792.778 49.5065 793.212 45.8458C793.647 42.1852 796.967 39.5701 800.628 40.0048C804.288 40.4394 805.593 43.4694 805.159 47.13Z" fill="#DEC9B6" stroke="#806959" stroke-width="3" stroke-linecap="round" stroke-linejoin="round"/>
<path d="M53.1541 252.812C54.3682 254.985 57.1136 255.762 59.2862 254.547C61.4588 253.333 61.493 251.106 60.2789 248.934C59.0648 246.761 56.3194 245.984 54.1468 247.198C51.9743 248.412 51.9401 250.639 53.1541 252.812Z" fill="#DEC9B6" stroke="#806959" stroke-width="3" stroke-linecap="round" stroke-linejoin="round"/>
<path d="M53.9434 248.189C70.1321 264.377 69.1509 281.547 69.1509 303.132C68.6604 303.132 67.2868 303.23 65.717 303.623C64.1472 304.015 59.4293 303.459 57.2666 303.132C59.8302 271.736 61.3019 269.283 48.5472 250.151C43.6415 250.478 34.2226 253.781 35.7925 264.377C33.3396 260.126 30.6906 250.642 39.717 246.717C36.6101 245.736 29.317 246.325 25 256.528C25.327 250.314 28.9245 238.181 40.6981 239.358C39.8805 237.56 37.5585 234.845 34.8113 238.377C33.9937 236.252 33.8302 232 39.717 232C47.0755 232 49.0377 233.962 50.5094 237.396C50.1824 235.083 51.4906 231.1 59.3396 233.681C68.4529 231.067 74.7191 238.096 77 242.792C66.4038 235.336 58.8491 238.377 56.3962 240.83C70.5245 238.868 74.3836 251.459 74.5472 258C69.4453 250.151 59.0126 248.516 53.9434 248.189Z" fill="#DEC9B6"/>
<path d="M52.9623 236.906C55.2163 235.286 57.3461 234.252 59.3396 233.681M59.3396 233.681C68.4529 231.067 74.7191 238.096 77 242.792C66.4038 235.336 58.8491 238.377 56.3962 240.83C70.5245 238.868 74.3836 251.459 74.5472 258C69.4453 250.151 59.0126 248.516 53.9434 248.189C70.1321 264.377 69.1509 281.547 69.1509 303.132C68.6604 303.132 67.2868 303.23 65.717 303.623C64.1472 304.015 59.4293 303.459 57.2666 303.132C59.8302 271.736 61.3019 269.283 48.5472 250.151C43.6415 250.478 34.2226 253.781 35.7925 264.377C33.3396 260.126 30.6906 250.642 39.717 246.717C36.6101 245.736 29.317 246.325 25 256.528C25.327 250.314 28.9245 238.181 40.6981 239.358C39.8805 237.56 37.5585 234.845 34.8113 238.377C33.9937 236.252 33.8302 232 39.717 232C47.0755 232 49.0377 233.962 50.5094 237.396C50.1824 235.083 51.4906 231.1 59.3396 233.681Z" stroke="#806959" stroke-width="3" stroke-linecap="round" stroke-linejoin="round"/>
<path d="M43.8643 249.697C43.0424 252.278 44.4689 255.038 47.0506 255.859C49.6322 256.681 51.4267 255.051 52.2486 252.469C53.0705 249.887 51.644 247.128 49.0623 246.306C46.4807 245.484 44.6862 247.115 43.8643 249.697Z" fill="#DEC9B6" stroke="#806959" stroke-width="3" stroke-linecap="round" stroke-linejoin="round"/>
<path d="M43.3211 310.495C42.3153 314.437 44.6955 318.448 48.6374 319.453C52.5794 320.459 55.1263 317.858 56.1321 313.916C57.1379 309.974 54.7576 305.963 50.8157 304.957C46.8738 303.951 44.3268 306.553 43.3211 310.495Z" fill="#DEC9B6" stroke="#806959" stroke-width="3" stroke-linecap="round" stroke-linejoin="round"/>
<path d="M55.8113 304.962C84 325.5 80.6698 359.491 80.6698 394.774C79.8679 394.774 77.6226 394.934 75.0566 395.575C72.4906 396.217 64.7787 395.308 61.2435 394.774C71.5 344 75.0566 339.5 46.9906 308.17C38.9717 308.704 23.434 318.179 26 335.5C21.9906 328.55 17.8019 308.972 32.5566 302.557C27.478 300.953 17 301.962 10 318C10 301 17.7547 288.575 37 290.5C38.283 284.923 23.5881 285.532 17.5 286.519C20.7 281.387 28.8711 279.035 32.5566 278.5C44.5849 278.5 47.7925 281.708 50.1981 287.321C49.7901 284.434 49.9885 276.839 55.8113 276C54.7421 278.013 52.9245 282.934 54.2075 286.519C55.8113 282.5 59.7414 279.435 63 278.5C77.8967 274.227 87.2716 285.258 91 292.934C73.6792 280.745 63.8302 288.925 59.8208 292.934C77.5 289.5 89.7327 301.308 90 312C81.6604 299.17 64.0975 305.497 55.8113 304.962Z" fill="#DEC9B6" stroke="#806959" stroke-width="3" stroke-linecap="round" stroke-linejoin="round"/>
<path d="M51.6558 307.643C51.7436 312.071 55.4043 315.589 59.8321 315.501C64.2599 315.414 66.1779 311.945 66.0901 307.517C66.0023 303.089 62.3417 299.571 57.9139 299.659C53.486 299.747 51.568 303.215 51.6558 307.643Z" fill="#DEC9B6" stroke="#806959" stroke-width="3" stroke-linecap="round" stroke-linejoin="round"/>
<path d="M37.243 306.514C36.2803 310.467 38.7043 314.451 42.6569 315.414C46.6096 316.377 49.128 313.747 50.0906 309.794C51.0532 305.842 48.6293 301.857 44.6766 300.895C40.7239 299.932 38.2056 302.561 37.243 306.514Z" fill="#DEC9B6" stroke="#806959" stroke-width="3" stroke-linecap="round" stroke-linejoin="round"/>
<path d="M775 292L777.093 297.538L783 299.5L777.093 301.462L775 307L772.907 301.462L767 299.5L772.907 297.538L775 292Z" fill="#DEC9B6" stroke="#806959" stroke-width="3" stroke-linecap="round" stroke-linejoin="round"/>
<path d="M738 382L740.093 387.538L746 389.5L740.093 391.462L738 397L735.907 391.462L730 389.5L735.907 387.538L738 382Z" fill="#DEC9B6" stroke="#806959" stroke-width="3" stroke-linecap="round" stroke-linejoin="round"/>
<path d="M655.5 304L658.247 311.384L666 314L658.247 316.616L655.5 324L652.753 316.616L645 314L652.753 311.384L655.5 304Z" fill="#DEC9B6" stroke="#806959" stroke-width="3" stroke-linecap="round" stroke-linejoin="round"/>
</g>
<defs>
<clipPath id="clip0_123_182">
<rect width="1000" height="600" fill="white"/>
</clipPath>
</defs>
</svg>
