<svg width="1200" height="800" viewBox="0 0 1200 800" fill="none" xmlns="http://www.w3.org/2000/svg">
<path d="M1134.21 523.219C1134.29 523.136 1134.36 523.047 1134.43 522.953L1134.64 522.66C1138.22 517.653 1140.98 513.788 1142.42 510.587C1143.17 508.904 1143.65 507.225 1143.63 505.511C1143.61 503.752 1143.07 502.153 1142.1 500.648L1142.1 500.645C1141.75 500.108 1141.37 499.526 1140.95 498.903C1139.26 496.366 1137.11 493.134 1135.37 489.367C1133.22 484.696 1131.9 479.565 1132.95 474.507C1134.47 467.168 1132.7 461.756 1130.59 456.132C1130.41 455.666 1130.23 455.198 1130.05 454.726C1128.08 449.541 1125.93 443.88 1125.23 435.638C1125.08 433.87 1124.63 432.033 1124.23 430.418C1124.17 430.165 1124.1 429.917 1124.05 429.677C1123.58 427.775 1123.26 426.183 1123.31 424.756C1123.46 420.264 1125.38 413.376 1127.28 407.278C1127.71 405.919 1128.13 404.581 1128.53 403.34C1128.99 401.903 1129.41 400.597 1129.73 399.538C1130.03 398.543 1130.29 397.644 1130.43 396.959C1130.5 396.639 1130.58 396.226 1130.58 395.824C1130.59 395.641 1130.59 395.266 1130.46 394.843C1130.33 394.433 1129.9 393.473 1128.74 393.112C1127.91 392.855 1127.17 393.022 1126.74 393.17C1126.28 393.327 1125.88 393.561 1125.55 393.78C1124.89 394.221 1124.21 394.836 1123.56 395.51C1122.23 396.877 1120.69 398.801 1119.15 400.994C1116.1 405.362 1112.85 411.132 1111.25 416.278C1110.55 418.509 1110.85 420.732 1111.2 422.471C1112.12 427.103 1111.06 430.694 1109.84 434.815C1109.63 435.53 1109.41 436.26 1109.2 437.014C1108.5 439.504 1107.89 442.227 1107.98 445.259C1108.07 448.326 1108.87 451.576 1110.8 455.181C1112.69 458.724 1113.22 460.798 1113.3 462.772C1113.34 463.815 1113.26 464.906 1113.1 466.288C1113.04 466.745 1112.98 467.248 1112.91 467.791C1112.79 468.817 1112.64 469.986 1112.51 471.249C1112.38 472.551 1112.04 474.426 1111.66 476.518C1111.51 477.346 1111.35 478.208 1111.2 479.082C1110.94 480.569 1110.7 482.067 1110.56 483.37C1110.43 484.578 1110.34 485.941 1110.55 486.99C1110.99 489.186 1111.98 491.544 1113.04 493.757C1113.76 495.242 1114.57 496.784 1115.34 498.235C1115.71 498.941 1116.07 499.624 1116.4 500.27C1117.47 502.349 1118.26 504.038 1118.6 505.298C1118.72 505.725 1118.76 506.01 1118.77 506.181C1118.08 506.75 1117.46 507.535 1116.92 508.303C1116.28 509.23 1115.61 510.368 1114.93 511.638C1113.58 514.183 1112.13 517.402 1110.79 520.844C1108.15 527.653 1105.77 535.712 1105.5 541.381C1105.43 542.898 1104.75 545.034 1103.45 547.671C1102.18 550.255 1100.42 553.103 1098.43 555.983C1094.45 561.742 1089.66 567.446 1086.29 571.127C1085.82 571.64 1085.21 572.354 1084.79 573.275C1083.5 576.063 1082.66 580.773 1082.28 586.277C1081.89 591.878 1081.96 598.606 1082.68 605.617C1084.07 619.289 1087.96 634.544 1096.14 644.5H1093C1088.31 644.5 1084.5 648.306 1084.5 653V752C1084.5 756.142 1081.14 759.5 1077 759.5H833.5C830.186 759.5 827.5 756.814 827.5 753.5C827.5 747.425 822.575 742.5 816.5 742.5H713C708.858 742.5 705.5 739.142 705.5 735V719C705.5 712.096 699.904 706.5 693 706.5H344C337.096 706.5 331.5 712.096 331.5 719V735C331.5 739.142 328.142 742.5 324 742.5H233C226.096 742.5 220.5 748.096 220.5 755V790C220.5 794.142 217.142 797.5 213 797.5H136C131.858 797.5 128.5 794.142 128.5 790V703C128.5 696.096 122.904 690.5 116 690.5H101C96.8579 690.5 93.5 687.142 93.5 683V617C93.5 610.096 87.9036 604.5 81 604.5H10C5.85786 604.5 2.5 601.142 2.5 597V352C2.5 347.858 5.85786 344.5 10 344.5H46C52.9036 344.5 58.5 338.904 58.5 332V120C58.5 115.858 61.8579 112.5 66 112.5H116C122.904 112.5 128.5 106.904 128.5 100V60C128.5 55.8579 131.858 52.5 136 52.5H351C357.904 52.5 363.5 46.9036 363.5 40V10C363.5 5.85787 366.858 2.5 371 2.5H575C579.142 2.5 582.5 5.85786 582.5 10V38C582.5 44.9036 588.096 50.5 595 50.5H1064C1068.14 50.5 1071.5 53.8579 1071.5 58V91C1071.5 97.9036 1077.1 103.5 1084 103.5H1158C1162.14 103.5 1165.5 106.858 1165.5 111V176C1165.5 182.904 1171.1 188.5 1178 188.5H1190C1194.14 188.5 1197.5 191.858 1197.5 196V637C1197.5 641.142 1194.14 644.5 1190 644.5H1165C1164.72 644.5 1164.5 644.276 1164.5 644C1164.5 643.949 1164.5 643.899 1164.5 643.848C1163.59 628.999 1153.26 619.945 1142.6 611.078C1141.27 609.976 1139.33 608.953 1137.37 607.969C1136.89 607.727 1136.41 607.484 1135.91 607.237C1134.27 606.422 1132.54 605.561 1130.77 604.578C1126.15 602.002 1121.81 598.857 1119.46 594.526C1119.3 594.232 1119.17 593.889 1118.98 593.384L1118.9 593.165C1118.29 591.501 1117.3 588.802 1117.17 584.718C1117.03 580.439 1117.83 574.5 1121.28 566.648C1121.51 566.12 1121.84 565.578 1122.27 565.016C1128.65 556.521 1130.72 546.568 1131.76 538.478C1132.02 536.448 1132.22 534.515 1132.4 532.751C1132.58 530.972 1132.74 529.388 1132.93 527.99C1133.12 526.584 1133.33 525.464 1133.58 524.606C1133.85 523.714 1134.1 523.341 1134.21 523.219Z" fill="#DEC9B6" stroke="#806959" stroke-width="5" stroke-linecap="round" stroke-linejoin="round"/>
<path d="M1127.8 392.753C1129.98 390.774 1135.69 379.02 1134.89 371.75M1130.97 346.963C1122.64 361.308 1134.06 364.178 1134.89 371.75M1130.68 394.251C1130.55 390.619 1136 384.252 1136.1 378.978M1134.89 371.75C1135.81 374.386 1136.14 376.811 1136.1 378.978M1136.1 378.978C1137.96 375.27 1142.94 367.703 1147.93 367.097" stroke="#806959" stroke-width="5" stroke-linecap="round" stroke-linejoin="round"/>
<path d="M1085 573C1087.5 559.833 1088.4 531 1072 521M1143.5 507C1145.83 502.667 1152.2 493.5 1159 491.5" stroke="#806959" stroke-width="5" stroke-linecap="round" stroke-linejoin="round"/>
<path d="M43 431C80.3333 411.667 157.5 367.8 167.5 347M167.5 347C182.871 358.379 207.656 376.439 231.5 393.217M167.5 347C176 367.833 214.5 402 165 431M288.5 431C276.532 424.329 254.453 409.367 231.5 393.217M231.5 393.217C243.833 388.811 271.2 377.3 282 366.5M282 366.5C295.333 372.645 322.8 386.59 326 393.217M282 366.5C289.167 370.311 302 380.99 296 393.217" stroke="#806959" stroke-width="5" stroke-linecap="round" stroke-linejoin="round"/>
<path d="M1099.85 165.582C1103.46 165.582 1106.38 168.537 1106.38 172.183V206.51H1115.54V193.307C1115.54 190.391 1117.88 188.026 1120.77 188.026C1123.66 188.026 1126 190.391 1126 193.307V198.588V206.51V214.431V218.392H1106.38V258H1090.69V231.595H1075V202.549C1075 200.362 1076.76 198.588 1078.92 198.588H1080.23C1082.4 198.588 1084.15 200.362 1084.15 202.549V219.712H1090.69V172.183C1090.69 168.537 1093.62 165.582 1097.23 165.582M1099.85 165.582C1102.03 165.362 1105.08 166.242 1105.08 160.961M1099.85 165.582H1098.54M1097.23 165.582C1095.05 164.922 1092 165.186 1092 160.961M1097.23 165.582H1098.54M1098.54 165.582V157" stroke="#806959" stroke-width="3" stroke-linecap="round" stroke-linejoin="round"/>
<path d="M1136 293H1134.5C1134.5 293.828 1135.17 294.5 1136 294.5V293ZM1141 293V294.5C1141.83 294.5 1142.5 293.828 1142.5 293H1141ZM1148 302V303.5C1148.83 303.5 1149.5 302.828 1149.5 302H1148ZM1136 302V300.5C1135.17 300.5 1134.5 301.172 1134.5 302H1136ZM1136 320V321.5C1136.83 321.5 1137.5 320.828 1137.5 320H1136ZM1126 320H1124.5C1124.5 320.828 1125.17 321.5 1126 321.5V320ZM1131 264.5C1127.41 264.5 1124.5 267.41 1124.5 271H1127.5C1127.5 269.067 1129.07 267.5 1131 267.5V264.5ZM1137.5 271C1137.5 267.41 1134.59 264.5 1131 264.5V267.5C1132.93 267.5 1134.5 269.067 1134.5 271H1137.5ZM1137.5 293V271H1134.5V293H1137.5ZM1141 291.5H1136V294.5H1141V291.5ZM1142.5 293V284H1139.5V293H1142.5ZM1142.5 284C1142.5 283.172 1143.17 282.5 1144 282.5V279.5C1141.51 279.5 1139.5 281.515 1139.5 284H1142.5ZM1144 282.5H1145V279.5H1144V282.5ZM1145 282.5C1145.83 282.5 1146.5 283.172 1146.5 284H1149.5C1149.5 281.515 1147.49 279.5 1145 279.5V282.5ZM1146.5 284V293H1149.5V284H1146.5ZM1146.5 293V301H1149.5V293H1146.5ZM1149.5 302V301H1146.5V302H1149.5ZM1136 303.5H1148V300.5H1136V303.5ZM1137.5 320V302H1134.5V320H1137.5ZM1126 321.5H1136V318.5H1126V321.5ZM1124.5 271V320H1127.5V271H1124.5Z" fill="#806959"/>
<path d="M186 703.746H187.5C187.5 704.575 186.828 705.246 186 705.246V703.746ZM181 703.746V705.246C180.172 705.246 179.5 704.575 179.5 703.746H181ZM174 711.672V713.172C173.172 713.172 172.5 712.5 172.5 711.672H174ZM186 711.672V710.172C186.828 710.172 187.5 710.843 187.5 711.672H186ZM186 724V725.5C185.172 725.5 184.5 724.828 184.5 724H186ZM198 724H199.5C199.5 724.828 198.828 725.5 198 725.5V724ZM193 663.5C196.59 663.5 199.5 666.41 199.5 670H196.5C196.5 668.067 194.933 666.5 193 666.5V663.5ZM191 663.5H193V666.5H191V663.5ZM184.5 670C184.5 666.41 187.41 663.5 191 663.5V666.5C189.067 666.5 187.5 668.067 187.5 670H184.5ZM184.5 703.746V670H187.5V703.746H184.5ZM181 702.246H186V705.246H181V702.246ZM179.5 703.746V692.657H182.5V703.746H179.5ZM179.5 692.657C179.5 691.828 178.828 691.157 178 691.157V688.157C180.485 688.157 182.5 690.171 182.5 692.657H179.5ZM178 691.157H177V688.157H178V691.157ZM177 691.157C176.172 691.157 175.5 691.828 175.5 692.657H172.5C172.5 690.171 174.515 688.157 177 688.157V691.157ZM175.5 692.657V703.746H172.5V692.657H175.5ZM175.5 703.746V707.269H172.5V703.746H175.5ZM172.5 711.672V707.269H175.5V711.672H172.5ZM186 713.172H174V710.172H186V713.172ZM184.5 724V711.672H187.5V724H184.5ZM198 725.5H186V722.5H198V725.5ZM199.5 670V724H196.5V670H199.5Z" fill="#806959"/>
<path d="M253 17C253 13.6863 255.686 11 259 11H260H260.5H261C264.314 11 267 13.6863 267 17V58H272V49C272 47.3431 273.343 46 275 46H276C277.657 46 279 47.3431 279 49V67H267V81H253V54H239V31C239 28.7909 240.791 27 243 27C245.209 27 247 28.7909 247 31V45H253V17Z" fill="#DEC9B6"/>
<path d="M243 27C240.791 27 239 28.7909 239 31V54H253V81H267V67H279V49C279 47.3431 277.657 46 276 46H275C273.343 46 272 47.3431 272 49V58H267V17C267 13.6863 264.314 11 261 11H260.5M243 27C245.209 27 247 28.7909 247 31V45H253V17C253 13.6863 255.686 11 259 11H260M243 27C241.667 25.6667 239.2 22.5 240 20.5M243 27C243.167 26.8333 243.6 25.9 244 23.5M260 11C258.333 10.5 254.8 8.9 254 6.5M260 11C259.667 9.16667 259 4.8 259 2M260 11H260.5M260.5 11C261.333 10.5 263.1 8.9 263.5 6.5" stroke="#806959" stroke-width="3" stroke-linecap="round" stroke-linejoin="round"/>
<path fill-rule="evenodd" clip-rule="evenodd" d="M342 35C342 32.2386 344.239 30 347 30H348C350.761 30 353 32.2386 353 35V67H359V54C359 52.3431 360.343 51 362 51H363C364.657 51 366 52.3431 366 54V67V71V76H353V93H342V71H335H334H327V52C327 49.7909 328.791 48 331 48C333.209 48 335 49.7909 335 52V62H342V35Z" fill="#DEC9B6"/>
<path d="M353 67H351.5C351.5 67.8284 352.172 68.5 353 68.5V67ZM359 67V68.5C359.828 68.5 360.5 67.8284 360.5 67H359ZM366 76V77.5C366.828 77.5 367.5 76.8284 367.5 76H366ZM353 76V74.5C352.172 74.5 351.5 75.1716 351.5 76H353ZM353 93V94.5C353.828 94.5 354.5 93.8284 354.5 93H353ZM342 93H340.5C340.5 93.8284 341.172 94.5 342 94.5V93ZM342 71H343.5C343.5 70.1716 342.828 69.5 342 69.5V71ZM327 71H325.5C325.5 71.8284 326.172 72.5 327 72.5V71ZM335 62H333.5C333.5 62.8284 334.172 63.5 335 63.5V62ZM342 62V63.5C342.828 63.5 343.5 62.8284 343.5 62H342ZM347 28.5C343.41 28.5 340.5 31.4101 340.5 35H343.5C343.5 33.067 345.067 31.5 347 31.5V28.5ZM348 28.5H347V31.5H348V28.5ZM354.5 35C354.5 31.4101 351.59 28.5 348 28.5V31.5C349.933 31.5 351.5 33.067 351.5 35H354.5ZM354.5 67V35H351.5V67H354.5ZM359 65.5H353V68.5H359V65.5ZM357.5 54V67H360.5V54H357.5ZM362 49.5C359.515 49.5 357.5 51.5147 357.5 54H360.5C360.5 53.1716 361.172 52.5 362 52.5V49.5ZM363 49.5H362V52.5H363V49.5ZM367.5 54C367.5 51.5147 365.485 49.5 363 49.5V52.5C363.828 52.5 364.5 53.1716 364.5 54H367.5ZM367.5 67V54H364.5V67H367.5ZM367.5 71V67H364.5V71H367.5ZM367.5 76V71H364.5V76H367.5ZM353 77.5H366V74.5H353V77.5ZM354.5 93V76H351.5V93H354.5ZM342 94.5H353V91.5H342V94.5ZM340.5 71V93H343.5V71H340.5ZM342 69.5H335V72.5H342V69.5ZM335 69.5H334V72.5H335V69.5ZM327 72.5H334V69.5H327V72.5ZM325.5 52V71H328.5V52H325.5ZM331 46.5C327.962 46.5 325.5 48.9624 325.5 52H328.5C328.5 50.6193 329.619 49.5 331 49.5V46.5ZM336.5 52C336.5 48.9624 334.038 46.5 331 46.5V49.5C332.381 49.5 333.5 50.6193 333.5 52H336.5ZM336.5 62V52H333.5V62H336.5ZM335 63.5H342V60.5H335V63.5ZM340.5 35V62H343.5V35H340.5Z" fill="#806959"/>
<path d="M410.5 30C410.5 32.5 411.5 39 414 41.5M405 37.5C406 39.5 406.5 40 409 41.5M420.873 31.5C419.773 33.1667 417.668 37.5 418.045 41.5M422.758 41.5C422.758 39.2273 423.606 34.6818 427 34.6818" stroke="#806959" stroke-width="3" stroke-linecap="round" stroke-linejoin="round"/>
<path d="M1072 290C1073.86 290.157 1077.66 291.976 1078 298M1084.87 288C1083.77 289.667 1081.67 294 1082.04 298M1086.76 298C1086.76 295.727 1087.61 291.182 1091 291.182" stroke="#806959" stroke-width="3" stroke-linecap="round" stroke-linejoin="round"/>
<path d="M170 740C168.143 740.157 164.343 741.976 164 748M157.127 738C158.227 739.667 160.332 744 159.955 748M155.242 748C155.242 745.727 154.394 741.182 151 741.182" stroke="#806959" stroke-width="3" stroke-linecap="round" stroke-linejoin="round"/>
<path d="M943.627 76C944.727 77.6667 946.832 82 946.455 86M941.742 86C941.742 83.7273 938.5 80.5 935 80.5" stroke="#806959" stroke-width="3" stroke-linecap="round" stroke-linejoin="round"/>
<path d="M1033 114C1031.14 114.157 1027.34 115.976 1027 122M1020.13 112C1021.23 113.667 1023.33 118 1022.96 122M1018.24 122C1018.24 119.727 1017.39 115.182 1014 115.182" stroke="#806959" stroke-width="3" stroke-linecap="round" stroke-linejoin="round"/>
<path d="M288 93C289.857 93.1569 293.657 94.9765 294 101M298.975 101.5C298.975 99.2273 299.823 94.6818 303.217 94.6818" stroke="#806959" stroke-width="3" stroke-linecap="round" stroke-linejoin="round"/>
</svg>
