<svg width="1100" height="1000" viewBox="0 0 1100 1000" fill="none" xmlns="http://www.w3.org/2000/svg">
<path d="M1030.66 756.174C1026.02 752.9 1021.59 748.803 1019.28 742.989C1019.19 742.616 1019.07 742.197 1018.93 741.725C1018.34 739.725 1017.48 736.766 1017.22 732.249C1016.9 726.551 1017.6 718.437 1021.48 707.513C1021.65 707.02 1021.91 706.508 1022.22 705.99C1028.62 695.524 1030.7 683.211 1031.75 673.104C1032.01 670.565 1032.21 668.145 1032.39 665.923L1032.41 665.749C1032.58 663.583 1032.74 661.626 1032.93 659.889C1033.13 658.097 1033.34 656.622 1033.62 655.463C1033.9 654.255 1034.19 653.643 1034.39 653.385C1034.45 653.299 1034.51 653.209 1034.57 653.115L1034.73 652.83C1038.35 646.499 1041.08 641.721 1042.49 637.799C1043.99 633.626 1044.13 630.059 1042.22 626.357L1042.22 626.353C1041.88 625.697 1041.5 624.981 1041.09 624.209C1039.4 621.038 1037.21 616.929 1035.45 612.151C1033.27 606.234 1031.86 599.565 1032.97 592.908C1034.47 583.801 1032.64 577.164 1030.45 569.926C1030.34 569.549 1030.22 569.171 1030.11 568.791C1028.01 561.903 1025.66 554.17 1025.12 542.578C1025.03 540.7 1024.57 538.822 1024.18 537.215L1024.16 537.133C1023.74 535.41 1023.4 533.974 1023.33 532.626C1023.19 530.062 1023.59 526.488 1024.31 522.426C1025.02 518.404 1026.02 514.063 1027.01 510.025C1027.51 508.009 1028 506.076 1028.45 504.301C1028.91 502.531 1029.32 500.907 1029.66 499.531C1030 498.168 1030.27 496.984 1030.43 496.109C1030.5 495.688 1030.57 495.233 1030.58 494.828C1030.59 494.644 1030.59 494.312 1030.51 493.945C1030.47 493.755 1030.2 492.546 1028.9 492.044C1027.89 491.651 1026.99 491.935 1026.52 492.141C1026.02 492.362 1025.6 492.678 1025.27 492.957C1024.61 493.526 1023.92 494.316 1023.25 495.188C1021.89 496.962 1020.31 499.464 1018.74 502.316C1015.61 508.004 1012.34 515.431 1010.94 521.824C1010.54 523.616 1010.71 525.365 1011 526.862C1012.28 533.422 1011.08 538.467 1009.78 543.916C1009.61 544.646 1009.43 545.383 1009.26 546.132C1007.8 552.52 1006.8 559.376 1010.7 568.485C1012.63 572.979 1013.22 575.729 1013.3 578.422C1013.36 580.354 1013.17 582.221 1012.92 584.738C1012.79 586.017 1012.65 587.465 1012.51 589.174C1012.37 590.848 1012.02 593.26 1011.64 595.897C1011.49 596.922 1011.34 597.981 1011.19 599.044C1010.93 600.898 1010.69 602.741 1010.56 604.334C1010.42 605.85 1010.35 607.395 1010.53 608.52C1011.21 612.756 1013.38 617.887 1015.26 622.337C1015.62 623.208 1015.98 624.052 1016.31 624.859C1017.38 627.447 1018.2 629.642 1018.57 631.334C1018.76 632.179 1018.79 632.742 1018.76 633.08C1018.75 633.147 1018.74 633.195 1018.73 633.227C1018 633.919 1017.35 634.937 1016.79 635.946C1016.17 637.074 1015.51 638.467 1014.84 640.036C1013.5 643.18 1012.07 647.169 1010.74 651.445C1008.1 659.938 1005.76 669.88 1005.5 676.78C1005.42 678.92 1004.67 681.767 1003.35 685.113C1002.04 688.418 1000.24 692.04 998.228 695.677C994.194 702.951 989.355 710.129 985.993 714.707C985.607 715.233 985.159 715.898 984.832 716.728C983.566 719.941 982.705 725.638 982.302 732.469C981.894 739.398 981.944 747.782 982.641 756.544C984.026 773.941 988.001 793.337 996.419 805.67C996.481 805.761 996.5 805.841 996.5 805.911C996.5 806.098 996.348 806.25 996.161 806.25H993C988.306 806.25 984.5 810.056 984.5 814.75V971.5C984.5 975.642 981.142 979 977 979H803C798.858 979 795.5 975.642 795.5 971.5V970.25C795.5 963.346 789.904 957.75 783 957.75H681C676.858 957.75 673.5 954.392 673.5 950.25V941.25C673.5 934.346 667.904 928.75 661 928.75H312C305.096 928.75 299.5 934.346 299.5 941.25V950.25C299.5 954.392 296.142 957.75 292 957.75H201C194.096 957.75 188.5 963.346 188.5 970.25V990C188.5 994.142 185.142 997.5 181 997.5H104C99.8579 997.5 96.5 994.142 96.5 990V876.25C96.5 869.346 90.9036 863.75 84 863.75H81C76.8579 863.75 73.5 860.392 73.5 856.25V768.75C73.5 761.846 67.9036 756.25 61 756.25H10C5.85786 756.25 2.5 752.892 2.5 748.75V437.5C2.5 433.358 5.85786 430 10 430H46C52.9036 430 58.5 424.404 58.5 417.5V125.5C58.5 121.358 61.8579 118 66 118H84C90.9036 118 96.5 112.404 96.5 105.5V48.5C96.5 44.3579 99.8579 41 104 41H319C325.904 41 331.5 35.4036 331.5 28.5V10C331.5 5.85787 334.858 2.5 339 2.5H543C547.142 2.5 550.5 5.85786 550.5 10V29C550.5 35.9036 556.096 41.5 563 41.5H964C968.142 41.5 971.5 44.8579 971.5 49V116.25C971.5 123.154 977.096 128.75 984 128.75H1058C1062.14 128.75 1065.5 132.108 1065.5 136.25V222.5C1065.5 229.404 1071.1 235 1078 235H1090C1094.14 235 1097.5 238.358 1097.5 242.5V798.75C1097.5 802.892 1094.14 806.25 1090 806.25H1065.75C1065.06 806.25 1064.5 805.69 1064.5 805C1064.5 804.959 1064.5 804.919 1064.5 804.878C1063.62 786.821 1053.56 775.701 1042.8 764.517C1041.46 763.122 1039.46 761.812 1037.44 760.545C1037.01 760.275 1036.57 760.003 1036.13 759.727C1034.38 758.642 1032.54 757.495 1030.66 756.174ZM1018.72 633.282C1018.72 633.281 1018.72 633.279 1018.72 633.277C1018.72 633.284 1018.72 633.285 1018.72 633.282Z" fill="#DEC9B6" stroke="#806959" stroke-width="5" stroke-linecap="round" stroke-linejoin="round"/>
<path d="M1027.74 491.407C1029.92 489.428 1035.63 477.674 1034.83 470.405M1030.91 445.617C1022.57 459.962 1033.99 462.833 1034.83 470.405M1030.62 492.905C1030.48 489.274 1035.93 482.906 1036.04 477.632M1034.83 470.405C1035.74 473.04 1036.08 475.465 1036.04 477.632M1036.04 477.632C1037.9 473.924 1042.88 466.357 1047.87 465.751" stroke="#806959" stroke-width="5" stroke-linecap="round" stroke-linejoin="round"/>
<path d="M985 716.5C987.5 703.333 988.4 674.5 972 664.5M1043.5 635C1045.83 630.667 1052.2 621.5 1059 619.5" stroke="#806959" stroke-width="5" stroke-linecap="round" stroke-linejoin="round"/>
<path d="M113 100C150.333 80.6667 227.5 36.8 237.5 16C252.871 27.3793 277.656 45.4392 301.5 62.2168C313.833 57.8112 341.2 46.3 352 35.5C365.333 41.6445 392.8 55.5902 396 62.2168H366H301.5C324.453 78.3673 346.532 93.3295 358.5 100H235H113Z" fill="#DEC9B6"/>
<path d="M113 100C150.333 80.6667 227.5 36.8 237.5 16M237.5 16C252.871 27.3793 277.656 45.4392 301.5 62.2168M237.5 16C246 36.8333 284.5 71 235 100M358.5 100C346.532 93.3295 324.453 78.3673 301.5 62.2168M301.5 62.2168C313.833 57.8112 341.2 46.3 352 35.5M352 35.5C365.333 41.6445 392.8 55.5902 396 62.2168M352 35.5C359.167 39.3112 372 49.9902 366 62.2168" stroke="#806959" stroke-width="5" stroke-linecap="round" stroke-linejoin="round"/>
<path d="M1052.38 150.183C1052.38 146.537 1049.46 143.582 1045.85 143.582H1044.54H1043.23C1039.62 143.582 1036.69 146.537 1036.69 150.183V197.712H1030.15V180.549C1030.15 178.362 1028.4 176.588 1026.23 176.588H1024.92C1022.76 176.588 1021 178.362 1021 180.549V209.595H1036.69V236H1052.38V196.392H1072V192.431V184.51V176.588V171.307C1072 168.391 1069.66 166.026 1066.77 166.026C1063.88 166.026 1061.54 168.391 1061.54 171.307V184.51H1052.38V150.183Z" fill="#DEC9B6"/>
<path d="M1045.85 143.582C1049.46 143.582 1052.38 146.537 1052.38 150.183V184.51H1061.54V171.307C1061.54 168.391 1063.88 166.026 1066.77 166.026C1069.66 166.026 1072 168.391 1072 171.307V176.588V184.51V192.431V196.392H1052.38V236H1036.69V209.595H1021V180.549C1021 178.362 1022.76 176.588 1024.92 176.588H1026.23C1028.4 176.588 1030.15 178.362 1030.15 180.549V197.712H1036.69V150.183C1036.69 146.537 1039.62 143.582 1043.23 143.582M1045.85 143.582C1048.03 143.362 1051.08 144.242 1051.08 138.961M1045.85 143.582H1044.54M1043.23 143.582C1041.05 142.922 1038 143.186 1038 138.961M1043.23 143.582H1044.54M1044.54 143.582V135" stroke="#806959" stroke-width="3" stroke-linecap="round" stroke-linejoin="round"/>
<path fill-rule="evenodd" clip-rule="evenodd" d="M982 105C982 102.239 984.239 100 987 100C989.761 100 992 102.239 992 105V127H997V118C997 116.343 998.343 115 1000 115H1001C1002.66 115 1004 116.343 1004 118V127V135V136H992V154H982V105Z" fill="#DEC9B6"/>
<path d="M992 127H990.5C990.5 127.828 991.172 128.5 992 128.5V127ZM997 127V128.5C997.828 128.5 998.5 127.828 998.5 127H997ZM1004 136V137.5C1004.83 137.5 1005.5 136.828 1005.5 136H1004ZM992 136V134.5C991.172 134.5 990.5 135.172 990.5 136H992ZM992 154V155.5C992.828 155.5 993.5 154.828 993.5 154H992ZM982 154H980.5C980.5 154.828 981.172 155.5 982 155.5V154ZM987 98.5C983.41 98.5 980.5 101.41 980.5 105H983.5C983.5 103.067 985.067 101.5 987 101.5V98.5ZM993.5 105C993.5 101.41 990.59 98.5 987 98.5V101.5C988.933 101.5 990.5 103.067 990.5 105H993.5ZM993.5 127V105H990.5V127H993.5ZM997 125.5H992V128.5H997V125.5ZM998.5 127V118H995.5V127H998.5ZM998.5 118C998.5 117.172 999.172 116.5 1000 116.5V113.5C997.515 113.5 995.5 115.515 995.5 118H998.5ZM1000 116.5H1001V113.5H1000V116.5ZM1001 116.5C1001.83 116.5 1002.5 117.172 1002.5 118H1005.5C1005.5 115.515 1003.49 113.5 1001 113.5V116.5ZM1002.5 118V127H1005.5V118H1002.5ZM1002.5 127V135H1005.5V127H1002.5ZM1005.5 136V135H1002.5V136H1005.5ZM992 137.5H1004V134.5H992V137.5ZM993.5 154V136H990.5V154H993.5ZM982 155.5H992V152.5H982V155.5ZM980.5 105V154H983.5V105H980.5Z" fill="#806959"/>
<path d="M194 824.746H195.5C195.5 825.575 194.828 826.246 194 826.246V824.746ZM189 824.746V826.246C188.172 826.246 187.5 825.575 187.5 824.746H189ZM182 832.672V834.172C181.172 834.172 180.5 833.5 180.5 832.672H182ZM194 832.672V831.172C194.828 831.172 195.5 831.843 195.5 832.672H194ZM194 845V846.5C193.172 846.5 192.5 845.828 192.5 845H194ZM206 845H207.5C207.5 845.828 206.828 846.5 206 846.5V845ZM201 784.5C204.59 784.5 207.5 787.41 207.5 791H204.5C204.5 789.067 202.933 787.5 201 787.5V784.5ZM199 784.5H201V787.5H199V784.5ZM192.5 791C192.5 787.41 195.41 784.5 199 784.5V787.5C197.067 787.5 195.5 789.067 195.5 791H192.5ZM192.5 824.746V791H195.5V824.746H192.5ZM189 823.246H194V826.246H189V823.246ZM187.5 824.746V813.657H190.5V824.746H187.5ZM187.5 813.657C187.5 812.828 186.828 812.157 186 812.157V809.157C188.485 809.157 190.5 811.171 190.5 813.657H187.5ZM186 812.157H185V809.157H186V812.157ZM185 812.157C184.172 812.157 183.5 812.828 183.5 813.657H180.5C180.5 811.171 182.515 809.157 185 809.157V812.157ZM183.5 813.657V824.746H180.5V813.657H183.5ZM183.5 824.746V828.269H180.5V824.746H183.5ZM180.5 832.672V828.269H183.5V832.672H180.5ZM194 834.172H182V831.172H194V834.172ZM192.5 845V832.672H195.5V845H192.5ZM206 846.5H194V843.5H206V846.5ZM207.5 791V845H204.5V791H207.5Z" fill="#806959"/>
<path d="M844 900C844 896.686 846.686 894 850 894H851H851.5H852C855.314 894 858 896.686 858 900V941H863V932C863 930.343 864.343 929 866 929H867C868.657 929 870 930.343 870 932V950H858V964H844V937H830V914C830 911.791 831.791 910 834 910C836.209 910 838 911.791 838 914V928H844V900Z" fill="#DEC9B6"/>
<path d="M834 910C831.791 910 830 911.791 830 914V937H844V964H858V950H870V932C870 930.343 868.657 929 867 929H866C864.343 929 863 930.343 863 932V941H858V900C858 896.686 855.314 894 852 894H851.5M834 910C836.209 910 838 911.791 838 914V928H844V900C844 896.686 846.686 894 850 894H851M834 910C832.667 908.667 830.2 905.5 831 903.5M834 910C834.167 909.833 834.6 908.9 835 906.5M851 894C849.333 893.5 845.8 891.9 845 889.5M851 894C850.667 892.167 850 887.8 850 885M851 894H851.5M851.5 894C852.333 893.5 854.1 891.9 854.5 889.5" stroke="#806959" stroke-width="3" stroke-linecap="round" stroke-linejoin="round"/>
<path fill-rule="evenodd" clip-rule="evenodd" d="M912 873C912 870.239 914.239 868 917 868H918C920.761 868 923 870.239 923 873V905H929V892C929 890.343 930.343 889 932 889H933C934.657 889 936 890.343 936 892V905V909V914H923V931H912V909H905H904H897V890C897 887.791 898.791 886 901 886C903.209 886 905 887.791 905 890V900H912V873Z" fill="#DEC9B6"/>
<path d="M923 905H921.5C921.5 905.828 922.172 906.5 923 906.5V905ZM929 905V906.5C929.828 906.5 930.5 905.828 930.5 905H929ZM936 914V915.5C936.828 915.5 937.5 914.828 937.5 914H936ZM923 914V912.5C922.172 912.5 921.5 913.172 921.5 914H923ZM923 931V932.5C923.828 932.5 924.5 931.828 924.5 931H923ZM912 931H910.5C910.5 931.828 911.172 932.5 912 932.5V931ZM912 909H913.5C913.5 908.172 912.828 907.5 912 907.5V909ZM897 909H895.5C895.5 909.828 896.172 910.5 897 910.5V909ZM905 900H903.5C903.5 900.828 904.172 901.5 905 901.5V900ZM912 900V901.5C912.828 901.5 913.5 900.828 913.5 900H912ZM917 866.5C913.41 866.5 910.5 869.41 910.5 873H913.5C913.5 871.067 915.067 869.5 917 869.5V866.5ZM918 866.5H917V869.5H918V866.5ZM924.5 873C924.5 869.41 921.59 866.5 918 866.5V869.5C919.933 869.5 921.5 871.067 921.5 873H924.5ZM924.5 905V873H921.5V905H924.5ZM929 903.5H923V906.5H929V903.5ZM927.5 892V905H930.5V892H927.5ZM932 887.5C929.515 887.5 927.5 889.515 927.5 892H930.5C930.5 891.172 931.172 890.5 932 890.5V887.5ZM933 887.5H932V890.5H933V887.5ZM937.5 892C937.5 889.515 935.485 887.5 933 887.5V890.5C933.828 890.5 934.5 891.172 934.5 892H937.5ZM937.5 905V892H934.5V905H937.5ZM937.5 909V905H934.5V909H937.5ZM937.5 914V909H934.5V914H937.5ZM923 915.5H936V912.5H923V915.5ZM924.5 931V914H921.5V931H924.5ZM912 932.5H923V929.5H912V932.5ZM910.5 909V931H913.5V909H910.5ZM912 907.5H905V910.5H912V907.5ZM905 907.5H904V910.5H905V907.5ZM897 910.5H904V907.5H897V910.5ZM895.5 890V909H898.5V890H895.5ZM901 884.5C897.962 884.5 895.5 886.962 895.5 890H898.5C898.5 888.619 899.619 887.5 901 887.5V884.5ZM906.5 890C906.5 886.962 904.038 884.5 901 884.5V887.5C902.381 887.5 903.5 888.619 903.5 890H906.5ZM906.5 900V890H903.5V900H906.5ZM905 901.5H912V898.5H905V901.5ZM910.5 873V900H913.5V873H910.5Z" fill="#806959"/>
<path d="M756.5 913C756.5 915.5 757.5 922 760 924.5M751 920.5C752 922.5 752.5 923 755 924.5M766.873 914.5C765.773 916.167 763.668 920.5 764.045 924.5M768.758 924.5C768.758 922.227 769.606 917.682 773 917.682" stroke="#806959" stroke-width="3" stroke-linecap="round" stroke-linejoin="round"/>
<path d="M1037 313C1038.86 313.157 1042.66 314.976 1043 321M1049.87 311C1048.77 312.667 1046.67 317 1047.04 321M1051.76 321C1051.76 318.727 1052.61 314.182 1056 314.182" stroke="#806959" stroke-width="3" stroke-linecap="round" stroke-linejoin="round"/>
<path d="M173 889C171.143 889.157 167.343 890.976 167 897M160.127 887C161.227 888.667 163.332 893 162.955 897M158.242 897C158.242 894.727 157.394 890.182 154 890.182" stroke="#806959" stroke-width="3" stroke-linecap="round" stroke-linejoin="round"/>
<path d="M911.627 76C912.727 77.6667 914.832 82 914.455 86M909.742 86C909.742 83.7273 906.5 80.5 903 80.5" stroke="#806959" stroke-width="3" stroke-linecap="round" stroke-linejoin="round"/>
<path d="M113 156C111.143 156.157 107.343 157.976 107 164M100.127 154C101.227 155.667 103.332 160 102.955 164M98.242 164C98.242 161.727 97.3936 157.182 94 157.182" stroke="#806959" stroke-width="3" stroke-linecap="round" stroke-linejoin="round"/>
<path d="M956 854C957.857 854.157 961.657 855.976 962 862M966.975 862.5C966.975 860.227 967.823 855.682 971.217 855.682" stroke="#806959" stroke-width="3" stroke-linecap="round" stroke-linejoin="round"/>
</svg>
