<svg width="23" height="46" viewBox="0 0 23 46" fill="none" xmlns="http://www.w3.org/2000/svg">
<g clip-path="url(#clip0_155_165)">
<path fill-rule="evenodd" clip-rule="evenodd" d="M16 16.5C16 18.4592 14.7476 20.1262 13 20.744V24H19V27H13V41.3499C16.4233 40.6552 18.5 37.6284 18.5 34H17L20 29.5L23 34H21.5C21.5 38.7563 18.8374 42.7744 14.5 44.0653L14.47 44.0741C13.5376 44.3513 12.9843 44.5157 11.5 46C10.0157 44.5157 9.4624 44.3513 8.53003 44.0741L8.5 44.0653C4.1626 42.7744 1.5 38.7567 1.5 34H0L3 29.5L6 34H4.5C4.5 37.6284 6.57666 40.6552 10 41.3499V27H4V24H10V20.744C8.25244 20.1262 7 18.4592 7 16.5C7 14.0149 9.01489 12 11.5 12C13.9851 12 16 14.0149 16 16.5ZM11.5 18C12.3284 18 13 17.3284 13 16.5C13 15.6716 12.3284 15 11.5 15C10.6716 15 10 15.6716 10 16.5C10 17.3284 10.6716 18 11.5 18Z" fill="#664E3D"/>
<rect x="10" y="6" width="3" height="3" fill="#664E3D"/>
<rect x="10" width="3" height="3" fill="#664E3D"/>
</g>
<defs>
<clipPath id="clip0_155_165">
<rect width="23" height="46" fill="white"/>
</clipPath>
</defs>
</svg>
