<svg width="1000" height="625" viewBox="0 0 1000 625" fill="none" xmlns="http://www.w3.org/2000/svg">
<g clip-path="url(#clip0_146_3)">
<path d="M86.5 55C86.5 50.8579 89.8579 47.5 94 47.5H523C527.142 47.5 530.5 50.8579 530.5 55V80C530.5 86.9036 536.096 92.5 543 92.5H650C654.142 92.5 657.5 95.8579 657.5 100V155C657.5 161.904 663.096 167.5 670 167.5H735C739.142 167.5 742.5 170.858 742.5 175V186C742.5 192.904 748.096 198.5 755 198.5H990C994.142 198.5 997.5 201.858 997.5 206V567C997.5 571.142 994.142 574.5 990 574.5H755C748.096 574.5 742.5 580.096 742.5 587V615C742.5 619.142 739.142 622.5 735 622.5H653C648.858 622.5 645.5 619.142 645.5 615V564C645.5 559.858 648.858 556.5 653 556.5H671C677.904 556.5 683.5 550.904 683.5 544V491C683.5 484.096 677.904 478.5 671 478.5H535C528.096 478.5 522.5 484.096 522.5 491V544C522.5 548.142 519.142 551.5 515 551.5H232C227.858 551.5 224.5 548.142 224.5 544V438C224.5 431.096 218.904 425.5 212 425.5H146C141.858 425.5 138.5 422.142 138.5 418V359C138.5 352.096 132.904 346.5 126 346.5H10C5.85786 346.5 2.5 343.142 2.5 339V145C2.5 140.858 5.85787 137.5 10 137.5H74C80.9036 137.5 86.5 131.904 86.5 125V55Z" fill="#DEC9B6" stroke="#806959" stroke-width="5"/>
<path d="M759.5 80C759.5 75.8579 762.858 72.5 767 72.5H885C889.142 72.5 892.5 75.8579 892.5 80V142C892.5 146.142 889.142 149.5 885 149.5H807C802.858 149.5 799.5 146.142 799.5 142V124C799.5 117.096 793.904 111.5 787 111.5H767C762.858 111.5 759.5 108.142 759.5 104V80Z" fill="#DEC9B6" stroke="#806959" stroke-width="5"/>
<path d="M340.5 27.5592C336.5 41.9592 309.5 55.5592 296.5 60.5592C294.482 61.1642 294.184 60.3801 292.77 58.8305C268.931 32.7136 263.404 13.8764 261.5 13.5592C258.5 13.0592 255.5 1.05917 252.5 2.05917C250.1 2.85917 244.5 3.05917 242 3.05917C226.715 31.176 214.516 49.4648 203.871 63.0592C186.311 85.4852 172.98 95.1362 157 115.059C249.833 118.559 437.3 120.959 444.5 102.559C437.5 104.059 422.5 90.0592 410 86.0592C397.5 82.0592 375 42.5592 370.5 35.5592C366.9 29.9592 363.333 30.8925 362 32.0592L357 35.5592C351 37.9592 343.5 31.2258 340.5 27.5592Z" fill="#DEC9B6"/>
<path d="M296.5 62C309.5 57 336.5 43.4 340.5 29C343.5 32.6667 351 39.4 357 37L362 33.5C363.333 32.3333 366.9 31.4 370.5 37C375 44 397.5 83.5 410 87.5C422.5 91.5 435.5 104.5 441 107" stroke="#806959" stroke-width="5" stroke-linecap="round" stroke-linejoin="round"/>
<path d="M157 116.5C172.98 96.577 186.311 86.926 203.871 64.5M355 110.5C333.902 97.4648 317.607 84.574 305 72.682M400.5 81C391.7 78.6 381.5 71.3333 379 67C376.5 71.5 377.2 78.6 374 81C370.8 83.4 359.333 75.6667 354 71.5C353.333 73 350.4 76.4 344 78C336 80 326 55 323.5 65C320.667 68.288 313 74.4276 305 72.682M203.871 64.5C214.516 50.9056 226.715 32.6169 242 4.49999C244.5 4.49999 250.1 4.29999 252.5 3.49999C255.5 2.49999 258.5 14.5 261.5 15C263.404 15.3173 265.161 29.8831 289 56M203.871 64.5C214.227 64.5 230.493 51.2475 235.5 43C240.833 49.8333 251.9 62.3 253.5 57.5C259.834 38.4974 272.925 70.4906 280 62C282.5 59 282.174 62.6672 289 56M289 56C292.634 59.981 300.463 68.4025 305 72.682" stroke="#806959" stroke-width="5" stroke-linecap="round" stroke-linejoin="round"/>
<path d="M895.5 465.039C892.586 465.839 889.136 466.314 887 466.5C895.4 458.5 904.5 434.167 908 423C915.5 452.5 932.5 466.5 930 466.5C928.977 466.5 926.28 465.83 923.381 465.039M895.5 465.039C897.815 464.403 899.792 463.563 900.5 462.5C900.667 463.833 902.4 466.5 908 466.5C909.667 465.167 913.2 462.5 914 462.5C914.591 462.5 919.196 463.896 923.381 465.039M895.5 465.039C893.167 471.526 887.5 485.7 883.5 490.5C889.167 490.667 896 491.509 899.5 487.491C900.549 489.111 903.458 490.037 905.5 491.509M923.381 465.039C929.262 482.858 933.5 485.009 934.5 489.509C935.3 493.109 930.167 491.333 928 490.5C923 490.5 920 483.991 917.5 487.491C916.327 489.133 914.524 489.249 912.897 490.5M905.5 491.509C907.028 492.612 908.63 493.185 910 492.5C910.689 492.086 911.749 491.382 912.897 490.5M905.5 491.509C904.667 496.006 905.5 508 902.5 516.5C904.167 516 906.5 515.5 910 516.5C911.833 515.833 914 515.5 916.5 516.5C917.5 518.5 913.794 508 912.897 490.5" stroke="#806959" stroke-width="3" stroke-linecap="round" stroke-linejoin="round"/>
<path d="M935.292 434.149C933.278 434.704 930.894 435.033 929.418 435.162C935.222 429.615 941.51 412.743 943.929 405C949.111 425.455 960.857 435.162 959.13 435.162C958.423 435.162 956.559 434.698 954.556 434.149M935.292 434.149C936.891 433.708 938.257 433.126 938.746 432.389C938.862 433.313 940.059 435.162 943.929 435.162C945.08 434.238 947.522 432.389 948.074 432.389C948.483 432.389 951.664 433.357 954.556 434.149M935.292 434.149C933.679 438.647 929.764 448.475 927 451.804C930.915 451.919 937 451.5 938.746 448.683C939.471 449.807 940.79 451.482 942.201 452.503M954.556 434.149C958.62 446.505 962.239 448.683 962.93 451.804C963.483 454.3 958.497 452.381 957 451.804C953.545 451.804 952.5 447.5 950.493 448.683C949.289 449.393 948.436 450.936 947.312 451.804M942.201 452.503C943.257 453.268 944.364 453.665 945.31 453.19C945.787 452.904 946.519 452.415 947.312 451.804M942.201 452.503C941.625 455.621 942.201 463.938 940.128 469.832C941.28 469.485 943.929 469 945.31 469.832C946.577 469.369 947 469.5 949.802 469.832C950.493 471.218 947.932 463.938 947.312 451.804" stroke="#806959" stroke-width="3" stroke-linecap="round" stroke-linejoin="round"/>
<path d="M126.787 266.288C129.024 266.903 131.673 267.268 133.313 267.411C126.864 261.266 119.878 242.577 117.191 234C111.432 256.658 98.381 267.411 100.3 267.411C101.086 267.411 103.157 266.896 105.382 266.288M126.787 266.288C125.01 265.8 123.492 265.155 122.949 264.338C122.821 265.362 121.49 267.411 117.191 267.411C115.911 266.386 113.198 264.338 112.584 264.338C112.131 264.338 108.595 265.411 105.382 266.288M126.787 266.288C128.579 271.271 132.929 282.157 136 285.844C131.65 285.972 122.949 285.46 122.949 282.388C122.144 283.632 120.677 285.488 119.11 286.619M105.382 266.288C100.867 279.974 96.8455 282.388 96.0778 285.844C95.4636 288.609 98.6369 288.02 100.3 287.38C104.139 287.38 107.978 279.699 109.897 282.388C110.797 283.649 112.182 284.883 113.431 285.844M119.11 286.619C117.937 287.466 116.707 287.906 115.655 287.38C115.126 287.062 114.312 286.521 113.431 285.844M119.11 286.619C119.75 290.073 119.11 299.285 121.413 305.813C120.133 305.429 117.5 305.5 115.655 305.813C114.248 305.301 113 305.5 110.665 305.813C109.897 307.35 112.742 299.285 113.431 285.844" stroke="#806959" stroke-width="3" stroke-linecap="round" stroke-linejoin="round"/>
<path d="M715.776 157.907C708.037 150.568 699.653 128.244 696.429 118C689.519 145.063 673.857 157.907 676.16 157.907C677.103 157.907 679.588 157.293 682.258 156.567C676.841 172.914 672.015 175.796 671.093 179.925C670.356 183.227 675.516 182.037 677.5 182.5C682.106 182.5 686.5 176.5 688 177.5C689.5 178.5 690.418 178.777 691.917 179.925C691.091 195.979 688.468 204.073 690.5 203.777C692.402 203.5 695.304 203.166 696.993 203.777C698.835 202.676 701.465 203.318 703 203.777C700.236 195.979 699.5 184.976 698.732 180.851C700.613 179.5 702.372 178.487 703.338 177C705 180.704 713.779 180.078 719 179.925C715.315 175.521 710.094 162.518 707.945 156.567C710.629 157.3 713.808 157.737 715.776 157.907Z" fill="#DEC9B6"/>
<path d="M707.945 156.567C710.629 157.3 713.808 157.737 715.776 157.907C708.037 150.568 699.653 128.244 696.429 118C689.519 145.063 673.857 157.907 676.16 157.907C677.103 157.907 679.588 157.293 682.258 156.567M707.945 156.567C705.812 155.983 703.991 155.212 703.338 154.237C703.185 155.461 701.588 157.907 696.429 157.907C694.893 156.684 691.638 154.237 690.901 154.237C690.357 154.237 686.114 155.518 682.258 156.567M707.945 156.567C710.094 162.518 715.315 175.521 719 179.925C713.779 180.078 705 180.704 703.338 177C702.372 178.487 700.613 179.5 698.732 180.851M682.258 156.567C676.841 172.914 672.015 175.796 671.093 179.925C670.356 183.227 675.516 182.037 677.5 182.5C682.106 182.5 686.5 176.5 688 177.5C689.5 178.5 690.418 178.777 691.917 179.925M698.732 180.851C697.324 181.862 695.848 182.388 694.586 181.759C693.951 181.38 692.974 180.734 691.917 179.925M698.732 180.851C699.5 184.976 700.236 195.979 703 203.777C701.465 203.318 698.835 202.676 696.993 203.777C695.304 203.166 692.402 203.5 690.5 203.777C688.468 204.073 691.091 195.979 691.917 179.925" stroke="#806959" stroke-width="3" stroke-linecap="round" stroke-linejoin="round"/>
<path d="M821.553 81.5544C827.679 75.7513 834.316 58.1002 836.869 50C842.339 71.399 854.738 81.5544 852.915 81.5544C852.169 81.5544 850.201 81.0685 848.087 80.4945C852.376 93.4202 856.197 95.6995 856.926 98.9637C857.51 101.575 854.495 101.019 852.915 100.414C849.268 100.414 845.621 93.1606 843.798 95.6995C842.942 96.8905 841.627 98.0566 840.441 98.9637C841.095 111.658 843.798 119.275 843.068 117.824C842.485 116.663 839.665 117.34 838.328 117.824C836.869 116.953 834.073 117.461 832.858 117.824C835.046 111.658 834.438 102.958 835.046 99.6959C833.557 98.6277 832.164 96.8749 831.399 95.6995C831.399 98.601 823.133 99.0846 819 98.9637C821.917 95.4818 826.05 85.2001 827.752 80.4945C825.627 81.0747 823.111 81.4197 821.553 81.5544Z" fill="#DEC9B6"/>
<path d="M827.752 80.4945C825.627 81.0747 823.111 81.4197 821.553 81.5544C827.679 75.7513 834.316 58.1002 836.869 50C842.339 71.399 854.738 81.5544 852.915 81.5544C852.169 81.5544 850.201 81.0685 848.087 80.4945M827.752 80.4945C829.441 80.0334 830.882 79.4237 831.399 78.6528C831.52 79.62 832.785 81.5544 836.869 81.5544C838.085 80.5872 840.662 78.6528 841.245 78.6528C841.676 78.6528 845.035 79.6656 848.087 80.4945M827.752 80.4945C826.05 85.2001 821.917 95.4818 819 98.9637C823.133 99.0846 831.399 98.601 831.399 95.6995C832.164 96.8749 833.557 98.6277 835.046 99.6959M848.087 80.4945C852.376 93.4202 856.197 95.6995 856.926 98.9637C857.51 101.575 854.495 101.019 852.915 100.414C849.268 100.414 845.621 93.1606 843.798 95.6995C842.942 96.8905 841.627 98.0566 840.441 98.9637M835.046 99.6959C836.16 100.495 837.329 100.911 838.328 100.414C838.83 100.114 839.604 99.6035 840.441 98.9637M835.046 99.6959C834.438 102.958 835.046 111.658 832.858 117.824C834.073 117.461 836.869 116.953 838.328 117.824C839.665 117.34 842.485 116.663 843.068 117.824C843.798 119.275 841.095 111.658 840.441 98.9637" stroke="#806959" stroke-width="3" stroke-linecap="round" stroke-linejoin="round"/>
<path d="M87.9388 245.252C89.896 245.79 92.2139 246.109 93.6488 246.234C88.006 240.858 81.8929 224.505 79.5417 217C74.5034 236.826 63.0834 246.234 64.7628 246.234C65.45 246.234 67.262 245.784 69.2093 245.252M87.9388 245.252C86.3835 244.825 85.0559 244.26 84.5799 243.546C84.468 244.442 83.3036 246.234 79.5417 246.234C78.4221 245.338 76.0485 243.546 75.5111 243.546C75.1142 243.546 72.0208 244.484 69.2093 245.252M87.9388 245.252C89.5062 249.612 93.3129 259.138 96 262.363C92.1933 262.475 84.5799 262.027 84.5799 259.339C83.8756 260.428 82.5926 262.052 81.2211 263.042M69.2093 245.252C65.2587 257.228 61.7398 259.339 61.0681 262.363C60.5307 264.783 63.3073 264.268 64.7628 263.708C68.1216 263.708 71.4805 256.987 73.1599 259.339C73.9477 260.443 75.1591 261.523 76.2521 262.363M81.2211 263.042C80.1945 263.782 79.1184 264.168 78.1982 263.708C77.7351 263.43 77.0231 262.956 76.2521 262.363M81.2211 263.042C81.7809 266.064 81.2211 274.124 83.2364 279.837C82.1168 279.501 79.5417 279.03 78.1982 279.837C76.9666 279.389 74.3691 278.761 73.8317 279.837C73.1599 281.181 75.6497 274.124 76.2521 262.363" stroke="#806959" stroke-width="3" stroke-linecap="round" stroke-linejoin="round"/>
<path d="M577.803 592.866C577.803 596.565 576.753 600.218 576.296 603.88V605.393C571.738 604.913 566.999 604.171 562.874 602.482C561.346 601.855 559.902 601.099 558.583 600.178C555.028 597.695 551.306 594.291 547.159 592.866C543.889 591.742 539.695 591.756 536.6 593.434L536.517 593.48C536.545 593.465 536.572 593.449 536.6 593.434L537.538 592.919C539.501 591.237 539.159 591.607 543.224 588.596C545.742 586.731 548.397 585.111 551.078 583.544C554.62 581.474 558.21 579.495 561.597 577.163C564.496 575.167 557.516 576.52 556.016 576.27C554.488 576.015 553.056 575.69 551.692 575.029C551.381 574.878 551.073 574.71 550.769 574.521C548.568 573.155 548.332 571.054 548.332 568.763C548.332 568.204 547.648 569.649 547.364 570.13C543.717 576.302 539.044 585.666 534.088 590.621C533.368 591.341 517.296 584.624 509.349 581.176L508 584.324C508.36 585.764 519.245 591.215 524.642 593.76C525.483 594.601 525.51 593.665 527.903 599.136C532.295 609.175 535.896 615.795 544.547 622.076L545.108 622.244C548.542 621.753 551.852 620.358 554.328 618.059C559.726 623.906 571.42 623.906 577.718 618.059C583.115 623.906 594.81 623.906 601.107 618.059C601.901 618.796 602.781 619.441 603.724 619.992L603.805 619.858C608.303 616.259 611.902 611.762 613.218 607.35C615.604 601.321 605.609 603.177 601.32 602.15C596.358 600.962 597.137 606.525 592.561 607.301L592.767 606.937C593.478 605.373 596.116 596.893 595.794 596.801C589.809 595.091 583.722 594.992 577.803 592.866Z" fill="#DEC9B6"/>
<path d="M558.826 591.971L558.377 599.617L558.583 600.178C559.902 601.099 561.346 601.855 562.874 602.482V602.316C563.24 598.804 563.458 596.837 563.774 593.32V592.568C562.148 592.453 560.48 592.2 558.826 591.763V591.971Z" fill="#DEC9B6"/>
<path d="M575.918 591.071C571.42 585.674 571.87 579.377 574.119 575.778C562.964 577.218 555.678 573.079 553.429 570.831C552.823 571.975 552.355 573.189 551.999 574.429L551.692 575.029C553.056 575.69 554.488 576.015 556.016 576.27C557.516 576.52 564.496 575.167 561.597 577.163C558.21 579.495 554.62 581.474 551.078 583.544V584.324C551.189 585.981 551.407 587.391 551.63 588.372C553.867 590.026 556.331 591.104 558.826 591.763C560.48 592.2 562.148 592.453 563.774 592.568C568.581 592.91 573.017 592.047 575.624 591.173C575.635 591.169 575.645 591.166 575.655 591.162C575.745 591.132 575.833 591.101 575.918 591.071Z" fill="#DEC9B6"/>
<path d="M574.119 575.778C571.87 579.377 571.42 585.674 575.918 591.071C575.833 591.101 575.745 591.132 575.655 591.162C579.461 592.969 589.821 595.235 596.609 594.222C599.389 593.807 601.57 592.843 602.456 591.071C597.778 586.393 595.26 578.477 599.757 570.831L600.101 570.197C599.46 570.817 598.952 571.315 598.654 571.613L598.301 571.863C598.756 573.007 598.959 573.173 597.131 574.188C590.617 577.807 580.071 578.013 574.219 575.705L574.119 575.778Z" fill="#DEC9B6"/>
<path d="M609.588 602.451C602.976 590.696 604.021 573.867 609.871 562.166C611.028 559.852 603.593 566.822 600.101 570.197L599.757 570.831C595.26 578.477 597.778 586.393 602.456 591.071C601.57 592.843 599.389 593.807 596.609 594.222L597.059 594.669C601.017 598.268 606.911 601.207 609.588 602.451Z" fill="#DEC9B6"/>
<path d="M576.317 570.061C577.729 570.061 575.009 571.13 574.702 571.217C573.395 571.591 571.806 571.983 570.071 572.31L570.521 573.079C571.215 574.152 572.519 575.035 574.219 575.705C580.071 578.013 590.617 577.807 597.131 574.188C598.959 573.173 598.756 573.007 598.301 571.863C598.12 571.405 597.898 570.79 597.749 569.902C597.262 566.98 599.539 558.305 598.926 558.577C597.119 559.38 588.907 560.998 582.215 560.991C577.611 560.987 573.727 560.213 573.142 557.876L572.814 558.591C572.282 564.095 572.911 570.061 576.317 570.061Z" fill="#DEC9B6"/>
<path d="M574.702 571.217C575.009 571.13 577.729 570.061 576.317 570.061C572.911 570.061 572.282 564.095 572.814 558.591C573.163 554.977 574.011 551.563 574.901 550.164C575.751 548.828 574.566 549.215 573.625 549.685C570.342 551.327 566.681 551.748 563.056 551.375C559.335 550.991 555.652 549.77 552.452 548.17C548.894 553.177 549.018 560.997 550.658 566.552C551.18 568.322 552.152 569.654 553.429 570.636C557.454 573.732 564.51 573.358 570.071 572.31C571.806 571.983 573.395 571.591 574.702 571.217Z" fill="#DEC9B6"/>
<path d="M589.654 533.025C587.42 532.422 586.302 529.916 584.191 529.237C579.926 527.866 576.562 532.944 572.348 531.59C567.746 530.111 569.399 526.145 567.603 532.866C567.303 533.989 566.975 535.135 566.635 536.297C567.681 538.387 570.69 539.858 573.066 540.562C576.572 541.601 577.251 538.25 579.805 536.973C582.568 535.591 582.657 538.847 585.188 538.847C589.396 538.847 593.326 537.121 596.233 534.102C597.259 533.037 597.958 531.685 596.233 532.746C594.397 533.876 591.625 533.558 589.654 533.025Z" fill="#DEC9B6"/>
<path d="M584.232 551.675C584.181 551.949 584.118 552.234 584.046 552.528C584.08 554.997 591.503 554.142 592.605 553.723C594.123 553.145 595.215 552.257 596.586 551.549C597.324 551.167 599.751 551.004 600.139 552.006C600.408 552.7 599.809 550.544 599.544 549.848C598.013 545.82 593.091 548.687 590.333 548.776C584.697 548.958 585.986 545.799 585.864 546.114C585.173 547.9 584.588 549.779 584.232 551.675Z" fill="#DEC9B6"/>
<path d="M563.774 593.32C563.458 596.837 563.24 598.804 562.874 602.316V602.482C566.999 604.171 571.738 604.913 576.296 605.393V603.88C576.753 600.218 577.803 596.565 577.803 592.866L575.624 591.173C573.017 592.047 568.581 592.91 563.774 592.568V593.32Z" fill="#DEC9B6"/>
<path d="M563.05 551.436C563.661 545.33 566.023 538.781 567.603 532.866C569.399 526.145 567.746 530.111 572.348 531.59C576.562 532.944 579.926 527.866 584.191 529.237C586.303 529.916 587.42 532.422 589.654 533.025C591.625 533.558 594.397 533.876 596.233 532.746C597.958 531.685 597.259 533.037 596.233 534.102C593.326 537.121 589.397 538.847 585.188 538.847C582.657 538.847 582.568 535.591 579.805 536.973C577.251 538.25 576.572 541.601 573.066 540.562C570.69 539.858 567.681 538.387 566.635 536.297" stroke="#806959" stroke-width="3" stroke-linecap="round"/>
<path d="M582.216 560.485C582.216 557.861 583.746 554.267 584.232 551.675C584.588 549.779 585.173 547.9 585.864 546.114C585.987 545.799 584.697 548.958 590.333 548.776C593.092 548.687 598.013 545.82 599.545 549.848C599.809 550.544 600.408 552.7 600.139 552.006C599.751 551.004 597.324 551.167 596.586 551.549C595.215 552.257 594.123 553.145 592.605 553.723C591.5 554.143 584.046 555.001 584.046 552.511" stroke="#806959" stroke-width="3" stroke-linecap="round"/>
<path d="M576.317 570.061C577.729 570.061 575.008 571.13 574.702 571.217C567.878 573.167 553.34 575.642 550.657 566.552C549.018 560.997 548.894 553.177 552.452 548.17C558.77 551.329 566.972 553.012 573.625 549.685C574.566 549.215 575.751 548.828 574.901 550.164C572.655 553.694 570.675 570.061 576.317 570.061Z" stroke="#806959" stroke-width="3" stroke-linecap="round"/>
<path d="M573.143 557.876C574.576 563.61 595.877 559.932 598.926 558.577C599.539 558.305 597.263 566.98 597.749 569.902C598.268 573.011 599.691 572.766 597.131 574.188C588.725 578.858 573.605 577.845 570.521 573.08" stroke="#806959" stroke-width="3" stroke-linecap="round"/>
<path d="M551.078 584.324C551.189 585.981 551.406 587.391 551.63 588.372C559.906 594.49 571.27 592.72 575.918 591.071C571.42 585.674 571.87 579.377 574.119 575.778C562.964 577.218 555.678 573.08 553.429 570.831C552.823 571.975 552.355 573.189 551.999 574.429" stroke="#806959" stroke-width="3" stroke-linecap="round" stroke-linejoin="round"/>
<path d="M558.826 591.971L558.376 599.617M562.874 602.316L563.774 593.32" stroke="#806959" stroke-width="3" stroke-linecap="round" stroke-linejoin="round"/>
<path d="M598.654 571.613C600.574 569.693 611.24 559.428 609.871 562.166C604.021 573.867 602.976 590.696 609.588 602.451C606.911 601.207 601.017 598.268 597.059 594.669" stroke="#806959" stroke-width="3" stroke-linecap="round"/>
<path d="M576.295 603.88C576.753 600.218 577.802 596.565 577.802 592.866C583.721 594.992 589.808 595.091 595.794 596.801C596.116 596.893 593.478 605.373 592.767 606.937" stroke="#806959" stroke-width="3" stroke-linecap="round"/>
<path d="M603.806 619.858C608.303 616.259 611.902 611.761 613.218 607.35C615.605 601.321 605.609 603.177 601.32 602.15C596.233 600.932 597.18 606.808 592.206 607.35" stroke="#806959" stroke-width="3" stroke-linecap="round"/>
<path d="M536.517 593.48C539.62 591.756 543.86 591.732 547.159 592.866C551.306 594.291 555.028 597.695 558.583 600.178C565.244 604.83 575.088 605.275 582.9 606.001C585.809 606.272 589.4 606.132 592.119 607.341" stroke="#806959" stroke-width="3" stroke-linecap="round"/>
<path d="M524.642 593.76L525.703 592.7C525.581 592.578 525.438 592.477 525.282 592.404L524.642 593.76ZM527.903 599.136L526.529 599.737H526.529L527.903 599.136ZM543.666 623.289C544.336 623.776 545.274 623.627 545.761 622.957C546.248 622.286 546.099 621.348 545.428 620.862L543.666 623.289ZM508 584.324L506.621 583.733C506.492 584.035 506.465 584.37 506.545 584.688L508 584.324ZM509.349 581.176L509.947 579.8C509.58 579.641 509.166 579.634 508.795 579.782C508.425 579.929 508.128 580.218 507.971 580.585L509.349 581.176ZM534.088 590.621L533.027 589.561L533.027 589.561L534.088 590.621ZM547.364 570.13L546.073 569.367V569.367L547.364 570.13ZM550.769 574.521L551.56 573.247L550.769 574.521ZM556.016 576.27L555.769 577.749L556.016 576.27ZM543.224 588.596L542.332 587.391L543.224 588.596ZM536.562 591.78C535.933 592.32 535.86 593.267 536.399 593.896C536.939 594.525 537.885 594.597 538.514 594.058L536.562 591.78ZM561.597 577.163L560.747 575.927V575.927L561.597 577.163ZM523.582 594.821C523.896 595.136 524.19 595.327 524.283 595.395C524.339 595.437 524.382 595.466 524.485 595.605C524.779 596.001 525.321 596.977 526.529 599.737L529.277 598.535C528.091 595.824 527.424 594.533 526.896 593.82C526.588 593.403 526.317 593.167 526.057 592.976C525.834 592.813 525.809 592.805 525.703 592.7L523.582 594.821ZM526.529 599.737C530.955 609.853 534.688 616.771 543.666 623.289L545.428 620.862C537.104 614.818 533.635 608.496 529.277 598.535L526.529 599.737ZM525.282 592.404C522.598 591.138 518.554 589.151 515.146 587.308C513.437 586.384 511.916 585.511 510.812 584.791C510.256 584.429 509.841 584.128 509.57 583.897C509.433 583.78 509.362 583.706 509.334 583.673C509.284 583.613 509.395 583.718 509.455 583.96L506.545 584.688C506.65 585.11 506.889 585.427 507.04 585.606C507.214 585.812 507.419 586.005 507.624 586.181C508.038 586.533 508.574 586.914 509.174 587.304C510.381 588.091 511.986 589.01 513.718 589.947C517.192 591.825 521.289 593.837 524.002 595.117L525.282 592.404ZM509.379 584.915L510.728 581.767L507.971 580.585L506.621 583.733L509.379 584.915ZM508.752 582.552C512.734 584.28 518.754 586.828 523.876 588.856C526.434 589.869 528.788 590.761 530.558 591.356C531.438 591.651 532.21 591.887 532.805 592.025C533.096 592.092 533.401 592.15 533.68 592.168C533.817 592.177 534.007 592.182 534.213 592.148C534.384 592.121 534.796 592.035 535.149 591.682L533.027 589.561C533.335 589.253 533.672 589.197 533.739 589.186C533.842 589.17 533.9 589.176 533.878 589.175C533.838 589.172 533.716 589.156 533.483 589.102C533.031 588.997 532.367 588.799 531.514 588.512C529.82 587.943 527.525 587.074 524.981 586.067C519.9 584.055 513.911 581.52 509.947 579.8L508.752 582.552ZM548.655 570.893C548.747 570.738 548.863 570.521 548.958 570.343C549.064 570.145 549.162 569.962 549.248 569.816C549.291 569.743 549.321 569.696 549.339 569.67C549.37 569.624 549.336 569.683 549.248 569.765C549.212 569.799 549.069 569.934 548.831 570.03C548.559 570.141 548.004 570.25 547.463 569.885C547.018 569.585 546.898 569.162 546.87 569.05C546.832 568.899 546.832 568.787 546.832 568.763H549.832C549.832 568.669 549.826 568.502 549.778 568.311C549.739 568.159 549.605 567.711 549.141 567.398C548.58 567.02 548.002 567.129 547.702 567.25C547.437 567.358 547.263 567.515 547.192 567.581C546.94 567.819 546.742 568.159 546.661 568.297C546.54 568.503 546.415 568.737 546.313 568.927C546.2 569.138 546.123 569.282 546.073 569.367L548.655 570.893ZM549.978 575.795C551.871 576.971 553.838 577.428 555.769 577.749L556.262 574.79C554.444 574.487 552.946 574.107 551.56 573.247L549.978 575.795ZM542.332 587.391C538.325 590.358 538.579 590.052 536.562 591.78L538.514 594.058C540.423 592.422 539.993 592.857 544.117 589.801L542.332 587.391ZM560.747 575.927C557.83 577.936 554.758 579.678 551.619 581.495C548.501 583.299 545.329 585.17 542.332 587.391L544.117 589.801C546.963 587.693 550.002 585.897 553.121 584.091C556.22 582.298 559.412 580.489 562.448 578.398L560.747 575.927ZM555.769 577.749C556.11 577.806 556.508 577.807 556.847 577.798C557.211 577.787 557.624 577.761 558.039 577.73C558.897 577.667 559.763 577.588 560.511 577.561C560.881 577.547 561.175 577.549 561.386 577.565C561.668 577.586 561.59 577.621 561.403 577.512C561.276 577.438 560.975 577.22 560.847 576.78C560.717 576.332 560.859 575.982 560.932 575.848C561.034 575.66 561.099 575.685 560.747 575.927L562.448 578.398C562.82 578.142 563.301 577.773 563.57 577.276C563.727 576.987 563.891 576.504 563.727 575.942C563.566 575.387 563.177 575.074 562.915 574.921C562.458 574.654 561.92 574.597 561.615 574.574C561.239 574.545 560.816 574.548 560.401 574.563C559.579 574.593 558.599 574.681 557.818 574.738C557.412 574.768 557.056 574.791 556.763 574.799C556.618 574.803 556.499 574.803 556.406 574.8C556.36 574.798 556.324 574.796 556.298 574.794C556.271 574.792 556.26 574.79 556.262 574.79L555.769 577.749ZM546.832 568.763C546.832 571.098 547.045 573.975 549.978 575.795L551.56 573.247C550.091 572.335 549.832 571.011 549.832 568.763H546.832ZM535.148 591.682C537.764 589.067 540.249 585.352 542.502 581.605C543.636 579.719 544.726 577.8 545.754 575.976C546.787 574.145 547.753 572.42 548.655 570.893L546.073 569.367C545.151 570.927 544.166 572.686 543.142 574.502C542.113 576.324 541.041 578.212 539.931 580.059C537.697 583.775 535.367 587.221 533.027 589.561L535.148 591.682Z" fill="#806959"/>
<path d="M532.257 596.792C533.768 602.836 535.492 608.76 538.638 614.188C538.972 614.763 542.375 621.063 545.108 621.795" stroke="#806959" stroke-width="3" stroke-linecap="round"/>
<path d="M599.757 570.831C595.26 578.477 597.778 586.393 602.456 591.071C599.372 597.24 580.577 593.625 575.469 591.071" stroke="#806959" stroke-width="3" stroke-linecap="round" stroke-linejoin="round"/>
<path d="M577.718 618.059C583.115 623.906 594.81 623.906 601.107 618.059" stroke="#806959" stroke-width="3" stroke-linecap="round" stroke-linejoin="round"/>
<path d="M554.328 618.059C559.726 623.906 571.42 623.906 577.717 618.059" stroke="#806959" stroke-width="3" stroke-linecap="round" stroke-linejoin="round"/>
<path d="M530.939 618.059C536.337 623.906 548.031 623.906 554.328 618.059" stroke="#806959" stroke-width="3" stroke-linecap="round" stroke-linejoin="round"/>
<path d="M530.939 618.059C527.221 621.511 521.621 622.925 516.546 622.3" stroke="#806959" stroke-width="3" stroke-linecap="round" stroke-linejoin="round"/>
<path d="M601.107 618.059C604.825 621.511 610.425 622.925 615.5 622.3" stroke="#806959" stroke-width="3" stroke-linecap="round" stroke-linejoin="round"/>
<rect x="744.5" y="520.5" width="33" height="25" rx="3.5" stroke="#806959" stroke-width="3"/>
<rect x="756" y="528" width="10" height="9" rx="2" stroke="#806959" stroke-width="3"/>
<path d="M759.889 493.46C760.484 492.803 761.516 492.803 762.111 493.46L784.344 517.993C785.218 518.957 784.534 520.5 783.233 520.5H738.767C737.466 520.5 736.782 518.957 737.656 517.993L759.889 493.46Z" stroke="#806959" stroke-width="3"/>
<path d="M777 509.5V498C777 496.895 776.105 496 775 496H773C771.895 496 771 496.895 771 498V503" stroke="#806959" stroke-width="3" stroke-linecap="round"/>
<rect x="601.5" y="131.5" width="33" height="25" rx="3.5" stroke="#806959" stroke-width="3"/>
<rect x="613" y="139" width="10" height="9" rx="2" stroke="#806959" stroke-width="3"/>
<path d="M616.889 104.46C617.484 103.803 618.516 103.803 619.111 104.46L641.344 128.993C642.218 129.957 641.534 131.5 640.233 131.5H595.767C594.466 131.5 593.782 129.957 594.656 128.993L616.889 104.46Z" stroke="#806959" stroke-width="3"/>
<path d="M634 120V109C634 107.895 633.105 107 632 107H630C628.895 107 628 107.895 628 109V114" stroke="#806959" stroke-width="3" stroke-linecap="round"/>
<path d="M823 512C823 511.448 823.448 511 824 511H833C833.552 511 834 511.448 834 512V524C834 524.552 833.552 525 833 525H824C823.448 525 823 524.552 823 524V512Z" fill="#DEC9B6" stroke="#806959" stroke-width="3"/>
<rect x="789.5" y="500.5" width="33" height="25" rx="3.5" stroke="#806959" stroke-width="3"/>
<rect x="801" y="508" width="10" height="9" rx="2" stroke="#806959" stroke-width="3"/>
<path d="M804.889 473.46C805.484 472.803 806.516 472.803 807.111 473.46L829.344 497.993C830.218 498.957 829.534 500.5 828.233 500.5H783.767C782.466 500.5 781.782 498.957 782.656 497.993L804.889 473.46Z" stroke="#806959" stroke-width="3"/>
</g>
<defs>
<clipPath id="clip0_146_3">
<rect width="1000" height="625" fill="white"/>
</clipPath>
</defs>
</svg>
