<svg width="128" height="88" viewBox="0 0 128 88" fill="none" xmlns="http://www.w3.org/2000/svg">
<g clip-path="url(#clip0_119_213)">
<path fill-rule="evenodd" clip-rule="evenodd" d="M9.583 10.0506C9.49167 9.04951 9.38142 7.84103 10.5657 5.76929C11.5766 4.00095 14.3384 3.25357 17.8403 5.29547C20.2298 6.68878 21.2341 8.67964 22.2834 10.7595C23.1563 12.4897 24.0603 14.2814 25.8185 15.842L64 38.1055L102.181 15.842C103.94 14.2814 104.844 12.4897 105.717 10.7595C106.766 8.67964 107.77 6.68878 110.16 5.29547C113.662 3.25357 116.423 4.00095 117.434 5.76929C118.619 7.84103 118.508 9.04951 118.417 10.0506C118.352 10.7586 118.297 11.3628 118.716 12.0953C119.135 12.8277 119.68 13.0816 120.32 13.3791C121.224 13.7998 122.315 14.3076 123.5 16.3793C124.51 18.1477 123.77 20.937 120.269 22.9789C117.879 24.3722 115.67 24.2552 113.362 24.1331C111.442 24.0314 109.453 23.9262 107.236 24.6837L74.1089 44L107.236 63.3163C109.453 64.0738 111.442 63.9686 113.362 63.8669C115.67 63.7448 117.879 63.6278 120.269 65.0211C123.77 67.063 124.51 69.8523 123.5 71.6207C122.315 73.6924 121.224 74.2002 120.32 74.6209C119.68 74.9184 119.135 75.1723 118.716 75.9047C118.297 76.6372 118.352 77.2414 118.417 77.9494C118.508 78.9505 118.619 80.159 117.434 82.2307C116.423 83.999 113.662 84.7464 110.16 82.7045C107.77 81.3112 106.766 79.3204 105.717 77.2405C104.844 75.5103 103.94 73.7186 102.181 72.158L64 49.8945L25.8185 72.158C24.0603 73.7186 23.1563 75.5103 22.2834 77.2405C21.2342 79.3204 20.2298 81.3112 17.8403 82.7045C14.3384 84.7464 11.5766 83.999 10.5658 82.2307C9.38143 80.159 9.49168 78.9505 9.58302 77.9494C9.6476 77.2414 9.70273 76.6372 9.284 75.9047C8.86528 75.1723 8.31959 74.9184 7.68027 74.6209C6.77614 74.2002 5.68475 73.6924 4.50042 71.6207C3.48953 69.8523 4.22955 67.063 7.73138 65.0211C10.1209 63.6278 12.3303 63.7448 14.6384 63.8669C16.5584 63.9686 18.5468 64.0738 20.7641 63.3163L53.8911 44L20.7641 24.6837C18.5467 23.9262 16.5583 24.0314 14.6383 24.1331C12.3302 24.2552 10.1209 24.3722 7.73136 22.9789C4.22954 20.937 3.48952 18.1477 4.50041 16.3793C5.68474 14.3076 6.77612 13.7998 7.68025 13.3791C8.31957 13.0816 8.86527 12.8277 9.28399 12.0953C9.70271 11.3628 9.64759 10.7586 9.583 10.0506ZM19.1274 28.445C17.8606 28.081 16.6484 28.1161 14.8499 28.2113C14.7826 28.2148 14.7144 28.2185 14.6451 28.2222C12.3967 28.3434 9.14479 28.5186 5.70959 26.5155C1.27394 23.9291 -1.62973 18.9351 0.998583 14.3374C1.79507 12.9441 2.66802 11.8935 3.6442 11.0917C4.34484 10.5163 5.01846 10.1411 5.5125 9.89612C5.47554 9.34153 5.46042 8.56476 5.60354 7.66424C5.80295 6.40954 6.26743 5.12068 7.06392 3.72739C9.69223 -0.870293 15.4264 -0.827622 19.862 1.75879C23.2972 3.76184 24.7729 6.69371 25.7933 8.72087C25.8247 8.78328 25.8557 8.84484 25.8863 8.90548C26.7039 10.5261 27.2799 11.6039 28.2254 12.5299L64 33.39L99.7746 12.5299C100.72 11.6039 101.296 10.5261 102.114 8.90548C102.144 8.84484 102.175 8.78328 102.207 8.72087C103.227 6.69372 104.703 3.76184 108.138 1.75879C112.574 -0.827621 118.308 -0.870293 120.936 3.72739C121.733 5.12068 122.197 6.40954 122.396 7.66423C122.54 8.56477 122.524 9.34153 122.487 9.89612C122.982 10.1411 123.655 10.5163 124.356 11.0917C125.332 11.8935 126.205 12.9441 127.001 14.3374C129.63 18.9351 126.726 23.9291 122.29 26.5155C118.855 28.5186 115.603 28.3434 113.355 28.2222C113.286 28.2185 113.217 28.2148 113.15 28.2113C111.352 28.1161 110.139 28.081 108.873 28.445L82.196 44L108.873 59.555C110.139 59.919 111.352 59.8839 113.15 59.7887C113.217 59.7852 113.286 59.7815 113.355 59.7778C115.603 59.6566 118.855 59.4814 122.29 61.4845C126.726 64.0709 129.63 69.0649 127.001 73.6626C126.205 75.0558 125.332 76.1065 124.356 76.9083C123.655 77.4837 122.982 77.8589 122.487 78.1039C122.524 78.6585 122.54 79.4352 122.396 80.3358C122.197 81.5905 121.733 82.8793 120.936 84.2726C118.308 88.8703 112.574 88.8276 108.138 86.2412C104.703 84.2382 103.227 81.3063 102.207 79.2791C102.175 79.2167 102.144 79.1552 102.114 79.0945C101.296 77.4739 100.72 76.3961 99.7746 75.4701L64 54.61L28.2254 75.4701C27.2799 76.3961 26.7039 77.4739 25.8863 79.0945C25.8557 79.1551 25.8247 79.2167 25.7933 79.2791C24.773 81.3063 23.2973 84.2382 19.8621 86.2412C15.4264 88.8276 9.69224 88.8703 7.06393 84.2726C6.26744 82.8793 5.80296 81.5905 5.60356 80.3358C5.46044 79.4352 5.47555 78.6585 5.51252 78.1039C5.01848 77.8589 4.34485 77.4837 3.64422 76.9083C2.66803 76.1065 1.79508 75.0559 0.998597 73.6626C-1.62972 69.0649 1.27396 64.0709 5.7096 61.4845C9.1448 59.4814 12.3968 59.6566 14.6452 59.7778C14.7144 59.7815 14.7827 59.7852 14.85 59.7887C16.6485 59.8839 17.8607 59.919 19.1274 59.555L45.804 44L19.1274 28.445Z" fill="#E6D4C2"/>
<path d="M64.1429 60.4269C66.5978 60.4269 68.9944 60.348 71.3086 60.1776C71.8242 62.4723 74.4569 66.5526 76.2735 66.5526C78.2244 66.5526 81.1165 60.9057 81.317 58.6932C92.1766 56.0762 99.524 50.1874 99.524 38.9869C99.524 22.5411 83.6833 7.3374 64.1429 7.3374C44.6024 7.3374 28.7617 22.5411 28.7617 38.9869C28.7617 50.1874 36.1091 56.0762 46.9688 58.6932C47.1692 60.9057 50.0613 66.5526 52.0122 66.5526C53.8288 66.5526 56.4615 62.4723 56.9771 60.1776C59.2913 60.348 61.6879 60.4269 64.1429 60.4269Z" fill="#4D3626"/>
<path d="M59.0884 75.2307C59.0884 73.4809 57.5159 69.6154 55.9434 69.6154C54.4281 69.6154 52.1827 72.3312 52.0214 73.8261C50.8952 74.1051 49.9904 75.0986 49.9904 76.3585C49.9904 77.4163 50.6496 78.3569 51.6522 78.6627C54.2544 79.4564 59.4764 80.8459 64.1429 80.8459C68.8093 80.8459 74.0313 79.4564 76.6335 78.6627C77.6361 78.3569 78.2953 77.4163 78.2953 76.3585C78.2953 75.0986 77.3905 74.1051 76.2643 73.8261C76.103 72.3312 73.8576 69.6154 72.3423 69.6154C70.7698 69.6154 69.1973 73.4809 69.1973 75.2307L69.1975 75.2471C67.5378 75.5428 65.8051 75.7412 64.1429 75.7412C62.4806 75.7412 60.7479 75.5428 59.0882 75.2471L59.0884 75.2307Z" fill="#4D3626"/>
<path fill-rule="evenodd" clip-rule="evenodd" d="M59.0883 75.247C60.748 75.5428 62.4807 75.7411 64.143 75.7411C65.8052 75.7411 67.5379 75.5428 69.1976 75.247L69.1974 75.2306C69.1974 73.4808 70.7699 69.6154 72.3424 69.6154C73.8577 69.6154 76.1031 72.3311 76.2644 73.826C77.3906 74.105 78.2954 75.0986 78.2954 76.3584C78.2954 77.4162 77.6362 78.3569 76.6336 78.6627C74.0314 79.4563 68.8094 80.8459 64.143 80.8459C59.4765 80.8459 54.2545 79.4563 51.6524 78.6627C50.6497 78.3569 49.9905 77.4162 49.9905 76.3584C49.9905 75.0986 50.8953 74.105 52.0215 73.826C52.1828 72.3311 54.4282 69.6154 55.9435 69.6154C57.516 69.6154 59.0885 73.4808 59.0885 75.2306L59.0883 75.247ZM62.4146 71.5788C63.0071 71.6298 63.5857 71.6573 64.143 71.6573C64.7002 71.6573 65.2788 71.6298 65.8713 71.5788C66.0799 70.9912 66.3188 70.4323 66.5672 69.9331C66.9657 69.1323 67.5212 68.211 68.2635 67.4261C68.5863 67.0847 69.0874 66.6192 69.7568 66.2351C69.371 65.671 68.9976 65.0562 68.6606 64.4192C67.1744 64.4813 65.6666 64.5106 64.143 64.5106C62.6193 64.5106 61.1115 64.4813 59.6253 64.4192C59.2883 65.0562 58.9149 65.671 58.5291 66.2351C59.1985 66.6192 59.6996 67.0847 60.0225 67.4261C60.7648 68.211 61.3202 69.1323 61.7187 69.9331C61.9671 70.4323 62.2061 70.9912 62.4146 71.5788ZM49.34 69.9101C48.508 69.444 47.8978 68.8603 47.545 68.4976C46.687 67.6156 45.9465 66.5402 45.3568 65.5365C44.7527 64.5084 44.217 63.4015 43.808 62.3591C43.7669 62.2545 43.7259 62.1473 43.6851 62.0378C38.7714 60.584 34.326 58.3442 30.9457 54.9584C26.9273 50.9337 24.7183 45.59 24.7183 38.9868C24.7183 19.9144 42.7555 3.25354 64.143 3.25354C85.5305 3.25354 103.568 19.9144 103.568 38.9868C103.568 45.59 101.359 50.9337 97.3402 54.9584C93.9599 58.3442 89.5146 60.584 84.6008 62.0378C84.5601 62.1473 84.519 62.2545 84.4779 62.3591C84.0689 63.4015 83.5332 64.5084 82.9292 65.5365C82.3395 66.5402 81.5989 67.6156 80.7409 68.4976C80.3881 68.8603 79.7779 69.444 78.946 69.9101C79.0809 70.1192 79.2086 70.332 79.3275 70.5472C79.3919 70.6638 79.4583 70.789 79.5246 70.9223C81.1594 72.087 82.339 73.999 82.339 76.3584C82.339 79.127 80.5957 81.7202 77.8026 82.5721C75.1295 83.3874 69.4334 84.9297 64.143 84.9297C58.8525 84.9297 53.1564 83.3874 50.4834 82.5721C47.6903 81.7202 45.9469 79.127 45.9469 76.3584C45.9469 73.999 47.1265 72.087 48.7613 70.9223C48.8276 70.789 48.894 70.6638 48.9584 70.5472C49.0773 70.332 49.205 70.1192 49.34 69.9101ZM81.3171 58.6932C92.1767 56.0761 99.5241 50.1873 99.5241 38.9868C99.5241 22.541 83.6834 7.33735 64.143 7.33735C44.6025 7.33735 28.7618 22.541 28.7618 38.9868C28.7618 50.1873 36.1092 56.0761 46.9689 58.6932C47.1693 60.9056 50.0614 66.5525 52.0123 66.5525C53.8289 66.5525 56.4616 62.4722 56.9773 60.1775C59.2914 60.348 61.688 60.4268 64.143 60.4268C66.598 60.4268 68.9945 60.348 71.3087 60.1775C71.8243 62.4722 74.457 66.5525 76.2736 66.5525C78.2245 66.5525 81.1166 60.9056 81.3171 58.6932Z" fill="#E6D4C2"/>
<path d="M103.177 71.036L103.066 70.9371L102.937 70.8621L88.3373 62.3489C90.9954 61.3145 93.4942 60.0008 95.7193 58.3372L106.48 64.612L106.61 64.6873L106.751 64.7356C109.244 65.5873 111.479 65.4688 113.369 65.3686L113.441 65.3648C115.769 65.2415 117.553 65.174 119.513 66.3168C122.663 68.1533 122.62 70.1363 122.197 70.8761C121.68 71.7812 121.223 72.2766 120.853 72.5807C120.479 72.8876 120.135 73.0526 119.687 73.2608L119.633 73.2859C118.991 73.5839 118.071 74.0111 117.414 75.1602C116.759 76.3054 116.852 77.3171 116.918 78.0246L116.923 78.0855C116.969 78.5816 117 78.9688 116.923 79.453C116.846 79.9324 116.649 80.5813 116.132 81.4862C115.719 82.2093 114.065 83.2454 110.915 81.4086C108.952 80.264 108.115 78.6645 107.056 76.5648L107.023 76.5C106.164 74.797 105.151 72.7876 103.177 71.036ZM98.7748 19.5648L102.937 17.1377L103.066 17.0627L103.177 16.9638C105.151 15.2123 106.164 13.2028 107.023 11.4998L107.056 11.435C108.115 9.3353 108.952 7.7358 110.915 6.59119C114.065 4.75443 115.719 5.79057 116.132 6.51365C116.649 7.41851 116.846 8.06747 116.923 8.5468C117 9.03098 116.969 9.41829 116.923 9.91428C116.921 9.93435 116.92 9.95467 116.918 9.97526C116.852 10.6828 116.759 11.6945 117.414 12.8396C118.071 13.9887 118.991 14.416 119.633 14.714L119.687 14.739C120.135 14.9473 120.479 15.1122 120.853 15.4191C121.223 15.7233 121.68 16.2186 122.197 17.1237C122.62 17.8636 122.663 19.8465 119.513 21.683C117.553 22.8258 115.769 22.7583 113.441 22.6351L113.369 22.6312C111.479 22.531 109.244 22.4125 106.751 23.2642L106.61 23.3125L106.48 23.3878L102.282 25.836C101.329 23.6451 100.15 21.546 98.7748 19.5648ZM24.8229 16.9638L24.9343 17.0627L25.063 17.1377L29.4291 19.6836C28.0613 21.67 26.8908 23.7739 25.9466 25.9692L21.5197 23.3878L21.3906 23.3125L21.2491 23.2642C18.7564 22.4125 16.5216 22.531 14.6312 22.6312L14.5591 22.6351C12.231 22.7583 10.447 22.8258 8.48703 21.683C5.33757 19.8465 5.37977 17.8636 5.80273 17.1237C6.32013 16.2186 6.77724 15.7233 7.14753 15.4191C7.52119 15.1122 7.86558 14.9473 8.31313 14.739C8.33088 14.7308 8.34887 14.7224 8.36708 14.714C9.00905 14.4159 9.92942 13.9887 10.5863 12.8396C11.2409 11.6945 11.1477 10.6828 11.0825 9.97524C11.0806 9.95466 11.0787 9.93434 11.0769 9.91428C11.0316 9.41828 11.0005 9.03098 11.0775 8.5468C11.1537 8.06747 11.3508 7.41851 11.8681 6.51365C12.2814 5.79057 13.9348 4.75443 17.0848 6.59119C19.0478 7.7358 19.885 9.3353 20.9443 11.435L20.977 11.4999C21.836 13.2028 22.8495 15.2123 24.8229 16.9638ZM21.2491 64.7356L21.3906 64.6873L21.5197 64.612L32.4419 58.2433C34.6508 59.9156 37.134 61.2384 39.7778 62.2819L25.063 70.8621L24.9343 70.9371L24.8229 71.036C22.8495 72.7875 21.836 74.797 20.977 76.5L20.9443 76.5648C19.885 78.6645 19.0478 80.264 17.0848 81.4086C13.9348 83.2454 12.2814 82.2093 11.8681 81.4862C11.3508 80.5813 11.1537 79.9324 11.0775 79.453C11.0006 78.9688 11.0317 78.5816 11.0769 78.0856C11.0787 78.0655 11.0806 78.0452 11.0825 78.0246C11.1477 77.3171 11.241 76.3054 10.5863 75.1602L9.28409 75.9046L10.5863 75.1602C9.92943 74.0111 9.00907 73.5839 8.36708 73.2859C8.34887 73.2774 8.33088 73.2691 8.31315 73.2608C7.86559 73.0526 7.5212 72.8876 7.14754 72.5807C6.77725 72.2766 6.32014 71.7812 5.80274 70.8761L4.50051 71.6206L5.80274 70.8761C5.37979 70.1363 5.33758 68.1533 8.48704 66.3168C10.447 65.174 12.2311 65.2415 14.5592 65.3648L14.6313 65.3686C16.5217 65.4688 18.7564 65.5873 21.2491 64.7356Z" fill="#664E3D" stroke="#332114" stroke-width="3"/>
<path d="M57.0668 41.4898C57.0668 45.4203 56.0244 45.297 53.1717 44.9595C52.1521 44.8389 50.9012 44.691 49.384 44.691C48.0332 44.691 46.6823 44.8083 45.4057 44.9191C41.2369 45.2811 37.8599 45.5743 37.8599 41.4898C37.8599 36.1545 41.7012 30.8192 47.4633 30.8192C53.2254 30.8192 57.0668 36.1545 57.0668 41.4898Z" fill="#E6D4C2"/>
<path d="M67.1757 51.2382C67.1757 53.2117 65.1539 53.2801 64.143 53.2801C63.1321 53.2801 61.1103 53.2117 61.1103 51.2382C61.1103 49.2647 62.1212 46.644 64.143 46.644C66.1648 46.644 67.1757 49.2647 67.1757 51.2382Z" fill="#E6D4C2"/>
<path d="M75.1143 44.9595C72.2616 45.297 71.2192 45.4203 71.2192 41.4898C71.2192 36.1545 75.0606 30.8192 80.8227 30.8192C86.5847 30.8192 90.4261 36.1545 90.4261 41.4898C90.4261 45.5743 87.049 45.2811 82.8802 44.9191C81.6036 44.8083 80.2528 44.691 78.902 44.691C77.3848 44.691 76.1339 44.8389 75.1143 44.9595Z" fill="#E6D4C2"/>
</g>
<defs>
<clipPath id="clip0_119_213">
<rect width="128" height="88" fill="white"/>
</clipPath>
</defs>
</svg>
