<svg width="30" height="30" viewBox="0 0 30 30" fill="none" xmlns="http://www.w3.org/2000/svg">
<g clip-path="url(#clip0_178_53)">
<path fill-rule="evenodd" clip-rule="evenodd" d="M15 12.624L8.11288 5.7369C7.82647 5.2347 7.79449 4.69295 7.76361 4.16982C7.72649 3.54096 7.69095 2.93901 7.21696 2.46502C6.12774 1.3758 4.84052 2.3883 4.46418 3.56973C4.31555 4.03632 4.03632 4.31555 3.56973 4.46418C2.38829 4.84052 1.3758 6.12774 2.46502 7.21696C2.93901 7.69095 3.54096 7.72648 4.16983 7.76359C4.69297 7.79447 5.23473 7.82644 5.73693 8.11285L12.624 15L5.7369 21.8871C5.2347 22.1735 4.69295 22.2055 4.16982 22.2364C3.54096 22.2735 2.93901 22.3091 2.46502 22.783C1.3758 23.8723 2.3883 25.1595 3.56973 25.5358C4.03357 25.6836 4.31571 25.9642 4.46418 26.4303C4.84052 27.6117 6.12774 28.6242 7.21696 27.535C7.69095 27.061 7.72648 26.459 7.76361 25.8302C7.79449 25.3071 7.82647 24.7653 8.11288 24.2631L15 17.376L21.8871 24.2631C22.1735 24.7653 22.2055 25.3071 22.2364 25.8302C22.2735 26.459 22.3091 27.061 22.783 27.535C23.8723 28.6242 25.1595 27.6117 25.5358 26.4303C25.6843 25.9642 25.9664 25.6836 26.4303 25.5358C27.6117 25.1595 28.6242 23.8723 27.535 22.783C27.061 22.3091 26.459 22.2735 25.8302 22.2364C25.3071 22.2055 24.7653 22.1735 24.2631 21.8871L17.376 15L24.2631 8.11285C24.7653 7.82644 25.307 7.79447 25.8302 7.76359C26.459 7.72648 27.061 7.69095 27.535 7.21696C28.6242 6.12774 27.6117 4.84052 26.4303 4.46418C25.9637 4.31555 25.6845 4.03632 25.5358 3.56973C25.1595 2.3883 23.8723 1.3758 22.783 2.46502C22.309 2.93901 22.2735 3.54096 22.2364 4.16982C22.2055 4.69295 22.1735 5.2347 21.8871 5.7369L15 12.624Z" fill="#4D3626"/>
<path fill-rule="evenodd" clip-rule="evenodd" d="M3.95524 20.2451C3.38326 20.2745 2.07818 20.3415 1.05083 21.3688C0.521172 21.8985 0.1418 22.5658 0.0319362 23.3381C-0.0766637 24.1016 0.102202 24.7975 0.394424 25.3551C0.893108 26.3067 1.77135 26.9796 2.66508 27.335C3.02041 28.2287 3.69333 29.1069 4.64491 29.6056C5.20252 29.8978 5.89847 30.0767 6.66193 29.9681C7.43428 29.8582 8.10154 29.4789 8.6312 28.9492C9.65854 27.9219 9.72558 26.6168 9.75496 26.0448C9.75677 26.0097 9.75843 25.9774 9.76016 25.9481C9.77673 25.6673 9.7879 25.5198 9.8107 25.3938L15 20.2044L20.1895 25.3946C20.2123 25.5207 20.2233 25.6673 20.2399 25.9481C20.2416 25.9774 20.2433 26.0097 20.2451 26.0448C20.2745 26.6168 20.3415 27.9219 21.3689 28.9492C21.8985 29.4789 22.5658 29.8582 23.3381 29.9681C24.1016 30.0767 24.7975 29.8978 25.3551 29.6056C26.3067 29.1069 26.9796 28.2287 27.335 27.335C28.2287 26.9796 29.1069 26.3067 29.6056 25.3551C29.8979 24.7975 30.0767 24.1016 29.9681 23.3381C29.8583 22.5658 29.4789 21.8985 28.9492 21.3688C27.9219 20.3415 26.6168 20.2745 26.0448 20.2451C26.0097 20.2433 25.9774 20.2416 25.9481 20.2399C25.6673 20.2233 25.5198 20.2121 25.3938 20.1893L20.2044 15L25.3946 9.81052C25.5207 9.78773 25.6672 9.77672 25.948 9.76014C25.9774 9.75841 26.0097 9.75675 26.0448 9.75495C26.6168 9.72558 27.9219 9.65856 28.9492 8.6312C29.4789 8.10154 29.8583 7.43428 29.9681 6.66193C30.0767 5.89847 29.8979 5.20252 29.6056 4.64491C29.1069 3.69333 28.2287 3.02041 27.335 2.66507C26.9796 1.77134 26.3067 0.893107 25.3551 0.394424C24.7975 0.102202 24.1016 -0.076664 23.3381 0.0319359C22.5658 0.1418 21.8985 0.52117 21.3689 1.05083C20.3415 2.07818 20.2745 3.38325 20.2451 3.95523C20.2433 3.99032 20.2416 4.02265 20.2399 4.05198C20.2233 4.33279 20.2121 4.4802 20.1894 4.6063L15 9.79562L9.81054 4.60543C9.78775 4.47934 9.77674 4.33279 9.76016 4.05198C9.75843 4.02264 9.75677 3.99032 9.75496 3.95524C9.72558 3.38326 9.65855 2.07818 8.6312 1.05083C8.10154 0.52117 7.43428 0.1418 6.66193 0.0319359C5.89847 -0.076664 5.20252 0.102202 4.64491 0.394424C3.69333 0.893106 3.02041 1.77134 2.66507 2.66507C1.77134 3.02041 0.893106 3.69333 0.394424 4.64491C0.102202 5.20252 -0.0766639 5.89847 0.0319358 6.66193C0.1418 7.43428 0.521169 8.10154 1.05083 8.6312C2.07819 9.65856 3.38329 9.72558 3.95527 9.75495C3.99035 9.75675 4.02268 9.75841 4.05202 9.76014C4.33283 9.77672 4.48024 9.78788 4.60633 9.81068L9.79564 15L4.60543 20.1895C4.47933 20.2123 4.33279 20.2233 4.05198 20.2399C4.02265 20.2416 3.99032 20.2433 3.95524 20.2451ZM7.76363 4.16984C7.79452 4.69297 7.8265 5.23473 8.1129 5.73693L15 12.624L21.8871 5.73693C22.1736 5.23473 22.2055 4.69297 22.2364 4.16984C22.2735 3.54098 22.3091 2.93904 22.7831 2.46505C23.8723 1.37583 25.1595 2.38832 25.5358 3.56975C25.6845 4.03635 25.9637 4.31557 26.4303 4.4642C27.6117 4.84055 28.6242 6.12777 27.535 7.21699C27.061 7.69097 26.4591 7.7265 25.8302 7.76362C25.3071 7.79449 24.7653 7.82647 24.2631 8.11287L17.376 15L24.2631 21.8871C24.7653 22.1736 25.3071 22.2055 25.8302 22.2364C26.4591 22.2735 27.061 22.3091 27.535 22.7831C28.6242 23.8723 27.6117 25.1595 26.4303 25.5358C25.9665 25.6836 25.6843 25.9642 25.5358 26.4303C25.1595 27.6117 23.8723 28.6242 22.7831 27.535C22.3091 27.061 22.2735 26.4591 22.2364 25.8302C22.2055 25.3071 22.1736 24.7653 21.8871 24.2631L15 17.376L8.1129 24.2631C7.8265 24.7653 7.79452 25.3071 7.76363 25.8302C7.72651 26.4591 7.69097 27.061 7.21699 27.535C6.12777 28.6242 4.84055 27.6117 4.46421 26.4303C4.31574 25.9642 4.03359 25.6836 3.56975 25.5358C2.38832 25.1595 1.37583 23.8723 2.46505 22.7831C2.93904 22.3091 3.54098 22.2735 4.16984 22.2364C4.69297 22.2055 5.23473 22.1736 5.73693 21.8871L12.6241 15L5.73696 8.11287C5.23476 7.82647 4.69299 7.79449 4.16985 7.76362C3.54099 7.7265 2.93903 7.69097 2.46505 7.21699C1.37583 6.12777 2.38832 4.84055 3.56975 4.4642C4.03634 4.31557 4.31557 4.03635 4.4642 3.56975C4.84055 2.38832 6.12777 1.37583 7.21699 2.46505C7.69098 2.93904 7.72651 3.54098 7.76363 4.16984Z" fill="#E6D4C2"/>
</g>
<defs>
<clipPath id="clip0_178_53">
<rect width="30" height="30" fill="white"/>
</clipPath>
</defs>
</svg>
