<svg width="720" height="996" viewBox="0 0 720 996" fill="none" xmlns="http://www.w3.org/2000/svg">
<g clip-path="url(#clip0_128_426)">
<path fill-rule="evenodd" clip-rule="evenodd" d="M63 126.95C63 130.264 60.3137 132.95 57 132.95H6C2.68629 132.95 0 135.636 0 138.95V400.625C0 403.939 2.68629 406.625 6 406.625H20.1595C21.8507 406.625 23.4916 405.929 24.4337 404.524C28.4459 398.542 33.6538 385.066 36.0001 359.475C37.4704 343.438 37.7894 328.13 38.0664 314.841C38.5241 292.88 38.8668 276.434 44.1001 271.325C54.4502 261.22 54.4912 247.939 56.1001 234.425C58.3538 215.496 57.9195 218.011 59.4 216.488C57 226.225 59.2645 233.426 59.4 235.963C60.1557 250.114 62.1193 265.723 54.3001 275.938C44.9421 288.162 46.4422 332.74 46.7536 341.996L46.7544 342.019C46.782 342.839 46.8001 343.378 46.8001 343.588C46.8001 343.889 46.7959 344.867 46.7587 346.406C46.6357 351.488 57.2993 352.812 60.9 356.4V356.4C68.1 363.575 79.5 358.963 80.7 352.3C80.1 358.45 79.8 360.5 73.2 364.6C71.3 365.72 65.76 367.288 58.8 364.6C53.3598 362.499 45.8545 379.907 40.7827 394.752C38.2569 405.524 34.6713 416.429 29.5817 425.729C29.0786 426.648 28.8 427.675 28.8 428.723V519.525C28.8 522.839 26.1137 525.525 22.8 525.525H22.2C18.8863 525.525 16.2 528.211 16.2 531.525V718.375C16.2 721.689 18.8863 724.375 22.2 724.375H37.2C40.5137 724.375 43.2 727.061 43.2 730.375V909.45C43.2 912.764 45.8863 915.45 49.2 915.45H172.8C176.114 915.45 178.8 912.764 178.8 909.45V901.15C178.8 897.836 181.486 895.15 184.8 895.15H225.6C228.914 895.15 231.6 897.836 231.6 901.15V941.225C231.6 944.539 234.286 947.225 237.6 947.225H426.6C429.914 947.225 432.6 949.911 432.6 953.225V966.753C432.6 970.085 435.315 972.779 438.647 972.752L502.753 972.248C506.085 972.221 508.8 974.915 508.8 978.248V990C508.8 993.314 511.486 996 514.8 996H619.2C622.514 996 625.2 993.314 625.2 990V953.825C625.2 950.511 622.514 947.825 619.2 947.825H574.2C570.886 947.825 568.2 945.139 568.2 941.825V874.9C568.2 871.586 570.886 868.9 574.2 868.9H633C636.314 868.9 639 871.586 639 874.9V933.625C639 936.939 641.686 939.625 645 939.625H668.4C671.714 939.625 674.4 942.311 674.4 945.625V990C674.4 993.314 677.086 996 680.4 996H714C717.314 996 720 993.314 720 990V46.7C720 43.3863 717.314 40.7 714 40.7H426.6C423.286 40.7 420.6 43.3863 420.6 46.7V59.1C420.6 62.4137 417.914 65.1 414.6 65.1H205.8C202.486 65.1 199.8 62.4137 199.8 59.1V18C199.8 14.6863 197.114 12 193.8 12H69C65.6863 12 63 14.6863 63 18V126.95Z" fill="#DEC9B6"/>
<path fill-rule="evenodd" clip-rule="evenodd" d="M73.2 364.6C71.3 365.72 65.76 367.288 58.8 364.6C53.3598 362.499 45.8545 379.907 40.7827 394.752C38.2569 405.524 34.6713 416.429 29.5817 425.729C29.0786 426.648 28.8 427.675 28.8 428.723V519.525C28.8 522.839 26.1137 525.525 22.8 525.525H22.2C18.8863 525.525 16.2 528.211 16.2 531.525V718.375C16.2 721.689 18.8863 724.375 22.2 724.375H37.2C40.5137 724.375 43.2 727.061 43.2 730.375V909.45C43.2 912.764 45.8863 915.45 49.2 915.45H172.8C176.114 915.45 178.8 912.764 178.8 909.45V901.15C178.8 897.836 181.486 895.15 184.8 895.15H225.6C228.914 895.15 231.6 897.836 231.6 901.15V941.225C231.6 944.539 234.286 947.225 237.6 947.225H426.6C429.914 947.225 432.6 949.911 432.6 953.225V966.753C432.6 970.085 435.315 972.779 438.647 972.752L502.753 972.248C506.085 972.221 508.8 974.915 508.8 978.248V990C508.8 993.314 511.486 996 514.8 996H619.2C622.514 996 625.2 993.314 625.2 990V953.825C625.2 950.511 622.514 947.825 619.2 947.825H574.2C570.886 947.825 568.2 945.139 568.2 941.825V874.9C568.2 871.586 570.886 868.9 574.2 868.9H633C636.314 868.9 639 871.586 639 874.9V933.625C639 936.939 641.686 939.625 645 939.625H668.4C671.714 939.625 674.4 942.311 674.4 945.625V990C674.4 993.314 677.086 996 680.4 996H714C717.314 996 720 993.314 720 990V46.7C720 43.3863 717.314 40.7 714 40.7H426.6C423.286 40.7 420.6 43.3863 420.6 46.7V59.1C420.6 62.4137 417.914 65.1 414.6 65.1H205.8C202.486 65.1 199.8 62.4137 199.8 59.1V18C199.8 14.6863 197.114 12 193.8 12H69C65.6863 12 63 14.6863 63 18V126.95C63 130.264 60.3137 132.95 57 132.95H6C2.68629 132.95 0 135.636 0 138.95V400.625C0 403.939 2.68629 406.625 6 406.625H20.1595C21.8507 406.625 23.4916 405.929 24.4337 404.524C28.4459 398.542 33.6538 385.066 36.0001 359.475C37.4704 343.438 37.7894 328.13 38.0664 314.841C38.5241 292.88 38.8668 276.434 44.1001 271.325C53.139 262.5 54.3153 251.253 55.54 239.544C55.7176 237.845 55.8963 236.137 56.1001 234.425C56.1066 234.37 56.1131 234.316 56.1196 234.261C57.9098 219.219 57.9889 217.85 58.7121 217.113C58.8905 216.931 59.108 216.788 59.4 216.488C57.5051 224.176 58.518 230.282 59.0949 233.761C59.116 233.888 59.1364 234.011 59.1562 234.131C59.2806 234.887 59.3754 235.502 59.4 235.963C59.4799 237.46 59.5734 238.973 59.6674 240.495C60.4616 253.356 61.2921 266.803 54.3001 275.938C44.9421 288.162 46.4422 332.74 46.7536 341.996L46.7544 342.019C46.782 342.839 46.8001 343.378 46.8001 343.588C46.8001 343.889 46.7959 344.867 46.7587 346.406C46.6833 349.522 50.661 351.225 54.5805 352.903C57.0551 353.962 59.5065 355.011 60.9 356.4C65.6126 361.096 72.1245 360.743 76.3979 358.07C78.6535 356.659 80.2854 354.602 80.7 352.3C80.3411 355.979 80.0895 358.191 78.5325 360.252C77.4866 361.636 75.8519 362.953 73.2 364.6ZM49.7567 342.036C49.781 342.758 49.8001 343.326 49.8001 343.588C49.8001 343.913 49.7956 344.915 49.7578 346.479L49.7576 346.485C49.7551 346.549 49.7456 346.798 50.3681 347.334C51.0627 347.933 52.1622 348.542 53.6782 349.234C54.3455 349.539 55.0376 349.835 55.7665 350.147L55.9923 350.244C56.7887 350.585 57.6262 350.946 58.4318 351.325C59.9782 352.053 61.7266 352.989 63.0176 354.275C65.7424 356.99 69.2267 357.492 72.2431 356.65C75.435 355.758 77.416 353.609 77.7475 351.768C78.0328 350.184 79.5175 349.107 81.1119 349.328C82.7063 349.549 83.8421 350.989 83.6858 352.591L83.6706 352.747C83.3916 355.611 83.133 358.265 81.8358 360.651C80.4731 363.159 78.183 365.036 74.7831 367.148C74.7633 367.161 74.7434 367.173 74.7233 367.185C72.0345 368.769 65.5895 370.393 57.8453 367.447C57.6862 367.497 57.2746 367.699 56.5382 368.445C55.2944 369.705 53.8491 371.847 52.2966 374.74C49.2419 380.432 46.1793 388.25 43.6693 395.583C41.1096 406.46 37.4554 417.59 32.2134 427.169C31.937 427.674 31.8 428.209 31.8 428.723V519.525C31.8 524.496 27.7706 528.525 22.8 528.525H22.2C20.5431 528.525 19.2 529.868 19.2 531.525V718.375C19.2 720.032 20.5431 721.375 22.2 721.375H37.2C42.1706 721.375 46.2 725.404 46.2 730.375V909.45C46.2 911.107 47.5431 912.45 49.2 912.45H172.8C174.457 912.45 175.8 911.107 175.8 909.45V901.15C175.8 896.18 179.829 892.15 184.8 892.15H225.6C230.571 892.15 234.6 896.18 234.6 901.15V941.225C234.6 942.882 235.943 944.225 237.6 944.225H426.6C431.571 944.225 435.6 948.254 435.6 953.225V966.753C435.6 968.419 436.958 969.766 438.624 969.753L502.729 969.248C507.727 969.208 511.8 973.249 511.8 978.248V990C511.8 991.657 513.143 993 514.8 993H619.2C620.857 993 622.2 991.657 622.2 990V953.825C622.2 952.168 620.857 950.825 619.2 950.825H574.2C569.229 950.825 565.2 946.796 565.2 941.825V874.9C565.2 869.93 569.229 865.9 574.2 865.9H633C637.971 865.9 642 869.93 642 874.9V933.625C642 935.282 643.343 936.625 645 936.625H668.4C673.371 936.625 677.4 940.655 677.4 945.625V990C677.4 991.657 678.743 993 680.4 993H714C715.657 993 717 991.657 717 990V46.7C717 45.0432 715.657 43.7 714 43.7H426.6C424.943 43.7 423.6 45.0432 423.6 46.7V59.1C423.6 64.0706 419.571 68.1 414.6 68.1H205.8C200.829 68.1 196.8 64.0706 196.8 59.1V18C196.8 16.3431 195.457 15 193.8 15H69C67.3431 15 66 16.3431 66 18V126.95C66 131.921 61.9706 135.95 57 135.95H6C4.34315 135.95 3 137.293 3 138.95V400.625C3 402.282 4.34314 403.625 6 403.625H20.1595C21.079 403.625 21.6735 403.254 21.9422 402.853C25.5497 397.475 30.6859 384.578 33.0126 359.201C34.4719 343.285 34.7899 328.078 35.067 314.778L35.0696 314.656C35.2964 303.773 35.4986 294.069 36.3092 286.446C36.7166 282.615 37.2888 279.19 38.1387 276.335C38.9759 273.524 40.1663 270.973 42.0045 269.178C50.2149 261.162 51.2869 251.092 52.5413 239.307C52.7233 237.597 52.9091 235.851 53.1211 234.07C53.3317 232.302 53.5194 230.715 53.6878 229.29C54.411 223.175 54.7807 220.048 55.0905 218.381C55.2733 217.397 55.5166 216.364 56.1644 215.487C56.4813 215.059 56.8208 214.771 56.9736 214.641L57.0184 214.603C57.1508 214.491 57.1879 214.459 57.2488 214.396C58.1929 213.425 59.6707 213.207 60.8552 213.864C62.0397 214.521 62.637 215.89 62.3128 217.205C60.5928 224.184 61.4329 229.344 62.0131 232.907C62.1956 234.028 62.3524 234.991 62.3957 235.803C62.4725 237.241 62.5637 238.715 62.6563 240.211C63.0085 245.902 63.381 251.922 63.0609 257.595C62.6542 264.803 61.121 271.962 56.6823 277.761C54.7928 280.229 53.2313 284.713 52.0745 290.685C50.9406 296.54 50.2706 303.396 49.8964 310.244C49.1484 323.93 49.5964 337.273 49.7519 341.895L49.7567 342.036ZM57.9228 367.433C57.9225 367.436 57.9079 367.439 57.8801 367.437C57.9093 367.431 57.9231 367.431 57.9228 367.433Z" fill="#806959"/>
<path d="M87.2014 342.094C85.8376 346.91 83.1453 347.686 82.5 351.1L79.8 350.1C80.8221 346.129 85.6655 346.076 87.2014 342.094C87.2426 341.948 87.2825 341.799 87.3211 341.647C87.4289 341.22 87.5291 340.77 87.6202 340.295C87.5701 340.774 87.4834 341.21 87.3658 341.609C87.3163 341.777 87.2614 341.938 87.2014 342.094Z" fill="#7F6959"/>
<path fill-rule="evenodd" clip-rule="evenodd" d="M91.4988 330.121C90.5193 331.556 89.4823 334.006 89.0529 337.863C88.991 338.419 88.9181 338.952 88.8352 339.464C89.5273 339.203 90.2892 339.06 91.0645 339.142C92.7425 339.318 94.2861 340.519 95.2872 343.284C95.5013 343.875 95.2148 344.68 94.6474 345.081C94.0799 345.483 93.4464 345.329 93.2324 344.738C92.4127 342.474 91.2941 341.817 90.3727 341.72C89.5777 341.637 88.7854 341.955 88.2044 342.341C87.4321 344.998 86.2772 346.584 85.3224 347.847L85.2807 347.902C84.3499 349.133 83.8027 349.857 83.5706 351.085C83.4934 351.494 83.2612 351.88 82.9443 352.128C82.6273 352.376 82.2628 352.456 81.9609 352.344L79.2609 351.344C78.8079 351.177 78.5961 350.619 78.7534 350.008C79.4465 347.315 81.4607 345.99 82.8954 345.046C82.9171 345.032 82.9386 345.018 82.96 345.004C84.5738 343.942 85.6495 343.206 86.1887 341.879C86.2173 341.776 86.2453 341.67 86.2727 341.562C86.3721 341.168 86.4653 340.75 86.5506 340.305C86.6782 339.641 86.7881 338.919 86.8755 338.134C87.3486 333.885 88.5296 330.843 89.9174 328.811C91.2699 326.83 92.9049 325.719 94.1567 325.719C94.7463 325.719 95.1095 326.298 94.9678 327.013C94.826 327.727 94.2331 328.306 93.6434 328.306C93.3953 328.306 92.5136 328.635 91.4988 330.121ZM82.8594 347.739C82.1477 348.242 81.6326 348.687 81.2847 349.206L81.9281 349.444C82.1951 348.803 82.5203 348.244 82.8594 347.739Z" fill="#806959"/>
<path d="M61.1999 215.288C61.2158 215.239 61.2317 215.19 61.2476 215.141C61.1781 214.767 58.4268 216.318 57.5999 216C58.9074 212.624 63.7498 205.194 64.5288 201.481C64.5432 201.406 64.5576 201.331 64.5719 201.256C64.5594 201.329 64.545 201.404 64.5288 201.481C63.5153 206.772 62.2888 211.911 61.2476 215.141C61.2538 215.174 61.2389 215.222 61.1999 215.288Z" fill="#806959"/>
<path fill-rule="evenodd" clip-rule="evenodd" d="M73.1191 171.263C73.5262 171.816 73.436 172.566 72.9176 172.938C70.8615 174.416 66.7845 179.202 67.4124 186.143C67.5219 187.354 67.512 188.731 67.4128 190.21C68.6399 189.058 70.0588 187.993 71.529 187.35C72.8797 186.76 74.4179 186.463 75.9407 186.96C77.5054 187.472 78.7842 188.731 79.7263 190.689C80.0222 191.305 79.7848 192.011 79.1958 192.266C78.6069 192.522 77.8895 192.23 77.5936 191.615C76.8649 190.1 76.0637 189.482 75.3582 189.252C74.6108 189.008 73.6883 189.104 72.6066 189.576C70.5111 190.493 68.363 192.588 66.9539 194.379C66.6214 196.69 66.2064 199.137 65.7466 201.555C65.7324 201.637 65.7166 201.719 65.6994 201.802C64.6941 207.048 63.4749 212.175 62.4223 215.472C62.4096 215.543 62.3931 215.603 62.3788 215.647C62.3365 215.779 62.2798 215.887 62.2356 215.961C61.961 216.424 61.3994 216.607 60.8812 216.424C60.7653 216.467 60.6363 216.516 60.4926 216.57C60.3993 216.606 60.2999 216.644 60.1939 216.684C59.7938 216.834 59.3183 217.007 58.8759 217.119C58.6541 217.175 58.4083 217.224 58.1622 217.242C57.9355 217.259 57.5976 217.259 57.2479 217.124C56.9329 217.003 56.6722 216.759 56.5275 216.45C56.3829 216.141 56.3672 215.794 56.4843 215.491C57.029 214.085 58.1465 212.028 59.3023 209.901C59.6034 209.346 59.9071 208.788 60.2039 208.234C61.6967 205.451 63.0065 202.823 63.3584 201.161L63.3993 200.946C63.8741 198.451 64.2994 195.93 64.6332 193.57C65.0406 190.69 65.2109 188.129 65.0355 186.19C64.3116 178.188 68.9652 172.719 71.4434 170.938C71.9618 170.565 72.712 170.711 73.1191 171.263ZM60.8346 212.246C60.4623 212.935 60.1121 213.59 59.7997 214.196C59.9864 214.126 60.1676 214.061 60.3241 214.011C60.4905 213.466 60.6613 212.876 60.8346 212.246ZM57.7854 214.837C57.7855 214.836 57.7887 214.836 57.7948 214.837C57.7883 214.837 57.7853 214.837 57.7854 214.837Z" fill="#806959"/>
<path fill-rule="evenodd" clip-rule="evenodd" d="M40.7423 261.016C41.1469 264.933 40.4016 269.217 39.4078 272.43C39.1753 273.181 39.3377 274.008 39.7705 274.277C40.2034 274.546 40.7427 274.155 40.9751 273.404C42.0898 269.8 42.9843 264.837 42.4986 260.135C42.0032 255.34 40.0914 251.019 35.8467 248.737C35.4046 248.5 34.8725 248.925 34.6581 249.687C34.4438 250.449 34.6284 251.259 35.0704 251.497C38.8384 253.522 40.3473 257.192 40.7423 261.016Z" fill="#806959"/>
<path d="M555.02 792.785C555.02 792.123 555.558 791.585 556.22 791.585H561.874C562.537 791.585 563.074 792.123 563.074 792.785V806.493C563.074 807.156 562.537 807.693 561.874 807.693H556.22C555.558 807.693 555.02 807.156 555.02 806.493V792.785Z" fill="#DEC9B6"/>
<path fill-rule="evenodd" clip-rule="evenodd" d="M554.12 792.785C554.12 791.626 555.061 790.685 556.22 790.685H561.874C563.034 790.685 563.974 791.626 563.974 792.785V806.493C563.974 807.653 563.034 808.593 561.874 808.593H556.22C555.061 808.593 554.12 807.653 554.12 806.493V792.785ZM556.22 792.485C556.055 792.485 555.92 792.62 555.92 792.785V806.493C555.92 806.658 556.055 806.793 556.22 806.793H561.874C562.04 806.793 562.174 806.658 562.174 806.493V792.785C562.174 792.62 562.04 792.485 561.874 792.485H556.22Z" fill="#806959"/>
<path d="M557.985 775.986C558.435 775.131 559.659 775.131 560.109 775.986L563.155 781.773C563.576 782.572 562.996 783.532 562.093 783.532H556.001C555.098 783.532 554.519 782.572 554.939 781.773L557.985 775.986Z" fill="#DEC9B6"/>
<path fill-rule="evenodd" clip-rule="evenodd" d="M557.189 775.566C557.976 774.07 560.118 774.07 560.906 775.566L563.951 781.354C564.687 782.752 563.673 784.432 562.093 784.432H556.001C554.421 784.432 553.407 782.752 554.143 781.354L557.189 775.566ZM559.313 776.405C559.2 776.191 558.894 776.191 558.782 776.405L555.736 782.192C555.631 782.392 555.776 782.632 556.001 782.632H562.093C562.319 782.632 562.464 782.392 562.359 782.192L559.313 776.405Z" fill="#806959"/>
<path d="M552.503 784.228C552.503 783.566 553.041 783.028 553.703 783.028H564.391C565.053 783.028 565.591 783.566 565.591 784.228V790.615C565.591 791.278 565.053 791.815 564.391 791.815H553.703C553.041 791.815 552.503 791.278 552.503 790.615V784.228Z" fill="#DEC9B6"/>
<path fill-rule="evenodd" clip-rule="evenodd" d="M551.604 784.228C551.604 783.069 552.544 782.128 553.704 782.128H564.391C565.551 782.128 566.491 783.069 566.491 784.228V790.615C566.491 791.775 565.551 792.715 564.391 792.715H553.704C552.544 792.715 551.604 791.775 551.604 790.615V784.228ZM553.704 783.928C553.538 783.928 553.404 784.063 553.404 784.228V790.615C553.404 790.781 553.538 790.915 553.704 790.915H564.391C564.556 790.915 564.691 790.781 564.691 790.615V784.228C564.691 784.063 564.556 783.928 564.391 783.928H553.704Z" fill="#806959"/>
<path fill-rule="evenodd" clip-rule="evenodd" d="M617.475 782.335C617.955 781.681 618.931 781.681 619.411 782.335L622.579 786.656C623.161 787.448 622.595 788.565 621.612 788.565H615.274C614.291 788.565 613.725 787.448 614.306 786.656L617.475 782.335ZM576.161 789.765C576.161 789.103 576.698 788.565 577.361 788.565H597.612C598.275 788.565 598.812 789.103 598.812 789.765V809.513C598.812 810.176 599.349 810.713 600.012 810.713H611.203C611.865 810.713 612.403 810.176 612.403 809.513V798.597C612.403 797.934 612.94 797.397 613.603 797.397H623.283C623.946 797.397 624.483 797.934 624.483 798.597V809.513C624.483 810.176 625.02 810.713 625.683 810.713H625.8C626.463 810.713 627 811.25 627 811.913V834.177C627 834.84 626.463 835.377 625.8 835.377H553.2C552.537 835.377 552 834.84 552 834.177V812.727V810.713V804.673V803.163V801.968C552 801.305 552.537 800.768 553.2 800.768H553.823C554.484 800.768 555.02 801.304 555.02 801.965V801.965C555.02 802.627 555.556 803.163 556.218 803.163H556.843C557.504 803.163 558.04 802.627 558.04 801.965V801.965C558.04 801.304 558.576 800.768 559.238 800.768H559.863C560.524 800.768 561.06 801.304 561.06 801.965V801.965C561.06 802.627 561.596 803.163 562.258 803.163H562.883C563.544 803.163 564.081 802.627 564.081 801.965V801.965C564.081 801.304 564.617 800.768 565.278 800.768H565.903C566.565 800.768 567.101 801.304 567.101 801.965V801.965C567.101 802.627 567.637 803.163 568.298 803.163H568.921C569.584 803.163 570.121 802.626 570.121 801.963V801.846C570.121 801.183 570.658 800.646 571.321 800.646H571.941C572.604 800.646 573.141 801.183 573.141 801.846V801.963C573.141 802.626 573.678 803.163 574.341 803.163H574.961C575.624 803.163 576.161 802.626 576.161 801.963V789.765Z" fill="#DEC9B6"/>
<path fill-rule="evenodd" clip-rule="evenodd" d="M616.75 781.802C617.589 780.658 619.297 780.658 620.137 781.802L623.305 786.124C624.323 787.511 623.332 789.465 621.612 789.465H615.274C613.554 789.465 612.564 787.511 613.581 786.124L616.75 781.802ZM618.685 782.867C618.565 782.703 618.321 782.703 618.201 782.867L615.032 787.188C614.887 787.386 615.028 787.665 615.274 787.665H621.612C621.858 787.665 621.999 787.386 621.854 787.188L618.685 782.867ZM575.261 789.765C575.261 788.606 576.201 787.665 577.361 787.665H597.612C598.772 787.665 599.712 788.606 599.712 789.765V809.513C599.712 809.679 599.846 809.813 600.012 809.813H611.203C611.368 809.813 611.503 809.679 611.503 809.513V798.597C611.503 797.437 612.443 796.497 613.603 796.497H623.283C624.443 796.497 625.383 797.437 625.383 798.597V809.513C625.383 809.679 625.518 809.813 625.683 809.813H625.8C626.96 809.813 627.9 810.753 627.9 811.913V834.177C627.9 835.337 626.96 836.277 625.8 836.277H553.2C552.04 836.277 551.1 835.337 551.1 834.177V801.968C551.1 800.808 552.04 799.868 553.2 799.868H553.823C554.981 799.868 555.92 800.807 555.92 801.965C555.92 802.13 556.053 802.263 556.218 802.263H556.843C557.007 802.263 557.14 802.13 557.14 801.965C557.14 800.807 558.079 799.868 559.238 799.868H559.863C561.021 799.868 561.961 800.807 561.961 801.965C561.961 802.13 562.094 802.263 562.258 802.263H562.883C563.047 802.263 563.181 802.13 563.181 801.965C563.181 800.807 564.12 799.868 565.278 799.868H565.903C567.062 799.868 568.001 800.807 568.001 801.965C568.001 802.13 568.134 802.263 568.298 802.263H568.921C569.087 802.263 569.221 802.128 569.221 801.963V801.846C569.221 800.686 570.161 799.746 571.321 799.746H571.941C573.101 799.746 574.041 800.686 574.041 801.846V801.963C574.041 802.128 574.175 802.263 574.341 802.263H574.961C575.127 802.263 575.261 802.128 575.261 801.963V789.765ZM577.361 789.465C577.195 789.465 577.061 789.6 577.061 789.765V801.963C577.061 803.123 576.121 804.063 574.961 804.063H574.341C573.181 804.063 572.241 803.123 572.241 801.963V801.846C572.241 801.68 572.107 801.546 571.941 801.546H571.321C571.155 801.546 571.021 801.68 571.021 801.846V801.963C571.021 803.123 570.081 804.063 568.921 804.063H568.298C567.14 804.063 566.201 803.124 566.201 801.965C566.201 801.801 566.068 801.668 565.903 801.668H565.278C565.114 801.668 564.981 801.801 564.981 801.965C564.981 803.124 564.042 804.063 562.883 804.063H562.258C561.1 804.063 560.161 803.124 560.161 801.965C560.161 801.801 560.027 801.668 559.863 801.668H559.238C559.074 801.668 558.94 801.801 558.94 801.965C558.94 803.124 558.001 804.063 556.843 804.063H556.218C555.059 804.063 554.12 803.124 554.12 801.965C554.12 801.801 553.987 801.668 553.823 801.668H553.2C553.034 801.668 552.9 801.802 552.9 801.968V834.177C552.9 834.343 553.034 834.477 553.2 834.477H625.8C625.966 834.477 626.1 834.343 626.1 834.177V811.913C626.1 811.747 625.966 811.613 625.8 811.613H625.683C624.524 811.613 623.583 810.673 623.583 809.513V798.597C623.583 798.431 623.449 798.297 623.283 798.297H613.603C613.437 798.297 613.303 798.431 613.303 798.597V809.513C613.303 810.673 612.363 811.613 611.203 811.613H600.012C598.852 811.613 597.912 810.673 597.912 809.513V789.765C597.912 789.6 597.778 789.465 597.612 789.465H577.361Z" fill="#806959"/>
<path d="M586.679 760.349C587.131 759.502 588.345 759.502 588.797 760.349L602.904 786.801C603.331 787.6 602.752 788.565 601.846 788.565H573.631C572.725 788.565 572.146 787.6 572.572 786.801L586.679 760.349Z" fill="#DEC9B6"/>
<path fill-rule="evenodd" clip-rule="evenodd" d="M585.885 759.926C586.676 758.443 588.801 758.443 589.591 759.926L603.699 786.377C604.445 787.776 603.431 789.465 601.846 789.465H573.631C572.046 789.465 571.032 787.776 571.778 786.377L585.885 759.926ZM588.003 760.773C587.89 760.561 587.587 760.561 587.474 760.773L573.366 787.224C573.26 787.424 573.405 787.665 573.631 787.665H601.846C602.072 787.665 602.217 787.424 602.11 787.224L588.003 760.773Z" fill="#806959"/>
<path d="M610.893 789.81C610.893 789.147 611.43 788.61 612.093 788.61H624.793C625.456 788.61 625.993 789.147 625.993 789.81V796.197C625.993 796.859 625.456 797.397 624.793 797.397H612.093C611.43 797.397 610.893 796.859 610.893 796.197V789.81Z" fill="#DEC9B6"/>
<path fill-rule="evenodd" clip-rule="evenodd" d="M609.993 789.81C609.993 788.65 610.933 787.71 612.093 787.71H624.793C625.953 787.71 626.893 788.65 626.893 789.81V796.197C626.893 797.357 625.953 798.297 624.793 798.297H612.093C610.933 798.297 609.993 797.357 609.993 796.197V789.81ZM612.093 789.51C611.927 789.51 611.793 789.645 611.793 789.81V796.197C611.793 796.362 611.927 796.497 612.093 796.497H624.793C624.959 796.497 625.093 796.362 625.093 796.197V789.81C625.093 789.645 624.959 789.51 624.793 789.51H612.093Z" fill="#806959"/>
<path d="M579.181 824.915C579.181 820.189 583.013 816.358 587.738 816.358L-nan -nanL-nan -nanL587.738 816.358C592.464 816.358 596.295 820.189 596.295 824.915V835.395H579.181V824.915Z" fill="#DEC9B6"/>
<path fill-rule="evenodd" clip-rule="evenodd" d="M578.281 824.915C578.281 819.692 582.515 815.458 587.738 815.458C592.961 815.458 597.195 819.692 597.195 824.915V836.296H578.281V824.915ZM587.738 817.258C583.509 817.258 580.081 820.686 580.081 824.915V834.496H595.395V824.915C595.395 820.686 591.967 817.258 587.738 817.258Z" fill="#806959"/>
<path fill-rule="evenodd" clip-rule="evenodd" d="M587.738 815.702C588.235 815.702 588.638 816.105 588.638 816.602V835.395C588.638 835.893 588.235 836.295 587.738 836.295C587.241 836.295 586.838 835.893 586.838 835.395V816.602C586.838 816.105 587.241 815.702 587.738 815.702Z" fill="#806959"/>
<path d="M557.034 813.581C557.034 812.469 557.935 811.568 559.047 811.568V811.568C560.159 811.568 561.061 812.469 561.061 813.581V815.849C561.061 816.181 560.792 816.449 560.461 816.449H557.634C557.302 816.449 557.034 816.181 557.034 815.849V813.581Z" fill="#DEC9B6"/>
<path fill-rule="evenodd" clip-rule="evenodd" d="M556.134 813.581C556.134 811.972 557.438 810.668 559.047 810.668C560.656 810.668 561.96 811.972 561.96 813.581V815.849C561.96 816.678 561.289 817.349 560.46 817.349H557.634C556.805 817.349 556.134 816.678 556.134 815.849V813.581ZM559.047 812.468C558.432 812.468 557.934 812.966 557.934 813.581V815.549H560.16V813.581C560.16 812.966 559.662 812.468 559.047 812.468Z" fill="#806959"/>
<path d="M565.087 813.581C565.087 812.469 565.989 811.568 567.101 811.568V811.568C568.213 811.568 569.114 812.469 569.114 813.581V815.849C569.114 816.181 568.846 816.449 568.514 816.449H565.687C565.356 816.449 565.087 816.181 565.087 815.849V813.581Z" fill="#DEC9B6"/>
<path fill-rule="evenodd" clip-rule="evenodd" d="M564.187 813.581C564.187 811.972 565.492 810.668 567.101 810.668C568.71 810.668 570.014 811.972 570.014 813.581V815.849C570.014 816.678 569.343 817.349 568.514 817.349H565.687C564.859 817.349 564.187 816.678 564.187 815.849V813.581ZM567.101 812.468C566.486 812.468 565.987 812.966 565.987 813.581V815.549H568.214V813.581C568.214 812.966 567.716 812.468 567.101 812.468Z" fill="#806959"/>
<path d="M616.43 805.329C616.43 804.217 617.331 803.315 618.443 803.315V803.315C619.555 803.315 620.457 804.217 620.457 805.329V807.597C620.457 807.928 620.188 808.197 619.857 808.197H617.03C616.698 808.197 616.43 807.928 616.43 807.597V805.329Z" fill="#DEC9B6"/>
<path fill-rule="evenodd" clip-rule="evenodd" d="M615.53 805.329C615.53 803.72 616.834 802.415 618.443 802.415C620.052 802.415 621.356 803.72 621.356 805.329V807.597C621.356 808.425 620.685 809.097 619.856 809.097H617.03C616.201 809.097 615.53 808.425 615.53 807.597V805.329ZM618.443 804.215C617.828 804.215 617.33 804.714 617.33 805.329V807.297H619.556V805.329C619.556 804.714 619.058 804.215 618.443 804.215Z" fill="#806959"/>
<path d="M591.765 801.201C591.765 801.864 591.228 802.401 590.565 802.401L584.911 802.401C584.249 802.401 583.711 801.864 583.711 801.201L583.711 798.129C583.711 795.905 585.514 794.102 587.738 794.102V794.102C589.962 794.102 591.765 795.905 591.765 798.129L591.765 801.201Z" fill="#DEC9B6"/>
<path fill-rule="evenodd" clip-rule="evenodd" d="M592.665 801.201C592.665 802.361 591.725 803.301 590.565 803.301L584.912 803.301C583.752 803.301 582.812 802.361 582.812 801.201L582.812 798.129C582.812 795.408 585.017 793.202 587.738 793.202C590.459 793.202 592.665 795.408 592.665 798.129L592.665 801.201ZM590.565 801.501C590.731 801.501 590.865 801.366 590.865 801.201L590.865 798.129C590.865 796.402 589.465 795.002 587.738 795.002C586.012 795.002 584.612 796.402 584.612 798.129L584.612 801.201C584.612 801.366 584.746 801.501 584.912 801.501L590.565 801.501Z" fill="#806959"/>
<path fill-rule="evenodd" clip-rule="evenodd" d="M617.543 775.478C617.543 774.981 617.946 774.578 618.443 774.578H625.993C626.376 774.578 626.716 774.819 626.843 775.18C626.969 775.541 626.854 775.942 626.556 776.181L624.917 777.491L626.556 778.802C626.854 779.041 626.969 779.442 626.843 779.803C626.716 780.163 626.376 780.405 625.993 780.405H619.343V781.518C619.343 782.015 618.94 782.418 618.443 782.418C617.946 782.418 617.543 782.015 617.543 781.518V775.478ZM619.343 778.605H623.428L622.914 778.194C622.701 778.023 622.577 777.765 622.577 777.491C622.577 777.218 622.701 776.959 622.914 776.789L623.428 776.378H619.343V778.605Z" fill="#806959"/>
<path fill-rule="evenodd" clip-rule="evenodd" d="M558.147 765.411C558.147 764.914 558.55 764.511 559.047 764.511H566.597C566.98 764.511 567.32 764.752 567.447 765.113C567.573 765.474 567.458 765.875 567.16 766.114L565.521 767.424L567.16 768.735C567.458 768.974 567.573 769.375 567.447 769.736C567.32 770.096 566.98 770.338 566.597 770.338H559.947V774.975C559.947 775.472 559.544 775.875 559.047 775.875C558.55 775.875 558.147 775.472 558.147 774.975V765.411ZM559.947 768.538H564.032L563.518 768.127C563.305 767.956 563.181 767.698 563.181 767.424C563.181 767.151 563.305 766.892 563.518 766.722L564.032 766.311H559.947V768.538Z" fill="#806959"/>
<path fill-rule="evenodd" clip-rule="evenodd" d="M586.838 748.8C586.838 748.303 587.241 747.9 587.738 747.9H595.289C595.671 747.9 596.011 748.142 596.138 748.502C596.264 748.863 596.149 749.264 595.851 749.503L594.213 750.814L595.851 752.124C596.149 752.363 596.264 752.764 596.138 753.125C596.011 753.486 595.671 753.727 595.289 753.727H588.638V759.119C588.638 759.616 588.235 760.019 587.738 760.019C587.241 760.019 586.838 759.616 586.838 759.119V748.8ZM588.638 751.927H592.723L592.21 751.516C591.996 751.346 591.872 751.087 591.872 750.814C591.872 750.54 591.996 750.282 592.21 750.111L592.723 749.7H588.638V751.927Z" fill="#806959"/>
<path fill-rule="evenodd" clip-rule="evenodd" d="M508.2 875.4H492.6C491.937 875.4 491.4 875.937 491.4 876.6V887.4C491.4 888.063 491.937 888.6 492.6 888.6H508.2C508.863 888.6 509.4 888.063 509.4 887.4V876.6C509.4 875.937 508.863 875.4 508.2 875.4ZM492.6 873.6C490.943 873.6 489.6 874.943 489.6 876.6V887.4C489.6 889.057 490.943 890.4 492.6 890.4H508.2C509.857 890.4 511.2 889.057 511.2 887.4V876.6C511.2 874.943 509.857 873.6 508.2 873.6H492.6Z" fill="#806959"/>
<path fill-rule="evenodd" clip-rule="evenodd" d="M496.5 880.2C496.5 879.04 497.44 878.1 498.6 878.1H502.2C503.36 878.1 504.3 879.04 504.3 880.2V883.2C504.3 884.36 503.36 885.3 502.2 885.3H498.6C497.44 885.3 496.5 884.36 496.5 883.2V880.2ZM498.6 879.9C498.434 879.9 498.3 880.034 498.3 880.2V883.2C498.3 883.366 498.434 883.5 498.6 883.5H502.2C502.366 883.5 502.5 883.366 502.5 883.2V880.2C502.5 880.034 502.366 879.9 502.2 879.9H498.6Z" fill="#806959"/>
<path fill-rule="evenodd" clip-rule="evenodd" d="M513.739 873.6L500.4 858.881L487.06 873.6L513.739 873.6ZM501.734 857.672C501.019 856.883 499.781 856.883 499.066 857.672L485.727 872.391C484.678 873.548 485.499 875.4 487.06 875.4H513.739C515.301 875.4 516.122 873.548 515.073 872.391L501.734 857.672Z" fill="#806959"/>
<path fill-rule="evenodd" clip-rule="evenodd" d="M505.5 861C505.5 859.84 506.44 858.9 507.6 858.9H508.8C509.96 858.9 510.9 859.84 510.9 861V867.9C510.9 868.397 510.497 868.8 510 868.8C509.503 868.8 509.1 868.397 509.1 867.9V861C509.1 860.834 508.966 860.7 508.8 860.7H507.6C507.434 860.7 507.3 860.834 507.3 861V864C507.3 864.497 506.897 864.9 506.4 864.9C505.903 864.9 505.5 864.497 505.5 864V861Z" fill="#806959"/>
<path fill-rule="evenodd" clip-rule="evenodd" d="M655.2 733.8H639.6C638.937 733.8 638.4 734.337 638.4 735V745.8C638.4 746.463 638.937 747 639.6 747H655.2C655.863 747 656.4 746.463 656.4 745.8V735C656.4 734.337 655.863 733.8 655.2 733.8ZM639.6 732C637.943 732 636.6 733.343 636.6 735V745.8C636.6 747.457 637.943 748.8 639.6 748.8H655.2C656.857 748.8 658.2 747.457 658.2 745.8V735C658.2 733.343 656.857 732 655.2 732H639.6Z" fill="#806959"/>
<path fill-rule="evenodd" clip-rule="evenodd" d="M643.5 738.6C643.5 737.44 644.44 736.5 645.6 736.5H649.2C650.36 736.5 651.3 737.44 651.3 738.6V741.6C651.3 742.76 650.36 743.7 649.2 743.7H645.6C644.44 743.7 643.5 742.76 643.5 741.6V738.6ZM645.6 738.3C645.434 738.3 645.3 738.434 645.3 738.6V741.6C645.3 741.766 645.434 741.9 645.6 741.9H649.2C649.366 741.9 649.5 741.766 649.5 741.6V738.6C649.5 738.434 649.366 738.3 649.2 738.3H645.6Z" fill="#806959"/>
<path fill-rule="evenodd" clip-rule="evenodd" d="M660.739 732L647.4 717.281L634.06 732L660.739 732ZM648.734 716.072C648.019 715.284 646.781 715.284 646.066 716.072L632.727 730.791C631.678 731.948 632.499 733.8 634.06 733.8H660.739C662.301 733.8 663.122 731.948 662.073 730.791L648.734 716.072Z" fill="#806959"/>
<path fill-rule="evenodd" clip-rule="evenodd" d="M652.5 719.4C652.5 718.24 653.44 717.3 654.6 717.3H655.8C656.96 717.3 657.9 718.24 657.9 719.4V726.3C657.9 726.797 657.497 727.2 657 727.2C656.503 727.2 656.1 726.797 656.1 726.3V719.4C656.1 719.234 655.966 719.1 655.8 719.1H654.6C654.434 719.1 654.3 719.234 654.3 719.4V722.4C654.3 722.897 653.897 723.3 653.4 723.3C652.903 723.3 652.5 722.897 652.5 722.4V719.4Z" fill="#806959"/>
<path d="M545.4 905.4C545.4 905.069 545.669 904.8 546 904.8H551.4C551.731 904.8 552 905.069 552 905.4V912.6C552 912.931 551.731 913.2 551.4 913.2H546C545.669 913.2 545.4 912.931 545.4 912.6V905.4Z" fill="#DEC9B6"/>
<path fill-rule="evenodd" clip-rule="evenodd" d="M544.5 905.4C544.5 904.572 545.172 903.9 546 903.9H551.4C552.228 903.9 552.9 904.572 552.9 905.4V912.6C552.9 913.429 552.228 914.1 551.4 914.1H546C545.172 914.1 544.5 913.429 544.5 912.6V905.4ZM546.3 905.7V912.3H551.1V905.7H546.3Z" fill="#806959"/>
<path fill-rule="evenodd" clip-rule="evenodd" d="M543 899.4H527.4C526.737 899.4 526.2 899.937 526.2 900.6V911.4C526.2 912.063 526.737 912.6 527.4 912.6H543C543.663 912.6 544.2 912.063 544.2 911.4V900.6C544.2 899.937 543.663 899.4 543 899.4ZM527.4 897.6C525.743 897.6 524.4 898.943 524.4 900.6V911.4C524.4 913.057 525.743 914.4 527.4 914.4H543C544.657 914.4 546 913.057 546 911.4V900.6C546 898.943 544.657 897.6 543 897.6H527.4Z" fill="#806959"/>
<path fill-rule="evenodd" clip-rule="evenodd" d="M531.3 904.2C531.3 903.04 532.24 902.1 533.4 902.1H537C538.16 902.1 539.1 903.04 539.1 904.2V907.2C539.1 908.36 538.16 909.3 537 909.3H533.4C532.24 909.3 531.3 908.36 531.3 907.2V904.2ZM533.4 903.9C533.234 903.9 533.1 904.034 533.1 904.2V907.2C533.1 907.366 533.234 907.5 533.4 907.5H537C537.166 907.5 537.3 907.366 537.3 907.2V904.2C537.3 904.034 537.166 903.9 537 903.9H533.4Z" fill="#806959"/>
<path fill-rule="evenodd" clip-rule="evenodd" d="M548.54 897.6L535.2 882.881L521.86 897.6L548.54 897.6ZM536.534 881.672C535.819 880.883 534.581 880.883 533.866 881.672L520.527 896.391C519.478 897.548 520.299 899.4 521.86 899.4H548.54C550.101 899.4 550.922 897.548 549.873 896.391L536.534 881.672Z" fill="#806959"/>
<path d="M457.2 44.4C457.2 44.0687 457.469 43.8 457.8 43.8H463.2C463.531 43.8 463.8 44.0687 463.8 44.4V51.6C463.8 51.9314 463.531 52.2 463.2 52.2H457.8C457.469 52.2 457.2 51.9314 457.2 51.6V44.4Z" fill="#DEC9B6"/>
<path fill-rule="evenodd" clip-rule="evenodd" d="M456.3 44.4C456.3 43.5716 456.972 42.9 457.8 42.9H463.2C464.028 42.9 464.7 43.5716 464.7 44.4V51.6C464.7 52.4285 464.028 53.1 463.2 53.1H457.8C456.972 53.1 456.3 52.4285 456.3 51.6V44.4ZM458.1 44.7V51.3H462.9V44.7H458.1Z" fill="#806959"/>
<path d="M436.2 39.6001C436.2 37.9432 437.543 36.6001 439.2 36.6001H454.8C456.457 36.6001 457.8 37.9432 457.8 39.6001V50.4001C457.8 52.057 456.457 53.4001 454.8 53.4001H439.2C437.543 53.4001 436.2 52.057 436.2 50.4001V39.6001Z" fill="#DEC9B6"/>
<path fill-rule="evenodd" clip-rule="evenodd" d="M454.8 38.4001H439.2C438.537 38.4001 438 38.9374 438 39.6001V50.4001C438 51.0628 438.537 51.6001 439.2 51.6001H454.8C455.463 51.6001 456 51.0628 456 50.4001V39.6001C456 38.9374 455.463 38.4001 454.8 38.4001ZM439.2 36.6001C437.543 36.6001 436.2 37.9432 436.2 39.6001V50.4001C436.2 52.057 437.543 53.4001 439.2 53.4001H454.8C456.457 53.4001 457.8 52.057 457.8 50.4001V39.6001C457.8 37.9432 456.457 36.6001 454.8 36.6001H439.2Z" fill="#806959"/>
<path d="M444 43.2001C444 42.5374 444.537 42.0001 445.2 42.0001H448.8C449.463 42.0001 450 42.5374 450 43.2001V46.2001C450 46.8629 449.463 47.4001 448.8 47.4001H445.2C444.537 47.4001 444 46.8629 444 46.2001V43.2001Z" fill="#DEC9B6"/>
<path fill-rule="evenodd" clip-rule="evenodd" d="M443.1 43.2001C443.1 42.0403 444.04 41.1001 445.2 41.1001H448.8C449.96 41.1001 450.9 42.0403 450.9 43.2001V46.2001C450.9 47.3599 449.96 48.3001 448.8 48.3001H445.2C444.04 48.3001 443.1 47.3599 443.1 46.2001V43.2001ZM445.2 42.9001C445.034 42.9001 444.9 43.0344 444.9 43.2001V46.2001C444.9 46.3658 445.034 46.5001 445.2 46.5001H448.8C448.966 46.5001 449.1 46.3658 449.1 46.2001V43.2001C449.1 43.0344 448.966 42.9001 448.8 42.9001H445.2Z" fill="#806959"/>
<path d="M445.666 20.6718C446.381 19.8835 447.619 19.8835 448.334 20.6718L461.673 35.3913C462.722 36.5483 461.901 38.4001 460.34 38.4001H433.66C432.099 38.4001 431.278 36.5483 432.327 35.3913L445.666 20.6718Z" fill="#DEC9B6"/>
<path fill-rule="evenodd" clip-rule="evenodd" d="M460.34 36.6001L447 21.8806L433.66 36.6001L460.34 36.6001ZM448.334 20.6718C447.619 19.8835 446.381 19.8835 445.666 20.6718L432.327 35.3913C431.278 36.5483 432.099 38.4001 433.66 38.4001H460.34C461.901 38.4001 462.722 36.5483 461.673 35.3913L448.334 20.6718Z" fill="#806959"/>
<path fill-rule="evenodd" clip-rule="evenodd" d="M73.8001 635.4H58.2001C57.5373 635.4 57.0001 635.937 57.0001 636.6V647.4C57.0001 648.063 57.5373 648.6 58.2001 648.6H73.8001C74.4628 648.6 75.0001 648.063 75.0001 647.4V636.6C75.0001 635.937 74.4628 635.4 73.8001 635.4ZM58.2001 633.6C56.5432 633.6 55.2001 634.943 55.2001 636.6V647.4C55.2001 649.057 56.5432 650.4 58.2001 650.4H73.8001C75.4569 650.4 76.8001 649.057 76.8001 647.4V636.6C76.8001 634.943 75.4569 633.6 73.8001 633.6H58.2001Z" fill="#806959"/>
<path fill-rule="evenodd" clip-rule="evenodd" d="M62.1 640.2C62.1 639.04 63.0402 638.1 64.2 638.1H67.8C68.9598 638.1 69.9 639.04 69.9 640.2V643.2C69.9 644.36 68.9598 645.3 67.8 645.3H64.2C63.0402 645.3 62.1 644.36 62.1 643.2V640.2ZM64.2 639.9C64.0343 639.9 63.9 640.034 63.9 640.2V643.2C63.9 643.366 64.0343 643.5 64.2 643.5H67.8C67.9657 643.5 68.1 643.366 68.1 643.2V640.2C68.1 640.034 67.9657 639.9 67.8 639.9H64.2Z" fill="#806959"/>
<path fill-rule="evenodd" clip-rule="evenodd" d="M79.3396 633.6L66 618.881L52.6605 633.6L79.3396 633.6ZM67.3338 617.672C66.6194 616.883 65.3807 616.883 64.6663 617.672L51.3267 632.391C50.2782 633.548 51.0991 635.4 52.6605 635.4H79.3396C80.9009 635.4 81.7218 633.548 80.6734 632.391L67.3338 617.672Z" fill="#806959"/>
<path fill-rule="evenodd" clip-rule="evenodd" d="M71.1 621C71.1 619.84 72.0402 618.9 73.2 618.9H74.4C75.5598 618.9 76.5 619.84 76.5 621V627.9C76.5 628.397 76.097 628.8 75.6 628.8C75.1029 628.8 74.7 628.397 74.7 627.9V621C74.7 620.834 74.5657 620.7 74.4 620.7H73.2C73.0343 620.7 72.9 620.834 72.9 621V624C72.9 624.497 72.497 624.9 72 624.9C71.5029 624.9 71.1 624.497 71.1 624V621Z" fill="#806959"/>
<path fill-rule="evenodd" clip-rule="evenodd" d="M71.7971 863.711C71.3058 863.786 70.9688 864.246 71.0444 864.737C71.2465 866.051 71.8004 869.899 71.3444 872.863C70.8978 875.766 69.1839 878.402 68.4966 879.384C68.2812 879.692 68.2796 880.101 68.4924 880.41C68.7052 880.72 69.0878 880.864 69.4522 880.773C70.5891 880.489 71.7156 880.35 72.6464 880.35C73.1118 880.35 73.5119 880.385 73.8307 880.446C74.161 880.51 74.3492 880.592 74.4347 880.649C74.6388 880.785 74.8897 880.832 75.1291 880.779C76.3367 880.51 77.2654 880.576 78.086 880.713C78.3612 880.759 78.6014 880.808 78.8495 880.859C79.0007 880.89 79.1549 880.921 79.3218 880.953C79.7318 881.031 80.1731 881.1 80.6339 881.1C80.9979 881.1 81.3261 880.881 81.4654 880.544C81.6047 880.208 81.5277 879.821 81.2703 879.564C80.5314 878.825 80.0618 877.801 79.7445 876.532C79.4259 875.257 79.2809 873.825 79.1294 872.311C78.9507 870.523 79.293 868.514 79.5507 867.001C79.6182 866.605 79.6798 866.243 79.7249 865.927C79.7952 865.435 79.4532 864.979 78.9612 864.909C78.4691 864.839 78.0132 865.181 77.943 865.673C77.9084 865.915 77.8563 866.217 77.7962 866.566C77.5379 868.067 77.132 870.426 77.3384 872.49L77.342 872.526C77.4894 874 77.6448 875.555 77.9983 876.968C78.1731 877.668 78.4011 878.354 78.7123 878.996C78.6026 878.976 78.4918 878.956 78.3819 878.937C77.4767 878.786 76.4078 878.703 75.0729 878.953C74.7906 878.825 74.4807 878.738 74.1715 878.679C73.7122 878.59 73.1935 878.55 72.6464 878.55C72.1577 878.55 71.6332 878.582 71.0898 878.646C71.8874 877.24 72.7948 875.273 73.1234 873.137C73.6275 869.861 73.0213 865.749 72.8234 864.463C72.7479 863.972 72.2883 863.635 71.7971 863.711Z" fill="#806959"/>
<path fill-rule="evenodd" clip-rule="evenodd" d="M81.1729 841.8C81.1729 838.818 78.7553 836.4 75.7729 836.4H73.3526C70.3702 836.4 67.9526 838.818 67.9526 841.8V844.2H66.2339C63.583 844.2 61.4339 846.349 61.4339 849C61.4339 849.604 61.5457 850.183 61.7496 850.716C59.9989 851.609 58.8 853.429 58.8 855.529V858.458C58.8 861.44 61.2177 863.858 64.2 863.858H72.2136C72.9742 863.858 73.698 863.7 74.3544 863.417C75.3246 864.854 76.9689 865.8 78.8339 865.8H86.6339C89.6163 865.8 92.0339 863.382 92.0339 860.4V856.8C92.0339 854.23 90.2379 852.079 87.8323 851.533C87.8334 851.489 87.8339 851.445 87.8339 851.4V847.2C87.8339 844.218 85.4163 841.8 82.4339 841.8L81.1729 841.8Z" fill="#DEC9B6"/>
<path fill-rule="evenodd" clip-rule="evenodd" d="M82.0091 840.9C81.5724 837.847 78.9468 835.5 75.7729 835.5H73.3526C69.8732 835.5 67.0526 838.321 67.0526 841.8V843.3H66.234C63.0859 843.3 60.534 845.852 60.534 849C60.534 849.447 60.5856 849.883 60.6833 850.301C59.0056 851.432 57.9001 853.351 57.9001 855.529V858.458C57.9001 861.937 60.7207 864.758 64.2001 864.758H72.2136C72.848 864.758 73.4616 864.664 74.0406 864.488C75.1952 865.841 76.9141 866.7 78.834 866.7H86.634C90.1134 866.7 92.934 863.879 92.934 860.4V856.8C92.934 854.056 91.1807 851.724 88.734 850.859V847.2C88.734 843.721 85.9134 840.9 82.434 840.9L82.0091 840.9ZM75.7729 837.3C78.2582 837.3 80.2729 839.315 80.2729 841.8C80.2729 842.039 80.3678 842.268 80.5365 842.436C80.7053 842.605 80.9343 842.7 81.1729 842.7L82.434 842.7C84.9192 842.7 86.934 844.715 86.934 847.2V851.4C86.934 851.437 86.9335 851.475 86.9326 851.512C86.9222 851.94 87.2154 852.316 87.6335 852.411C89.638 852.865 91.134 854.659 91.134 856.8V860.4C91.134 862.885 89.1192 864.9 86.634 864.9H78.834C77.2806 864.9 75.9105 864.114 75.1005 862.913C74.8583 862.554 74.3948 862.419 73.9973 862.591C73.4516 862.826 72.8491 862.958 72.2136 862.958H64.2001C61.7148 862.958 59.7001 860.943 59.7001 858.458V855.529C59.7001 853.78 60.6974 852.263 62.1586 851.517C62.5685 851.308 62.7546 850.824 62.5901 850.394C62.4249 849.962 62.334 849.493 62.334 849C62.334 846.846 64.0801 845.1 66.234 845.1H67.9526C68.4497 845.1 68.8526 844.697 68.8526 844.2V841.8C68.8526 839.315 70.8673 837.3 73.3526 837.3H75.7729Z" fill="#806959"/>
<path fill-rule="evenodd" clip-rule="evenodd" d="M682.413 867.359C682.904 867.435 683.241 867.894 683.166 868.385C682.918 869.995 682.232 874.75 682.797 878.424C683.356 882.057 685.503 885.705 686.328 886.884C686.544 887.192 686.545 887.601 686.332 887.91C686.12 888.22 685.737 888.364 685.373 888.273C683.962 887.921 682.563 887.748 681.401 887.748C680.821 887.748 680.316 887.791 679.909 887.869C679.49 887.95 679.229 888.058 679.092 888.149C678.888 888.285 678.637 888.332 678.398 888.279C676.074 887.762 674.648 887.851 673.266 887.937C672.753 887.969 672.245 888 671.7 888C671.336 888 671.008 887.781 670.869 887.445C670.729 887.108 670.806 886.721 671.064 886.464C672.011 885.516 672.572 884.29 672.937 882.8C673.283 881.393 673.439 879.825 673.61 878.103C673.622 877.981 673.634 877.858 673.646 877.735C673.869 875.509 673.442 873.003 673.125 871.146C673.043 870.665 672.968 870.227 672.914 869.849C672.844 869.357 673.186 868.901 673.678 868.831C674.17 868.76 674.626 869.102 674.696 869.594C674.74 869.899 674.805 870.277 674.879 870.711C675.197 872.557 675.688 875.412 675.437 877.914C675.424 878.047 675.411 878.181 675.398 878.314C675.231 879.999 675.063 881.692 674.686 883.229C674.437 884.243 674.091 885.218 673.577 886.11C674.835 886.042 676.366 886.021 678.452 886.45C678.793 886.288 679.176 886.177 679.568 886.102C680.116 885.996 680.739 885.948 681.401 885.948C682.13 885.948 682.925 886.007 683.748 886.123C682.72 884.281 681.452 881.517 681.018 878.698C680.405 874.711 681.143 869.694 681.387 868.112C681.462 867.62 681.922 867.283 682.413 867.359Z" fill="#806959"/>
<path fill-rule="evenodd" clip-rule="evenodd" d="M670.934 839.028C670.934 836.046 673.351 833.628 676.334 833.628H681.764C684.746 833.628 687.164 836.046 687.164 839.028V843.204H689.767C692.749 843.204 695.167 845.622 695.167 848.604V849.59C695.167 850.031 695.114 850.46 695.014 850.871C696.999 851.669 698.4 853.612 698.4 855.883V861.937C698.4 864.919 695.982 867.337 693 867.337H680.703C680.322 867.337 679.949 867.298 679.59 867.222C678.631 868.725 676.949 869.722 675.035 869.722H663C660.018 869.722 657.6 867.304 657.6 864.322V857.443C657.6 854.543 659.887 852.176 662.756 852.049V845.658C662.756 842.675 665.174 840.258 668.156 840.258H670.934V839.028Z" fill="#DEC9B6"/>
<path fill-rule="evenodd" clip-rule="evenodd" d="M670.034 839.029C670.034 835.549 672.855 832.729 676.334 832.729H681.764C685.243 832.729 688.064 835.549 688.064 839.029V842.304H689.767C693.246 842.304 696.067 845.125 696.067 848.604V849.59C696.067 849.848 696.051 850.103 696.021 850.353C697.974 851.422 699.3 853.497 699.3 855.883V861.937C699.3 865.417 696.48 868.237 693 868.237H680.704C680.466 868.237 680.232 868.224 680.001 868.198C678.849 869.672 677.053 870.622 675.035 870.622H663C659.521 870.622 656.7 867.801 656.7 864.322V857.443C656.7 854.355 658.923 851.785 661.856 851.247V845.658C661.856 842.179 664.677 839.358 668.156 839.358H670.034V839.029ZM676.334 834.529C673.849 834.529 671.834 836.543 671.834 839.029V840.258C671.834 840.755 671.431 841.158 670.934 841.158H668.156C665.671 841.158 663.656 843.173 663.656 845.658V852.049C663.656 852.53 663.277 852.927 662.796 852.948C660.406 853.054 658.5 855.026 658.5 857.443V864.322C658.5 866.807 660.515 868.822 663 868.822H675.035C676.629 868.822 678.031 867.993 678.832 866.738C679.033 866.423 679.409 866.265 679.775 866.341C680.074 866.404 680.384 866.437 680.704 866.437H693C695.486 866.437 697.5 864.422 697.5 861.937V855.883C697.5 853.992 696.334 852.372 694.678 851.706C694.263 851.539 694.034 851.093 694.139 850.658C694.222 850.317 694.267 849.959 694.267 849.59V848.604C694.267 846.119 692.252 844.104 689.767 844.104H687.164C686.667 844.104 686.264 843.701 686.264 843.204V839.029C686.264 836.543 684.249 834.529 681.764 834.529H676.334Z" fill="#806959"/>
<path fill-rule="evenodd" clip-rule="evenodd" d="M450.349 923.784C450.388 924.004 450.462 924.386 450.582 924.986C450.879 926.47 451.899 927.707 452.938 928.581C453.752 929.266 454.672 929.806 455.459 930.098C455.462 930.115 455.465 930.132 455.468 930.149C455.561 930.703 455.641 931.179 455.671 931.825C455.71 932.678 455.657 933.826 455.368 935.705C454.812 939.318 452.683 942.587 451.837 943.797C451.621 944.104 451.62 944.513 451.833 944.823C452.045 945.132 452.428 945.277 452.792 945.186C454.202 944.833 455.602 944.66 456.764 944.66C457.344 944.66 457.849 944.704 458.256 944.782C458.675 944.863 458.936 944.971 459.073 945.062C459.277 945.198 459.528 945.245 459.767 945.191C461.319 944.847 462.497 944.847 463.512 944.933C463.908 944.967 464.272 945.012 464.641 945.059C464.76 945.073 464.878 945.088 464.999 945.103C465.483 945.161 465.983 945.213 466.5 945.213C466.864 945.213 467.192 944.994 467.331 944.657C467.471 944.321 467.394 943.934 467.136 943.676C466.184 942.724 465.616 941.511 465.243 940.04C464.876 938.591 464.713 936.963 464.533 935.157C464.528 935.11 464.523 935.063 464.519 935.016C464.296 932.79 464.723 930.284 465.04 928.427C465.122 927.946 465.197 927.508 465.251 927.13C465.321 926.638 464.979 926.182 464.487 926.112C463.995 926.042 463.539 926.383 463.469 926.876C463.425 927.18 463.36 927.558 463.286 927.993C462.968 929.838 462.477 932.693 462.728 935.195C462.734 935.263 462.741 935.332 462.748 935.401C462.923 937.153 463.097 938.901 463.499 940.483C463.744 941.45 464.079 942.379 464.565 943.235C464.28 943.201 463.978 943.166 463.664 943.14C462.58 943.048 461.316 943.043 459.714 943.363C459.373 943.201 458.989 943.09 458.597 943.015C458.049 942.909 457.426 942.86 456.764 942.86C456.051 942.86 455.273 942.917 454.468 943.029C455.484 941.302 456.719 938.756 457.147 935.979C457.447 934.028 457.516 932.753 457.469 931.742C457.434 930.978 457.33 930.363 457.232 929.784C457.202 929.608 457.173 929.436 457.147 929.263C457.09 928.894 456.811 928.599 456.446 928.52C455.934 928.41 454.986 927.952 454.096 927.204C453.217 926.464 452.543 925.566 452.353 924.659C452.371 924.548 452.369 924.431 452.343 924.314C452.249 923.891 452.119 923.313 452.069 923.155C452.065 923.141 452.054 923.107 452.038 923.067C452.032 923.052 452.012 923.003 451.978 922.946C451.963 922.919 451.925 922.858 451.863 922.791L451.863 922.79C451.826 922.75 451.647 922.555 451.33 922.509C450.887 922.445 450.585 922.707 450.458 922.892C450.357 923.04 450.327 923.18 450.319 923.219C450.299 923.315 450.3 923.394 450.3 923.413L450.3 923.414C450.3 923.466 450.305 923.51 450.307 923.524L450.307 923.524C450.314 923.59 450.33 923.683 450.349 923.784ZM455.126 923.685C454.67 923.486 454.14 923.693 453.94 924.149C453.62 924.88 453.898 925.576 454.202 926.028C454.515 926.493 454.97 926.889 455.408 927.177C455.837 927.46 456.349 927.704 456.819 927.781C457.039 927.817 457.394 927.84 457.734 927.666C458.169 927.445 458.365 927.022 458.365 926.61C458.365 926.546 458.377 926.444 458.407 926.277C458.414 926.237 458.423 926.19 458.433 926.137C458.457 926.012 458.486 925.86 458.505 925.729C458.533 925.538 458.562 925.276 458.525 925.01C458.486 924.729 458.361 924.357 458.005 924.09C457.607 923.791 457.043 923.872 456.745 924.27C456.501 924.595 456.51 925.031 456.739 925.343C456.737 925.376 456.732 925.417 456.725 925.465C456.71 925.561 456.694 925.647 456.674 925.75C456.669 925.775 456.664 925.801 456.659 925.829C456.578 925.786 456.49 925.734 456.398 925.674C456.09 925.471 455.835 925.231 455.695 925.023C455.629 924.925 455.608 924.867 455.602 924.84C455.779 924.392 455.571 923.88 455.126 923.685ZM455.6 924.822C455.6 924.822 455.599 924.825 455.6 924.832C455.601 924.826 455.601 924.822 455.6 924.822ZM457.134 926.007C457.134 926.007 457.129 926.006 457.121 926.006C457.13 926.007 457.134 926.007 457.134 926.007Z" fill="#806959"/>
<path fill-rule="evenodd" clip-rule="evenodd" d="M465.6 894.6C468.582 894.6 471 897.018 471 900V901.2C473.982 901.2 476.4 903.618 476.4 906.6V907.8C476.4 908.98 476.022 910.071 475.38 910.96C478.028 911.583 480 913.961 480 916.8V921.6C480 924.914 477.314 927.6 474 927.6H463.8C461.531 927.6 459.556 926.341 458.537 924.483C457.588 924.942 456.524 925.2 455.4 925.2H448.2C444.224 925.2 441 921.977 441 918V913.2C441 909.224 444.224 906 448.2 906H451.233C451.211 905.803 451.2 905.603 451.2 905.4V900C451.2 897.018 453.618 894.6 456.6 894.6H465.6Z" fill="#DEC9B6"/>
<path fill-rule="evenodd" clip-rule="evenodd" d="M465.6 895.5C468.085 895.5 470.1 897.515 470.1 900V901.2C470.1 901.697 470.503 902.1 471 902.1C473.485 902.1 475.5 904.115 475.5 906.6V907.8C475.5 908.784 475.185 909.692 474.65 910.432C474.474 910.676 474.431 910.992 474.536 911.274C474.642 911.556 474.881 911.767 475.174 911.836C477.425 912.365 479.1 914.388 479.1 916.8V921.6C479.1 924.417 476.817 926.7 474 926.7H463.8C461.873 926.7 460.193 925.631 459.325 924.05C459.095 923.63 458.575 923.464 458.144 923.673C457.316 924.074 456.385 924.3 455.4 924.3H448.2C444.721 924.3 441.9 921.479 441.9 918V913.2C441.9 909.721 444.721 906.9 448.2 906.9H451.233C451.489 906.9 451.733 906.791 451.903 906.6C452.074 906.41 452.156 906.156 452.127 905.901C452.109 905.737 452.1 905.57 452.1 905.4V900C452.1 897.515 454.115 895.5 456.6 895.5H465.6ZM471.9 900C471.9 896.521 469.079 893.7 465.6 893.7H456.6C453.121 893.7 450.3 896.521 450.3 900V905.1H448.2C443.726 905.1 440.1 908.727 440.1 913.2V918C440.1 922.474 443.726 926.1 448.2 926.1H455.4C456.377 926.1 457.315 925.927 458.183 925.609C459.434 927.358 461.483 928.5 463.8 928.5H474C477.811 928.5 480.9 925.411 480.9 921.6V916.8C480.9 913.952 479.176 911.509 476.715 910.455C477.09 909.648 477.3 908.748 477.3 907.8V906.6C477.3 903.426 474.953 900.801 471.9 900.364V900Z" fill="#806959"/>
<path fill-rule="evenodd" clip-rule="evenodd" d="M50.5237 525.844C50.4857 526.054 50.4151 526.419 50.3006 526.992C50.015 528.42 49.0345 529.608 48.04 530.445C47.2684 531.093 46.3962 531.608 45.6453 531.89C45.6438 531.899 45.6423 531.908 45.6409 531.917C45.5519 532.444 45.4757 532.896 45.4475 533.508C45.4101 534.319 45.4611 535.411 45.7366 537.202C46.2652 540.638 48.2903 543.749 49.0973 544.902C49.3127 545.21 49.3144 545.619 49.1015 545.928C48.8887 546.238 48.5061 546.383 48.1417 546.291C46.7997 545.956 45.468 545.791 44.364 545.791C43.812 545.791 43.3334 545.833 42.948 545.907C42.5512 545.983 42.3085 546.085 42.1846 546.167C41.9804 546.303 41.7296 546.35 41.4901 546.297C40.0517 545.977 38.9434 546.056 37.969 546.218C37.6446 546.272 37.3581 546.331 37.0651 546.391C36.8884 546.427 36.7094 546.464 36.5184 546.5C36.0409 546.591 35.5356 546.67 35.0106 546.67C34.6466 546.67 34.3184 546.45 34.1791 546.114C34.0398 545.778 34.1168 545.391 34.3742 545.133C35.2671 544.24 35.8264 543.011 36.2014 541.511C36.5778 540.006 36.7484 538.318 36.9255 536.546C37.1372 534.43 36.7311 532.047 36.429 530.275C36.3506 529.816 36.2792 529.397 36.2275 529.034C36.1572 528.542 36.4991 528.087 36.9911 528.016C37.4832 527.946 37.9391 528.288 38.0094 528.78C38.0507 529.069 38.1125 529.428 38.1835 529.841C38.4861 531.601 38.9559 534.332 38.7166 536.725L38.7129 536.762C38.5398 538.493 38.3588 540.303 37.9476 541.948C37.719 542.863 37.4131 543.753 36.9817 544.571C37.2063 544.526 37.4406 544.481 37.6731 544.443C38.7312 544.266 39.9789 544.17 41.5424 544.47C41.8691 544.316 42.2354 544.211 42.6073 544.139C43.1331 544.038 43.7303 543.991 44.364 543.991C45.021 543.991 45.7347 544.042 46.4744 544.141C45.5126 542.492 44.36 540.092 43.9575 537.475C43.6709 535.612 43.6048 534.394 43.6494 533.425C43.6831 532.694 43.7829 532.104 43.8763 531.552C43.9046 531.384 43.9324 531.22 43.9575 531.057C44.0143 530.688 44.293 530.392 44.6581 530.314C45.1379 530.211 46.0358 529.778 46.8814 529.067C47.7144 528.366 48.3476 527.521 48.529 526.67C48.5117 526.562 48.5142 526.448 48.5395 526.334C48.6289 525.932 48.7542 525.378 48.8019 525.224C48.8061 525.211 48.8168 525.177 48.8327 525.138C48.839 525.122 48.8589 525.074 48.8925 525.016C48.9081 524.99 48.9456 524.928 49.0075 524.861L49.0077 524.861C49.0449 524.821 49.2243 524.626 49.5405 524.58C49.9842 524.516 50.286 524.777 50.4127 524.962C50.5142 525.11 50.5438 525.25 50.5519 525.289C50.5719 525.386 50.571 525.465 50.5708 525.483L50.5708 525.485C50.5703 525.536 50.5654 525.58 50.5639 525.593L50.5639 525.594C50.5566 525.658 50.5409 525.749 50.5237 525.844ZM45.9095 525.705C46.3648 525.505 46.8955 525.713 47.0948 526.168C47.4085 526.885 47.1354 527.564 46.8421 528C46.5395 528.45 46.1003 528.831 45.6797 529.108C45.2679 529.379 44.774 529.616 44.3176 529.69C44.1042 529.725 43.7555 529.749 43.419 529.577C42.9886 529.358 42.795 528.938 42.795 528.532C42.795 528.475 42.7843 528.382 42.7556 528.222C42.7489 528.185 42.7404 528.14 42.731 528.091C42.7081 527.971 42.6803 527.824 42.6616 527.698C42.6345 527.515 42.6066 527.261 42.6425 527.001C42.6803 526.726 42.8033 526.359 43.155 526.095C43.5526 525.797 44.1168 525.878 44.415 526.275C44.6555 526.596 44.6496 527.025 44.4298 527.335C44.4323 527.361 44.4362 527.394 44.4422 527.434C44.4556 527.525 44.471 527.606 44.4897 527.703C44.491 527.71 44.4923 527.717 44.4937 527.724C44.5558 527.689 44.6216 527.65 44.6898 527.605C44.9805 527.413 45.2188 527.188 45.3486 526.996C45.3994 526.92 45.4202 526.872 45.4283 526.847C45.2599 526.401 45.4685 525.898 45.9095 525.705ZM45.4327 526.824C45.4331 526.824 45.4332 526.827 45.4316 526.834C45.4315 526.828 45.4323 526.824 45.4327 526.824ZM44.0073 527.916C44.0075 527.916 44.0118 527.915 44.0198 527.915C44.0111 527.916 44.0071 527.916 44.0073 527.916Z" fill="#806959"/>
<path fill-rule="evenodd" clip-rule="evenodd" d="M36.1848 498C33.2025 498 30.7848 500.418 30.7848 503.4V504.301C27.9181 504.431 25.634 506.797 25.634 509.695V510.342C25.634 511.579 26.0499 512.718 26.7495 513.629C24.1366 514.278 22.2001 516.639 22.2001 519.452V523.477C22.2001 526.791 24.8864 529.477 28.2001 529.477H37.3755C39.6448 529.477 41.6199 528.217 42.6394 526.359C43.6419 526.888 44.7845 527.188 45.997 527.188H52.2001C56.1765 527.188 59.4001 523.964 59.4001 519.988V516.074C59.4001 512.098 56.1765 508.874 52.2001 508.874H49.6089C49.6497 508.606 49.671 508.332 49.671 508.052V503.4C49.671 500.418 47.2533 498 44.271 498H36.1848Z" fill="#DEC9B6"/>
<path fill-rule="evenodd" clip-rule="evenodd" d="M36.1848 498.9C33.6995 498.9 31.6848 500.915 31.6848 503.4V504.301C31.6848 504.782 31.3063 505.178 30.8256 505.2C28.4374 505.309 26.5339 507.28 26.5339 509.695V510.342C26.5339 511.373 26.8801 512.322 27.4631 513.081C27.6481 513.321 27.6993 513.639 27.5991 513.926C27.499 514.212 27.261 514.429 26.9663 514.502C24.7453 515.054 23.1 517.062 23.1 519.452V523.477C23.1 526.294 25.3834 528.577 28.2 528.577H37.3754C39.3032 528.577 40.9825 527.508 41.8503 525.926C42.0867 525.495 42.6251 525.333 43.0597 525.563C43.9358 526.025 44.9344 526.288 45.997 526.288H52.2C55.6794 526.288 58.5 523.467 58.5 519.988V516.074C58.5 512.595 55.6794 509.774 52.2 509.774H49.6088C49.3464 509.774 49.0971 509.659 48.9261 509.46C48.7551 509.261 48.6795 508.998 48.7191 508.738C48.7532 508.515 48.7709 508.286 48.7709 508.052V503.4C48.7709 500.915 46.7562 498.9 44.2709 498.9H36.1848ZM29.8848 503.4C29.8848 499.921 32.7054 497.1 36.1848 497.1H44.2709C47.7503 497.1 50.5709 499.921 50.5709 503.4V507.974H52.2C56.6735 507.974 60.3 511.6 60.3 516.074V519.988C60.3 524.461 56.6735 528.088 52.2 528.088H45.997C44.9309 528.088 43.9113 527.881 42.9774 527.506C41.7256 529.244 39.6834 530.377 37.3754 530.377H28.2C24.3893 530.377 21.3 527.288 21.3 523.477V519.452C21.3 516.641 22.9811 514.223 25.3922 513.148C24.971 512.303 24.7339 511.349 24.7339 510.342V509.695C24.7339 506.608 26.9538 504.04 29.8848 503.5V503.4Z" fill="#806959"/>
<path fill-rule="evenodd" clip-rule="evenodd" d="M68.5265 439.657C69.0178 439.733 69.3547 440.192 69.2792 440.683C69.1398 441.589 68.7681 444.188 69.0733 446.173C69.3692 448.096 70.5117 449.859 70.9793 450.527C71.1946 450.835 71.1963 451.244 70.9835 451.553C70.7706 451.863 70.388 452.007 70.0237 451.916C69.2635 451.726 68.5138 451.634 67.9008 451.634C67.5943 451.634 67.3385 451.657 67.1418 451.695C66.9337 451.735 66.8456 451.782 66.8307 451.792C66.6266 451.928 66.3757 451.975 66.1363 451.922C65.3526 451.748 64.7535 451.79 64.2155 451.879C64.0304 451.91 63.8751 451.942 63.7094 451.976C63.6051 451.997 63.4966 452.02 63.3741 452.043C63.0876 452.098 62.7641 452.149 62.421 452.149C62.057 452.149 61.7288 451.93 61.5895 451.593C61.4502 451.257 61.5272 450.87 61.7846 450.613C62.241 450.156 62.5457 449.509 62.7571 448.664C62.9698 447.813 63.0676 446.852 63.172 445.808C63.2904 444.624 63.0651 443.299 62.8889 442.263C62.8415 441.984 62.7976 441.726 62.765 441.497C62.6947 441.005 63.0366 440.549 63.5286 440.479C64.0207 440.409 64.4766 440.751 64.5469 441.243C64.569 441.398 64.6033 441.596 64.6433 441.828C64.8201 442.853 65.1091 444.527 64.9631 445.987L64.9596 446.022C64.8591 447.027 64.7508 448.11 64.5033 449.1C64.4224 449.424 64.3247 449.747 64.2034 450.061C64.7666 449.987 65.4208 449.964 66.2028 450.1C66.3992 450.02 66.6044 449.966 66.8011 449.928C67.1382 449.863 67.5127 449.834 67.9008 449.834C68.0837 449.834 68.2734 449.841 68.468 449.853C67.9821 448.92 67.4915 447.728 67.2943 446.446C66.941 444.15 67.365 441.288 67.5001 440.41C67.5757 439.918 68.0352 439.581 68.5265 439.657Z" fill="#806959"/>
<path fill-rule="evenodd" clip-rule="evenodd" d="M57.6424 431.868C57.5375 431.486 57.4815 431.083 57.4815 430.668V429.433C57.4815 426.932 59.5087 424.905 62.0094 424.905C62.0487 424.905 62.0878 424.905 62.1269 424.906C62.5163 422.797 64.3647 421.2 66.5862 421.2C69.0907 421.2 71.1211 423.23 71.1211 425.735V426.084C71.1211 426.242 71.113 426.398 71.0973 426.551H72.3001C74.1188 426.551 75.5931 428.026 75.5931 429.844C75.5931 430.39 75.4603 430.905 75.2253 431.358C76.5331 432.195 77.4001 433.66 77.4001 435.328C77.4001 437.929 75.2917 440.037 72.6908 440.037H69.2024C68.2033 440.037 67.2768 439.726 66.5147 439.195C65.6267 440.507 64.1246 441.37 62.421 441.37H59.5396C56.8116 441.37 54.6001 439.158 54.6001 436.43C54.6001 434.374 55.856 432.612 57.6424 431.868Z" fill="#DEC9B6"/>
<path fill-rule="evenodd" clip-rule="evenodd" d="M66.5862 422.1C64.8065 422.1 63.3239 423.38 63.0119 425.07C62.9315 425.505 62.5465 425.817 62.1039 425.806C62.0725 425.805 62.041 425.805 62.0094 425.805C60.0057 425.805 58.3815 427.429 58.3815 429.433V430.667C58.3815 431.002 58.4265 431.325 58.5103 431.63C58.6302 432.067 58.4066 432.525 57.9883 432.699C56.5256 433.308 55.5001 434.75 55.5001 436.43C55.5001 438.661 57.3086 440.47 59.5396 440.47H62.421C63.8133 440.47 65.0416 439.766 65.7693 438.691C65.9042 438.492 66.1135 438.355 66.3502 438.311C66.5869 438.267 66.8313 438.319 67.0289 438.457C67.6451 438.886 68.393 439.137 69.2024 439.137H72.6908C74.7946 439.137 76.5001 437.432 76.5001 435.328C76.5001 433.98 75.8005 432.795 74.7402 432.116C74.3481 431.865 74.212 431.357 74.4263 430.944C74.5965 430.616 74.6931 430.242 74.6931 429.844C74.6931 428.523 73.6217 427.451 72.3001 427.451H71.0973C70.8426 427.451 70.5999 427.343 70.4292 427.154C70.2586 426.965 70.176 426.713 70.2019 426.46C70.2146 426.336 70.221 426.211 70.221 426.084V425.735C70.221 423.727 68.5937 422.1 66.5862 422.1ZM61.4223 424.036C62.1358 421.866 64.1773 420.3 66.5862 420.3C69.5598 420.3 71.9757 422.688 72.0204 425.651H72.3001C74.6158 425.651 76.4931 427.528 76.4931 429.844C76.4931 430.262 76.4317 430.667 76.3173 431.049C77.5291 432.077 78.3001 433.612 78.3001 435.328C78.3001 438.426 75.7887 440.937 72.6908 440.937H69.2024C68.3179 440.937 67.4798 440.732 66.7346 440.366C65.6676 441.535 64.1302 442.27 62.421 442.27H59.5396C56.3145 442.27 53.7001 439.655 53.7001 436.43C53.7001 434.265 54.8784 432.377 56.6264 431.368C56.5967 431.139 56.5815 430.905 56.5815 430.667V429.433C56.5815 426.633 58.7007 424.329 61.4223 424.036Z" fill="#806959"/>
<path fill-rule="evenodd" clip-rule="evenodd" d="M378.126 917.857C378.618 917.933 378.955 918.392 378.879 918.883C378.74 919.789 378.368 922.388 378.673 924.373C378.969 926.296 380.112 928.059 380.579 928.727C380.794 929.035 380.796 929.444 380.583 929.753C380.37 930.063 379.988 930.207 379.624 930.116C378.863 929.926 378.114 929.834 377.501 929.834C377.194 929.834 376.938 929.857 376.742 929.895C376.534 929.935 376.445 929.982 376.431 929.992C376.226 930.128 375.976 930.175 375.736 930.122C374.952 929.947 374.353 929.99 373.815 930.079C373.63 930.11 373.475 930.142 373.309 930.176C373.205 930.197 373.096 930.22 372.974 930.243C372.687 930.298 372.364 930.349 372.021 930.349C371.657 930.349 371.329 930.13 371.189 929.793C371.05 929.457 371.127 929.07 371.384 928.812C371.841 928.356 372.146 927.709 372.357 926.864C372.57 926.013 372.667 925.052 372.772 924.008C372.89 922.824 372.665 921.499 372.489 920.463C372.441 920.184 372.397 919.926 372.365 919.697C372.295 919.205 372.636 918.749 373.128 918.679C373.621 918.609 374.076 918.95 374.147 919.443C374.169 919.598 374.203 919.796 374.243 920.028C374.42 921.053 374.709 922.727 374.563 924.187L374.559 924.222C374.459 925.227 374.351 926.31 374.103 927.3C374.022 927.624 373.925 927.946 373.803 928.261C374.366 928.187 375.021 928.164 375.803 928.3C375.999 928.22 376.204 928.166 376.401 928.128C376.738 928.063 377.113 928.034 377.501 928.034C377.684 928.034 377.873 928.041 378.068 928.053C377.582 927.12 377.091 925.928 376.894 924.646C376.541 922.35 376.965 919.488 377.1 918.61C377.176 918.118 377.635 917.781 378.126 917.857Z" fill="#806959"/>
<path fill-rule="evenodd" clip-rule="evenodd" d="M367.242 910.068C367.137 909.686 367.081 909.283 367.081 908.867V907.633C367.081 905.132 369.109 903.105 371.609 903.105C371.649 903.105 371.688 903.105 371.727 903.106C372.116 900.997 373.965 899.4 376.186 899.4C378.691 899.4 380.721 901.43 380.721 903.935V904.284C380.721 904.442 380.713 904.598 380.697 904.751H381.9C383.719 904.751 385.193 906.226 385.193 908.044C385.193 908.59 385.06 909.105 384.825 909.558C386.133 910.395 387 911.86 387 913.528C387 916.129 384.892 918.237 382.291 918.237H378.802C377.803 918.237 376.877 917.926 376.115 917.395C375.227 918.707 373.724 919.57 372.021 919.57H369.139C366.411 919.57 364.2 917.358 364.2 914.63C364.2 912.574 365.456 910.812 367.242 910.068Z" fill="#DEC9B6"/>
<path fill-rule="evenodd" clip-rule="evenodd" d="M376.186 900.3C374.406 900.3 372.924 901.58 372.612 903.27C372.531 903.705 372.146 904.017 371.704 904.006C371.672 904.005 371.641 904.005 371.609 904.005C369.606 904.005 367.981 905.629 367.981 907.633V908.867C367.981 909.202 368.026 909.525 368.11 909.83C368.23 910.267 368.007 910.725 367.588 910.899C366.126 911.508 365.1 912.95 365.1 914.63C365.1 916.861 366.909 918.67 369.14 918.67H372.021C373.413 918.67 374.642 917.966 375.369 916.891C375.504 916.692 375.713 916.555 375.95 916.511C376.187 916.467 376.431 916.519 376.629 916.657C377.245 917.086 377.993 917.337 378.802 917.337H382.291C384.395 917.337 386.1 915.632 386.1 913.528C386.1 912.18 385.4 910.994 384.34 910.316C383.948 910.065 383.812 909.557 384.026 909.144C384.196 908.815 384.293 908.442 384.293 908.044C384.293 906.723 383.222 905.651 381.9 905.651H380.697C380.443 905.651 380.2 905.543 380.029 905.354C379.859 905.165 379.776 904.913 379.802 904.659C379.815 904.536 379.821 904.411 379.821 904.284V903.935C379.821 901.927 378.194 900.3 376.186 900.3ZM371.022 902.236C371.736 900.066 373.777 898.5 376.186 898.5C379.16 898.5 381.576 900.888 381.62 903.851H381.9C384.216 903.851 386.093 905.728 386.093 908.044C386.093 908.462 386.032 908.867 385.917 909.249C387.129 910.277 387.9 911.812 387.9 913.528C387.9 916.626 385.389 919.137 382.291 919.137H378.802C377.918 919.137 377.08 918.932 376.335 918.566C375.268 919.735 373.73 920.47 372.021 920.47H369.14C365.914 920.47 363.3 917.855 363.3 914.63C363.3 912.465 364.478 910.576 366.226 909.568C366.197 909.339 366.181 909.105 366.181 908.867V907.633C366.181 904.833 368.301 902.529 371.022 902.236Z" fill="#806959"/>
<path fill-rule="evenodd" clip-rule="evenodd" d="M646.525 35.7004C646.927 35.7114 647.273 35.9882 647.372 36.3783C649.59 45.1015 653.212 51.5312 656.095 55.7824C657.319 57.5867 658.407 58.9948 659.211 60.0365C659.356 60.224 659.492 60.3996 659.618 60.5635C660.012 61.078 660.354 61.5352 660.538 61.8736C660.588 61.9643 660.64 62.0714 660.68 62.1869C660.715 62.2908 660.766 62.4736 660.744 62.6911C660.718 62.9497 660.588 63.2356 660.308 63.4234C660.072 63.5811 659.83 63.6001 659.7 63.6001C659.275 63.6001 658.618 63.4732 657.936 63.3171C657.68 63.2586 657.407 63.1925 657.121 63.1209C658.636 67.4323 659.939 69.9719 660.942 71.7116C661.224 72.2009 661.485 72.6298 661.725 73.0252L661.747 73.0608C661.977 73.4393 662.193 73.7947 662.384 74.1327C662.782 74.8361 663.101 75.5115 663.279 76.3104C663.437 77.0219 663.357 77.7805 662.743 78.2789C662.224 78.7002 661.544 78.7312 661.057 78.6983C660.105 78.6341 658.991 78.2481 658.325 77.9965C656.74 77.9313 655.448 76.9964 654.561 76.3551C654.458 76.2806 654.361 76.2101 654.269 76.1453C653.736 75.7696 653.44 75.6103 653.248 75.5785C653.192 75.5692 653.176 75.5769 653.165 75.5819L653.164 75.5823C653.142 75.5929 653.059 75.6403 652.933 75.8176C652.448 76.4952 651.838 76.8397 651.316 77.0942C651.194 77.1536 651.081 77.2072 650.973 77.2577C650.749 77.3635 650.552 77.4563 650.365 77.5633C650.648 82.5218 651.304 86.4943 651.828 89.1109C652.051 90.224 652.25 91.0893 652.388 91.692C652.418 91.8226 652.445 91.941 652.469 92.0469C652.502 92.1941 652.531 92.3237 652.552 92.4287C652.569 92.5154 652.594 92.642 652.6 92.7538C652.602 92.7857 652.604 92.8423 652.598 92.91L652.598 92.912C652.594 92.9535 652.578 93.1318 652.463 93.3177C652.394 93.4282 652.267 93.5777 652.056 93.67C651.837 93.7658 651.624 93.7578 651.466 93.7168C651.213 93.6515 651.065 93.496 651.034 93.4637L651.032 93.4616C651.026 93.4555 651.02 93.4493 651.014 93.4432C649.886 93.064 648.904 93.22 648.008 93.5459C647.829 93.6107 647.635 93.6176 647.453 93.5655C645.568 93.0268 644.351 93.2945 643.459 93.5621C643.134 93.6595 642.783 93.5663 642.549 93.3211C642.315 93.0758 642.239 92.7201 642.351 92.4005C643.207 89.9776 643.527 87.0115 643.689 84.2495C643.744 83.3214 643.779 82.4349 643.813 81.6034C643.829 81.1983 643.845 80.8062 643.862 80.4288C643.901 79.5813 643.946 78.7954 644.026 78.1406C643.741 77.9677 643.436 77.8042 643.112 77.6304C642.927 77.5316 642.737 77.4295 642.54 77.3203C642.165 77.1125 641.745 76.8671 641.37 76.5636C640.172 77.5166 638.662 77.8936 637.173 78.035C635.794 78.1658 634.299 78.1022 632.938 78.0444C632.536 78.0272 632.146 78.0106 631.774 77.9997C631.429 77.9896 631.121 77.7838 630.98 77.4698C630.838 77.1558 630.888 76.7885 631.109 76.5239C632.217 75.1934 633.623 72.4596 634.953 69.4749C635.954 67.2303 636.883 64.9107 637.576 63.0799C636.235 63.3473 634.904 63.5162 633.978 63.5967C633.597 63.6298 633.237 63.4187 633.08 63.0702C632.923 62.7218 633.003 62.312 633.279 62.0484C635.655 59.7863 638.219 55.0933 640.48 49.9975C642.721 44.9467 644.6 39.6545 645.641 36.3309C645.762 35.9468 646.122 35.6894 646.525 35.7004ZM639.69 62.5609C638.97 64.5312 637.838 67.4229 636.597 70.2077C635.609 72.4252 634.522 74.6414 633.496 76.2653C634.698 76.3146 635.881 76.3494 637.003 76.243C638.626 76.089 639.895 75.6518 640.721 74.7034C640.907 74.4902 641.182 74.3767 641.464 74.3968C641.746 74.4168 642.002 74.5682 642.156 74.8055C642.333 75.0787 642.729 75.3668 643.413 75.7464C643.556 75.8254 643.711 75.9086 643.874 75.996C644.404 76.2793 645.014 76.6063 645.527 76.9757C646.371 77.5845 646.93 77.6614 647.272 77.5072C647.656 77.2747 648.247 76.8807 648.89 76.3865C649.367 76.0196 649.887 75.777 650.284 75.5916C650.371 75.5507 650.453 75.5126 650.527 75.4765C650.966 75.2621 651.248 75.0789 651.468 74.7714C651.716 74.4237 652.018 74.1338 652.393 73.9559C652.78 73.7725 653.174 73.7416 653.543 73.8028C654.204 73.9127 654.827 74.3361 655.306 74.6742C655.402 74.742 655.497 74.8094 655.591 74.8761C656.583 75.5819 657.451 76.2001 658.5 76.2001C658.611 76.2001 658.72 76.2204 658.823 76.2601C659.485 76.5144 660.46 76.8539 661.178 76.9024C661.37 76.9154 661.487 76.9029 661.551 76.8908C661.549 76.8484 661.541 76.7869 661.522 76.7009C661.399 76.1498 661.175 75.6514 660.818 75.0193C660.64 74.7061 660.437 74.3718 660.2 73.9823L660.187 73.96C659.947 73.5646 659.677 73.12 659.383 72.611C658.234 70.6187 656.745 67.682 655.027 62.5637C654.305 62.3642 653.575 62.1568 652.903 61.9658C652.535 61.8613 652.185 61.7618 651.862 61.671C651.338 61.5235 650.89 61.3999 650.553 61.3135C650.385 61.2706 650.253 61.2389 650.157 61.2185C650.099 61.2459 650.022 61.2863 649.925 61.3423C649.676 61.4857 649.36 61.6937 649.011 61.9376C648.317 62.4232 647.553 63.0106 647.062 63.4029C646.903 63.5305 646.705 63.6001 646.5 63.6001C643.968 63.6001 642.437 62.7372 641.679 61.7422C641.539 61.8241 641.396 61.899 641.254 61.9678C640.787 62.1941 640.251 62.3905 639.69 62.5609ZM650.247 61.181C650.247 61.1812 650.243 61.1824 650.237 61.1842C650.244 61.1817 650.247 61.1809 650.247 61.181ZM661.545 76.9711C661.545 76.9704 661.545 76.9637 661.55 76.9529C661.549 76.9664 661.546 76.9718 661.545 76.9711ZM645.738 79.1399C645.708 79.5455 645.683 80.0036 645.66 80.5105C645.644 80.8703 645.628 81.253 645.612 81.6531C645.578 82.4935 645.541 83.4109 645.486 84.3548C645.352 86.6371 645.107 89.1855 644.503 91.5042C645.361 91.4056 646.401 91.4317 647.669 91.759C648.494 91.491 649.442 91.3303 650.493 91.4768C650.371 90.9366 650.223 90.2608 650.064 89.4643C649.567 86.9842 648.955 83.3209 648.638 78.7733C648.462 78.8884 648.302 78.9886 648.163 79.0718C648.143 79.0837 648.123 79.0948 648.103 79.1051C647.3 79.5063 646.478 79.4247 645.738 79.1399ZM636.153 61.508C637.015 61.3677 637.93 61.184 638.762 60.9555C639.428 60.7726 640.014 60.5683 640.469 60.3478C640.949 60.1155 641.174 59.9165 641.251 59.8008C641.46 59.488 641.841 59.3378 642.207 59.4242C642.573 59.5105 642.847 59.8153 642.893 60.1884C642.918 60.3845 643.394 61.7048 646.193 61.7952C646.692 61.403 647.357 60.8977 647.979 60.4625C648.346 60.2065 648.711 59.9644 649.026 59.7829C649.183 59.6927 649.343 59.6079 649.495 59.543C649.615 59.4914 649.845 59.4001 650.1 59.4001C650.253 59.4001 650.426 59.4354 650.527 59.457C650.66 59.485 650.821 59.524 651 59.5699C651.359 59.662 651.825 59.7906 652.349 59.9383C652.68 60.0314 653.036 60.1324 653.406 60.2376C654.22 60.4687 655.106 60.7204 655.966 60.9551C656.72 61.161 657.443 61.3509 658.067 61.4993C657.98 61.3864 657.888 61.2676 657.791 61.1428C656.987 60.1013 655.863 58.647 654.605 56.7928C651.965 52.8994 648.72 47.226 646.429 39.6949C645.34 42.8735 643.838 46.8669 642.125 50.7276C640.332 54.7694 638.265 58.7654 636.153 61.508Z" fill="#806959"/>
<path d="M538.388 24.8464C534.518 21.1597 530.327 9.94604 528.714 4.80005C525.259 18.3947 517.429 24.8464 518.58 24.8464C519.051 24.8464 520.294 24.5377 521.629 24.173C518.92 32.3846 516.507 33.8327 516.047 35.9064C515.678 37.5654 517.582 37.2121 518.58 36.8281C520.883 36.8281 523.187 32.2197 524.338 33.8327C524.878 34.5893 525.709 35.3301 526.459 35.9064C526.045 43.971 524.338 48.8098 524.799 47.8881C526.2 47.7001 526.949 47.5809 527.793 47.8881C528.9 47.7001 530.48 47.6577 531.248 47.8881C529.866 43.971 530.25 38.4439 529.866 36.3715C530.806 35.693 531.686 34.5794 532.169 33.8327C532.169 35.676 537.39 35.9832 540 35.9064C538.157 33.6944 535.547 27.1625 534.472 24.173C535.814 24.5416 537.404 24.7608 538.388 24.8464Z" fill="#DEC9B6"/>
<path fill-rule="evenodd" clip-rule="evenodd" d="M528.69 3.90036C528.287 3.91138 527.941 4.18824 527.842 4.57836C526.147 11.2489 523.379 16.1652 521.175 19.4161C520.239 20.7962 519.408 21.8723 518.79 22.6724C518.679 22.8167 518.574 22.952 518.477 23.0785C518.178 23.4696 517.904 23.8347 517.753 24.1117C517.712 24.1872 517.666 24.2808 517.63 24.3848C517.599 24.4773 517.55 24.6504 517.571 24.8602C517.596 25.111 517.722 25.3913 517.997 25.5753C518.227 25.7293 518.461 25.7463 518.58 25.7463C518.934 25.7463 519.461 25.6428 519.981 25.5238C520.062 25.5053 520.145 25.4859 520.229 25.4657C519.103 28.5627 518.058 30.5015 517.225 31.8746C516.981 32.2765 516.754 32.6325 516.543 32.9626L516.507 33.0182C516.312 33.3242 516.125 33.615 515.96 33.89C515.611 34.4729 515.315 35.0509 515.168 35.7112C515.045 36.2653 515.068 36.8545 515.421 37.3362C515.767 37.809 516.283 37.9744 516.687 38.0261C517.399 38.1173 518.209 37.9166 518.757 37.7222C519.55 37.6696 520.255 37.2721 520.82 36.8604C521.368 36.4606 521.896 35.9606 522.346 35.5338C522.401 35.4814 522.456 35.4301 522.508 35.3802C523.031 34.8878 523.394 34.5713 523.662 34.4336C524.177 35.1321 524.879 35.7886 525.534 36.3227C525.315 40.0854 524.817 43.1007 524.418 45.0904C524.248 45.9423 524.096 46.6037 523.99 47.0667C523.967 47.1673 523.946 47.2586 523.928 47.3404C523.902 47.4537 523.88 47.5553 523.863 47.6386C523.85 47.7037 523.828 47.8148 523.822 47.9175C523.821 47.9471 523.819 48.0019 523.825 48.0681L523.825 48.0702C523.828 48.1106 523.844 48.2876 523.959 48.4725C524.028 48.5827 524.154 48.732 524.365 48.8243C524.584 48.92 524.797 48.912 524.955 48.8711C525.077 48.8392 525.176 48.786 525.247 48.7362C526.473 48.5738 526.939 48.5353 527.485 48.7339C527.632 48.7872 527.79 48.8015 527.944 48.7754C528.446 48.6901 529.069 48.6361 529.655 48.6311C530.263 48.626 530.739 48.675 530.989 48.7501C531.314 48.8475 531.665 48.7544 531.899 48.5092C532.133 48.264 532.209 47.9082 532.096 47.5887C531.45 45.7572 531.205 43.504 531.081 41.3854C531.039 40.6743 531.012 39.997 530.986 39.3595C530.974 39.0478 530.962 38.7456 530.948 38.4535C530.92 37.8364 530.887 37.2536 530.83 36.7563C531.304 36.3528 531.743 35.8807 532.116 35.4246C532.272 35.5464 532.437 35.6499 532.597 35.7367C533.251 36.0905 534.095 36.32 534.944 36.475C536.66 36.788 538.686 36.8454 540.026 36.806C540.371 36.7959 540.679 36.5902 540.82 36.2762C540.962 35.9622 540.912 35.595 540.691 35.3304C539.861 34.3339 538.793 32.2602 537.77 29.965C537.066 28.3848 536.408 26.7557 535.894 25.4134C536.804 25.5802 537.679 25.6881 538.31 25.743C538.69 25.7761 539.051 25.565 539.208 25.2166C539.365 24.8682 539.285 24.4584 539.008 24.1948C537.219 22.4894 535.264 18.9213 533.527 15.0055C531.81 11.1347 530.371 7.07751 529.573 4.53095C529.453 4.14684 529.092 3.88935 528.69 3.90036ZM533.782 24.9083C534.338 26.4223 535.191 28.5989 536.126 30.6975C536.811 32.2339 537.562 33.7828 538.29 35.0004C537.302 34.9666 536.22 34.878 535.267 34.7042C534.485 34.5615 533.86 34.3734 533.454 34.1535C533.254 34.0452 533.149 33.9518 533.101 33.8916C533.079 33.8643 533.072 33.8483 533.071 33.8441C533.07 33.8411 533.069 33.839 533.069 33.8326C533.069 33.4337 532.806 33.0824 532.424 32.9695C532.041 32.8565 531.63 33.0089 531.413 33.3438C530.959 34.046 530.151 35.0558 529.339 35.6417C529.04 35.8577 528.783 35.9845 528.578 36.0368C528.406 36.0811 528.298 36.0671 528.219 36.0338C527.931 35.8586 527.489 35.5632 527.007 35.1929C526.283 34.6359 525.534 33.9589 525.071 33.3097C524.82 32.9592 524.464 32.6841 523.996 32.6095C523.561 32.54 523.17 32.6685 522.877 32.8139C522.319 33.0906 521.75 33.6214 521.273 34.0708C521.219 34.1223 521.165 34.1735 521.111 34.2245C520.647 34.6631 520.207 35.0792 519.759 35.4061C519.25 35.7777 518.866 35.9281 518.58 35.9281C518.47 35.9281 518.36 35.9484 518.257 35.9881C518.05 36.0679 517.794 36.1462 517.539 36.1961C517.275 36.2475 517.06 36.2592 516.915 36.2407C516.911 36.2401 516.906 36.2395 516.902 36.2389C516.906 36.2045 516.912 36.1593 516.925 36.1015C517.009 35.725 517.187 35.3443 517.504 34.8159C517.655 34.5643 517.828 34.2943 518.029 33.9802L518.059 33.9329C518.271 33.6021 518.508 33.2301 518.764 32.8081C519.759 31.1685 521.01 28.8116 522.331 24.9132C522.851 24.7688 523.374 24.6202 523.857 24.4828C524.139 24.4026 524.408 24.3263 524.654 24.2569C525.057 24.1436 525.399 24.0493 525.655 23.9836C525.744 23.9607 525.819 23.9424 525.879 23.9284C525.908 23.9434 525.941 23.9619 525.98 23.9843C526.163 24.09 526.401 24.2457 526.667 24.4317C527.195 24.8013 527.778 25.2496 528.152 25.549C528.311 25.6768 528.51 25.7463 528.714 25.7463C530.591 25.7463 531.808 25.1384 532.468 24.3789C532.529 24.4116 532.59 24.4425 532.651 24.4717C532.993 24.6378 533.38 24.7824 533.782 24.9083ZM525.765 23.8752C525.765 23.8755 525.77 23.8775 525.779 23.8803C525.77 23.8763 525.765 23.8749 525.765 23.8752ZM516.903 36.332C516.903 36.3319 516.903 36.3296 516.902 36.3255C516.902 36.3301 516.903 36.3321 516.903 36.332ZM516.818 36.2195C516.815 36.2181 516.814 36.2175 516.814 36.2176C516.814 36.2176 516.815 36.2184 516.818 36.2195ZM529.109 37.7574C529.124 37.9953 529.138 38.2548 529.15 38.5353C529.163 38.8096 529.175 39.1024 529.187 39.4091C529.213 40.0555 529.241 40.7638 529.284 41.4906C529.383 43.1844 529.563 45.0823 529.997 46.8335C529.877 46.8309 529.758 46.8302 529.64 46.8312C529.049 46.8362 528.421 46.884 527.867 46.9653C527.213 46.7726 526.584 46.7733 525.887 46.8428C525.974 46.4542 526.075 45.985 526.183 45.4438C526.553 43.5962 527.006 40.8973 527.256 37.5551C527.281 37.5706 527.306 37.5855 527.33 37.5997C527.349 37.6116 527.37 37.6227 527.39 37.633C527.977 37.9265 528.569 37.9144 529.109 37.7574ZM536.177 23.6353C535.681 23.5435 535.178 23.4336 534.711 23.3051C534.206 23.1664 533.769 23.0135 533.436 22.8519C533.078 22.6784 532.946 22.5456 532.918 22.5039C532.709 22.191 532.328 22.0407 531.962 22.1271C531.596 22.2134 531.323 22.5183 531.276 22.8914C531.276 22.8914 531.276 22.8918 531.276 22.8924L531.275 22.8954C531.275 22.898 531.274 22.9017 531.273 22.9066C531.27 22.9163 531.266 22.9296 531.26 22.9461C531.248 22.9794 531.228 23.0228 531.196 23.0734C531.134 23.1736 531.027 23.2998 530.853 23.4255C530.541 23.651 529.979 23.8964 529.019 23.9397C528.641 23.6441 528.155 23.2764 527.698 22.9568C527.415 22.7588 527.129 22.5689 526.879 22.425C526.756 22.3536 526.625 22.284 526.498 22.2297C526.402 22.1886 526.192 22.103 525.95 22.103C525.807 22.103 525.654 22.1354 525.579 22.1513C525.473 22.1737 525.346 22.2045 525.208 22.24C524.93 22.3114 524.57 22.4107 524.167 22.5242C523.912 22.596 523.638 22.6737 523.353 22.7546C522.729 22.932 522.051 23.1248 521.392 23.3048C521.036 23.402 520.69 23.4943 520.366 23.5773C520.97 22.7943 521.774 21.7401 522.665 20.4262C524.629 17.5291 527.027 13.3537 528.779 7.84681C529.596 10.1848 530.67 13.0029 531.882 15.7353C533.169 18.6368 534.648 21.5289 536.177 23.6353Z" fill="#806959"/>
<path d="M515.252 34.7443C510.609 30.3407 505.579 16.9466 503.644 10.8C499.498 27.0381 490.101 34.7443 491.483 34.7443C492.048 34.7443 493.54 34.3756 495.142 33.94C491.891 43.7483 488.996 45.4779 488.443 47.9549C488.001 49.9365 491.096 49.2222 492.287 49.5C495.051 49.5 497.687 45.9 498.587 46.5C499.487 47.1 500.038 47.2665 500.937 47.9549C500.441 57.5876 498.868 62.444 500.087 62.2663C501.228 62.1 502.969 61.8994 503.982 62.2663C505.088 61.6058 506.665 61.9911 507.587 62.2663C505.928 57.5876 505.486 50.9857 505.026 48.5104C506.154 47.6999 507.21 47.092 507.79 46.2C508.787 48.4222 514.054 48.0466 517.187 47.9549C514.976 45.3127 511.843 37.5107 510.554 33.94C512.164 34.3803 514.071 34.642 515.252 34.7443Z" fill="#DEC9B6"/>
<path fill-rule="evenodd" clip-rule="evenodd" d="M503.619 9.90037C503.217 9.91142 502.872 10.1878 502.772 10.5774C500.732 18.5692 497.4 24.4598 494.747 28.3547C493.621 30.008 492.62 31.2978 491.879 32.2535C491.745 32.4256 491.62 32.5869 491.504 32.7375C491.142 33.208 490.823 33.6324 490.65 33.949C490.603 34.0343 490.552 34.1367 490.514 34.2483C490.48 34.3483 490.429 34.5282 490.451 34.7438C490.477 35.0009 490.607 35.2848 490.886 35.4706C491.119 35.6261 491.357 35.6442 491.483 35.6442C491.884 35.6442 492.496 35.5259 493.124 35.383C493.32 35.3383 493.527 35.2888 493.743 35.2356C492.345 39.1253 491.045 41.5338 490.012 43.2283C489.718 43.7102 489.445 44.137 489.191 44.5313L489.149 44.5977C488.913 44.9636 488.691 45.3088 488.495 45.6348C488.078 46.3257 487.734 46.9972 487.565 47.7588C487.401 48.4897 487.543 49.1849 488.097 49.6702C488.559 50.0749 489.176 50.2037 489.646 50.26C490.099 50.3142 490.593 50.317 491.002 50.3193C491.041 50.3195 491.079 50.3198 491.116 50.32C491.597 50.3233 491.903 50.3346 492.082 50.3765C492.149 50.3921 492.218 50.4 492.287 50.4C494.007 50.4 495.584 49.3011 496.671 48.499C496.824 48.3856 496.967 48.2784 497.101 48.1779C497.49 47.8869 497.803 47.6522 498.079 47.485C498.163 47.4334 498.23 47.398 498.28 47.374C498.611 47.5854 498.902 47.7462 499.161 47.89C499.217 47.9207 499.271 47.9505 499.323 47.98C499.553 48.1084 499.772 48.2356 500.012 48.3973C499.788 52.3817 499.384 55.5093 499.091 57.7852C499.05 58.0985 499.012 58.3956 498.976 58.6766C498.827 59.8533 498.718 60.8202 498.736 61.4847C498.745 61.7969 498.782 62.1927 498.961 62.525C499.062 62.7121 499.226 62.9127 499.482 63.0427C499.738 63.1734 500 63.1885 500.217 63.1569C500.778 63.0751 501.46 62.9891 502.115 62.9658C502.793 62.9416 503.338 62.9902 503.676 63.1126C503.93 63.2046 504.212 63.1775 504.444 63.0389C504.772 62.8431 505.229 62.7714 505.787 62.8129C506.336 62.8538 506.887 62.9964 507.329 63.1287C507.654 63.2257 508.006 63.1321 508.239 62.8865C508.473 62.641 508.548 62.2851 508.435 61.9657C507.636 59.712 507.121 56.963 506.748 54.4307C506.584 53.3179 506.444 52.2226 506.319 51.2412C506.206 50.3496 506.104 49.552 506.007 48.9206C506.06 48.8839 506.113 48.847 506.167 48.81C506.511 48.5717 506.862 48.329 507.16 48.1009C507.365 47.9445 507.569 47.7785 507.763 47.5986C508.103 47.8814 508.497 48.0957 508.901 48.2591C509.7 48.5819 510.649 48.7514 511.603 48.8412C513.211 48.9924 515.014 48.9297 516.455 48.8795C516.721 48.8703 516.975 48.8614 517.213 48.8545C517.558 48.8444 517.866 48.6383 518.008 48.3238C518.149 48.0093 518.098 47.6417 517.877 47.3772C516.863 46.1657 515.572 43.667 514.346 40.9279C513.448 38.9211 512.612 36.8488 511.979 35.1906C513.175 35.4222 514.349 35.5694 515.175 35.6409C515.556 35.6739 515.916 35.4623 516.073 35.1134C516.23 34.7645 516.149 34.3545 515.872 34.0912C513.695 32.0272 511.338 27.7349 509.254 23.0595C507.191 18.4289 505.462 13.5766 504.503 10.5298C504.382 10.1463 504.021 9.88932 503.619 9.90037ZM509.865 34.6777C510.529 36.4858 511.566 39.1228 512.703 41.6633C513.589 43.6425 514.563 45.626 515.49 47.11C514.271 47.146 512.962 47.161 511.772 47.0491C510.894 46.9665 510.142 46.819 509.575 46.5901C509.006 46.3601 508.728 46.0925 508.611 45.8316C508.476 45.531 508.188 45.3281 507.859 45.3027C507.531 45.2773 507.215 45.4334 507.035 45.7096C506.828 46.0288 506.513 46.33 506.067 46.6706C505.79 46.8822 505.513 47.0737 505.206 47.2857C504.989 47.4353 504.758 47.5951 504.501 47.7794C503.731 48.3322 503.245 48.3852 502.964 48.2616C502.613 48.0494 502.073 47.6904 501.484 47.2401C500.986 46.859 500.582 46.6215 500.201 46.4087C500.141 46.3748 500.082 46.342 500.023 46.3097C499.717 46.1398 499.433 45.9825 499.086 45.7512C498.686 45.4846 498.256 45.5075 497.952 45.5837C497.658 45.6575 497.379 45.8038 497.144 45.9464C496.787 46.1634 496.371 46.4752 495.961 46.7823C495.84 46.8732 495.72 46.9636 495.601 47.0511C494.484 47.8762 493.391 48.5624 492.371 48.5985C491.977 48.5259 491.509 48.5226 491.128 48.5201C491.096 48.5198 491.064 48.5196 491.032 48.5194C490.599 48.5167 490.206 48.5142 489.86 48.4727C489.512 48.4311 489.356 48.3638 489.3 48.3291C489.299 48.301 489.3 48.2446 489.321 48.1509C489.428 47.674 489.653 47.2004 490.037 46.5639C490.219 46.2611 490.428 45.9366 490.668 45.5623L490.705 45.5049C490.959 45.1098 491.243 44.6671 491.549 44.165C492.744 42.2046 494.251 39.3777 495.843 34.6811C496.496 34.501 497.156 34.3143 497.765 34.1422C498.103 34.0464 498.426 33.9551 498.723 33.872C499.205 33.7367 499.618 33.6235 499.927 33.5444C500.069 33.5084 500.181 33.4812 500.267 33.4627C500.315 33.4864 500.377 33.5195 500.455 33.5638C500.681 33.6939 500.971 33.8834 501.292 34.1067C501.93 34.551 502.632 35.089 503.083 35.4482C503.243 35.5751 503.44 35.6442 503.644 35.6442C505.95 35.6442 507.377 34.8736 508.104 33.9605C508.218 34.0252 508.333 34.0848 508.448 34.14C508.873 34.345 509.358 34.5231 509.865 34.6777ZM500.17 33.421C500.17 33.4212 500.174 33.4227 500.181 33.4248C500.173 33.4218 500.169 33.4208 500.17 33.421ZM504.332 49.9103C504.392 50.3488 504.454 50.8401 504.522 51.3761C504.645 52.3498 504.787 53.4713 504.967 54.6934C505.268 56.7357 505.67 58.991 506.257 61.0518C506.147 61.0379 506.034 61.0264 505.921 61.0179C505.299 60.9717 504.572 61.0113 503.894 61.3035C503.304 61.1646 502.644 61.1458 502.051 61.1669C501.527 61.1856 501.001 61.2382 500.534 61.297C500.537 60.7919 500.621 60.0151 500.762 58.9024C500.797 58.6246 500.835 58.3295 500.876 58.0174C501.142 55.9544 501.505 53.1441 501.74 49.6196C501.863 49.6982 501.976 49.7681 502.077 49.8283C502.097 49.8401 502.117 49.8511 502.137 49.8614C502.885 50.2336 503.648 50.1649 504.332 49.9103ZM513.007 33.5473C512.268 33.4231 511.497 33.2649 510.791 33.0718C510.179 32.9046 509.644 32.7184 509.23 32.5187C508.791 32.3071 508.598 32.1313 508.538 32.0418C508.329 31.7297 507.948 31.5801 507.582 31.6667C507.217 31.7533 506.944 32.0577 506.897 32.4304C506.881 32.5601 506.485 33.7501 503.95 33.839C503.492 33.4808 502.887 33.024 502.32 32.6296C501.982 32.3942 501.643 32.1708 501.351 32.0028C501.205 31.9193 501.055 31.84 500.912 31.7791C500.8 31.7312 500.577 31.6425 500.327 31.6425C500.178 31.6425 500.013 31.6766 499.92 31.6961C499.797 31.7222 499.647 31.7582 499.482 31.8004C499.15 31.885 498.721 32.0032 498.237 32.1387C497.932 32.2242 497.604 32.3169 497.263 32.4135C496.514 32.6254 495.698 32.8562 494.906 33.0715C494.291 33.2387 493.699 33.3943 493.173 33.522C493.213 33.4702 493.254 33.4171 493.296 33.3628C494.038 32.4073 495.075 31.0712 496.235 29.3681C498.646 25.8275 501.604 20.684 503.713 13.8687C504.711 16.7524 506.068 20.3302 507.61 23.7921C509.23 27.4261 511.094 31.0281 513.007 33.5473Z" fill="#806959"/>
<path d="M117.585 23.5296C113.23 19.423 108.512 6.93217 106.698 1.20007C102.809 16.3431 93.9956 23.5296 95.2918 23.5296C95.8221 23.5296 97.2206 23.1858 98.7235 22.7795C95.6745 31.9264 92.9587 33.5394 92.4402 35.8493C92.0255 37.6973 94.9291 37.0312 96.0456 37.2903C98.6379 37.2903 101.11 33.9331 101.955 34.4926C102.799 35.0521 103.315 35.2074 104.159 35.8493C103.694 44.8325 102.218 49.3613 103.361 49.1957C104.432 49.0406 106.065 48.8535 107.015 49.1957C108.052 48.5797 109.532 48.939 110.396 49.1957C108.841 44.8325 108.426 38.6758 107.994 36.3674C109.052 35.6115 110.043 35.0446 110.586 34.2128C111.521 36.2852 116.462 35.9349 119.4 35.8493C117.326 33.3854 114.388 26.1095 113.179 22.7795C114.689 23.1901 116.478 23.4342 117.585 23.5296Z" fill="#DEC9B6"/>
<path fill-rule="evenodd" clip-rule="evenodd" d="M106.673 0.300395C106.272 0.311485 105.926 0.587221 105.826 0.976211C103.915 8.41992 100.794 13.9066 98.3081 17.5348C97.2531 19.0749 96.3157 20.2762 95.6203 21.1674C95.495 21.328 95.3776 21.4785 95.2687 21.6191C94.9299 22.0567 94.6274 22.4566 94.462 22.7569C94.4172 22.8381 94.3682 22.9371 94.3306 23.0459C94.2971 23.143 94.2464 23.3211 94.2681 23.5357C94.2941 23.7926 94.4248 24.0749 94.7023 24.2587C94.9339 24.4122 95.1692 24.4296 95.2918 24.4296C95.6742 24.4296 96.2541 24.3177 96.8417 24.1846C96.9948 24.15 97.155 24.1123 97.3208 24.072C96.0261 27.6329 94.8226 29.8466 93.8656 31.4079C93.5906 31.8567 93.3343 32.2541 93.0965 32.6219L93.0564 32.6838C92.8358 33.0249 92.6271 33.3476 92.4423 33.6524C92.0507 34.2985 91.7238 34.9317 91.5621 35.6522C91.4051 36.3517 91.5405 37.026 92.0805 37.4963C92.5272 37.8853 93.1203 38.0067 93.5623 38.0593C93.9905 38.1102 94.4565 38.1129 94.8403 38.115C94.8766 38.1152 94.9121 38.1154 94.9469 38.1156C95.3998 38.1187 95.6806 38.1295 95.8422 38.167C95.9089 38.1825 95.9772 38.1903 96.0456 38.1903C97.6779 38.1903 99.1711 37.154 100.188 36.407C100.334 36.3003 100.469 36.1999 100.595 36.1059C100.958 35.8352 101.249 35.6186 101.505 35.4641C101.569 35.4251 101.622 35.3965 101.663 35.3758C101.966 35.5663 102.231 35.7126 102.468 35.8432C102.52 35.8717 102.571 35.8994 102.62 35.9268C102.825 36.041 103.021 36.1538 103.234 36.2945C103.023 39.9904 102.646 42.8928 102.372 45.0082C102.334 45.3004 102.298 45.5776 102.264 45.8397C102.125 46.9355 102.021 47.8427 102.039 48.4686C102.047 48.7614 102.082 49.1437 102.257 49.4676C102.357 49.6506 102.519 49.8473 102.77 49.9747C103.023 50.1026 103.28 50.1169 103.491 50.0864C104.017 50.0102 104.654 49.9303 105.265 49.9086C105.9 49.8861 106.403 49.9319 106.71 50.0425C106.963 50.1335 107.244 50.1067 107.475 49.9694C107.769 49.7948 108.185 49.7276 108.704 49.766C109.214 49.8036 109.725 49.9354 110.14 50.0584C110.465 50.1549 110.816 50.0607 111.049 49.8147C111.282 49.5688 111.357 49.2127 111.244 48.8935C110.497 46.7979 110.014 44.2394 109.664 41.8789C109.511 40.845 109.38 39.8246 109.263 38.9092C109.159 38.0948 109.065 37.3634 108.975 36.7796C109.014 36.753 109.053 36.7263 109.092 36.6995C109.416 36.4765 109.747 36.2485 110.028 36.0352C110.209 35.8978 110.389 35.752 110.563 35.5945C110.879 35.8486 111.241 36.0419 111.609 36.19C112.366 36.4937 113.261 36.6524 114.158 36.7363C115.669 36.8777 117.364 36.819 118.716 36.7723C118.965 36.7636 119.203 36.7554 119.426 36.7489C119.771 36.7389 120.08 36.5322 120.221 36.2171C120.363 35.902 120.311 35.5339 120.089 35.2697C119.144 34.1472 117.936 31.8248 116.786 29.2697C115.962 27.4404 115.195 25.5526 114.606 24.0248C115.695 24.2302 116.756 24.3615 117.508 24.4262C117.89 24.4591 118.25 24.2469 118.407 23.8973C118.563 23.5478 118.482 23.1375 118.203 22.8748C116.171 20.959 113.964 16.9667 112.01 12.6063C110.076 8.29058 108.455 3.76783 107.556 0.928426C107.435 0.545544 107.074 0.289305 106.673 0.300395ZM112.491 23.5179C113.115 25.2043 114.083 27.6509 115.145 30.0086C115.957 31.813 116.85 33.6255 117.705 35.0036C116.592 35.035 115.407 35.0452 114.326 34.9442C113.504 34.8673 112.805 34.7304 112.28 34.5196C111.752 34.3076 111.507 34.0657 111.407 33.8426C111.271 33.543 110.984 33.341 110.656 33.3155C110.328 33.2901 110.013 33.4453 109.833 33.7205C109.644 34.0096 109.355 34.2857 108.939 34.6019C108.68 34.7987 108.422 34.9759 108.135 35.1728C107.931 35.3122 107.714 35.4617 107.471 35.635C106.756 36.1455 106.322 36.1823 106.084 36.0804C105.756 35.8834 105.253 35.5505 104.704 35.1331C104.234 34.7754 103.852 34.5524 103.494 34.3533C103.437 34.3216 103.381 34.2909 103.327 34.2607C103.039 34.1023 102.775 33.9568 102.452 33.7424C102.06 33.4825 101.64 33.5059 101.347 33.5789C101.063 33.6496 100.797 33.7892 100.575 33.9232C100.237 34.1272 99.8434 34.4203 99.4588 34.707C99.3456 34.7915 99.2331 34.8753 99.123 34.9562C98.0757 35.7253 97.0651 36.3534 96.1282 36.3887C95.7552 36.3211 95.3152 36.3181 94.9621 36.3157L94.9591 36.3157C94.9293 36.3155 94.8997 36.3153 94.8704 36.3151C94.4626 36.3125 94.097 36.3102 93.7751 36.2719C93.6075 36.2519 93.4794 36.2249 93.3856 36.1941C93.3468 36.1813 93.319 36.1695 93.2997 36.1602C93.3015 36.1356 93.3066 36.0989 93.3184 36.0464C93.4159 35.6119 93.6229 35.1772 93.9816 34.5854C94.1523 34.3039 94.3475 34.0021 94.5734 33.6527L94.608 33.5993C94.8462 33.2309 95.1129 32.8175 95.4003 32.3486C96.5205 30.5209 97.9324 27.8883 99.423 23.5217C100.027 23.3561 100.635 23.1849 101.197 23.0268C101.515 22.9375 101.817 22.8524 102.096 22.7749C102.548 22.6488 102.935 22.5433 103.225 22.4698C103.347 22.4386 103.447 22.4147 103.523 22.3978C103.565 22.4185 103.617 22.4463 103.68 22.4825C103.891 22.6027 104.161 22.7783 104.462 22.9862C105.059 23.3997 105.717 23.9006 106.139 24.2351C106.298 24.361 106.495 24.4296 106.698 24.4296C108.84 24.4296 110.19 23.7263 110.894 22.8744C110.99 22.9271 111.086 22.976 111.181 23.0216C111.575 23.2107 112.023 23.375 112.491 23.5179ZM103.421 22.3531C103.422 22.3533 103.426 22.355 103.434 22.3573C103.425 22.354 103.421 22.3529 103.421 22.3531ZM93.301 36.2023C93.3015 36.2018 93.3013 36.1971 93.2989 36.1898C93.2994 36.1992 93.3005 36.2028 93.301 36.2023ZM107.298 37.7531C107.351 38.1426 107.406 38.5751 107.465 39.045C107.581 39.9526 107.714 40.9993 107.883 42.143C108.162 44.0191 108.532 46.0905 109.071 47.9927C108.993 47.984 108.915 47.9767 108.837 47.9709C108.254 47.9278 107.57 47.9636 106.927 48.2347C106.372 48.1069 105.754 48.0902 105.202 48.1097C104.732 48.1264 104.261 48.1719 103.838 48.2236C103.847 47.757 103.924 47.0567 104.05 46.0668C104.083 45.8078 104.119 45.5328 104.156 45.2417C104.404 43.3367 104.741 40.7467 104.961 37.503C105.048 37.557 105.128 37.606 105.201 37.6497C105.221 37.6614 105.241 37.6723 105.262 37.6825C105.956 38.0263 106.662 37.9753 107.298 37.7531ZM115.343 22.3288C114.697 22.2171 114.029 22.0781 113.415 21.911C112.843 21.7555 112.343 21.5829 111.959 21.3986C111.55 21.2023 111.38 21.0437 111.333 20.9736C111.123 20.6625 110.743 20.5139 110.378 20.6007C110.013 20.6875 109.74 20.9914 109.693 21.3635C109.683 21.4426 109.348 22.5367 107.002 22.624C106.573 22.2914 106.012 21.8704 105.486 21.5063C105.169 21.2864 104.849 21.0771 104.573 20.9192C104.435 20.8408 104.292 20.7658 104.156 20.7078C104.049 20.6627 103.832 20.5763 103.587 20.5763C103.441 20.5763 103.281 20.6093 103.194 20.6274C103.078 20.6519 102.937 20.6857 102.782 20.7251C102.47 20.8042 102.066 20.9146 101.613 21.0409C101.326 21.1208 101.019 21.2073 100.698 21.2973C99.9957 21.495 99.2311 21.71 98.4887 21.9107C97.9745 22.0497 97.4775 22.18 97.0268 22.2909C97.0295 22.2875 97.0321 22.2841 97.0348 22.2807C97.7302 21.3896 98.7039 20.142 99.7931 18.5521C102.038 15.2744 104.788 10.525 106.765 4.2412C107.696 6.90399 108.948 10.1751 110.368 13.3425C111.86 16.672 113.577 19.9791 115.343 22.3288Z" fill="#806959"/>
<path d="M55.8 687C55.8 686.669 56.0687 686.4 56.4 686.4H61.8C62.1314 686.4 62.4 686.669 62.4 687V694.2C62.4 694.532 62.1314 694.8 61.8 694.8H56.4C56.0687 694.8 55.8 694.532 55.8 694.2V687Z" fill="#DEC9B6"/>
<path fill-rule="evenodd" clip-rule="evenodd" d="M54.9 687C54.9 686.172 55.5716 685.5 56.4 685.5H61.8C62.6285 685.5 63.3 686.172 63.3 687V694.2C63.3 695.029 62.6285 695.7 61.8 695.7H56.4C55.5716 695.7 54.9 695.029 54.9 694.2V687ZM56.7 687.3V693.9H61.5V687.3H56.7Z" fill="#806959"/>
<path fill-rule="evenodd" clip-rule="evenodd" d="M53.4 681H37.8C37.1373 681 36.6 681.537 36.6 682.2V693C36.6 693.663 37.1373 694.2 37.8 694.2H53.4C54.0628 694.2 54.6 693.663 54.6 693V682.2C54.6 681.537 54.0628 681 53.4 681ZM37.8 679.2C36.1432 679.2 34.8 680.543 34.8 682.2V693C34.8 694.657 36.1432 696 37.8 696H53.4C55.0569 696 56.4 694.657 56.4 693V682.2C56.4 680.543 55.0569 679.2 53.4 679.2H37.8Z" fill="#806959"/>
<path fill-rule="evenodd" clip-rule="evenodd" d="M41.7 685.8C41.7 684.64 42.6402 683.7 43.8 683.7H47.4C48.5597 683.7 49.5 684.64 49.5 685.8V688.8C49.5 689.96 48.5597 690.9 47.4 690.9H43.8C42.6402 690.9 41.7 689.96 41.7 688.8V685.8ZM43.8 685.5C43.6343 685.5 43.5 685.635 43.5 685.8V688.8C43.5 688.966 43.6343 689.1 43.8 689.1H47.4C47.5656 689.1 47.7 688.966 47.7 688.8V685.8C47.7 685.635 47.5656 685.5 47.4 685.5H43.8Z" fill="#806959"/>
<path fill-rule="evenodd" clip-rule="evenodd" d="M58.9396 679.2L45.6 664.481L32.2604 679.2L58.9396 679.2ZM46.9338 663.272C46.2193 662.484 44.9807 662.484 44.2662 663.272L30.9267 677.991C29.8782 679.148 30.6991 681 32.2604 681H58.9396C60.5009 681 61.3218 679.148 60.2733 677.991L46.9338 663.272Z" fill="#806959"/>
</g>
<defs>
<clipPath id="clip0_128_426">
<rect width="720" height="996" fill="white"/>
</clipPath>
</defs>
</svg>
