<svg width="199" height="199" viewBox="0 0 199 199" fill="none" xmlns="http://www.w3.org/2000/svg">
<path d="M99.5 197.01L82.585 120.727L99.5 105.47L99.5 197.01Z" fill="#4D3626"/>
<path d="M99.5 197.01L116.415 120.727L99.5 105.47L99.5 197.01Z" fill="#E6D4C2"/>
<path fill-rule="evenodd" clip-rule="evenodd" d="M117.41 119.4L99.5 199L81.59 119.4L99.5 103.48L117.41 119.4ZM100.495 107.027L115.211 120.108L100.495 185.512L100.495 107.027ZM98.505 107.027L83.7891 120.108L98.505 185.512L98.505 107.027Z" fill="#332114"/>
<path d="M1.99 99.5L78.2733 82.585L93.53 99.5L1.99 99.5Z" fill="#4D3626"/>
<path d="M1.99 99.5L78.2733 116.415L93.53 99.5L1.99 99.5Z" fill="#E6D4C2"/>
<path fill-rule="evenodd" clip-rule="evenodd" d="M79.6 117.41L-7.82871e-07 99.5L79.6 81.59L95.52 99.5L79.6 117.41ZM91.973 100.495L78.8921 115.211L13.4878 100.495L91.973 100.495ZM91.973 98.505L78.8921 83.789L13.4878 98.505L91.973 98.505Z" fill="#332114"/>
<path d="M197.01 99.5L120.727 116.415L105.47 99.5L197.01 99.5Z" fill="#4D3626"/>
<path d="M197.01 99.5L120.727 82.585L105.47 99.5L197.01 99.5Z" fill="#E6D4C2"/>
<path fill-rule="evenodd" clip-rule="evenodd" d="M119.4 81.59L199 99.5L119.4 117.41L103.48 99.5L119.4 81.59ZM107.027 98.505L120.108 83.789L185.512 98.505L107.027 98.505ZM107.027 100.495L120.108 115.211L185.512 100.495L107.027 100.495Z" fill="#332114"/>
<path d="M99.5 1.99L116.415 78.2733L99.5 93.53V1.99Z" fill="#4D3626"/>
<path d="M99.5 1.99L82.585 78.2733L99.5 93.53V1.99Z" fill="#E6D4C2"/>
<path fill-rule="evenodd" clip-rule="evenodd" d="M81.59 79.6L99.5 0L117.41 79.6L99.5 95.52L81.59 79.6ZM98.505 91.973L83.789 78.8921L98.505 13.4878V91.973ZM100.495 91.973L115.211 78.8921L100.495 13.4878V91.973Z" fill="#332114"/>
<path d="M125.37 99.5C125.37 113.788 113.788 125.37 99.5 125.37C85.2124 125.37 73.63 113.788 73.63 99.5C73.63 85.2124 85.2124 73.63 99.5 73.63C113.788 73.63 125.37 85.2124 125.37 99.5Z" fill="#E6D4C2"/>
<path fill-rule="evenodd" clip-rule="evenodd" d="M99.5 122.385C112.139 122.385 122.385 112.139 122.385 99.5C122.385 86.861 112.139 76.615 99.5 76.615C86.861 76.615 76.615 86.861 76.615 99.5C76.615 112.139 86.861 122.385 99.5 122.385ZM99.5 128.355C115.436 128.355 128.355 115.436 128.355 99.5C128.355 83.5638 115.436 70.645 99.5 70.645C83.5638 70.645 70.645 83.5638 70.645 99.5C70.645 115.436 83.5638 128.355 99.5 128.355Z" fill="#332114"/>
<path fill-rule="evenodd" clip-rule="evenodd" d="M99.5 110.445C105.545 110.445 110.445 105.545 110.445 99.5C110.445 93.4553 105.545 88.555 99.5 88.555C93.4553 88.555 88.555 93.4553 88.555 99.5C88.555 105.545 93.4553 110.445 99.5 110.445ZM99.5 112.435C106.644 112.435 112.435 106.644 112.435 99.5C112.435 92.3562 106.644 86.565 99.5 86.565C92.3562 86.565 86.565 92.3562 86.565 99.5C86.565 106.644 92.3562 112.435 99.5 112.435Z" fill="#332114"/>
<path d="M106.465 99.5C106.465 103.347 103.347 106.465 99.5 106.465C95.6534 106.465 92.535 103.347 92.535 99.5C92.535 95.6534 95.6534 92.535 99.5 92.535C103.347 92.535 106.465 95.6534 106.465 99.5Z" fill="#4D3626"/>
<path fill-rule="evenodd" clip-rule="evenodd" d="M99.5 105.47C102.797 105.47 105.47 102.797 105.47 99.5C105.47 96.2029 102.797 93.53 99.5 93.53C96.2029 93.53 93.53 96.2029 93.53 99.5C93.53 102.797 96.2029 105.47 99.5 105.47ZM99.5 107.46C103.896 107.46 107.46 103.896 107.46 99.5C107.46 95.1038 103.896 91.54 99.5 91.54C95.1038 91.54 91.54 95.1038 91.54 99.5C91.54 103.896 95.1038 107.46 99.5 107.46Z" fill="#332114"/>
</svg>
