<svg width="120" height="120" viewBox="0 0 120 120" fill="none" xmlns="http://www.w3.org/2000/svg">
<path fill-rule="evenodd" clip-rule="evenodd" d="M60 87C74.9117 87 87 74.9117 87 60C87 45.0883 74.9117 33 60 33C45.0883 33 33 45.0883 33 60C33 74.9117 45.0883 87 60 87ZM60 95C79.33 95 95 79.33 95 60C95 40.67 79.33 25 60 25C40.67 25 25 40.67 25 60C25 79.33 40.67 95 60 95Z" fill="#4D3626"/>
<path fill-rule="evenodd" clip-rule="evenodd" d="M60 64C62.2091 64 64 62.2091 64 60C64 57.7909 62.2091 56 60 56C57.7909 56 56 57.7909 56 60C56 62.2091 57.7909 64 60 64ZM60 71C66.0751 71 71 66.0751 71 60C71 53.9249 66.0751 49 60 49C53.9249 49 49 53.9249 49 60C49 66.0751 53.9249 71 60 71Z" fill="#4D3626"/>
<path d="M55.8333 6.31579C55.8333 3.15789 57.5 0 60 0C62.5 0 64.1667 3.15789 64.1667 6.31579C64.1667 8.67375 63.9286 9.4079 63.3333 11.0526C62.8832 12.0395 62.4405 13.6842 62.0833 15C61.7262 16.3158 62 20 62 20C63.1992 20.7917 63.5714 23.0896 63.5714 25.0404C63.5714 26.5065 63.1038 28.2315 62.3623 29.131C62.0611 29.4965 61.5749 29.7466 61.0204 29.8815C60.6959 29.9605 60.3479 30 60 30C59.6521 30 59.3041 29.9605 58.9796 29.8815C58.4251 29.7466 57.9389 29.4965 57.6377 29.131C56.8962 28.2315 56.4286 26.5065 56.4286 25.0404C56.4286 23.0896 56.8008 20.7917 58 20C58 20 58.2738 16.3158 57.9167 15C57.5595 13.6842 57.1168 12.0395 56.6667 11.0526C56.0714 9.4079 55.8333 8.67375 55.8333 6.31579Z" fill="#4D3626"/>
<path d="M55 24.0159C55 23.6053 55.3322 23.2632 55.7641 23.2291L59.9308 22.9002C59.9769 22.8966 60.0231 22.8966 60.0692 22.9002L64.2359 23.2291C64.6678 23.2632 65 23.6053 65 24.0159V27.2368C65 27.6729 64.6269 28.0263 64.1667 28.0263H55.8333C55.3731 28.0263 55 27.6729 55 27.2368V24.0159Z" fill="#4D3626"/>
<path fill-rule="evenodd" clip-rule="evenodd" d="M62 20C62 20 61.7262 16.3158 62.0833 15L62.1043 14.9229C62.4577 13.6205 62.892 12.0203 63.3333 11.0526C63.9286 9.4079 64.1667 8.67375 64.1667 6.31579C64.1667 3.15789 62.5 0 60 0C57.5 0 55.8333 3.15789 55.8333 6.31579C55.8333 8.67375 56.0714 9.4079 56.6667 11.0526C57.108 12.0203 57.5423 13.6205 57.8957 14.9229L57.9167 15C58.2738 16.3158 58 20 58 20C57.3868 20.4048 56.9898 21.2036 56.7482 22.1483C56.665 22.4739 56.6002 22.8169 56.5514 23.167L55.7641 23.2291C55.6814 23.2357 55.6023 23.2535 55.5285 23.281C55.2171 23.3968 55 23.684 55 24.0159V27.2368C55 27.6729 55.3731 28.0263 55.8333 28.0263H57.0068C57.1632 28.4076 57.3476 28.7496 57.5554 29.0263C57.5824 29.0623 57.6099 29.0973 57.6377 29.131C57.9389 29.4965 58.4251 29.7466 58.9796 29.8815C59.3041 29.9605 59.6521 30 60 30C60.3479 30 60.6959 29.9605 61.0204 29.8815C61.5749 29.7466 62.0611 29.4965 62.3623 29.131C62.3901 29.0973 62.4176 29.0623 62.4446 29.0263C62.6524 28.7496 62.8368 28.4076 62.9932 28.0263H64.1667C64.6269 28.0263 65 27.6729 65 27.2368V24.0159C65 23.684 64.7829 23.3968 64.4715 23.281C64.3977 23.2535 64.3186 23.2357 64.2359 23.2291L63.4486 23.167C63.3998 22.8169 63.335 22.4739 63.2518 22.1483C63.0102 21.2036 62.6132 20.4048 62 20ZM62.1882 22.0644C61.9741 21.3916 61.7029 21.0021 61.4491 20.8346L61.0392 20.5639L61.0028 20.0741L62 20C61.0028 20.0741 61.0028 20.0742 61.0028 20.0741L61.0018 20.0615L60.9995 20.0284C60.9975 19.9997 60.9946 19.9579 60.9911 19.9047C60.9841 19.7983 60.9746 19.6456 60.9643 19.4586C60.9438 19.0852 60.9202 18.5721 60.908 18.0154C60.8958 17.4605 60.8947 16.8518 60.9207 16.2901C60.9458 15.7472 60.9987 15.1785 61.1183 14.738C61.1297 14.6959 61.1413 14.6532 61.153 14.61C61.4919 13.3606 61.9364 11.7219 62.4062 10.6759C62.6978 9.86947 62.8764 9.349 62.9919 8.75948C63.1082 8.16519 63.1667 7.46409 63.1667 6.31579C63.1667 4.89633 62.7888 3.50405 62.1693 2.498C61.5464 1.48634 60.7794 1 60 1C59.2206 1 58.4536 1.48634 57.8307 2.498C57.2112 3.50405 56.8333 4.89633 56.8333 6.31579C56.8333 7.46409 56.8918 8.16519 57.0081 8.75948C57.1236 9.349 57.3022 9.86947 57.5938 10.6759C58.0636 11.7219 58.5081 13.3606 58.847 14.61C58.8587 14.6532 58.8703 14.6959 58.8817 14.738C59.0013 15.1785 59.0542 15.7472 59.0793 16.2901C59.1053 16.8518 59.1042 17.4604 59.092 18.0153C59.0798 18.5721 59.0562 19.0852 59.0357 19.4586C59.0254 19.6456 59.0159 19.7983 59.0089 19.9047C59.0054 19.9579 59.0025 19.9997 59.0005 20.0284L58.9982 20.0615L58.9973 20.073C58.9973 20.073 58.9972 20.0741 58 20L58.9972 20.0741L58.9608 20.5639L58.5509 20.8346C58.2971 21.0021 58.0259 21.3916 57.8118 22.0644L59.8521 21.9033C59.9505 21.8955 60.0495 21.8955 60.1479 21.9033L62.1882 22.0644ZM62.5396 24.0983L60 23.8978L57.4604 24.0983C57.4387 24.4123 57.4286 24.729 57.4286 25.0404C57.4286 25.6747 57.5309 26.3793 57.7159 27.0212C57.7164 27.0229 57.7169 27.0246 57.7174 27.0263H62.2826C62.2831 27.0246 62.2836 27.0229 62.2841 27.0212C62.4691 26.3793 62.5714 25.6747 62.5714 25.0404C62.5714 24.729 62.5613 24.4123 62.5396 24.0983Z" fill="#4D3626"/>
<path d="M64.1667 113.684C64.1667 116.842 62.5 120 60 120C57.5 120 55.8333 116.842 55.8333 113.684C55.8333 111.326 56.0714 110.592 56.6667 108.947C57.1168 107.961 57.5595 106.316 57.9167 105C58.2738 103.684 58 100 58 100C56.8008 99.2083 56.4286 96.9104 56.4286 94.9596C56.4286 93.4935 56.8962 91.7685 57.6377 90.869C57.9389 90.5035 58.4251 90.2534 58.9796 90.1185C59.3041 90.0395 59.6521 90 60 90C60.3479 90 60.6959 90.0395 61.0204 90.1185C61.5749 90.2534 62.0611 90.5035 62.3623 90.869C63.1038 91.7685 63.5714 93.4935 63.5714 94.9596C63.5714 96.9104 63.1992 99.2084 62 100C62 100 61.7262 103.684 62.0833 105C62.4405 106.316 62.8832 107.961 63.3333 108.947C63.9286 110.592 64.1667 111.326 64.1667 113.684Z" fill="#4D3626"/>
<path d="M65 95.9841C65 96.3947 64.6678 96.7368 64.2359 96.7709L60.0692 97.0998C60.0231 97.1034 59.9769 97.1034 59.9308 97.0998L55.7641 96.7709C55.3322 96.7368 55 96.3947 55 95.9841V92.7632C55 92.3271 55.3731 91.9737 55.8333 91.9737H64.1667C64.6269 91.9737 65 92.3271 65 92.7632V95.9841Z" fill="#4D3626"/>
<path fill-rule="evenodd" clip-rule="evenodd" d="M58 100C58 100 58.2738 103.684 57.9167 105L57.8957 105.077C57.5423 106.38 57.108 107.98 56.6667 108.947C56.0714 110.592 55.8333 111.326 55.8333 113.684C55.8333 116.842 57.5 120 60 120C62.5 120 64.1667 116.842 64.1667 113.684C64.1667 111.326 63.9286 110.592 63.3333 108.947C62.892 107.98 62.4577 106.38 62.1043 105.077L62.0833 105C61.7262 103.684 62 100 62 100C62.6132 99.5952 63.0102 98.7964 63.2518 97.8517C63.335 97.5261 63.3998 97.1831 63.4486 96.833L64.2359 96.7709C64.3186 96.7643 64.3977 96.7465 64.4715 96.719C64.7829 96.6032 65 96.316 65 95.9841V92.7632C65 92.3271 64.6269 91.9737 64.1667 91.9737H62.9932C62.8368 91.5924 62.6524 91.2504 62.4446 90.9737C62.4176 90.9377 62.3901 90.9027 62.3623 90.869C62.0611 90.5035 61.5749 90.2534 61.0204 90.1185C60.6959 90.0395 60.3479 90 60 90C59.6521 90 59.3041 90.0395 58.9796 90.1185C58.4251 90.2534 57.9389 90.5035 57.6377 90.869C57.6099 90.9027 57.5824 90.9377 57.5554 90.9737C57.3476 91.2504 57.1632 91.5924 57.0068 91.9737H55.8333C55.3731 91.9737 55 92.3271 55 92.7632V95.9841C55 96.316 55.2171 96.6032 55.5285 96.719C55.6023 96.7465 55.6814 96.7643 55.7641 96.7709L56.5514 96.833C56.6002 97.1831 56.665 97.5261 56.7482 97.8517C56.9898 98.7964 57.3868 99.5952 58 100ZM57.8118 97.9356C58.0259 98.6084 58.2971 98.9979 58.5509 99.1654L58.9608 99.4361L58.9972 99.9259L58 100C58.9972 99.9259 58.9972 99.9258 58.9972 99.9259L58.9982 99.9385L59.0005 99.9716C59.0025 100 59.0054 100.042 59.0089 100.095C59.0159 100.202 59.0254 100.354 59.0357 100.541C59.0562 100.915 59.0798 101.428 59.092 101.985C59.1042 102.54 59.1053 103.148 59.0793 103.71C59.0542 104.253 59.0013 104.822 58.8817 105.262C58.8703 105.304 58.8587 105.347 58.847 105.39C58.5081 106.639 58.0636 108.278 57.5938 109.324C57.3022 110.131 57.1236 110.651 57.0081 111.241C56.8918 111.835 56.8333 112.536 56.8333 113.684C56.8333 115.104 57.2112 116.496 57.8307 117.502C58.4536 118.514 59.2206 119 60 119C60.7794 119 61.5464 118.514 62.1693 117.502C62.7888 116.496 63.1667 115.104 63.1667 113.684C63.1667 112.536 63.1082 111.835 62.9919 111.241C62.8764 110.651 62.6978 110.131 62.4062 109.324C61.9364 108.278 61.4919 106.639 61.153 105.39C61.1413 105.347 61.1297 105.304 61.1183 105.262C60.9987 104.822 60.9458 104.253 60.9207 103.71C60.8947 103.148 60.8958 102.54 60.908 101.985C60.9202 101.428 60.9438 100.915 60.9643 100.541C60.9746 100.354 60.9841 100.202 60.9911 100.095C60.9946 100.042 60.9975 100 60.9995 99.9716L61.0018 99.9385L61.0027 99.927C61.0027 99.927 61.0028 99.9259 62 100L61.0028 99.9259L61.0392 99.4361L61.4491 99.1654C61.7029 98.9979 61.9741 98.6084 62.1882 97.9356L60.1479 98.0967C60.0495 98.1045 59.9505 98.1045 59.8521 98.0967L57.8118 97.9356ZM57.4604 95.9016L60 96.1021L62.5396 95.9016C62.5613 95.5877 62.5714 95.271 62.5714 94.9596C62.5714 94.3253 62.4691 93.6207 62.2841 92.9788C62.2836 92.9771 62.2831 92.9754 62.2826 92.9737H57.7174C57.7169 92.9754 57.7164 92.9771 57.7159 92.9788C57.5309 93.6207 57.4286 94.3253 57.4286 94.9596C57.4286 95.271 57.4387 95.5877 57.4604 95.9016Z" fill="#4D3626"/>
<path d="M113.684 55.8333C116.842 55.8333 120 57.5 120 60C120 62.5 116.842 64.1667 113.684 64.1667C111.326 64.1667 110.592 63.9286 108.947 63.3333C107.961 62.8832 106.316 62.4405 105 62.0833C103.684 61.7262 100 62 100 62C99.2083 63.1992 96.9104 63.5714 94.9596 63.5714C93.4935 63.5714 91.7685 63.1038 90.869 62.3623C90.5035 62.0611 90.2534 61.5749 90.1185 61.0204C90.0395 60.6959 90 60.3479 90 60C90 59.6521 90.0395 59.3041 90.1185 58.9796C90.2534 58.4251 90.5035 57.9389 90.869 57.6377C91.7685 56.8962 93.4935 56.4286 94.9596 56.4286C96.9104 56.4286 99.2083 56.8008 100 58C100 58 103.684 58.2738 105 57.9167C106.316 57.5595 107.961 57.1168 108.947 56.6667C110.592 56.0714 111.326 55.8333 113.684 55.8333Z" fill="#4D3626"/>
<path d="M95.9841 55C96.3947 55 96.7368 55.3322 96.7709 55.7641L97.0998 59.9308C97.1034 59.9769 97.1034 60.0231 97.0998 60.0692L96.7709 64.2359C96.7368 64.6678 96.3947 65 95.9841 65H92.7632C92.3271 65 91.9737 64.6269 91.9737 64.1667V55.8333C91.9737 55.3731 92.3271 55 92.7632 55H95.9841Z" fill="#4D3626"/>
<path fill-rule="evenodd" clip-rule="evenodd" d="M100 62C100 62 103.684 61.7262 105 62.0833L105.077 62.1043C106.38 62.4577 107.98 62.892 108.947 63.3333C110.592 63.9286 111.326 64.1667 113.684 64.1667C116.842 64.1667 120 62.5 120 60C120 57.5 116.842 55.8333 113.684 55.8333C111.326 55.8333 110.592 56.0714 108.947 56.6667C107.98 57.108 106.38 57.5423 105.077 57.8957L105 57.9167C103.684 58.2738 100 58 100 58C99.5952 57.3868 98.7964 56.9898 97.8517 56.7482C97.5261 56.665 97.1831 56.6002 96.833 56.5514L96.7709 55.7641C96.7643 55.6814 96.7465 55.6023 96.719 55.5285C96.6032 55.2171 96.316 55 95.9841 55H92.7632C92.3271 55 91.9737 55.3731 91.9737 55.8333V57.0068C91.5924 57.1632 91.2504 57.3476 90.9737 57.5554C90.9377 57.5824 90.9027 57.6099 90.869 57.6377C90.5035 57.9389 90.2534 58.4251 90.1185 58.9796C90.0395 59.3041 90 59.6521 90 60C90 60.3479 90.0395 60.6959 90.1185 61.0204C90.2534 61.5749 90.5035 62.0611 90.869 62.3623C90.9027 62.3902 90.9377 62.4176 90.9737 62.4446C91.2504 62.6524 91.5924 62.8368 91.9737 62.9932V64.1667C91.9737 64.6269 92.3271 65 92.7632 65H95.9841C96.316 65 96.6032 64.7829 96.719 64.4715C96.7465 64.3977 96.7643 64.3186 96.7709 64.2359L96.833 63.4486C97.1831 63.3998 97.5261 63.335 97.8517 63.2518C98.7964 63.0102 99.5952 62.6132 100 62ZM97.9356 62.1882C98.6084 61.9741 98.9979 61.7029 99.1654 61.4491L99.4361 61.0392L99.9259 61.0028L100 62C99.9259 61.0028 99.9258 61.0028 99.9259 61.0028L99.9385 61.0018L99.9716 60.9995C100 60.9975 100.042 60.9946 100.095 60.9911C100.202 60.9841 100.354 60.9746 100.541 60.9643C100.915 60.9438 101.428 60.9202 101.985 60.908C102.54 60.8958 103.148 60.8947 103.71 60.9207C104.253 60.9458 104.822 60.9987 105.262 61.1183C105.304 61.1297 105.347 61.1413 105.39 61.153C106.639 61.4919 108.278 61.9364 109.324 62.4062C110.131 62.6978 110.651 62.8764 111.241 62.9919C111.835 63.1082 112.536 63.1667 113.684 63.1667C115.104 63.1667 116.496 62.7888 117.502 62.1693C118.514 61.5464 119 60.7794 119 60C119 59.2206 118.514 58.4536 117.502 57.8307C116.496 57.2112 115.104 56.8333 113.684 56.8333C112.536 56.8333 111.835 56.8918 111.241 57.0081C110.651 57.1236 110.131 57.3022 109.324 57.5938C108.278 58.0636 106.639 58.5081 105.39 58.847C105.347 58.8587 105.304 58.8703 105.262 58.8817C104.822 59.0013 104.253 59.0542 103.71 59.0793C103.148 59.1053 102.54 59.1042 101.985 59.092C101.428 59.0798 100.915 59.0562 100.541 59.0357C100.354 59.0254 100.202 59.0159 100.095 59.0089C100.042 59.0054 100 59.0025 99.9716 59.0005L99.9385 58.9982L99.927 58.9973C99.927 58.9973 99.9259 58.9972 100 58L99.9259 58.9972L99.4361 58.9608L99.1654 58.5509C98.9979 58.2971 98.6084 58.0259 97.9356 57.8118L98.0967 59.8521C98.1045 59.9505 98.1045 60.0495 98.0967 60.1479L97.9356 62.1882ZM95.9017 62.5396L96.1021 60L95.9016 57.4604C95.5877 57.4387 95.271 57.4286 94.9596 57.4286C94.3253 57.4286 93.6207 57.5309 92.9788 57.7159C92.9771 57.7164 92.9754 57.7169 92.9737 57.7174V62.2826C92.9754 62.2831 92.9771 62.2836 92.9788 62.2841C93.6207 62.4691 94.3253 62.5714 94.9596 62.5714C95.271 62.5714 95.5877 62.5613 95.9017 62.5396Z" fill="#4D3626"/>
<path d="M6.31579 55.8333C3.15789 55.8333 2.98122e-08 57.5 0 60C-2.98122e-08 62.5 3.15789 64.1667 6.31579 64.1667C8.67375 64.1667 9.4079 63.9286 11.0526 63.3333C12.0395 62.8832 13.6842 62.4405 15 62.0833C16.3158 61.7262 20 62 20 62C20.7917 63.1992 23.0896 63.5714 25.0404 63.5714C26.5065 63.5714 28.2315 63.1038 29.131 62.3623C29.4965 62.0611 29.7466 61.5749 29.8815 61.0204C29.9605 60.6959 30 60.3479 30 60C30 59.6521 29.9605 59.3041 29.8815 58.9796C29.7466 58.4251 29.4965 57.9389 29.131 57.6377C28.2315 56.8962 26.5065 56.4286 25.0404 56.4286C23.0896 56.4286 20.7917 56.8008 20 58C20 58 16.3158 58.2738 15 57.9167C13.6842 57.5595 12.0395 57.1168 11.0526 56.6667C9.4079 56.0714 8.67375 55.8333 6.31579 55.8333Z" fill="#4D3626"/>
<path d="M24.0159 55C23.6053 55 23.2632 55.3322 23.2291 55.7641L22.9002 59.9308C22.8966 59.9769 22.8966 60.0231 22.9002 60.0692L23.2291 64.2359C23.2632 64.6678 23.6053 65 24.0159 65H27.2368C27.6729 65 28.0263 64.6269 28.0263 64.1667V55.8333C28.0263 55.3731 27.6729 55 27.2368 55H24.0159Z" fill="#4D3626"/>
<path fill-rule="evenodd" clip-rule="evenodd" d="M20 62C20 62 16.3158 61.7262 15 62.0833L14.9229 62.1043C13.6205 62.4577 12.0203 62.892 11.0526 63.3333C9.4079 63.9286 8.67375 64.1667 6.31579 64.1667C3.15789 64.1667 -2.98122e-08 62.5 0 60C2.98122e-08 57.5 3.15789 55.8333 6.31579 55.8333C8.67375 55.8333 9.4079 56.0714 11.0526 56.6667C12.0203 57.108 13.6205 57.5423 14.9229 57.8957L15 57.9167C16.3158 58.2738 20 58 20 58C20.4048 57.3868 21.2036 56.9898 22.1483 56.7482C22.4739 56.665 22.8169 56.6002 23.167 56.5514L23.2291 55.7641C23.2357 55.6814 23.2535 55.6023 23.281 55.5285C23.3968 55.2171 23.684 55 24.0159 55H27.2368C27.6729 55 28.0263 55.3731 28.0263 55.8333V57.0068C28.4076 57.1632 28.7496 57.3476 29.0263 57.5554C29.0623 57.5824 29.0973 57.6099 29.131 57.6377C29.4965 57.9389 29.7466 58.4251 29.8815 58.9796C29.9605 59.3041 30 59.6521 30 60C30 60.3479 29.9605 60.6959 29.8815 61.0204C29.7466 61.5749 29.4965 62.0611 29.131 62.3623C29.0973 62.3902 29.0623 62.4176 29.0263 62.4446C28.7496 62.6524 28.4076 62.8368 28.0263 62.9932V64.1667C28.0263 64.6269 27.6729 65 27.2368 65H24.0159C23.684 65 23.3968 64.7829 23.281 64.4715C23.2535 64.3977 23.2357 64.3186 23.2291 64.2359L23.167 63.4486C22.8169 63.3998 22.4739 63.335 22.1483 63.2518C21.2036 63.0102 20.4048 62.6132 20 62ZM22.0644 62.1882C21.3916 61.9741 21.0021 61.7029 20.8346 61.4491L20.5639 61.0392L20.0741 61.0028L20 62C20.0741 61.0028 20.0742 61.0028 20.0741 61.0028L20.0615 61.0018L20.0284 60.9995C19.9997 60.9975 19.9579 60.9946 19.9047 60.9911C19.7983 60.9841 19.6456 60.9746 19.4586 60.9643C19.0852 60.9438 18.5721 60.9202 18.0154 60.908C17.4605 60.8958 16.8518 60.8947 16.2901 60.9207C15.7472 60.9458 15.1785 60.9987 14.738 61.1183C14.6959 61.1297 14.6532 61.1413 14.61 61.153C13.3606 61.4919 11.7219 61.9364 10.6759 62.4062C9.86947 62.6978 9.349 62.8764 8.75948 62.9919C8.16519 63.1082 7.46409 63.1667 6.31579 63.1667C4.89633 63.1667 3.50405 62.7888 2.498 62.1693C1.48634 61.5464 1 60.7794 1 60C1 59.2206 1.48634 58.4536 2.498 57.8307C3.50405 57.2112 4.89633 56.8333 6.31579 56.8333C7.46409 56.8333 8.16519 56.8918 8.75948 57.0081C9.349 57.1236 9.86947 57.3022 10.6759 57.5938C11.7219 58.0636 13.3606 58.5081 14.61 58.847C14.6532 58.8587 14.6959 58.8703 14.738 58.8817C15.1785 59.0013 15.7472 59.0542 16.2901 59.0793C16.8518 59.1053 17.4604 59.1042 18.0153 59.092C18.5721 59.0798 19.0852 59.0562 19.4586 59.0357C19.6456 59.0254 19.7983 59.0159 19.9047 59.0089C19.9579 59.0054 19.9997 59.0025 20.0284 59.0005L20.0615 58.9982L20.073 58.9973C20.073 58.9973 20.0741 58.9972 20 58L20.0741 58.9972L20.5639 58.9608L20.8346 58.5509C21.0021 58.2971 21.3916 58.0259 22.0644 57.8118L21.9033 59.8521C21.8955 59.9505 21.8955 60.0495 21.9033 60.1479L22.0644 62.1882ZM24.0983 62.5396L23.8978 60L24.0983 57.4604C24.4123 57.4387 24.729 57.4286 25.0404 57.4286C25.6747 57.4286 26.3793 57.5309 27.0212 57.7159C27.0229 57.7164 27.0246 57.7169 27.0263 57.7174V62.2826C27.0246 62.2831 27.0229 62.2836 27.0212 62.2841C26.3793 62.4691 25.6747 62.5714 25.0404 62.5714C24.729 62.5714 24.4123 62.5613 24.0983 62.5396Z" fill="#4D3626"/>
<path d="M95.0142 19.0932C97.2472 16.8603 100.659 15.8058 102.426 17.5736C104.194 19.3413 103.14 22.7528 100.907 24.9858C99.2394 26.6531 98.5519 27.0039 96.968 27.746C95.9519 28.1255 94.4759 28.9754 93.2929 29.6533C92.11 30.3312 89.6985 33.1299 89.6985 33.1299C89.9867 34.5377 88.625 36.4258 87.2456 37.8052C86.2089 38.8419 84.6584 39.731 83.4981 39.8427C83.0267 39.8881 82.506 39.7212 82.0185 39.4245C81.7332 39.2509 81.4592 39.0328 81.2132 38.7868C80.9672 38.5407 80.7491 38.2668 80.5754 37.9815C80.2787 37.494 80.1118 36.9733 80.1573 36.5019C80.269 35.3415 81.1581 33.7911 82.1948 32.7544C83.5742 31.375 85.4623 30.0133 86.8701 30.3015C86.8701 30.3015 89.6688 27.89 90.3467 26.707C91.0245 25.5241 91.8745 24.048 92.254 23.0319C92.9961 21.448 93.3469 20.7606 95.0142 19.0932Z" fill="#4D3626"/>
<path d="M81.9091 31.0198C82.1994 30.7295 82.6762 30.7225 83.0057 31.0038L86.1846 33.7175C86.2197 33.7475 86.2525 33.7802 86.2825 33.8154L88.9961 36.9943C89.2774 37.3238 89.2705 37.8006 88.9801 38.0909L86.7026 40.3685C86.3943 40.6768 85.8805 40.6629 85.5551 40.3374L79.6625 34.4449C79.3371 34.1194 79.3232 33.6057 79.6315 33.2974L81.9091 31.0198Z" fill="#4D3626"/>
<path fill-rule="evenodd" clip-rule="evenodd" d="M89.6985 33.1299C89.6985 33.1299 92.11 30.3312 93.2929 29.6533L93.3623 29.6136C94.5331 28.9426 95.9717 28.1181 96.968 27.746C98.5519 27.0039 99.2394 26.6531 100.907 24.9858C103.14 22.7528 104.194 19.3413 102.426 17.5736C100.659 15.8058 97.2472 16.8603 95.0142 19.0932C93.3469 20.7606 92.9961 21.448 92.254 23.0319C91.8819 24.0283 91.0574 25.4668 90.3864 26.6377L90.3467 26.707C89.6688 27.89 86.8701 30.3015 86.8701 30.3015C86.1502 30.1541 85.3047 30.4382 84.4658 30.9355C84.1767 31.1068 83.8884 31.3035 83.6064 31.5166L83.0057 31.0038C82.9426 30.9499 82.874 30.9066 82.8024 30.8739C82.5003 30.7356 82.1438 30.7851 81.9091 31.0198L79.6315 33.2974C79.3232 33.6057 79.3371 34.1194 79.6625 34.4449L80.4923 35.2746C80.3333 35.6548 80.2219 36.027 80.1731 36.3696C80.1667 36.4142 80.1614 36.4583 80.1573 36.5019C80.1118 36.9733 80.2787 37.494 80.5754 37.9815C80.7491 38.2668 80.9672 38.5407 81.2132 38.7868C81.4592 39.0328 81.7332 39.2509 82.0185 39.4245C82.506 39.7212 83.0267 39.8881 83.4981 39.8427C83.5416 39.8385 83.5857 39.8332 83.6303 39.8269C83.9729 39.7781 84.3452 39.6667 84.7253 39.5077L85.5551 40.3374C85.8805 40.6629 86.3943 40.6768 86.7026 40.3685L88.9801 38.0909C89.2148 37.8562 89.2644 37.4996 89.1261 37.1975C89.0933 37.1259 89.05 37.0574 88.9961 36.9943L88.4834 36.3936C88.6965 36.1115 88.8931 35.8232 89.0645 35.5342C89.5618 34.6953 89.8459 33.8498 89.6985 33.1299ZM88.3718 34.7227C88.6962 34.0956 88.7798 33.6285 88.7188 33.3305L88.6203 32.8493L88.9409 32.4772L89.6985 33.1299C88.9409 32.4772 88.9409 32.4772 88.9409 32.4772L88.9492 32.4676L88.9709 32.4425C88.9898 32.4208 89.0173 32.3892 89.0525 32.3491C89.1228 32.2689 89.224 32.1542 89.349 32.0147C89.5985 31.7362 89.9446 31.3567 90.3297 30.9544C90.7134 30.5534 91.143 30.1222 91.5586 29.7435C91.9602 29.3774 92.3998 29.0126 92.7958 28.7857C92.8337 28.7639 92.872 28.7419 92.9108 28.7197C94.034 28.0759 95.507 27.2314 96.5789 26.824C97.3553 26.4599 97.8496 26.2182 98.3481 25.883C98.8506 25.5451 99.3877 25.0906 100.2 24.2787C101.203 23.275 101.921 22.0233 102.194 20.8738C102.469 19.718 102.27 18.8318 101.719 18.2807C101.168 17.7296 100.282 17.5311 99.1261 17.806C97.9767 18.0793 96.725 18.7966 95.7213 19.8003C94.9093 20.6123 94.4549 21.1494 94.117 21.6519C93.7817 22.1504 93.54 22.6447 93.176 23.4211C92.7685 24.493 91.9241 25.966 91.2803 27.0891C91.258 27.1279 91.236 27.1663 91.2143 27.2042C90.9874 27.6002 90.6226 28.0397 90.2565 28.4414C89.8777 28.8569 89.4466 29.2865 89.0456 29.6703C88.6433 30.0554 88.2638 30.4015 87.9852 30.651C87.8458 30.776 87.7311 30.8772 87.6509 30.9475C87.6107 30.9827 87.5792 31.0102 87.5575 31.029L87.5324 31.0508L87.5237 31.0583C87.5236 31.0584 87.5228 31.0591 86.8701 30.3015L87.5228 31.0591L87.1507 31.3797L86.6695 31.2812C86.3715 31.2202 85.9044 31.3038 85.2772 31.6281L86.8338 32.9569C86.909 33.0211 86.9789 33.091 87.043 33.1661L88.3718 34.7227ZM87.1821 36.4095L85.5281 34.4719L83.5905 32.8179C83.3532 33.0246 83.1221 33.2413 82.9019 33.4615C82.4534 33.9101 82.0275 34.4806 81.7045 35.0653C81.7036 35.0669 81.7028 35.0685 81.7019 35.07L84.9299 38.2981C84.9315 38.2972 84.9331 38.2964 84.9346 38.2955C85.5193 37.9725 86.0899 37.5466 86.5385 37.0981C86.7586 36.8779 86.9754 36.6468 87.1821 36.4095Z" fill="#4D3626"/>
<path d="M24.9858 100.907C22.7528 103.14 19.3414 104.194 17.5736 102.426C15.8058 100.659 16.8603 97.2471 19.0933 95.0142C20.7606 93.3468 21.4481 92.9961 23.032 92.254C24.0481 91.8744 25.5241 91.0245 26.7071 90.3466C27.89 89.6688 30.3015 86.87 30.3015 86.87C30.0133 85.4623 31.375 83.5742 32.7544 82.1948C33.7911 81.1581 35.3416 80.2689 36.5019 80.1572C36.9733 80.1118 37.494 80.2787 37.9815 80.5754C38.2668 80.7491 38.5408 80.9671 38.7868 81.2132C39.0328 81.4592 39.2509 81.7332 39.4246 82.0185C39.7213 82.506 39.8882 83.0267 39.8427 83.4981C39.731 84.6584 38.8419 86.2088 37.8052 87.2455C36.4258 88.6249 34.5377 89.9866 33.1299 89.6985C33.1299 89.6985 30.3312 92.11 29.6533 93.2929C28.9755 94.4759 28.1255 95.9519 27.746 96.968C27.0039 98.5519 26.6531 99.2394 24.9858 100.907Z" fill="#4D3626"/>
<path d="M38.0909 88.9801C37.8006 89.2704 37.3238 89.2774 36.9943 88.9961L33.8154 86.2824C33.7803 86.2524 33.7475 86.2197 33.7175 86.1846L31.0039 83.0057C30.7226 82.6762 30.7295 82.1994 31.0199 81.909L33.2974 79.6315C33.6057 79.3232 34.1195 79.3371 34.4449 79.6625L40.3375 85.5551C40.6629 85.8805 40.6768 86.3942 40.3685 86.7026L38.0909 88.9801Z" fill="#4D3626"/>
<path fill-rule="evenodd" clip-rule="evenodd" d="M30.3015 86.87C30.3015 86.87 27.89 89.6688 26.7071 90.3466L26.6377 90.3864C25.4669 91.0574 24.0283 91.8818 23.032 92.254C21.4481 92.9961 20.7606 93.3468 19.0933 95.0142C16.8603 97.2471 15.8058 100.659 17.5736 102.426C19.3414 104.194 22.7528 103.14 24.9858 100.907C26.6531 99.2394 27.0039 98.5519 27.746 96.968C28.1181 95.9717 28.9426 94.5331 29.6136 93.3623L29.6533 93.2929C30.3312 92.11 33.1299 89.6985 33.1299 89.6985C33.8498 89.8458 34.6953 89.5617 35.5342 89.0645C35.8233 88.8931 36.1116 88.6964 36.3937 88.4834L36.9943 88.9961C37.0574 89.05 37.126 89.0933 37.1976 89.1261C37.4997 89.2643 37.8562 89.2148 38.0909 88.9801L40.3685 86.7026C40.6768 86.3942 40.6629 85.8805 40.3375 85.5551L39.5077 84.7253C39.6667 84.3451 39.7781 83.9729 39.8269 83.6303C39.8333 83.5857 39.8386 83.5416 39.8427 83.4981C39.8882 83.0267 39.7213 82.506 39.4246 82.0185C39.2509 81.7332 39.0328 81.4592 38.7868 81.2132C38.5408 80.9671 38.2668 80.7491 37.9815 80.5754C37.494 80.2787 36.9733 80.1118 36.5019 80.1572C36.4584 80.1614 36.4143 80.1667 36.3697 80.1731C36.0271 80.2218 35.6548 80.3333 35.2747 80.4923L34.4449 79.6625C34.1195 79.3371 33.6057 79.3232 33.2974 79.6315L31.0199 81.909C30.7852 82.1438 30.7356 82.5003 30.8739 82.8024C30.9067 82.874 30.95 82.9425 31.0039 83.0057L31.5166 83.6063C31.3035 83.8884 31.1069 84.1767 30.9355 84.4658C30.4382 85.3046 30.1541 86.1501 30.3015 86.87ZM31.6282 85.2772C31.3038 85.9043 31.2202 86.3715 31.2812 86.6695L31.3797 87.1507L31.0591 87.5228L30.3015 86.87C31.0591 87.5228 31.0591 87.5227 31.0591 87.5228L31.0508 87.5323L31.0291 87.5574C31.0102 87.5792 30.9827 87.6107 30.9475 87.6508C30.8772 87.731 30.776 87.8457 30.651 87.9852C30.4015 88.2637 30.0554 88.6432 29.6703 89.0456C29.2866 89.4465 28.857 89.8777 28.4414 90.2565C28.0398 90.6226 27.6002 90.9874 27.2042 91.2143C27.1663 91.236 27.128 91.258 27.0892 91.2802C25.966 91.9241 24.493 92.7685 23.4211 93.176C22.6447 93.54 22.1504 93.7817 21.6519 94.1169C21.1494 94.4549 20.6123 94.9093 19.8004 95.7213C18.7967 96.725 18.0794 97.9767 17.806 99.1261C17.5311 100.282 17.7296 101.168 18.2807 101.719C18.8318 102.27 19.7181 102.469 20.8739 102.194C22.0233 101.921 23.275 101.203 24.2787 100.2C25.0907 99.3876 25.5451 98.8506 25.883 98.348C26.2183 97.8496 26.46 97.3552 26.824 96.5789C27.2315 95.507 28.0759 94.0339 28.7197 92.9108C28.742 92.872 28.764 92.8336 28.7857 92.7957C29.0126 92.3998 29.3774 91.9602 29.7435 91.5586C30.1223 91.143 30.5534 90.7134 30.9544 90.3296C31.3567 89.9446 31.7362 89.5985 32.0148 89.3489C32.1542 89.224 32.2689 89.1228 32.3491 89.0524C32.3893 89.0173 32.4208 88.9898 32.4425 88.9709L32.4677 88.9491L32.4763 88.9416C32.4764 88.9416 32.4772 88.9409 33.1299 89.6985L32.4772 88.9409L32.8493 88.6203L33.3305 88.7188C33.6285 88.7798 34.0956 88.6962 34.7228 88.3718L33.1662 87.043C33.0911 86.9789 33.0211 86.9089 32.957 86.8338L31.6282 85.2772ZM32.8179 83.5905L34.4719 85.528L36.4095 87.1821C36.6468 86.9754 36.8779 86.7586 37.0981 86.5384C37.5466 86.0899 37.9725 85.5193 38.2955 84.9346C38.2964 84.933 38.2973 84.9315 38.2981 84.9299L35.0701 81.7019C35.0685 81.7027 35.0669 81.7036 35.0654 81.7044C34.4807 82.0274 33.9101 82.4533 33.4615 82.9019C33.2414 83.122 33.0246 83.3532 32.8179 83.5905Z" fill="#4D3626"/>
<path d="M100.907 95.0142C103.14 97.2471 104.194 100.659 102.426 102.426C100.659 104.194 97.2472 103.14 95.0142 100.907C93.3469 99.2394 92.9961 98.5519 92.254 96.968C91.8745 95.9519 91.0245 94.4759 90.3467 93.2929C89.6688 92.11 86.8701 89.6985 86.8701 89.6985C85.4623 89.9866 83.5742 88.6249 82.1948 87.2455C81.1581 86.2088 80.269 84.6584 80.1573 83.4981C80.1118 83.0267 80.2787 82.506 80.5754 82.0185C80.7491 81.7332 80.9672 81.4592 81.2132 81.2132C81.4592 80.9671 81.7332 80.749 82.0185 80.5754C82.506 80.2787 83.0267 80.1118 83.4981 80.1572C84.6584 80.2689 86.2089 81.1581 87.2456 82.1948C88.625 83.5742 89.9867 85.4623 89.6985 86.87C89.6985 86.87 92.11 89.6688 93.2929 90.3466C94.4759 91.0245 95.9519 91.8744 96.968 92.254C98.5519 92.9961 99.2394 93.3468 100.907 95.0142Z" fill="#4D3626"/>
<path d="M88.9801 81.909C89.2705 82.1994 89.2774 82.6762 88.9961 83.0057L86.2825 86.1846C86.2525 86.2197 86.2197 86.2524 86.1846 86.2824L83.0057 88.9961C82.6762 89.2774 82.1994 89.2704 81.9091 88.9801L79.6315 86.7026C79.3232 86.3942 79.3371 85.8805 79.6625 85.5551L85.5551 79.6625C85.8805 79.3371 86.3943 79.3232 86.7026 79.6315L88.9801 81.909Z" fill="#4D3626"/>
<path fill-rule="evenodd" clip-rule="evenodd" d="M86.8701 89.6985C86.8701 89.6985 89.6688 92.11 90.3467 93.2929L90.3864 93.3623C91.0574 94.5331 91.8819 95.9717 92.254 96.968C92.9961 98.5519 93.3469 99.2394 95.0142 100.907C97.2472 103.14 100.659 104.194 102.426 102.426C104.194 100.659 103.14 97.2471 100.907 95.0142C99.2394 93.3468 98.5519 92.9961 96.968 92.254C95.9717 91.8818 94.5331 91.0574 93.3623 90.3864L93.2929 90.3466C92.11 89.6688 89.6985 86.87 89.6985 86.87C89.8459 86.1501 89.5618 85.3046 89.0645 84.4658C88.8931 84.1767 88.6965 83.8884 88.4834 83.6063L88.9961 83.0057C89.05 82.9425 89.0933 82.874 89.1261 82.8024C89.2644 82.5003 89.2148 82.1438 88.9801 81.909L86.7026 79.6315C86.3943 79.3232 85.8805 79.3371 85.5551 79.6625L84.7253 80.4923C84.3452 80.3333 83.9729 80.2218 83.6303 80.173C83.5857 80.1667 83.5416 80.1614 83.4981 80.1572C83.0267 80.1118 82.506 80.2787 82.0185 80.5754C81.7332 80.749 81.4592 80.9671 81.2132 81.2132C80.9672 81.4592 80.7491 81.7332 80.5754 82.0185C80.2787 82.506 80.1118 83.0267 80.1573 83.4981C80.1614 83.5416 80.1667 83.5857 80.1731 83.6303C80.2219 83.9729 80.3333 84.3451 80.4923 84.7253L79.6625 85.5551C79.3371 85.8805 79.3232 86.3942 79.6315 86.7026L81.9091 88.9801C82.1438 89.2148 82.5003 89.2643 82.8024 89.1261C82.874 89.0933 82.9426 89.05 83.0057 88.9961L83.6064 88.4834C83.8884 88.6964 84.1767 88.8931 84.4658 89.0645C85.3047 89.5617 86.1502 89.8458 86.8701 89.6985ZM85.2772 88.3718C85.9044 88.6962 86.3715 88.7798 86.6695 88.7188L87.1507 88.6203L87.5228 88.9409L86.8701 89.6985C87.5228 88.9409 87.5227 88.9408 87.5228 88.9409L87.5324 88.9491L87.5575 88.9709C87.5792 88.9898 87.6107 89.0173 87.6509 89.0524C87.7311 89.1228 87.8458 89.224 87.9852 89.3489C88.2638 89.5985 88.6433 89.9446 89.0456 90.3296C89.4466 90.7134 89.8777 91.143 90.2565 91.5586C90.6226 91.9602 90.9874 92.3998 91.2143 92.7957C91.236 92.8336 91.258 92.872 91.2803 92.9108C91.9241 94.0339 92.7685 95.507 93.176 96.5788C93.54 97.3552 93.7817 97.8496 94.117 98.348C94.4549 98.8506 94.9093 99.3876 95.7213 100.2C96.725 101.203 97.9767 101.921 99.1261 102.194C100.282 102.469 101.168 102.27 101.719 101.719C102.27 101.168 102.469 100.282 102.194 99.1261C101.921 97.9767 101.203 96.725 100.2 95.7213C99.3877 94.9093 98.8506 94.4549 98.3481 94.1169C97.8496 93.7817 97.3553 93.54 96.5789 93.176C95.507 92.7685 94.034 91.9241 92.9108 91.2802C92.872 91.258 92.8337 91.236 92.7958 91.2143C92.3998 90.9874 91.9602 90.6226 91.5586 90.2565C91.143 89.8777 90.7134 89.4465 90.3297 89.0456C89.9446 88.6432 89.5985 88.2637 89.349 87.9852C89.224 87.8457 89.1228 87.731 89.0525 87.6508C89.0173 87.6107 88.9898 87.5792 88.9709 87.5574L88.9492 87.5323L88.9417 87.5237C88.9416 87.5236 88.9409 87.5228 89.6985 86.87L88.9409 87.5228L88.6203 87.1507L88.7188 86.6695C88.7798 86.3715 88.6962 85.9043 88.3718 85.2772L87.043 86.8338C86.9789 86.9089 86.909 86.9789 86.8338 87.043L85.2772 88.3718ZM83.5905 87.1821L85.5281 85.528L87.1821 83.5905C86.9754 83.3532 86.7586 83.122 86.5385 82.9019C86.0899 82.4533 85.5193 82.0274 84.9346 81.7044C84.9331 81.7036 84.9315 81.7027 84.9299 81.7019L81.7019 84.9299C81.7028 84.9315 81.7036 84.933 81.7045 84.9346C82.0275 85.5193 82.4534 86.0899 82.9019 86.5384C83.1221 86.7586 83.3532 86.9754 83.5905 87.1821Z" fill="#4D3626"/>
<path d="M24.9858 19.0932C22.7528 16.8603 19.3414 15.8058 17.5736 17.5736C15.8058 19.3413 16.8603 22.7528 19.0933 24.9858C20.7606 26.6531 21.4481 27.0039 23.032 27.746C24.0481 28.1255 25.5241 28.9754 26.7071 29.6533C27.89 30.3312 30.3015 33.1299 30.3015 33.1299C30.0133 34.5377 31.375 36.4258 32.7544 37.8052C33.7911 38.8419 35.3416 39.731 36.5019 39.8427C36.9733 39.8881 37.494 39.7212 37.9815 39.4245C38.2668 39.2509 38.5408 39.0328 38.7868 38.7868C39.0328 38.5407 39.2509 38.2668 39.4246 37.9815C39.7213 37.494 39.8882 36.9733 39.8427 36.5019C39.731 35.3416 38.8419 33.7911 37.8052 32.7544C36.4258 31.375 34.5377 30.0133 33.1299 30.3015C33.1299 30.3015 30.3312 27.89 29.6533 26.707C28.9755 25.5241 28.1255 24.048 27.746 23.0319C27.0039 21.448 26.6531 20.7606 24.9858 19.0932Z" fill="#4D3626"/>
<path d="M38.0909 31.0198C37.8006 30.7295 37.3238 30.7225 36.9943 31.0038L33.8154 33.7175C33.7803 33.7475 33.7475 33.7802 33.7175 33.8154L31.0039 36.9943C30.7226 37.3238 30.7295 37.8006 31.0199 38.0909L33.2974 40.3685C33.6057 40.6768 34.1195 40.6629 34.4449 40.3374L40.3375 34.4449C40.6629 34.1194 40.6768 33.6057 40.3685 33.2974L38.0909 31.0198Z" fill="#4D3626"/>
<path fill-rule="evenodd" clip-rule="evenodd" d="M30.3015 33.1299C30.3015 33.1299 27.89 30.3312 26.7071 29.6533L26.6377 29.6136C25.4669 28.9426 24.0283 28.1181 23.032 27.746C21.4481 27.0039 20.7606 26.6531 19.0933 24.9858C16.8603 22.7528 15.8058 19.3413 17.5736 17.5736C19.3414 15.8058 22.7528 16.8603 24.9858 19.0932C26.6531 20.7606 27.0039 21.448 27.746 23.0319C28.1181 24.0283 28.9426 25.4668 29.6136 26.6377L29.6533 26.707C30.3312 27.89 33.1299 30.3015 33.1299 30.3015C33.8498 30.1541 34.6953 30.4382 35.5342 30.9355C35.8233 31.1068 36.1116 31.3035 36.3937 31.5166L36.9943 31.0038C37.0574 30.9499 37.126 30.9066 37.1976 30.8739C37.4997 30.7356 37.8562 30.7851 38.0909 31.0198L40.3685 33.2974C40.6768 33.6057 40.6629 34.1194 40.3375 34.4449L39.5077 35.2746C39.6667 35.6548 39.7781 36.027 39.8269 36.3696C39.8333 36.4142 39.8386 36.4583 39.8427 36.5019C39.8882 36.9733 39.7213 37.494 39.4246 37.9815C39.2509 38.2668 39.0328 38.5407 38.7868 38.7868C38.5408 39.0328 38.2668 39.2509 37.9815 39.4245C37.494 39.7212 36.9733 39.8881 36.5019 39.8427C36.4584 39.8385 36.4143 39.8332 36.3697 39.8269C36.0271 39.7781 35.6548 39.6667 35.2747 39.5077L34.4449 40.3374C34.1195 40.6629 33.6057 40.6768 33.2974 40.3685L31.0199 38.0909C30.7852 37.8562 30.7356 37.4996 30.8739 37.1975C30.9067 37.1259 30.95 37.0574 31.0039 36.9943L31.5166 36.3936C31.3035 36.1115 31.1069 35.8232 30.9355 35.5342C30.4382 34.6953 30.1541 33.8498 30.3015 33.1299ZM31.6282 34.7227C31.3038 34.0956 31.2202 33.6285 31.2812 33.3305L31.3797 32.8493L31.0591 32.4772L30.3015 33.1299C31.0591 32.4772 31.0591 32.4772 31.0591 32.4772L31.0508 32.4676L31.0291 32.4425C31.0102 32.4208 30.9827 32.3892 30.9475 32.3491C30.8772 32.2689 30.776 32.1542 30.651 32.0147C30.4015 31.7362 30.0554 31.3567 29.6703 30.9544C29.2866 30.5534 28.857 30.1222 28.4414 29.7435C28.0398 29.3774 27.6002 29.0126 27.2042 28.7857C27.1663 28.7639 27.128 28.7419 27.0892 28.7197C25.966 28.0759 24.493 27.2314 23.4211 26.824C22.6447 26.4599 22.1504 26.2182 21.6519 25.883C21.1494 25.5451 20.6123 25.0906 19.8004 24.2787C18.7967 23.275 18.0794 22.0233 17.806 20.8738C17.5311 19.718 17.7296 18.8318 18.2807 18.2807C18.8318 17.7296 19.7181 17.5311 20.8739 17.806C22.0233 18.0793 23.275 18.7966 24.2787 19.8003C25.0907 20.6123 25.5451 21.1494 25.883 21.6519C26.2183 22.1504 26.46 22.6447 26.824 23.4211C27.2315 24.493 28.0759 25.966 28.7197 27.0891C28.742 27.1279 28.764 27.1663 28.7857 27.2042C29.0126 27.6002 29.3774 28.0397 29.7435 28.4414C30.1223 28.8569 30.5534 29.2865 30.9544 29.6703C31.3567 30.0554 31.7362 30.4015 32.0148 30.651C32.1542 30.776 32.2689 30.8772 32.3491 30.9475C32.3893 30.9827 32.4208 31.0102 32.4425 31.029L32.4677 31.0508L32.4763 31.0583C32.4764 31.0584 32.4772 31.0591 33.1299 30.3015L32.4772 31.0591L32.8493 31.3797L33.3305 31.2812C33.6285 31.2202 34.0956 31.3038 34.7228 31.6281L33.1662 32.9569C33.091 33.0211 33.0211 33.091 32.957 33.1661L31.6282 34.7227ZM32.8179 36.4095L34.4719 34.4719L36.4095 32.8179C36.6468 33.0246 36.8779 33.2413 37.0981 33.4615C37.5466 33.9101 37.9725 34.4806 38.2955 35.0653C38.2964 35.0669 38.2973 35.0685 38.2981 35.07L35.0701 38.2981C35.0685 38.2972 35.0669 38.2964 35.0654 38.2955C34.4807 37.9725 33.9101 37.5466 33.4615 37.0981C33.2414 36.8779 33.0246 36.6468 32.8179 36.4095Z" fill="#4D3626"/>
<path d="M57 33C57 31.8954 57.8954 31 59 31H61C62.1046 31 63 31.8954 63 33V33.8554C63 34.5204 62.6736 35.1169 62.1641 35.4819C62.3099 36.92 62.5 39.1501 62.5 41C62.5 43.326 62.1995 46.2532 62.0644 47.451C62.6306 47.8073 63 48.4372 63 49.1446V50C63 51.1046 62.1046 52 61 52H59C57.8954 52 57 51.1046 57 50V49.1446C57 48.4372 57.3694 47.8073 57.9356 47.451C57.8005 46.2532 57.5 43.326 57.5 41C57.5 39.1501 57.6901 36.92 57.8359 35.4819C57.3264 35.1169 57 34.5204 57 33.8554V33Z" fill="#4D3626"/>
<path d="M63 87C63 88.1046 62.1046 89 61 89H59C57.8954 89 57 88.1046 57 87V86.1446C57 85.4796 57.3264 84.8831 57.8359 84.5181C57.6901 83.08 57.5 80.8499 57.5 79C57.5 76.674 57.8005 73.7468 57.9356 72.549C57.3694 72.1927 57 71.5628 57 70.8554V70C57 68.8954 57.8955 68 59 68H61C62.1046 68 63 68.8954 63 70V70.8554C63 71.5628 62.6306 72.1927 62.0644 72.549C62.1995 73.7468 62.5 76.674 62.5 79C62.5 80.8499 62.3099 83.08 62.1641 84.5181C62.6736 84.8831 63 85.4796 63 86.1446V87Z" fill="#4D3626"/>
<path d="M87 57C88.1046 57 89 57.8954 89 59V61C89 62.1046 88.1046 63 87 63H86.1446C85.4796 63 84.8831 62.6736 84.5181 62.1641C83.08 62.3099 80.8499 62.5 79 62.5C76.674 62.5 73.7468 62.1995 72.549 62.0644C72.1927 62.6306 71.5628 63 70.8554 63H70C68.8954 63 68 62.1046 68 61V59C68 57.8954 68.8954 57 70 57H70.8554C71.5628 57 72.1927 57.3694 72.549 57.9356C73.7468 57.8005 76.674 57.5 79 57.5C80.8499 57.5 83.08 57.6901 84.5181 57.8359C84.8831 57.3264 85.4796 57 86.1446 57H87Z" fill="#4D3626"/>
<path d="M33 63C31.8954 63 31 62.1046 31 61V59C31 57.8954 31.8955 57 33 57H33.8554C34.5204 57 35.1169 57.3264 35.4819 57.8359C36.92 57.6901 39.1501 57.5 41 57.5C43.326 57.5 46.2532 57.8005 47.451 57.9356C47.8073 57.3694 48.4372 57 49.1446 57H50C51.1046 57 52 57.8954 52 59V61C52 62.1046 51.1046 63 50 63H49.1446C48.4372 63 47.8073 62.6306 47.451 62.0644C46.2532 62.1995 43.326 62.5 41 62.5C39.1501 62.5 36.92 62.3099 35.4819 62.1641C35.1169 62.6736 34.5204 63 33.8554 63H33Z" fill="#4D3626"/>
<path fill-rule="evenodd" clip-rule="evenodd" d="M61.1108 35.0065L61.5817 34.6691C61.8379 34.4855 62 34.1872 62 33.8554V33C62 32.4477 61.5523 32 61 32H59C58.4477 32 58 32.4477 58 33V33.8554C58 34.1872 58.1621 34.4855 58.4183 34.6691L58.8892 35.0065L58.8308 35.5828C58.6857 37.0142 58.5 39.2029 58.5 41C58.5 43.2648 58.7945 46.1431 58.9293 47.3389L58.9997 47.9629L58.4682 48.2974C58.1836 48.4764 58 48.7918 58 49.1446V50C58 50.5523 58.4477 51 59 51H61C61.5523 51 62 50.5523 62 50V49.1446C62 48.7918 61.8164 48.4764 61.5318 48.2974L61.0003 47.9629L61.0707 47.3389C61.2055 46.1431 61.5 43.2648 61.5 41C61.5 39.2029 61.3143 37.0142 61.1692 35.5828L61.1108 35.0065ZM58.8892 84.9935L58.4183 85.3309C58.1621 85.5145 58 85.8128 58 86.1446V87C58 87.5523 58.4477 88 59 88H61C61.5523 88 62 87.5523 62 87V86.1446C62 85.8128 61.8379 85.5145 61.5817 85.3309L61.1108 84.9935L61.1692 84.4172C61.3143 82.9858 61.5 80.7971 61.5 79C61.5 76.7352 61.2055 73.8569 61.0707 72.6611L61.0003 72.0371L61.5318 71.7026C61.8164 71.5236 62 71.2082 62 70.8554V70C62 69.4477 61.5523 69 61 69H59C58.4477 69 58 69.4477 58 70V70.8554C58 71.2082 58.1836 71.5236 58.4682 71.7026L58.9997 72.0371L58.9293 72.6611C58.7945 73.8569 58.5 76.7352 58.5 79C58.5 80.7971 58.6857 82.9858 58.8308 84.4172L58.8892 84.9935ZM84.9935 61.1108L85.3309 61.5817C85.5145 61.8379 85.8128 62 86.1446 62H87C87.5523 62 88 61.5523 88 61V59C88 58.4477 87.5523 58 87 58H86.1446C85.8128 58 85.5145 58.1621 85.3309 58.4183L84.9935 58.8892L84.4172 58.8308C82.9858 58.6857 80.7971 58.5 79 58.5C76.7352 58.5 73.8569 58.7945 72.6611 58.9293L72.0371 58.9997L71.7026 58.4682C71.5236 58.1836 71.2082 58 70.8554 58H70C69.4477 58 69 58.4477 69 59V61C69 61.5523 69.4477 62 70 62H70.8554C71.2082 62 71.5236 61.8164 71.7026 61.5318L72.0371 61.0003L72.6611 61.0707C73.8569 61.2055 76.7352 61.5 79 61.5C80.7971 61.5 82.9858 61.3143 84.4172 61.1692L84.9935 61.1108ZM35.0065 58.8892L34.6691 58.4183C34.4855 58.1621 34.1872 58 33.8554 58H33C32.4477 58 32 58.4477 32 59L32 61C32 61.5523 32.4477 62 33 62H33.8554C34.1872 62 34.4855 61.8379 34.6691 61.5817L35.0065 61.1108L35.5828 61.1692C37.0142 61.3143 39.2029 61.5 41 61.5C43.2648 61.5 46.1431 61.2055 47.3389 61.0707L47.9629 61.0003L48.2974 61.5318C48.4764 61.8164 48.7918 62 49.1446 62H50C50.5523 62 51 61.5523 51 61V59C51 58.4477 50.5523 58 50 58H49.1446C48.7918 58 48.4764 58.1836 48.2974 58.4682L47.9629 58.9997L47.3389 58.9293C46.1431 58.7945 43.2648 58.5 41 58.5C39.2029 58.5 37.0142 58.6857 35.5828 58.8308L35.0065 58.8892ZM62.1641 35.4819C62.6736 35.1169 63 34.5204 63 33.8554V33C63 31.8954 62.1046 31 61 31H59C57.8954 31 57 31.8954 57 33V33.8554C57 34.5204 57.3264 35.1169 57.8359 35.4819C57.6901 36.92 57.5 39.1501 57.5 41C57.5 43.326 57.8005 46.2532 57.9356 47.451C57.3694 47.8073 57 48.4372 57 49.1446V50C57 51.1046 57.8954 52 59 52H61C62.1046 52 63 51.1046 63 50V49.1446C63 48.4372 62.6306 47.8073 62.0644 47.451C62.1995 46.2532 62.5 43.326 62.5 41C62.5 39.1501 62.3099 36.92 62.1641 35.4819ZM57.8359 84.5181C57.3264 84.8831 57 85.4796 57 86.1446V87C57 88.1046 57.8954 89 59 89H61C62.1046 89 63 88.1046 63 87V86.1446C63 85.4796 62.6736 84.8831 62.1641 84.5181C62.3099 83.08 62.5 80.8499 62.5 79C62.5 76.674 62.1995 73.7468 62.0644 72.549C62.6306 72.1927 63 71.5628 63 70.8554V70C63 68.8954 62.1046 68 61 68H59C57.8955 68 57 68.8954 57 70V70.8554C57 71.5628 57.3694 72.1927 57.9356 72.549C57.8005 73.7468 57.5 76.674 57.5 79C57.5 80.8499 57.6901 83.08 57.8359 84.5181ZM84.5181 62.1641C84.8831 62.6736 85.4796 63 86.1446 63H87C88.1046 63 89 62.1046 89 61V59C89 57.8954 88.1046 57 87 57H86.1446C85.4796 57 84.8831 57.3264 84.5181 57.8359C83.08 57.6901 80.8499 57.5 79 57.5C76.674 57.5 73.7468 57.8005 72.549 57.9356C72.1927 57.3694 71.5628 57 70.8554 57H70C68.8954 57 68 57.8954 68 59V61C68 62.1046 68.8954 63 70 63H70.8554C71.5628 63 72.1927 62.6306 72.549 62.0644C73.7468 62.1995 76.674 62.5 79 62.5C80.8499 62.5 83.08 62.3099 84.5181 62.1641ZM35.4819 57.8359C35.1169 57.3264 34.5204 57 33.8554 57H33C31.8955 57 31 57.8954 31 59V61C31 62.1046 31.8954 63 33 63H33.8554C34.5204 63 35.1169 62.6736 35.4819 62.1641C36.92 62.3099 39.1501 62.5 41 62.5C43.326 62.5 46.2532 62.1995 47.451 62.0644C47.8073 62.6306 48.4372 63 49.1446 63H50C51.1046 63 52 62.1046 52 61V59C52 57.8954 51.1046 57 50 57H49.1446C48.4372 57 47.8073 57.3694 47.451 57.9356C46.2532 57.8005 43.326 57.5 41 57.5C39.1501 57.5 36.92 57.6901 35.4819 57.8359Z" fill="#4D3626"/>
<path d="M76.9706 38.7868C77.7516 38.0057 79.018 38.0057 79.799 38.7868L81.2132 40.201C81.9942 40.982 81.9942 42.2484 81.2132 43.0294L80.6083 43.6343C80.1381 44.1045 79.4855 44.2955 78.8672 44.1934C77.9534 45.3133 76.5109 47.0246 75.2028 48.3327C73.5581 49.9774 71.2757 51.8348 70.3332 52.5862C70.4817 53.2385 70.2975 53.9452 69.7973 54.4454L69.1924 55.0502C68.4114 55.8313 67.145 55.8313 66.364 55.0502L64.9498 53.636C64.1687 52.855 64.1687 51.5886 64.9498 50.8076L65.5546 50.2027C66.0548 49.7025 66.7615 49.5183 67.4137 49.6667C68.1652 48.7243 70.0225 46.4419 71.6673 44.7972C72.9754 43.4891 74.6867 42.0466 75.8066 41.1328C75.7045 40.5145 75.8955 39.8619 76.3657 39.3916L76.9706 38.7868Z" fill="#4D3626"/>
<path d="M43.0294 81.2132C42.2484 81.9942 40.982 81.9942 40.201 81.2132L38.7868 79.799C38.0058 79.0179 38.0058 77.7516 38.7868 76.9706L39.3917 76.3657C39.8619 75.8955 40.5145 75.7045 41.1328 75.8066C42.0466 74.6867 43.4891 72.9753 44.7972 71.6672C46.4419 70.0225 48.7243 68.1652 49.6668 67.4137C49.5183 66.7615 49.7025 66.0548 50.2028 65.5546L50.8076 64.9497C51.5887 64.1687 52.855 64.1687 53.636 64.9497L55.0503 66.3639C55.8313 67.145 55.8313 68.4113 55.0503 69.1924L54.4454 69.7972C53.9452 70.2974 53.2385 70.4816 52.5863 70.3332C51.8348 71.2757 49.9775 73.5581 48.3327 75.2028C47.0247 76.5109 45.3133 77.9533 44.1934 78.8671C44.2955 79.4855 44.1045 80.1381 43.6343 80.6083L43.0294 81.2132Z" fill="#4D3626"/>
<path d="M81.2132 76.9706C81.9942 77.7516 81.9942 79.0179 81.2132 79.799L79.799 81.2132C79.018 81.9942 77.7516 81.9942 76.9706 81.2132L76.3657 80.6083C75.8955 80.1381 75.7045 79.4855 75.8066 78.8671C74.6867 77.9533 72.9754 76.5109 71.6673 75.2028C70.0225 73.5581 68.1652 71.2757 67.4137 70.3332C66.7615 70.4816 66.0548 70.2974 65.5546 69.7972L64.9498 69.1924C64.1687 68.4113 64.1687 67.145 64.9498 66.3639L66.364 64.9497C67.145 64.1687 68.4114 64.1687 69.1924 64.9497L69.7973 65.5546C70.2975 66.0548 70.4817 66.7615 70.3332 67.4137C71.2757 68.1652 73.5581 70.0225 75.2028 71.6672C76.5109 72.9753 77.9534 74.6867 78.8672 75.8066C79.4855 75.7045 80.1381 75.8955 80.6083 76.3657L81.2132 76.9706Z" fill="#4D3626"/>
<path d="M38.7868 43.0294C38.0058 42.2484 38.0058 40.982 38.7868 40.201L40.201 38.7868C40.982 38.0057 42.2484 38.0057 43.0294 38.7868L43.6343 39.3916C44.1045 39.8619 44.2955 40.5145 44.1934 41.1328C45.3133 42.0466 47.0247 43.4891 48.3327 44.7972C49.9775 46.4419 51.8348 48.7243 52.5863 49.6668C53.2385 49.5183 53.9452 49.7025 54.4454 50.2027L55.0503 50.8076C55.8313 51.5886 55.8313 52.855 55.0503 53.636L53.636 55.0502C52.855 55.8313 51.5886 55.8313 50.8076 55.0502L50.2027 54.4454C49.7025 53.9452 49.5183 53.2385 49.6668 52.5862C48.7243 51.8348 46.4419 49.9774 44.7972 48.3327C43.4891 47.0246 42.0466 45.3133 41.1328 44.1934C40.5145 44.2955 39.8619 44.1045 39.3917 43.6343L38.7868 43.0294Z" fill="#4D3626"/>
<path fill-rule="evenodd" clip-rule="evenodd" d="M78.4586 43.1123L79.0301 43.2067C79.3411 43.2581 79.6666 43.1618 79.9012 42.9272L80.5061 42.3223C80.8966 41.9318 80.8966 41.2986 80.5061 40.9081L79.0919 39.4939C78.7014 39.1034 78.0682 39.1034 77.6777 39.4939L77.0728 40.0988C76.8382 40.3334 76.7419 40.6589 76.7933 40.9699L76.8876 41.5414L76.4388 41.9076C75.3241 42.8172 73.6451 44.2335 72.3744 45.5043C70.7729 47.1057 68.9459 49.3492 68.1956 50.2902L67.8042 50.7812L67.1919 50.6418C66.864 50.5672 66.5112 50.6604 66.2617 50.9098L65.6569 51.5147C65.2663 51.9052 65.2663 52.5384 65.6569 52.9289L67.0711 54.3431C67.4616 54.7336 68.0948 54.7336 68.4853 54.3431L69.0901 53.7383C69.3396 53.4888 69.4328 53.136 69.3582 52.8081L69.2188 52.1958L69.7098 51.8044C70.6508 51.0541 72.8943 49.2271 74.4957 47.6256C75.7664 46.3549 77.1828 44.6759 78.0924 43.5612L78.4586 43.1123ZM41.5414 76.8876L40.9699 76.7932C40.6589 76.7419 40.3334 76.8382 40.0988 77.0728L39.4939 77.6777C39.1034 78.0682 39.1034 78.7014 39.4939 79.0919L40.9081 80.5061C41.2986 80.8966 41.9318 80.8966 42.3223 80.5061L42.9272 79.9012C43.1618 79.6666 43.2581 79.3411 43.2067 79.0301L43.1124 78.4585L43.5612 78.0923C44.6759 77.1828 46.3549 75.7664 47.6256 74.4957C49.2271 72.8942 51.0541 70.6508 51.8044 69.7098L52.1958 69.2188L52.8081 69.3581C53.136 69.4328 53.4888 69.3396 53.7383 69.0901L54.3431 68.4853C54.7337 68.0948 54.7337 67.4616 54.3431 67.0711L52.9289 65.6568C52.5384 65.2663 51.9052 65.2663 51.5147 65.6568L50.9099 66.2617C50.6604 66.5112 50.5672 66.864 50.6418 67.1918L50.7812 67.8041L50.2902 68.1956C49.3492 68.9459 47.1057 70.7729 45.5043 72.3744C44.2336 73.6451 42.8172 75.3241 41.9076 76.4388L41.5414 76.8876ZM76.8876 78.4585L76.7933 79.0301C76.7419 79.3411 76.8382 79.6666 77.0728 79.9012L77.6777 80.5061C78.0682 80.8966 78.7014 80.8966 79.0919 80.5061L80.5061 79.0919C80.8966 78.7014 80.8966 78.0682 80.5061 77.6777L79.9012 77.0728C79.6666 76.8382 79.3411 76.7419 79.0301 76.7932L78.4586 76.8876L78.0924 76.4388C77.1828 75.3241 75.7664 73.6451 74.4957 72.3744C72.8943 70.7729 70.6508 68.9459 69.7098 68.1956L69.2188 67.8041L69.3582 67.1918C69.4328 66.864 69.3396 66.5112 69.0901 66.2617L68.4853 65.6568C68.0948 65.2663 67.4616 65.2663 67.0711 65.6568L65.6569 67.0711C65.2663 67.4616 65.2663 68.0948 65.6569 68.4853L66.2617 69.0901C66.5112 69.3396 66.864 69.4327 67.1919 69.3581L67.8042 69.2188L68.1956 69.7098C68.9459 70.6508 70.7729 72.8942 72.3744 74.4957C73.6451 75.7664 75.3241 77.1828 76.4388 78.0923L76.8876 78.4585ZM43.1124 41.5414L43.2067 40.9699C43.2581 40.6589 43.1618 40.3334 42.9272 40.0988L42.3223 39.4939C41.9318 39.1034 41.2986 39.1034 40.9081 39.4939L39.4939 40.9081C39.1034 41.2986 39.1034 41.9318 39.4939 42.3223L40.0988 42.9272C40.3334 43.1618 40.6589 43.2581 40.9699 43.2067L41.5414 43.1123L41.9076 43.5612C42.8172 44.6759 44.2336 46.3549 45.5043 47.6256C47.1057 49.2271 49.3492 51.0541 50.2902 51.8044L50.7812 52.1958L50.6418 52.8081C50.5672 53.136 50.6604 53.4888 50.9099 53.7383L51.5147 54.3431C51.9052 54.7336 52.5384 54.7336 52.9289 54.3431L54.3431 52.9289C54.7337 52.5384 54.7337 51.9052 54.3431 51.5147L53.7383 50.9098C53.4888 50.6604 53.136 50.5672 52.8081 50.6418L52.1958 50.7812L51.8044 50.2902C51.0541 49.3492 49.2271 47.1057 47.6256 45.5043C46.3549 44.2335 44.6759 42.8172 43.5612 41.9076L43.1124 41.5414ZM78.8672 44.1934C79.4855 44.2955 80.1381 44.1045 80.6083 43.6343L81.2132 43.0294C81.9942 42.2484 81.9942 40.982 81.2132 40.201L79.799 38.7868C79.018 38.0057 77.7516 38.0057 76.9706 38.7868L76.3657 39.3916C75.8955 39.8619 75.7045 40.5145 75.8066 41.1328C74.6867 42.0466 72.9754 43.4891 71.6673 44.7972C70.0225 46.4419 68.1652 48.7243 67.4137 49.6667C66.7615 49.5183 66.0548 49.7025 65.5546 50.2027L64.9498 50.8076C64.1687 51.5886 64.1687 52.855 64.9498 53.636L66.364 55.0502C67.145 55.8313 68.4114 55.8313 69.1924 55.0502L69.7973 54.4454C70.2975 53.9452 70.4817 53.2385 70.3332 52.5862C71.2757 51.8348 73.5581 49.9774 75.2028 48.3327C76.5109 47.0246 77.9534 45.3133 78.8672 44.1934ZM41.1328 75.8066C40.5145 75.7045 39.8619 75.8955 39.3917 76.3657L38.7868 76.9706C38.0058 77.7516 38.0058 79.0179 38.7868 79.799L40.201 81.2132C40.982 81.9942 42.2484 81.9942 43.0294 81.2132L43.6343 80.6083C44.1045 80.1381 44.2955 79.4855 44.1934 78.8671C45.3133 77.9533 47.0247 76.5109 48.3327 75.2028C49.9775 73.5581 51.8348 71.2757 52.5863 70.3332C53.2385 70.4816 53.9452 70.2974 54.4454 69.7972L55.0503 69.1924C55.8313 68.4113 55.8313 67.145 55.0503 66.3639L53.636 64.9497C52.855 64.1687 51.5887 64.1687 50.8076 64.9497L50.2028 65.5546C49.7025 66.0548 49.5183 66.7615 49.6668 67.4137C48.7243 68.1652 46.4419 70.0225 44.7972 71.6672C43.4891 72.9753 42.0466 74.6867 41.1328 75.8066ZM75.8066 78.8671C75.7045 79.4855 75.8955 80.1381 76.3657 80.6083L76.9706 81.2132C77.7516 81.9942 79.018 81.9942 79.799 81.2132L81.2132 79.799C81.9942 79.0179 81.9942 77.7516 81.2132 76.9706L80.6083 76.3657C80.1381 75.8955 79.4855 75.7045 78.8672 75.8066C77.9534 74.6867 76.5109 72.9753 75.2028 71.6672C73.5581 70.0225 71.2757 68.1652 70.3332 67.4137C70.4817 66.7615 70.2975 66.0548 69.7973 65.5546L69.1924 64.9497C68.4114 64.1687 67.145 64.1687 66.364 64.9497L64.9498 66.3639C64.1687 67.145 64.1687 68.4113 64.9498 69.1924L65.5546 69.7972C66.0548 70.2974 66.7615 70.4816 67.4137 70.3332C68.1652 71.2757 70.0225 73.5581 71.6673 75.2028C72.9754 76.5109 74.6867 77.9533 75.8066 78.8671ZM44.1934 41.1328C44.2955 40.5145 44.1045 39.8619 43.6343 39.3916L43.0294 38.7868C42.2484 38.0057 40.982 38.0057 40.201 38.7868L38.7868 40.201C38.0058 40.982 38.0058 42.2484 38.7868 43.0294L39.3917 43.6343C39.8619 44.1045 40.5145 44.2955 41.1328 44.1934C42.0466 45.3133 43.4891 47.0246 44.7972 48.3327C46.4419 49.9774 48.7243 51.8348 49.6668 52.5862C49.5183 53.2385 49.7025 53.9452 50.2027 54.4454L50.8076 55.0502C51.5886 55.8313 52.855 55.8313 53.636 55.0502L55.0503 53.636C55.8313 52.855 55.8313 51.5886 55.0503 50.8076L54.4454 50.2027C53.9452 49.7025 53.2385 49.5183 52.5863 49.6668C51.8348 48.7243 49.9775 46.4419 48.3327 44.7972C47.0247 43.4891 45.3133 42.0466 44.1934 41.1328Z" fill="#4D3626"/>
</svg>
