<svg width="199" height="199" viewBox="0 0 199 199" fill="none" xmlns="http://www.w3.org/2000/svg">
<path d="M178.105 99.5C178.105 142.912 142.912 178.105 99.5 178.105C56.0877 178.105 20.895 142.912 20.895 99.5C20.895 56.0877 56.0877 20.895 99.5 20.895C142.912 20.895 178.105 56.0877 178.105 99.5Z" fill="#E6D4C2"/>
<path fill-rule="evenodd" clip-rule="evenodd" d="M99.5 149.413C127.066 149.413 149.413 127.066 149.413 99.5C149.413 71.9338 127.066 49.5869 99.5 49.5869C71.9338 49.5869 49.5869 71.9338 49.5869 99.5C49.5869 127.066 71.9338 149.413 99.5 149.413ZM99.5 159.2C132.471 159.2 159.2 132.471 159.2 99.5C159.2 66.5287 132.471 39.8 99.5 39.8C66.5287 39.8 39.8 66.5287 39.8 99.5C39.8 132.471 66.5287 159.2 99.5 159.2Z" fill="#D9AD82"/>
<path fill-rule="evenodd" clip-rule="evenodd" d="M150.245 99.5C150.245 127.526 127.526 150.245 99.5001 150.245C71.4744 150.245 48.7551 127.526 48.7551 99.5C48.7551 71.4743 71.4744 48.755 99.5001 48.755C127.526 48.755 150.245 71.4743 150.245 99.5ZM148.293 99.5C148.293 126.448 126.448 148.293 99.5001 148.293C72.5523 148.293 50.7068 126.448 50.7068 99.5C50.7068 72.5522 72.5523 50.7067 99.5001 50.7067C126.448 50.7067 148.293 72.5522 148.293 99.5Z" fill="#332114"/>
<path fill-rule="evenodd" clip-rule="evenodd" d="M160.195 99.5C160.195 133.021 133.021 160.195 99.5001 160.195C65.9791 160.195 38.8051 133.021 38.8051 99.5C38.8051 65.9791 65.9791 38.805 99.5001 38.805C133.021 38.805 160.195 65.9791 160.195 99.5ZM158.205 99.5C158.205 131.922 131.922 158.205 99.5001 158.205C67.0782 158.205 40.7951 131.922 40.7951 99.5C40.7951 67.0781 67.0782 40.795 99.5001 40.795C131.922 40.795 158.205 67.0781 158.205 99.5Z" fill="#332114"/>
</svg>
