<svg width="199" height="199" viewBox="0 0 199 199" fill="none" xmlns="http://www.w3.org/2000/svg">
<path fill-rule="evenodd" clip-rule="evenodd" d="M102.98 179.025C94.9946 179.394 86.8174 178.557 78.6837 176.377C36.2197 164.999 11.0198 121.352 22.398 78.8877C32.5674 40.9346 68.5147 16.7725 106.355 20.1911C147.108 23.6672 179.1 57.8475 179.1 99.5C179.1 142.296 145.327 177.204 102.98 179.025ZM174.109 101.068C173.994 106.647 173.267 112.076 171.991 117.29L174.655 118.004C176.048 112.345 176.779 106.672 176.898 101.068H174.109ZM174.108 97.9118C173.992 92.3395 173.265 86.9174 171.991 81.7096L174.674 80.9909C176.026 86.4792 176.785 92.1502 176.9 97.9118H174.108ZM173.84 121.053L171.176 120.339C169.637 125.642 167.526 130.7 164.914 135.445L167.336 136.843C170.028 131.93 172.224 126.65 173.84 121.053ZM163.282 138.26L165.712 139.663C162.746 144.573 159.272 149.085 155.379 153.147L153.372 151.14C157.121 147.23 160.449 142.912 163.282 138.26ZM151.036 153.472L153.045 155.481C148.943 159.412 144.432 162.871 139.604 165.806L138.176 163.333C142.819 160.514 147.13 157.203 151.036 153.472ZM135.286 165.001L136.716 167.477C131.774 170.199 126.535 172.386 121.092 173.985L120.339 171.176C125.583 169.655 130.588 167.573 135.286 165.001ZM117.092 172.04L117.848 174.862C112.936 176.076 107.876 176.816 102.737 177.044C102.114 177.069 101.49 177.088 100.864 177.098V174.117C101.37 174.107 101.875 174.091 102.38 174.07C107.428 173.879 112.348 173.186 117.092 172.04ZM97.7077 177.09L97.7077 174.115C92.4117 173.999 87.0517 173.313 81.7034 172.014L80.9366 174.876C86.3276 176.199 91.94 176.959 97.7077 177.09ZM63.5067 164.998C68.2217 167.568 73.2856 169.664 78.6529 171.206L77.8878 174.061C72.3307 172.453 67.0303 170.241 62.0623 167.5L63.5067 164.998ZM47.7503 153.481L45.7485 155.483C49.8211 159.394 54.3197 162.866 59.1677 165.82L60.6053 163.33C55.9281 160.499 51.6268 157.188 47.7503 153.481ZM35.5221 138.26L33.0807 139.669C36.029 144.534 39.4968 149.049 43.407 153.137L45.4061 151.138C41.6446 147.206 38.3328 142.884 35.5221 138.26ZM31.4442 136.836L33.8839 135.427C31.2691 130.67 29.1691 125.628 27.6357 120.39L24.9389 121.112C26.5359 126.631 28.7291 131.897 31.4442 136.836ZM21.9055 101.068C22.0209 106.892 22.7778 112.558 24.1085 118L26.7977 117.279C25.5022 112.021 24.7721 106.588 24.658 101.068H21.9055ZM31.4528 62.1484C28.7337 67.0915 26.5376 72.3629 24.9389 77.8879L27.6403 78.6117C29.194 73.2719 31.2962 68.2341 33.8689 63.5434L31.4528 62.1484ZM26.8217 81.6595L24.1241 80.9367C22.7853 86.3913 22.0231 92.0724 21.9059 97.9118H24.6599C24.7779 92.534 25.4832 87.0901 26.8217 81.6595ZM43.4171 45.8526C39.5028 49.9435 36.0316 54.462 33.0807 59.3308L35.4961 60.7253C38.3437 56.0345 41.675 51.7227 45.4041 47.8396L43.4171 45.8526ZM59.1765 33.1745C54.3252 36.1302 49.8236 39.6033 45.7484 43.517L47.742 45.5105C51.6737 41.7633 55.9943 38.4647 60.615 35.6658L59.1765 33.1745ZM77.6916 24.996C72.2059 26.5991 66.9718 28.7916 62.0623 31.5003L63.5062 34.0012C68.2359 31.4163 73.246 29.3394 78.4486 27.8214L77.6916 24.996ZM97.7077 21.9103C91.94 22.041 86.3276 22.8009 80.9366 24.1241L81.6946 26.9532C86.8915 25.688 92.2572 24.9747 97.7077 24.862V21.9103ZM100.864 21.9018L100.864 24.864C102.51 24.9001 104.162 24.9912 105.818 25.1387C109.736 25.4672 113.568 26.0984 117.29 27.0087L118.048 24.1815C114.076 23.1905 110.097 22.5256 106.14 22.1701C104.397 22.0224 102.637 21.9323 100.864 21.9018ZM121.094 25.0063L120.339 27.8236C125.579 29.3445 130.582 31.4244 135.277 33.9945L136.725 31.4867C131.859 28.8126 126.633 26.6255 121.094 25.0063ZM151.026 45.5183L153.047 43.4966C149.003 39.6064 144.511 36.1315 139.622 33.1618L138.176 35.6668C142.815 38.4833 147.122 41.7913 151.026 45.5183ZM163.273 60.7247L165.695 59.3262C162.768 54.485 159.314 49.9598 155.387 45.845L153.372 47.8597C157.117 51.7658 160.442 56.0784 163.273 60.7247ZM167.329 62.1609L164.914 63.5554C167.516 68.2808 169.621 73.3185 171.158 78.598L173.838 77.8798C172.245 72.404 170.057 67.1328 167.329 62.1609ZM105.606 27.118C103.593 26.9505 101.556 26.865 99.5 26.865C59.3848 26.865 26.865 59.3848 26.865 99.5C26.865 139.615 59.3848 172.135 99.5 172.135C100.387 172.135 101.27 172.119 102.148 172.088C133.107 170.876 161.006 149.788 169.446 118.289C179.828 79.5407 156.833 39.7122 118.085 29.3297C113.925 28.215 109.753 27.4851 105.606 27.118Z" fill="#664E3D"/>
</svg>
