<svg width="199" height="199" viewBox="0 0 199 199" fill="none" xmlns="http://www.w3.org/2000/svg">
<g clip-path="url(#clip0_119_261)">
<path d="M178.105 99.5C178.105 142.912 142.912 178.105 99.5 178.105C56.0877 178.105 20.895 142.912 20.895 99.5C20.895 56.0877 56.0877 20.895 99.5 20.895C142.912 20.895 178.105 56.0877 178.105 99.5Z" fill="#E6D4C2"/>
<path fill-rule="evenodd" clip-rule="evenodd" d="M99.5 149.413C127.066 149.413 149.413 127.066 149.413 99.5C149.413 71.9338 127.066 49.5869 99.5 49.5869C71.9338 49.5869 49.5869 71.9338 49.5869 99.5C49.5869 127.066 71.9338 149.413 99.5 149.413ZM99.5 159.2C132.471 159.2 159.2 132.471 159.2 99.5C159.2 66.5288 132.471 39.8 99.5 39.8C66.5288 39.8 39.8 66.5288 39.8 99.5C39.8 132.471 66.5288 159.2 99.5 159.2Z" fill="#D9AD82"/>
<path fill-rule="evenodd" clip-rule="evenodd" d="M99.4999 179.1C143.462 179.1 179.1 143.462 179.1 99.5C179.1 55.5382 143.462 19.9 99.4999 19.9C55.5381 19.9 19.8999 55.5382 19.8999 99.5C19.8999 143.462 55.5381 179.1 99.4999 179.1ZM174.876 118.063C176.336 112.115 177.11 105.898 177.11 99.5C177.11 93.1019 176.336 86.8846 174.876 80.9367L171.991 81.7096C173.386 87.4109 174.125 93.3691 174.125 99.5C174.125 105.631 173.386 111.589 171.991 117.29L174.876 118.063ZM174.061 121.112L171.176 120.339C169.638 125.642 167.526 130.7 164.914 135.445L167.5 136.938C170.241 131.97 172.453 126.669 174.061 121.112ZM165.919 139.669L163.333 138.176C160.489 142.86 157.144 147.207 153.372 151.14L155.483 153.252C159.438 149.133 162.943 144.579 165.919 139.669ZM153.252 155.483L151.14 153.372C147.207 157.144 142.86 160.489 138.176 163.333L139.669 165.919C144.579 162.943 149.133 159.438 153.252 155.483ZM136.938 167.5L135.445 164.914C130.7 167.526 125.642 169.638 120.339 171.176L121.112 174.061C126.669 172.453 131.97 170.241 136.938 167.5ZM118.063 174.876L117.29 171.991C111.589 173.386 105.631 174.125 99.4999 174.125C93.369 174.125 87.4108 173.386 81.7095 171.991L80.9366 174.876C86.8845 176.336 93.1018 177.11 99.4999 177.11C105.898 177.11 112.115 176.336 118.063 174.876ZM77.8878 174.061L78.6607 171.176C73.3584 169.638 68.2995 167.526 63.5553 164.914L62.0622 167.5C67.0302 170.241 72.3307 172.453 77.8878 174.061ZM59.3307 165.919L60.8238 163.333C56.1396 160.489 51.7934 157.144 47.8596 153.372L45.7484 155.483C49.8667 159.438 54.4205 162.943 59.3307 165.919ZM43.5169 153.252L45.6281 151.14C41.8561 147.207 38.5109 142.86 35.6667 138.176L33.0806 139.669C36.0566 144.579 39.5617 149.133 43.5169 153.252ZM31.5002 136.938L34.0863 135.445C31.4738 130.7 29.3625 125.642 27.8235 120.339L24.9389 121.112C26.5468 126.669 28.7592 131.97 31.5002 136.938ZM24.124 118.063C22.6641 112.116 21.8899 105.898 21.8899 99.5C21.8899 93.1019 22.6641 86.8846 24.124 80.9367L27.0086 81.7096C25.6143 87.4109 24.8749 93.3691 24.8749 99.5C24.8749 105.631 25.6143 111.589 27.0087 117.29L24.124 118.063ZM27.8235 78.6608C29.3624 73.3585 31.4738 68.2996 34.0863 63.5554L31.5002 62.0623C28.7592 67.0303 26.5468 72.3308 24.9389 77.8879L27.8235 78.6608ZM33.0806 59.3308L35.6667 60.8239C38.5109 56.1397 41.8561 51.7935 45.6281 47.8596L43.5169 45.7485C39.5617 49.8668 36.0566 54.4206 33.0806 59.3308ZM45.7484 43.517L47.8596 45.6282C51.7934 41.8562 56.1396 38.511 60.8238 35.6668L59.3307 33.0807C54.4205 36.0567 49.8667 39.5618 45.7484 43.517ZM62.0623 31.5003L63.5553 34.0864C68.2995 31.4739 73.3584 29.3625 78.6607 27.8236L77.8878 24.939C72.3307 26.5469 67.0302 28.7593 62.0623 31.5003ZM80.9365 24.1241L81.7095 27.0087C87.4107 25.6144 93.369 24.875 99.4999 24.875C105.631 24.875 111.589 25.6144 117.29 27.0087L118.063 24.1241C112.115 22.6642 105.898 21.89 99.4999 21.89C93.1018 21.89 86.8845 22.6642 80.9365 24.1241ZM121.112 24.939L120.339 27.8236C125.642 29.3625 130.7 31.4739 135.445 34.0864L136.938 31.5003C131.97 28.7593 126.669 26.5469 121.112 24.939ZM139.669 33.0807L138.176 35.6668C142.86 38.511 147.207 41.8563 151.14 45.6282L153.252 43.517C149.133 39.5618 144.579 36.0567 139.669 33.0807ZM155.483 45.7485L153.372 47.8597C157.144 51.7936 160.489 56.1397 163.333 60.8239L165.919 59.3308C162.943 54.4206 159.438 49.8668 155.483 45.7485ZM167.5 62.0624L164.914 63.5554C167.526 68.2996 169.638 73.3585 171.176 78.6609L174.061 77.8879C172.453 72.3308 170.241 67.0303 167.5 62.0624ZM99.4999 172.135C139.615 172.135 172.135 139.615 172.135 99.5C172.135 59.3848 139.615 26.865 99.4999 26.865C59.3847 26.865 26.8649 59.3848 26.8649 99.5C26.8649 139.615 59.3847 172.135 99.4999 172.135Z" fill="#664E3D"/>
<path fill-rule="evenodd" clip-rule="evenodd" d="M150.245 99.5001C150.245 127.526 127.526 150.245 99.5001 150.245C71.4744 150.245 48.7551 127.526 48.7551 99.5001C48.7551 71.4744 71.4744 48.7551 99.5001 48.7551C127.526 48.7551 150.245 71.4744 150.245 99.5001ZM148.293 99.5001C148.293 126.448 126.448 148.293 99.5001 148.293C72.5523 148.293 50.7068 126.448 50.7068 99.5001C50.7068 72.5523 72.5523 50.7068 99.5001 50.7068C126.448 50.7068 148.293 72.5523 148.293 99.5001Z" fill="#332114"/>
<path fill-rule="evenodd" clip-rule="evenodd" d="M160.195 99.5001C160.195 133.021 133.021 160.195 99.5002 160.195C65.9792 160.195 38.8052 133.021 38.8052 99.5001C38.8052 65.9791 65.9792 38.8051 99.5002 38.8051C133.021 38.8051 160.195 65.9791 160.195 99.5001ZM158.205 99.5001C158.205 131.922 131.922 158.205 99.5002 158.205C67.0783 158.205 40.7952 131.922 40.7952 99.5001C40.7952 67.0782 67.0783 40.7951 99.5002 40.7951C131.922 40.7951 158.205 67.0782 158.205 99.5001Z" fill="#332114"/>
<path d="M149.25 49.7501L121.565 92.5351L114.015 84.9848L149.25 49.7501Z" fill="#4D3626"/>
<path d="M149.25 49.7501L106.465 77.4345L114.015 84.9848L149.25 49.7501Z" fill="#E6D4C2"/>
<path fill-rule="evenodd" clip-rule="evenodd" d="M151.564 47.4357L120.607 95.2786L103.721 78.3929L151.564 47.4357ZM142.268 58.1385L120.273 92.1308L114.275 86.1322L142.268 58.1385ZM140.862 56.7311L112.868 84.725L106.869 78.7263L140.862 56.7311Z" fill="#332114"/>
<path d="M49.7498 149.25L77.4343 106.465L84.9846 114.015L49.7498 149.25Z" fill="#4D3626"/>
<path d="M49.7498 149.25L92.5348 121.566L84.9846 114.015L49.7498 149.25Z" fill="#E6D4C2"/>
<path fill-rule="evenodd" clip-rule="evenodd" d="M47.4355 151.564L78.3927 103.721L95.2784 120.607L47.4355 151.564ZM56.7312 140.861L78.7262 106.869L84.7248 112.868L56.7312 140.861ZM58.138 142.269L86.1319 114.275L92.1306 120.274L58.138 142.269Z" fill="#332114"/>
<path d="M49.75 49.7501L92.535 77.4345L84.9847 84.9848L49.75 49.7501Z" fill="#4D3626"/>
<path d="M49.75 49.7501L77.4344 92.5351L84.9847 84.9848L49.75 49.7501Z" fill="#E6D4C2"/>
<path fill-rule="evenodd" clip-rule="evenodd" d="M47.4358 47.4358L95.2786 78.3929L78.3929 95.2786L47.4358 47.4358ZM58.1384 56.7313L92.1308 78.7264L86.1322 84.725L58.1384 56.7313ZM56.7313 58.1384L84.725 86.1322L78.7264 92.1308L56.7313 58.1384Z" fill="#332114"/>
<path d="M149.25 149.25L106.465 121.566L114.015 114.015L149.25 149.25Z" fill="#4D3626"/>
<path d="M149.25 149.25L121.565 106.465L114.015 114.015L149.25 149.25Z" fill="#E6D4C2"/>
<path fill-rule="evenodd" clip-rule="evenodd" d="M151.564 151.564L103.721 120.607L120.607 103.721L151.564 151.564ZM140.861 142.269L106.869 120.274L112.868 114.275L140.861 142.269ZM142.268 140.862L114.275 112.868L120.273 106.869L142.268 140.862Z" fill="#332114"/>
<path d="M99.5 197.01L82.585 120.727L99.5 105.47V197.01Z" fill="#4D3626"/>
<path d="M99.5 197.01L116.415 120.727L99.5 105.47V197.01Z" fill="#E6D4C2"/>
<path fill-rule="evenodd" clip-rule="evenodd" d="M117.41 119.4L99.5001 199L81.5901 119.4L99.5001 103.48L117.41 119.4ZM100.495 107.027L115.211 120.108L100.495 185.512V107.027ZM98.5051 107.027L83.7892 120.108L98.5051 185.512V107.027Z" fill="#332114"/>
<path d="M1.98999 99.5L78.2733 82.585L93.53 99.5H1.98999Z" fill="#4D3626"/>
<path d="M1.98999 99.5L78.2733 116.415L93.53 99.5H1.98999Z" fill="#E6D4C2"/>
<path fill-rule="evenodd" clip-rule="evenodd" d="M79.6 117.41L0 99.5L79.6 81.59L95.52 99.5L79.6 117.41ZM91.973 100.495L78.8921 115.211L13.4878 100.495H91.973ZM91.973 98.505L78.8921 83.789L13.4878 98.505H91.973Z" fill="#332114"/>
<path d="M197.01 99.5L120.727 116.415L105.47 99.5H197.01Z" fill="#4D3626"/>
<path d="M197.01 99.5L120.727 82.585L105.47 99.5H197.01Z" fill="#E6D4C2"/>
<path fill-rule="evenodd" clip-rule="evenodd" d="M119.4 81.59L199 99.5L119.4 117.41L103.48 99.5L119.4 81.59ZM107.027 98.505L120.108 83.789L185.512 98.505H107.027ZM107.027 100.495L120.108 115.211L185.512 100.495H107.027Z" fill="#332114"/>
<path d="M99.5 1.98999L116.415 78.2733L99.5 93.53V1.98999Z" fill="#4D3626"/>
<path d="M99.5 1.98999L82.585 78.2733L99.5 93.53V1.98999Z" fill="#E6D4C2"/>
<path fill-rule="evenodd" clip-rule="evenodd" d="M81.5901 79.6L99.5001 0L117.41 79.6L99.5001 95.52L81.5901 79.6ZM98.5051 91.973L83.7891 78.8921L98.5051 13.4878V91.973ZM100.495 91.973L115.211 78.8921L100.495 13.4878V91.973Z" fill="#332114"/>
<path d="M125.37 99.5C125.37 113.788 113.788 125.37 99.4999 125.37C85.2123 125.37 73.6299 113.788 73.6299 99.5C73.6299 85.2124 85.2123 73.63 99.4999 73.63C113.788 73.63 125.37 85.2124 125.37 99.5Z" fill="#E6D4C2"/>
<path fill-rule="evenodd" clip-rule="evenodd" d="M99.5 122.385C112.139 122.385 122.385 112.139 122.385 99.5C122.385 86.861 112.139 76.615 99.5 76.615C86.861 76.615 76.615 86.861 76.615 99.5C76.615 112.139 86.861 122.385 99.5 122.385ZM99.5 128.355C115.436 128.355 128.355 115.436 128.355 99.5C128.355 83.5638 115.436 70.645 99.5 70.645C83.5638 70.645 70.645 83.5638 70.645 99.5C70.645 115.436 83.5638 128.355 99.5 128.355Z" fill="#332114"/>
<path fill-rule="evenodd" clip-rule="evenodd" d="M99.4999 110.445C105.545 110.445 110.445 105.545 110.445 99.4999C110.445 93.4552 105.545 88.5549 99.4999 88.5549C93.4552 88.5549 88.5549 93.4552 88.5549 99.4999C88.5549 105.545 93.4552 110.445 99.4999 110.445ZM99.4999 112.435C106.644 112.435 112.435 106.644 112.435 99.4999C112.435 92.3561 106.644 86.5649 99.4999 86.5649C92.3561 86.5649 86.5649 92.3561 86.5649 99.4999C86.5649 106.644 92.3561 112.435 99.4999 112.435Z" fill="#332114"/>
<path d="M106.465 99.5C106.465 103.347 103.347 106.465 99.4999 106.465C95.6533 106.465 92.5349 103.347 92.5349 99.5C92.5349 95.6534 95.6533 92.535 99.4999 92.535C103.347 92.535 106.465 95.6534 106.465 99.5Z" fill="#4D3626"/>
<path fill-rule="evenodd" clip-rule="evenodd" d="M99.5 105.47C102.797 105.47 105.47 102.797 105.47 99.5C105.47 96.2029 102.797 93.53 99.5 93.53C96.2029 93.53 93.53 96.2029 93.53 99.5C93.53 102.797 96.2029 105.47 99.5 105.47ZM99.5 107.46C103.896 107.46 107.46 103.896 107.46 99.5C107.46 95.1038 103.896 91.54 99.5 91.54C95.1038 91.54 91.54 95.1038 91.54 99.5C91.54 103.896 95.1038 107.46 99.5 107.46Z" fill="#332114"/>
</g>
<defs>
<clipPath id="clip0_119_261">
<rect width="199" height="199" fill="white"/>
</clipPath>
</defs>
</svg>
