<svg width="114" height="173" viewBox="0 0 114 173" fill="none" xmlns="http://www.w3.org/2000/svg">
<g clip-path="url(#clip0_9_10)">
<path d="M26.8535 116.864C28.3662 114.496 25.3467 99.4096 23.2223 91.8999C28.3241 83.9142 35.3741 80.2408 46.0441 73.6284C52.3226 69.7375 59.8545 64.8289 68.9803 57.4253C72.8542 54.2826 80.7334 47.005 87.9244 37.6961C90 38 91.3222 39.2154 91.5 40.5C92.5 37.6961 91.9415 36.0616 90.3711 34.5055C100.711 20.929 110.065 5.19079 112.546 1.30656C111.661 63.6157 73.7241 107.89 54.8662 122.238C44.4167 115.562 36.8118 115.089 34.7411 115.949C40.5529 117.789 52.9612 122.541 52.6958 124.728C51.194 125.037 47.8519 126.585 46.4979 130.304C42.3606 127.207 32.618 120.787 30.1499 121.983C29.9564 122.245 29.7638 122.507 29.5722 122.769C32.9441 127.106 39.3831 132.426 36.5738 136.823C33.7644 141.22 35.0499 144.781 36.0438 146.011C34.0379 145.126 30.7521 142.035 33.6566 136.746C36.5611 131.456 30.4429 128.882 27.2195 126.029C28.2075 128.016 31.292 131.527 30.293 134.671C29.0443 138.6 27.417 141.997 27.5 141C28 135 26.2184 133.657 25.2662 128.815C18.3074 138.871 13.6497 148.626 10.5885 155.864C10.0213 157.204 9.50903 158.459 9.04701 159.613C8.70963 160.455 8.39907 161.244 8.11359 161.974C7.76272 162.871 7.44973 163.679 7.17138 164.388L1.75843 164.502C1.76884 164.151 1.94581 163.27 2.32974 161.931C2.56392 161.115 2.87509 160.129 3.27242 158.988C4.09433 156.629 5.28493 153.611 6.92538 150.08C10.0259 143.404 14.7333 134.893 21.5956 125.519C20.8671 125.846 19.7751 125.319 18.5808 124.406C16.1357 122.536 13.2616 119.048 12.1991 117.961C16.8802 120.848 18.2206 123.437 22.4884 124.307C22.6659 124.068 22.8446 123.828 23.0245 123.587C24.5485 120.178 14.1476 113.957 10.4696 112.318C13.4517 111.366 20.9358 113.32 23.882 121.515C27.8797 119.901 13.3365 104.687 18.63 99.0879C21.0429 96.5357 20.521 96.1282 20.7911 95.7053C21.0072 95.3671 24.639 109.495 26.8535 116.864Z" fill="#EEEEEE"/>
<path d="M112.546 1.30656C108.245 17.0163 91.1147 55.7132 58 86C54.5165 89.1861 50.6277 92.5525 47.5 95.7053M112.546 1.30656C111.661 63.6157 73.7241 107.89 54.8662 122.238C44.4167 115.562 36.8118 115.089 34.7411 115.949M112.546 1.30656C109.594 12.8369 101.747 34.3965 88.7638 55.3305M112.546 1.30656C110.065 5.19079 100.711 20.929 90.3711 34.5055C91.9415 36.0616 92.5 37.6961 91.5 40.5C91.3222 39.2154 90 38 87.9244 37.6961C80.7334 47.005 72.8542 54.2826 68.9803 57.4253C59.8545 64.8289 52.3226 69.7375 46.0441 73.6284M27.2195 126.029C30.4429 128.882 36.5611 131.456 33.6566 136.746C30.7521 142.035 34.0379 145.126 36.0438 146.011C35.0499 144.781 33.7644 141.22 36.5738 136.823C39.3831 132.426 32.9441 127.106 29.5722 122.769M27.2195 126.029C27.987 124.949 28.7713 123.861 29.5722 122.769M27.2195 126.029C28.2075 128.016 31.292 131.527 30.293 134.671C29.0443 138.6 27.417 141.997 27.5 141C28 135 26.2184 133.657 25.2662 128.815M27.2195 126.029C26.5557 126.963 25.9045 127.892 25.2662 128.815M29.5722 122.769C29.7638 122.507 29.9564 122.245 30.1499 121.983M29.5722 122.769C33.2328 124.365 41.5372 129.013 42.0645 132.73M34.7411 115.949C33.6951 117.283 32.6719 118.616 31.6722 119.943C31.1586 120.624 30.6511 121.305 30.1499 121.983M34.7411 115.949C42.3111 106.293 51.9259 97.0593 61.6208 88.4478C62.7673 87.4294 63.8943 86.3865 65.002 85.3214M34.7411 115.949C40.5529 117.789 52.9612 122.541 52.6958 124.728C51.194 125.037 47.8519 126.585 46.4979 130.304C42.3606 127.207 32.618 120.787 30.1499 121.983M25.2662 128.815C18.3074 138.871 13.6498 148.626 10.5885 155.864M22.4884 124.307C18.2206 123.437 16.8802 120.848 12.1991 117.961C13.7805 119.579 19.3756 126.517 21.5956 125.519M22.4884 124.307C22.1874 124.713 21.8899 125.117 21.5956 125.519M22.4884 124.307C22.6659 124.068 22.8446 123.828 23.0245 123.587M21.5956 125.519C20.1141 124.451 16.6062 123.388 11.0224 125.583M21.5956 125.519C14.7333 134.893 10.0259 143.404 6.92538 150.08M37.4332 105.97C37.2025 101.893 37.255 98.2915 36.1134 93.4752M37.4332 105.97C40.5607 102.463 43.9235 99.3106 47.5 95.7053M37.4332 105.97C31.9753 112.089 27.1878 118.014 23.0245 123.587M47.5 95.7053C47.5 95.7053 47.0466 82.5542 43.0158 76.898M68.2753 82.0532C71.6242 81.573 79.3233 81.4654 83.3292 84.8761M68.2753 82.0532C67.2037 83.1633 66.1126 84.2535 65.002 85.3214M68.2753 82.0532C76.1434 73.903 82.9658 64.6791 88.7638 55.3305M65.002 85.3214C67.5318 85.1193 73.3765 85.1995 76.5167 87.1363M88.7638 55.3305C90.9371 54.9086 95.7618 54.2422 97.674 54.9516M46.0441 73.6284C35.3741 80.2408 28.3241 83.9142 23.2223 91.8999C25.3467 99.4097 28.3662 114.496 26.8535 116.864C24.639 109.495 21.0072 95.3671 20.7911 95.7053C20.521 96.1282 21.0429 96.5357 18.63 99.0879C13.3365 104.687 27.8797 119.901 23.882 121.515C20.9358 113.32 13.4517 111.366 10.4696 112.318C14.1476 113.957 24.5485 120.178 23.0245 123.587M46.0441 73.6284C47.6386 74.4287 50.78 78.1322 50.5904 86.543M34.6074 87.3448C34.8023 88.0239 35.0599 88.9481 35.298 90.0349M9.04701 159.613C8.07689 159.406 5.56381 158.991 3.27242 158.988M9.04701 159.613C9.50903 158.459 10.0213 157.204 10.5885 155.864M9.04701 159.613C8.70963 160.455 8.39907 161.244 8.11359 161.974M3.27242 158.988C4.09433 156.629 5.28493 153.611 6.92538 150.08M3.27242 158.988C2.87509 160.129 2.56392 161.115 2.32974 161.931M10.5885 155.864C10.1331 155.583 8.79037 154.99 7.06186 154.863M6.92538 150.08C7.33276 150.135 8.45534 150.318 9.68667 150.608M2.32974 161.931C1.94581 163.27 1.76884 164.151 1.75843 164.502L7.17138 164.388C7.44973 163.679 7.76272 162.871 8.11359 161.974M2.32974 161.931C3.2679 161.727 5.73809 161.449 8.11359 161.974" stroke="#332114" stroke-width="1.5" stroke-linecap="round" stroke-linejoin="round"/>
<g clip-path="url(#clip1_9_10)">
<path d="M47.0142 123C47.3375 122 51.9358 121 58.007 121H58C64.0712 121 68.6695 122 68.9929 123C69.3162 124 64.0732 125 58.0035 125C51.9338 125 46.6909 124 47.0142 123Z" fill="#4D3626"/>
<path d="M57.9999 133C51.336 133 45.8195 131.741 43 130.116C42.5 130.91 41.8 133.2 43 136C40.6666 141.333 36 138 36 164.5C36 168.09 45.8497 172 58 172H58.0071C70.1573 172 80.007 168.09 80.007 164.5C80.007 138 75.3404 141.333 73.0071 136C74.2071 133.2 73.5071 130.91 73.0071 130.116C70.1875 131.741 64.671 133 58.0071 133H57.9999Z" fill="#806959"/>
<path d="M57.9999 128C48.626 128 40.5256 125.508 40.9976 123.012C40.9614 123.2 40.52 125.6 40.9999 128C41.145 128.726 41.847 129.451 43 130.116C45.8195 131.741 51.336 133 57.9999 133H58.0071C64.671 133 70.1875 131.741 73.0071 130.116C74.16 129.451 74.862 128.726 75.0071 128C75.487 125.6 75.0456 123.2 75.0094 123.012C75.4815 125.508 67.3811 128 58.0071 128H57.9999Z" fill="#806959"/>
<path fill-rule="evenodd" clip-rule="evenodd" d="M40.9976 123.012C40.5256 125.508 48.626 128 57.9999 128H58.0071C67.3811 128 75.4815 125.508 75.0094 123.012L75.0071 123C74.5071 120.5 67.396 118 58.0071 118H57.9999C48.6111 118 41.5 120.5 40.9999 123L40.9976 123.012ZM58.007 121C51.9358 121 47.3375 122 47.0142 123C46.6909 124 51.9338 125 58.0035 125C64.0732 125 69.3162 124 68.9929 123C68.6695 122 64.0712 121 58 121H58.007Z" fill="#806959"/>
<path d="M40.9976 123.012C40.5256 125.508 48.626 128 57.9999 128H58.0071C67.3811 128 75.4815 125.508 75.0094 123.012M40.9976 123.012C40.9983 123.008 40.9991 123.004 40.9999 123M40.9976 123.012C40.9614 123.2 40.52 125.6 40.9999 128C41.145 128.726 41.847 129.451 43 130.116M40.9976 123.012C40.9991 123.004 40.9999 123 40.9999 123M40.9976 123.012L40.9999 123M40.9999 123C41.5 120.5 48.6111 118 57.9999 118H58.0071C67.396 118 74.5071 120.5 75.0071 123M43 130.116C45.8195 131.741 51.336 133 57.9999 133H58.0071C64.671 133 70.1875 131.741 73.0071 130.116M43 130.116C42.5 130.91 41.8 133.2 43 136C40.6666 141.333 36 138 36 164.5C36 168.09 45.8497 172 58 172H58.0071C70.1573 172 80.007 168.09 80.007 164.5C80.007 138 75.3404 141.333 73.0071 136C74.2071 133.2 73.5071 130.91 73.0071 130.116M75.0094 123.012C75.0087 123.008 75.0079 123.004 75.0071 123M75.0094 123.012C75.0456 123.2 75.487 125.6 75.0071 128C74.862 128.726 74.16 129.451 73.0071 130.116M75.0094 123.012C75.0079 123.004 75.0071 123 75.0071 123M75.0094 123.012L75.0071 123M58.0035 125H58.007H58H58.0035ZM58.0035 125C51.9338 125 46.6909 124 47.0142 123C47.3375 122 51.9358 121 58.007 121H58C64.0712 121 68.6695 122 68.9929 123C69.3162 124 64.0732 125 58.0035 125Z" stroke="#332114" stroke-width="1.5" stroke-linecap="round" stroke-linejoin="round"/>
<path d="M39 161.481C39 164.529 47.5052 168 57.9969 168H58.0031C68.4948 168 77 164.529 77 161.481C77 154.727 76 146 74 143.5C74 144.881 68.8366 147 58 147C47.1634 147 42 144.881 42 143.5C40 146 39 154.73 39 161.481Z" fill="#444444"/>
<path d="M58 147C68.8366 147 74 144.881 74 143.5C74 142.119 68.8366 140 58 140C47.1634 140 42 142.119 42 143.5C42 144.881 47.1634 147 58 147Z" fill="#444444"/>
<path d="M74 143.5C76 146 77 154.727 77 161.481C77 164.529 68.4948 168 58.0031 168H57.9969C47.5052 168 39 164.529 39 161.481C39 154.73 40 146 42 143.5M74 143.5C74 144.881 68.8366 147 58 147C47.1634 147 42 144.881 42 143.5M74 143.5C74 142.119 68.8366 140 58 140C47.1634 140 42 142.119 42 143.5" stroke="#332114" stroke-width="1.5" stroke-linecap="round" stroke-linejoin="round"/>
<path d="M45.7062 144.106C44 147 43.0002 152 43.0001 156M43 160L43.0001 161.5" stroke="#806959" stroke-width="1.5" stroke-linecap="round"/>
</g>
</g>
<defs>
<clipPath id="clip0_9_10">
<rect width="114" height="173" fill="white"/>
</clipPath>
<clipPath id="clip1_9_10">
<rect width="46" height="56" fill="white" transform="translate(35 117)"/>
</clipPath>
</defs>
</svg>
