<svg width="199" height="199" viewBox="0 0 199 199" fill="none" xmlns="http://www.w3.org/2000/svg">
<path d="M149.25 49.7501L121.565 92.5351L114.015 84.9848L149.25 49.7501Z" fill="#4D3626"/>
<path d="M149.25 49.7501L106.465 77.4345L114.015 84.9848L149.25 49.7501Z" fill="#E6D4C2"/>
<path fill-rule="evenodd" clip-rule="evenodd" d="M151.564 47.4357L120.607 95.2786L103.721 78.3929L151.564 47.4357ZM142.268 58.1385L120.273 92.1308L114.275 86.1322L142.268 58.1385ZM140.862 56.7311L112.868 84.725L106.869 78.7263L140.862 56.7311Z" fill="#332114"/>
<path d="M49.7498 149.25L77.4343 106.465L84.9846 114.015L49.7498 149.25Z" fill="#4D3626"/>
<path d="M49.7498 149.25L92.5348 121.566L84.9846 114.015L49.7498 149.25Z" fill="#E6D4C2"/>
<path fill-rule="evenodd" clip-rule="evenodd" d="M47.4355 151.564L78.3927 103.721L95.2784 120.607L47.4355 151.564ZM56.7312 140.861L78.7262 106.869L84.7248 112.868L56.7312 140.861ZM58.138 142.269L86.1319 114.275L92.1306 120.274L58.138 142.269Z" fill="#332114"/>
<path d="M49.7501 49.7501L92.5351 77.4345L84.9848 84.9848L49.7501 49.7501Z" fill="#4D3626"/>
<path d="M49.7501 49.7501L77.4345 92.5351L84.9848 84.9848L49.7501 49.7501Z" fill="#E6D4C2"/>
<path fill-rule="evenodd" clip-rule="evenodd" d="M47.4358 47.4358L95.2786 78.3929L78.3929 95.2786L47.4358 47.4358ZM58.1384 56.7313L92.1308 78.7264L86.1322 84.725L58.1384 56.7313ZM56.7313 58.1384L84.725 86.1322L78.7264 92.1308L56.7313 58.1384Z" fill="#332114"/>
<path d="M149.25 149.25L106.465 121.566L114.015 114.015L149.25 149.25Z" fill="#4D3626"/>
<path d="M149.25 149.25L121.565 106.465L114.015 114.015L149.25 149.25Z" fill="#E6D4C2"/>
<path fill-rule="evenodd" clip-rule="evenodd" d="M151.564 151.564L103.721 120.607L120.607 103.721L151.564 151.564ZM140.861 142.269L106.869 120.274L112.868 114.275L140.861 142.269ZM142.268 140.862L114.275 112.868L120.273 106.869L142.268 140.862Z" fill="#332114"/>
</svg>
