<svg width="61" height="38" viewBox="0 0 61 38" fill="none" xmlns="http://www.w3.org/2000/svg">
<g clip-path="url(#clip0_10_3)">
<path d="M59.5 29.5V35.5C59.5 36.0523 59.0523 36.5 58.5 36.5H19.2571C18.9903 36.5 18.7346 36.3934 18.5468 36.2039L2.1974 19.7039C1.8112 19.3141 1.8112 18.6859 2.1974 18.2961L8.93148 11.5M59.5 29.5H53.5M59.5 29.5V7.91667V2.5C59.5 1.94771 59.0523 1.5 58.5 1.5H19.2571C18.9903 1.5 18.7346 1.60662 18.5468 1.79614L13.3904 7M14.5 11.5H8.93148M24 7H13.3904M13.3904 7L8.93148 11.5" stroke="#664E3D" stroke-width="3" stroke-linecap="round" stroke-linejoin="round"/>
</g>
<defs>
<clipPath id="clip0_10_3">
<rect width="61" height="38" fill="white" transform="matrix(-1 0 0 1 61 0)"/>
</clipPath>
</defs>
</svg>
