<svg width="16" height="35" viewBox="0 0 16 35" fill="none" xmlns="http://www.w3.org/2000/svg">
<g clip-path="url(#clip0_155_160)">
<path fill-rule="evenodd" clip-rule="evenodd" d="M11 15C11 16.3062 10.165 17.4175 9 17.8293V20H13V22H9V31.8999C11.2822 31.4368 13 29.4189 13 27H12L14 24L16 27H15C15 30.1709 12.8916 32.8496 10 33.7102L9.97998 33.7161C9.3584 33.9009 8.9895 34.0105 8 35C7.0105 34.0105 6.6416 33.9009 6.02002 33.7161L6 33.7102C3.1084 32.8496 1 30.1711 1 27H0L2 24L4 27H3C3 29.4189 4.71777 31.4368 7 31.8999V22H3V20H7V17.8293C5.83496 17.4175 5 16.3062 5 15C5 13.3433 6.34326 12 8 12C9.65674 12 11 13.3433 11 15ZM8 16C8.55225 16 9 15.5522 9 15C9 14.4478 8.55225 14 8 14C7.44775 14 7 14.4478 7 15C7 15.5522 7.44775 16 8 16Z" fill="#664E3D"/>
<rect x="7" y="8" width="2" height="2" fill="#664E3D"/>
<rect x="7" y="4" width="2" height="2" fill="#664E3D"/>
<rect x="7" width="2" height="2" fill="#664E3D"/>
</g>
<defs>
<clipPath id="clip0_155_160">
<rect width="16" height="35" fill="white"/>
</clipPath>
</defs>
</svg>
