<svg width="600" height="660" viewBox="0 0 600 660" fill="none" xmlns="http://www.w3.org/2000/svg">
<g clip-path="url(#clip0_131_1625)">
<path d="M0 206.112C0 202.798 2.68629 200.112 6 200.112H32C35.3137 200.112 38 197.426 38 194.112V54.96C38 51.6463 40.6863 48.96 44 48.96H215.5C218.814 48.96 221.5 46.2737 221.5 42.96V22.8C221.5 19.4863 224.186 16.8 227.5 16.8H483C486.314 16.8 489 19.4863 489 22.8V96.828C489 100.142 491.686 102.828 495 102.828H567C570.314 102.828 573 105.514 573 108.828V150.696C573 154.01 575.686 156.696 579 156.696H594C597.314 156.696 600 159.382 600 162.696V287.376C600 290.69 597.314 293.376 594 293.376H574.5C571.186 293.376 568.5 296.062 568.5 299.376V519.732C568.5 523.046 565.814 525.732 562.5 525.732H550.5C547.186 525.732 544.5 528.418 544.5 531.732V654C544.5 657.314 541.814 660 538.5 660H19.8C16.4863 660 13.8 657.314 13.8 654V568.716C13.8 565.402 11.1137 562.716 7.8 562.716H6C2.68629 562.716 0 560.03 0 556.716V206.112Z" fill="#DEC9B6"/>
<path fill-rule="evenodd" clip-rule="evenodd" d="M32 203.112H6C4.34314 203.112 3 204.455 3 206.112V556.716C3 558.373 4.34314 559.716 6 559.716H7.8C12.7706 559.716 16.8 563.745 16.8 568.716V654C16.8 655.657 18.1431 657 19.8 657H538.5C540.157 657 541.5 655.657 541.5 654V531.732C541.5 526.761 545.529 522.732 550.5 522.732H562.5C564.157 522.732 565.5 521.389 565.5 519.732V299.376C565.5 294.405 569.529 290.376 574.5 290.376H594C595.657 290.376 597 289.033 597 287.376V162.696C597 161.039 595.657 159.696 594 159.696H579C574.029 159.696 570 155.667 570 150.696V108.828C570 107.171 568.657 105.828 567 105.828H495C490.029 105.828 486 101.799 486 96.828V22.8C486 21.1431 484.657 19.8 483 19.8H227.5C225.843 19.8 224.5 21.1431 224.5 22.8V42.96C224.5 47.9305 220.471 51.96 215.5 51.96H44C42.3431 51.96 41 53.3031 41 54.96V194.112C41 199.083 36.9706 203.112 32 203.112ZM6 200.112C2.68629 200.112 0 202.798 0 206.112V556.716C0 560.03 2.68629 562.716 6 562.716H7.8C11.1137 562.716 13.8 565.402 13.8 568.716V654C13.8 657.314 16.4863 660 19.8 660H538.5C541.814 660 544.5 657.314 544.5 654V531.732C544.5 528.418 547.186 525.732 550.5 525.732H562.5C565.814 525.732 568.5 523.046 568.5 519.732V299.376C568.5 296.062 571.186 293.376 574.5 293.376H594C597.314 293.376 600 290.69 600 287.376V162.696C600 159.382 597.314 156.696 594 156.696H579C575.686 156.696 573 154.01 573 150.696V108.828C573 105.514 570.314 102.828 567 102.828H495C491.686 102.828 489 100.142 489 96.828V22.8C489 19.4863 486.314 16.8 483 16.8H227.5C224.186 16.8 221.5 19.4863 221.5 22.8V42.96C221.5 46.2737 218.814 48.96 215.5 48.96H44C40.6863 48.96 38 51.6463 38 54.96V194.112C38 197.426 35.3137 200.112 32 200.112H6Z" fill="#806959"/>
<path d="M182.915 38.661C184.818 40.1693 186.395 42.5297 187.125 43.8635C187.309 44.2002 187.404 44.5543 187.426 44.918C191.337 43.8594 196.635 36.1224 193.679 30.8832C190.526 25.2944 182.724 26.7798 180.034 28.2407C182.397 28.2049 190.04 28.5648 189.952 32.4613C189.865 36.3579 185.224 38.218 182.915 38.661Z" fill="#DEC9B6"/>
<path fill-rule="evenodd" clip-rule="evenodd" d="M168.636 48.397L168.572 48.4074C163.935 50.2251 163.207 52.0676 164.792 54.6275C166.068 56.6881 168.234 58.5294 169.477 59.4112C169.791 59.6338 170.133 59.7699 170.494 59.835C172.694 60.2322 175.163 59.3267 176.493 57.9595C177.713 58.6614 177.621 59.6635 179.468 61.2985C179.626 61.4385 179.798 61.5716 179.98 61.6993C182.448 61.5223 185.234 61.6403 186.645 62.4422C187.97 63.1947 189.798 63.5457 191.54 63.4952C191.706 62.9602 191.767 62.3758 191.706 61.7705C191.449 59.2405 191.642 59.3945 190.238 58.971C189.234 57.844 188.83 55.4244 187.804 53.954C186.395 51.9341 185.383 51.9035 184.83 50.615C186.355 49.4667 187.557 47.1384 187.426 44.918C187.404 44.5543 187.309 44.2002 187.125 43.8635C186.395 42.5297 184.818 40.1693 182.915 38.661C180.551 36.7872 178.624 37.2841 176.251 41.6424L176.232 41.705C174.959 46.0845 173.428 47.6253 168.636 48.397ZM176.099 53.873C176.119 55.0174 176.046 56.3996 174.969 56.8989C173.129 56.9803 169.572 55.0053 171.605 54.6597C173.448 54.3465 175.571 54.4332 176.099 53.873ZM181.182 49.3947C182.322 49.5531 183.71 49.6477 184.338 48.6449C184.642 46.8372 183.099 43.0876 182.509 45.0536C181.974 46.8352 181.805 48.9417 181.182 49.3947ZM185.253 59.4422C184.829 59.8163 185.976 61.3174 186.603 62.0212L186.716 61.0844L187.665 61.086C187.038 60.3822 185.678 59.0681 185.253 59.4422Z" fill="#DEC9B6"/>
<path d="M184.338 48.6449C183.71 49.6477 182.322 49.5531 181.182 49.3947C181.805 48.9417 181.974 46.8352 182.509 45.0536C183.099 43.0876 184.642 46.8372 184.338 48.6449Z" fill="#DEC9B6"/>
<path d="M174.969 56.8989C176.046 56.3996 176.119 55.0174 176.099 53.873C175.571 54.4332 173.448 54.3465 171.605 54.6597C169.572 55.0053 173.129 56.9803 174.969 56.8989Z" fill="#DEC9B6"/>
<path d="M169.477 59.4112C168.234 58.5294 166.068 56.6881 164.792 54.6275C164.071 56.8539 161.655 61.2107 157.755 60.8272C153.855 60.4437 154.417 52.8548 154.738 50.5261C153.189 52.6805 151.157 58.6405 154.058 62.6511C158.964 63.029 165.07 62.7996 166.791 59.6214C167.577 60.0122 168.663 60.5174 169.816 60.9969C170.107 60.6097 170.336 60.2194 170.494 59.835C170.133 59.7699 169.791 59.6338 169.477 59.4112Z" fill="#DEC9B6"/>
<path fill-rule="evenodd" clip-rule="evenodd" d="M185.332 27.8174C185.603 27.8736 185.873 27.9361 186.139 28.0055C187.289 28.3055 188.446 28.7541 189.327 29.4447C190.235 30.1569 190.882 31.1595 190.852 32.4816C190.799 34.8297 189.366 36.5011 187.778 37.597C186.798 38.2733 185.713 38.7664 184.732 39.1008C186.18 40.5883 187.321 42.3471 187.915 43.4313C187.964 43.5207 188.008 43.6111 188.048 43.7022C188.618 43.4023 189.232 42.9524 189.847 42.3646C190.775 41.4773 191.654 40.3251 192.333 39.0465C193.709 36.4519 194.157 33.5613 192.895 31.3254C191.521 28.8889 189.128 27.9515 186.634 27.817C186.196 27.7934 185.76 27.7951 185.332 27.8174ZM188.329 45.5574C189.282 45.1624 190.229 44.4887 191.09 43.6659C192.163 42.6411 193.157 41.333 193.923 39.8902C195.434 37.0418 196.158 33.4443 194.463 30.4409C192.684 27.2887 189.599 26.1743 186.731 26.0196C183.888 25.8662 181.099 26.638 179.604 27.4498C179.24 27.6475 179.058 28.0682 179.163 28.4689C179.268 28.8696 179.633 29.1469 180.048 29.1406C181.195 29.1232 183.604 29.2044 185.685 29.7473C186.73 30.0198 187.615 30.3896 188.217 30.8612C188.791 31.3113 189.067 31.8149 189.053 32.4411C189.018 33.9896 188.087 35.1965 186.756 36.1156C185.573 36.9318 184.171 37.4464 183.128 37.6947C181.931 36.8418 180.628 36.4219 179.249 36.9805C177.861 37.5422 176.659 39.0118 175.46 41.212C175.429 41.2689 175.405 41.329 175.386 41.3912L175.368 41.4537L175.368 41.4537C174.745 43.5993 174.101 44.8787 173.151 45.7357C172.203 46.5905 170.831 47.1321 168.493 47.5085L168.493 47.5085L168.429 47.5189C168.365 47.5291 168.303 47.5461 168.243 47.5695C165.905 48.4864 164.292 49.4961 163.563 50.7999C162.837 52.0986 163.1 53.4389 163.806 54.7228C163.432 55.7211 162.75 57.0392 161.795 58.1056C160.719 59.3079 159.4 60.0846 157.843 59.9315C157.21 59.8693 156.74 59.5327 156.361 58.9135C155.963 58.2641 155.701 57.3472 155.556 56.2838C155.265 54.1656 155.474 51.7794 155.63 50.6489C155.686 50.2392 155.456 49.8438 155.072 49.6903C154.688 49.5369 154.249 49.665 154.008 50.0008C153.141 51.2057 152.198 53.3719 151.84 55.7591C151.561 57.6167 151.625 59.6979 152.436 61.5965C152.29 61.5807 152.145 61.5646 152.003 61.5481C151.51 61.491 151.063 61.845 151.006 62.3388C150.949 62.8326 151.303 63.2791 151.797 63.3362C152.484 63.4157 153.222 63.4894 153.989 63.5485C156.471 63.7396 159.31 63.7827 161.772 63.3566C163.867 62.9943 165.902 62.2558 167.1 60.7721C167.793 61.1013 168.614 61.4715 169.47 61.8278C170.642 62.3157 171.905 62.7873 173.01 63.0898C173.561 63.2407 174.097 63.3561 174.575 63.4058C175.027 63.4527 175.544 63.4548 175.987 63.2784C176.617 63.0279 178.19 62.7301 180.045 62.597C181.245 62.5109 182.508 62.4979 183.628 62.5999C184.773 62.7043 185.666 62.9207 186.201 63.2247C187.707 64.0804 189.711 64.4487 191.566 64.3948C193.182 64.3479 194.823 63.9767 196.006 63.1923C196.708 62.7275 197.194 62.6899 197.474 62.7325C197.777 62.7785 197.942 62.9319 197.982 62.9841C198.281 63.3809 198.845 63.46 199.242 63.1607C199.639 62.8615 199.718 62.2971 199.419 61.9003C199.103 61.4823 198.524 61.0715 197.745 60.953C196.944 60.8311 196.013 61.0286 195.012 61.6921C194.425 62.0809 193.588 62.3623 192.622 62.5016C192.636 62.2315 192.629 61.9568 192.601 61.6796C192.574 61.4093 192.55 61.1558 192.529 60.9271C192.504 60.6521 192.481 60.4127 192.46 60.2227C192.42 59.8809 192.366 59.5086 192.213 59.1904C192.022 58.7941 191.726 58.5643 191.401 58.4142C191.217 58.3292 190.99 58.2568 190.765 58.189C190.459 57.7605 190.192 57.1127 189.87 56.2703C189.848 56.2128 189.826 56.1544 189.804 56.0953C189.478 55.2397 189.095 54.2308 188.542 53.439C187.771 52.3333 187.096 51.7611 186.577 51.3229C186.326 51.1103 186.142 50.9515 185.997 50.7918C187.286 49.5191 188.239 47.552 188.329 45.5574ZM190.81 62.5925C190.835 62.3572 190.836 62.1126 190.81 61.8615C190.778 61.5438 190.754 61.2833 190.734 61.06C190.711 60.8125 190.692 60.6108 190.671 60.4279C190.653 60.2646 190.635 60.1524 190.618 60.0715C190.615 60.0565 190.612 60.0435 190.609 60.0322C190.518 59.9948 190.387 59.9553 190.138 59.8807C190.09 59.8661 190.037 59.8502 189.978 59.8326C189.819 59.7846 189.677 59.6936 189.566 59.5696C188.933 58.8583 188.527 57.7984 188.189 56.9122C188.176 56.8795 188.164 56.8469 188.151 56.8144C187.797 55.886 187.487 55.0718 187.066 54.469C186.428 53.5549 185.893 53.1018 185.415 52.6975C185.403 52.6874 185.391 52.6772 185.379 52.667C184.894 52.2572 184.364 51.8091 184.003 50.9703C183.859 50.6347 183.933 50.2506 184.179 49.9933C183.826 50.1877 183.444 50.2936 183.081 50.346C182.376 50.4475 181.635 50.3662 181.058 50.2861C180.695 50.2356 180.398 49.9694 180.309 49.6133C180.223 49.2691 180.347 48.9077 180.623 48.689C180.629 48.6792 180.673 48.6178 180.738 48.4511C180.825 48.2242 180.91 47.9142 181.002 47.5188C181.051 47.3053 181.103 47.066 181.158 46.8114C181.293 46.1799 181.449 45.4545 181.647 44.7949C181.737 44.4951 181.89 44.1321 182.192 43.8792C182.359 43.7393 182.574 43.6327 182.826 43.6053C183.074 43.5785 183.293 43.6349 183.465 43.7146C183.782 43.8613 184.007 44.1171 184.153 44.3176C184.314 44.5366 184.455 44.7937 184.577 45.0585C184.821 45.5893 185.024 46.2358 185.147 46.8738C185.269 47.5009 185.327 48.193 185.226 48.7938C185.21 48.8903 185.178 48.9834 185.132 49.0694C186.007 47.9897 186.614 46.4403 186.527 44.9711C186.513 44.7321 186.452 44.5087 186.336 44.2957C185.632 43.0103 184.125 40.768 182.356 39.3663C181.283 38.5153 180.558 38.3922 179.924 38.6489C179.174 38.9527 178.241 39.8897 177.087 41.9882C176.44 44.2063 175.682 45.8767 174.357 47.0722C173.029 48.2704 171.25 48.885 168.811 49.2805C166.575 50.1674 165.527 50.9758 165.134 51.6784C164.805 52.2671 164.837 52.9912 165.557 54.1537C166.743 56.068 168.799 57.8268 169.998 58.6771C170.198 58.8186 170.415 58.9062 170.654 58.9493C172.393 59.2632 174.361 58.6167 175.546 57.6132C175.483 57.6494 175.417 57.6835 175.348 57.7154C175.242 57.7648 175.127 57.7928 175.009 57.798C174.4 57.825 173.718 57.6843 173.107 57.4893C172.486 57.2908 171.866 57.0125 171.367 56.7081C171.117 56.5563 170.878 56.3861 170.679 56.2015C170.497 56.0329 170.268 55.7794 170.159 55.4472C170.1 55.2664 170.07 55.0405 170.127 54.796C170.185 54.547 170.319 54.3466 170.479 54.1984C170.767 53.9312 171.146 53.8248 171.455 53.7724C172.137 53.6566 172.878 53.5903 173.525 53.5325C173.786 53.5091 174.031 53.4872 174.251 53.464C174.657 53.421 174.977 53.3746 175.215 53.3151C175.392 53.2708 175.459 53.2341 175.469 53.2302C175.72 52.984 176.093 52.906 176.423 53.0334C176.764 53.1653 176.992 53.4908 176.999 53.8568C177.009 54.4356 177.001 55.1796 176.814 55.8646C176.695 56.3002 176.492 56.7514 176.152 57.1267C176.404 57.0237 176.696 57.0373 176.943 57.1795C177.735 57.6359 178.118 58.2133 178.47 58.7425L178.495 58.7812C178.841 59.3018 179.229 59.8846 180.064 60.6247C180.123 60.6765 180.185 60.7281 180.25 60.7796C181.421 60.7088 182.656 60.704 183.791 60.8074C184.086 60.8342 184.38 60.8689 184.669 60.913C184.533 60.6741 184.405 60.4098 184.331 60.1485C184.26 59.898 184.126 59.236 184.659 58.7669C185.188 58.3008 185.826 58.5113 186.066 58.6107C186.376 58.7392 186.681 58.9497 186.939 59.1517C187.468 59.5663 188.004 60.1131 188.337 60.4874C188.573 60.7524 188.632 61.1313 188.486 61.455C188.354 61.7495 188.075 61.9483 187.758 61.9812C188.642 62.3407 189.715 62.5511 190.81 62.5925ZM186.054 59.6188C186.055 59.6193 186.057 59.6273 186.059 59.6414C186.055 59.6254 186.054 59.6184 186.054 59.6188ZM185.336 60.2596C185.336 60.2589 185.343 60.2606 185.359 60.2666C185.345 60.2633 185.337 60.2603 185.336 60.2596ZM177.916 61.0146C177.502 60.5388 177.227 60.1254 176.996 59.777C176.812 59.4995 176.674 59.2966 176.53 59.1333C175.299 60.1025 173.58 60.7604 171.845 60.824C172.42 61.032 172.976 61.2143 173.485 61.3537C173.986 61.4908 174.418 61.5797 174.761 61.6154C174.932 61.6331 175.067 61.6361 175.169 61.6295C175.219 61.6263 175.257 61.621 175.284 61.6157C175.31 61.6104 175.322 61.6059 175.322 61.6059C175.893 61.3789 176.827 61.1709 177.916 61.0146ZM167.413 58.9247C166.626 58.2422 165.766 57.4017 165.01 56.4711C164.557 57.4017 163.932 58.4176 163.136 59.3064C161.85 60.7433 160.011 61.9533 157.667 61.7229C156.35 61.5933 155.428 60.8375 154.826 59.8531C154.242 58.8991 153.933 57.7012 153.772 56.5284C153.733 56.2442 153.702 55.9569 153.678 55.6691C153.657 55.7872 153.638 55.9063 153.62 56.0261C153.321 58.0204 153.499 60.0966 154.559 61.7852C156.865 61.9427 159.351 61.9488 161.466 61.583C163.766 61.185 165.348 60.3961 166 59.1929C166.23 58.7665 166.758 58.5996 167.192 58.8155C167.263 58.851 167.337 58.8874 167.413 58.9247ZM183.122 46.2618C183.057 46.5422 182.996 46.824 182.936 47.1054C182.877 47.3798 182.818 47.6539 182.755 47.9259C182.703 48.1493 182.648 48.3734 182.586 48.5878C182.668 48.5831 182.747 48.5755 182.824 48.5644C183.141 48.5188 183.34 48.4268 183.473 48.2961C183.49 48.008 183.461 47.6337 183.38 47.2156C183.316 46.8853 183.226 46.557 183.122 46.2618ZM172.752 55.4138C173.03 55.5485 173.34 55.6739 173.655 55.7747C174.066 55.9058 174.439 55.9804 174.731 55.9975C174.879 55.8826 174.994 55.697 175.077 55.3911C175.097 55.3189 175.114 55.2437 175.128 55.1657C174.905 55.2013 174.672 55.2295 174.44 55.254C174.162 55.2835 173.881 55.3084 173.6 55.3335C173.318 55.3587 173.034 55.3839 172.752 55.4138Z" fill="#806959"/>
<path fill-rule="evenodd" clip-rule="evenodd" d="M559.861 177.782C559.519 178.245 559.191 178.632 558.833 178.916C558.47 179.204 558.256 179.262 558.133 179.274C557.998 179.287 557.836 179.259 557.522 179.139C557.428 179.103 557.324 179.06 557.211 179.013C556.584 178.75 555.656 178.363 554.329 178.363C553.622 178.363 553.094 178.414 552.672 178.548C552.198 178.698 551.92 178.933 551.701 179.153C551.656 179.199 551.617 179.24 551.581 179.277C551.458 179.403 551.374 179.491 551.216 179.602C551.018 179.742 550.685 179.926 550.068 180.13C549.225 180.408 548.595 180.647 548.13 180.858C547.682 181.061 547.313 181.272 547.057 181.52C546.757 181.811 546.56 182.214 546.646 182.687C546.668 182.808 546.705 182.913 546.741 182.994C546.341 183.253 545.466 183.663 543.669 184.286C543.265 184.426 542.892 184.601 542.612 184.842C542.314 185.097 542.035 185.513 542.112 186.054C542.178 186.519 542.482 186.837 542.703 187.021C542.943 187.222 543.239 187.39 543.539 187.532C543.951 187.728 544.449 187.91 544.985 188.073C544.816 188.312 544.732 188.577 544.717 188.843C544.689 189.324 544.9 189.784 545.012 190.029C545.018 190.042 545.024 190.054 545.029 190.066C545.178 190.394 545.256 190.569 545.279 190.728C545.369 191.351 545.809 191.763 546.171 192.012C546.553 192.275 547.023 192.476 547.482 192.632C548.218 192.882 549.049 193.057 549.74 193.165C550.23 193.957 551.1 194.223 551.805 194.31C552.239 194.363 552.687 194.361 553.082 194.35C553.244 194.345 553.391 194.339 553.528 194.334C553.581 194.332 553.633 194.33 553.684 194.328C553.905 194.613 554.175 194.905 554.456 195.185C554.907 195.634 555.439 196.104 555.977 196.54C556.516 196.976 557.07 197.387 557.568 197.716C558.042 198.029 558.535 198.317 558.929 198.447C559.148 198.519 559.49 198.609 559.861 198.706C560.005 198.744 560.153 198.783 560.3 198.823C560.86 198.973 561.471 199.148 562.019 199.35C562.589 199.56 562.995 199.767 563.208 199.947C563.213 199.951 563.218 199.955 563.222 199.959C562.846 200.752 562.549 201.769 562.234 202.924C562.166 203.174 562.096 203.432 562.024 203.699C561.735 204.773 561.407 205.992 560.974 207.376C560.913 207.572 560.921 207.782 560.996 207.973C561.744 209.879 562.013 211.168 562.105 212.083C562.169 212.734 562.149 213.163 562.128 213.581C562.119 213.782 562.109 213.98 562.109 214.2C562.109 214.469 562.23 214.725 562.438 214.895C562.646 215.066 562.92 215.135 563.184 215.083C563.445 215.031 563.861 215.013 564.323 215.024C564.769 215.033 565.195 215.067 565.442 215.095C565.54 215.105 565.638 215.1 565.734 215.079C566.867 214.83 568.503 214.974 569.192 215.088C569.541 215.146 569.891 214.993 570.087 214.699C570.283 214.404 570.289 214.022 570.101 213.722C569.77 213.194 569.329 212.736 568.924 212.329C568.861 212.265 568.799 212.203 568.737 212.141C568.382 211.786 568.047 211.451 567.736 211.071C567.045 210.224 566.5 209.184 566.562 207.51C566.63 205.71 567.187 203.653 567.796 202.033C568.098 201.228 568.404 200.556 568.65 200.102C568.757 199.905 568.842 199.767 568.902 199.683C569.058 199.592 569.188 199.455 569.268 199.283C570.872 199.001 573.193 197.96 575.241 195.469C575.34 195.446 575.448 195.417 575.556 195.387C575.866 195.299 576.255 195.176 576.627 195.058C576.691 195.037 576.756 195.016 576.819 194.996C577.128 194.897 577.418 194.805 577.652 194.734C577.753 194.704 577.836 194.68 577.901 194.663C579.103 194.927 580.307 194.448 581.167 193.899C581.643 193.596 582.067 193.239 582.401 192.883C582.717 192.546 583.018 192.14 583.155 191.728C583.337 191.175 583.339 190.618 583.295 190.182C584.388 190.504 585.363 190.286 586.12 189.871C586.79 189.505 587.299 188.984 587.623 188.525C587.899 188.348 588.168 188.144 588.385 187.914C588.626 187.656 588.944 187.215 588.895 186.643C588.842 186.02 588.397 185.628 587.98 185.404C587.558 185.177 586.992 185.018 586.303 184.904C584.682 184.637 583.71 184.442 582.967 184.248C583.009 184.217 583.051 184.185 583.091 184.151C583.351 183.927 583.661 183.504 583.547 182.923C583.452 182.446 583.105 182.11 582.808 181.885C582.481 181.637 582.034 181.389 581.465 181.131C579.305 180.15 577.836 179.535 576.734 179.244C575.598 178.944 574.763 178.963 573.918 179.31C573.895 179.31 573.82 179.31 573.67 179.283C573.431 179.24 573.11 179.149 572.711 179.007C571.918 178.725 570.93 178.284 569.885 177.784C569.05 177.385 568.166 176.941 567.338 176.525C566.157 175.932 565.089 175.396 564.437 175.127C563.678 174.813 562.961 174.832 562.314 175.138C561.721 175.417 561.266 175.902 560.904 176.354C560.686 176.628 560.449 176.962 560.226 177.275C560.098 177.456 559.974 177.63 559.861 177.782ZM581.016 183.603C581.016 183.603 581.018 183.604 581.024 183.607C581.019 183.604 581.016 183.603 581.016 183.603ZM583.157 189.343C583.157 189.343 583.157 189.347 583.158 189.356C583.158 189.348 583.158 189.343 583.157 189.343ZM572.404 195.789C570.761 197.154 569.2 197.549 568.431 197.567C567.97 197.577 567.591 197.935 567.555 198.395C567.552 198.428 567.55 198.46 567.548 198.491C567.532 198.51 567.517 198.53 567.503 198.548C567.36 198.734 567.212 198.978 567.067 199.245C566.773 199.788 566.435 200.538 566.111 201.4C565.467 203.113 564.841 205.373 564.763 207.443C564.681 209.639 565.431 211.095 566.342 212.209C566.62 212.549 566.915 212.86 567.193 213.142C566.627 213.145 566.036 213.186 565.495 213.291C565.2 213.262 564.79 213.233 564.362 213.224C564.228 213.221 564.087 213.22 563.944 213.222C563.951 212.846 563.945 212.4 563.896 211.905C563.791 210.849 563.498 209.486 562.786 207.612C563.185 206.313 563.497 205.154 563.766 204.154C563.837 203.891 563.905 203.639 563.97 203.398C564.313 202.145 564.583 201.253 564.897 200.631C565.092 200.244 565.127 199.821 564.985 199.417C564.856 199.048 564.606 198.771 564.369 198.571C563.904 198.179 563.248 197.885 562.643 197.661C562.015 197.429 561.338 197.237 560.767 197.084C560.574 197.032 560.399 196.986 560.242 196.945C559.908 196.857 559.656 196.791 559.494 196.738C559.346 196.689 559.025 196.521 558.561 196.214C558.12 195.923 557.612 195.548 557.111 195.141C556.755 194.854 556.409 194.555 556.096 194.265C556.599 194.28 557.204 194.281 557.807 194.179C557.961 194.54 558.175 194.883 558.414 195.178C558.912 195.792 559.671 196.385 560.604 196.517C561.084 196.585 561.916 196.607 562.689 196.627C562.838 196.631 562.985 196.635 563.127 196.639C563.59 196.653 564.016 196.669 564.353 196.695C564.522 196.708 564.653 196.723 564.747 196.738C564.789 196.745 564.814 196.75 564.826 196.753C565.221 196.922 565.685 196.787 565.927 196.426C566.178 196.05 566.112 195.547 565.772 195.248C565.562 195.064 565.263 194.77 564.96 194.416C565.294 194.503 565.622 194.542 565.946 194.54C565.985 194.597 566.024 194.65 566.061 194.699C566.246 194.945 566.471 195.196 566.684 195.426C566.802 195.553 566.914 195.672 567.018 195.782C567.329 196.111 567.571 196.368 567.708 196.57C567.897 196.847 568.224 196.996 568.557 196.957C568.579 196.954 568.624 196.953 568.689 196.951C568.998 196.941 569.755 196.918 570.53 196.688C571.099 196.52 571.727 196.242 572.404 195.789ZM567.902 194.091C568.052 194.028 568.199 193.962 568.341 193.896C568.561 193.793 568.76 193.695 568.954 193.6C569.256 193.452 569.543 193.31 569.873 193.169C569.91 193.154 569.945 193.136 569.979 193.115C570.214 192.976 570.51 192.956 571.046 193.213C571.361 193.364 571.683 193.574 572.029 193.823C571.226 194.492 570.546 194.806 570.018 194.962C569.512 195.112 569.189 195.125 568.866 195.136C568.672 194.91 568.449 194.674 568.246 194.46C568.161 194.369 568.079 194.282 568.004 194.202C567.969 194.164 567.935 194.127 567.902 194.091ZM562.159 193.201C562.342 193.796 562.67 194.361 563.004 194.835C562.901 194.832 562.798 194.829 562.697 194.826C561.915 194.805 561.223 194.786 560.856 194.735C560.524 194.687 560.137 194.444 559.812 194.044C559.655 193.85 559.546 193.662 559.474 193.5C559.62 193.389 559.758 193.262 559.886 193.117C559.987 193.003 560.236 192.874 560.805 192.911C561.218 192.937 561.689 193.047 562.159 193.201ZM554.004 192.518C553.811 192.521 553.602 192.529 553.4 192.537C553.271 192.542 553.145 192.547 553.03 192.551C552.657 192.562 552.319 192.56 552.024 192.523C551.416 192.449 551.271 192.278 551.212 192.081C551.109 191.74 550.814 191.492 550.461 191.449C549.772 191.363 548.829 191.189 548.061 190.928C547.674 190.796 547.379 190.658 547.19 190.528C547.11 190.473 547.07 190.434 547.051 190.414C546.982 190.006 546.808 189.628 546.697 189.385C546.686 189.362 546.676 189.341 546.667 189.321C546.617 189.211 546.584 189.13 546.561 189.073C546.817 188.965 547.324 188.843 548.261 188.759C548.715 188.718 549.067 188.344 549.08 187.888C549.093 187.432 548.763 187.039 548.312 186.972C546.967 186.774 545.343 186.376 544.388 185.942C546.301 185.273 547.385 184.776 547.959 184.338C548.258 184.11 548.561 183.793 548.646 183.346C548.7 183.061 548.646 182.817 548.58 182.641C548.657 182.6 548.753 182.552 548.874 182.497C549.256 182.323 549.818 182.108 550.633 181.839C551.372 181.595 551.876 181.34 552.254 181.073C552.565 180.853 552.782 180.627 552.912 180.49C552.937 180.464 552.959 180.441 552.978 180.422C553.076 180.323 553.114 180.296 553.216 180.264C553.371 180.214 553.679 180.163 554.329 180.163C555.271 180.163 555.857 180.404 556.471 180.656C556.604 180.711 556.738 180.766 556.877 180.82C557.264 180.968 557.746 181.12 558.306 181.065C558.878 181.01 559.411 180.755 559.951 180.326C560.498 179.893 560.938 179.352 561.308 178.854C561.473 178.63 561.616 178.429 561.749 178.241C561.941 177.969 562.114 177.724 562.31 177.478C562.627 177.082 562.872 176.864 563.082 176.765C563.238 176.692 563.425 176.656 563.751 176.791C564.356 177.041 565.305 177.518 566.412 178.075C567.247 178.495 568.171 178.96 569.108 179.408C570.166 179.914 571.223 180.388 572.108 180.703C572.549 180.86 572.975 180.987 573.352 181.055C573.686 181.115 574.156 181.164 574.573 180.987C574.977 180.815 575.397 180.752 576.274 180.984C577.206 181.23 578.54 181.779 580.72 182.77C580.936 182.868 581.116 182.957 581.265 183.037C581.214 183.052 581.161 183.067 581.107 183.083C581.074 183.092 581.04 183.102 581.005 183.112C580.835 183.16 580.644 183.214 580.491 183.267C580.399 183.299 580.278 183.345 580.163 183.409L580.16 183.411C580.09 183.449 579.801 183.609 579.669 183.955C579.584 184.177 579.583 184.424 579.673 184.651C579.752 184.851 579.879 184.98 579.963 185.051C580.122 185.185 580.303 185.26 580.417 185.302C581.925 185.862 582.705 186.135 586.009 186.68C586.384 186.742 586.656 186.81 586.849 186.874C586.759 186.941 586.651 187.013 586.523 187.089C586.399 187.163 586.295 187.265 586.219 187.388C586.045 187.667 585.704 188.047 585.256 188.292C584.832 188.524 584.329 188.63 583.736 188.434C583.449 188.339 583.194 188.266 582.972 188.224C582.771 188.185 582.498 188.151 582.224 188.217C581.874 188.3 581.57 188.539 581.433 188.913C581.331 189.191 581.357 189.46 581.373 189.588C581.395 189.774 581.425 189.935 581.453 190.083C581.524 190.461 581.58 190.755 581.445 191.164C581.43 191.21 581.336 191.388 581.089 191.652C580.859 191.896 580.551 192.157 580.2 192.381C579.459 192.853 578.729 193.04 578.194 192.881C578.045 192.836 577.918 192.841 577.88 192.842C577.823 192.844 577.774 192.851 577.74 192.856C577.672 192.866 577.603 192.882 577.546 192.896C577.427 192.924 577.283 192.965 577.134 193.01C576.883 193.086 576.574 193.185 576.265 193.283C576.203 193.303 576.141 193.323 576.079 193.343C575.703 193.463 575.343 193.576 575.068 193.654C575.018 193.668 574.974 193.68 574.934 193.69C574.643 193.516 574.326 193.288 573.971 193.022C573.898 192.968 573.822 192.911 573.745 192.853C573.17 192.419 572.496 191.912 571.825 191.59C571.053 191.22 570.076 190.994 569.115 191.536C568.769 191.686 568.412 191.861 568.088 192.019C567.905 192.109 567.733 192.193 567.58 192.264C567.1 192.488 566.7 192.642 566.316 192.707C565.812 192.792 565.271 192.736 564.573 192.297C564.557 192.287 564.541 192.277 564.525 192.268C564.18 192.081 563.738 191.871 563.252 191.682C562.559 191.413 561.722 191.166 560.921 191.114C560.146 191.064 559.188 191.188 558.537 191.925C558.425 192.052 558.281 192.154 558.097 192.236C557.596 192.459 556.898 192.491 556.085 192.463C555.959 192.459 555.825 192.453 555.689 192.448C555.432 192.436 555.169 192.425 554.945 192.424C554.673 192.422 554.326 192.431 554.004 192.518ZM587.201 187.035C587.201 187.035 587.2 187.034 587.197 187.032C587.2 187.034 587.201 187.035 587.201 187.035ZM581.841 183.426C581.841 183.426 581.841 183.425 581.839 183.423C581.841 183.425 581.841 183.426 581.841 183.426ZM548.385 182.26C548.385 182.26 548.385 182.261 548.386 182.263C548.385 182.261 548.385 182.26 548.385 182.26ZM543.816 185.601C543.815 185.601 543.818 185.604 543.823 185.609C543.819 185.604 543.816 185.601 543.816 185.601ZM569.08 198.15C569.08 198.149 569.082 198.151 569.086 198.155C569.082 198.152 569.081 198.15 569.08 198.15ZM567.86 199.475C567.864 199.478 567.866 199.48 567.865 199.479L567.864 199.479L567.864 199.478L567.863 199.478L567.86 199.475ZM546.95 182.835C546.95 182.835 546.949 182.836 546.947 182.838C546.949 182.836 546.95 182.835 546.95 182.835ZM546.901 183.291C546.904 183.297 546.905 183.301 546.906 183.301C546.906 183.301 546.904 183.298 546.901 183.291Z" fill="#806959"/>
<path d="M527.194 584.4C528.67 582.022 535.801 579 531.375 570.626C528.89 565.925 528.506 565.132 527.932 565.214C527.821 564.956 529.166 563.466 529.11 562.755C527.324 562.713 522.965 561.609 519.817 557.527C519.567 557.657 519.321 557.763 519.079 557.835C516.62 558.573 513.4 554.392 511.948 556.359C511.162 557.425 512.194 551.44 509.243 552.424C506.882 553.211 504.981 552.752 504.325 551.686C502.685 550.702 500.292 548.587 503.833 547.997C508.259 547.259 509.735 544.307 511.702 543.569C513.669 542.831 504.108 541.631 510.01 538.925C515.912 536.22 517.634 535.728 519.355 536.466C521.075 537.203 526.448 534.964 529.401 533.733L529.408 533.73C532.359 532.5 538.26 534.96 540.719 536.928C543.179 538.896 542.116 537.036 545.805 537.036C549.494 537.036 550.723 538.758 554.412 539.988C558.1 541.217 561.622 539.634 557.687 541.109C553.753 542.585 557.687 543.077 562.605 544.799C566.54 546.176 558.206 548.609 554.353 549.183C559.763 549.675 557.933 554.594 557.687 556.316C557.491 557.694 554.982 554.146 553.015 554.392C552.425 556.359 549.654 555.868 547.851 555.868C546.867 557.589 540.228 560.049 538.752 560.541C537.277 561.033 533.342 563.247 534.326 565.214C535.309 567.182 535.925 570.347 537.4 573.6C539.026 577.184 535.801 582.924 535.801 584.4C534.818 584.203 533.096 584.318 532.359 584.4C530.588 584.006 528.178 584.236 527.194 584.4Z" fill="#DEC9B6"/>
<path fill-rule="evenodd" clip-rule="evenodd" d="M535.429 533.775C537.659 534.508 539.851 535.66 541.182 536.725C541.797 537.217 542.082 537.376 542.22 537.422C542.233 537.426 542.242 537.429 542.248 537.43C542.26 537.427 542.288 537.418 542.342 537.395C542.372 537.381 542.417 537.36 542.474 537.332C542.676 537.234 543.029 537.063 543.43 536.937C543.986 536.763 544.704 536.636 545.705 536.636C547.721 536.636 549.084 537.115 550.394 537.738C550.749 537.906 551.09 538.079 551.434 538.254C552.358 538.723 553.302 539.202 554.596 539.634C556.265 540.19 557.919 540.115 558.747 540.058C558.779 540.056 558.813 540.054 558.847 540.051C558.997 540.041 559.16 540.029 559.262 540.03C559.293 540.031 559.378 540.032 559.475 540.051C559.517 540.06 559.632 540.085 559.759 540.158C559.887 540.232 560.169 540.444 560.209 540.854C560.246 541.219 560.057 541.462 559.997 541.533C559.921 541.622 559.845 541.677 559.812 541.7C559.74 541.75 559.671 541.783 559.639 541.798C559.51 541.859 559.29 541.94 559.038 542.033C558.986 542.051 558.932 542.071 558.874 542.093C558.62 542.186 558.3 542.303 557.903 542.452C557.699 542.529 557.524 542.6 557.377 542.665C557.859 542.863 558.53 543.081 559.376 543.344C559.524 543.39 559.675 543.437 559.831 543.486C560.722 543.762 561.74 544.077 562.803 544.449C563.334 544.635 563.863 544.901 564.173 545.339C564.347 545.585 564.449 545.882 564.434 546.207C564.419 546.519 564.301 546.782 564.165 546.985C563.91 547.367 563.501 547.671 563.104 547.91C562.687 548.163 562.184 548.402 561.641 548.625C560.443 549.117 558.945 549.574 557.51 549.932C557.58 549.99 557.647 550.05 557.711 550.111C558.489 550.851 558.822 551.782 558.934 552.677C559.044 553.56 558.945 554.453 558.818 555.196C558.755 555.564 558.682 555.91 558.62 556.205L558.617 556.22C558.552 556.53 558.504 556.763 558.478 556.943C558.437 557.233 558.284 557.746 557.735 557.958C557.278 558.135 556.855 557.963 556.675 557.88C556.304 557.709 555.86 557.37 555.483 557.081C555.444 557.051 555.406 557.022 555.369 556.994C554.916 556.648 554.465 556.313 554.021 556.075C553.811 555.962 553.629 555.886 553.472 555.839C552.88 556.805 551.823 557.146 550.898 557.261C550.332 557.331 549.743 557.329 549.209 557.313C548.998 557.307 548.801 557.299 548.616 557.292C548.469 557.286 548.33 557.28 548.194 557.276C548.047 557.44 547.883 557.593 547.715 557.733C547.392 558.003 547.006 558.268 546.592 558.522C545.763 559.03 544.757 559.532 543.757 559.985C541.757 560.892 539.698 561.641 538.937 561.895C538.299 562.107 537.045 562.731 536.089 563.519C535.61 563.913 535.269 564.298 535.095 564.636C534.934 564.947 534.947 565.144 535.031 565.312C535.53 566.31 535.933 567.576 536.355 568.899C536.382 568.983 536.409 569.067 536.436 569.151C536.897 570.595 537.406 572.155 538.119 573.728C539.081 575.848 538.578 578.473 537.974 580.543C537.722 581.405 537.435 582.227 537.191 582.926C537.135 583.087 537.081 583.241 537.03 583.388C536.892 583.787 536.78 584.124 536.703 584.401C536.621 584.695 536.601 584.846 536.601 584.9C536.601 585.17 536.48 585.425 536.272 585.596C536.063 585.767 535.789 585.835 535.525 585.783C535.134 585.704 534.54 585.681 533.908 585.695C533.291 585.709 532.703 585.756 532.358 585.794C532.259 585.805 532.16 585.8 532.063 585.779C530.463 585.423 528.191 585.63 527.242 585.788C526.894 585.846 526.543 585.695 526.347 585.401C526.15 585.107 526.143 584.726 526.33 584.425C526.57 584.038 526.902 583.672 527.244 583.332C527.512 583.064 527.817 582.783 528.124 582.499C528.21 582.42 528.295 582.341 528.38 582.263C529.183 581.517 530.007 580.715 530.651 579.759C531.287 578.815 531.737 577.735 531.797 576.435C531.858 575.131 531.528 573.531 530.479 571.546C530.351 571.304 530.229 571.072 530.112 570.851C529.085 568.908 528.482 567.766 528.071 567.099C527.907 566.834 527.799 566.687 527.733 566.609C527.417 566.574 527.135 566.372 527.005 566.069C526.905 565.837 526.921 565.627 526.937 565.52C526.955 565.403 526.988 565.304 527.014 565.237C527.067 565.102 527.139 564.971 527.2 564.866C527.287 564.718 527.404 564.537 527.515 564.366C527.559 564.298 527.602 564.232 527.642 564.17C527.675 564.118 527.707 564.067 527.738 564.018C525.544 563.624 522.152 562.313 519.45 559.127C519.38 559.153 519.309 559.176 519.238 559.197C518.343 559.466 517.454 559.266 516.709 558.979C516.069 558.734 515.425 558.378 514.866 558.07C514.776 558.02 514.689 557.972 514.604 557.926C513.936 557.561 513.443 557.321 513.06 557.248C512.887 557.215 512.795 557.229 512.749 557.244C512.715 557.255 512.655 557.281 512.572 557.394C512.505 557.485 512.34 557.698 512.062 557.812C511.896 557.881 511.676 557.918 511.437 557.854C511.206 557.792 511.048 557.66 510.952 557.552C510.786 557.363 510.72 557.147 510.693 557.054C510.659 556.932 510.636 556.804 510.619 556.69C510.591 556.507 510.567 556.282 510.545 556.062C510.54 556.014 510.535 555.965 510.53 555.918C510.5 555.64 510.467 555.353 510.42 555.072C510.318 554.469 510.173 554.053 510.002 553.842C509.934 553.759 509.884 553.735 509.845 553.725C509.799 553.712 509.675 553.695 509.428 553.778C508.134 554.209 506.916 554.317 505.889 554.136C504.957 553.973 504.113 553.555 503.59 552.853C503.191 552.603 502.759 552.296 502.369 551.958C501.937 551.584 501.489 551.116 501.23 550.594C500.956 550.042 500.837 549.274 501.395 548.607C501.859 548.051 502.653 547.764 503.585 547.609C505.6 547.273 506.937 546.441 508.032 545.576C508.31 545.357 508.572 545.136 508.831 544.915C508.866 544.884 508.902 544.854 508.938 544.824C509.158 544.635 509.38 544.445 509.599 544.269C509.769 544.131 509.946 543.993 510.13 543.863C510.094 543.848 510.058 543.832 510.022 543.817C509.66 543.662 509.25 543.483 508.866 543.284C508.488 543.088 508.088 542.848 507.766 542.556C507.453 542.272 507.105 541.839 507.064 541.252C507.02 540.635 507.331 540.118 507.748 539.72C508.159 539.328 508.758 538.963 509.535 538.607C512.475 537.259 514.449 536.426 515.918 536.035C517.443 535.628 518.518 535.671 519.609 536.139C519.787 536.215 520.222 536.256 520.994 536.134C521.72 536.019 522.595 535.785 523.539 535.481C525.425 534.873 527.472 534.02 528.954 533.402C528.954 533.402 528.954 533.402 528.954 533.402L528.961 533.4L528.961 533.399C529.885 533.015 530.969 532.943 532.053 533.038C533.147 533.134 534.308 533.406 535.429 533.775ZM511.189 544.36C511.189 544.36 511.185 544.358 511.178 544.352C511.186 544.358 511.189 544.36 511.189 544.36ZM511.302 543.22C511.311 543.215 511.316 543.213 511.316 543.213C511.317 543.213 511.312 543.216 511.302 543.22ZM521.076 558.253C523.953 561.448 527.58 562.321 529.03 562.355C529.492 562.366 529.87 562.724 529.907 563.184C529.941 563.616 529.771 564.028 529.646 564.291C529.504 564.588 529.319 564.888 529.159 565.139C529.11 565.215 529.065 565.285 529.022 565.351C529.223 565.567 529.411 565.844 529.603 566.154C530.048 566.875 530.683 568.078 531.688 569.981C531.81 570.212 531.937 570.453 532.07 570.705C533.235 572.908 533.674 574.826 533.595 576.518C533.517 578.215 532.923 579.609 532.144 580.764C531.374 581.907 530.415 582.83 529.604 583.582C529.527 583.654 529.452 583.723 529.379 583.791C530.328 583.763 531.378 583.803 532.306 583.99C532.701 583.95 533.271 583.909 533.868 583.896C534.22 583.888 534.602 583.889 534.971 583.911C535.064 583.578 535.191 583.199 535.329 582.8C535.383 582.643 535.44 582.481 535.498 582.315C535.741 581.618 536.009 580.851 536.246 580.039C536.848 577.974 537.144 575.936 536.48 574.472C535.718 572.792 535.182 571.143 534.721 569.699C534.701 569.637 534.682 569.576 534.662 569.515C534.219 568.125 533.855 566.985 533.421 566.117C533.013 565.301 533.148 564.483 533.495 563.811C533.828 563.164 534.378 562.596 534.944 562.13C536.079 561.195 537.53 560.466 538.367 560.187C539.081 559.949 541.08 559.222 543.014 558.346C543.839 557.972 544.637 557.577 545.312 557.189C545.272 557.19 545.23 557.192 545.188 557.193C544.351 557.221 543.328 557.226 542.365 556.987C542.2 557.193 542.009 557.362 541.842 557.492C541.38 557.853 540.78 558.165 540.173 558.425C538.955 558.946 537.51 559.337 536.566 559.472C535.331 559.649 533.777 560.304 533.153 560.616C532.961 560.712 532.74 560.736 532.532 560.684C531.376 560.395 530.769 559.573 530.505 558.756C530.386 558.39 530.331 558.017 530.317 557.669C530.092 557.634 529.876 557.583 529.67 557.519C529.699 557.647 529.724 557.774 529.746 557.902C529.898 558.817 529.836 559.7 529.708 560.668C529.643 561.156 529.198 561.501 528.709 561.443C528.661 561.437 528.605 561.431 528.542 561.424C528.024 561.369 527.017 561.262 525.763 560.791C524.502 560.317 523.008 559.484 521.441 557.999C521.32 558.085 521.199 558.17 521.076 558.253ZM522.906 556.903C524.21 558.087 525.415 558.737 526.396 559.106C527.028 559.343 527.572 559.468 528.017 559.541C528.051 559.045 528.04 558.617 527.97 558.198C527.87 557.6 527.641 556.967 527.165 556.157C526.915 555.993 526.659 555.828 526.385 555.663C525.934 555.393 525.408 555.41 524.635 555.784C524.081 556.052 523.514 556.449 522.906 556.903ZM532.116 557.608C532.125 557.806 532.156 558.012 532.217 558.202C532.309 558.486 532.454 558.703 532.702 558.837C533.53 558.458 535.009 557.876 536.312 557.69C537.089 557.579 538.382 557.233 539.465 556.77C539.943 556.565 540.342 556.354 540.626 556.153C540.472 556.028 540.325 555.887 540.188 555.73C540.028 555.548 539.772 555.41 539.358 555.354C538.936 555.297 538.414 555.336 537.828 555.459C536.657 555.704 535.427 556.242 534.659 556.664C534.649 556.67 534.639 556.675 534.628 556.681C533.686 557.152 532.864 557.456 532.116 557.608ZM547.901 555.469C548.168 555.472 548.46 555.484 548.745 555.495C548.922 555.502 549.097 555.509 549.262 555.514C549.773 555.529 550.251 555.527 550.677 555.474C551.543 555.367 551.913 555.099 552.053 554.633C552.155 554.292 552.449 554.043 552.803 553.999C553.571 553.903 554.299 554.181 554.873 554.489C555.459 554.804 556.017 555.224 556.46 555.562C556.609 555.676 556.739 555.775 556.853 555.86L556.855 555.851L556.856 555.847C556.92 555.546 556.986 555.228 557.044 554.893C557.16 554.213 557.226 553.523 557.148 552.9C557.072 552.288 556.864 551.789 556.47 551.415C556.074 551.037 555.388 550.69 554.171 550.579C553.718 550.538 553.366 550.164 553.353 549.709C553.34 549.253 553.67 548.86 554.12 548.793C555.991 548.514 558.965 547.779 560.957 546.96C561.451 546.757 561.863 546.557 562.174 546.37C562.263 546.316 562.338 546.266 562.4 546.222C562.346 546.199 562.282 546.174 562.208 546.148C561.179 545.788 560.194 545.483 559.303 545.206C559.146 545.158 558.992 545.11 558.841 545.063C557.859 544.757 556.964 544.469 556.342 544.176C556.041 544.033 555.709 543.847 555.466 543.592C555.337 543.457 555.2 543.268 555.129 543.022C555.053 542.76 555.069 542.49 555.164 542.244C555.244 542.033 555.374 541.859 555.521 541.715C555.038 541.631 554.535 541.511 554.027 541.341C552.595 540.864 551.482 540.299 550.531 539.816C550.212 539.653 549.911 539.501 549.622 539.363C548.473 538.817 547.377 538.436 545.705 538.436C544.861 538.436 544.328 538.542 543.969 538.654C543.705 538.737 543.552 538.812 543.375 538.898C543.283 538.943 543.184 538.991 543.06 539.045C542.898 539.116 542.685 539.195 542.43 539.222C542.165 539.25 541.905 539.215 541.645 539.128C541.175 538.969 540.671 538.622 540.057 538.131C538.929 537.228 536.94 536.166 534.867 535.485C533.836 535.146 532.815 534.912 531.895 534.831C530.966 534.749 530.206 534.831 529.654 535.061C529.654 535.061 529.654 535.061 529.654 535.061L529.647 535.064L529.647 535.064L529.633 535.069C528.163 535.682 526.054 536.561 524.092 537.194C523.108 537.511 522.133 537.776 521.276 537.912C520.464 538.04 519.582 538.085 518.9 537.793C518.27 537.523 517.624 537.443 516.382 537.774C515.085 538.12 513.247 538.886 510.285 540.244C509.586 540.564 509.193 540.829 508.99 541.023C508.941 541.07 508.909 541.106 508.888 541.134C508.907 541.156 508.935 541.186 508.975 541.223C509.128 541.361 509.37 541.517 509.695 541.686C510.014 541.852 510.369 542.008 510.728 542.161C510.783 542.185 510.839 542.208 510.895 542.232C511.188 542.357 511.489 542.485 511.734 542.605C511.881 542.677 512.036 542.759 512.173 542.852C512.288 542.929 512.497 543.082 512.635 543.325C512.713 543.462 512.785 543.658 512.772 543.895C512.76 544.137 512.664 544.337 512.549 544.483C512.35 544.734 512.076 544.852 511.918 544.912C511.567 545.043 511.198 545.29 510.731 545.668C510.533 545.828 510.33 546.001 510.109 546.19C510.073 546.221 510.036 546.253 509.999 546.284C509.737 546.507 509.453 546.747 509.147 546.989C507.905 547.97 506.292 548.982 503.881 549.384C503.19 549.499 502.908 549.655 502.813 549.727C502.819 549.744 502.829 549.766 502.842 549.793C502.943 549.997 503.18 550.279 503.547 550.597C503.9 550.902 504.313 551.189 504.688 551.414C504.811 551.489 504.916 551.592 504.991 551.714C505.142 551.96 505.511 552.242 506.2 552.363C506.878 552.482 507.791 552.426 508.858 552.07C509.348 551.907 509.838 551.861 510.303 551.984C510.775 552.108 511.135 552.383 511.398 552.706C511.887 553.307 512.087 554.135 512.195 554.773C512.237 555.025 512.269 555.274 512.295 555.502C512.677 555.399 513.056 555.415 513.397 555.48C514.104 555.614 514.842 556.004 515.467 556.346C515.563 556.399 515.657 556.451 515.75 556.502C516.318 556.814 516.84 557.102 517.354 557.299C517.95 557.528 518.386 557.574 518.721 557.473C518.894 557.421 519.087 557.34 519.301 557.229C519.813 556.962 520.366 556.564 520.985 556.098C521.086 556.021 521.189 555.943 521.294 555.863C522.081 555.265 522.968 554.591 523.85 554.164C524.875 553.667 526.111 553.399 527.311 554.12C527.684 554.344 528.022 554.566 528.328 554.768C529.522 555.556 530.187 555.982 531.219 555.918C531.837 555.879 532.65 555.656 533.808 555.078C534.681 554.6 536.073 553.987 537.459 553.697C538.157 553.551 538.9 553.476 539.597 553.57C540.301 553.665 541.014 553.941 541.543 554.545C541.731 554.76 541.966 554.926 542.251 555.055C543.008 555.394 544.024 555.431 545.127 555.394C545.306 555.388 545.492 555.38 545.678 555.372C546.023 555.357 546.369 555.341 546.668 555.34C547.052 555.338 547.503 555.352 547.901 555.469ZM511.124 556.325C511.114 556.339 511.115 556.334 511.128 556.319C511.127 556.321 511.125 556.323 511.124 556.325ZM512.424 556.557C512.429 556.573 512.429 556.576 512.425 556.562C512.425 556.561 512.424 556.559 512.424 556.557ZM508.852 541.192C508.852 541.192 508.852 541.19 508.855 541.184C508.853 541.19 508.852 541.192 508.852 541.192ZM557.461 556.258C557.462 556.258 557.454 556.256 557.439 556.25C557.453 556.254 557.461 556.257 557.461 556.258ZM542.256 537.432C542.256 537.432 542.255 537.432 542.254 537.431C542.255 537.431 542.256 537.432 542.256 537.432Z" fill="#806959"/>
<path fill-rule="evenodd" clip-rule="evenodd" d="M543.13 487.526C544.629 488.017 546.111 488.792 547.024 489.521C547.341 489.775 547.516 489.816 547.602 489.825C547.7 489.834 547.828 489.816 548.106 489.709C548.189 489.677 548.28 489.639 548.38 489.596C548.943 489.359 549.795 489 551.008 489C552.397 489 553.342 489.332 554.235 489.755C554.481 489.872 554.713 489.99 554.943 490.106C555.547 490.412 556.143 490.714 556.974 490.991C557.805 491.267 558.338 491.337 558.754 491.391C558.943 491.416 559.108 491.438 559.267 491.474C559.268 491.474 559.269 491.475 559.271 491.475C559.311 491.484 559.487 491.524 559.652 491.64C559.749 491.709 559.958 491.885 560.025 492.205C560.097 492.547 559.959 492.812 559.865 492.939C559.724 493.131 559.536 493.226 559.498 493.245C559.497 493.246 559.495 493.247 559.494 493.247C559.424 493.284 559.349 493.315 559.286 493.341C559.166 493.389 558.979 493.457 558.74 493.543C558.639 493.58 558.529 493.62 558.411 493.663C558.571 493.714 558.746 493.77 558.936 493.829C559.033 493.859 559.132 493.89 559.235 493.921C559.823 494.103 560.501 494.313 561.208 494.56C561.566 494.685 561.926 494.85 562.188 495.095C562.328 495.226 562.476 495.413 562.551 495.665C562.632 495.933 562.607 496.199 562.515 496.429C562.356 496.825 562.018 497.065 561.805 497.195C561.557 497.347 561.261 497.476 560.959 497.587C560.586 497.724 560.153 497.853 559.694 497.971C559.766 498.093 559.823 498.23 559.859 498.381C559.977 498.878 559.813 499.35 559.731 499.586L559.73 499.592C559.705 499.661 559.684 499.723 559.664 499.778C559.592 499.98 559.549 500.102 559.529 500.237C559.439 500.87 558.955 501.265 558.616 501.481C558.238 501.722 557.775 501.909 557.325 502.055C556.616 502.285 555.824 502.45 555.186 502.552C554.722 503.273 553.922 503.517 553.286 503.595C552.888 503.645 552.48 503.643 552.124 503.632C551.976 503.628 551.843 503.622 551.72 503.617C551.676 503.616 551.632 503.614 551.59 503.612C551.509 503.694 551.425 503.769 551.342 503.838C551.113 504.029 550.846 504.212 550.564 504.384C550.002 504.728 549.325 505.065 548.66 505.365C547.327 505.968 545.958 506.465 545.448 506.635C545.06 506.764 544.266 507.157 543.665 507.651C543.364 507.899 543.174 508.121 543.086 508.291C543.046 508.369 543.039 508.413 543.038 508.428C543.038 508.435 543.038 508.44 543.046 508.457C543.794 509.951 544.115 512.075 544.115 515.342V521.5C544.115 521.77 543.994 522.025 543.786 522.196C543.577 522.367 543.303 522.435 543.039 522.383C542.816 522.338 542.451 522.322 542.038 522.331C541.64 522.34 541.261 522.37 541.042 522.395C540.943 522.405 540.844 522.4 540.747 522.379C539.749 522.157 538.295 522.286 537.681 522.388C537.332 522.446 536.982 522.294 536.785 522C536.588 521.707 536.582 521.325 536.769 521.025C537.222 520.295 537.917 518.959 538.479 517.385C539.045 515.803 539.453 514.048 539.394 512.459C539.33 510.756 539.108 509.813 538.907 509.334C538.859 509.218 538.815 509.139 538.781 509.087C538.781 509.087 538.781 509.087 538.781 509.087C538.513 509.021 538.281 508.833 538.167 508.567C538.108 508.43 538.055 508.26 538.01 508.063C536.538 507.821 534.244 506.971 532.388 504.874C531.834 505.03 531.177 505.039 530.574 504.995C529.936 504.948 529.272 504.832 528.694 504.69C528.131 504.552 527.587 504.375 527.216 504.181C527.119 504.131 527.013 504.068 526.914 503.993C526.828 503.927 526.678 503.799 526.573 503.599C526.445 503.355 526.385 502.984 526.598 502.632C526.688 502.482 526.803 502.379 526.908 502.308C526.915 502.162 526.881 501.944 526.786 501.729C526.687 501.505 526.558 501.364 526.444 501.297C526.359 501.248 526.223 501.202 525.966 501.287C525.074 501.584 524.218 501.664 523.481 501.535C522.834 501.421 522.213 501.131 521.807 500.617C521.546 500.451 521.266 500.251 521.01 500.03C520.714 499.774 520.382 499.434 520.184 499.036C519.971 498.607 519.858 497.958 520.332 497.391C520.713 496.937 521.331 496.734 521.962 496.629C523.226 496.418 524.062 495.901 524.759 495.351C524.938 495.21 525.107 495.068 525.278 494.923C525.301 494.903 525.324 494.883 525.348 494.863C525.422 494.8 525.497 494.736 525.572 494.673C525.422 494.599 525.264 494.505 525.124 494.384C524.876 494.169 524.576 493.759 524.687 493.196C524.778 492.734 525.11 492.413 525.382 492.205C525.683 491.975 526.092 491.748 526.606 491.512C528.543 490.626 529.87 490.066 530.868 489.8C531.919 489.521 532.699 489.541 533.494 489.879C533.494 489.879 533.493 489.878 533.493 489.878C533.494 489.875 533.62 489.898 533.971 489.775C534.341 489.646 534.795 489.416 535.325 489.117C535.6 488.961 535.9 488.783 536.211 488.599C537.016 488.122 537.899 487.598 538.649 487.287C539.321 487.007 540.092 486.961 540.833 487.026C541.585 487.092 542.375 487.278 543.13 487.526ZM527.011 493.748C527.011 493.748 527.008 493.749 527.002 493.752C527.007 493.749 527.011 493.748 527.011 493.748ZM526.893 502.416C526.892 502.415 526.894 502.406 526.899 502.392C526.896 502.41 526.893 502.416 526.893 502.416ZM538.842 506.341C539.292 506.363 539.659 506.716 539.695 507.169C539.706 507.311 539.722 507.431 539.739 507.53C539.816 507.58 539.886 507.635 539.948 507.693C540.204 507.929 540.406 508.254 540.567 508.638C540.888 509.404 541.126 510.594 541.192 512.392C541.263 514.302 540.778 516.301 540.174 517.991C539.848 518.904 539.48 519.746 539.128 520.46C539.733 520.447 540.393 520.476 540.988 520.591C541.254 520.565 541.618 520.54 541.998 520.531C542.1 520.529 542.206 520.528 542.315 520.529V515.342C542.315 512.127 541.987 510.362 541.436 509.263C541.112 508.615 541.226 507.969 541.487 507.465C541.735 506.986 542.133 506.58 542.522 506.261C543.301 505.62 544.292 505.122 544.879 504.927C545.343 504.773 546.652 504.298 547.918 503.725C548.057 503.662 548.195 503.599 548.33 503.535C548.13 503.517 547.926 503.49 547.723 503.449C547.629 503.545 547.536 503.624 547.457 503.686C547.122 503.946 546.698 504.164 546.287 504.34C545.461 504.693 544.481 504.959 543.829 505.052C543.062 505.161 542.07 505.576 541.669 505.776C541.477 505.872 541.257 505.896 541.049 505.844C540.334 505.666 539.892 505.218 539.642 504.73C539.63 505.01 539.6 505.29 539.562 505.576C539.509 505.969 539.211 506.269 538.842 506.341ZM541.189 503.755C541.194 503.776 541.2 503.796 541.206 503.816C541.229 503.886 541.255 503.937 541.282 503.973C541.862 503.72 542.762 503.386 543.575 503.27C544.06 503.2 544.889 502.98 545.58 502.685C545.723 502.624 545.852 502.563 545.965 502.504C545.959 502.498 545.953 502.492 545.948 502.485C545.905 502.437 545.813 502.369 545.589 502.339C545.357 502.308 545.049 502.327 544.682 502.404C543.947 502.558 543.163 502.899 542.674 503.167C542.664 503.173 542.654 503.178 542.643 503.183C542.117 503.446 541.637 503.636 541.189 503.755ZM546.456 502.168C546.457 502.168 546.454 502.172 546.446 502.181C546.452 502.172 546.456 502.168 546.456 502.168ZM537.352 502.781C537.208 502.687 537.062 502.594 536.908 502.502C536.738 502.4 536.509 502.368 536.042 502.594C535.791 502.716 535.534 502.88 535.259 503.076C535.98 503.673 536.638 504.016 537.179 504.219C537.424 504.311 537.647 504.375 537.848 504.422C537.847 504.258 537.834 504.107 537.81 503.959C537.754 503.625 537.627 503.26 537.352 502.781ZM551.313 501.803C551.485 501.806 551.671 501.814 551.849 501.821C551.964 501.825 552.075 501.83 552.177 501.833C552.511 501.843 552.808 501.841 553.065 501.809C553.595 501.743 553.679 501.6 553.718 501.471C553.82 501.129 554.115 500.881 554.468 500.837C555.082 500.76 556.005 500.591 556.769 500.343C557.156 500.218 557.456 500.086 557.648 499.964C557.705 499.927 557.742 499.899 557.764 499.88C557.819 499.581 557.924 499.293 557.992 499.104C558.006 499.065 558.019 499.031 558.029 499.001C558.046 498.952 558.059 498.911 558.069 498.878C558.062 498.875 558.055 498.872 558.047 498.869C557.795 498.766 557.315 498.654 556.446 498.575C555.993 498.534 555.641 498.16 555.628 497.704C555.615 497.249 555.945 496.855 556.395 496.788C557.504 496.624 558.926 496.349 559.941 496.032C559.511 495.891 559.097 495.763 558.708 495.643C558.604 495.611 558.502 495.579 558.402 495.548C557.759 495.348 557.146 495.152 556.712 494.948C556.505 494.85 556.244 494.708 556.043 494.498C555.935 494.385 555.813 494.219 555.748 493.996C555.678 493.756 555.693 493.509 555.779 493.287C555.891 492.996 556.103 492.794 556.288 492.659C555.374 492.345 554.647 491.976 554.042 491.669C553.835 491.564 553.644 491.467 553.463 491.382C552.732 491.035 552.054 490.8 551.008 490.8C550.182 490.8 549.675 491.01 549.125 491.238C549.005 491.288 548.883 491.338 548.755 491.388C548.404 491.524 547.954 491.667 547.428 491.616C546.89 491.564 546.395 491.322 545.901 490.928C545.19 490.36 543.912 489.676 542.569 489.236C541.905 489.018 541.254 488.87 540.676 488.819C540.088 488.768 539.642 488.823 539.34 488.949C538.714 489.209 538.016 489.623 537.262 490.07C536.923 490.271 536.571 490.48 536.21 490.684C535.664 490.992 535.094 491.289 534.565 491.474C534.079 491.644 533.41 491.801 532.796 491.538C532.457 491.393 532.104 491.334 531.331 491.54C530.504 491.76 529.314 492.253 527.355 493.149C527.245 493.199 527.147 493.247 527.058 493.291C527.067 493.294 527.076 493.296 527.085 493.299C527.237 493.342 527.412 493.392 527.553 493.442C527.637 493.471 527.752 493.515 527.862 493.577C527.863 493.577 527.864 493.578 527.865 493.578C527.932 493.615 528.215 493.773 528.345 494.116C528.429 494.335 528.429 494.579 528.342 494.803C528.264 495.001 528.139 495.129 528.056 495.199C527.901 495.331 527.726 495.403 527.621 495.442C527.436 495.511 527.224 495.648 526.922 495.892C526.794 495.995 526.664 496.106 526.518 496.231C526.494 496.251 526.469 496.272 526.444 496.293C526.271 496.441 526.08 496.602 525.873 496.765C525.028 497.431 523.916 498.128 522.258 498.404C522.144 498.423 522.05 498.444 521.972 498.464C522.029 498.524 522.1 498.593 522.187 498.668C522.404 498.855 522.661 499.034 522.897 499.175C523.021 499.249 523.125 499.352 523.201 499.475C523.24 499.539 523.391 499.692 523.791 499.762C524.18 499.83 524.731 499.801 525.397 499.579C526.114 499.341 526.79 499.416 527.349 499.742C527.879 500.05 528.227 500.536 528.433 501.001C528.638 501.466 528.737 501.988 528.702 502.46C528.695 502.561 528.679 502.682 528.647 502.812C528.788 502.855 528.948 502.899 529.122 502.942C529.62 503.064 530.184 503.161 530.707 503.2C531.25 503.24 531.668 503.211 531.917 503.136C532.009 503.109 532.118 503.064 532.247 502.997C532.56 502.834 532.907 502.587 533.316 502.279C533.382 502.229 533.449 502.178 533.518 502.126C534.034 501.734 534.646 501.27 535.258 500.974C535.978 500.626 536.914 500.407 537.833 500.958C538.085 501.109 538.313 501.258 538.515 501.392C539.315 501.919 539.672 502.134 540.237 502.099C540.589 502.078 541.083 501.949 541.824 501.58C542.419 501.256 543.364 500.841 544.314 500.642C544.793 500.542 545.321 500.487 545.828 500.555C546.341 500.624 546.889 500.829 547.301 501.299C547.392 501.402 547.51 501.487 547.664 501.557C548.092 501.749 548.697 501.778 549.428 501.754C549.539 501.75 549.658 501.745 549.779 501.74C550.011 501.73 550.251 501.719 550.454 501.718C550.694 501.717 551.013 501.723 551.313 501.803ZM527.808 503.859C527.806 503.86 527.804 503.861 527.801 503.862L527.802 503.862C527.804 503.861 527.806 503.86 527.808 503.859ZM560.941 495.607C560.941 495.607 560.939 495.609 560.934 495.613C560.938 495.609 560.941 495.607 560.941 495.607ZM557.332 494.127C557.332 494.127 557.335 494.124 557.343 494.118C557.336 494.124 557.332 494.127 557.332 494.127Z" fill="#806959"/>
<path fill-rule="evenodd" clip-rule="evenodd" d="M457.016 6.58707C455.333 7.14228 453.679 8.01517 452.674 8.82207C452.277 9.14133 452.015 9.22829 451.829 9.2465C451.634 9.26558 451.425 9.22029 451.093 9.09128C450.992 9.05167 450.882 9.00523 450.763 8.95506C450.118 8.6826 449.213 8.29993 447.902 8.29993C446.38 8.29993 445.351 8.66304 444.363 9.13456C444.095 9.26236 443.837 9.39342 443.578 9.52552C442.881 9.88105 442.168 10.2441 441.191 10.571C440.212 10.8988 439.533 10.9893 439.049 11.0539C438.848 11.0806 438.681 11.1029 438.539 11.1358L438.535 11.1367C438.494 11.1461 438.352 11.1788 438.221 11.2717C438.145 11.3255 437.987 11.4608 437.936 11.7049C437.881 11.9658 437.986 12.1677 438.058 12.267C438.168 12.4172 438.318 12.4948 438.357 12.5147L438.361 12.5169C438.426 12.551 438.5 12.5823 438.569 12.6103C438.703 12.6643 438.907 12.7387 439.171 12.835C439.417 12.9243 439.713 13.0323 440.054 13.1606C440.209 13.2188 440.34 13.2726 440.451 13.322C440.088 13.4718 439.581 13.6368 438.942 13.8366C438.831 13.8714 438.717 13.907 438.599 13.9436C437.927 14.1527 437.158 14.392 436.356 14.6738C435.96 14.8132 435.605 14.983 435.36 15.2139C435.231 15.3354 435.104 15.4997 435.041 15.7129C434.974 15.938 434.993 16.1615 435.071 16.3573C435.209 16.7018 435.51 16.9272 435.74 17.0684C435.997 17.2259 436.312 17.3653 436.647 17.4895C437.206 17.6967 437.892 17.8872 438.608 18.0548C438.371 18.2522 438.199 18.5016 438.124 18.8164C438.014 19.2788 438.166 19.7321 438.262 20.0098C438.286 20.0791 438.309 20.1434 438.33 20.204C438.415 20.444 438.479 20.6248 438.507 20.8176C438.588 21.3862 439.025 21.7656 439.392 22.0009C439.788 22.2548 440.286 22.4589 440.788 22.6227C441.638 22.9004 442.601 23.0948 443.343 23.2069C443.778 24.0115 444.613 24.2888 445.341 24.3793C445.768 24.4325 446.213 24.431 446.616 24.4191C446.775 24.4144 446.923 24.4084 447.063 24.4027C447.174 24.3982 447.279 24.3939 447.382 24.3906C447.493 24.5153 447.617 24.6309 447.743 24.737C447.987 24.942 448.278 25.1426 448.591 25.3351C449.217 25.72 449.976 26.1001 450.73 26.4433C452.24 27.1303 453.794 27.6976 454.368 27.8899C454.85 28.051 455.796 28.5237 456.518 29.1204C456.879 29.4192 457.137 29.7108 457.268 29.9663C457.389 30.2022 457.38 30.3513 457.316 30.4787C456.5 32.1191 456.131 34.4908 456.131 38.2372V45.3182C456.131 45.5224 456.222 45.7159 456.38 45.8454C456.537 45.975 456.744 46.0268 456.944 45.9867C457.238 45.9276 457.687 45.91 458.164 45.9206C458.629 45.931 459.073 45.9668 459.334 45.9958C459.408 46.0041 459.483 46 459.556 45.9837C460.763 45.7144 462.479 45.8709 463.194 45.9907C463.458 46.0347 463.722 45.9201 463.87 45.6977C464.019 45.4752 464.024 45.1862 463.883 44.9587C463.352 44.0988 462.547 42.54 461.895 40.7055C461.241 38.8657 460.76 36.7996 460.83 34.9083C460.903 32.9317 461.16 31.7984 461.413 31.1913C461.529 30.9127 461.632 30.7759 461.688 30.7181C461.936 30.6988 462.159 30.5435 462.26 30.3068C462.339 30.1232 462.412 29.8675 462.466 29.5537C464.091 29.3404 466.884 28.3864 469.075 25.7935C469.128 25.8125 469.182 25.8302 469.235 25.8464C469.818 26.0219 470.542 26.0385 471.235 25.9869C471.943 25.9341 472.682 25.8049 473.328 25.6459C473.962 25.4897 474.551 25.2936 474.939 25.09C475.039 25.0376 475.141 24.9766 475.233 24.9057C475.315 24.8426 475.441 24.7329 475.526 24.5694C475.629 24.3726 475.674 24.0812 475.508 23.8042C475.401 23.6261 475.248 23.5275 475.136 23.4733C475.125 23.4447 475.111 23.3906 475.105 23.2973C475.088 23.0652 475.138 22.7456 475.272 22.4405C475.406 22.1358 475.596 21.9055 475.807 21.782C475.996 21.6713 476.256 21.6124 476.64 21.7407C477.616 22.0673 478.535 22.1489 479.31 22.0123C480.014 21.8884 480.651 21.5716 481.045 21.04C481.346 20.8505 481.672 20.6179 481.967 20.3621C482.293 20.0787 482.631 19.724 482.826 19.329C483.034 18.9105 483.123 18.3287 482.702 17.8231C482.351 17.4019 481.753 17.185 481.049 17.0672C479.528 16.8127 478.519 16.1823 477.693 15.5276C477.483 15.3614 477.286 15.1937 477.09 15.0263C477.063 15.0034 477.036 14.9803 477.009 14.9573C476.843 14.8147 476.675 14.6708 476.511 14.537C476.44 14.4796 476.368 14.4223 476.294 14.366C476.378 14.3377 476.462 14.3077 476.544 14.2757C476.773 14.1863 477.047 14.0591 477.263 13.8706C477.494 13.6701 477.742 13.316 477.649 12.8394C477.57 12.4393 477.278 12.1384 476.985 11.9132C476.67 11.6716 476.23 11.4227 475.653 11.1571C473.434 10.136 471.944 9.50491 470.835 9.20808C469.685 8.90002 468.873 8.93245 468.05 9.28678C467.974 9.31916 467.748 9.34171 467.263 9.17099C466.81 9.01162 466.268 8.73425 465.659 8.38842C465.329 8.20059 464.976 7.99049 464.615 7.77477C463.702 7.23077 462.73 6.65105 461.897 6.30265C461.2 6.01113 460.382 5.95652 459.564 6.0286C458.738 6.10137 457.862 6.3079 457.016 6.58707ZM475.149 23.5003C475.149 23.5003 475.148 23.4974 475.144 23.4931C475.147 23.4984 475.149 23.5003 475.149 23.5003ZM467.848 25.1311C465.677 27.5517 462.94 28.213 461.845 28.2386C461.497 28.2467 461.211 28.5179 461.184 28.8665C461.163 29.1215 461.13 29.3259 461.097 29.4784C460.98 29.5385 460.874 29.6161 460.782 29.7017C460.538 29.9272 460.332 30.2525 460.16 30.6648C459.816 31.4894 459.548 32.8095 459.472 34.8579C459.394 36.9915 459.933 39.2423 460.616 41.1635C461.069 42.4397 461.594 43.5928 462.065 44.4996C461.237 44.4489 460.235 44.4543 459.373 44.6288C459.074 44.5988 458.644 44.5674 458.194 44.5573C457.969 44.5523 457.728 44.5523 457.49 44.5622V38.2372C457.49 34.53 457.864 32.4295 458.532 31.0885C458.839 30.4705 458.737 29.8509 458.476 29.3415C458.224 28.8516 457.809 28.4212 457.381 28.0678C456.525 27.3601 455.43 26.8079 454.798 26.5963C454.259 26.4159 452.751 25.8653 451.291 25.2013C450.668 24.9179 450.066 24.6192 449.557 24.3247C449.587 24.3259 449.619 24.327 449.65 24.3281C450.282 24.3494 451.054 24.3527 451.781 24.1716C451.906 24.3278 452.05 24.4557 452.176 24.5546C452.525 24.8278 452.978 25.0646 453.436 25.2612C454.354 25.6558 455.445 25.9525 456.158 26.0547C457.09 26.1884 458.263 26.6847 458.734 26.9212C458.879 26.994 459.045 27.0124 459.202 26.9729C460.075 26.7538 460.533 26.131 460.732 25.5121C460.822 25.2351 460.863 24.9522 460.874 24.689C461.044 24.6624 461.206 24.6236 461.363 24.5754C461.34 24.6718 461.321 24.7684 461.305 24.8653C461.19 25.5586 461.237 26.227 461.334 26.9603C461.383 27.3299 461.718 27.5916 462.087 27.5475C462.124 27.5431 462.166 27.5386 462.214 27.5336C462.604 27.4919 463.365 27.4108 464.311 27.0538C465.263 26.6947 466.39 26.0636 467.573 24.9383C467.664 25.0037 467.756 25.0682 467.848 25.1311ZM466.467 24.1081C465.483 25.0056 464.573 25.498 463.833 25.7773C463.356 25.9571 462.945 26.0513 462.61 26.1068C462.584 25.7311 462.592 25.4068 462.645 25.0895C462.72 24.6361 462.894 24.1567 463.252 23.5435C463.442 23.4186 463.635 23.2936 463.841 23.1692C464.182 22.9643 464.579 22.9769 465.163 23.2606C465.58 23.4635 466.008 23.7642 466.467 24.1081ZM459.516 24.6426C459.509 24.7921 459.486 24.9482 459.44 25.0922C459.37 25.3075 459.261 25.4722 459.074 25.5736C458.449 25.2866 457.333 24.8458 456.35 24.7048C455.763 24.6206 454.787 24.3583 453.97 24.0075C453.609 23.8524 453.308 23.6922 453.093 23.5404C453.21 23.4452 453.321 23.3387 453.424 23.2199C453.545 23.0815 453.738 22.977 454.051 22.9348C454.369 22.892 454.763 22.9216 455.205 23.0144C456.089 23.2 457.017 23.6075 457.597 23.9274C457.604 23.9317 457.612 23.9358 457.62 23.9398C458.331 24.2968 458.952 24.5274 459.516 24.6426ZM447.603 23.0216C447.402 23.0242 447.181 23.0331 446.966 23.0417C446.832 23.0471 446.7 23.0524 446.576 23.0561C446.19 23.0675 445.829 23.066 445.508 23.026C444.854 22.9446 444.575 22.7416 444.47 22.3887C444.392 22.1301 444.17 21.9416 443.903 21.9081C443.188 21.8182 442.11 21.6205 441.208 21.326C440.754 21.1777 440.38 21.016 440.124 20.8518C439.893 20.7039 439.853 20.616 439.85 20.6127C439.8 20.2733 439.679 19.938 439.592 19.6956C439.575 19.6477 439.559 19.6034 439.545 19.5634C439.441 19.2612 439.439 19.164 439.445 19.1344C439.447 19.1318 439.451 19.1266 439.459 19.1188C439.487 19.0912 439.56 19.0347 439.724 18.9676C440.06 18.8293 440.651 18.6966 441.653 18.6051C441.996 18.5739 442.261 18.2906 442.271 17.9456C442.281 17.6006 442.032 17.3026 441.692 17.2517C440.246 17.0355 438.309 16.6521 437.118 16.2104C436.937 16.1432 436.782 16.0781 436.656 16.0166C436.7 15.9988 436.75 15.9802 436.805 15.9608C437.582 15.6879 438.325 15.4566 438.997 15.2473C439.116 15.2104 439.232 15.1741 439.346 15.1385C440.088 14.9066 440.763 14.6888 441.232 14.4664C441.46 14.3585 441.71 14.2176 441.894 14.0242C441.991 13.9219 442.094 13.7792 442.148 13.5925C442.205 13.3937 442.193 13.1897 442.122 13.0031C441.996 12.675 441.714 12.4636 441.491 12.3276C441.344 12.2373 441.17 12.1493 440.971 12.0621C441.178 12.0056 441.395 11.9404 441.621 11.8646C442.702 11.5029 443.542 11.0747 444.26 10.7088C444.501 10.586 444.728 10.4702 444.946 10.3662C445.813 9.95264 446.64 9.66356 447.902 9.66356C448.92 9.66356 449.565 9.93319 450.2 10.1985C450.334 10.2543 450.467 10.31 450.603 10.3629C450.99 10.5134 451.443 10.6545 451.961 10.6037C452.489 10.552 452.992 10.3129 453.523 9.88678C454.374 9.20296 455.875 8.39877 457.44 7.88253C458.218 7.62597 458.989 7.44818 459.683 7.38701C460.384 7.32516 460.958 7.38702 461.375 7.56134C462.114 7.87069 462.946 8.36713 463.82 8.88826C464.203 9.11702 464.595 9.35053 464.99 9.57507C465.611 9.92802 466.24 10.2563 466.814 10.4579C467.355 10.6482 468.01 10.7872 468.585 10.5401C469.06 10.3354 469.548 10.2747 470.485 10.5256C471.464 10.7878 472.851 11.368 475.087 12.3966C475.597 12.6315 475.927 12.8235 476.129 12.9733C476.105 12.9835 476.079 12.994 476.051 13.0048C475.874 13.0742 475.668 13.1368 475.45 13.1998C475.415 13.21 475.379 13.2203 475.342 13.2308C475.167 13.2809 474.981 13.3344 474.831 13.3873C474.741 13.4192 474.632 13.4617 474.532 13.5178C474.469 13.553 474.239 13.682 474.136 13.9551C474.071 14.126 474.071 14.3156 474.139 14.4898C474.199 14.6448 474.298 14.7468 474.366 14.8053C474.495 14.9161 474.649 14.9822 474.76 15.024C475.025 15.1238 475.304 15.3108 475.656 15.5968C475.805 15.7185 475.958 15.8494 476.125 15.9927C476.153 16.0162 476.18 16.0399 476.209 16.064C476.406 16.2329 476.62 16.4146 476.851 16.5978C477.788 17.3407 479.006 18.1078 480.826 18.4123C481.347 18.4996 481.56 18.6176 481.632 18.6722C481.627 18.6852 481.62 18.7017 481.61 18.722C481.533 18.8768 481.355 19.0903 481.078 19.3311C480.811 19.5623 480.5 19.7797 480.217 19.9502C480.123 20.0065 480.045 20.0845 479.988 20.1776C479.874 20.3639 479.596 20.5776 479.075 20.6692C478.564 20.7594 477.875 20.7167 477.069 20.4471C476.339 20.2027 475.671 20.2835 475.123 20.6038C474.598 20.9111 474.243 21.403 474.029 21.8902C473.815 22.377 473.715 22.9193 473.75 23.3976C473.764 23.5904 473.807 23.8281 473.907 24.0532C473.664 24.1415 473.357 24.2347 473.004 24.3216C472.42 24.4654 471.756 24.5807 471.135 24.627C470.5 24.6743 469.971 24.6444 469.626 24.5403C469.495 24.5008 469.349 24.4395 469.188 24.3551C468.801 24.153 468.384 23.8517 467.917 23.4981C467.841 23.4403 467.763 23.3808 467.683 23.3203C467.09 22.8678 466.42 22.3569 465.755 22.0333C464.981 21.657 464.048 21.4541 463.142 22C462.861 22.1693 462.606 22.3376 462.375 22.4909C461.474 23.0882 460.972 23.4105 460.193 23.362C459.727 23.3329 459.113 23.1635 458.239 22.7259C457.58 22.3635 456.53 21.8995 455.483 21.6797C454.957 21.5691 454.396 21.5124 453.87 21.5833C453.339 21.655 452.801 21.8641 452.402 22.322C452.26 22.4849 452.082 22.611 451.867 22.708C451.296 22.9654 450.529 22.9934 449.696 22.9652C449.562 22.9607 449.421 22.9545 449.28 22.9483C449.02 22.9368 448.759 22.9254 448.533 22.9241C448.244 22.9224 447.903 22.9334 447.603 23.0216ZM474.406 23.8239C474.412 23.8194 474.411 23.8195 474.405 23.8246L474.406 23.8239ZM438.988 11.3069V11.3069Z" fill="#806959"/>
<path d="M446.966 23.0417C447.181 23.0331 447.402 23.0242 447.603 23.0216C447.903 22.9334 448.244 22.9224 448.533 22.9241C448.759 22.9254 449.02 22.9368 449.28 22.9483C449.421 22.9545 449.562 22.9607 449.696 22.9652C450.529 22.9934 451.296 22.9654 451.867 22.708C452.082 22.611 452.26 22.4849 452.402 22.322C452.801 21.8641 453.339 21.655 453.87 21.5833C454.396 21.5124 454.957 21.5691 455.483 21.6797C456.53 21.8995 457.58 22.3635 458.239 22.7259C459.113 23.1635 459.727 23.3329 460.193 23.362C460.972 23.4105 461.474 23.0882 462.375 22.4909C462.606 22.3376 462.861 22.1693 463.142 22C464.048 21.4541 464.981 21.657 465.755 22.0333C466.42 22.3569 467.09 22.8678 467.683 23.3203C467.763 23.3808 467.841 23.4403 467.917 23.4981C468.384 23.8517 468.801 24.153 469.188 24.3551C469.349 24.4395 469.495 24.5008 469.626 24.5403C469.971 24.6444 470.5 24.6743 471.135 24.627C471.756 24.5807 472.42 24.4654 473.004 24.3216C473.357 24.2347 473.664 24.1415 473.907 24.0532C473.807 23.8281 473.764 23.5904 473.75 23.3976C473.715 22.9193 473.815 22.377 474.029 21.8902C474.243 21.403 474.598 20.9111 475.123 20.6038C475.671 20.2835 476.339 20.2027 477.069 20.4471C477.875 20.7167 478.564 20.7594 479.075 20.6692C479.596 20.5776 479.874 20.3639 479.988 20.1776C480.045 20.0845 480.123 20.0065 480.217 19.9502C480.5 19.7797 480.811 19.5623 481.078 19.3311C481.355 19.0903 481.533 18.8768 481.61 18.722C481.62 18.7017 481.627 18.6852 481.632 18.6722C481.56 18.6176 481.347 18.4996 480.826 18.4123C479.006 18.1078 477.788 17.3407 476.851 16.5978C476.62 16.4146 476.406 16.2329 476.209 16.064L476.125 15.9927C475.958 15.8494 475.805 15.7185 475.656 15.5968C475.304 15.3108 475.025 15.1238 474.76 15.024C474.649 14.9822 474.495 14.9161 474.366 14.8053C474.298 14.7468 474.199 14.6448 474.139 14.4898C474.071 14.3156 474.071 14.126 474.136 13.9551C474.239 13.682 474.469 13.553 474.532 13.5178C474.632 13.4617 474.741 13.4192 474.831 13.3873C474.981 13.3344 475.167 13.2809 475.342 13.2308L475.45 13.1998C475.668 13.1368 475.874 13.0742 476.051 13.0048C476.079 12.994 476.105 12.9835 476.129 12.9733C475.927 12.8235 475.597 12.6315 475.087 12.3966C472.851 11.368 471.464 10.7878 470.485 10.5256C469.548 10.2747 469.06 10.3354 468.585 10.5401C468.01 10.7872 467.355 10.6482 466.814 10.4579C466.24 10.2563 465.611 9.92802 464.99 9.57507C464.595 9.35053 464.203 9.11702 463.82 8.88826C462.946 8.36713 462.114 7.87069 461.375 7.56134C460.958 7.38702 460.384 7.32516 459.683 7.38701C458.989 7.44818 458.218 7.62597 457.44 7.88253C455.875 8.39877 454.374 9.20296 453.523 9.88678C452.992 10.3129 452.489 10.552 451.961 10.6037C451.443 10.6545 450.99 10.5134 450.603 10.3629C450.467 10.31 450.334 10.2543 450.2 10.1985C449.565 9.93319 448.92 9.66356 447.902 9.66356C446.64 9.66356 445.813 9.95264 444.946 10.3662C444.728 10.4702 444.501 10.586 444.26 10.7088C443.542 11.0747 442.702 11.5029 441.621 11.8646C441.395 11.9404 441.178 12.0056 440.971 12.0621C441.17 12.1493 441.344 12.2373 441.491 12.3276C441.714 12.4636 441.996 12.675 442.122 13.0031C442.193 13.1897 442.205 13.3937 442.148 13.5925C442.094 13.7792 441.991 13.9219 441.894 14.0242C441.71 14.2176 441.46 14.3585 441.232 14.4664C440.763 14.6888 440.088 14.9066 439.346 15.1385C439.232 15.1741 439.116 15.2104 438.997 15.2473C438.325 15.4566 437.582 15.6879 436.805 15.9608C436.75 15.9802 436.7 15.9988 436.656 16.0166C436.782 16.0781 436.937 16.1432 437.118 16.2104C438.309 16.6521 440.246 17.0355 441.692 17.2517C442.032 17.3026 442.281 17.6006 442.271 17.9456C442.261 18.2906 441.996 18.5739 441.653 18.6051C440.651 18.6966 440.06 18.8293 439.724 18.9676C439.56 19.0347 439.487 19.0912 439.459 19.1188C439.451 19.1266 439.447 19.1318 439.445 19.1344C439.439 19.164 439.441 19.2612 439.545 19.5634C439.559 19.6034 439.575 19.6477 439.592 19.6956C439.679 19.938 439.8 20.2733 439.85 20.6127C439.853 20.616 439.893 20.7039 440.124 20.8518C440.38 21.016 440.754 21.1777 441.208 21.326C442.11 21.6205 443.188 21.8182 443.903 21.9081C444.17 21.9416 444.392 22.1301 444.47 22.3887C444.575 22.7416 444.854 22.9446 445.508 23.026C445.829 23.066 446.19 23.0675 446.576 23.0561C446.7 23.0524 446.832 23.0471 446.966 23.0417Z" fill="#DEC9B6"/>
<path d="M461.845 28.2386C462.94 28.213 465.677 27.5517 467.848 25.1311C467.756 25.0682 467.664 25.0037 467.573 24.9383C466.39 26.0636 465.263 26.6947 464.311 27.0538C463.365 27.4108 462.604 27.4919 462.214 27.5336C462.166 27.5386 462.124 27.5431 462.087 27.5475C461.718 27.5916 461.383 27.3299 461.334 26.9603C461.237 26.227 461.19 25.5586 461.305 24.8653C461.321 24.7684 461.34 24.6718 461.363 24.5754C461.206 24.6236 461.044 24.6624 460.874 24.689C460.863 24.9522 460.822 25.2351 460.732 25.5121C460.533 26.131 460.075 26.7538 459.202 26.9729C459.045 27.0124 458.879 26.994 458.734 26.9212C458.263 26.6847 457.09 26.1884 456.158 26.0547C455.445 25.9525 454.354 25.6558 453.436 25.2612C452.978 25.0646 452.525 24.8278 452.176 24.5546C452.05 24.4557 451.906 24.3278 451.781 24.1716C451.054 24.3527 450.282 24.3494 449.65 24.3281L449.557 24.3247C450.066 24.6192 450.668 24.9179 451.291 25.2013C452.751 25.8653 454.259 26.4159 454.798 26.5963C455.43 26.8079 456.525 27.3601 457.381 28.0678C457.809 28.4212 458.224 28.8516 458.476 29.3415C458.737 29.8509 458.839 30.4705 458.532 31.0885C457.864 32.4295 457.49 34.53 457.49 38.2372V44.5622C457.728 44.5523 457.969 44.5523 458.194 44.5573C458.644 44.5674 459.074 44.5988 459.373 44.6288C460.235 44.4543 461.237 44.4489 462.065 44.4996C461.594 43.5928 461.069 42.4397 460.616 41.1635C459.933 39.2423 459.394 36.9915 459.472 34.8579C459.548 32.8095 459.816 31.4894 460.16 30.6648C460.332 30.2525 460.538 29.9272 460.782 29.7017C460.874 29.6161 460.98 29.5385 461.097 29.4784C461.13 29.3259 461.163 29.1215 461.184 28.8665C461.211 28.5179 461.497 28.2467 461.845 28.2386Z" fill="#DEC9B6"/>
<path fill-rule="evenodd" clip-rule="evenodd" d="M246.2 64C246.697 64 247.1 64.4029 247.1 64.9C247.1 65.5653 247.238 66.8415 247.561 68.1317C247.893 69.4597 248.372 70.5988 248.937 71.1636C249.288 71.5151 249.288 72.0849 248.937 72.4364C248.585 72.7879 248.015 72.7879 247.664 72.4364C246.729 71.5012 246.158 69.9403 245.815 68.5683C245.462 67.1585 245.3 65.7347 245.3 64.9C245.3 64.4029 245.703 64 246.2 64ZM252.919 65.0488C253.334 65.3226 253.449 65.8808 253.175 66.2957C252.887 66.7326 252.439 67.5645 252.094 68.5679C251.747 69.5755 251.526 70.6896 251.623 71.7155C251.67 72.2104 251.306 72.6494 250.811 72.696C250.317 72.7427 249.878 72.3793 249.831 71.8845C249.701 70.5104 249.999 69.1245 250.392 67.9821C250.787 66.8355 251.301 65.8674 251.673 65.3043C251.946 64.8894 252.505 64.775 252.919 65.0488ZM254.885 69.6111C254.571 70.312 254.455 71.199 254.455 71.8C254.455 72.2971 254.052 72.7 253.555 72.7C253.058 72.7 252.655 72.2971 252.655 71.8C252.655 71.0373 252.793 69.8789 253.243 68.8753C253.695 67.866 254.575 66.8091 256.1 66.8091C256.597 66.8091 257 67.212 257 67.7091C257 68.2061 256.597 68.6091 256.1 68.6091C255.589 68.6091 255.197 68.9158 254.885 69.6111ZM242.498 68.595C242.942 68.3727 243.483 68.5529 243.705 68.9975C243.995 69.5767 244.168 69.8446 244.399 70.0761C244.649 70.3258 245.009 70.5757 245.763 71.0283C246.189 71.284 246.328 71.8368 246.072 72.263C245.816 72.6893 245.263 72.8275 244.837 72.5717C244.091 72.1243 243.552 71.7742 243.126 71.3489C242.683 70.9054 242.406 70.4233 242.095 69.8025C241.873 69.3579 242.053 68.8173 242.498 68.595Z" fill="#806959"/>
<path fill-rule="evenodd" clip-rule="evenodd" d="M551.219 144.449C551.634 144.723 551.749 145.281 551.475 145.696C551.187 146.133 550.739 146.965 550.394 147.968C550.047 148.976 549.826 150.09 549.923 151.116C549.97 151.61 549.606 152.049 549.111 152.096C548.617 152.143 548.178 151.779 548.131 151.284C548.001 149.91 548.299 148.524 548.692 147.382C549.087 146.235 549.601 145.267 549.973 144.704C550.246 144.289 550.805 144.175 551.219 144.449ZM542.103 146.324C542.145 145.829 542.581 145.461 543.076 145.503C544.616 145.633 547.266 147.067 547.499 151.149C547.527 151.645 547.148 152.07 546.651 152.099C546.155 152.127 545.73 151.747 545.702 151.251C545.522 148.104 543.612 147.355 542.924 147.297C542.429 147.255 542.062 146.82 542.103 146.324ZM553.185 149.011C552.871 149.712 552.755 150.599 552.755 151.2C552.755 151.697 552.352 152.1 551.855 152.1C551.358 152.1 550.955 151.697 550.955 151.2C550.955 150.437 551.093 149.279 551.543 148.275C551.995 147.266 552.875 146.209 554.4 146.209C554.897 146.209 555.3 146.612 555.3 147.109C555.3 147.606 554.897 148.009 554.4 148.009C553.889 148.009 553.497 148.316 553.185 149.011Z" fill="#806959"/>
<path fill-rule="evenodd" clip-rule="evenodd" d="M473.881 632.249C474.295 631.975 474.854 632.089 475.127 632.504C475.499 633.067 476.013 634.035 476.408 635.182C476.801 636.324 477.099 637.71 476.969 639.084C476.922 639.579 476.483 639.943 475.989 639.896C475.494 639.849 475.13 639.41 475.177 638.915C475.274 637.89 475.053 636.775 474.706 635.768C474.361 634.764 473.913 633.933 473.625 633.496C473.351 633.081 473.466 632.522 473.881 632.249ZM468.3 635.7C468.3 635.203 468.703 634.8 469.2 634.8C470.519 634.8 471.733 635.401 472.602 636.161C473.441 636.894 474.145 637.945 474.145 639C474.145 639.497 473.742 639.9 473.245 639.9C472.748 639.9 472.345 639.497 472.345 639C472.345 638.691 472.077 638.092 471.418 637.516C470.79 636.967 469.981 636.6 469.2 636.6C468.703 636.6 468.3 636.197 468.3 635.7Z" fill="#806959"/>
<path fill-rule="evenodd" clip-rule="evenodd" d="M548.119 466.149C548.534 466.423 548.649 466.981 548.375 467.396C548.086 467.833 547.639 468.665 547.294 469.668C546.947 470.676 546.726 471.79 546.823 472.816C546.87 473.31 546.506 473.749 546.011 473.796C545.516 473.843 545.077 473.479 545.031 472.985C544.901 471.61 545.199 470.225 545.592 469.082C545.987 467.936 546.501 466.967 546.872 466.404C547.146 465.99 547.704 465.875 548.119 466.149ZM550.085 470.711C549.771 471.412 549.655 472.299 549.655 472.9C549.655 473.397 549.252 473.8 548.755 473.8C548.258 473.8 547.855 473.397 547.855 472.9C547.855 472.137 547.993 470.979 548.443 469.975C548.895 468.966 549.775 467.909 551.3 467.909C551.797 467.909 552.2 468.312 552.2 468.809C552.2 469.306 551.797 469.709 551.3 469.709C550.789 469.709 550.397 470.016 550.085 470.711ZM540.384 470.808C540.214 470.811 540.015 470.813 539.824 470.797C539.329 470.755 538.961 470.32 539.003 469.824C539.045 469.329 539.481 468.961 539.976 469.003C540.064 469.011 540.18 469.011 540.349 469.008C540.382 469.007 540.418 469.007 540.455 469.006C540.592 469.003 540.752 468.999 540.912 469C541.322 469.004 541.848 469.039 542.368 469.242C542.913 469.454 543.415 469.837 543.784 470.464C544.14 471.071 544.342 471.858 544.399 472.849C544.427 473.345 544.047 473.77 543.551 473.799C543.055 473.827 542.63 473.447 542.602 472.951C542.555 472.135 542.395 471.655 542.231 471.375C542.079 471.116 541.904 470.993 541.714 470.919C541.499 470.835 541.233 470.803 540.896 470.8C540.767 470.799 540.645 470.802 540.514 470.805C540.472 470.806 540.428 470.807 540.384 470.808Z" fill="#806959"/>
<path fill-rule="evenodd" clip-rule="evenodd" d="M63.4955 632.249C63.9104 632.522 64.0248 633.081 63.751 633.496C63.6876 633.592 63.621 633.69 63.5524 633.792C62.8537 634.829 61.949 636.172 62.1228 638.015C62.1694 638.51 61.8061 638.949 61.3112 638.996C60.8163 639.043 60.3773 638.679 60.3307 638.184C60.0929 635.662 61.3673 633.797 62.0599 632.783C62.1294 632.682 62.193 632.589 62.2486 632.504C62.5224 632.089 63.0806 631.975 63.4955 632.249ZM65.3851 635.911C65.0712 636.612 64.9547 637.499 64.9547 638.1C64.9547 638.597 64.5518 639 64.0547 639C63.5577 639 63.1547 638.597 63.1547 638.1C63.1547 637.337 63.2928 636.179 63.7424 635.175C64.1945 634.166 65.0748 633.109 66.6 633.109C67.097 633.109 67.5 633.512 67.5 634.009C67.5 634.506 67.097 634.909 66.6 634.909C66.0889 634.909 65.6966 635.216 65.3851 635.911ZM54.9031 634.724C54.945 634.229 55.3804 633.861 55.8757 633.903C55.9771 633.912 56.0867 633.915 56.231 633.92C56.2435 633.92 56.2562 633.921 56.2692 633.921C56.4222 633.926 56.6069 633.932 56.7986 633.951C57.1833 633.989 57.6574 634.082 58.1138 634.364C59.0784 634.96 59.5901 636.144 59.6985 638.049C59.7267 638.545 59.3474 638.97 58.8511 638.998C58.3548 639.027 57.9297 638.647 57.9014 638.151C57.8041 636.442 57.3729 636.022 57.1676 635.896C57.039 635.816 56.8712 635.767 56.6212 635.743C56.4954 635.73 56.3644 635.725 56.2115 635.72C56.1973 635.72 56.1827 635.719 56.1678 635.719C56.0338 635.714 55.8758 635.71 55.7242 635.697C55.2289 635.655 54.8613 635.219 54.9031 634.724Z" fill="#806959"/>
<path fill-rule="evenodd" clip-rule="evenodd" d="M459.027 65.3211C458.985 64.8258 458.55 64.4582 458.054 64.5C456.514 64.6301 453.864 66.0641 453.632 70.1457C453.603 70.6419 453.983 71.0671 454.479 71.0954C454.975 71.1236 455.4 70.7442 455.429 70.248C455.608 67.1013 457.518 66.3517 458.206 66.2936C458.701 66.2518 459.069 65.8164 459.027 65.3211ZM450.215 68.3079C450.529 69.0088 450.645 69.8959 450.645 70.4968C450.645 70.9939 451.048 71.3968 451.545 71.3968C452.042 71.3968 452.445 70.9939 452.445 70.4968C452.445 69.7341 452.307 68.5757 451.858 67.5721C451.406 66.5629 450.525 65.5059 449 65.5059C448.503 65.5059 448.1 65.9089 448.1 66.4059C448.1 66.903 448.503 67.3059 449 67.3059C449.511 67.3059 449.903 67.6126 450.215 68.3079ZM476.349 73.8456C475.935 73.5719 475.376 73.6863 475.103 74.1011C474.731 74.6642 474.217 75.6323 473.822 76.7789C473.429 77.9213 473.131 79.3072 473.261 80.6813C473.308 81.1761 473.747 81.5395 474.241 81.4928C474.736 81.4462 475.1 81.0072 475.053 80.5124C474.956 79.4865 475.177 78.3724 475.524 77.3647C475.869 76.3613 476.317 75.5294 476.605 75.0925C476.879 74.6776 476.764 74.1194 476.349 73.8456ZM467.233 75.7211C467.192 76.2164 467.559 76.6518 468.054 76.6936C468.742 76.7517 470.653 77.5013 470.832 80.648C470.86 81.1442 471.285 81.5236 471.781 81.4954C472.278 81.4671 472.657 81.0419 472.629 80.5457C472.396 76.4641 469.747 75.0301 468.206 74.9C467.711 74.8582 467.275 75.2258 467.233 75.7211ZM480.43 76.5059C480.43 76.0089 480.027 75.6059 479.53 75.6059C478.005 75.6059 477.125 76.6629 476.673 77.6721C476.223 78.6757 476.085 79.8341 476.085 80.5968C476.085 81.0939 476.488 81.4968 476.985 81.4968C477.482 81.4968 477.885 81.0939 477.885 80.5968C477.885 79.9959 478.001 79.1088 478.315 78.4079C478.627 77.7126 479.019 77.4059 479.53 77.4059C480.027 77.4059 480.43 77.003 480.43 76.5059Z" fill="#806959"/>
<path fill-rule="evenodd" clip-rule="evenodd" d="M85.4032 63.8243C85.445 63.329 85.8805 62.9614 86.3757 63.0032C87.9163 63.1334 90.5662 64.5674 90.7985 68.6489C90.8268 69.1452 90.4474 69.5704 89.9511 69.5986C89.4549 69.6268 89.0297 69.2474 89.0015 68.7512C88.8223 65.6045 86.9122 64.855 86.2243 64.7969C85.729 64.755 85.3614 64.3196 85.4032 63.8243ZM94.2153 66.8112C93.9013 67.5121 93.7849 68.3991 93.7849 69.0001C93.7849 69.4971 93.3819 69.9001 92.8849 69.9001C92.3878 69.9001 91.9849 69.4971 91.9849 69.0001C91.9849 68.2374 92.123 67.079 92.5726 66.0753C93.0246 65.0661 93.9049 64.0091 95.4301 64.0091C95.9271 64.0091 96.3301 64.4121 96.3301 64.9091C96.3301 65.4062 95.9271 65.8091 95.4301 65.8091C94.919 65.8091 94.5267 66.1158 94.2153 66.8112ZM68.0807 72.3489C68.4956 72.0751 69.0539 72.1895 69.3276 72.6044C69.6992 73.1674 70.2135 74.1355 70.6081 75.2822C71.0013 76.4245 71.2988 77.8104 71.1693 79.1845C71.1226 79.6794 70.6836 80.0427 70.1888 79.9961C69.6939 79.9494 69.3306 79.5104 69.3772 79.0156C69.4739 77.9897 69.2529 76.8756 68.9061 75.868C68.5608 74.8646 68.1136 74.0327 67.8252 73.5957C67.5515 73.1809 67.6659 72.6226 68.0807 72.3489ZM77.1968 74.2243C77.2386 74.7196 76.871 75.155 76.3757 75.1969C75.6878 75.255 73.7777 76.0045 73.5985 79.1512C73.5703 79.6475 73.1451 80.0268 72.6489 79.9986C72.1526 79.9704 71.7732 79.5452 71.8015 79.0489C72.0338 74.9674 74.6837 73.5334 76.2243 73.4032C76.7195 73.3614 77.155 73.729 77.1968 74.2243ZM64 75.0091C64 74.5121 64.4029 74.1091 64.9 74.1091C66.4251 74.1091 67.3054 75.1661 67.7575 76.1753C68.2071 77.179 68.3452 78.3374 68.3452 79.1001C68.3452 79.5971 67.9423 80.0001 67.4452 80.0001C66.9481 80.0001 66.5452 79.5971 66.5452 79.1001C66.5452 78.4991 66.4288 77.6121 66.1148 76.9112C65.8033 76.2158 65.411 75.9091 64.9 75.9091C64.4029 75.9091 64 75.5062 64 75.0091Z" fill="#806959"/>
<path d="M394.635 25.5307C394.635 32.9079 434.279 44.8437 454.1 49.8895H323.522H228.5C251.527 43.6769 267.839 33.595 278.916 23.2688C286.949 15.7802 292.23 8.16307 295.322 1.80002C300.227 1.80002 316.779 2.84397 323.522 2.84397C328.917 2.84397 338.44 2.148 342.527 1.80002C344.304 8.98997 357.964 14.9211 366.441 21.2793C367.318 21.9373 368.14 22.5998 368.887 23.2688C375.263 25.6351 388.709 25.7627 394.635 25.5307Z" fill="#DEC9B6"/>
<path fill-rule="evenodd" clip-rule="evenodd" d="M342.399 0.30542C343.134 0.242842 343.806 0.723908 343.983 1.43997C344.334 2.86102 345.31 4.34758 346.883 5.92323C348.445 7.48895 350.492 9.04025 352.812 10.609C354.695 11.8824 356.711 13.1374 358.752 14.4072C359.225 14.7013 359.699 14.9962 360.173 15.2923C362.674 16.8551 365.165 18.4476 367.341 20.0793C368.16 20.6939 368.941 21.3188 369.667 21.9553C373.362 23.249 379.56 23.836 385.306 24.0316C388.957 24.1558 392.326 24.1199 394.576 24.0318C394.984 24.0159 395.381 24.1667 395.675 24.4495C395.969 24.7323 396.135 25.1227 396.135 25.5307C396.135 25.7989 396.348 26.4144 397.398 27.3891C398.393 28.3126 399.899 29.3355 401.867 30.428C405.791 32.6064 411.28 34.9161 417.45 37.1759C429.775 41.6891 444.588 45.9202 454.47 48.4358C455.273 48.6402 455.758 49.4567 455.554 50.2595C455.35 51.0623 454.533 51.5475 453.73 51.3431C443.791 48.813 428.872 44.5533 416.419 39.9929C410.201 37.7159 404.54 35.343 400.411 33.0509C398.353 31.9082 396.607 30.7488 395.357 29.5878C394.569 28.8565 393.855 28.0117 393.459 27.0695C391.699 27.1156 389.511 27.1302 387.137 27.0821C387.694 29.2023 388.667 31.8754 390.124 34.396C392.048 37.7227 394.706 40.5974 398.181 41.7725C398.966 42.0379 399.387 42.8892 399.121 43.674C398.856 44.4588 398.005 44.8798 397.22 44.6144C392.775 43.1112 389.634 39.5403 387.527 35.898C385.721 32.7753 384.594 29.4629 384.023 26.9844C378.667 26.7547 372.736 26.1678 368.826 24.8387C367.591 25.1561 365.633 25.5537 363.174 25.8822C362.933 27.4825 362.494 29.6092 361.81 31.8364C360.944 34.6579 359.65 37.7609 357.784 40.1582C357.275 40.8119 356.333 40.9292 355.679 40.4203C355.025 39.9114 354.908 38.969 355.417 38.3153C356.963 36.3298 358.125 33.62 358.942 30.9561C359.473 29.2286 359.843 27.5709 360.078 26.2265C357.984 26.4139 355.651 26.5321 353.166 26.5184C348.848 33.4656 339.19 47.4215 323.895 51.3425C323.092 51.5482 322.275 51.0644 322.069 50.2619C321.863 49.4595 322.347 48.6422 323.15 48.4365C337.708 44.7045 346.957 30.9146 351.056 24.225C351.334 23.7719 351.83 23.4995 352.362 23.5089C355.82 23.5703 359.005 23.3575 361.662 23.048C363.061 22.8849 364.307 22.6958 365.364 22.5074C363.806 22.0282 361.564 21.5147 359.329 21.3524C356.702 21.1617 354.498 21.4886 353.261 22.4592C351.854 23.5642 349.999 24.0034 348.172 24.1265C346.319 24.2514 344.309 24.0628 342.422 23.748C338.646 23.1185 335.13 21.9444 333.867 21.4638C332.261 20.853 330.183 21.2764 325.334 24.516C323.582 25.6863 321.557 26.1182 319.553 26.0962C318.631 28.6794 316.813 33.1229 314.654 36.4081C314.199 37.1004 313.269 37.2929 312.577 36.838C311.884 36.383 311.692 35.453 312.147 34.7606C313.962 31.998 315.564 28.2321 316.491 25.7365C312.944 24.9679 309.553 23.0788 307.555 21.1375C305.732 19.3658 303.399 19.1408 302.078 19.2805C299.969 22.802 295.525 24.3072 291.337 24.9101C287.094 25.521 282.558 25.2892 279.408 24.8572C268.159 35.182 251.783 45.1615 228.891 51.3377C228.091 51.5535 227.268 51.08 227.052 50.2802C226.836 49.4804 227.31 48.657 228.11 48.4413C250.908 42.2902 267.001 32.3254 277.893 22.1716C285.798 14.8029 290.965 7.3337 293.973 1.14436C294.224 0.627867 294.748 0.300012 295.322 0.300012C297.617 0.300012 302.376 0.522818 307.451 0.76043C307.9 0.781424 308.35 0.802534 308.802 0.823616C314.412 1.08531 320.194 1.34396 323.522 1.34396C328.846 1.34396 338.31 0.653612 342.399 0.30542ZM282.242 22.1431C284.862 22.3472 287.983 22.3621 290.91 21.9407C295.241 21.3173 298.538 19.8326 299.745 17.2882C299.936 16.8856 300.296 16.5889 300.728 16.4782C302.457 16.0351 306.516 15.945 309.646 18.9861C311.524 20.8111 315.165 22.708 318.645 23.0449C320.575 23.2317 322.313 22.9263 323.667 22.0216C328.418 18.8472 331.739 17.4445 334.934 18.6599C336.071 19.0924 339.389 20.201 342.915 20.7889C344.678 21.0829 346.436 21.2367 347.97 21.1333C349.531 21.0281 350.684 20.6684 351.409 20.0994C353.547 18.4212 356.682 18.1689 359.403 18.3503C359.131 18.1793 358.858 18.0081 358.583 17.8364C358.121 17.5477 357.655 17.2579 357.187 16.967C355.144 15.6953 353.066 14.4027 351.131 13.0941C348.754 11.4866 346.523 9.80958 344.759 8.04235C343.344 6.62373 342.16 5.07884 341.473 3.39238C336.938 3.75879 328.514 4.34396 323.522 4.34396C320.107 4.34396 314.241 4.08063 308.663 3.82036C308.226 3.8 307.792 3.77966 307.36 3.75948C302.863 3.549 298.7 3.3542 296.247 3.30956C293.351 9.01726 288.799 15.5883 282.242 22.1431Z" fill="#806959"/>
<path fill-rule="evenodd" clip-rule="evenodd" d="M381.2 35.6062C382.029 35.6062 382.7 36.2778 382.7 37.1062C382.7 37.4856 382.839 38.0884 383.206 38.8786C383.562 39.647 384.091 40.4997 384.754 41.3511C386.092 43.0702 387.871 44.6443 389.646 45.4922C390.394 45.8491 390.711 46.7445 390.354 47.4921C389.997 48.2397 389.102 48.5564 388.354 48.1995C386.05 47.0994 383.928 45.1734 382.387 43.1944C381.61 42.1969 380.953 41.1511 380.484 40.1409C380.026 39.1524 379.7 38.0964 379.7 37.1062C379.7 36.2778 380.372 35.6062 381.2 35.6062Z" fill="#806959"/>
<path fill-rule="evenodd" clip-rule="evenodd" d="M308.213 31.1308C308.991 31.4136 309.393 32.2741 309.111 33.0527C308.737 34.0812 308.033 35.7444 307.111 37.4706C306.198 39.1802 305.018 41.0518 303.669 42.4203C303.087 43.0103 302.138 43.0171 301.548 42.4356C300.958 41.854 300.951 40.9043 301.532 40.3143C302.583 39.2479 303.603 37.67 304.465 36.057C305.318 34.4606 305.964 32.928 306.291 32.0288C306.573 31.2501 307.434 30.8481 308.213 31.1308Z" fill="#806959"/>
<path fill-rule="evenodd" clip-rule="evenodd" d="M301.364 17.6179C302.041 18.0948 302.204 19.0305 301.727 19.7079C299.668 22.6325 295.878 27.2186 291.135 31.5756C286.408 35.9192 280.626 40.1351 274.581 42.1795C273.796 42.4449 272.945 42.0239 272.68 41.2391C272.414 40.4543 272.835 39.603 273.62 39.3376C279.095 37.4862 284.513 33.5857 289.106 29.3665C293.683 25.1607 297.333 20.7377 299.274 17.9808C299.751 17.3035 300.687 17.1409 301.364 17.6179Z" fill="#806959"/>
</g>
<defs>
<clipPath id="clip0_131_1625">
<rect width="600" height="660" fill="white"/>
</clipPath>
</defs>
</svg>
