<svg width="1000" height="880" viewBox="0 0 1000 880" fill="none" xmlns="http://www.w3.org/2000/svg">
<g clip-path="url(#clip0_122_55)">
<path d="M2.5 280.82C2.5 276.678 5.85786 273.32 9.99999 273.32H53.3333C60.2369 273.32 65.8333 267.724 65.8333 260.82V80.6C65.8333 76.4579 69.1912 73.1 73.3333 73.1H359.167C366.07 73.1 371.667 67.5036 371.667 60.6V38C371.667 33.8579 375.025 30.5 379.167 30.5H805C809.142 30.5 812.5 33.8579 812.5 38V131.955C812.5 138.859 818.096 144.455 825 144.455H945C949.142 144.455 952.5 147.813 952.5 151.955V203.31C952.5 210.214 958.096 215.81 965 215.81H990C994.142 215.81 997.5 219.168 997.5 223.31V384.36C997.5 388.502 994.142 391.86 990 391.86H957.5C950.596 391.86 945 397.456 945 404.36V692.145C945 696.287 941.642 699.645 937.5 699.645H917.5C910.596 699.645 905 705.241 905 712.145V870C905 874.142 901.642 877.5 897.5 877.5H33C28.8579 877.5 25.5 874.142 25.5 870V761.135C25.5 754.231 19.9036 748.635 13 748.635H10C5.85787 748.635 2.5 745.277 2.5 741.135V280.82Z" fill="#DEC9B6" stroke="#806959" stroke-width="5" stroke-linejoin="round"/>
<path d="M162.692 60.6017C165.864 63.1156 168.491 67.0496 169.709 69.2725C170.016 69.8337 170.174 70.4239 170.209 71.0301C176.728 69.2658 185.559 56.3707 180.632 47.6387C175.376 38.324 162.374 40.7997 157.89 43.2346C161.828 43.1749 174.566 43.7747 174.42 50.269C174.275 56.7632 166.541 59.8634 162.692 60.6017Z" fill="#DEC9B6"/>
<path fill-rule="evenodd" clip-rule="evenodd" d="M138.894 76.8284L138.786 76.8458C131.059 79.8752 129.845 82.9461 132.487 87.2126C134.614 90.6469 138.224 93.7157 140.296 95.1854C140.819 95.5564 141.389 95.7832 141.99 95.8917C145.657 96.5538 149.772 95.0446 151.989 92.7658C154.021 93.9358 153.869 95.6059 156.946 98.3308C157.21 98.5642 157.497 98.786 157.801 98.9989C161.913 98.7038 166.557 98.9005 168.909 100.237C171.116 101.491 174.164 102.076 177.066 101.992C177.343 101.1 177.445 100.126 177.343 99.1176C176.914 94.9009 177.237 95.1576 174.897 94.4517C173.224 92.5734 172.55 88.5407 170.84 86.0901C168.491 82.7236 166.806 82.6725 165.883 80.5251C168.425 78.6112 170.428 74.7307 170.209 71.0301C170.174 70.4239 170.016 69.8337 169.709 69.2725C168.491 67.0496 165.864 63.1156 162.692 60.6017C158.752 57.4787 155.54 58.307 151.584 65.5708L151.554 65.675C149.432 72.9743 146.88 75.5423 138.894 76.8284ZM151.331 85.9551C151.366 87.8623 151.244 90.1661 149.449 90.9982C146.381 91.1339 140.453 87.8422 143.842 87.2662C146.914 86.7443 150.452 86.8887 151.331 85.9551ZM159.803 78.4912C161.703 78.7552 164.017 78.9129 165.064 77.2416C165.57 74.2288 162.999 67.9795 162.015 71.2561C161.124 74.2253 160.841 77.7362 159.803 78.4912ZM166.589 95.237C165.881 95.8605 167.794 98.3624 168.839 99.5355L169.027 97.9741L170.608 97.9768C169.564 96.8037 167.297 94.6136 166.589 95.237Z" fill="#DEC9B6"/>
<path d="M165.064 77.2416C164.017 78.9129 161.703 78.7552 159.803 78.4912C160.841 77.7362 161.124 74.2253 162.015 71.2561C162.999 67.9795 165.57 74.2288 165.064 77.2416Z" fill="#DEC9B6"/>
<path d="M149.449 90.9982C151.244 90.1661 151.366 87.8623 151.331 85.9551C150.452 86.8887 146.914 86.7443 143.842 87.2662C140.453 87.8422 146.381 91.1339 149.449 90.9982Z" fill="#DEC9B6"/>
<path d="M140.296 95.1854C138.224 93.7157 134.614 90.6469 132.487 87.2126C131.286 90.9231 127.258 98.1845 120.758 97.5453C114.258 96.9062 115.196 84.2581 115.73 80.3769C113.149 83.9676 109.762 93.9009 114.597 100.585C122.773 101.215 132.95 100.833 135.818 95.5357C137.128 96.187 138.939 97.029 140.859 97.8282C141.344 97.1829 141.727 96.5323 141.99 95.8917C141.389 95.7832 140.819 95.5564 140.296 95.1854Z" fill="#DEC9B6"/>
<path d="M111 100.237C112.129 100.368 113.339 100.488 114.597 100.585M189 100.237C188.409 99.4535 186.518 98.3565 183.682 100.237C182.028 101.333 179.603 101.918 177.066 101.992M132.487 87.2126C134.614 90.6469 138.224 93.7157 140.296 95.1854C140.819 95.5564 141.389 95.7832 141.99 95.8917M132.487 87.2126C129.845 82.9461 131.059 79.8752 138.786 76.8458L138.894 76.8284C146.88 75.5423 149.432 72.9743 151.554 65.675L151.584 65.5708C155.54 58.307 158.752 57.4787 162.692 60.6017M132.487 87.2126C131.286 90.9232 127.258 98.1845 120.758 97.5453C114.258 96.9062 115.196 84.2581 115.73 80.3769C113.149 83.9676 109.762 93.9009 114.597 100.585M141.99 95.8917C145.657 96.5538 149.772 95.0446 151.989 92.7658C154.021 93.9358 153.869 95.6059 156.946 98.3308C157.21 98.5642 157.497 98.786 157.801 98.9989M141.99 95.8917C141.727 96.5323 141.344 97.1829 140.859 97.8282M162.692 60.6017C165.864 63.1156 168.491 67.0496 169.709 69.2725C170.016 69.8337 170.174 70.4239 170.209 71.0301M162.692 60.6017C166.541 59.8634 174.275 56.7632 174.42 50.269C174.566 43.7747 161.828 43.1749 157.89 43.2346C162.374 40.7997 175.376 38.324 180.632 47.6387C185.559 56.3707 176.728 69.2658 170.209 71.0301M170.209 71.0301C170.428 74.7307 168.425 78.6112 165.883 80.5251C166.806 82.6725 168.491 82.7236 170.84 86.0901C172.55 88.5407 173.224 92.5734 174.897 94.4517C177.237 95.1576 176.914 94.9009 177.343 99.1176C177.445 100.126 177.343 101.1 177.066 101.992M157.801 98.9989C154.68 99.2228 151.866 99.7299 150.591 100.237C149.013 100.865 144.715 99.4325 140.859 97.8282M157.801 98.9989C161.913 98.7038 166.557 98.9005 168.909 100.237C171.116 101.491 174.164 102.076 177.066 101.992M140.859 97.8282C138.939 97.029 137.128 96.187 135.818 95.5357C132.95 100.833 122.773 101.215 114.597 100.585M149.449 90.9982C151.244 90.1661 151.366 87.8623 151.331 85.9551C150.452 86.8887 146.914 86.7443 143.842 87.2662C140.453 87.8422 146.381 91.1339 149.449 90.9982ZM165.064 77.2416C164.017 78.9129 161.703 78.7552 159.803 78.4912C160.841 77.7362 161.124 74.2253 162.015 71.2561C162.999 67.9795 165.57 74.2288 165.064 77.2416ZM168.839 99.5355C167.794 98.3625 165.881 95.8605 166.589 95.237C167.297 94.6136 169.564 96.8037 170.608 97.9768L169.027 97.9741L168.839 99.5355Z" stroke="#806959" stroke-width="3" stroke-linecap="round" stroke-linejoin="round"/>
<path d="M916.58 319.361C917.786 321.452 923.211 325.723 925.019 326.321C926.828 326.918 934.363 328.32 933.157 330.708C931.951 333.097 931.211 337.247 929.389 343.074C931.963 349.63 931.349 352.208 931.349 354C932.554 353.761 934.664 353.9 935.568 354C937.738 353.522 940.692 353.801 941.897 354C940.089 351.113 935.531 349.244 935.772 342.794C936.013 336.344 939.717 328.406 940.42 328.506C940.556 328.192 940.351 328.641 940.42 327.777C942.609 327.727 947.081 326.332 950.939 321.376M916.58 319.361C914.37 319.361 910.974 319.958 910.251 317.57C907.84 317.271 903.524 316.338 903.283 314.666C902.982 312.576 900.004 310.702 906.634 310.104C901.912 309.408 894.784 307.233 899.606 305.561C912.975 300.925 899.203 302.29 910.251 298.641C914.772 297.148 912.361 295.771 916.882 295.771C921.403 295.771 922.307 298.757 925.321 296.368C928.335 293.979 929.54 288.771 933.157 290.265C936.774 291.758 947.925 298.16 950.035 297.264C952.145 296.368 954.255 296.966 961.488 300.25C968.722 303.535 958.474 303.535 960.885 304.431C963.296 305.327 964.502 305.758 969.927 306.654C974.267 307.37 973.315 308.91 971.306 310.104C970.502 311.398 968.316 313.436 965.423 312.481C961.806 311.286 964.404 313.334 963.5 316.077C962.996 317.605 959.244 320.802 956.23 319.906C955.934 319.818 951.246 321.534 950.939 321.376M916.58 319.361C917.837 318.863 921.4 319.819 923.773 318.764M923.773 318.764C924.244 318.554 924.669 318.265 925.019 317.868C926.273 316.449 929.044 317.028 931.211 317.868M923.773 318.764C923.731 320.257 925.441 322.744 927.551 323.043C929.239 323.282 934.162 323.144 934.965 323.542C933.831 322.546 931.491 320.018 931.211 317.868M948.721 319.906C946.519 318.26 944.223 316.366 942.199 317.57C940.37 318.352 938.796 319.372 937.111 319.657M948.721 319.906C944.61 324.139 941.562 323.637 940.42 323.771C939.64 322.627 937.38 320.736 937.111 319.657M948.721 319.906C949.476 320.47 950.221 321.005 950.939 321.376M931.211 317.868C931.961 318.16 932.64 318.482 933.157 318.764C934.624 319.686 935.896 319.863 937.111 319.657" stroke="#806959" stroke-width="3" stroke-linecap="round" stroke-linejoin="round"/>
<path d="M862.991 791C865.45 787.037 877.336 782 869.958 768.043C865.817 760.209 865.177 758.887 864.22 759.024C864.036 758.593 866.277 756.11 866.183 754.924C863.206 754.855 855.941 753.015 850.695 746.211C850.279 746.429 849.868 746.605 849.466 746.725C845.367 747.955 840 740.986 837.58 744.266C836.27 746.042 837.99 736.067 833.072 737.707C829.137 739.018 825.968 738.253 824.875 736.477C822.142 734.837 818.153 731.311 824.055 730.327C831.432 729.098 833.891 724.178 837.17 722.948C840.449 721.719 824.514 719.719 834.351 715.209C844.187 710.7 847.056 709.88 849.925 711.11C852.791 712.338 861.747 708.606 866.668 706.555L866.679 706.55C871.598 704.501 881.434 708.6 885.533 711.88C889.631 715.159 887.861 712.06 894.008 712.06C900.156 712.06 902.205 714.929 908.353 716.979C914.501 719.029 920.37 716.389 913.812 718.849C907.255 721.309 913.812 722.128 922.009 724.998C928.567 727.294 914.676 731.348 908.255 732.305C917.272 733.125 914.222 741.324 913.812 744.193C913.484 746.489 909.304 740.576 906.025 740.986C905.041 744.266 900.424 743.446 897.418 743.446C895.779 746.315 884.713 750.415 882.254 751.235C879.795 752.055 873.237 755.744 874.876 759.024C876.516 762.304 877.541 767.578 880 773C882.709 778.974 877.336 788.54 877.336 791C875.696 790.672 872.827 790.863 871.598 791C868.647 790.344 864.63 790.727 862.991 791Z" fill="#DEC9B6"/>
<path d="M897.418 743.446C895.779 746.315 884.713 750.415 882.254 751.235C879.795 752.055 873.237 755.744 874.876 759.024C876.516 762.304 877.541 767.578 880 773C882.709 778.974 877.336 788.54 877.336 791C875.696 790.672 872.827 790.863 871.598 791C868.647 790.344 864.63 790.727 862.991 791C865.45 787.037 877.336 782 869.958 768.043C865.817 760.209 865.177 758.887 864.22 759.024C864.036 758.593 866.276 756.11 866.183 754.924C863.206 754.855 855.941 753.015 850.695 746.211M897.418 743.446C900.424 743.446 905.041 744.266 906.025 740.986C909.304 740.576 913.484 746.489 913.812 744.193C914.222 741.324 917.272 733.125 908.255 732.305C914.676 731.348 928.567 727.294 922.009 724.998C913.812 722.128 907.255 721.309 913.812 718.849C920.37 716.389 914.501 719.029 908.353 716.979C902.205 714.929 900.156 712.06 894.008 712.06C887.861 712.06 889.631 715.159 885.533 711.88C881.434 708.6 871.598 704.501 866.679 706.55C861.761 708.6 852.794 712.339 849.925 711.11C847.056 709.88 844.187 710.7 834.351 715.209C824.514 719.719 840.449 721.719 837.17 722.948C833.891 724.178 831.432 729.098 824.055 730.327C818.153 731.311 822.142 734.837 824.875 736.477C825.968 738.253 829.137 739.018 833.072 737.707C837.99 736.067 836.27 746.042 837.58 744.266C840 740.986 845.367 747.955 849.466 746.725C849.868 746.605 850.279 746.429 850.695 746.211M897.418 743.446C895.709 742.762 890.863 744.074 887.638 742.626M864.22 742.031C863.71 741.694 863.171 741.34 862.581 740.986C859.829 739.334 856.707 741.935 853.712 744.193M864.22 742.031C866.15 743.306 867.665 744.336 869.958 744.193M864.22 742.031C866.177 745.237 866.276 747.282 865.86 750.415C864.307 750.23 859.302 750.005 853.712 744.193M869.958 744.193C871.269 744.112 872.834 743.647 874.876 742.626C877.609 741.123 883.647 738.772 885.942 741.396C886.418 741.94 886.996 742.338 887.638 742.626M869.958 744.193C869.685 745.584 869.794 748.529 872.417 749.185C873.51 748.639 876.27 747.463 878.565 747.135C881.434 746.725 887.694 744.676 887.638 742.626M853.712 744.193C852.685 744.968 851.672 745.702 850.695 746.211" stroke="#806959" stroke-width="3" stroke-linecap="round" stroke-linejoin="round"/>
<path d="M851.451 823.67C850.368 825.561 843.063 828.262 841.439 828.802C839.816 829.342 835.487 831.773 836.569 833.933C837.651 836.094 838.192 839.335 838.192 844.737C838.192 849.058 838.192 853.379 838.192 855C837.11 854.784 835.216 854.91 834.404 855C832.456 854.568 829.804 854.82 828.722 855C830.346 852.389 833.538 845.709 833.322 839.875C833.105 834.041 831.789 832.763 831.157 832.853C831.035 832.569 830.891 832.014 830.829 831.233C828.864 831.187 824.068 829.975 820.605 825.492M851.451 823.67C853.435 823.67 856.484 824.21 857.133 822.05C859.298 821.78 863.681 820.861 863.898 819.349C864.168 817.458 866.333 815.838 860.38 815.298C864.619 814.667 872.015 813.029 867.686 811.516C862.274 809.626 857.945 809.086 862.274 807.465C866.603 805.845 864.709 806.925 860.651 805.575C856.592 804.224 855.239 802.334 851.18 802.334C847.122 802.334 846.31 805.034 843.604 802.874C840.898 800.713 834.404 798.012 831.157 799.363C827.91 800.713 823.31 804.494 821.416 803.684C819.522 802.874 817.628 803.414 811.134 806.385C804.64 809.356 813.84 809.356 811.675 810.166C809.511 810.976 807.887 814.217 803.017 815.028C799.121 815.676 801.754 817.998 803.558 819.079C804.28 820.249 806.372 820.753 808.97 819.889C812.217 818.809 813.299 823.67 811.946 824.21C810.593 824.751 817.087 826.641 819.793 825.831C820.059 825.751 820.33 825.635 820.605 825.492M851.451 823.67C850.322 823.22 847.123 824.084 844.994 823.13M829.534 822.738C829.197 822.516 828.841 822.283 828.451 822.05C826.634 820.961 824.573 822.675 822.596 824.163M829.534 822.738C830.808 823.578 831.808 824.257 833.322 824.163M829.534 822.738C830.826 824.85 830.891 826.198 830.616 828.262C829.591 828.14 826.287 827.992 822.596 824.163M833.322 824.163C834.187 824.109 835.221 823.803 836.569 823.13C838.373 822.14 842.359 820.591 843.875 822.32C844.189 822.678 844.57 822.94 844.994 823.13M833.322 824.163C833.142 825.079 833.214 827.019 834.945 827.451C835.667 827.091 837.489 826.317 839.004 826.101C840.898 825.831 845.031 824.48 844.994 823.13M822.596 824.163C821.918 824.673 821.25 825.157 820.605 825.492" stroke="#806959" stroke-width="3" stroke-linecap="round" stroke-linejoin="round"/>
<path d="M51.5819 709.446C53.2213 712.315 64.2872 716.415 66.7463 717.235C69.2054 718.055 75.763 721.744 74.1236 725.024C72.4842 728.304 71.6645 733.223 71.6645 741.422C71.6645 747.981 71.6645 754.54 71.6645 757C73.3039 756.672 76.1728 756.863 77.4024 757C80.3533 756.344 84.3698 756.727 86.0092 757C83.5501 753.037 78.7139 742.898 79.0418 734.043C79.3697 725.188 81.3643 723.247 82.3206 723.384C82.5054 722.953 82.7235 722.11 82.8172 720.924C85.7938 720.855 93.0586 719.015 98.3047 712.211M51.5819 709.446C48.5763 709.446 43.9587 710.266 42.975 706.986C39.6962 706.576 33.0566 705.182 32.7288 702.887C32.3189 700.017 29.0401 697.557 38.0568 696.737C31.6358 695.781 20.4333 693.294 26.9909 690.998C35.1879 688.128 41.7455 687.309 35.1879 684.849C28.6303 682.389 31.4992 684.029 37.647 681.979C43.7947 679.929 45.844 677.06 51.9917 677.06C58.1395 677.06 59.369 681.159 63.4675 677.88C67.566 674.6 77.4024 670.501 82.3206 672.55C87.2388 674.6 94.2062 680.339 97.0752 679.11C99.9441 677.88 102.813 678.7 112.649 683.209C122.486 687.719 108.551 687.719 111.83 688.948C115.109 690.178 117.568 695.098 124.945 696.327C130.847 697.311 126.858 700.837 124.125 702.477C123.032 704.253 119.863 705.018 115.928 703.707C111.01 702.067 109.371 709.446 111.42 710.266C113.469 711.086 103.633 713.955 99.5343 712.725C99.1318 712.605 98.7214 712.429 98.3047 712.211M51.5819 709.446C53.2911 708.762 58.1365 710.074 61.3622 708.626M84.7797 708.031C85.2898 707.694 85.829 707.34 86.4191 706.986C89.1713 705.334 92.2933 707.935 95.2884 710.193M84.7797 708.031C82.8499 709.306 81.3345 710.336 79.0418 710.193M84.7797 708.031C82.8226 711.237 82.7239 713.282 83.1403 716.415C84.6934 716.23 89.6979 716.005 95.2884 710.193M79.0418 710.193C77.7308 710.112 76.1657 709.647 74.1236 708.626C71.3913 707.123 65.3528 704.772 63.0576 707.396C62.5816 707.94 62.0039 708.338 61.3622 708.626M79.0418 710.193C79.315 711.584 79.2057 714.529 76.5827 715.185C75.4897 714.639 72.7301 713.463 70.4349 713.135C67.566 712.725 61.3061 710.676 61.3622 708.626M95.2884 710.193C96.3154 710.968 97.3275 711.702 98.3047 712.211" stroke="#806959" stroke-width="3" stroke-linecap="round" stroke-linejoin="round"/>
<path d="M232.5 83C232.5 85.5 233.5 92 236 94.5M227 90.5C228 92.5 228.5 93 231 94.5M242.873 84.5C241.773 86.1667 239.668 90.5 240.045 94.5M244.758 94.5C244.758 92.2273 245.606 87.6818 249 87.6818" stroke="#806959" stroke-width="3" stroke-linecap="round" stroke-linejoin="round"/>
<path d="M886 259C887.857 259.157 891.657 260.976 892 267M898.873 257C897.773 258.667 895.668 263 896.045 267M900.758 267C900.758 264.727 901.606 260.182 905 260.182" stroke="#806959" stroke-width="3" stroke-linecap="round" stroke-linejoin="round"/>
<path d="M773.627 845C774.727 846.667 776.832 851 776.455 855M771.742 855C771.742 852.727 768.5 849.5 765 849.5" stroke="#806959" stroke-width="3" stroke-linecap="round" stroke-linejoin="round"/>
<path d="M895 667C896.857 667.157 900.657 665.976 901 672M907.873 662C906.773 663.667 904.668 668 905.045 672M909.758 672C909.758 669.727 910.606 665.182 914 665.182" stroke="#806959" stroke-width="3" stroke-linecap="round" stroke-linejoin="round"/>
<path d="M85 821C86.8571 821.157 89.6571 820.476 90 826.5M96.9998 818C95.9 819.667 93.6676 822.5 94.0446 826.5M98.758 826.5C98.758 824.227 99.6064 819.682 103 819.682" stroke="#806959" stroke-width="3" stroke-linecap="round" stroke-linejoin="round"/>
<path d="M59 333C57.1429 333.157 53.3429 334.976 53 341M46.1274 331C47.2272 332.667 49.3324 337 48.9554 341M44.242 341C44.242 338.727 43.3936 334.182 40 334.182M79 284C80.8571 284.157 84.6571 285.976 85 292M89.9748 292.5C89.9748 290.227 90.8232 285.682 94.2168 285.682" stroke="#806959" stroke-width="3" stroke-linecap="round" stroke-linejoin="round"/>
<path d="M688.891 42.5511C688.891 54.8465 754.964 74.7395 788 83.1491H570.37H412C450.377 72.7949 477.563 55.9917 496.026 38.7813C509.415 26.3003 518.216 13.6051 523.37 3C531.543 3 559.13 4.73991 570.37 4.73991C579.361 4.73991 595.232 3.57997 602.043 3C605.006 14.9833 627.772 24.8684 641.901 35.4655C643.363 36.5621 644.733 37.6663 645.978 38.7813C656.604 42.7251 679.014 42.9378 688.891 42.5511Z" fill="#DEC9B6"/>
<path d="M788 83.1491C754.964 74.7395 688.891 54.8465 688.891 42.5511C685.08 42.7003 679.404 42.7603 673.258 42.5511M645.978 38.7813C644.733 37.6663 643.363 36.5621 641.901 35.4655M645.978 38.7813C643.919 39.3656 639.742 40.2536 634.225 40.8964M645.978 38.7813C652.504 41.2034 663.475 42.2182 673.258 42.5511M412 83.1491C450.377 72.7949 477.564 55.9917 496.026 38.7813M570.37 83.1491C595.709 76.6534 611.58 52.7973 618.391 41.6812C624.282 41.7857 629.703 41.4234 634.225 40.8964M496.026 38.7813C509.415 26.3003 518.216 13.6051 523.37 3C531.543 3 559.13 4.73991 570.37 4.73991C579.361 4.73991 595.232 3.57997 602.043 3C605.006 14.9833 627.772 24.8684 641.901 35.4655M496.026 38.7813C506.184 40.3815 527.8 40.8425 533 29.8855C535.333 29.2874 541.1 29.1604 545.5 33.4364C549.02 36.8573 555.613 40.2782 562 40.8964M641.901 35.4655C636.434 33.6055 624.078 31.0015 618.391 35.4655C611.283 41.0455 592.5 34.9582 588.5 33.4364C584.5 31.9145 580 33.4364 572 38.7813C569.12 40.7053 565.593 41.2442 562 40.8964M562 40.8964C560.833 44.497 557.5 53.22 553.5 59.3073M634.225 40.8964C633.686 46.0188 631.187 58.0898 625.5 65.3945M673.258 42.5511C674.672 50.5038 680.8 67.5251 694 71.9891" stroke="#806959" stroke-width="5" stroke-linecap="round" stroke-linejoin="round"/>
<path d="M666.5 61.8436C666.5 66.4091 672.7 74.8298 679.5 78.0764" stroke="#806959" stroke-width="5" stroke-linecap="round" stroke-linejoin="round"/>
<path d="M544 54.2346C542.833 57.4473 539.5 64.8873 535.5 68.9455" stroke="#806959" stroke-width="5" stroke-linecap="round" stroke-linejoin="round"/>
<path d="M532 31.4073C525.333 40.8764 507.2 61.4378 488 67.9309" stroke="#806959" stroke-width="5" stroke-linecap="round" stroke-linejoin="round"/>
</g>
<defs>
<clipPath id="clip0_122_55">
<rect width="1000" height="880" fill="white"/>
</clipPath>
</defs>
</svg>
