<svg width="55" height="60" viewBox="0 0 55 60" fill="none" xmlns="http://www.w3.org/2000/svg">
<path d="M2.8374 47.7505C3.75254 47.7505 4.57617 48.4826 4.57617 49.4893C4.57617 50.4959 3.84406 51.228 2.8374 51.228C1.83075 51.228 1.09863 50.4959 1.09863 49.4893C1.19015 48.4826 1.92226 47.7505 2.8374 47.7505Z" fill="white"/>
<path d="M50.3328 43.1748C51.614 43.1748 52.6206 44.1815 52.6206 45.4627C52.6206 46.7439 51.614 47.7505 50.3328 47.7505C49.0516 47.7505 48.0449 46.7439 48.0449 45.4627C48.0449 44.1815 49.0516 43.1748 50.3328 43.1748Z" fill="white"/>
<path d="M16.0152 6.56909H11.4395V10.0466H16.0152V6.56909Z" fill="white"/>
<path d="M11.4395 6.5691V9.95513H5.76562V4.28125H11.4395V6.5691Z" fill="white"/>
<path d="M17.2047 9.95508V16.8186H3.47754V9.95508H5.76539H11.4393H16.015H17.2047Z" fill="#EAFFB6"/>
<path d="M45.7573 9.95508C48.3197 9.95508 50.3331 11.9684 50.3331 14.5308C50.3331 17.0932 48.3197 19.1065 45.7573 19.1065C43.195 19.1065 41.1816 17.0932 41.1816 14.5308C43.744 14.5308 45.7573 12.5175 45.7573 9.95508Z" fill="#A1C0FF"/>
<path d="M53.8104 31.7354V35.1214H51.5225H42.3711V31.7354H53.8104Z" fill="white"/>
<path d="M51.5223 35.1216V38.5991H40.083V35.1216H42.3709H51.5223Z" fill="white"/>
<path d="M5.76562 30.5457L6.13168 31.5523L7.77893 36.128L3.29474 34.3892L2.28809 34.0232C2.92868 32.4675 4.20988 31.1863 5.76562 30.5457Z" fill="white"/>
<path d="M7.77896 36.128L6.13171 31.5523C6.40625 31.4608 6.68079 31.3693 6.95533 31.2778C7.22988 31.1863 7.59593 31.1863 7.87048 31.1863C10.6159 31.1863 12.9038 33.3826 12.9038 36.128C12.9038 38.8735 10.6159 41.1613 7.87048 41.1613C5.12505 41.1613 2.92871 38.965 2.92871 36.128C2.92871 35.4874 3.02023 34.9384 3.20325 34.3893L7.77896 36.128Z" fill="#EAFFB6"/>
<path d="M28.0945 47.0184L24.0679 50.0384L19.4922 44.1814L21.0479 41.9851L28.0945 47.0184Z" fill="white"/>
<path d="M34.9583 41.9851L36.6055 44.1814L32.0298 50.0384L28.0947 47.0184L34.9583 41.9851Z" fill="white"/>
<path d="M35.4155 24.6888V25.8785H20.2241C17.6617 25.8785 15.6484 23.8652 15.6484 21.3028V20.2046H30.9313C33.4022 20.2961 35.4155 22.2179 35.4155 24.6888Z" fill="#A1C0FF"/>
<path d="M35.4161 25.8784V32.925C35.4161 34.8468 34.5925 36.6771 33.3113 37.9583C32.0301 39.2395 30.2913 40.0631 28.278 40.0631C24.3429 40.0631 21.2314 36.8601 21.2314 33.0165V25.9699L35.4161 25.8784Z" fill="white"/>
<path d="M51.5227 24.8718C52.1633 24.8718 52.7124 25.4209 52.7124 26.0615C52.7124 26.7021 52.1633 27.2512 51.5227 27.2512C50.8821 27.2512 50.333 26.7021 50.333 26.0615C50.333 25.4209 50.8821 24.8718 51.5227 24.8718Z" fill="#3D3D3D"/>
<path d="M50.3332 5.37939C50.9738 5.37939 51.5229 5.92848 51.5229 6.56908C51.5229 7.20968 50.9738 7.75876 50.3332 7.75876C49.6926 7.75876 49.1436 7.20968 49.1436 6.56908C49.2351 5.92848 49.6926 5.37939 50.3332 5.37939Z" fill="#3D3D3D"/>
<path d="M32.0295 7.66724C32.6701 7.66724 33.2192 8.21632 33.2192 8.85692C33.2192 9.49752 32.6701 10.0466 32.0295 10.0466C31.3889 10.0466 30.8398 9.49752 30.8398 8.85692C30.9314 8.21632 31.3889 7.66724 32.0295 7.66724Z" fill="#3D3D3D"/>
<path d="M16.0149 28.2578C16.6555 28.2578 17.2046 28.8069 17.2046 29.4475C17.2046 30.0881 16.6555 30.6372 16.0149 30.6372C15.3743 30.6372 14.8252 30.0881 14.8252 29.4475C14.8252 28.8069 15.3743 28.2578 16.0149 28.2578Z" fill="#3D3D3D"/>
<path d="M4.57543 23.6821C5.21602 23.6821 5.76511 24.2312 5.76511 24.8718C5.76511 25.5124 5.21602 26.0615 4.57543 26.0615C3.93483 26.0615 3.38574 25.5124 3.38574 24.8718C3.38574 24.2312 3.93483 23.6821 4.57543 23.6821Z" fill="#3D3D3D"/>
<path d="M32.0301 51.1364C31.7555 51.1364 31.5725 51.0449 31.3895 50.9534L27.3628 47.9334C27.0883 47.7504 26.9053 47.3843 26.9053 47.0183C26.9053 46.6522 27.0883 46.2862 27.3628 46.1031L34.2264 41.0699C34.684 40.7038 35.4161 40.7953 35.7821 41.2529L37.4294 43.4492C37.7039 43.9068 37.7039 44.4559 37.4294 44.8219L32.9452 50.6789C32.6707 50.9534 32.3961 51.1364 32.0301 51.1364ZM30.0168 47.0183L31.847 48.391L35.2331 44.0898L34.7755 43.5407L30.0168 47.0183Z" fill="#3D3D3D"/>
<path d="M24.0681 51.1365C23.7021 51.1365 23.4275 50.9535 23.153 50.6789L18.5773 44.822C18.2112 44.456 18.2112 43.8154 18.5773 43.4493L20.2245 41.253C20.5906 40.7954 21.3227 40.6124 21.7803 40.9784L28.7353 46.0117C29.0099 46.1947 29.1929 46.5608 29.1929 46.9268C29.1929 47.2929 29.0099 47.659 28.7353 47.842L24.7087 50.9535C24.5257 51.045 24.2512 51.1365 24.0681 51.1365ZM20.8651 44.0899L24.2512 48.3911L26.173 47.0184L21.3227 43.5408L20.8651 44.0899Z" fill="#3D3D3D"/>
<path d="M28.3691 41.1615C23.8849 41.1615 20.1328 37.5009 20.1328 32.9252V25.8786C20.1328 25.238 20.6819 24.689 21.3225 24.689C21.9631 24.689 22.5122 25.238 22.5122 25.8786V32.9252C22.5122 36.2197 25.1661 38.8737 28.4606 38.8737C30.0163 38.8737 31.4806 38.2331 32.6703 37.1349C33.7684 36.0367 34.409 34.5725 34.409 32.9252V25.8786C34.409 25.238 34.9581 24.689 35.5987 24.689C36.2393 24.689 36.7884 25.238 36.7884 25.8786V32.9252C36.7884 35.1216 35.9648 37.1349 34.409 38.6906C32.5787 40.3379 30.5654 41.1615 28.3691 41.1615Z" fill="#3D3D3D"/>
<path d="M35.4157 27.0681H20.2244C17.1129 27.0681 14.459 24.5057 14.459 21.3027V20.2046C14.459 19.564 15.0081 19.0149 15.6487 19.0149H30.9315C34.043 19.0149 36.5139 21.5773 36.5139 24.5973V25.7869C36.6054 26.5191 36.0563 27.0681 35.4157 27.0681ZM16.8384 21.3943C16.8384 23.2245 18.3941 24.7803 20.2244 24.7803H34.226C34.226 22.95 32.7618 21.4858 30.9315 21.4858L16.8384 21.3943Z" fill="#3D3D3D"/>
<path d="M14.9172 58C14.2766 58 13.7275 57.4509 13.7275 56.8103V52.2346C13.7275 51.594 14.2766 51.0449 14.9172 51.0449C15.5578 51.0449 16.1069 51.594 16.1069 52.2346V56.8103C16.0154 57.4509 15.4663 58 14.9172 58Z" fill="#3D3D3D"/>
<path d="M53.8106 36.3113H42.3713C41.7307 36.3113 41.1816 35.7622 41.1816 35.1216V31.644C41.1816 31.0034 41.7307 30.4543 42.3713 30.4543H53.8106C54.4512 30.4543 55.0003 31.0034 55.0003 31.644V35.1216C54.9088 35.7622 54.3597 36.3113 53.8106 36.3113ZM43.4695 34.0234H52.6209V32.8337H43.4695V34.0234Z" fill="#3D3D3D"/>
<path d="M7.96153 42.2595C4.5755 42.2595 1.83008 39.5141 1.83008 36.128C1.83008 35.3959 1.92159 34.7553 2.19613 34.0232C2.37916 33.3826 3.01976 33.1081 3.66036 33.2911C4.30096 33.4741 4.5755 34.1147 4.39247 34.7553C4.20945 35.2129 4.20945 35.6705 4.20945 36.128C4.20945 38.2329 5.94821 39.9716 8.05304 39.9716C10.1579 39.9716 11.8966 38.2329 11.8966 36.128C11.8966 34.0232 10.1579 32.2844 8.05304 32.2844C7.7785 32.2844 7.50395 32.2844 7.32093 32.3759C7.1379 32.3759 6.95487 32.4675 6.77184 32.559C6.22276 32.8335 5.49064 32.559 5.2161 32.0099C4.94156 31.4608 5.2161 30.7287 5.76519 30.4542C6.13124 30.2711 6.4973 30.1796 6.86336 30.0881C7.22941 29.9966 7.59547 29.9966 8.05304 29.9966C11.4391 29.9966 14.1845 32.742 14.1845 36.128C14.093 39.5141 11.3475 42.2595 7.96153 42.2595Z" fill="#3D3D3D"/>
<path d="M7.77903 37.2262C7.68752 37.2262 7.50449 37.2262 7.41297 37.1347L1.92213 35.0299C1.64758 34.9384 1.37304 34.6638 1.28153 34.3893C1.19001 34.1147 1.19001 33.8402 1.28153 33.4741C2.01364 31.5523 3.47787 30.0881 5.39966 29.356C5.67421 29.2645 6.04026 29.2645 6.3148 29.356C6.58935 29.4475 6.77238 29.722 6.9554 29.9966L8.96871 35.579C9.15174 36.0365 9.06023 36.4941 8.69417 36.7686C8.41963 37.1347 8.05357 37.2262 7.77903 37.2262ZM3.93544 33.3826L5.94875 34.1147L5.21663 32.1014C4.66755 32.4675 4.20998 32.925 3.93544 33.3826Z" fill="#3D3D3D"/>
<path d="M17.2049 18.0083H3.47777C2.83717 18.0083 2.28809 17.4592 2.28809 16.8186V9.95506C2.28809 9.31447 2.83717 8.76538 3.47777 8.76538H5.76562C6.40622 8.76538 6.95531 9.31447 6.95531 9.95506C6.95531 10.5957 6.40622 11.1447 5.76562 11.1447H4.57594V15.7205H16.0152V11.1447C15.3746 11.1447 14.8255 10.5957 14.8255 9.95506C14.8255 9.31447 15.3746 8.76538 16.0152 8.76538H17.2049C17.8455 8.76538 18.3946 9.31447 18.3946 9.95506V16.8186C18.3031 17.4592 17.754 18.0083 17.2049 18.0083Z" fill="#3D3D3D"/>
<path d="M11.4394 11.1448H5.67406C5.03346 11.1448 4.48438 10.5957 4.48438 9.95507V4.18968C4.48438 3.54908 5.03346 3 5.67406 3H11.4394C12.08 3 12.6291 3.54908 12.6291 4.18968V6.47754C12.6291 7.11814 12.08 7.66722 11.4394 7.66722C10.7989 7.66722 10.2498 7.11814 10.2498 6.47754V5.28785H6.77223V8.76539H11.3479C11.9885 8.76539 12.5376 9.31448 12.5376 9.95507C12.6291 10.5957 12.08 11.1448 11.4394 11.1448Z" fill="#3D3D3D"/>
<path d="M16.0154 11.1447H11.4397C10.7991 11.1447 10.25 10.5957 10.25 9.95506V6.47753C10.25 5.83693 10.7991 5.28784 11.4397 5.28784H16.0154C16.656 5.28784 17.2051 5.83693 17.2051 6.47753V9.95506C17.2051 10.5957 16.656 11.1447 16.0154 11.1447ZM12.6294 8.85689H14.9172V7.66721H12.6294V8.85689Z" fill="#3D3D3D"/>
<path d="M33.22 13.4326H20.5911C19.9505 13.4326 19.4014 12.8835 19.4014 12.2429C19.4014 11.6023 19.9505 11.0532 20.5911 11.0532H33.22C33.8606 11.0532 34.4097 11.6023 34.4097 12.2429C34.3182 12.8835 33.7691 13.4326 33.22 13.4326Z" fill="#3D3D3D"/>
<path d="M44.5675 29.4477C44.3845 29.4477 44.293 29.4477 44.1099 29.3562C43.5609 29.0816 43.1948 28.441 43.4693 27.8919L45.7572 22.1265C46.0317 21.5775 46.6723 21.2114 47.2214 21.4859C47.7705 21.7605 48.1366 22.4011 47.862 22.9502L45.6657 28.7156C45.4827 29.1731 45.0251 29.4477 44.5675 29.4477Z" fill="#3D3D3D"/>
<path d="M10.3413 29.4475C9.8837 29.4475 9.42613 29.173 9.2431 28.6239L6.77222 20.5707C6.58919 19.9301 6.95525 19.2895 7.50433 19.1064C8.14493 18.9234 8.78553 19.2895 8.96856 19.8386L11.4394 27.8918C11.6225 28.5324 11.2564 29.173 10.7073 29.356C10.6158 29.356 10.4328 29.4475 10.3413 29.4475Z" fill="#3D3D3D"/>
<path d="M50.333 48.8486C48.4112 48.8486 46.8555 47.2929 46.8555 45.3711C46.8555 43.4493 48.4112 41.8936 50.333 41.8936C52.2548 41.8936 53.8105 43.4493 53.8105 45.3711C53.8105 47.2929 52.2548 48.8486 50.333 48.8486ZM50.333 44.2729C49.6924 44.2729 49.1433 44.822 49.1433 45.4626C49.1433 46.1032 49.6924 46.6523 50.333 46.6523C50.9736 46.6523 51.5227 46.1032 51.5227 45.4626C51.5227 44.822 50.9736 44.2729 50.333 44.2729Z" fill="#3D3D3D"/>
<path d="M2.83694 52.3262C1.2812 52.3262 0 51.045 0 49.4893C0 47.9335 1.2812 46.6523 2.83694 46.6523C4.39268 46.6523 5.67388 47.9335 5.67388 49.4893C5.76539 50.9535 4.39268 52.3262 2.83694 52.3262ZM2.83694 48.8487C2.5624 48.8487 2.28785 49.1232 2.28785 49.3978C2.28785 49.6723 2.5624 49.9469 2.83694 49.9469C3.11148 49.9469 3.38602 49.6723 3.38602 49.3978C3.47754 49.1232 3.203 48.8487 2.83694 48.8487Z" fill="#3D3D3D"/>
<path d="M28.6443 9.95505H24.0686C23.428 9.95505 22.8789 9.40597 22.8789 8.76537C22.8789 8.12477 23.428 7.57568 24.0686 7.57568H28.6443C29.2849 7.57568 29.834 8.12477 29.834 8.76537C29.7425 9.40597 29.1934 9.95505 28.6443 9.95505Z" fill="#3D3D3D"/>
<path d="M41.1812 14.5308C43.7083 14.5308 45.7569 12.4822 45.7569 9.9551C45.7569 7.42801 43.7083 5.37939 41.1812 5.37939C38.6541 5.37939 36.6055 7.42801 36.6055 9.9551C36.6055 12.4822 38.6541 14.5308 41.1812 14.5308Z" fill="white"/>
<path d="M38.8932 56.9019H10.3408V48.1165C10.3408 45.9202 12.0796 44.1814 14.2759 44.1814H19.4922L24.0679 50.0383L28.0946 47.1098L32.0297 50.0383L36.6054 44.1814H40.7235C42.9199 44.1814 44.6586 45.9202 44.6586 48.1165V56.9019H38.8932Z" fill="#EAFFB6"/>
<path d="M38.8938 20.2961C39.5344 20.2961 40.0835 20.8452 40.0835 21.4858C40.0835 22.1264 39.5344 22.6755 38.8938 22.6755C38.2532 22.6755 37.7041 22.1264 37.7041 21.4858C37.7041 20.8452 38.2532 20.2961 38.8938 20.2961Z" fill="#3D3D3D"/>
<path d="M44.6589 58H10.3411C9.70045 58 9.15137 57.4509 9.15137 56.8103V48.025C9.15137 45.188 11.4392 42.9917 14.1846 42.9917H19.401C20.0416 42.9917 20.5906 43.5408 20.5906 44.0899C20.5906 44.7305 20.0416 45.2796 19.401 45.2796H14.1846C12.6289 45.2796 11.4392 46.5608 11.4392 48.025V55.6207H43.4692V48.025C43.4692 46.4692 42.188 45.2796 40.7237 45.2796H36.6056C35.965 45.2796 35.4159 44.7305 35.4159 44.0899C35.4159 43.4493 35.965 42.9917 36.6056 42.9917H40.7237C43.5607 42.9917 45.757 45.2796 45.757 48.025V56.8103C45.757 57.4509 45.2079 58 44.6589 58Z" fill="#3D3D3D"/>
<path d="M38.8938 58C38.2532 58 37.7041 57.4509 37.7041 56.8103V52.2346C37.7041 51.594 38.2532 51.0449 38.8938 51.0449C39.5344 51.0449 40.0835 51.594 40.0835 52.2346V56.8103C40.0835 57.4509 39.5344 58 38.8938 58Z" fill="#3D3D3D"/>
<path d="M51.5225 39.6973H40.0832C39.4426 39.6973 38.8936 39.1482 38.8936 38.5076V35.1216C38.8936 34.481 39.4426 33.9319 40.0832 33.9319H42.3711C43.0117 33.9319 43.5608 34.481 43.5608 35.1216C43.5608 35.7622 43.0117 36.3113 42.3711 36.3113H41.1814V37.5009H50.3328V35.1216C50.3328 34.481 50.8819 33.9319 51.5225 33.9319C52.1631 33.9319 52.7122 34.481 52.7122 35.1216V38.5991C52.6207 39.1482 52.0716 39.6973 51.5225 39.6973Z" fill="#3D3D3D"/>
<path d="M45.7566 20.2961C42.6451 20.2961 39.9912 17.7337 39.9912 14.5307C39.9912 13.8901 40.5403 13.341 41.1809 13.341C41.8215 13.341 42.3706 13.8901 42.3706 14.5307C42.3706 16.4525 43.9263 18.0083 45.8481 18.0083C47.7699 18.0083 49.3257 16.4525 49.3257 14.5307C49.3257 12.6089 47.7699 11.0532 45.8481 11.0532C45.2075 11.0532 44.6584 10.5041 44.6584 9.86351C44.6584 9.22291 45.2075 8.67383 45.8481 8.67383C48.9596 8.67383 51.6135 11.2362 51.6135 14.4392C51.6135 17.6422 48.8681 20.2961 45.7566 20.2961Z" fill="#3D3D3D"/>
<path d="M41.1814 15.7205C38.0699 15.7205 35.416 13.1581 35.416 9.95509C35.416 6.75209 37.9784 4.1897 41.1814 4.1897C44.3844 4.1897 46.9468 6.75209 46.9468 9.95509C46.9468 13.1581 44.2929 15.7205 41.1814 15.7205ZM41.1814 6.56907C39.2596 6.56907 37.7039 8.12481 37.7039 10.0466C37.7039 11.9684 39.2596 13.5241 41.1814 13.5241C43.1032 13.5241 44.6589 11.9684 44.6589 10.0466C44.6589 8.12481 43.1032 6.56907 41.1814 6.56907Z" fill="#3D3D3D"/>
</svg>
