<svg width="55" height="60" viewBox="0 0 55 60" fill="none" xmlns="http://www.w3.org/2000/svg">
<path d="M51.5998 37.946C52.8395 37.946 53.8401 38.9498 53.8401 40.1935C53.8401 41.4371 52.8395 42.4409 51.5998 42.4409C50.36 42.4409 49.3594 41.4371 49.3594 40.1935C49.3594 38.9498 50.36 37.946 51.5998 37.946Z" fill="#A1C0FF"/>
<path d="M18.5423 50.2578C20.0742 50.2578 21.3228 51.5014 21.3228 53.0471C21.3228 54.5927 20.0831 55.8364 18.5423 55.8364C17.0015 55.8364 15.7617 54.5927 15.7617 53.0471C15.7617 51.5014 17.0015 50.2578 18.5423 50.2578Z" fill="white"/>
<path d="M3.40054 17.728C4.64027 17.728 5.64092 18.7318 5.64092 19.9754C5.64092 21.2191 4.64027 22.2228 3.40054 22.2228C2.1608 22.2228 1.16016 21.2191 1.16016 19.9754C1.16016 18.7318 2.1608 17.728 3.40054 17.728Z" fill="#A1C0FF"/>
<path d="M39.2375 4.2522C40.4772 4.2522 41.4778 5.25598 41.4778 6.49961C41.4778 7.74323 40.4772 8.74702 39.2375 8.74702C37.9977 8.74702 36.9971 7.74323 36.9971 6.49961C36.9971 5.25598 37.9977 4.2522 39.2375 4.2522Z" fill="white"/>
<path d="M28.0353 27.7925C29.275 27.7925 30.2757 28.7963 30.2757 30.0399C30.2757 31.2835 29.275 32.2873 28.0353 32.2873C26.7956 32.2873 25.7949 31.2835 25.7949 30.0399C25.7949 28.7963 26.7956 27.7925 28.0353 27.7925Z" fill="#EAFFB6"/>
<path d="M51.5995 45.7629C52.2459 45.7629 52.7684 46.287 52.7684 46.9266C52.7684 47.5662 52.2459 48.0992 51.5995 48.0992C50.9531 48.0992 50.4395 47.5751 50.4395 46.9266C50.4395 46.2782 50.9619 45.7629 51.5995 45.7629Z" fill="#3D3D3D"/>
<path d="M49.3593 19.8867C50.0058 19.8867 50.5194 20.4108 50.5194 21.0504C50.5194 21.69 49.9969 22.223 49.3593 22.223C48.7217 22.223 48.1904 21.6989 48.1904 21.0504C48.1904 20.4019 48.7129 19.8867 49.3593 19.8867Z" fill="#3D3D3D"/>
<path d="M38.1571 50.2578C38.8035 50.2578 39.326 50.7819 39.326 51.4304C39.326 52.0788 38.8035 52.5941 38.1571 52.5941C37.5107 52.5941 36.9971 52.07 36.9971 51.4304C36.9971 50.7908 37.5195 50.2578 38.1571 50.2578Z" fill="#3D3D3D"/>
<path d="M19.0839 7.57471C19.7303 7.57471 20.2528 8.09881 20.2528 8.73839C20.2528 9.37797 19.7303 9.91095 19.0839 9.91095C18.4374 9.91095 17.9238 9.38685 17.9238 8.73839C17.9238 8.08992 18.4463 7.57471 19.0839 7.57471Z" fill="#3D3D3D"/>
<path d="M9.04975 5.32739C9.69619 5.32739 10.2098 5.85149 10.2098 6.49107C10.2098 7.13065 9.68733 7.66363 9.04975 7.66363C8.41218 7.66363 7.88086 7.13953 7.88086 6.49107C7.88086 5.84261 8.40332 5.32739 9.04975 5.32739Z" fill="#3D3D3D"/>
<path d="M5.64051 37.8572C6.28694 37.8572 6.8094 38.3813 6.8094 39.0297C6.8094 39.6782 6.28694 40.1934 5.64051 40.1934C4.99407 40.1934 4.48047 39.6693 4.48047 39.0297C4.48047 38.3902 5.00293 37.8572 5.64051 37.8572Z" fill="#3D3D3D"/>
<path d="M28.0358 57.0002C24.0066 57.0002 22.0319 48.8189 21.2261 43.9687C20.863 41.7213 20.5974 39.2074 20.4203 36.6047C20.3317 35.4321 20.3317 34.1796 20.2432 32.8294V27.2597C20.2432 25.9983 20.3317 24.657 20.4203 23.4844C20.5974 20.8817 20.8719 18.3589 21.2261 16.1115C22.0408 11.2614 24.0066 3.08008 28.0358 3.08008C32.0649 3.08008 34.0397 11.2525 34.8455 16.1115C35.1997 18.3589 35.4742 20.8728 35.6513 23.4844C35.7399 24.7458 35.8284 25.9983 35.8284 27.2597V32.8294C35.8284 34.0908 35.7399 35.4321 35.6513 36.6047C35.4742 39.2074 35.1997 41.7302 34.8455 43.9687C34.0397 48.8189 32.0649 57.0002 28.0358 57.0002ZM28.0358 5.32749C26.9643 5.32749 24.8125 8.29443 23.4665 16.4668C23.1123 18.7142 22.8378 21.0505 22.6606 23.5644C22.5721 24.7281 22.4835 25.9895 22.4835 27.2508V32.8205C22.4835 34.0819 22.5721 35.3344 22.6606 36.507C22.8378 39.0209 23.1123 41.446 23.4665 43.6045C24.8125 51.7858 26.9643 54.7439 28.0358 54.7439C29.1073 54.7439 31.2591 51.7769 32.6051 43.6045C32.9593 41.3571 33.2338 39.0209 33.4109 36.507C33.4995 35.3433 33.588 34.0819 33.588 32.8205V27.2508C33.588 25.9895 33.4995 24.7369 33.4109 23.5644C33.2338 21.0505 32.9593 18.6254 32.6051 16.4668C31.2591 8.29443 29.2047 5.32749 28.0358 5.32749Z" fill="#3D3D3D"/>
<path d="M11.644 50.0804C10.5725 50.0804 9.6693 49.7162 9.04943 49.0944C6.18033 46.2163 10.5725 39.1187 13.4416 35.0769C14.7876 33.1937 16.3107 31.2128 18.011 29.3296C18.8168 28.4324 19.7112 27.4464 20.517 26.5403C21.1457 25.9096 21.7744 25.1901 22.4917 24.5594C23.1204 23.9287 23.8377 23.2092 24.4664 22.5785C25.3608 21.6813 26.3437 20.8729 27.247 20.0646C29.2217 18.359 31.099 16.8311 32.9763 15.4809C36.3768 13.0558 41.0346 10.1777 44.3553 10.1777C45.4268 10.1777 46.3301 10.5419 46.9499 11.1638C49.9076 13.8553 45.6039 20.9618 42.7437 25.0035C41.3977 26.8867 39.8746 28.8677 38.1744 30.7509C37.3685 31.6481 36.4742 32.6341 35.6683 33.5401C35.0396 34.1708 34.4109 34.8904 33.6936 35.5211L31.7189 37.502C30.8245 38.3992 29.8416 39.2075 28.9383 40.0159C26.9636 41.7214 25.0863 43.2493 23.209 44.5995C19.6226 47.1134 14.9647 50.0804 11.6529 50.0804H11.644ZM44.5236 12.2475C42.4603 12.2475 38.7942 14.0419 34.402 17.1865C32.6133 18.5367 30.7271 19.9757 28.7612 21.6813C27.8669 22.4896 26.9725 23.298 25.9807 24.1952C25.352 24.8259 24.6347 25.4566 24.006 26.0784C23.3772 26.7091 22.7485 27.4286 22.1286 28.0593C21.2343 28.9565 20.4284 29.8537 19.6226 30.8486C17.9224 32.7318 16.4878 34.6239 15.1418 36.5071C10.3069 43.2493 9.76671 46.8381 10.5725 47.6464C10.7496 47.8241 11.1127 47.9129 11.5555 47.9129C13.6187 47.9129 17.2848 46.1185 21.677 42.9739C23.4658 41.6237 25.352 40.1847 27.3178 38.4791C28.2122 37.6708 29.1066 36.8624 30.0984 35.9652C30.7271 35.3345 31.4444 34.7038 32.0731 34.082C32.7018 33.4513 33.3305 32.7318 33.9504 32.1011C34.7562 31.2039 35.6506 30.3067 36.4565 29.3118C38.1567 27.4286 39.5912 25.5365 40.9372 23.6533C45.7722 16.9111 46.3124 13.3223 45.5065 12.514C45.3294 12.3363 44.9664 12.2475 44.5236 12.2475Z" fill="#3D3D3D"/>
<path d="M28.0359 37.9459H25.2553C23.9979 37.9459 22.6607 37.8571 21.4918 37.7683C18.8972 37.5906 16.3823 37.3241 14.1508 36.9599C9.31585 36.1516 1.16016 34.1706 1.16016 30.1288C1.16016 26.0871 9.31585 24.1061 14.1508 23.2978C16.3912 22.9425 18.8972 22.6671 21.4918 22.4894C22.7493 22.4006 23.9979 22.3118 25.2553 22.3118H30.8076C32.065 22.3118 33.4021 22.4006 34.571 22.4894C37.1656 22.6671 39.6805 22.9425 41.912 23.2978C46.747 24.1061 54.9027 26.0871 54.9027 30.1288C54.9027 34.1706 46.747 36.1516 41.912 36.9599C39.6717 37.3241 37.1656 37.5906 34.571 37.7683C33.3136 37.8571 32.065 37.9459 30.8076 37.9459C29.9132 37.8571 28.9302 37.9459 28.027 37.9459H28.0359ZM28.0359 24.4703H25.2553C23.9979 24.4703 22.7493 24.5592 21.5804 24.648C19.0743 24.8257 16.6569 25.101 14.505 25.4564C6.34934 26.8066 3.40054 28.9652 3.40054 30.04C3.40054 31.1149 6.35819 33.2734 14.505 34.6237C16.7454 34.979 19.0743 35.2544 21.5804 35.432C22.7404 35.5209 23.9979 35.6097 25.2553 35.6097H30.8076C32.065 35.6097 33.3136 35.5209 34.4825 35.432C36.9885 35.2544 39.406 34.979 41.5578 34.6237C49.7135 33.2734 52.6623 31.1149 52.6623 30.04C52.6623 28.9652 49.7047 26.8066 41.5578 25.4564C39.3175 25.101 36.9885 24.8257 34.4825 24.648C33.3224 24.5592 32.065 24.4703 30.8076 24.4703H28.027H28.0359Z" fill="#3D3D3D"/>
<path d="M44.5236 50.0804C41.2117 50.0804 36.5539 47.2023 33.1446 44.7772C31.2673 43.427 29.2926 41.8991 27.4152 40.1935C26.5209 39.3852 25.5379 38.488 24.6347 37.6796C24.006 37.0489 23.2887 36.4183 22.66 35.6987C22.0312 35.068 21.314 34.3485 20.6852 33.7178C19.7909 32.8206 18.985 31.8346 18.1792 30.9285C16.479 28.9476 14.9559 27.0644 13.6099 25.1812C10.7408 21.1394 6.35744 14.0419 9.21769 11.1638C9.84641 10.5331 10.7408 10.1777 11.8123 10.1777C15.1241 10.1777 19.782 13.0558 23.1913 15.4809C25.0686 16.8311 27.0433 18.359 28.9206 20.0646C29.815 20.8729 30.7979 21.7701 31.7012 22.5785C32.3299 23.2092 33.0472 23.8399 33.6759 24.5594C34.3046 25.1901 35.0219 25.9096 35.6506 26.5403C36.545 27.4375 37.3508 28.4235 38.1567 29.3296C39.8569 31.3105 41.38 33.1937 42.726 35.0769C45.5951 39.1187 49.9784 46.2163 47.1182 49.0944C46.4009 49.7251 45.5951 50.0804 44.5236 50.0804ZM11.644 12.2475C11.1924 12.2475 10.8382 12.3363 10.6611 12.514C9.85527 13.3223 10.484 16.92 15.2304 23.6533C16.5764 25.4477 18.011 27.3398 19.7112 29.3118C20.517 30.209 21.3228 31.1062 22.2172 32.1011C22.8459 32.7318 23.4746 33.4513 24.0945 34.082C24.7144 34.7127 25.4405 35.3434 26.0692 35.9652C26.9636 36.8624 27.858 37.6708 28.8498 38.4791C30.7271 40.1847 32.6133 41.6237 34.4906 42.9739C38.7942 46.1185 42.4603 47.9129 44.6121 47.9129C45.0638 47.9129 45.418 47.8241 45.5951 47.6464C46.4009 46.8381 45.7722 43.2404 41.0258 36.5071C39.6798 34.7127 38.2452 32.8206 36.545 30.8486C35.7392 29.9514 34.9334 29.0542 34.039 28.0593C33.4102 27.4286 32.7815 26.7091 32.1617 26.0784C31.5329 25.4477 30.8157 24.817 30.1869 24.1952C29.2926 23.3868 28.3982 22.4896 27.4064 21.6813C25.5291 19.9757 23.6429 18.5367 21.7656 17.1865C17.3734 14.0419 13.7073 12.2475 11.644 12.2475Z" fill="#3D3D3D"/>
<path d="M28.0352 33.4511C26.1579 33.4511 24.6348 31.9232 24.6348 30.04C24.6348 28.1568 26.1579 26.6289 28.0352 26.6289C29.9125 26.6289 31.4356 28.1568 31.4356 30.04C31.4356 31.9232 29.9125 33.4511 28.0352 33.4511ZM28.0352 28.9563C27.4065 28.9563 26.8663 29.4981 26.8663 30.1288C26.8663 30.7595 27.4065 31.2925 28.0352 31.2925C28.6639 31.2925 29.2041 30.7506 29.2041 30.1288C29.2041 29.507 28.6639 28.9563 28.0352 28.9563Z" fill="#3D3D3D"/>
<path d="M51.5996 43.5155C49.7223 43.5155 48.1992 41.9877 48.1992 40.1044C48.1992 38.2212 49.7223 36.6934 51.5996 36.6934C53.477 36.6934 55.0001 38.2212 55.0001 40.1044C55.0001 41.9877 53.3884 43.5155 51.5996 43.5155ZM51.5996 39.0207C50.9709 39.0207 50.4396 39.5626 50.4396 40.1844C50.4396 40.8062 50.9798 41.357 51.5996 41.357C52.2195 41.357 52.7685 40.8151 52.7685 40.1844C52.7685 39.5537 52.2284 39.0207 51.5996 39.0207Z" fill="#3D3D3D"/>
<path d="M18.5431 56.9999C16.3913 56.9999 14.6025 55.2055 14.6025 53.0469C14.6025 50.8884 16.3913 49.094 18.5431 49.094C20.695 49.094 22.4837 50.8884 22.4837 53.0469C22.4837 55.2055 20.695 56.9999 18.5431 56.9999ZM18.5431 51.4214C17.6487 51.4214 16.8429 52.1409 16.8429 53.1269C16.8429 54.0241 17.5602 54.8324 18.5431 54.8324C19.5261 54.8324 20.2433 54.1129 20.2433 53.1269C20.2433 52.1409 19.4375 51.4214 18.5431 51.4214Z" fill="#3D3D3D"/>
<path d="M39.2383 9.82218C37.361 9.82218 35.8379 8.29429 35.8379 6.41109C35.8379 4.52788 37.361 3 39.2383 3C41.1156 3 42.6387 4.52788 42.6387 6.41109C42.6387 8.29429 41.1156 9.82218 39.2383 9.82218ZM39.2383 5.32736C38.6096 5.32736 38.0783 5.86922 38.0783 6.49104C38.0783 7.11285 38.6184 7.6636 39.2383 7.6636C39.8582 7.6636 40.4072 7.12173 40.4072 6.49104C40.4072 5.86034 39.867 5.32736 39.2383 5.32736Z" fill="#3D3D3D"/>
<path d="M3.40042 23.2975C1.5231 23.2975 0 21.7696 0 19.8864C0 18.0032 1.5231 16.4753 3.40042 16.4753C5.27773 16.4753 6.80084 18.0032 6.80084 19.8864C6.80084 21.7696 5.27773 23.2975 3.40042 23.2975ZM3.40042 18.8027C2.7717 18.8027 2.23152 19.3446 2.23152 19.9664C2.23152 20.5882 2.7717 21.1389 3.40042 21.1389C4.02914 21.1389 4.56046 20.5971 4.56046 19.9664C4.56046 19.3357 4.02029 18.8027 3.40042 18.8027Z" fill="#3D3D3D"/>
</svg>
