<svg width="55" height="60" viewBox="0 0 55 60" fill="none" xmlns="http://www.w3.org/2000/svg">
<path d="M40.869 50.7524V58.4325L35.749 54.5416L30.6289 58.4325V50.7524V45.6323H40.869V50.7524Z" fill="#A1C0FF"/>
<path d="M53.6693 45.6323V50.7524H40.8691V45.6323H51.1093H53.6693Z" fill="#EAFFB6"/>
<path d="M51.1096 41.7415V45.6323H15.9804C15.4724 45.6323 14.9543 45.4291 14.6495 45.1244C14.3448 44.8196 14.1416 44.3015 14.1416 43.7935C14.1416 42.7675 14.9645 41.843 16.0921 41.843H51.1198V41.7415H51.1096Z" fill="white"/>
<path d="M53.6693 36.6213V41.7413H15.98C14.9539 41.7413 14.0295 42.5642 14.0295 43.6918C14.0295 44.1998 14.2326 44.7179 14.5374 45.0226C14.8422 45.3274 15.3603 45.5306 15.8682 45.5306H30.6188V50.6506H12.0891C8.19827 50.6506 5.01855 47.4811 5.01855 43.5801C5.01855 41.6296 5.84142 39.8924 7.07064 38.5616C8.29986 37.2308 10.1386 36.5095 12.0891 36.5095H53.6693V36.6111V36.6213Z" fill="#EAFFB6"/>
<path d="M10.8597 7.22168C11.9365 7.22168 12.8102 8.09534 12.8102 9.17218C12.8102 10.249 11.9365 11.1227 10.8597 11.1227C9.78284 11.1227 8.90918 10.249 8.90918 9.17218C8.90918 8.09534 9.78284 7.22168 10.8597 7.22168Z" fill="#A1C0FF"/>
<path d="M48.5493 8.45087C49.9632 8.45087 51.1093 7.30471 51.1093 5.89084C51.1093 4.47697 49.9632 3.33081 48.5493 3.33081C47.1354 3.33081 45.9893 4.47697 45.9893 5.89084C45.9893 7.30471 47.1354 8.45087 48.5493 8.45087Z" fill="#A1C0FF"/>
<path d="M40.8686 31.491C45.1102 31.491 48.5487 28.0525 48.5487 23.8109C48.5487 19.5694 45.1102 16.1309 40.8686 16.1309C36.627 16.1309 33.1885 19.5694 33.1885 23.8109C33.1885 28.0525 36.627 31.491 40.8686 31.491Z" fill="white"/>
<path d="M20.3783 16.1309C24.6247 16.1309 28.0584 19.5747 28.0584 23.8109C28.0584 28.0472 24.6146 31.491 20.3783 31.491C16.1421 31.491 12.6982 28.0472 12.6982 23.8109C12.6982 19.5747 16.1421 16.1309 20.3783 16.1309Z" fill="white"/>
<path d="M52.4402 28.9412C53.1716 28.9412 53.771 29.5405 53.771 30.272C53.771 31.0034 53.1716 31.6028 52.4402 31.6028C51.7087 31.6028 51.1094 31.0034 51.1094 30.272C51.1094 29.5405 51.7087 28.9412 52.4402 28.9412Z" fill="#3D3D3D"/>
<path d="M35.7488 7.12012C36.4802 7.12012 37.0796 7.71949 37.0796 8.45093C37.0796 9.18236 36.4802 9.78174 35.7488 9.78174C35.0173 9.78174 34.418 9.18236 34.418 8.45093C34.418 7.71949 35.0173 7.12012 35.7488 7.12012Z" fill="#3D3D3D"/>
<path d="M19.1492 8.45093C19.8806 8.45093 20.48 9.0503 20.48 9.78174C20.48 10.5132 19.8806 11.1125 19.1492 11.1125C18.4177 11.1125 17.8184 10.5132 17.8184 9.78174C17.8184 9.0503 18.4177 8.45093 19.1492 8.45093Z" fill="#3D3D3D"/>
<path d="M16.5896 55.7708C17.321 55.7708 17.9204 56.3701 17.9204 57.1016C17.9204 57.833 17.321 58.4324 16.5896 58.4324C15.8582 58.4324 15.2588 57.833 15.2588 57.1016C15.2588 56.3701 15.8582 55.7708 16.5896 55.7708Z" fill="#3D3D3D"/>
<path d="M3.78882 21.251C4.52025 21.251 5.11963 21.8503 5.11963 22.5818C5.11963 23.3132 4.52025 23.9126 3.78882 23.9126C3.05738 23.9126 2.45801 23.3132 2.45801 22.5818C2.45801 21.8503 3.05738 21.251 3.78882 21.251Z" fill="#3D3D3D"/>
<path d="M51.1091 46.2114C50.3879 46.2114 49.7783 45.7339 49.7783 45.1752V42.158C49.7783 41.5993 50.3879 41.1218 51.1091 41.1218C51.8304 41.1218 52.4399 41.5993 52.4399 42.158V45.1752C52.4399 45.8152 51.8304 46.2114 51.1091 46.2114Z" fill="#3D3D3D"/>
<path d="M53.6998 51.9816H41.1841C40.4832 51.9816 39.8838 51.3721 39.8838 50.6609C39.8838 49.9498 40.4832 49.3403 41.1841 49.3403H52.5011V46.8107H41.1841C40.4832 46.8107 39.8838 46.2012 39.8838 45.4901C39.8838 44.779 40.4832 44.1694 41.1841 44.1694H53.6998C54.4008 44.1694 55.0002 44.779 55.0002 45.4901V50.5492C55.0002 51.4635 54.4008 51.9714 53.6998 51.9714V51.9816Z" fill="#3D3D3D"/>
<path d="M30.6287 51.9816H12.0888C7.47672 51.9816 3.78906 48.294 3.78906 43.6819C3.78906 41.4266 4.61193 39.3847 6.2475 37.8405C7.88308 36.3065 9.93517 35.3821 12.0888 35.3821H53.669C54.3903 35.3821 54.9998 36.0018 54.9998 36.7129V41.8329C54.9998 42.5542 54.3903 43.1638 53.669 43.1638H15.9797C15.6749 43.1638 15.3701 43.4685 15.3701 43.7733C15.3701 43.9765 15.4717 44.1796 15.5733 44.1796C15.6749 44.2812 15.8781 44.3828 15.9797 44.3828H30.7303C31.4516 44.3828 32.0611 44.9923 32.0611 45.7136C32.0611 46.4349 31.4516 47.0444 30.7303 47.0444H15.9797C15.1568 47.0444 14.3441 46.7397 13.7244 46.12C13.1047 45.5003 12.8 44.6876 12.8 43.8647C12.8 42.1276 14.2324 40.6952 15.9695 40.6952H52.4296V38.1351H12.0888C10.5549 38.1351 9.12246 38.7447 7.99483 39.7707C6.86719 40.8983 6.35925 42.3307 6.35925 43.8647C6.35925 47.0444 8.91928 49.6045 12.099 49.6045H30.6389C31.35 49.6045 31.9697 50.214 31.9697 50.9353C31.9697 51.4432 31.35 51.9613 30.6389 51.9613L30.6287 51.9816Z" fill="#3D3D3D"/>
<path d="M40.8692 58.6458C40.5644 58.6458 40.3613 58.5442 40.0463 58.3411L35.6374 55.0597L31.2386 58.3411C30.8323 58.6458 30.3142 58.6458 29.9078 58.4426C29.5014 58.2395 29.1865 57.8331 29.1865 57.315V44.6165C29.1865 43.8952 29.8062 43.2856 30.5173 43.2856H40.7575C41.4787 43.2856 42.0883 43.9053 42.0883 44.6165V57.4166C42.0883 57.9245 41.7835 58.3411 41.367 58.5442C41.2654 58.6458 41.0622 58.6458 40.859 58.6458H40.8692ZM35.7491 52.2965C36.0539 52.2965 36.2571 52.3981 36.572 52.6013L39.64 54.9582V45.9473H31.9599V54.9582L35.0279 52.6013C35.231 52.3981 35.5358 52.2965 35.7491 52.2965Z" fill="#3D3D3D"/>
<path d="M20.3791 32.8321C15.4622 32.8321 11.3682 28.8397 11.3682 23.8212C11.3682 18.8027 15.3606 14.8103 20.3791 14.8103C25.3975 14.8103 29.39 18.8027 29.39 23.8212C29.39 28.8397 25.2959 32.8321 20.3791 32.8321ZM20.3791 17.4618C16.8946 17.4618 13.9282 20.3266 13.9282 23.9126C13.9282 27.4987 16.793 30.3635 20.3791 30.3635C23.9651 30.3635 26.8299 27.4987 26.8299 23.9126C26.8299 20.3266 23.9651 17.4618 20.3791 17.4618Z" fill="#3D3D3D"/>
<path d="M40.8693 32.8321C35.9524 32.8321 31.8584 28.8397 31.8584 23.8212C31.8584 18.8027 35.8508 14.8103 40.8693 14.8103C45.8878 14.8103 49.8802 18.8027 49.8802 23.8212C49.8802 28.8397 45.7862 32.8321 40.8693 32.8321ZM40.8693 17.4618C37.3848 17.4618 34.4184 20.3266 34.4184 23.9126C34.4184 27.4987 37.2832 30.3635 40.8693 30.3635C44.4554 30.3635 47.3202 27.4987 47.3202 23.9126C47.3202 20.3266 44.4554 17.4618 40.8693 17.4618Z" fill="#3D3D3D"/>
<path d="M44.7597 25.1521C44.0385 25.1521 43.4289 24.5425 43.4289 23.8213C43.4289 22.3889 42.3013 21.2612 40.8689 21.2612C40.1476 21.2612 39.5381 20.6517 39.5381 19.9304C39.5381 19.2091 40.1476 18.5996 40.8689 18.5996C43.7337 18.5996 45.989 20.8549 45.989 23.7197C45.989 24.5425 45.481 25.1521 44.7597 25.1521Z" fill="#3D3D3D"/>
<path d="M24.2793 25.1521C23.558 25.1521 22.9485 24.5425 22.9485 23.8213C22.9485 22.3889 21.8208 21.2612 20.3884 21.2612C19.6671 21.2612 19.0576 20.6517 19.0576 19.9304C19.0576 19.2091 19.6773 18.5996 20.3884 18.5996C23.2532 18.5996 25.5085 20.8549 25.5085 23.7197C25.5085 24.5425 25.0005 25.1521 24.2793 25.1521Z" fill="#3D3D3D"/>
<path d="M33.1887 25.152C32.9856 25.152 32.7824 25.152 32.5691 24.9489C30.4154 23.7196 28.8814 24.8473 28.7798 24.8473C28.1703 25.2536 27.449 25.152 27.0426 24.5425C26.6363 23.9228 26.7379 23.2117 27.3474 22.8053C27.449 22.7038 30.2122 20.7533 33.7983 22.7037C34.418 23.0085 34.6211 23.8314 34.3062 24.4409C34.103 24.8473 33.6967 25.1622 33.1786 25.1622L33.1887 25.152Z" fill="#3D3D3D"/>
<path d="M48.5487 25.1519C48.2439 25.1519 48.0407 25.0503 47.8274 24.8471C47.2179 24.4408 47.1061 23.6179 47.5226 22.9982L51.4135 17.8782C51.8198 17.2686 52.6427 17.1569 53.2522 17.5734C53.8719 17.9798 53.9735 18.8026 53.557 19.4223L49.6661 24.5424C49.3614 24.9487 48.9449 25.1519 48.5385 25.1519H48.5487Z" fill="#3D3D3D"/>
<path d="M12.6988 25.1521C12.2924 25.1521 11.8759 24.9489 11.6727 24.6442L7.7819 19.5241C7.37554 18.9044 7.47713 18.1933 8.08666 17.6853C8.70635 17.1774 9.41747 17.3806 9.93557 17.9901L13.8264 23.1102C14.2328 23.7299 14.1312 24.441 13.5216 24.9591C13.3185 25.0607 13.0137 25.1623 12.6988 25.1623V25.1521Z" fill="#3D3D3D"/>
<path d="M10.86 12.3417C9.12283 12.3417 7.69043 10.9093 7.69043 9.17215C7.69043 7.43499 9.12283 5.99243 10.86 5.99243C12.5972 5.99243 14.0296 7.42483 14.0296 9.17215C14.0296 10.9195 12.5972 12.3417 10.86 12.3417ZM10.86 8.45087C10.5552 8.45087 10.2505 8.75564 10.2505 9.0604C10.2505 9.36517 10.5552 9.68009 10.86 9.68009C11.1648 9.68009 11.4695 9.37533 11.4695 9.0604C11.4695 8.74548 11.1648 8.45087 10.86 8.45087Z" fill="#3D3D3D"/>
<path d="M3.17972 35.3922C1.44256 35.3922 0 33.9599 0 32.2227C0 30.4855 1.4324 29.043 3.17972 29.043C4.92704 29.043 6.34928 30.4754 6.34928 32.2227C6.34928 33.97 4.91688 35.3922 3.17972 35.3922ZM3.17972 31.5014C2.87495 31.5014 2.56003 31.8062 2.56003 32.1211C2.56003 32.436 2.8648 32.7306 3.17972 32.7306C3.49464 32.7306 3.78925 32.4259 3.78925 32.1211C3.78925 31.8163 3.48448 31.5014 3.17972 31.5014Z" fill="#3D3D3D"/>
<path d="M48.549 9.78168C46.3954 9.78168 44.6582 8.04451 44.6582 5.89084C44.6582 3.73716 46.3954 2 48.549 2C50.7027 2 52.4399 3.73716 52.4399 5.89084C52.4399 8.04451 50.7027 9.78168 48.549 9.78168ZM48.549 4.66162C47.8278 4.66162 47.2182 5.27115 47.2182 5.99243C47.2182 6.71371 47.8278 7.32324 48.549 7.32324C49.2703 7.32324 49.8799 6.71371 49.8799 5.99243C49.8799 5.16956 49.2703 4.66162 48.549 4.66162Z" fill="#3D3D3D"/>
</svg>
