<svg width="55" height="60" viewBox="0 0 55 60" fill="none" xmlns="http://www.w3.org/2000/svg">
<path d="M49.9113 1.29956H14.9707V58.8H49.9113V1.29956Z" fill="white"/>
<path d="M43.7225 14.9976H38.7324V33.804H43.7225V14.9976Z" fill="#EAFFB6"/>
<path d="M34.9403 11.2979H29.9502V33.8041H34.9403V11.2979Z" fill="#A1C0FF"/>
<path d="M3.79199 55.001V50.0018V45.0026V40.0035V35.0043V30.0051V24.996V19.9969V14.9977V9.99852V4.99935V1.29956H11.2771V58.8H3.79199V55.001Z" fill="#EAFFB6"/>
<path d="M26.2479 23.8057H21.2578V33.804H26.2479V23.8057Z" fill="#EAFFB6"/>
<path d="M53.7033 42.5029C54.4162 42.5029 55.0003 43.0882 55.0003 43.8023C55.0003 44.5165 54.4162 45.1017 53.7033 45.1017C52.9904 45.1017 52.4062 44.5165 52.4062 43.8023C52.4062 43.0882 52.9904 42.5029 53.7033 42.5029Z" fill="#3D3D3D"/>
<path d="M53.7033 46.2029C54.4162 46.2029 55.0003 46.7881 55.0003 47.5023C55.0003 48.2164 54.4162 48.8017 53.7033 48.8017C52.9904 48.8017 52.4062 48.2164 52.4062 47.5023C52.4062 46.7881 52.9904 46.2029 53.7033 46.2029Z" fill="#3D3D3D"/>
<path d="M53.7033 50.0017C54.4162 50.0017 55.0003 50.5869 55.0003 51.3011C55.0003 52.0153 54.4162 52.6005 53.7033 52.6005C52.9904 52.6005 52.4062 52.0153 52.4062 51.3011C52.4062 50.5869 52.9904 50.0017 53.7033 50.0017Z" fill="#3D3D3D"/>
<path d="M11.2773 60H3.79215C3.08918 60 2.49512 59.3949 2.49512 58.7006V1.29939C2.49512 0.59514 3.08918 0 3.79215 0H11.2773C11.9803 0 12.5743 0.59514 12.5743 1.29939V58.7998C12.4753 59.3949 11.8714 60 11.2773 60ZM4.99017 57.5004H9.98027V2.49959H4.99017V57.5004Z" fill="#3D3D3D"/>
<path d="M49.9105 60H14.9699C14.2669 60 13.6729 59.3949 13.6729 58.7006V1.29939C13.6729 0.59514 14.2669 0 14.9699 0H49.9105C50.6134 0 51.2075 0.59514 51.2075 1.29939V58.7998C51.2075 59.3949 50.6035 60 49.9105 60ZM16.2669 57.5004H48.7125V2.49959H16.2669V57.5004Z" fill="#3D3D3D"/>
<path d="M6.28713 6.29873H1.29703C0.594059 6.29873 0 5.70359 0 4.99934C0 4.29509 0.594059 3.69995 1.29703 3.69995H6.28713C6.9901 3.69995 7.58416 4.29509 7.58416 4.99934C7.58416 5.70359 6.88119 6.29873 6.28713 6.29873Z" fill="#3D3D3D"/>
<path d="M6.28713 11.2978H1.29703C0.594059 11.2978 0 10.7026 0 9.99836C0 9.29411 0.594059 8.69897 1.29703 8.69897H6.28713C6.9901 8.69897 7.58416 9.29411 7.58416 9.99836C7.48515 10.7026 6.88119 11.2978 6.28713 11.2978Z" fill="#3D3D3D"/>
<path d="M6.28713 16.297H1.29703C0.594059 16.297 0 15.7019 0 14.9976C0 14.2934 0.594059 13.6982 1.29703 13.6982H6.28713C6.9901 13.6982 7.58416 14.2934 7.58416 14.9976C7.48515 15.7019 6.88119 16.297 6.28713 16.297Z" fill="#3D3D3D"/>
<path d="M6.28713 21.296H1.29703C0.594059 21.296 0 20.7009 0 19.9967C0 19.2924 0.594059 18.6973 1.29703 18.6973H6.28713C6.9901 18.6973 7.58416 19.2924 7.58416 19.9967C7.48515 20.7009 6.88119 21.296 6.28713 21.296Z" fill="#3D3D3D"/>
<path d="M6.28713 26.3051H1.29703C0.594059 26.3051 0 25.7099 0 25.0057C0 24.3014 0.594059 23.7063 1.29703 23.7063H6.28713C6.9901 23.7063 7.58416 24.3114 7.58416 25.0057C7.48515 25.7099 6.88119 26.3051 6.28713 26.3051Z" fill="#3D3D3D"/>
<path d="M6.28713 31.3043H1.29703C0.594059 31.3043 0 30.7092 0 30.005C0 29.3007 0.594059 28.7056 1.29703 28.7056H6.28713C6.9901 28.7056 7.58416 29.3106 7.58416 30.005C7.48515 30.7092 6.88119 31.3043 6.28713 31.3043Z" fill="#3D3D3D"/>
<path d="M6.28713 36.3036H1.29703C0.594059 36.3036 0 35.7085 0 35.0042C0 34.3 0.594059 33.7048 1.29703 33.7048H6.28713C6.9901 33.7048 7.58416 34.3099 7.58416 35.0042C7.58416 35.6986 6.88119 36.3036 6.28713 36.3036Z" fill="#3D3D3D"/>
<path d="M6.28713 41.3026H1.29703C0.594059 41.3026 0 40.6976 0 40.0032C0 39.3089 0.594059 38.7039 1.29703 38.7039H6.28713C6.9901 38.7039 7.58416 39.3089 7.58416 40.0032C7.58416 40.6976 6.88119 41.3026 6.28713 41.3026Z" fill="#3D3D3D"/>
<path d="M6.28713 46.3019H1.29703C0.594059 46.3019 0 45.6968 0 45.0025C0 44.3082 0.594059 43.7031 1.29703 43.7031H6.28713C6.9901 43.7031 7.58416 44.3082 7.58416 45.0025C7.48515 45.7068 6.88119 46.3019 6.28713 46.3019Z" fill="#3D3D3D"/>
<path d="M6.28713 51.3009H1.29703C0.594059 51.3009 0 50.6959 0 50.0015C0 49.3072 0.594059 48.7021 1.29703 48.7021H6.28713C6.9901 48.7021 7.58416 49.3072 7.58416 50.0015C7.48515 50.7058 6.88119 51.3009 6.28713 51.3009Z" fill="#3D3D3D"/>
<path d="M6.28713 56.3002H1.29703C0.594059 56.3002 0 55.6951 0 55.0008C0 54.3065 0.594059 53.7014 1.29703 53.7014H6.28713C6.9901 53.7014 7.58416 54.3065 7.58416 55.0008C7.48515 55.7051 6.88119 56.3002 6.28713 56.3002Z" fill="#3D3D3D"/>
<path d="M26.2572 35.004C25.5543 35.004 24.9602 34.4089 24.9602 33.7046V25.0057H22.4652V33.8038C22.4652 34.5081 21.8711 35.1032 21.1681 35.1032C20.4652 35.1032 19.8711 34.4982 19.8711 33.8038V23.8055C19.8711 23.1012 20.4652 22.5061 21.1681 22.5061H26.1582C26.8612 22.5061 27.4553 23.1112 27.4553 23.8055V33.8038C27.4553 34.399 26.8612 35.004 26.2572 35.004Z" fill="#3D3D3D"/>
<path d="M34.9408 35.0041C34.2379 35.0041 33.6438 34.4089 33.6438 33.7047V12.4979H31.1487V33.8039C31.1487 34.5081 30.5547 35.1033 29.8517 35.1033C29.1487 35.1033 28.5547 34.4982 28.5547 33.8039V11.2977C28.5547 10.5934 29.1487 9.99829 29.8517 9.99829H34.8418C35.5448 9.99829 36.1388 10.5934 36.1388 11.2977V33.8039C36.2379 34.399 35.6438 35.0041 34.9408 35.0041Z" fill="#3D3D3D"/>
<path d="M43.7231 35.0042C43.0201 35.0042 42.426 34.4091 42.426 33.7049V16.3069H39.931V33.804C39.931 34.5083 39.3369 35.1034 38.6339 35.1034C37.931 35.1034 37.3369 34.4984 37.3369 33.804V14.9976C37.3369 14.2934 37.9409 13.6982 38.6339 13.6982H43.624C44.327 13.6982 44.9211 14.2934 44.9211 14.9976V33.804C44.9211 34.3992 44.327 35.0042 43.7231 35.0042Z" fill="#3D3D3D"/>
<path d="M46.2183 35.996H18.7629C18.0599 35.996 17.4658 35.4009 17.4658 34.6966C17.4658 33.9924 18.0599 33.3972 18.7629 33.3972H46.2183C46.9114 33.3972 47.5153 34.0023 47.5153 34.6966C47.5153 35.3909 46.8124 35.996 46.2183 35.996Z" fill="#3D3D3D"/>
<path d="M26.257 42.5031H19.9699C19.2669 42.5031 18.6729 41.898 18.6729 41.2037C18.6729 40.5094 19.2669 39.9043 19.9699 39.9043H26.257C26.96 39.9043 27.554 40.5094 27.554 41.2037C27.554 41.898 26.8511 42.5031 26.257 42.5031Z" fill="#3D3D3D"/>
<path d="M26.257 46.3019H19.9699C19.2669 46.3019 18.6729 45.6968 18.6729 45.0025C18.6729 44.3082 19.2669 43.7031 19.9699 43.7031H26.257C26.96 43.7031 27.554 44.3082 27.554 45.0025C27.455 45.7068 26.8511 46.3019 26.257 46.3019Z" fill="#3D3D3D"/>
<path d="M26.257 50.0016H19.9699C19.2669 50.0016 18.6729 49.3965 18.6729 48.7022C18.6729 48.0079 19.2669 47.4028 19.9699 47.4028H26.257C26.96 47.4028 27.554 48.0079 27.554 48.7022C27.455 49.4065 26.8511 50.0016 26.257 50.0016Z" fill="#3D3D3D"/>
<path d="M26.257 53.8007H19.9699C19.2669 53.8007 18.6729 53.1956 18.6729 52.5013C18.6729 51.807 19.2669 51.2019 19.9699 51.2019H26.257C26.96 51.2019 27.554 51.797 27.554 52.5013C27.455 53.2055 26.8511 53.8007 26.257 53.8007Z" fill="#3D3D3D"/>
<path d="M44.9205 46.3019H31.2472C30.5542 46.3019 29.9502 45.6968 29.9502 45.0025C29.9502 44.3082 30.5542 43.7031 31.2472 43.7031H45.0195C45.7225 43.7031 46.3165 44.3082 46.3165 45.0025C46.2175 45.7068 45.6136 46.3019 44.9205 46.3019Z" fill="#3D3D3D"/>
<path d="M44.9205 50.0016H31.2472C30.5542 50.0016 29.9502 49.3965 29.9502 48.7022C29.9502 48.0079 30.5542 47.4028 31.2472 47.4028H45.0195C45.7225 47.4028 46.3165 48.0079 46.3165 48.7022C46.2175 49.4065 45.6136 50.0016 44.9205 50.0016Z" fill="#3D3D3D"/>
<path d="M44.9205 53.8007H31.2472C30.5542 53.8007 29.9502 53.1956 29.9502 52.5013C29.9502 51.807 30.5542 51.2019 31.2472 51.2019H45.0195C45.7225 51.2019 46.3165 51.797 46.3165 52.5013C46.2175 53.2055 45.6136 53.8007 44.9205 53.8007Z" fill="#3D3D3D"/>
<path d="M26.2578 21.2962H21.2677C20.5648 21.2962 19.9707 20.701 19.9707 19.9968C19.9707 19.2925 20.5648 18.6974 21.2677 18.6974H25.0598V7.49885C25.0598 6.7946 25.6638 6.19946 26.3568 6.19946H38.8321C39.5351 6.19946 40.1291 6.7946 40.1291 7.49885V9.99844H43.9212C44.6242 9.99844 45.2182 10.5936 45.2182 11.2978C45.2182 12.0021 44.6242 12.5972 43.9212 12.5972H38.9311C38.2281 12.5972 37.6341 12.0021 37.6341 11.2978V8.79824H27.4559V19.9968C27.4559 20.701 26.8618 21.2962 26.2578 21.2962Z" fill="#3D3D3D"/>
<path d="M53.7033 41.3027C53.0003 41.3027 52.4062 40.6977 52.4062 40.0033V9.99836C52.4062 9.29411 53.0003 8.69897 53.7033 8.69897C54.4063 8.69897 55.0003 9.29411 55.0003 9.99836V40.0033C54.9013 40.7076 54.2973 41.3027 53.7033 41.3027Z" fill="#3D3D3D"/>
</svg>
