<svg width="55" height="60" viewBox="0 0 55 60" fill="none" xmlns="http://www.w3.org/2000/svg">
<path d="M41.9203 27.5833V38.5218L26.8057 47.6266V36.9107L41.9203 27.5833Z" fill="#A1C0FF"/>
<path d="M26.8061 36.9107V47.6266L11.6914 38.5218V27.5833L26.8061 36.9107Z" fill="white"/>
<path d="M50.9299 22.0079L41.9204 27.5832L26.8058 36.9106L11.6911 27.5832L2.68164 22.0079L26.8058 6.99927L50.9299 22.0079Z" fill="#EAFFB6"/>
<path d="M26.8062 48.9197C26.5942 48.9197 26.3822 48.8137 26.1597 48.7077L11.045 39.6982C10.621 39.4863 10.3984 39.0517 10.3984 38.5217V27.5832C10.3984 26.8306 11.045 26.1841 11.7976 26.1841C12.5501 26.1841 13.1861 26.8306 13.1861 27.5832V37.7692L27.6648 46.45C28.3113 46.874 28.5233 47.6266 28.0887 48.2731C27.6648 48.6971 27.2302 48.9197 26.8062 48.9197Z" fill="#3D3D3D"/>
<path d="M26.8058 48.9197C26.5938 48.9197 26.3818 48.8137 26.1593 48.7077C25.7353 48.4957 25.5127 48.0611 25.5127 47.5312V36.8046C25.5127 36.0521 26.1593 35.4161 26.9012 35.4161C27.6432 35.4161 28.2897 36.0627 28.2897 36.8046V45.1675L40.7228 37.7692V27.5832C40.7228 26.8306 41.3693 26.1841 42.1219 26.1841C42.8744 26.1841 43.521 26.8306 43.521 27.5832V38.5217C43.521 38.9457 43.309 39.3803 42.8744 39.6982L27.7598 48.7077C27.2192 48.9197 27.0072 48.9197 26.7952 48.9197H26.8058Z" fill="#3D3D3D"/>
<path d="M50.9295 41.3092C50.1769 41.3092 49.5304 40.6626 49.5304 39.9101V23.2903H26.7948C26.0422 23.2903 25.4062 22.6438 25.4062 21.9018C25.4062 21.1598 26.0528 20.5027 26.7948 20.5027H50.9189C51.6714 20.5027 52.318 21.1492 52.318 21.9018V39.9101C52.318 40.7686 51.6714 41.3092 50.9189 41.3092H50.9295Z" fill="#3D3D3D"/>
<path d="M26.8055 38.1931C26.5935 38.1931 26.2649 38.0871 26.0529 37.9811L10.9382 28.6537L1.92879 23.0784C1.50481 22.8664 1.28223 22.4318 1.28223 21.9019C1.28223 21.4673 1.49421 21.0433 1.92879 20.7253L26.0529 5.81207C26.4769 5.60008 27.0174 5.60008 27.4414 5.81207L51.5655 20.7147C52.0001 20.9267 52.2121 21.3613 52.2121 21.8913C52.2121 22.3152 52.0001 22.7498 51.5655 23.0678L42.5561 28.6431L27.4414 37.9705C27.3354 38.1825 27.0174 38.1825 26.7948 38.1825L26.8055 38.1931ZM5.25698 22.0079L26.8055 35.2994L48.3539 21.9019L26.8055 8.59969L5.25698 22.0079Z" fill="#3D3D3D"/>
</svg>
