<svg width="55" height="60" viewBox="0 0 55 60" fill="none" xmlns="http://www.w3.org/2000/svg">
<path d="M52.5219 48.1171C55.2755 50.0548 53.8477 54.3381 50.4823 54.3381H39.162C38.2442 54.3381 37.4283 54.0322 36.8164 53.4203C35.3886 52.0945 35.1847 49.4429 37.1224 48.0151L42.2216 44.2417L42.3235 44.3437C42.4255 44.4457 42.6295 44.5477 42.7315 44.5477C42.7315 44.5477 42.8335 44.5477 42.8335 44.6496C42.8335 44.6496 42.9354 44.6496 43.0374 44.7516C43.1054 44.7516 43.1734 44.7856 43.2414 44.8536C43.3094 44.9216 43.3774 44.9556 43.4454 44.9556C43.5473 44.9556 43.6493 45.0576 43.7513 45.0576C43.8533 45.0576 43.9553 45.0576 44.0573 45.1596H45.485C45.587 45.1596 45.689 45.1596 45.791 45.0576C45.893 45.0576 45.995 44.9556 46.0969 44.9556C46.1989 44.9556 46.1989 44.9556 46.3009 44.8536C46.3689 44.8536 46.4369 44.8196 46.5049 44.7516C46.5729 44.7516 46.6409 44.7176 46.7089 44.6496C46.7089 44.6496 46.8108 44.6496 46.8108 44.5477C46.9128 44.4457 47.1168 44.3437 47.2188 44.3437L47.3208 44.2417L52.5219 48.1171Z" fill="#A1C0FF"/>
<path d="M19.5811 53.5223C18.9692 54.0322 18.2553 54.3382 17.3374 54.3382H6.01718C2.6517 54.3382 1.22393 50.0549 3.9775 48.1172L9.0767 44.3438L9.17868 44.4457C9.28067 44.5477 9.48463 44.6497 9.58662 44.6497C9.58662 44.6497 9.6886 44.6497 9.6886 44.7517C9.6886 44.7517 9.79059 44.7517 9.89257 44.8537C9.96056 44.8537 10.0285 44.8877 10.0965 44.9557C10.1645 45.0236 10.2325 45.0576 10.3005 45.0576C10.4025 45.0576 10.5045 45.1596 10.6065 45.1596C10.7084 45.1596 10.8104 45.1596 10.9124 45.2616H12.3402C12.4422 45.2616 12.5442 45.2616 12.6461 45.1596C12.7481 45.1596 12.8501 45.0576 12.9521 45.0576C13.0541 45.0576 13.0541 45.0576 13.1561 44.9557C13.224 44.9557 13.292 44.9217 13.36 44.8537C13.428 44.8537 13.496 44.8197 13.564 44.7517C13.564 44.7517 13.666 44.7517 13.666 44.6497C13.768 44.5477 13.9719 44.4457 14.0739 44.4457L14.1759 44.3438L19.2751 48.1172C21.4168 49.5449 21.1108 52.1965 19.5811 53.5223Z" fill="#EAFFB6"/>
<path d="M35.5929 14.9724C38.3465 16.9101 36.9187 21.1934 33.5532 21.1934H22.233C18.8675 21.1934 17.4397 16.9101 20.1933 14.9724L23.6608 12.4228L25.3945 11.199L25.4965 11.301C25.5985 11.4029 25.8024 11.5049 25.9044 11.5049C25.9044 11.5049 26.0064 11.5049 26.0064 11.6069C26.0064 11.6069 26.1084 11.6069 26.2104 11.7089C26.2104 11.7089 26.3124 11.7089 26.4143 11.8109C26.4823 11.8109 26.5503 11.8449 26.6183 11.9129C26.7203 11.9129 26.8223 12.0148 26.9243 12.0148C27.0262 12.0148 27.1282 12.0148 27.2302 12.1168H28.658C28.76 12.1168 28.862 12.1168 28.9639 12.0148C29.0659 12.0148 29.1679 11.9129 29.2699 11.9129C29.3719 11.9129 29.3719 11.9129 29.4739 11.8109C29.5419 11.8109 29.6098 11.7769 29.6778 11.7089C29.7458 11.6409 29.8138 11.6069 29.8818 11.6069C29.8818 11.6069 29.9838 11.6069 29.9838 11.5049C30.0858 11.4029 30.2897 11.4029 30.3917 11.301L30.4937 11.199L32.0235 12.3208L35.5929 14.9724Z" fill="#EAFFB6"/>
<path d="M49.7684 9.46517C51.1765 9.46517 52.318 8.32367 52.318 6.91557C52.318 5.50746 51.1765 4.36597 49.7684 4.36597C48.3602 4.36597 47.2188 5.50746 47.2188 6.91557C47.2188 8.32367 48.3602 9.46517 49.7684 9.46517Z" fill="white"/>
<path d="M5.8127 10.689C6.88353 10.689 7.75039 11.5558 7.75039 12.6267C7.75039 13.6975 6.88353 14.5644 5.8127 14.5644C4.74186 14.5644 3.875 13.6975 3.875 12.6267C3.875 11.5558 4.74186 10.689 5.8127 10.689Z" fill="white"/>
<path d="M49.0544 39.1426C49.2584 39.6525 49.3603 40.1624 49.3603 40.6724C49.3603 42.2021 48.6465 43.5279 47.4226 44.3438L47.3207 44.4458C47.2187 44.5477 47.0147 44.6497 46.9127 44.6497C46.9127 44.6497 46.8107 44.6497 46.8107 44.7517C46.7428 44.7517 46.6748 44.7857 46.6068 44.8537C46.5388 44.9217 46.4708 44.9557 46.4028 44.9557C46.3348 44.9557 46.2668 44.9897 46.1988 45.0577C46.0968 45.0577 45.9949 45.1597 45.8929 45.1597C45.7909 45.1597 45.6889 45.1597 45.5869 45.2616H44.1592C44.0572 45.2616 43.9552 45.2616 43.8532 45.1597C43.7512 45.1597 43.6492 45.0577 43.5473 45.0577C43.4453 45.0577 43.4453 45.0577 43.3433 44.9557C43.2753 44.9557 43.2073 44.9217 43.1393 44.8537C43.0713 44.8537 43.0033 44.8197 42.9353 44.7517C42.9353 44.7517 42.8334 44.7517 42.8334 44.6497C42.7314 44.5477 42.5274 44.4458 42.4254 44.4458L42.3234 44.3438C41.2016 43.5279 40.3857 42.2021 40.3857 40.6724C40.3857 38.2247 42.4254 36.1851 44.873 36.1851C46.8107 36.1851 48.4425 37.4089 49.0544 39.1426Z" fill="#A1C0FF"/>
<path d="M27.8418 3.04028C30.2894 3.04028 32.3291 5.07996 32.3291 7.52758C32.3291 9.05734 31.6152 10.3831 30.3914 11.199L30.2894 11.301C30.1874 11.403 29.9835 11.505 29.8815 11.505C29.8815 11.505 29.7795 11.505 29.7795 11.6069C29.7795 11.6069 29.6775 11.6069 29.5755 11.7089H29.3716C29.3036 11.7089 29.2356 11.7429 29.1676 11.8109C29.0656 11.8109 28.9636 11.9129 28.8616 11.9129C28.7596 11.9129 28.6577 11.9129 28.5557 12.0149H27.1279C27.0259 12.0149 26.9239 12.0149 26.8219 11.9129C26.72 11.9129 26.618 11.8109 26.516 11.8109C26.448 11.7429 26.38 11.7089 26.312 11.7089C26.244 11.7089 26.1761 11.6749 26.1081 11.6069C26.0401 11.539 25.9721 11.505 25.9041 11.505C25.9041 11.505 25.8021 11.505 25.8021 11.403C25.7001 11.301 25.4962 11.199 25.3942 11.199L25.2922 11.097C24.1704 10.2812 23.3545 8.95536 23.3545 7.4256C23.3545 5.07996 25.3942 3.04028 27.8418 3.04028Z" fill="#EAFFB6"/>
<path d="M11.7285 36.1851C14.1761 36.1851 16.2158 38.2247 16.2158 40.6724C16.2158 42.2021 15.5019 43.5279 14.2781 44.3438L14.1761 44.4458C14.0741 44.5477 13.8702 44.6497 13.7682 44.6497C13.7682 44.6497 13.6662 44.6497 13.6662 44.7517C13.6662 44.7517 13.5642 44.7517 13.4622 44.8537C13.3942 44.8537 13.3263 44.8877 13.2583 44.9557C13.1903 45.0237 13.1223 45.0577 13.0543 45.0577C12.9523 45.0577 12.8503 45.1597 12.7484 45.1597C12.6464 45.1597 12.5444 45.1597 12.4424 45.2616H11.0146C10.9126 45.2616 10.8107 45.2616 10.7087 45.1597C10.6067 45.1597 10.5047 45.0577 10.4027 45.0577C10.3007 45.0577 10.3007 45.0577 10.1987 44.9557C10.1308 44.9557 10.0628 44.9217 9.99478 44.8537C9.92679 44.8537 9.8588 44.8197 9.79081 44.7517C9.79081 44.7517 9.68883 44.7517 9.68883 44.6497C9.58684 44.5477 9.38288 44.4458 9.28089 44.4458L9.17891 44.3438C8.05708 43.5279 7.24121 42.2021 7.24121 40.6724C7.24121 40.3664 7.24121 40.1624 7.34319 39.8565C7.64915 37.7148 9.48486 36.1851 11.7285 36.1851Z" fill="#EAFFB6"/>
<path d="M54.4595 26.3945C54.6634 26.5985 54.8674 26.9044 54.8674 27.3124C54.8674 27.6183 54.7654 28.0263 54.4595 28.2302C54.2555 28.4342 53.9495 28.6382 53.5416 28.6382C52.8277 28.6382 52.2158 28.0263 52.2158 27.3124C52.2158 27.0064 52.3178 26.5985 52.6238 26.3945C52.8277 26.1905 53.1337 25.9866 53.5416 25.9866C53.9495 25.9866 54.2555 26.0886 54.4595 26.3945Z" fill="#3D3D3D"/>
<path d="M43.0376 56.9897C43.2416 57.1937 43.4455 57.4996 43.4455 57.9076C43.4455 58.2135 43.3435 58.6215 43.0376 58.8254C42.8336 59.0294 42.5277 59.2334 42.1197 59.2334C41.4058 59.2334 40.7939 58.6215 40.7939 57.9076C40.7939 57.6016 40.8959 57.1937 41.2019 56.9897C41.4059 56.7858 41.7118 56.5818 42.1197 56.5818C42.4257 56.5818 42.7316 56.6838 43.0376 56.9897Z" fill="#3D3D3D"/>
<path d="M40.4878 3.44822C40.6918 3.65219 40.8957 3.95814 40.8957 4.36608C40.8957 4.67203 40.7937 5.07996 40.4878 5.28393C40.2838 5.4879 39.9779 5.69187 39.5699 5.69187C38.856 5.69187 38.2441 5.07996 38.2441 4.36608C38.2441 4.06012 38.3461 3.65219 38.6521 3.44822C38.958 3.24425 39.162 3.04028 39.5699 3.04028C39.9779 3.04028 40.1818 3.14227 40.4878 3.44822Z" fill="#3D3D3D"/>
<path d="M16.2153 5.99778C16.4193 6.20175 16.6233 6.5077 16.6233 6.91564C16.6233 7.22159 16.5213 7.62952 16.2153 7.83349C16.0114 8.03746 15.7054 8.24143 15.2975 8.24143C14.5836 8.24143 13.9717 7.62953 13.9717 6.91564C13.9717 6.60968 14.0737 6.20175 14.3796 5.99778C14.6856 5.79381 14.8895 5.58984 15.2975 5.58984C15.7054 5.58984 16.0114 5.69183 16.2153 5.99778Z" fill="#3D3D3D"/>
<path d="M2.24365 32.7175C2.44762 32.9215 2.65159 33.2274 2.65159 33.6354C2.65159 34.0433 2.5496 34.3493 2.24365 34.5532C1.9377 34.7572 1.73373 34.9612 1.32579 34.9612C0.611904 34.9612 0 34.3493 0 33.6354C0 33.3294 0.101984 32.9215 0.407936 32.7175C0.611904 32.5135 0.917856 32.3096 1.32579 32.3096C1.63174 32.3096 1.9377 32.5135 2.24365 32.7175Z" fill="#3D3D3D"/>
<path d="M49.0543 40.3664H48.7483C48.0344 40.1624 48.065 39.4384 48.269 38.8264C48.6769 37.1947 48.4424 35.4712 48.4424 33.6355C48.4424 23.743 41.4055 15.3803 31.717 13.5446C31.0031 13.4426 30.5952 12.7287 30.6971 12.0148C30.7991 11.301 31.513 10.893 32.2269 10.995C43.1392 13.0347 50.992 22.5192 50.992 33.5335C50.992 35.4712 50.788 37.4089 50.2781 39.3466C50.1761 40.0605 49.5642 40.3664 49.0543 40.3664Z" fill="#3D3D3D"/>
<path d="M27.7904 56.5818C24.7105 56.5818 21.8345 55.9699 19.0504 54.746C18.5506 54.5421 18.2549 54.1341 18.2549 53.5222C18.2549 52.8083 18.8464 52.1964 19.5501 52.1964C19.7439 52.1964 19.9478 52.1964 20.0498 52.2984C22.528 53.4202 25.1184 53.9302 27.8006 53.9302C30.4828 53.9302 33.2669 53.3183 35.8471 52.1964C36.4386 51.8905 37.2341 52.1964 37.4381 52.8083C37.7338 53.4202 37.4381 54.2361 36.8466 54.4401C34.0624 55.9698 30.9927 56.5818 27.8108 56.5818H27.7904Z" fill="#3D3D3D"/>
<path d="M7.34284 41.0802C6.83292 41.0802 6.323 40.6722 6.11903 40.1623C5.50712 38.0207 5.20117 35.777 5.20117 33.6353C5.20117 28.3322 7.03688 23.131 10.4024 19.0516C13.6658 14.9723 18.3571 12.2187 23.4563 11.1989C24.1702 11.0969 24.7821 11.5048 24.9861 12.2187C25.19 12.9326 24.6801 13.5445 23.9662 13.7485C14.5837 15.6862 7.75077 24.1508 7.75077 33.7373C7.75077 35.675 8.05672 37.7147 8.56665 39.5504C8.77061 40.2643 8.36268 40.9782 7.75077 41.1822C7.5468 41.0802 7.44482 41.0802 7.34284 41.0802Z" fill="#3D3D3D"/>
<path d="M17.3374 55.6639H6.01721C3.97753 55.6639 2.14182 54.3381 1.52991 52.4004C0.918007 50.4627 1.52991 48.321 3.26364 47.0972L8.36284 43.3238C8.77078 43.0179 9.38268 43.0179 9.8926 43.3238L9.99459 43.4258C10.6065 43.8337 10.7085 44.6496 10.3005 45.1595C10.0966 45.4655 9.79062 45.6694 9.38268 45.6694L4.69142 49.1369C3.77356 49.8508 3.67158 50.8706 3.87554 51.5845C4.07951 52.2984 4.7934 53.1143 5.91523 53.1143H17.2355C17.7454 53.1143 18.2553 52.9103 18.6632 52.6044C19.1732 52.1964 19.4791 51.4825 19.4791 50.7686C19.4791 50.2587 19.2751 49.6468 18.5612 49.1369L14.1759 45.8734H14.0739C13.462 46.1794 12.6462 45.8734 12.3402 45.2615C12.0343 44.6496 12.3402 43.8337 12.9521 43.5278C12.9521 43.5278 13.0541 43.5278 13.0541 43.4258C13.1561 43.3238 13.2581 43.3238 13.3601 43.2218C13.3601 43.2218 13.462 43.2218 13.462 43.1198C13.972 42.8139 14.4819 42.8139 14.9918 43.1198L20.091 46.8933C21.3148 47.8111 22.0287 49.0349 22.0287 50.5647C22.0287 52.0944 21.4168 53.5222 20.295 54.4401C19.4791 55.2559 18.4593 55.6639 17.3374 55.6639Z" fill="#3D3D3D"/>
<path d="M9.8928 45.9754C9.68884 45.9754 9.48487 45.9754 9.38288 45.8734C9.2809 45.8734 9.2809 45.7714 9.17892 45.7714C8.97495 45.6694 8.77098 45.5675 8.669 45.4655C8.05709 45.0575 7.85312 44.3436 8.26106 43.7317C8.669 43.1198 9.38289 42.9159 9.99479 43.3238C10.0968 43.4258 10.1988 43.4258 10.3007 43.5278C10.3007 43.5278 10.4027 43.5278 10.4027 43.6298C11.0146 43.9357 11.3206 44.6496 11.0146 45.3635C10.8107 45.7714 10.3007 45.9754 9.8928 45.9754Z" fill="#3D3D3D"/>
<path d="M10.7081 46.2816H10.4022C10.3002 46.2816 10.0962 46.1796 9.99423 46.1796C9.92624 46.1796 9.85825 46.1456 9.79026 46.0776C9.72227 46.0096 9.65428 45.9756 9.58629 45.9756C9.4843 45.9756 9.48431 45.8736 9.38232 45.8736C8.77042 45.5677 8.46447 44.8538 8.77042 44.1399C9.07637 43.528 9.79026 43.222 10.5041 43.528H10.8101C10.8781 43.528 10.9461 43.562 11.0141 43.63C11.728 43.8339 12.1359 44.4458 11.9319 45.1597C11.728 45.8736 11.218 46.2816 10.7081 46.2816Z" fill="#3D3D3D"/>
<path d="M11.1159 46.3834H10.8099C10.708 46.3834 10.606 46.3834 10.402 46.2814C9.68811 46.0774 9.28018 45.4655 9.48415 44.7516C9.68811 44.0377 10.3 43.6298 11.0139 43.8338H11.4218C12.1357 43.9357 12.6457 44.5476 12.5437 45.2615C12.3397 45.8734 11.8298 46.3834 11.1159 46.3834Z" fill="#3D3D3D"/>
<path d="M11.4226 46.3834H11.0147C10.3008 46.2814 9.79089 45.6695 9.89288 44.9556C9.99486 44.2417 10.6068 43.7318 11.3207 43.8338H11.4226C12.1365 43.8338 12.6464 44.4457 12.6464 45.1596C12.7484 45.8735 12.1365 46.3834 11.4226 46.3834Z" fill="#3D3D3D"/>
<path d="M11.7286 46.3833H11.5246C10.8107 46.3833 10.3008 45.7714 10.3008 45.0575C10.3008 44.3437 10.9127 43.8337 11.6266 43.8337H11.8305C12.5444 43.8337 13.1563 44.3437 13.1563 45.0575C13.1563 45.7714 12.6464 46.3833 11.9325 46.3833H11.7286Z" fill="#3D3D3D"/>
<path d="M11.9318 46.3834C11.2179 46.3834 10.708 45.8735 10.708 45.1596C10.708 44.4457 11.2179 43.8338 11.9318 43.8338H12.0338C12.7477 43.7318 13.3596 44.2417 13.4616 44.9556C13.5636 45.6695 13.0536 46.2814 12.3398 46.3834H11.9318Z" fill="#3D3D3D"/>
<path d="M12.2378 46.3834C11.6259 46.3834 11.116 45.9754 11.014 45.2615C10.912 44.5477 11.4219 43.9357 12.1358 43.8338H12.5437C13.2576 43.6298 13.8695 44.1397 14.0735 44.7516C14.2775 45.4655 13.7675 46.0774 13.1556 46.2814C13.0537 46.2814 12.8497 46.3834 12.7477 46.3834H12.2378Z" fill="#3D3D3D"/>
<path d="M12.748 46.2814C12.1361 46.2814 11.6262 45.8734 11.5242 45.2615C11.3202 44.5476 11.8301 43.9357 12.4421 43.7318C12.544 43.7318 12.646 43.7318 12.646 43.6298H12.952C13.5639 43.3238 14.3797 43.6298 14.6857 44.2417C14.9917 44.8536 14.6857 45.6695 14.0738 45.9754C13.9718 45.9754 13.9718 46.0774 13.8698 46.0774C13.8018 46.0774 13.7338 46.1114 13.6659 46.1794C13.5979 46.2474 13.5299 46.2814 13.4619 46.2814C13.3599 46.2814 13.1559 46.3834 13.054 46.3834C12.952 46.2814 12.85 46.2814 12.748 46.2814Z" fill="#3D3D3D"/>
<path d="M50.4825 55.6639H39.1623C37.9385 55.6639 36.8166 55.2559 36.0008 54.4401C34.9809 53.5222 34.369 52.0944 34.471 50.6667C34.573 49.2389 35.2869 48.0151 36.4087 47.0972L41.5079 43.3238C41.9158 43.0179 42.5277 43.0179 43.0377 43.3238L43.1396 43.4258C43.7516 43.8337 43.8535 44.6496 43.4456 45.1595C43.2416 45.4655 42.9357 45.6694 42.5277 45.6694L37.8365 49.1369C37.1226 49.6468 36.9186 50.2587 36.9186 50.7686C36.9186 51.4825 37.1226 52.0944 37.6325 52.6044C38.0404 53.0123 38.5504 53.1143 39.0603 53.1143H50.3805C51.5023 53.1143 52.2162 52.2984 52.4202 51.5845C52.6242 50.8706 52.6242 49.8508 51.6043 49.1369L47.117 45.8734H47.015C46.4031 46.1794 45.5873 45.8734 45.2813 45.2615C44.9754 44.6496 45.2813 43.8337 45.8932 43.5278C45.8932 43.5278 45.9952 43.5278 45.9952 43.4258C46.0972 43.3238 46.1992 43.3238 46.3012 43.2218C46.3012 43.2218 46.4031 43.2218 46.4031 43.1198C46.9131 42.8139 47.423 42.8139 47.9329 43.1198L53.0321 46.8933C54.7658 48.1171 55.3777 50.1567 54.7658 52.1964C54.3579 54.3381 52.6242 55.6639 50.4825 55.6639Z" fill="#3D3D3D"/>
<path d="M43.0373 45.9754C42.8334 45.9754 42.6294 45.9754 42.5274 45.8734C42.4254 45.8734 42.4254 45.7714 42.3234 45.7714C42.1195 45.6694 41.9155 45.5675 41.8135 45.4655C41.2016 45.0575 40.9977 44.3436 41.4056 43.7317C41.8135 43.1198 42.5274 42.9159 43.1393 43.3238C43.2413 43.4258 43.3433 43.4258 43.4453 43.5278C43.4453 43.5278 43.5473 43.5278 43.5473 43.6298C44.1592 43.9357 44.4651 44.6496 44.1592 45.3635C43.9552 45.7714 43.4453 45.9754 43.0373 45.9754Z" fill="#3D3D3D"/>
<path d="M43.8536 46.2816H43.5477C43.4457 46.2816 43.2417 46.1796 43.1397 46.1796C43.0717 46.1796 43.0038 46.1456 42.9358 46.0776C42.8678 46.0096 42.7998 45.9756 42.7318 45.9756C42.6298 45.9756 42.6298 45.8736 42.5278 45.8736C41.9159 45.5677 41.61 44.8538 41.9159 44.1399C42.2219 43.528 42.9358 43.222 43.6497 43.528H43.9556C44.0236 43.528 44.0916 43.562 44.1596 43.63C44.8735 43.8339 45.2814 44.4458 45.0774 45.1597C44.8735 45.8736 44.3635 46.2816 43.8536 46.2816Z" fill="#3D3D3D"/>
<path d="M44.2614 46.3834H43.9554C43.8535 46.3834 43.7515 46.3834 43.5475 46.2814C42.8336 46.0774 42.4257 45.4655 42.6297 44.7516C42.8336 44.0377 43.4455 43.6298 44.1594 43.8338H44.5674C45.2812 43.9357 45.7912 44.5476 45.6892 45.2615C45.4852 45.8734 44.9753 46.3834 44.2614 46.3834Z" fill="#3D3D3D"/>
<path d="M44.5672 46.3834H44.1592C43.4453 46.2814 42.9354 45.6695 43.0374 44.9556C43.1394 44.2417 43.7513 43.7318 44.4652 43.8338H44.5672C45.2811 43.8338 45.791 44.4457 45.791 45.1596C45.893 45.8735 45.2811 46.3834 44.5672 46.3834Z" fill="#3D3D3D"/>
<path d="M44.8731 46.3833H44.6691C43.9552 46.3833 43.4453 45.7714 43.4453 45.0575C43.4453 44.3437 44.0572 43.8337 44.7711 43.8337H44.9751C45.689 43.8337 46.3009 44.3437 46.3009 45.0575C46.3009 45.7714 45.7909 46.3833 45.0771 46.3833H44.8731Z" fill="#3D3D3D"/>
<path d="M45.0773 46.3834C44.3634 46.3834 43.8535 45.8735 43.8535 45.1596C43.8535 44.4457 44.3634 43.8338 45.0773 43.8338H45.1793C45.8932 43.7318 46.5051 44.2417 46.6071 44.9556C46.7091 45.6695 46.1991 46.2814 45.4853 46.3834H45.0773Z" fill="#3D3D3D"/>
<path d="M45.3833 46.3834C44.7714 46.3834 44.2615 45.9754 44.1595 45.2615C44.0575 44.5477 44.5674 43.9357 45.2813 43.8338H45.6892C46.4031 43.6298 47.015 44.1397 47.219 44.7516C47.423 45.4655 46.9131 46.0774 46.3011 46.2814C46.1992 46.2814 45.9952 46.3834 45.8932 46.3834H45.3833Z" fill="#3D3D3D"/>
<path d="M45.8925 46.2814C45.2806 46.2814 44.7707 45.8734 44.6687 45.2615C44.4648 44.5476 44.9747 43.9357 45.5866 43.7318C45.6886 43.7318 45.7906 43.7318 45.7906 43.6298H46.0965C46.7084 43.3238 47.5243 43.6298 47.8302 44.2417C48.1362 44.8536 47.8302 45.6695 47.2183 45.9754C47.1163 45.9754 47.1163 46.0774 47.0144 46.0774C46.9464 46.0774 46.8784 46.1114 46.8104 46.1794C46.7424 46.2474 46.6744 46.2814 46.6064 46.2814C46.5044 46.2814 46.3005 46.3834 46.1985 46.3834C46.0965 46.2814 45.9945 46.2814 45.8925 46.2814Z" fill="#3D3D3D"/>
<path d="M33.5523 22.5192H22.2321C20.1924 22.5192 18.3567 21.1934 17.7448 19.2558C17.1329 17.3181 17.7448 15.1764 19.4785 13.9526L22.9459 11.403L24.5777 10.1792C24.9856 9.87322 25.5975 9.87322 26.1074 10.1792C26.1074 10.1792 26.2094 10.1792 26.2094 10.2812C26.3114 10.3831 26.4134 10.3831 26.5154 10.4851C26.5154 10.4851 26.6174 10.4851 26.6174 10.5871C27.2293 10.8931 27.5352 11.6069 27.2293 12.3208C26.9233 12.9327 26.2094 13.2387 25.4955 12.9327H25.3936L24.3737 13.6466L21.0082 16.0942C20.0904 16.8081 19.9884 17.828 20.1924 18.5419C20.3963 19.2558 21.1102 20.0716 22.2321 20.0716H33.5523C34.6741 20.0716 35.388 19.2558 35.592 18.5419C35.7959 17.828 35.7959 16.8081 34.7761 16.0942L30.0848 12.6268C29.7789 12.6268 29.3709 12.4228 29.167 12.1169C28.759 11.505 28.963 10.7911 29.4729 10.3831L29.5749 10.2812C30.0848 9.9752 30.5947 9.9752 31.1047 10.2812L36.2039 14.0546C37.9376 15.2784 38.5495 17.3181 37.9376 19.3577C37.4277 21.1934 35.592 22.5192 33.5523 22.5192Z" fill="#3D3D3D"/>
<path d="M26.8214 13.1365H26.5154C26.4135 13.1365 26.2095 13.0346 26.1075 13.0346C26.0395 13.0346 25.9715 13.0006 25.9035 12.9326C25.8355 12.8646 25.7676 12.8306 25.6996 12.8306C25.5976 12.8306 25.5976 12.7286 25.4956 12.7286C24.8837 12.4226 24.5777 11.7088 24.8837 10.9949C25.1897 10.383 25.9035 10.077 26.6174 10.383H26.9234C26.9914 10.383 27.0594 10.417 27.1273 10.4849C27.8412 10.6889 28.2492 11.3008 28.0452 12.0147C27.9432 12.7286 27.4333 13.1365 26.8214 13.1365Z" fill="#3D3D3D"/>
<path d="M27.3317 13.2386H27.0258C26.9238 13.2386 26.8218 13.2386 26.6178 13.1366C25.9039 12.9326 25.496 12.3207 25.7 11.6068C25.9039 10.8929 26.5158 10.485 27.2297 10.689H27.6377C28.3516 10.791 28.8615 11.4029 28.7595 12.1168C28.4535 12.7287 27.9436 13.2386 27.3317 13.2386Z" fill="#3D3D3D"/>
<path d="M27.6375 13.2386H27.2295C26.5157 13.1366 26.0057 12.5247 26.1077 11.8108C26.2097 11.097 26.8216 10.587 27.5355 10.689H27.7395C28.4534 10.689 28.9633 11.3009 28.9633 12.0148C28.8613 12.7287 28.3514 13.2386 27.6375 13.2386Z" fill="#3D3D3D"/>
<path d="M27.8418 13.2386H27.6379C26.924 13.2386 26.4141 12.6267 26.4141 11.9128C26.4141 11.1989 27.026 10.689 27.7399 10.689H27.9438C28.6577 10.689 29.2696 11.1989 29.2696 11.9128C29.2696 12.6267 28.7597 13.2386 28.0458 13.2386H27.8418Z" fill="#3D3D3D"/>
<path d="M28.1476 13.2386C27.4337 13.2386 26.9238 12.7286 26.9238 12.0148C26.9238 11.3009 27.4337 10.689 28.1476 10.689H28.3516L28.4536 11.9128L28.5556 13.1366H28.3516C28.2836 13.2046 28.2156 13.2386 28.1476 13.2386Z" fill="#3D3D3D"/>
<path d="M28.4536 13.2386C27.8417 13.2386 27.3318 12.8307 27.2298 12.1168C27.1278 11.4029 27.6377 10.791 28.3516 10.689H28.7596C29.4734 10.485 30.0853 10.9949 30.2893 11.6068C30.4933 12.3207 29.9834 12.9326 29.3715 13.1366C29.2695 13.1366 29.0655 13.2386 28.9635 13.2386H28.4536Z" fill="#3D3D3D"/>
<path d="M28.8613 13.1366C28.2494 13.1366 27.7395 12.7287 27.6375 12.1168C27.4335 11.4029 27.9434 10.791 28.5553 10.587C28.6573 10.587 28.7593 10.587 28.7593 10.485H29.0653C29.6772 10.1791 30.493 10.485 30.799 11.0969C31.1049 11.7088 30.799 12.5247 30.1871 12.8306C30.0851 12.8306 30.0851 12.9326 29.9831 12.9326C29.9151 12.9326 29.8471 12.9666 29.7791 13.0346C29.7112 13.1026 29.6432 13.1366 29.5752 13.1366C29.4732 13.1366 29.2692 13.2386 29.1672 13.2386C29.0653 13.1366 28.9633 13.1366 28.8613 13.1366Z" fill="#3D3D3D"/>
<path d="M29.6774 12.8308C29.1675 12.8308 28.7595 12.5248 28.5556 12.1169C28.2496 11.505 28.5556 10.6891 29.1675 10.3832C29.1675 10.3832 29.2695 10.3832 29.2695 10.2812C29.3714 10.1792 29.4734 10.1792 29.5754 10.0772C30.1873 9.66929 31.0032 9.87325 31.3091 10.4852C31.7171 11.0971 31.5131 11.9129 30.9012 12.2189C30.6972 12.3209 30.5953 12.4229 30.3913 12.5248C30.2893 12.5248 30.2893 12.6268 30.1873 12.6268C30.0853 12.8308 29.8814 12.8308 29.6774 12.8308Z" fill="#3D3D3D"/>
<path d="M5.81287 15.7883C4.07914 15.7883 2.65137 14.3606 2.65137 12.6268C2.65137 10.8931 4.07914 9.46533 5.81287 9.46533C7.5466 9.46533 8.97438 10.8931 8.97438 12.6268C8.97438 14.3606 7.5466 15.7883 5.81287 15.7883ZM5.81287 12.0149C5.50692 12.0149 5.20097 12.3209 5.20097 12.6268C5.20097 12.9328 5.50692 13.2387 5.81287 13.2387C6.11882 13.2387 6.42478 12.9328 6.42478 12.6268C6.42478 12.2189 6.11882 12.0149 5.81287 12.0149Z" fill="#3D3D3D"/>
<path d="M49.768 10.689C47.6263 10.689 45.8926 8.95529 45.8926 6.81363C45.8926 4.67196 47.6263 2.93823 49.768 2.93823C51.9096 2.93823 53.6434 4.67196 53.6434 6.81363C53.6434 8.95529 51.8077 10.689 49.768 10.689ZM49.768 5.58982C49.0541 5.58982 48.4422 6.20172 48.4422 6.91561C48.4422 7.6295 49.0541 8.2414 49.768 8.2414C50.4819 8.2414 51.0938 7.6295 51.0938 6.91561C50.9918 6.20172 50.4819 5.58982 49.768 5.58982Z" fill="#3D3D3D"/>
<path d="M11.983 44.9455C14.6978 44.9455 16.8986 42.7447 16.8986 40.0299C16.8986 37.3151 14.6978 35.1143 11.983 35.1143C9.26819 35.1143 7.06738 37.3151 7.06738 40.0299C7.06738 42.7447 9.26819 44.9455 11.983 44.9455Z" stroke="#3D3D3D" stroke-width="3" stroke-miterlimit="10"/>
<path d="M44.6178 45.0781C47.3326 45.0781 49.5334 42.8773 49.5334 40.1625C49.5334 37.4476 47.3326 35.2468 44.6178 35.2468C41.903 35.2468 39.7021 37.4476 39.7021 40.1625C39.7021 42.8773 41.903 45.0781 44.6178 45.0781Z" stroke="#3D3D3D" stroke-width="3" stroke-miterlimit="10"/>
<path d="M27.7399 11.8313C30.4547 11.8313 32.6555 9.63046 32.6555 6.91563C32.6555 4.2008 30.4547 2 27.7399 2C25.025 2 22.8242 4.2008 22.8242 6.91563C22.8242 9.63046 25.025 11.8313 27.7399 11.8313Z" stroke="#3D3D3D" stroke-width="3" stroke-miterlimit="10"/>
</svg>
