<svg width="55" height="60" viewBox="0 0 55 60" fill="none" xmlns="http://www.w3.org/2000/svg">
<path d="M14.3975 28.5425V33.3009V38.0688V51.1286V57.1308H22.6894V45.2206H32.2157V57.1308H40.6018V51.1286V38.0688V33.3009V28.5425H14.3975Z" fill="#EAFFB6"/>
<path d="M6.57673 14.1445C7.57553 14.1445 8.38588 14.9549 8.38588 15.9537C8.38588 16.9525 7.57553 17.7628 6.57673 17.7628C5.57793 17.7628 4.76758 16.9525 4.76758 15.9537C4.76758 14.9549 5.57793 14.1445 6.57673 14.1445Z" fill="white"/>
<path d="M47.754 13.0044C49.0732 13.0044 50.138 14.0692 50.138 15.3883C50.138 16.7075 49.0732 17.7723 47.754 17.7723C46.4349 17.7723 45.3701 16.7075 45.3701 15.3883C45.3701 14.0692 46.4349 13.0044 47.754 13.0044Z" fill="white"/>
<path d="M35.8344 3.46875H27.4482V8.23661H35.8344V3.46875Z" fill="#A1C0FF"/>
<path d="M34.5999 33.3008H29.832V38.0686H34.5999V33.3008Z" fill="#A1C0FF"/>
<path d="M25.0735 33.3008H20.3057V38.0686H25.0735V33.3008Z" fill="#A1C0FF"/>
<path d="M32.2252 45.2205H22.6895V57.1401H32.2252V45.2205Z" fill="white"/>
<path d="M53.6623 33.3008V38.0686H51.2784H40.6025V33.3008H53.6623Z" fill="white"/>
<path d="M51.278 24.9148C51.9658 24.9148 52.5218 25.4707 52.5218 26.1586C52.5218 26.8464 51.9658 27.393 51.278 27.393C50.5901 27.393 50.0342 26.837 50.0342 26.1586C50.0342 25.4802 50.5901 24.9148 51.278 24.9148Z" fill="#3D3D3D"/>
<path d="M51.3726 51.1284H40.6025V57.1306H51.3726V51.1284Z" fill="white"/>
<path d="M51.3726 38.0686H40.6025V51.2226H51.3726V38.0686Z" fill="white"/>
<path d="M44.1354 6.99292C44.8232 6.99292 45.3792 7.54886 45.3792 8.23671C45.3792 8.92456 44.8232 9.47108 44.1354 9.47108C43.4475 9.47108 42.8916 8.91514 42.8916 8.23671C42.8916 7.55828 43.4475 6.99292 44.1354 6.99292Z" fill="#3D3D3D"/>
<path d="M44.1361 23.7747V28.5425H40.6026H14.3982H10.7705V23.7747H44.1361Z" fill="white"/>
<path d="M44.1361 23.7746H10.7705L27.4486 11.855L44.1361 23.7746Z" fill="#EAFFB6"/>
<path d="M16.7721 8.23657C17.46 8.23657 18.0065 8.79251 18.0065 9.47094C18.0065 10.1494 17.4505 10.7053 16.7721 10.7053C16.0937 10.7053 15.5283 10.1494 15.5283 9.47094C15.5283 8.79251 16.0843 8.23657 16.7721 8.23657Z" fill="#3D3D3D"/>
<path d="M14.3883 51.1284H3.61816V57.1306H14.3883V51.1284Z" fill="white"/>
<path d="M14.3883 38.0686H3.61816V51.2226H14.3883V38.0686Z" fill="white"/>
<path d="M14.3982 33.3008V38.0686H3.61865H1.24414V33.3008H14.3982Z" fill="white"/>
<path d="M3.61781 23.6804C4.30567 23.6804 4.85218 24.2364 4.85218 24.9148C4.85218 25.5932 4.29624 26.1586 3.61781 26.1586C2.93938 26.1586 2.37402 25.6026 2.37402 24.9148C2.37402 24.2269 2.92996 23.6804 3.61781 23.6804Z" fill="#3D3D3D"/>
<path d="M40.6025 34.4504C39.9335 34.4504 39.3682 33.8756 39.3682 33.216V28.4481C39.3682 27.7791 39.9429 27.2043 40.6025 27.2043C41.2621 27.2043 41.8463 27.7791 41.8463 28.4481V33.216C41.7521 33.885 41.1773 34.4504 40.6025 34.4504Z" fill="#3D3D3D"/>
<path d="M14.3981 34.4504C13.7291 34.4504 13.1543 33.8756 13.1543 33.216V28.4481C13.1543 27.7791 13.7291 27.2043 14.3981 27.2043C15.0671 27.2043 15.6419 27.7791 15.6419 28.4481V33.216C15.5476 33.885 14.9729 34.4504 14.3981 34.4504Z" fill="#3D3D3D"/>
<path d="M51.278 58.2802C50.609 58.2802 50.0342 57.7054 50.0342 57.0458V37.9838C50.0342 37.3148 50.609 36.74 51.278 36.74C51.947 36.74 52.5218 37.3148 52.5218 37.9838V57.0458C52.5218 57.7148 51.947 58.2802 51.278 58.2802Z" fill="#3D3D3D"/>
<path d="M40.6025 58.2802C39.9335 58.2802 39.3682 57.7054 39.3682 57.0458V37.9838C39.3682 37.3148 39.9429 36.74 40.6025 36.74C41.2621 36.74 41.8463 37.3148 41.8463 37.9838V57.0458C41.7521 57.7148 41.1773 58.2802 40.6025 58.2802Z" fill="#3D3D3D"/>
<path d="M53.6623 39.2089H40.6025C39.9335 39.2089 39.3682 38.6341 39.3682 37.9745V33.2067C39.3682 32.5377 39.9429 31.9629 40.6025 31.9629H53.7565C54.4256 31.9629 55.0003 32.5377 55.0003 33.2067V37.9745C54.9061 38.6435 54.3313 39.2089 53.6623 39.2089ZM41.7521 36.8344H52.5222V34.4505H41.7521V36.8344Z" fill="#3D3D3D"/>
<path d="M14.3981 58.2802C13.7291 58.2802 13.1543 57.7054 13.1543 57.0458V37.9838C13.1543 37.3148 13.7291 36.74 14.3981 36.74C15.0671 36.74 15.6419 37.3148 15.6419 37.9838V57.0458C15.5476 57.7148 14.9729 58.2802 14.3981 58.2802Z" fill="#3D3D3D"/>
<path d="M3.61781 58.2802C2.9488 58.2802 2.37402 57.7054 2.37402 57.0458V37.9838C2.37402 37.3148 2.9488 36.74 3.61781 36.74C4.28682 36.74 4.85218 37.3148 4.85218 37.9838V57.0458C4.85218 57.7148 4.2774 58.2802 3.61781 58.2802Z" fill="#3D3D3D"/>
<path d="M14.3978 39.2089H1.24379C0.574782 39.2089 0 38.6341 0 37.9745V33.2067C0 32.5377 0.574782 31.9629 1.24379 31.9629H14.3978C15.0668 31.9629 15.6416 32.5377 15.6416 33.2067V37.9745C15.5474 38.6435 14.9726 39.2089 14.3978 39.2089ZM2.47816 36.8344H13.154V34.4505H2.47816V36.8344Z" fill="#3D3D3D"/>
<path d="M53.6624 58.2804H32.2164C31.5474 58.2804 30.9727 57.7056 30.9727 57.046C30.9727 56.3865 31.5474 55.8022 32.2164 55.8022H53.6624C54.3314 55.8022 54.8968 56.377 54.8968 57.046C54.8968 57.715 54.322 58.2804 53.6624 58.2804Z" fill="#3D3D3D"/>
<path d="M22.6897 58.2804H1.24379C0.574782 58.2804 0 57.7056 0 57.046C0 56.3865 0.574782 55.8022 1.24379 55.8022H22.6897C23.3587 55.8022 23.9335 56.377 23.9335 57.046C23.9335 57.715 23.3587 58.2804 22.6897 58.2804Z" fill="#3D3D3D"/>
<path d="M32.216 58.2803H22.6803C22.0113 58.2803 21.4365 57.7056 21.4365 57.046V45.23C21.4365 44.561 22.0113 43.9956 22.6803 43.9956H32.216C32.885 43.9956 33.4504 44.5704 33.4504 45.23V57.1496C33.4504 57.7244 32.8756 58.2898 32.216 58.2898V58.2803ZM23.9241 55.8964H31.0759V46.3607H23.9241V55.8964Z" fill="#3D3D3D"/>
<path d="M51.2784 52.3628H40.6025C39.9335 52.3628 39.3682 51.788 39.3682 51.1284C39.3682 50.4688 39.9429 49.894 40.6025 49.894H51.2784C51.9474 49.894 52.5222 50.4688 52.5222 51.1284C52.5222 51.788 51.9474 52.3628 51.2784 52.3628Z" fill="#3D3D3D"/>
<path d="M14.3973 52.3628H3.61781C2.9488 52.3628 2.37402 51.788 2.37402 51.1284C2.37402 50.4688 2.9488 49.894 3.61781 49.894H14.3879C15.0569 49.894 15.6317 50.4688 15.6317 51.1284C15.5375 51.7974 14.9627 52.3628 14.3879 52.3628H14.3973Z" fill="#3D3D3D"/>
<path d="M44.1358 29.6824H10.7702C10.1011 29.6824 9.52637 29.1077 9.52637 28.4387V23.6708C9.52637 23.0018 10.1011 22.427 10.7702 22.427C11.4392 22.427 12.0045 23.0018 12.0045 23.6708V27.2891H42.9862V23.6708C42.9862 23.0018 43.561 22.427 44.23 22.427C44.899 22.427 45.4643 23.0018 45.4643 23.6708V28.4387C45.3701 29.1077 44.7953 29.6824 44.1263 29.6824H44.1358Z" fill="#3D3D3D"/>
<path d="M44.1356 24.9146H10.77C10.2894 24.9146 9.81829 24.5377 9.62983 24.0572C9.44138 23.5766 9.62983 23.0113 10.101 22.7192L26.7791 10.8089C27.1654 10.5263 27.7307 10.5263 28.2113 10.8089L44.8894 22.7192C45.1721 22.9076 45.4642 23.2939 45.4642 23.7651C45.3699 24.3399 44.7952 24.9052 44.1262 24.9052L44.1356 24.9146ZM14.4919 22.5307H40.4136L27.4481 13.2871L14.4825 22.5307H14.4919Z" fill="#3D3D3D"/>
<path d="M25.0735 39.2089H20.3057C19.6366 39.2089 19.0713 38.6341 19.0713 37.9745V33.2067C19.0713 32.5377 19.6461 31.9629 20.3057 31.9629H25.0735C25.7425 31.9629 26.3079 32.5377 26.3079 33.2067V37.9745C26.3079 38.6435 25.7331 39.2089 25.0735 39.2089ZM21.54 36.8344H23.924V34.4505H21.54V36.8344Z" fill="#3D3D3D"/>
<path d="M34.5995 39.2089H29.8317C29.1627 39.2089 28.5879 38.6341 28.5879 37.9745V33.2067C28.5879 32.5377 29.1627 31.9629 29.8317 31.9629H34.5995C35.2685 31.9629 35.8433 32.5377 35.8433 33.2067V37.9745C35.8433 38.6435 35.2685 39.2089 34.5995 39.2089ZM31.0755 36.8344H33.4594V34.4505H31.0755V36.8344Z" fill="#3D3D3D"/>
<path d="M27.4482 4.71252C26.7792 4.71252 26.2139 4.13774 26.2139 3.47816V2.24379C26.2139 1.57478 26.7886 1 27.4482 1C28.1078 1 28.692 1.57478 28.692 2.24379V3.47816C28.692 4.14716 28.1172 4.71252 27.4482 4.71252Z" fill="#3D3D3D"/>
<path d="M27.4482 13.0045C26.7792 13.0045 26.2139 12.4297 26.2139 11.7701V8.15185C26.2139 7.48284 26.7886 6.91748 27.4482 6.91748C28.1078 6.91748 28.692 7.49226 28.692 8.15185V11.7701C28.692 12.4392 28.1172 13.0045 27.4482 13.0045Z" fill="#3D3D3D"/>
<path d="M35.8442 9.47097H27.458C26.789 9.47097 26.2236 8.89619 26.2236 8.2366V3.46874C26.2236 2.79973 26.7984 2.23438 27.458 2.23438H35.8442C36.5132 2.23438 37.0879 2.80916 37.0879 3.46874V8.2366C36.9937 8.90561 36.4189 9.47097 35.8442 9.47097ZM28.6924 7.08704H34.6946V4.70311H28.6924V7.08704Z" fill="#3D3D3D"/>
<path d="M6.57688 19.0068C4.95618 19.0068 3.61816 17.6688 3.61816 16.0481C3.61816 14.4274 4.95618 13.0894 6.57688 13.0894C8.19757 13.0894 9.53559 14.4274 9.53559 16.0481C9.53559 17.6688 8.19757 19.0068 6.57688 19.0068ZM6.57688 15.3885C6.2942 15.3885 6.00209 15.6712 6.00209 15.9633C6.00209 16.2554 6.28477 16.538 6.57688 16.538C6.86898 16.538 7.15166 16.2554 7.15166 15.9633C7.24588 15.6806 6.9632 15.3885 6.57688 15.3885Z" fill="#3D3D3D"/>
<path d="M47.754 19.0066C45.7564 19.0066 44.1357 17.3859 44.1357 15.3883C44.1357 13.3907 45.7564 11.77 47.754 11.77C49.7516 11.77 51.2781 13.3907 51.2781 15.3883C51.2781 17.3859 49.6574 19.0066 47.754 19.0066ZM47.754 14.2388C47.085 14.2388 46.5197 14.8135 46.5197 15.4731C46.5197 16.1327 47.0945 16.7075 47.754 16.7075C48.4136 16.7075 48.9978 16.1327 48.9978 15.4731C48.9978 14.8135 48.3288 14.2388 47.754 14.2388Z" fill="#3D3D3D"/>
<path d="M44.1354 46.3607C43.4664 46.3607 42.8916 45.7859 42.8916 45.1264V43.9862C42.8916 43.3172 43.4664 42.7424 44.1354 42.7424C44.8044 42.7424 45.3792 43.3172 45.3792 43.9862V45.2206C45.3792 45.7954 44.8044 46.3607 44.1354 46.3607Z" fill="#3D3D3D"/>
<path d="M47.7539 46.3607C47.0849 46.3607 46.5195 45.7859 46.5195 45.1264V43.9862C46.5195 43.3172 47.0943 42.7424 47.7539 42.7424C48.4135 42.7424 48.9977 43.3172 48.9977 43.9862V45.2206C48.9035 45.7954 48.3287 46.3607 47.7539 46.3607Z" fill="#3D3D3D"/>
<path d="M10.7702 46.3607C10.1011 46.3607 9.52637 45.7859 9.52637 45.1264V43.9862C9.52637 43.3172 10.1011 42.7424 10.7702 42.7424C11.4392 42.7424 12.0045 43.3172 12.0045 43.9862V45.2206C12.0045 45.7954 11.4297 46.3607 10.7702 46.3607Z" fill="#3D3D3D"/>
<path d="M7.24574 46.3607C6.57673 46.3607 6.00195 45.7859 6.00195 45.1264V43.9862C6.00195 43.3172 6.57673 42.7424 7.24574 42.7424C7.91475 42.7424 8.38588 43.3172 8.38588 43.9862V45.2206C8.38588 45.7954 7.8111 46.3607 7.24574 46.3607Z" fill="#3D3D3D"/>
</svg>
