<svg width="55" height="60" viewBox="0 0 55 60" fill="none" xmlns="http://www.w3.org/2000/svg">
<path d="M8.05371 5.1897V50.9468C8.05371 53.5092 10.067 55.5225 12.6294 55.5225C15.1918 55.5225 17.2051 53.5092 17.2051 50.9468C17.2051 48.3844 15.1918 46.3711 12.6294 46.3711H45.7575V5.1897H8.05371Z" fill="#EAFFB6"/>
<path d="M35.6903 27.9767L35.4158 28.0682L26.8135 31.5457V22.3943C30.7486 22.3943 34.1346 24.6821 35.6903 27.9767Z" fill="white"/>
<path d="M26.9056 22.3943V31.5457H17.2051C17.4796 26.4209 21.6893 22.3943 26.9056 22.3943Z" fill="#A1C0FF"/>
<path d="M35.6909 27.9768C36.24 29.258 36.6061 30.6307 36.6061 32.0949C36.6061 37.4943 32.2134 41.7954 26.9056 41.7954C21.5978 41.7954 17.2051 37.4028 17.2051 32.0949V31.5459H26.9056L35.5079 28.0683L35.6909 27.9768Z" fill="white"/>
<path d="M51.5222 18.9168C52.7858 18.9168 53.8101 17.8925 53.8101 16.6289C53.8101 15.3654 52.7858 14.3411 51.5222 14.3411C50.2587 14.3411 49.2344 15.3654 49.2344 16.6289C49.2344 17.8925 50.2587 18.9168 51.5222 18.9168Z" fill="white"/>
<path d="M2.8374 45.2729C3.7983 45.2729 4.57617 46.0508 4.57617 47.0117C4.57617 47.9726 3.7983 48.7505 2.8374 48.7505C1.8765 48.7505 1.09863 47.9726 1.09863 47.0117C1.09863 46.0508 1.8765 45.2729 2.8374 45.2729Z" fill="white"/>
<path d="M44.6589 55.5225H12.6289C15.1913 55.5225 17.2046 53.5092 17.2046 50.9468C17.2046 48.3844 15.1913 46.3711 12.6289 46.3711H44.7504C47.2213 46.4626 49.2346 48.4759 49.2346 50.9468C49.2346 53.4177 47.1297 55.5225 44.6589 55.5225Z" fill="white"/>
<path d="M53.444 4.36606C53.627 4.54908 53.81 4.82363 53.81 5.18968C53.81 5.46423 53.7185 5.83028 53.444 6.01331C53.1694 6.19634 52.9864 6.37937 52.6203 6.37937C51.9797 6.37937 51.4307 5.83028 51.4307 5.18968C51.4307 4.91514 51.5222 4.54908 51.7967 4.36606C52.0713 4.18303 52.2543 4 52.6203 4C52.8949 4.09151 53.2609 4.18303 53.444 4.36606Z" fill="#3D3D3D"/>
<path d="M51.1569 28.4342C51.3399 28.6172 51.5229 28.8917 51.5229 29.2578C51.5229 29.5323 51.4314 29.8984 51.1569 30.0814C50.9738 30.2645 50.6993 30.4475 50.3332 30.4475C49.6926 30.4475 49.1436 29.8984 49.1436 29.2578C49.1436 28.9833 49.2351 28.6172 49.5096 28.4342C49.6926 28.2511 49.9672 28.0681 50.3332 28.0681C50.6078 28.0681 50.9738 28.2511 51.1569 28.4342Z" fill="#3D3D3D"/>
<path d="M42.0045 23.8585C42.1876 24.0415 42.3706 24.3161 42.3706 24.6821C42.3706 24.9567 42.2791 25.3227 42.0045 25.5057C41.8215 25.6888 41.547 25.8718 41.1809 25.8718C40.5403 25.8718 39.9912 25.3227 39.9912 24.6821C39.9912 24.4076 40.0827 24.0415 40.3573 23.8585C40.5403 23.6755 40.8148 23.4924 41.1809 23.4924C41.4554 23.4924 41.8215 23.6755 42.0045 23.8585Z" fill="#3D3D3D"/>
<path d="M42.0045 27.2445C42.1876 27.4275 42.3706 27.702 42.3706 28.0681C42.3706 28.3426 42.2791 28.7087 42.0045 28.8917C41.8215 29.0748 41.547 29.2578 41.1809 29.2578C40.5403 29.2578 39.9912 28.7087 39.9912 28.0681C39.9912 27.7936 40.0827 27.4275 40.3573 27.2445C40.5403 27.0614 40.8148 26.8784 41.1809 26.8784C41.4554 26.9699 41.8215 27.0614 42.0045 27.2445Z" fill="#3D3D3D"/>
<path d="M42.0045 30.722C42.1876 30.905 42.3706 31.1796 42.3706 31.5456C42.3706 31.9117 42.2791 32.1862 42.0045 32.3693C41.8215 32.5523 41.547 32.7353 41.1809 32.7353C40.5403 32.7353 39.9912 32.1862 39.9912 31.5456C39.9912 31.2711 40.0827 30.905 40.3573 30.722C40.5403 30.539 40.8148 30.356 41.1809 30.356C41.4554 30.356 41.8215 30.539 42.0045 30.722Z" fill="#3D3D3D"/>
<path d="M42.0045 34.1082C42.1876 34.2913 42.3706 34.5658 42.3706 34.9319C42.3706 35.2979 42.2791 35.5725 42.0045 35.7555C41.8215 35.9385 41.547 36.1216 41.1809 36.1216C40.5403 36.1216 39.9912 35.5725 39.9912 34.9319C39.9912 34.6573 40.0827 34.2913 40.3573 34.1082C40.5403 33.9252 40.8148 33.7422 41.1809 33.7422C41.4554 33.8337 41.8215 33.9252 42.0045 34.1082Z" fill="#3D3D3D"/>
<path d="M42.0045 37.5858C42.1876 37.7688 42.3706 38.0434 42.3706 38.4094C42.3706 38.7755 42.2791 39.05 42.0045 39.233C41.8215 39.4161 41.547 39.5991 41.1809 39.5991C40.5403 39.5991 39.9912 39.05 39.9912 38.4094C39.9912 38.1349 40.0827 37.7688 40.3573 37.5858C40.5403 37.4028 40.8148 37.2197 41.1809 37.2197C41.4554 37.2197 41.8215 37.4028 42.0045 37.5858Z" fill="#3D3D3D"/>
<path d="M42.0045 40.9718C42.1876 41.1548 42.3706 41.4293 42.3706 41.7954C42.3706 42.1615 42.2791 42.436 42.0045 42.619C41.8215 42.8021 41.547 42.9851 41.1809 42.9851C40.5403 42.9851 39.9912 42.436 39.9912 41.7954C39.9912 41.5209 40.0827 41.1548 40.3573 40.9718C40.5403 40.7887 40.8148 40.6057 41.1809 40.6057C41.4554 40.6972 41.8215 40.7887 42.0045 40.9718Z" fill="#3D3D3D"/>
<path d="M4.2096 11.2296C4.39263 11.4126 4.57566 11.6872 4.57566 12.0532C4.57566 12.3278 4.48414 12.6938 4.2096 12.8768C3.93506 13.0599 3.75203 13.2429 3.38597 13.2429C2.74537 13.2429 2.19629 12.6938 2.19629 12.0532C2.19629 11.7787 2.2878 11.4126 2.56235 11.2296C2.83689 11.0466 3.01992 10.8635 3.38597 10.8635C3.75203 10.955 4.02657 11.0466 4.2096 11.2296Z" fill="#3D3D3D"/>
<path d="M4.2096 37.5858C4.39263 37.7688 4.57566 38.0434 4.57566 38.4094C4.57566 38.7755 4.48414 39.05 4.2096 39.233C3.93506 39.4161 3.75203 39.5991 3.38597 39.5991C2.74537 39.5991 2.19629 39.05 2.19629 38.4094C2.19629 38.1349 2.2878 37.7688 2.56235 37.5858C2.74537 37.4028 3.01992 37.2197 3.38597 37.2197C3.75203 37.2197 4.02657 37.4028 4.2096 37.5858Z" fill="#3D3D3D"/>
<path d="M44.6591 56.7121H12.6291C11.9885 56.7121 11.4395 56.1631 11.4395 55.5225C11.4395 54.8819 11.9885 54.3328 12.6291 54.3328H44.6591C46.5809 54.3328 48.1366 52.777 48.1366 50.8552C48.1366 48.9334 46.6724 47.4692 44.7506 47.4692H12.6291C11.9885 47.4692 11.4395 46.9201 11.4395 46.2795C11.4395 45.6389 11.9885 45.0898 12.6291 45.0898H44.8421C46.3063 45.0898 47.7706 45.7304 48.7772 46.8286C49.7839 47.9268 50.4245 49.2995 50.4245 50.8552C50.333 54.1497 47.7706 56.7121 44.6591 56.7121Z" fill="#3D3D3D"/>
<path d="M12.6287 56.7121C9.51719 56.7121 6.86328 54.1497 6.86328 50.9467C6.86328 50.3061 7.41237 49.7571 8.05297 49.7571C8.69356 49.7571 9.24265 50.3061 9.24265 50.9467C9.24265 52.8685 10.7984 54.4243 12.7202 54.4243C14.642 54.4243 16.1977 52.8685 16.1977 50.9467C16.1977 49.025 14.642 47.4692 12.7202 47.4692C12.0796 47.4692 11.5305 46.9201 11.5305 46.2795C11.5305 45.6389 12.0796 45.0898 12.7202 45.0898C15.8317 45.0898 18.4856 47.6522 18.4856 50.8552C18.4856 54.0582 15.7402 56.7121 12.6287 56.7121Z" fill="#3D3D3D"/>
<path d="M8.05297 52.1364C7.41237 52.1364 6.86328 51.5874 6.86328 50.9468V5.18968C6.86328 4.54908 7.41237 4 8.05297 4H45.7568C46.3974 4 46.9465 4.54908 46.9465 5.18968V46.371C46.9465 47.0116 46.3974 47.5607 45.7568 47.5607C45.1162 47.5607 44.5671 47.0116 44.5671 46.371V6.37937H9.15113V51.0383C9.15113 51.5874 8.60205 52.1364 8.05297 52.1364Z" fill="#3D3D3D"/>
<path d="M21.7806 10.9551H12.6291C11.9885 10.9551 11.4395 10.406 11.4395 9.76537C11.4395 9.12477 11.9885 8.57568 12.6291 8.57568H21.7806C22.4211 8.57568 22.9702 9.12477 22.9702 9.76537C22.8787 10.406 22.3296 10.9551 21.7806 10.9551Z" fill="#3D3D3D"/>
<path d="M29.7423 14.341H12.6291C11.9885 14.341 11.4395 13.792 11.4395 13.1514C11.4395 12.5108 11.9885 11.9617 12.6291 11.9617H29.8338C30.4744 11.9617 31.0235 12.5108 31.0235 13.1514C30.932 13.8835 30.3829 14.341 29.7423 14.341Z" fill="#3D3D3D"/>
<path d="M38.8937 17.8186H12.6291C11.9885 17.8186 11.4395 17.2695 11.4395 16.6289C11.4395 15.9883 11.9885 15.4392 12.6291 15.4392H38.9852C39.6258 15.4392 40.1749 15.9883 40.1749 16.6289C40.1749 17.2695 39.5343 17.8186 38.8937 17.8186Z" fill="#3D3D3D"/>
<path d="M26.9048 42.985C20.9564 42.985 16.0146 38.1347 16.0146 32.0948V31.4542C16.3807 25.6888 21.1394 21.2046 26.9048 21.2046C31.1145 21.2046 34.9581 23.6755 36.7884 27.5191C37.429 28.9833 37.795 30.539 37.795 32.0948C37.795 38.0432 32.8532 42.985 26.9048 42.985ZM26.9048 23.4924C22.3291 23.4924 18.577 27.0615 18.3025 31.5457V32.0948C18.3025 36.8535 22.1461 40.6971 26.9048 40.6971C31.6636 40.6971 35.5072 36.8535 35.5072 32.0948C35.5072 30.8136 35.2326 29.6239 34.6835 28.4342C33.2193 25.4142 30.1993 23.4924 26.9048 23.4924Z" fill="#3D3D3D"/>
<path d="M26.9418 32.644H17.4884C16.8661 32.644 16.3262 32.1224 16.3262 31.5184C16.3262 30.9144 16.857 30.3928 17.4884 30.3928H25.8711V22.7697C25.8711 22.1657 26.411 21.644 27.0333 21.644C27.6556 21.644 28.1956 22.1657 28.1956 22.7697V31.4269C28.0125 32.2048 27.5733 32.644 26.9418 32.644Z" fill="#3D3D3D"/>
<path d="M26.9054 32.6439C26.4478 32.6439 25.9903 32.3694 25.8072 31.9118C25.5327 31.3627 25.8987 30.6306 26.4478 30.4476L35.0502 26.9701C35.5992 26.6955 36.3314 27.0616 36.5144 27.6107C36.7889 28.1598 36.4229 28.8919 35.8738 29.0749L27.2715 32.5524C27.1799 32.6439 26.9969 32.6439 26.9054 32.6439Z" fill="#3D3D3D"/>
<path d="M2.83694 49.8487C1.2812 49.8487 0 48.5675 0 47.0117C0 45.456 1.2812 44.1748 2.83694 44.1748C4.39268 44.1748 5.67388 45.456 5.67388 47.0117C5.76539 48.5675 4.39268 49.8487 2.83694 49.8487ZM2.83694 46.3711C2.5624 46.3711 2.28785 46.6457 2.28785 46.9202C2.28785 47.1948 2.5624 47.4693 2.83694 47.4693C3.11148 47.4693 3.38602 47.1948 3.38602 46.9202C3.47754 46.6457 3.203 46.3711 2.83694 46.3711Z" fill="#3D3D3D"/>
<path d="M51.5225 20.1064C49.6007 20.1064 48.0449 18.5507 48.0449 16.6289C48.0449 14.7071 49.6007 13.1514 51.5225 13.1514C53.4443 13.1514 55 14.7071 55 16.6289C54.9085 18.5507 53.3527 20.1064 51.5225 20.1064ZM51.5225 15.5307C50.8819 15.5307 50.3328 16.0798 50.3328 16.7204C50.3328 17.361 50.8819 17.9101 51.5225 17.9101C52.1631 17.9101 52.7121 17.361 52.7121 16.7204C52.6206 15.9883 52.0715 15.5307 51.5225 15.5307Z" fill="#3D3D3D"/>
</svg>
