<svg width="55" height="60" viewBox="0 0 55 60" fill="none" xmlns="http://www.w3.org/2000/svg">
<path d="M27.4521 37.2419C30.7043 37.2419 33.8608 37.8159 36.6348 38.868C34.8174 44.7028 31.4695 48.6246 27.5478 48.7202H27.4521V37.2419Z" fill="#EAFFB6"/>
<path d="M18.2695 38.8682C20.0869 44.7029 23.4347 48.6247 27.3565 48.7203C21.426 48.7203 16.1652 45.9464 12.7217 41.7377C14.3478 40.5899 16.2608 39.5377 18.2695 38.8682Z" fill="#EAFFB6"/>
<path d="M27.4524 29.5898V37.242C24.2002 37.242 21.0437 37.8159 18.2698 38.8681C17.4089 36.0942 16.9307 32.9377 16.9307 29.5898H27.4524Z" fill="#A1C0FF"/>
<path d="M42.2783 17.4421C40.6523 18.5899 38.7392 19.5464 36.7305 20.3116C34.9131 14.4769 31.5653 10.5551 27.6436 10.4595C33.4783 10.4595 38.7392 13.2334 42.2783 17.4421Z" fill="#A1C0FF"/>
<path d="M42.2783 41.7377C38.8349 45.9464 33.574 48.7203 27.6436 48.7203C31.5653 48.6247 34.9131 44.7029 36.7305 38.8682C38.6436 39.5377 40.5566 40.5899 42.2783 41.7377Z" fill="white"/>
<path d="M37.9739 29.5898H27.4521V21.9376C30.7043 21.9376 33.8608 21.3637 36.6348 20.3115C37.4956 23.0854 37.9739 26.242 37.9739 29.5898Z" fill="#EAFFB6"/>
<path d="M27.4521 29.5898H37.9739C37.9739 32.9377 37.4956 36.0942 36.6348 38.8681C33.8608 37.8159 30.7043 37.242 27.4521 37.242V29.5898Z" fill="white"/>
<path d="M36.6348 20.3116C33.8608 21.3638 30.7043 21.9377 27.4521 21.9377V10.4595H27.5478C31.4695 10.5551 34.913 14.4769 36.6348 20.3116Z" fill="white"/>
<path d="M27.4521 37.2419V48.7202H27.3565C23.4347 48.6246 20.0869 44.7028 18.2695 38.868C21.0434 37.8159 24.2 37.2419 27.4521 37.2419Z" fill="white"/>
<path d="M27.4524 21.9376V29.5898H16.9307C16.9307 26.242 17.4089 23.0854 18.2698 20.3115C21.0437 21.3637 24.2002 21.9376 27.4524 21.9376Z" fill="white"/>
<path d="M27.4521 10.4595V21.9377C24.2 21.9377 21.0434 21.3638 18.2695 20.3116C20.0869 14.4769 23.4347 10.5551 27.3565 10.4595H27.4521Z" fill="#A1C0FF"/>
<path d="M27.3565 10.4595C23.4347 10.5551 20.0869 14.4769 18.2695 20.3116C16.2608 19.5464 14.3478 18.5899 12.7217 17.4421C16.1652 13.2334 21.426 10.4595 27.3565 10.4595Z" fill="white"/>
<path d="M27.5482 49.868C26.8787 49.868 26.4004 49.3898 26.4004 48.7202C26.4004 48.0507 26.8787 47.4767 27.5482 47.4767C30.8004 47.3811 33.8613 43.9376 35.4873 38.4854C36.3482 35.8072 36.7308 32.7463 36.7308 29.5898C36.7308 26.4333 36.2526 23.3724 35.4873 20.6941C33.8613 15.242 30.8004 11.7028 27.5482 11.7028C26.8787 11.7028 26.4004 11.1289 26.4004 10.4593C26.4004 9.78978 26.9743 9.31152 27.6439 9.31152C29.8439 9.40718 32.0439 10.4593 33.8613 12.468C35.583 14.2854 36.9221 16.9637 37.8786 20.0246C38.7395 22.9898 39.2178 26.242 39.2178 29.5898C39.2178 32.9376 38.7395 36.2854 37.8786 39.155C36.9221 42.2159 35.583 44.7985 33.8613 46.7115C31.9482 48.7202 29.8439 49.868 27.5482 49.868C27.612 49.868 27.612 49.868 27.5482 49.868Z" fill="#3D3D3D"/>
<path d="M27.3561 49.868C27.2924 49.868 27.2924 49.868 27.3561 49.868C25.0605 49.7724 22.9561 48.7202 21.1387 46.7115C19.417 44.8941 18.0779 42.2159 17.1214 39.155C16.2605 36.1898 15.7822 32.9376 15.7822 29.5898C15.7822 26.242 16.2605 22.8941 17.1214 20.0246C18.0779 16.9637 19.417 14.3811 21.1387 12.468C22.9561 10.4593 25.1561 9.31152 27.3561 9.31152C28.0257 9.31152 28.5996 9.78978 28.5996 10.4593C28.5996 11.1289 28.1214 11.7028 27.4518 11.7028C24.1996 11.7985 21.1387 15.242 19.5127 20.6941C18.6518 23.3724 18.2692 26.4333 18.2692 29.5898C18.2692 32.7463 18.7474 35.8072 19.5127 38.4854C21.1387 43.9376 24.1996 47.4767 27.4518 47.4767C28.1214 47.4767 28.5996 48.0507 28.5996 48.7202C28.504 49.3898 27.9301 49.868 27.3561 49.868Z" fill="#3D3D3D"/>
<path d="M27.4526 23.1811C24.1048 23.1811 20.8526 22.6072 17.7917 21.4593C15.6874 20.6941 13.6787 19.6419 11.957 18.3985C11.383 18.0159 11.2874 17.2506 11.67 16.7724C12.0526 16.2941 12.8178 16.1028 13.2961 16.4854C14.9222 17.6333 16.6439 18.4941 18.557 19.2593C21.3309 20.3115 24.2961 20.7898 27.357 20.7898C30.4178 20.7898 33.383 20.3115 36.157 19.2593C38.07 18.5898 39.8874 17.6333 41.4178 16.4854C41.9917 16.1028 42.6613 16.1985 43.0439 16.7724C43.4265 17.3463 43.3309 18.0159 42.757 18.3985C40.9396 19.6419 39.0265 20.6941 36.9222 21.4593C34.0526 22.6072 30.8004 23.1811 27.4526 23.1811Z" fill="#3D3D3D"/>
<path d="M42.2778 42.8855C42.0865 42.8855 41.7996 42.7898 41.6083 42.6942C39.9822 41.5464 38.2604 40.6855 36.3474 39.9203C33.5735 38.8681 30.6083 38.3898 27.5474 38.3898C24.4865 38.3898 21.5213 38.8681 18.7474 39.9203C16.8343 40.5898 15.0169 41.5464 13.4865 42.6942C12.9126 43.0768 12.243 42.9811 11.8604 42.4072C11.4778 41.8333 11.5735 41.1638 12.1474 40.7811C13.9648 39.5377 15.8778 38.4855 17.9822 37.7203C21.043 36.5724 24.2952 35.9985 27.643 35.9985C30.9909 35.9985 34.243 36.5724 37.3039 37.7203C39.4083 38.4855 41.4169 39.5377 43.1387 40.7811C43.7126 41.1638 43.8083 41.929 43.4256 42.4072C42.9474 42.7898 42.5648 42.8855 42.2778 42.8855Z" fill="#3D3D3D"/>
<path d="M27.4525 49.9636C26.7829 49.9636 26.209 49.3897 26.209 48.7202V10.4593C26.209 9.78973 26.7829 9.21582 27.4525 9.21582C28.122 9.21582 28.6959 9.78973 28.6959 10.4593V48.7202C28.6959 49.3897 28.122 49.9636 27.4525 49.9636Z" fill="#3D3D3D"/>
<path d="M46.5825 30.8334H8.3216C7.65204 30.8334 7.07812 30.2595 7.07812 29.5899C7.07812 28.9203 7.65204 28.3464 8.3216 28.3464H46.5825C47.252 28.3464 47.826 28.9203 47.826 29.5899C47.826 30.2595 47.252 30.8334 46.5825 30.8334Z" fill="#3D3D3D"/>
<path d="M27.452 49.9636H27.2607C21.2346 49.9636 15.5912 47.1897 11.6694 42.5028C8.70421 38.868 7.07812 34.2767 7.07812 29.5897C7.07812 24.9028 8.70421 20.3115 11.6694 16.6767C15.4955 11.9897 21.139 9.31147 27.2607 9.21582H27.5477C33.5738 9.21582 39.2173 11.9897 43.139 16.6767C46.1042 20.3115 47.7303 24.9028 47.7303 29.5897C47.7303 34.2767 46.1042 38.868 43.139 42.5028C39.3129 47.1897 33.6694 49.868 27.5477 49.9636C27.5477 49.868 27.5477 49.9636 27.452 49.9636ZM27.452 47.5723H27.5477C32.9042 47.5723 37.8781 45.181 41.3216 41.068C43.9042 37.9115 45.4346 33.7984 45.4346 29.6854C45.4346 25.5723 43.9999 21.4593 41.3216 18.3028C37.9738 14.1897 32.9042 11.7984 27.5477 11.7984H27.3564C21.9999 11.7984 17.026 14.1897 13.5825 18.3028C10.9999 21.4593 9.46943 25.5723 9.46943 29.6854C9.46943 33.7984 10.9042 37.9115 13.5825 41.068C16.9303 45.181 21.9999 47.5723 27.3564 47.5723H27.452Z" fill="#3D3D3D"/>
<path d="M46.0088 49.3899C45.7218 49.3899 45.4349 49.2943 45.1479 49.0073C44.6696 48.5291 44.6696 47.7638 45.1479 47.2856C49.9305 42.503 52.5131 36.2856 52.5131 29.4943C52.5131 22.703 49.9305 16.4856 45.1479 11.703C37.7827 4.33775 26.8783 2.2334 17.3131 6.4421C16.7392 6.72905 15.974 6.4421 15.7827 5.86818C15.5914 5.29427 15.7827 4.52905 16.3566 4.33775C21.3305 2.13775 26.8783 1.46818 32.3305 2.4247C37.8783 3.38123 42.9479 6.05949 46.8696 10.0769C52.0349 15.2421 54.9044 22.1291 54.9044 29.4943C54.9044 36.8595 52.0349 43.7464 46.8696 48.9117C46.6783 49.2943 46.3914 49.3899 46.0088 49.3899Z" fill="#3D3D3D"/>
<path d="M27.4522 57.1376C25.8261 57.1376 24.2 56.9463 22.5739 56.6594C17.0261 55.7028 11.9565 53.0246 8.03478 49.0072C2.86956 43.842 0 36.955 0 29.5898C0 22.2246 2.86956 15.3376 8.03478 10.1724C8.51304 9.69416 9.27826 9.69416 9.75652 10.1724C10.2348 10.6507 10.2348 11.4159 9.75652 11.8942C4.97391 16.6768 2.3913 22.8942 2.3913 29.6855C2.3913 36.4768 4.97391 42.6942 9.75652 47.4768C17.1217 54.842 28.0261 56.9463 37.5913 52.7376C38.1652 52.4507 38.9304 52.7376 39.1217 53.3115C39.313 53.8855 39.1217 54.6507 38.5478 54.842C35.0087 56.2768 31.2783 57.1376 27.4522 57.1376Z" fill="#3D3D3D"/>
</svg>
