<svg width="55" height="60" viewBox="0 0 55 60" fill="none" xmlns="http://www.w3.org/2000/svg">
<path d="M46.599 50.3105C47.9204 50.3105 48.987 51.3771 48.987 52.6986C48.987 54.02 47.9204 55.0866 46.599 55.0866C45.2775 55.0866 44.2109 54.02 44.2109 52.6986C44.2109 51.3771 45.2775 50.3105 46.599 50.3105Z" fill="white"/>
<path d="M7.25814 52.6987C8.57957 52.6987 9.64616 53.7653 9.64616 55.0868C9.64616 56.4082 8.57957 57.4748 7.25814 57.4748C5.9367 57.4748 4.87012 56.4082 4.87012 55.0868C4.87012 53.7653 5.9367 52.6987 7.25814 52.6987Z" fill="white"/>
<path d="M1.23633 39.6165V42.8634C1.23633 45.0627 2.95419 46.7805 5.15344 46.7805H49.7424C51.9417 46.7805 53.6595 45.0627 53.6595 42.8634V39.6165H1.23633Z" fill="white"/>
<path d="M5.15344 9.44067C2.95419 9.44067 1.23633 11.1585 1.23633 13.3578V39.6166H53.7539V13.3578C53.7539 11.1585 52.0361 9.44067 49.8368 9.44067H5.15344Z" fill="#EAFFB6"/>
<path d="M43.0597 9.44049V28.9222C43.0597 28.9222 35.6125 25.2977 27.4951 28.9222V5.05144C35.2255 1.03994 43.0597 5.05144 43.0597 5.05144V9.44049Z" fill="#A1C0FF"/>
<path d="M27.4953 4.95715V28.8279C19.3779 25.2034 11.9307 28.8279 11.9307 28.8279V5.05154C12.0251 4.95715 19.7554 0.945649 27.4953 4.95715Z" fill="white"/>
<path d="M47.8358 41.9006C48.5248 41.9006 49.0723 42.4575 49.0723 43.1371C49.0723 43.8167 48.5154 44.383 47.8358 44.383C47.1562 44.383 46.5898 43.8262 46.5898 43.1371C46.5898 42.4481 47.1467 41.9006 47.8358 41.9006Z" fill="#3D3D3D"/>
<path d="M44.2111 41.9006C44.9001 41.9006 45.457 42.4575 45.457 43.1371C45.457 43.8167 44.9001 44.383 44.2111 44.383C43.5221 44.383 42.9746 43.8262 42.9746 43.1371C42.9746 42.4481 43.5315 41.9006 44.2111 41.9006Z" fill="#3D3D3D"/>
<path d="M40.6717 41.9006C41.3607 41.9006 41.9082 42.4575 41.9082 43.1371C41.9082 43.8167 41.3513 44.383 40.6717 44.383C39.9921 44.383 39.4258 43.8262 39.4258 43.1371C39.4258 42.4481 39.9827 41.9006 40.6717 41.9006Z" fill="#3D3D3D"/>
<path d="M38.284 50.3105C38.973 50.3105 39.5299 50.8674 39.5299 51.5565C39.5299 52.2455 38.973 52.793 38.284 52.793C37.595 52.793 37.0381 52.2361 37.0381 51.5565C37.0381 50.8769 37.595 50.3105 38.284 50.3105Z" fill="#3D3D3D"/>
<path d="M32.2713 33.5945C32.9603 33.5945 33.5172 34.1514 33.5172 34.831C33.5172 35.5106 32.9603 36.0769 32.2713 36.0769C31.5823 36.0769 31.0254 35.52 31.0254 34.831C31.0254 34.1419 31.5823 33.5945 32.2713 33.5945Z" fill="#3D3D3D"/>
<path d="M28.7414 33.5945C29.4304 33.5945 29.9873 34.1514 29.9873 34.831C29.9873 35.5106 29.4304 36.0769 28.7414 36.0769C28.0523 36.0769 27.5049 35.52 27.5049 34.831C27.5049 34.1419 28.0618 33.5945 28.7414 33.5945Z" fill="#3D3D3D"/>
<path d="M13.1766 49.0649C13.8656 49.0649 14.4131 49.6218 14.4131 50.3014C14.4131 50.981 13.8562 51.5474 13.1766 51.5474C12.497 51.5474 11.9307 50.9905 11.9307 50.3014C11.9307 49.6124 12.4876 49.0649 13.1766 49.0649Z" fill="#3D3D3D"/>
<path d="M53.7541 40.7586H1.23649C0.566329 40.7586 0 40.1828 0 39.5221C0 38.8614 0.575768 38.2856 1.23649 38.2856H53.7541C54.4242 38.2856 55 38.8614 55 39.5221C55 40.2867 54.4242 40.7586 53.7541 40.7586Z" fill="#3D3D3D"/>
<path d="M33.5174 57.4653C32.8473 57.4653 32.2715 56.9272 32.2715 56.2948V47.2808C32.2715 46.6484 32.8473 46.1104 33.5174 46.1104C34.1876 46.1104 34.7539 46.6484 34.7539 47.2808V56.2948C34.6595 57.0122 34.0837 57.4653 33.5174 57.4653Z" fill="#3D3D3D"/>
<path d="M21.5773 57.4653C20.9072 57.4653 20.3408 56.9272 20.3408 56.2948V47.2808C20.3408 46.6484 20.9166 46.1104 21.5773 46.1104C22.238 46.1104 22.8232 46.6484 22.8232 47.2808V56.2948C22.7288 57.0122 22.1531 57.4653 21.5773 57.4653Z" fill="#3D3D3D"/>
<path d="M37.0477 57.4653H17.953C17.2828 57.4653 16.707 56.8896 16.707 56.2194C16.707 55.5492 17.2828 54.9829 17.953 54.9829H37.0477C37.7178 54.9829 38.2936 55.5587 38.2936 56.2194C38.2936 56.9839 37.7178 57.4653 37.0477 57.4653Z" fill="#3D3D3D"/>
<path d="M25.1073 57.4654C24.4371 57.4654 23.8613 56.8896 23.8613 56.2195V51.4434C23.8613 50.7733 24.4371 50.1975 25.1073 50.1975C25.7774 50.1975 26.3532 50.7733 26.3532 51.4434V56.2195C26.3532 56.984 25.7774 57.4654 25.1073 57.4654Z" fill="#3D3D3D"/>
<path d="M29.883 57.4654C29.2128 57.4654 28.6465 56.8896 28.6465 56.2195V51.4434C28.6465 50.7733 29.2223 50.1975 29.883 50.1975C30.5437 50.1975 31.1289 50.7733 31.1289 51.4434V56.2195C31.1289 56.984 30.5531 57.4654 29.883 57.4654Z" fill="#3D3D3D"/>
<path d="M49.837 47.9226H5.1536C2.29363 47.9226 0 45.629 0 42.769V13.3577C0 10.4977 2.29363 8.20409 5.1536 8.20409H11.9307C12.6008 8.20409 13.1766 8.77986 13.1766 9.44058C13.1766 10.1013 12.6008 10.6865 11.9307 10.6865H5.1536C3.62451 10.6865 2.38802 11.923 2.38802 13.4521V42.9578C2.38802 44.4869 3.63395 45.7234 5.1536 45.7234H49.837C51.3661 45.7234 52.6025 44.4869 52.6025 42.9578V13.3577C52.6025 11.8286 51.3566 10.5921 49.837 10.5921H43.0599C42.3897 10.5921 41.8234 10.0163 41.8234 9.35563C41.8234 8.69491 42.3992 8.11914 43.0599 8.11914H49.837C52.7064 8.11914 54.9906 10.4128 54.9906 13.2727V42.7785C54.9906 45.6384 52.6025 47.9321 49.837 47.9321V47.9226Z" fill="#3D3D3D"/>
<path d="M27.4954 30.0644C27.3067 30.0644 27.2123 30.0644 27.0141 29.97C19.5668 26.6287 12.5915 29.8756 12.4972 29.97C12.1102 30.1588 11.7326 30.1588 11.3551 29.8756C10.9775 29.6869 10.7793 29.2999 10.7793 28.8279V4.95716C10.7793 4.47578 11.0625 4.09823 11.4495 3.90945C11.827 3.72067 19.85 -0.290823 28.0618 3.90945C28.6375 4.19262 28.9207 4.95716 28.5432 5.53293C28.26 6.1087 27.4954 6.39186 26.9197 6.01431C21.0959 3.05052 15.0834 4.9666 13.1673 5.73114V27.1195C15.9329 26.1662 21.7566 25.0146 27.9674 27.7897C28.5432 28.0728 28.8263 28.743 28.5432 29.4131C28.3544 29.7907 27.9674 30.0833 27.4954 30.0833V30.0644Z" fill="#3D3D3D"/>
<path d="M42.9652 30.0645C42.7764 30.0645 42.5782 30.0645 42.4838 29.9702C42.3894 29.9702 39.3312 28.4411 35.131 28.4411C32.6485 28.4411 30.2605 28.9225 27.9669 29.9702C27.5893 30.1589 27.2023 30.0645 26.8248 29.8758C26.4472 29.687 26.249 29.3 26.249 28.9225V5.05168C26.249 4.5703 26.5322 4.19275 26.9192 4.00397C29.411 2.75805 32.0822 2.08789 34.9422 2.08789C39.8126 2.08789 43.3427 3.90014 43.5315 3.99453C43.9185 4.18331 44.2017 4.5703 44.2017 5.04224V28.913C44.2017 29.2906 44.0129 29.6776 43.6259 29.9607C43.4371 29.9607 43.2389 30.0551 42.9557 30.0551L42.9652 30.0645ZM35.1404 26.0531C38.0004 26.0531 40.3884 26.6288 41.8231 27.1008V5.72184C40.681 5.24046 38.0947 4.38152 34.9516 4.38152C32.7524 4.38152 30.657 4.8629 28.6465 5.72184V27.1102C30.7513 26.44 32.8468 26.0625 35.1404 26.0625V26.0531Z" fill="#3D3D3D"/>
<path d="M22.7285 12.1119H22.5398L16.5272 10.866C15.8571 10.7716 15.4795 10.1014 15.5739 9.43129C15.6683 8.76113 16.3385 8.38358 17.0086 8.47797L23.0211 9.72389C23.6913 9.81828 24.0688 10.4884 23.9745 11.1586C23.7857 11.7344 23.3043 12.1119 22.7285 12.1119Z" fill="#3D3D3D"/>
<path d="M22.7285 15.7457H22.5398L16.5272 14.4998C15.8571 14.4054 15.4795 13.7352 15.5739 13.0651C15.6683 12.3949 16.3385 12.0174 17.0086 12.1118L23.0211 13.3482C23.6913 13.4426 24.0688 14.1128 23.9745 14.7829C23.7857 15.3587 23.3043 15.7363 22.7285 15.7363V15.7457Z" fill="#3D3D3D"/>
<path d="M22.7285 19.2758H22.5398L16.5272 18.0393C15.8571 17.9449 15.4795 17.2748 15.5739 16.6046C15.6683 15.9345 16.3385 15.5569 17.0086 15.6513L23.0211 16.8972C23.6913 16.9916 24.0688 17.6618 23.9745 18.3319C23.7857 18.9077 23.3043 19.2853 22.7285 19.2853V19.2758Z" fill="#3D3D3D"/>
<path d="M22.7285 22.9003H22.5398L16.5272 21.6638C15.8571 21.5695 15.4795 20.8993 15.5739 20.2291C15.6683 19.559 16.3385 19.1814 17.0086 19.2758L23.0211 20.5217C23.6913 20.6161 24.0688 21.2863 23.9745 21.9564C23.7857 22.5322 23.3043 22.9098 22.7285 22.9098V22.9003Z" fill="#3D3D3D"/>
<path d="M32.2717 12.1119C31.6959 12.1119 31.224 11.7344 31.1296 11.1586C31.0352 10.4884 31.4127 9.91267 32.0829 9.72389L38.0954 8.47797C38.7656 8.38358 39.3319 8.76113 39.5301 9.43129C39.6245 10.1014 39.247 10.6772 38.5768 10.866L32.5643 12.1119H32.2811H32.2717Z" fill="#3D3D3D"/>
<path d="M32.2717 15.7459C31.6959 15.7459 31.224 15.3683 31.1296 14.7926C31.0352 14.1224 31.4127 13.5561 32.0829 13.3579L38.001 12.2158C38.6712 12.1214 39.247 12.4989 39.4357 13.1691C39.5301 13.8392 39.1526 14.4056 38.4824 14.6038L32.4699 15.8403C32.4699 15.7459 32.3755 15.7459 32.2811 15.7459H32.2717Z" fill="#3D3D3D"/>
<path d="M32.2717 19.2757C31.6959 19.2757 31.224 18.8982 31.1296 18.3224C31.0352 17.6523 31.4127 17.0765 32.0829 16.8877L38.0954 15.6418C38.7656 15.5474 39.3319 15.9249 39.5301 16.5951C39.6245 17.2653 39.247 17.841 38.5768 18.0298L32.5643 19.2663H32.2811L32.2717 19.2757Z" fill="#3D3D3D"/>
<path d="M32.2717 22.9005C31.6959 22.9005 31.224 22.5229 31.1296 21.9472C31.0352 21.277 31.4127 20.7107 32.0829 20.5125L38.0954 19.2665C38.7656 19.1722 39.3319 19.5497 39.5301 20.2199C39.6245 20.89 39.247 21.4563 38.5768 21.6546L32.5643 22.891H32.2811L32.2717 22.9005Z" fill="#3D3D3D"/>
<path d="M25.1073 35.9827H1.23649C0.566329 35.9827 0 35.4069 0 34.7367C0 34.0666 0.575768 33.5002 1.23649 33.5002H25.1073C25.7774 33.5002 26.3532 34.076 26.3532 34.7367C26.3532 35.5013 25.7774 35.9827 25.1073 35.9827Z" fill="#3D3D3D"/>
<path d="M7.2583 58.7114C5.25727 58.7114 3.63379 57.0879 3.63379 55.0869C3.63379 53.0859 5.25727 51.4624 7.2583 51.4624C9.25933 51.4624 10.8828 53.0859 10.8828 55.0869C10.8828 57.0879 9.16494 58.7114 7.2583 58.7114ZM7.2583 53.9354C6.58814 53.9354 6.02181 54.5111 6.02181 55.1719C6.02181 55.8326 6.59758 56.4178 7.2583 56.4178C7.91901 56.4178 8.50422 55.842 8.50422 55.1719C8.40983 54.4073 7.83406 53.9354 7.2583 53.9354Z" fill="#3D3D3D"/>
<path d="M46.5991 56.3232C44.5981 56.3232 42.9746 54.6998 42.9746 52.6987C42.9746 50.6977 44.5981 49.0742 46.5991 49.0742C48.6001 49.0742 50.2236 50.6977 50.2236 52.6987C50.2236 54.6998 48.6001 56.3232 46.5991 56.3232ZM46.5991 51.5472C45.929 51.5472 45.3532 52.123 45.3532 52.7837C45.3532 53.4444 45.929 54.0296 46.5991 54.0296C47.2693 54.0296 47.845 53.4538 47.845 52.7837C47.845 52.0191 47.2693 51.5472 46.5991 51.5472Z" fill="#3D3D3D"/>
</svg>
