<svg width="55" height="60" viewBox="0 0 55 60" fill="none" xmlns="http://www.w3.org/2000/svg">
<path d="M31.1292 40.038V41.2745H21.5771V19.7917H31.1292V30.0046C29.317 32.2038 29.6945 36.4041 31.1292 40.0286V40.038Z" fill="white"/>
<path d="M31.1295 41.2744V45.1915C31.1295 46.3336 30.1762 47.2964 29.0247 47.2964H23.5785C22.4364 47.2964 21.4736 46.3431 21.4736 45.1915V41.2744H31.1201H31.1295Z" fill="#EAFFB6"/>
<path d="M31.1292 15.8839V19.801H21.5771V15.8839C21.5771 14.7418 22.5305 13.7791 23.682 13.7791H29.1282C30.1759 13.7791 31.1292 14.7324 31.1292 15.8839Z" fill="#EAFFB6"/>
<path d="M21.5773 26.9558H13.1768V37.7444H21.5773V26.9558Z" fill="white"/>
<path d="M21.577 41.2744V45.1915C21.577 46.3336 20.6237 47.2964 19.4721 47.2964H15.2718C14.1298 47.2964 13.167 46.3431 13.167 45.1915V37.6499H21.5675V41.2744H21.577Z" fill="#EAFFB6"/>
<path d="M21.5773 19.7916V26.9556H13.1768V19.5084C13.1768 18.3663 14.1301 17.4036 15.2816 17.4036H19.4819C20.624 17.4036 21.5867 18.3569 21.5867 19.5084V19.7916H21.5773Z" fill="#EAFFB6"/>
<path d="M1.23633 18.5552V41.2744H13.1764V37.6499V26.9557V19.4141V18.5552H1.23633Z" fill="white"/>
<path d="M13.1761 41.2744V44.5214C13.1761 46.0505 11.9302 47.1926 10.5049 47.1926H4.01103C2.48194 47.1926 1.33984 45.9561 1.33984 44.5214V41.2744H13.1761Z" fill="#EAFFB6"/>
<path d="M13.1764 12.9202V18.5552H1.23633V12.9202C1.23633 11.3911 2.48225 10.249 3.90751 10.249H10.4014C11.9305 10.249 13.167 11.3911 13.167 12.9202H13.1764Z" fill="#EAFFB6"/>
<path d="M19.1888 4.22705C20.5102 4.22705 21.5768 5.29364 21.5768 6.61507C21.5768 7.93651 20.5102 9.00309 19.1888 9.00309C17.8674 9.00309 16.8008 7.93651 16.8008 6.61507C16.8008 5.29364 17.8674 4.22705 19.1888 4.22705Z" fill="white"/>
<path d="M47.1659 13.7791C48.7989 13.7791 50.1297 15.1005 50.1297 16.7428C50.1297 18.3852 48.8083 19.7066 47.1659 19.7066C45.5236 19.7066 44.2021 18.3852 44.2021 16.7428C44.2021 15.1005 45.5236 13.7791 47.1659 13.7791Z" fill="white"/>
<path d="M40.2942 23.9919C41.1531 23.9919 41.8233 24.7565 41.7289 25.521L41.0587 29.9101C40.7755 30.2876 40.4829 30.5802 40.2942 31.0522C40.1054 30.6746 39.8128 30.2876 39.5296 30.0045L38.8595 25.521C38.7651 24.6621 39.4352 23.9919 40.2942 23.9919Z" fill="white"/>
<path d="M45.2595 28.0979C55.8593 28.0979 48.7896 47.1926 42.9659 47.1926C42.4845 47.1926 41.8238 47.0039 41.3424 46.9095C40.6722 46.7207 39.9077 46.7207 39.2375 46.9095C38.6617 47.0982 37.9916 47.1926 37.614 47.1926C35.226 47.1926 32.5548 43.8513 31.1201 40.0286C29.6854 36.4041 29.3079 32.2038 31.1201 29.9102C31.9791 28.7681 33.3194 28.0979 35.4148 28.0979C37.0383 28.0979 38.5674 28.8624 39.6151 30.0045C39.8982 30.2877 40.0964 30.6747 40.3796 31.0523C40.5684 30.6747 40.861 30.2877 41.1442 29.9102C42.0975 28.7681 43.5322 28.0979 45.25 28.0979H45.2595Z" fill="#A1C0FF"/>
<path d="M50.2238 6.61499C50.9128 6.61499 51.4697 7.17188 51.4697 7.86091C51.4697 8.54995 50.9128 9.0974 50.2238 9.0974C49.5348 9.0974 48.9873 8.54051 48.9873 7.86091C48.9873 7.18132 49.5442 6.61499 50.2238 6.61499Z" fill="#3D3D3D"/>
<path d="M41.8231 50.7322C42.5121 50.7322 43.0596 51.2891 43.0596 51.9687C43.0596 52.6483 42.5027 53.2051 41.8231 53.2051C41.1435 53.2051 40.5771 52.6483 40.5771 51.9687C40.5771 51.2891 41.134 50.7322 41.8231 50.7322Z" fill="#3D3D3D"/>
<path d="M38.284 50.7322C38.973 50.7322 39.5299 51.2891 39.5299 51.9687C39.5299 52.6483 38.973 53.2051 38.284 53.2051C37.595 53.2051 37.0381 52.6483 37.0381 51.9687C37.0381 51.2891 37.595 50.7322 38.284 50.7322Z" fill="#3D3D3D"/>
<path d="M38.284 13.7791C38.973 13.7791 39.5299 14.3359 39.5299 15.025C39.5299 15.714 38.973 16.2615 38.284 16.2615C37.595 16.2615 37.0381 15.7046 37.0381 15.025C37.0381 14.3454 37.595 13.7791 38.284 13.7791Z" fill="#3D3D3D"/>
<path d="M27.4949 7.7666C28.184 7.7666 28.7314 8.32349 28.7314 9.01253C28.7314 9.70156 28.1745 10.249 27.4949 10.249C26.8154 10.249 26.249 9.69212 26.249 9.01253C26.249 8.33293 26.8059 7.7666 27.4949 7.7666Z" fill="#3D3D3D"/>
<path d="M39.5295 31.156C38.9538 31.156 38.4818 30.7784 38.3874 30.1083L37.7173 25.7192V25.6249C37.6229 24.8603 37.9061 24.1902 38.3874 23.6238C38.8594 23.0481 39.6239 22.7649 40.2941 22.7649C41.0586 22.7649 41.7288 23.0481 42.2007 23.6238C42.6821 24.1996 42.9653 24.8697 42.8709 25.6249V25.7192L42.2007 30.1083C42.1063 30.7784 41.5306 31.156 40.8604 31.0616C40.6716 31.0616 40.4734 30.9672 40.2846 30.8728C40.0959 31.0616 39.9071 31.156 39.7089 31.156H39.5201H39.5295ZM40.0015 25.4266L40.2846 27.1445L40.5678 25.4266C40.5678 25.3637 40.5363 25.3008 40.4734 25.2379C40.4734 25.2379 40.379 25.1435 40.2846 25.1435C40.1903 25.1435 40.0959 25.1435 40.0959 25.2379C40.0959 25.2379 40.0015 25.3323 40.0015 25.4266Z" fill="#3D3D3D"/>
<path d="M46.4956 38.8958C46.4012 38.8958 46.2125 38.8958 46.1181 38.8014C45.5423 38.6127 45.1648 37.8481 45.4479 37.2724C46.0237 35.6489 46.1181 34.1198 45.6367 33.4496C45.4479 33.2609 45.1553 32.9683 44.4002 32.9683C43.7301 32.9683 43.1543 32.3925 43.1543 31.7318C43.1543 31.071 43.7301 30.4858 44.4002 30.4858C46.1181 30.4858 47.0714 31.3448 47.5528 32.0149C48.5061 33.4496 48.5061 35.6394 47.6472 38.1218C47.4584 38.6032 46.977 38.8864 46.5051 38.8864L46.4956 38.8958Z" fill="#3D3D3D"/>
<path d="M10.5057 48.4386H4.01184C1.81259 48.4386 0.0947266 46.7207 0.0947266 44.5215V12.9203C0.0947266 10.721 1.81259 9.00317 4.01184 9.00317H10.5057C12.705 9.00317 14.4229 10.721 14.4229 12.9203V19.4142C14.4229 20.0843 13.8471 20.6507 13.1864 20.6507C12.5257 20.6507 11.9404 20.0749 11.9404 19.4142V12.9203C11.9404 12.0614 11.2703 11.3912 10.4114 11.3912H3.91745C3.05852 11.3912 2.38836 12.0614 2.38836 12.9203V44.5215C2.38836 45.3804 3.05852 46.0505 3.91745 46.0505H10.4114C11.2703 46.0505 11.9404 45.3804 11.9404 44.5215C11.9404 43.8513 12.5162 43.285 13.1864 43.285C13.8565 43.285 14.4229 43.8607 14.4229 44.5215C14.4229 46.6263 12.6106 48.4386 10.5057 48.4386Z" fill="#3D3D3D"/>
<path d="M19.4814 48.4386H15.2811C13.4689 48.4386 12.0342 47.0039 12.0342 45.1916V19.4142C12.0342 17.6019 13.4689 16.1672 15.2811 16.1672H19.4814C21.2937 16.1672 22.7284 17.6019 22.7284 19.4142C22.7284 20.0843 22.1526 20.6507 21.4919 20.6507C20.8312 20.6507 20.246 20.0749 20.246 19.4142C20.246 18.9328 19.8684 18.5553 19.387 18.5553H15.1867C14.7054 18.5553 14.3278 18.9328 14.3278 19.4142V45.0972C14.3278 45.5786 14.7054 45.9561 15.1867 45.9561H19.387C19.8684 45.9561 20.246 45.5786 20.246 45.0972C20.246 44.4271 20.8217 43.8607 21.4919 43.8607C22.162 43.8607 22.7284 44.4365 22.7284 45.0972C22.7284 46.9095 21.2937 48.4386 19.4814 48.4386Z" fill="#3D3D3D"/>
<path d="M29.0242 48.4384H23.578C21.7658 48.4384 20.3311 47.0037 20.3311 45.1914V15.8839C20.3311 14.0717 21.7658 12.637 23.578 12.637H29.0242C30.8365 12.637 32.2712 14.0717 32.2712 15.8839V29.9194C32.2712 30.5896 31.6954 31.1559 31.0252 31.1559C30.3551 31.1559 29.7888 30.5802 29.7888 29.9194V15.8839C29.7888 15.4025 29.4018 15.025 28.9298 15.025H23.4836C23.0022 15.025 22.6247 15.4025 22.6247 15.8839V45.2009C22.6247 45.6823 23.0022 46.0598 23.4836 46.0598H28.9298C29.4112 46.0598 29.7888 45.6823 29.7888 45.2009V40.0473C29.7888 39.3771 30.3645 38.8108 31.0252 38.8108C31.686 38.8108 32.2712 39.3866 32.2712 40.0473V45.1065C32.2712 46.9188 30.8365 48.4478 29.0242 48.4478V48.4384Z" fill="#3D3D3D"/>
<path d="M13.2424 19.7916H1.98194C1.34954 19.7916 0.811523 19.2158 0.811523 18.5551C0.811523 17.8944 1.34954 17.3186 1.98194 17.3186H13.2424C13.8748 17.3186 14.4129 17.8944 14.4129 18.5551C14.4129 19.2158 13.8748 19.7916 13.2424 19.7916Z" fill="#3D3D3D"/>
<path d="M12.8935 42.4259H1.95395C1.34042 42.4259 0.821289 41.8501 0.821289 41.1894C0.821289 40.5287 1.34986 39.9529 1.95395 39.9529H12.8935C13.5071 39.9529 14.0262 40.5287 14.0262 41.1894C14.0262 41.8501 13.4976 42.4259 12.8935 42.4259Z" fill="#3D3D3D"/>
<path d="M20.6142 28.0979H14.0542C13.5351 28.0979 13.082 27.5221 13.082 26.8614C13.082 26.2007 13.5257 25.6155 14.0542 25.6155H20.6142C21.1333 25.6155 21.5864 26.1912 21.5864 26.8614C21.5109 27.5316 21.0673 28.0979 20.6142 28.0979Z" fill="#3D3D3D"/>
<path d="M30.7987 20.9432H21.813C21.1806 20.9432 20.6426 20.3674 20.6426 19.7067C20.6426 19.046 21.1806 18.4702 21.813 18.4702H30.7987C31.4311 18.4702 31.9692 19.046 31.9692 19.7067C31.8748 20.3769 31.3368 20.9432 30.7987 20.9432Z" fill="#3D3D3D"/>
<path d="M31.1294 42.4259H21.5773C20.9072 42.4259 20.3408 41.8501 20.3408 41.1894C20.3408 40.5287 20.9166 39.9529 21.5773 39.9529H31.1294C31.7995 39.9529 32.3753 40.5287 32.3753 41.1894C32.3753 41.8501 31.7052 42.4259 31.1294 42.4259Z" fill="#3D3D3D"/>
<path d="M21.4448 38.8957H14.1581C13.5823 38.8957 13.082 38.32 13.082 37.6593C13.082 36.9985 13.5823 36.4133 14.1581 36.4133H21.4448C22.0206 36.4133 22.5209 36.9891 22.5209 37.6593C22.5209 38.3294 21.9451 38.8957 21.4448 38.8957Z" fill="#3D3D3D"/>
<path d="M19.189 10.249C17.1879 10.249 15.5645 8.62554 15.5645 6.62451C15.5645 4.62348 17.1879 3 19.189 3C21.19 3 22.7191 4.62348 22.7191 6.62451C22.7191 8.62554 21.0956 10.249 19.189 10.249ZM19.189 5.47297C18.5188 5.47297 17.943 6.04874 17.943 6.70946C17.943 7.37017 18.5188 7.95538 19.189 7.95538C19.8591 7.95538 20.4254 7.37961 20.4254 6.70946C20.3311 5.94491 19.7553 5.47297 19.189 5.47297Z" fill="#3D3D3D"/>
<path d="M47.1661 20.9433C44.8725 20.9433 42.9658 19.0366 42.9658 16.743C42.9658 14.4494 44.8725 12.5427 47.1661 12.5427C49.4597 12.5427 51.3664 14.4494 51.3664 16.743C51.3664 19.0366 49.4597 20.9433 47.1661 20.9433ZM47.1661 15.0251C46.2128 15.0251 45.3538 15.7897 45.3538 16.8374C45.3538 17.8851 46.1184 18.6496 47.1661 18.6496C48.1194 18.6496 48.9783 17.8851 48.9783 16.8374C48.9783 15.7897 48.2138 15.0251 47.1661 15.0251Z" fill="#3D3D3D"/>
<path d="M42.9658 48.4385C42.4844 48.4385 41.8237 48.3441 40.9648 48.0609C40.4834 47.9665 40.0115 47.9665 39.5301 48.0609C38.6712 48.2497 38.0954 48.4385 37.5291 48.4385C34.1877 48.4385 31.3183 44.1438 29.893 40.5099C28.1752 35.9226 28.1752 31.7223 29.9874 29.3343L30.0818 29.2399C30.8464 28.1922 32.4698 26.9463 35.2354 26.9463C37.1421 26.9463 38.8599 27.7108 40.2002 29.0511C41.4367 27.7108 43.2584 26.9463 45.1651 26.9463C47.9306 26.9463 49.5541 28.1828 50.3187 29.1455C51.272 30.3915 51.8477 32.1093 51.8477 34.2047C51.8477 37.0647 50.8944 40.5099 49.1766 43.3698C47.3643 46.5224 45.0707 48.429 42.9658 48.429V48.4385ZM40.2946 45.5785C40.776 45.5785 41.2479 45.6729 41.6349 45.7673C42.4939 45.9561 42.8714 46.0505 42.9753 46.0505C44.2117 46.0505 45.8352 44.5214 47.1755 42.2277C48.6102 39.7453 49.4692 36.6872 49.4692 34.2047C49.4692 32.6757 49.0822 31.4392 48.5158 30.6746C47.8457 29.8157 46.7036 29.3343 45.2689 29.3343C44.023 29.3343 42.8809 29.8157 42.0219 30.769C41.7388 31.0522 41.5406 31.3448 41.4462 31.6279C41.2574 32.0055 40.8704 32.2981 40.3985 32.2981C39.9171 32.2981 39.5395 32.0149 39.3507 31.6279C39.162 31.3448 38.9732 31.0522 38.775 30.8634C37.916 29.9101 36.7739 29.3343 35.4336 29.3343C33.9045 29.3343 32.8568 29.8157 32.0923 30.6746C30.752 32.3925 30.8464 35.9226 32.2811 39.6509C33.7158 43.2754 36.0094 46.0505 37.7273 46.0505C37.8217 46.0505 38.2086 46.0505 39.0676 45.7673C39.3507 45.6729 39.8321 45.5785 40.3041 45.5785H40.2946Z" fill="#3D3D3D"/>
<path d="M34.6593 53.2144H1.23649C0.566329 53.2144 0 52.6387 0 51.9779C0 51.3172 0.575768 50.7415 1.23649 50.7415H34.6593C35.3295 50.7415 35.8958 51.3172 35.8958 51.9779C35.8958 52.6387 35.3201 53.2144 34.6593 53.2144Z" fill="#3D3D3D"/>
<path d="M53.7541 57.9905H22.7287C22.0585 57.9905 21.4922 57.4147 21.4922 56.7445C21.4922 56.0744 22.068 55.5081 22.7287 55.5081H53.7635C54.4337 55.5081 55.0094 56.0838 55.0094 56.7445C55.0094 57.4053 54.4337 57.9905 53.7635 57.9905H53.7541Z" fill="#3D3D3D"/>
<path d="M27.4953 24.5676H25.1073C24.4371 24.5676 23.8613 23.9918 23.8613 23.3311C23.8613 22.6704 24.4371 22.0852 25.1073 22.0852H27.4953C28.1654 22.0852 28.7318 22.661 28.7318 23.3311C28.7318 24.0013 28.156 24.5676 27.4953 24.5676Z" fill="#3D3D3D"/>
<path d="M27.4953 28.0979H25.1073C24.4371 28.0979 23.8613 27.5221 23.8613 26.8614C23.8613 26.2007 24.4371 25.6155 25.1073 25.6155H27.4953C28.1654 25.6155 28.7318 26.1912 28.7318 26.8614C28.7318 27.5316 28.156 28.0979 27.4953 28.0979Z" fill="#3D3D3D"/>
</svg>
