<svg width="146" height="16" viewBox="0 0 146 16" fill="none" xmlns="http://www.w3.org/2000/svg">
<path d="M5.62 15V9.8L5.96 10.72L0.02 0.999999H1.6L6.82 9.54H5.98L11.2 0.999999H12.68L6.74 10.72L7.08 9.8V15H5.62ZM20.4898 15.12C19.4365 15.12 18.4565 14.9467 17.5498 14.6C16.6565 14.24 15.8765 13.74 15.2098 13.1C14.5565 12.4467 14.0432 11.6933 13.6698 10.84C13.3098 9.97333 13.1298 9.02667 13.1298 8C13.1298 6.97333 13.3098 6.03333 13.6698 5.18C14.0432 4.31333 14.5565 3.56 15.2098 2.92C15.8765 2.26667 16.6565 1.76667 17.5498 1.42C18.4432 1.06 19.4232 0.879999 20.4898 0.879999C21.5432 0.879999 22.5165 1.06 23.4098 1.42C24.3032 1.76667 25.0765 2.26 25.7298 2.9C26.3965 3.54 26.9098 4.29333 27.2698 5.16C27.6432 6.02667 27.8298 6.97333 27.8298 8C27.8298 9.02667 27.6432 9.97333 27.2698 10.84C26.9098 11.7067 26.3965 12.46 25.7298 13.1C25.0765 13.74 24.3032 14.24 23.4098 14.6C22.5165 14.9467 21.5432 15.12 20.4898 15.12ZM20.4898 13.8C21.3298 13.8 22.1032 13.66 22.8098 13.38C23.5298 13.0867 24.1498 12.68 24.6698 12.16C25.2032 11.6267 25.6165 11.0133 25.9098 10.32C26.2032 9.61333 26.3498 8.84 26.3498 8C26.3498 7.16 26.2032 6.39333 25.9098 5.7C25.6165 4.99333 25.2032 4.38 24.6698 3.86C24.1498 3.32667 23.5298 2.92 22.8098 2.64C22.1032 2.34667 21.3298 2.2 20.4898 2.2C19.6498 2.2 18.8698 2.34667 18.1498 2.64C17.4298 2.92 16.8032 3.32667 16.2698 3.86C15.7498 4.38 15.3365 4.99333 15.0298 5.7C14.7365 6.39333 14.5898 7.16 14.5898 8C14.5898 8.82667 14.7365 9.59333 15.0298 10.3C15.3365 11.0067 15.7498 11.6267 16.2698 12.16C16.8032 12.68 17.4298 13.0867 18.1498 13.38C18.8698 13.66 19.6498 13.8 20.4898 13.8ZM36.7872 15.12C35.0005 15.12 33.5939 14.6067 32.5672 13.58C31.5405 12.5533 31.0272 11.0333 31.0272 9.02V0.999999H32.5072V8.96C32.5072 10.6133 32.8805 11.8333 33.6272 12.62C34.3739 13.4067 35.4272 13.8 36.7872 13.8C38.1605 13.8 39.2205 13.4067 39.9672 12.62C40.7139 11.8333 41.0872 10.6133 41.0872 8.96V0.999999H42.5272V9.02C42.5272 11.0333 42.0139 12.5533 40.9872 13.58C39.9739 14.6067 38.5739 15.12 36.7872 15.12ZM44.5117 15.96V15H54.5117V15.96H44.5117ZM61.0423 15.12C60.0023 15.12 59.0023 14.9533 58.0423 14.62C57.0957 14.2733 56.3623 13.8333 55.8423 13.3L56.4223 12.16C56.9157 12.64 57.5757 13.0467 58.4023 13.38C59.2423 13.7 60.1223 13.86 61.0423 13.86C61.9223 13.86 62.6357 13.7533 63.1823 13.54C63.7423 13.3133 64.149 13.0133 64.4023 12.64C64.669 12.2667 64.8023 11.8533 64.8023 11.4C64.8023 10.8533 64.6423 10.4133 64.3223 10.08C64.0157 9.74667 63.609 9.48667 63.1023 9.3C62.5957 9.1 62.0357 8.92667 61.4223 8.78C60.809 8.63333 60.1957 8.48 59.5823 8.32C58.969 8.14667 58.4023 7.92 57.8823 7.64C57.3757 7.36 56.9623 6.99333 56.6423 6.54C56.3357 6.07333 56.1823 5.46667 56.1823 4.72C56.1823 4.02667 56.3623 3.39333 56.7223 2.82C57.0957 2.23333 57.6623 1.76667 58.4223 1.42C59.1823 1.06 60.1557 0.879999 61.3423 0.879999C62.129 0.879999 62.909 0.993333 63.6823 1.22C64.4557 1.43333 65.1223 1.73333 65.6823 2.12L65.1823 3.3C64.5823 2.9 63.9423 2.60667 63.2623 2.42C62.5957 2.23333 61.949 2.14 61.3223 2.14C60.4823 2.14 59.789 2.25333 59.2423 2.48C58.6957 2.70667 58.289 3.01333 58.0223 3.4C57.769 3.77333 57.6423 4.2 57.6423 4.68C57.6423 5.22667 57.7957 5.66667 58.1023 6C58.4223 6.33333 58.8357 6.59333 59.3423 6.78C59.8623 6.96667 60.429 7.13333 61.0423 7.28C61.6557 7.42667 62.2623 7.58667 62.8623 7.76C63.4757 7.93333 64.0357 8.16 64.5423 8.44C65.0623 8.70667 65.4757 9.06667 65.7823 9.52C66.1023 9.97333 66.2623 10.5667 66.2623 11.3C66.2623 11.98 66.0757 12.6133 65.7023 13.2C65.329 13.7733 64.7557 14.24 63.9823 14.6C63.2223 14.9467 62.2423 15.12 61.0423 15.12ZM70.807 7.26H78.207V8.52H70.807V7.26ZM70.967 13.72H79.387V15H69.487V0.999999H79.087V2.28H70.967V13.72ZM88.9469 15.12C87.8935 15.12 86.9135 14.9467 86.0069 14.6C85.1135 14.24 84.3335 13.74 83.6669 13.1C83.0135 12.4467 82.5002 11.6933 82.1269 10.84C81.7669 9.97333 81.5869 9.02667 81.5869 8C81.5869 6.97333 81.7669 6.03333 82.1269 5.18C82.5002 4.31333 83.0135 3.56 83.6669 2.92C84.3335 2.26667 85.1135 1.76667 86.0069 1.42C86.9002 1.06 87.8802 0.879999 88.9469 0.879999C90.0002 0.879999 90.9735 1.06 91.8669 1.42C92.7602 1.76667 93.5335 2.26 94.1869 2.9C94.8535 3.54 95.3669 4.29333 95.7269 5.16C96.1002 6.02667 96.2869 6.97333 96.2869 8C96.2869 9.02667 96.1002 9.97333 95.7269 10.84C95.3669 11.7067 94.8535 12.46 94.1869 13.1C93.5335 13.74 92.7602 14.24 91.8669 14.6C90.9735 14.9467 90.0002 15.12 88.9469 15.12ZM88.9469 13.8C89.7869 13.8 90.5602 13.66 91.2669 13.38C91.9869 13.0867 92.6069 12.68 93.1269 12.16C93.6602 11.6267 94.0735 11.0133 94.3669 10.32C94.6602 9.61333 94.8069 8.84 94.8069 8C94.8069 7.16 94.6602 6.39333 94.3669 5.7C94.0735 4.99333 93.6602 4.38 93.1269 3.86C92.6069 3.32667 91.9869 2.92 91.2669 2.64C90.5602 2.34667 89.7869 2.2 88.9469 2.2C88.1069 2.2 87.3269 2.34667 86.6069 2.64C85.8869 2.92 85.2602 3.32667 84.7269 3.86C84.2069 4.38 83.7935 4.99333 83.4869 5.7C83.1935 6.39333 83.0469 7.16 83.0469 8C83.0469 8.82667 83.1935 9.59333 83.4869 10.3C83.7935 11.0067 84.2069 11.6267 84.7269 12.16C85.2602 12.68 85.8869 13.0867 86.6069 13.38C87.3269 13.66 88.1069 13.8 88.9469 13.8ZM99.6042 15V0.999999H100.824L110.484 13.16H109.844V0.999999H111.304V15H110.084L100.444 2.84H101.084V15H99.6042ZM126.114 0.999999H127.574V15H126.114V0.999999ZM117.354 15H115.874V0.999999H117.354V15ZM126.254 8.54H117.194V7.24H126.254V8.54ZM138.263 15.12C137.21 15.12 136.23 14.9467 135.323 14.6C134.43 14.24 133.65 13.74 132.983 13.1C132.33 12.4467 131.817 11.6933 131.443 10.84C131.083 9.97333 130.903 9.02667 130.903 8C130.903 6.97333 131.083 6.03333 131.443 5.18C131.817 4.31333 132.33 3.56 132.983 2.92C133.65 2.26667 134.43 1.76667 135.323 1.42C136.217 1.06 137.197 0.879999 138.263 0.879999C139.317 0.879999 140.29 1.06 141.183 1.42C142.077 1.76667 142.85 2.26 143.503 2.9C144.17 3.54 144.683 4.29333 145.043 5.16C145.417 6.02667 145.603 6.97333 145.603 8C145.603 9.02667 145.417 9.97333 145.043 10.84C144.683 11.7067 144.17 12.46 143.503 13.1C142.85 13.74 142.077 14.24 141.183 14.6C140.29 14.9467 139.317 15.12 138.263 15.12ZM138.263 13.8C139.103 13.8 139.877 13.66 140.583 13.38C141.303 13.0867 141.923 12.68 142.443 12.16C142.977 11.6267 143.39 11.0133 143.683 10.32C143.977 9.61333 144.123 8.84 144.123 8C144.123 7.16 143.977 6.39333 143.683 5.7C143.39 4.99333 142.977 4.38 142.443 3.86C141.923 3.32667 141.303 2.92 140.583 2.64C139.877 2.34667 139.103 2.2 138.263 2.2C137.423 2.2 136.643 2.34667 135.923 2.64C135.203 2.92 134.577 3.32667 134.043 3.86C133.523 4.38 133.11 4.99333 132.803 5.7C132.51 6.39333 132.363 7.16 132.363 8C132.363 8.82667 132.51 9.59333 132.803 10.3C133.11 11.0067 133.523 11.6267 134.043 12.16C134.577 12.68 135.203 13.0867 135.923 13.38C136.643 13.66 137.423 13.8 138.263 13.8Z" fill="white"/>
</svg>
