<?xml version="1.0" encoding="utf-8"?>
<!-- Generator: Adobe Illustrator 25.2.3, SVG Export Plug-In . SVG Version: 6.00 Build 0)  -->
<svg version="1.1" id="Layer_1" xmlns="http://www.w3.org/2000/svg" xmlns:xlink="http://www.w3.org/1999/xlink" x="0px" y="0px"
	 viewBox="0 0 128.9 48.8" style="enable-background:new 0 0 128.9 48.8;" xml:space="preserve">
<style type="text/css">
	.st0{fill-rule:evenodd;clip-rule:evenodd;}
	.st1{fill-rule:evenodd;clip-rule:evenodd;fill:#231916;}
	.st2{fill:#231916;}
</style>
<g id="Layer_2_1_">
	<g id="레이어_1">
		<path class="st0" d="M4.9,43.9h24.2v-39H4.9V43.9z M0,0h34v48.8H0V0z"/>
		<path class="st1" d="M48.4,14.7h-1.5c-2-2.9-4-5.7-6.1-8.9l0,0v9h-1.7V2.2h1.5c2,2.9,4,5.7,6,8.9l0,0V2.2h1.7L48.4,14.7L48.4,14.7
			z"/>
		<path class="st1" d="M53.3,2.2L49,14.7h1.9l1.1-3.4h3.8l1,3.4h2.4l-4-12.5H53.3z M52.5,9.8c0.5-1.6,1-3.2,1.5-5.1l0,0
			c0.5,1.9,0.9,3.4,1.4,5.1H52.5z"/>
		<polygon class="st1" points="61.1,14.7 61.1,3.9 57.8,3.9 57.8,2.2 66.5,2.2 66.5,3.9 63.2,3.9 63.2,14.7 61.1,14.7 61.1,14.7 		
			"/>
		<polygon class="st1" points="67.2,2.2 69.3,2.2 69.3,14.7 67.2,14.7 67.2,2.2 67.2,2.2 		"/>
		<path class="st1" d="M75.9,14.9c3.3,0,5.3-2.9,5.3-6.6C81.2,4.8,79,2,75.9,2s-5.3,2.8-5.3,6.3C70.6,12,72.6,14.9,75.9,14.9z
			 M75.9,13.1c-2.2,0-3-2.5-3-4.8s0.9-4.5,3-4.5s3,2.2,3,4.5S78.2,13.1,75.9,13.1z"/>
		<path class="st1" d="M91.9,14.7h-1.6c-2-2.9-4.1-5.7-6.1-8.9l0,0v9h-1.7V2.2h1.6c2,2.9,4,5.7,6,8.9l0,0V2.2h1.7L91.9,14.7
			L91.9,14.7z"/>
		<path class="st1" d="M96.8,2.2l-4.3,12.5h1.9l1.1-3.4h3.8l1,3.4h2.4l-4-12.5H96.8z M96,9.8c0.5-1.6,1-3.2,1.4-5.1l0,0
			c0.5,1.9,0.9,3.4,1.4,5.1H96z"/>
		<polygon class="st1" points="103.2,2.2 105.3,2.2 105.3,13 109.5,13 109.5,14.7 103.2,14.7 103.2,2.2 103.2,2.2 		"/>
		<path class="st1" d="M47.1,25.1v5.1c-1.1,0.5-2.3,0.7-3.5,0.8c-3.7,0-6-2.9-6-6.5c0-3.4,2.3-6.4,6.1-6.4c1.1,0,2.1,0.4,3,1
			L46,20.6c-0.7-0.4-1.5-0.6-2.3-0.7c-2.3,0-3.8,1.8-3.8,4.6s1.8,4.7,3.6,4.7c0.5,0,1-0.1,1.5-0.3v-3.9H47.1z"/>
		<polygon class="st1" points="54.8,20 51.2,20 51.2,23.5 54.7,23.5 54.7,25.1 51.2,25.1 51.2,29.2 55.4,29.2 55.4,30.9 49.1,30.9 
			49.1,18.4 54.8,18.4 54.8,20 54.8,20 		"/>
		<path class="st1" d="M61.4,31.1c3.3,0,5.3-2.9,5.3-6.6c0-3.5-2.2-6.3-5.3-6.3s-5.3,2.8-5.3,6.3C56.1,28.2,58.1,31.1,61.4,31.1z
			 M61.4,29.3c-2.2,0-3-2.5-3-4.9s0.9-4.5,3-4.5s3,2.2,3,4.5S63.6,29.3,61.4,29.3z"/>
		<path class="st1" d="M76.9,25.1v5.1c-1.1,0.5-2.3,0.7-3.6,0.8c-3.7,0-6-2.9-6-6.5c0-3.4,2.3-6.4,6.1-6.4c1.1,0,2.1,0.4,3,1
			l-0.7,1.5c-0.7-0.4-1.5-0.6-2.3-0.7c-2.3,0-3.8,1.8-3.8,4.6s1.8,4.7,3.6,4.7c0.5,0,1-0.1,1.5-0.3v-3.9H76.9z"/>
		<path class="st1" d="M86.5,30.9L84,25.7c1.3-0.8,2.1-2.2,2.1-3.7c0-2.4-1.5-3.6-3.9-3.6h-3.3v12.5h2.2v-4.7h1l2,4.7L86.5,30.9z
			 M81.1,20H82c1-0.1,1.9,0.6,2,1.6c0,0.1,0,0.3,0,0.4c0.2,1.2-0.7,2.3-1.9,2.5c0,0-0.1,0-0.1,0c-0.2,0-0.7,0-0.9,0L81.1,20L81.1,20
			z"/>
		<path class="st1" d="M90.8,18.4l-4.3,12.5h1.9l1.1-3.4h3.8l1,3.4h2.4l-4-12.5H90.8z M90,25.9c0.5-1.6,1-3.2,1.4-5.1l0,0
			c0.5,1.9,1,3.4,1.4,5.1H90z"/>
		<path class="st1" d="M100.3,24.5c-0.2,0-0.7,0-0.9,0V20h1c1-0.1,1.9,0.6,2,1.6c0,0.1,0,0.3,0,0.4c0.2,1.2-0.7,2.3-1.9,2.5
			c0,0-0.1,0-0.1,0L100.3,24.5z M100.6,18.4h-3.3v12.5h2.1v-4.7h1c2.3,0,4.1-1.9,4.1-4.1c0,0,0,0,0,0
			C104.5,19.6,103,18.4,100.6,18.4L100.6,18.4z"/>
		<polygon class="st1" points="114.4,30.9 112.2,30.9 112.2,24.8 107.8,24.8 107.8,30.9 105.7,30.9 105.7,18.4 107.8,18.4 
			107.8,23.2 112.2,23.2 112.2,18.4 114.4,18.4 114.4,30.9 114.4,30.9 		"/>
		<polygon class="st1" points="116.4,18.4 118.6,18.4 118.6,30.9 116.4,30.9 116.4,18.4 116.4,18.4 		"/>
		<path class="st1" d="M128.2,20.6c-0.7-0.4-1.4-0.7-2.2-0.7c-2.2,0-3.8,1.8-3.8,4.6s1.8,4.7,3.8,4.7c0.8,0,1.5-0.2,2.1-0.6l0.6,1.5
			c-0.8,0.5-1.8,0.8-2.8,0.9c-3.7,0-6-2.9-6-6.5c0-3.4,2.3-6.4,6-6.4c1,0,2,0.4,2.9,1L128.2,20.6L128.2,20.6z"/>
		<path class="st2" d="M37.5,41.4c0-3.8,2.4-6.1,5.4-6.1c1.3,0,2.5,0.5,3.4,1.5l-1.1,1.3c-0.6-0.6-1.4-1-2.2-1
			c-1.9,0-3.3,1.6-3.3,4.3s1.3,4.3,3.2,4.3c1,0,1.9-0.5,2.5-1.2l1.1,1.3c-0.9,1.1-2.3,1.7-3.7,1.7C39.8,47.5,37.5,45.3,37.5,41.4z"
			/>
		<path class="st2" d="M47.5,35.5h2.1v4.7h4.8v-4.7h2.1v11.8h-2.1v-5.2h-4.8v5.2h-2.1V35.5z"/>
		<path class="st2" d="M60.9,35.5h2.4l3.8,11.8H65L63.2,41c-0.4-1.2-0.7-2.6-1.1-3.9H62c-0.3,1.3-0.7,2.6-1,3.9l-1.8,6.3H57
			L60.9,35.5z M59.3,42.5h5.5v1.6h-5.5V42.5z"/>
		<path class="st2" d="M67.6,35.5h2.1l3.7,6.6l1.2,2.5h0.1c-0.1-1.2-0.3-2.7-0.3-4v-5.1h2v11.8h-2.2l-3.7-6.6l-1.2-2.5h-0.1
			c0.1,1.2,0.3,2.7,0.3,4v5.2h-2L67.6,35.5z"/>
		<path class="st2" d="M78.5,35.5h2.1l3.7,6.6l1.2,2.5h0.1c-0.1-1.2-0.3-2.7-0.3-4v-5.1h2v11.8h-2.2l-3.7-6.6l-1.2-2.5h-0.1
			c0.1,1.2,0.3,2.7,0.3,4v5.2h-2L78.5,35.5z"/>
		<path class="st2" d="M89.4,35.5h7.1v1.8h-5v3h4.2V42h-4.2v3.5h5.2v1.8h-7.3V35.5z"/>
		<path class="st2" d="M98.2,35.5h2.1v10h4.9v1.8h-7L98.2,35.5z"/>
	</g>
</g>
</svg>
