<svg xmlns="http://www.w3.org/2000/svg" viewBox="0 0 128.87 48.79"><defs><style>.cls-1{fill:#ffdc00;}.cls-1,.cls-2{fill-rule:evenodd;}.cls-2,.cls-3{fill:#231916;}</style></defs><g id="Layer_2" data-name="Layer 2"><g id="레이어_1" data-name="레이어 1"><path class="cls-1" d="M4.91,43.88H29.12v-39H4.91v39ZM0,0H34.05V48.79H0V0Z"/><path class="cls-2" d="M48.44,14.7H46.89c-2-2.87-4-5.73-6.07-8.95h0v9H39.1V2.21h1.55c2,2.86,4,5.69,6,8.9h0V2.21h1.71V14.7Z"/><path class="cls-2" d="M53.33,2.21,49,14.7h1.86L52,11.29h3.77l1,3.41h2.39l-4-12.49Zm-.82,7.55C53,8.12,53.5,6.6,54,4.67h0c.49,1.93.94,3.45,1.41,5.09Z"/><polygon class="cls-2" points="61.1 14.7 61.1 3.89 57.82 3.89 57.82 2.21 66.52 2.21 66.52 3.89 63.24 3.89 63.24 14.7 61.1 14.7 61.1 14.7 61.1 14.7"/><polygon class="cls-2" points="67.22 2.21 69.34 2.21 69.34 14.7 67.22 14.7 67.22 2.21 67.22 2.21 67.22 2.21"/><path class="cls-2" d="M75.94,14.91c3.27,0,5.3-2.9,5.3-6.63C81.24,4.78,79,2,75.94,2s-5.3,2.78-5.3,6.28c0,3.73,2,6.63,5.3,6.63Zm0-1.78c-2.23,0-3-2.46-3-4.85s.89-4.5,3-4.5,3,2.2,3,4.5-.78,4.85-3,4.85Z"/><path class="cls-2" d="M91.89,14.7H90.34c-2-2.87-4.06-5.73-6.07-8.95h0v9H82.54V2.21h1.55c2,2.86,4,5.69,6,8.9h0V2.21h1.72V14.7Z"/><path class="cls-2" d="M96.77,2.21,92.46,14.7h1.86l1.08-3.41h3.77l1,3.41h2.39l-4-12.49ZM96,9.76c.5-1.64,1-3.16,1.45-5.09h0c.49,1.93.94,3.45,1.4,5.09Z"/><polygon class="cls-2" points="103.16 2.21 105.28 2.21 105.28 13.02 109.51 13.02 109.51 14.7 103.16 14.7 103.16 2.21 103.16 2.21 103.16 2.21"/><path class="cls-2" d="M47.12,25.15V30.3a9.74,9.74,0,0,1-3.54.76c-3.68,0-6-2.85-6-6.52,0-3.41,2.32-6.39,6.07-6.39a5.33,5.33,0,0,1,3,1L46,20.6a4.59,4.59,0,0,0-2.28-.66c-2.28,0-3.84,1.8-3.84,4.63s1.79,4.71,3.62,4.71A3.15,3.15,0,0,0,45,29V25.15Z"/><polygon class="cls-2" points="54.78 20.05 51.21 20.05 51.21 23.47 54.7 23.47 54.7 25.14 51.21 25.14 51.21 29.17 55.42 29.17 55.42 30.85 49.06 30.85 49.06 18.36 54.78 18.36 54.78 20.05 54.78 20.05 54.78 20.05"/><path class="cls-2" d="M61.38,31.06c3.26,0,5.29-2.9,5.29-6.63,0-3.49-2.24-6.28-5.29-6.28s-5.3,2.79-5.3,6.28c0,3.73,2,6.63,5.3,6.63Zm0-1.78c-2.24,0-3-2.46-3-4.85s.89-4.49,3-4.49,3,2.19,3,4.49-.79,4.85-3,4.85Z"/><path class="cls-2" d="M76.94,25.15V30.3a9.7,9.7,0,0,1-3.55.76c-3.67,0-6-2.85-6-6.52,0-3.41,2.32-6.39,6.07-6.39a5.31,5.31,0,0,1,3,1l-.7,1.48a4.59,4.59,0,0,0-2.28-.66c-2.28,0-3.84,1.8-3.84,4.63s1.79,4.71,3.63,4.71a3.17,3.17,0,0,0,1.5-.3V25.15Z"/><path class="cls-2" d="M86.47,30.85,84,25.68A4.18,4.18,0,0,0,86.11,22c0-2.43-1.48-3.6-3.87-3.6H78.9V30.85h2.15V26.14h1l2,4.71Zm-5.42-10.8H82a1.81,1.81,0,0,1,2,2,2.2,2.2,0,0,1-2,2.48c-.22,0-.72,0-.89.05V20.05Z"/><path class="cls-2" d="M90.82,18.37,86.5,30.85h1.86l1.09-3.41h3.76l1,3.41h2.39l-4-12.48ZM90,25.91c.5-1.64,1-3.16,1.45-5.08h0c.5,1.92,1,3.44,1.41,5.08Z"/><path class="cls-2" d="M100.29,24.54c-.22,0-.74,0-.89.05V20.05h1a1.8,1.8,0,0,1,2,2,2.2,2.2,0,0,1-2,2.48Zm.3-6.17H97.26V30.85H99.4V26.14h1A4.09,4.09,0,0,0,104.47,22c0-2.43-1.49-3.6-3.88-3.6Z"/><polygon class="cls-2" points="114.38 30.85 112.24 30.85 112.24 24.84 107.8 24.84 107.8 30.85 105.68 30.85 105.68 18.36 107.8 18.36 107.8 23.16 112.24 23.16 112.24 18.4 114.38 18.4 114.38 30.85 114.38 30.85 114.38 30.85"/><polygon class="cls-2" points="116.43 18.36 118.56 18.36 118.56 30.85 116.43 30.85 116.43 18.36 116.43 18.36 116.43 18.36"/><path class="cls-2" d="M128.19,20.63a4.54,4.54,0,0,0-2.2-.69c-2.18,0-3.76,1.8-3.76,4.63s1.75,4.71,3.82,4.71a4.12,4.12,0,0,0,2.14-.62l.59,1.55a5.43,5.43,0,0,1-2.82.85c-3.68,0-6-2.85-6-6.52,0-3.41,2.3-6.39,6-6.39a5.3,5.3,0,0,1,2.88,1l-.68,1.51Z"/><path class="cls-3" d="M37.46,41.44c0-3.85,2.41-6.14,5.39-6.14a4.69,4.69,0,0,1,3.4,1.49l-1.12,1.34a3.08,3.08,0,0,0-2.23-1c-1.92,0-3.29,1.62-3.29,4.26s1.26,4.32,3.24,4.32a3.3,3.3,0,0,0,2.51-1.21l1.12,1.31a4.71,4.71,0,0,1-3.71,1.71C39.81,47.5,37.46,45.33,37.46,41.44Z"/><path class="cls-3" d="M47.55,35.51h2.09v4.73H54.4V35.51h2.09V47.29H54.4V42.07H49.64v5.22H47.55Z"/><path class="cls-3" d="M60.89,35.51h2.44l3.84,11.78H65L63.17,41c-.38-1.24-.72-2.59-1.07-3.88H62c-.32,1.3-.67,2.64-1,3.88l-1.81,6.27H57.05Zm-1.57,7h5.54V44.1H59.32Z"/><path class="cls-3" d="M67.62,35.51h2.14l3.66,6.62,1.22,2.51h.07c-.1-1.21-.27-2.7-.27-4V35.51h2V47.29H74.29l-3.66-6.63-1.22-2.5h-.07c.1,1.24.26,2.66.26,4v5.16h-2Z"/><path class="cls-3" d="M78.53,35.51h2.14l3.66,6.62,1.22,2.51h.07c-.1-1.21-.27-2.7-.27-4V35.51h2V47.29H85.19l-3.65-6.63-1.22-2.5h-.07c.1,1.24.26,2.66.26,4v5.16h-2Z"/><path class="cls-3" d="M89.43,35.51h7.09v1.76h-5v3h4.24V42H91.52v3.49H96.7v1.76H89.43Z"/><path class="cls-3" d="M98.22,35.51h2.09v10h4.89v1.76h-7Z"/></g></g></svg>