<svg xmlns="http://www.w3.org/2000/svg" viewBox="0 0 44 98.41"><defs><style>.cls-1{fill:#fff;fill-rule:evenodd;}</style></defs><g id="Layer_2" data-name="Layer 2"><g id="Layer_1-2" data-name="Layer 1"><path class="cls-1" d="M4,22H4V48a18,18,0,0,0,36,0V22A18,18,0,0,0,4,22ZM0,22a22,22,0,0,1,44,0V48A22,22,0,0,1,0,48V22Z"/><path class="cls-1" d="M20,16a2,2,0,1,1,4,0v8a2,2,0,1,1-4,0Z"/><path class="cls-1" d="M22,93.58,36.79,78.79a2,2,0,0,1,2.83,2.82L23.41,97.82a2,2,0,0,1-2.82,0L4.33,81.57a2,2,0,0,1,2.83-2.83Z"/></g></g></svg>