<svg xmlns="http://www.w3.org/2000/svg" viewBox="0 0 166.06 48.79"><defs><style>.cls-1,.cls-2{fill-rule:evenodd;}.cls-2{fill:#231916;}</style></defs><g id="Layer_2" data-name="Layer 2"><g id="레이어_1" data-name="레이어 1"><path class="cls-1" d="M4.91,43.88H29.12v-39H4.91v39ZM0,0H34.05V48.79H0V0Z"/><path class="cls-2" d="M56.67,21.89H54.56C51.79,18,49.05,14.1,46.31,9.71h0V21.89H44v-17h2.11c2.76,3.88,5.5,7.73,8.22,12.1h.05V4.91h2.33v17Z"/><path class="cls-2" d="M63.31,4.91l-5.86,17H60l1.48-4.64h5.12l1.33,4.64h3.25l-5.41-17ZM62.2,15.17c.68-2.24,1.36-4.3,2-6.92h0c.68,2.62,1.29,4.68,1.92,6.92Z"/><polygon class="cls-2" points="73.89 21.89 73.89 7.18 69.43 7.18 69.43 4.91 81.27 4.91 81.27 7.18 76.8 7.18 76.8 21.89 73.89 21.89 73.89 21.89 73.89 21.89"/><polygon class="cls-2" points="82.21 4.91 85.1 4.91 85.1 21.89 82.21 21.89 82.21 4.91 82.21 4.91 82.21 4.91"/><path class="cls-2" d="M94.08,22.18c4.44,0,7.2-4,7.2-9,0-4.75-3-8.54-7.2-8.54s-7.22,3.79-7.22,8.54c0,5.07,2.78,9,7.22,9Zm0-2.43c-3,0-4.11-3.35-4.11-6.6S91.19,7,94.08,7s4.09,3,4.09,6.11-1.06,6.6-4.09,6.6Z"/><path class="cls-2" d="M115.76,21.89h-2.11c-2.76-3.91-5.51-7.79-8.24-12.18h0V21.89h-2.32v-17h2.1c2.77,3.88,5.51,7.73,8.22,12.1h.05V4.91h2.33v17Z"/><path class="cls-2" d="M122.41,4.91l-5.87,17h2.53l1.47-4.64h5.12L127,21.89h3.25l-5.41-17Zm-1.12,10.26c.68-2.24,1.36-4.3,2-6.92h0c.68,2.62,1.28,4.68,1.91,6.92Z"/><polygon class="cls-2" points="131.09 4.91 133.98 4.91 133.98 19.61 139.73 19.61 139.73 21.89 131.09 21.89 131.09 4.91 131.09 4.91 131.09 4.91"/><path class="cls-2" d="M54.88,36.09v7a13.35,13.35,0,0,1-4.83,1c-5,0-8.15-3.89-8.15-8.88,0-4.64,3.15-8.69,8.25-8.69a7.31,7.31,0,0,1,4.12,1.31l-1,2a6.24,6.24,0,0,0-3.1-.9C47.12,29,45,31.46,45,35.32c0,4,2.43,6.4,4.93,6.4a4.24,4.24,0,0,0,2-.41V36.09Z"/><polygon class="cls-2" points="65.29 29.16 60.43 29.16 60.43 33.81 65.19 33.81 65.19 36.09 60.43 36.09 60.43 41.57 66.16 41.57 66.16 43.86 57.52 43.86 57.52 26.87 65.29 26.87 65.29 29.16 65.29 29.16 65.29 29.16"/><path class="cls-2" d="M74.26,44.15c4.44,0,7.21-4,7.21-9,0-4.75-3.06-8.54-7.21-8.54s-7.2,3.79-7.2,8.54c0,5.07,2.76,9,7.2,9Zm0-2.43c-3,0-4.1-3.34-4.1-6.6S71.37,29,74.26,29s4.1,3,4.1,6.11-1.07,6.6-4.1,6.6Z"/><path class="cls-2" d="M95.44,36.09v7a13.35,13.35,0,0,1-4.83,1c-5,0-8.15-3.89-8.15-8.88,0-4.64,3.15-8.69,8.25-8.69a7.29,7.29,0,0,1,4.12,1.31l-1,2a6.21,6.21,0,0,0-3.1-.9c-3.11,0-5.22,2.45-5.22,6.31,0,4,2.43,6.4,4.93,6.4a4.22,4.22,0,0,0,2-.41V36.09Z"/><path class="cls-2" d="M108.4,43.86l-3.43-7a5.71,5.71,0,0,0,2.94-5.05c0-3.3-2-4.9-5.27-4.9H98.11v17H101V37.45h1.31l2.74,6.41ZM101,29.16h1.29A2.47,2.47,0,0,1,105,31.9c0,2.28-1.38,3.29-2.77,3.37l-1.21.07V29.16Z"/><path class="cls-2" d="M114.31,26.87l-5.87,17H111l1.48-4.64h5.13l1.32,4.64h3.26l-5.41-17ZM113.2,37.14c.67-2.24,1.35-4.3,2-6.92h0c.68,2.62,1.29,4.68,1.92,6.92Z"/><path class="cls-2" d="M127.2,35.27l-1.22.07V29.16h1.31A2.46,2.46,0,0,1,130,31.9c0,2.28-1.38,3.29-2.76,3.37Zm.4-8.4h-4.53v17H126V37.45h1.31a5.55,5.55,0,0,0,5.58-5.68c0-3.3-2-4.9-5.27-4.9Z"/><polygon class="cls-2" points="146.36 43.86 143.45 43.86 143.45 35.68 137.4 35.68 137.4 43.86 134.52 43.86 134.52 26.87 137.4 26.87 137.4 33.4 143.45 33.4 143.45 26.92 146.36 26.92 146.36 43.86 146.36 43.86 146.36 43.86"/><polygon class="cls-2" points="149.15 26.87 152.04 26.87 152.04 43.86 149.15 43.86 149.15 26.87 149.15 26.87 149.15 26.87"/><path class="cls-2" d="M165.13,30a6,6,0,0,0-3-.95c-3,0-5.12,2.45-5.12,6.31,0,4,2.38,6.4,5.19,6.4a5.52,5.52,0,0,0,2.91-.85l.81,2.11a7.39,7.39,0,0,1-3.84,1.17c-5,0-8.15-3.89-8.15-8.88,0-4.64,3.13-8.69,8.2-8.69a7.24,7.24,0,0,1,3.91,1.31L165.13,30Z"/></g></g></svg>