<?xml version="1.0" encoding="utf-8"?>
<!-- Generator: Adobe Illustrator 25.2.3, SVG Export Plug-In . SVG Version: 6.00 Build 0)  -->
<svg version="1.1" id="Layer_1" xmlns="http://www.w3.org/2000/svg" xmlns:xlink="http://www.w3.org/1999/xlink" x="0px" y="0px"
	 viewBox="0 0 607 515" style="enable-background:new 0 0 607 515;" xml:space="preserve">
<style type="text/css">
	.st0{fill:#FFFFFF;}
	.st1{font-family:'Gadugi';}
	.st2{font-size:24px;}
</style>
<g id="Layer_2_1_">
	<g id="Layer_1-2">
		<image style="overflow:visible;enable-background:new    ;" width="360" height="515" xlink:href="9624E3DB.png" >
		</image>
		<g id="ONE_STEP_TO_THE_EDGE_OF_IMPOSSIBLE_AND_THEN_FURTHER.">
			<text transform="matrix(1 0 0 1 180.06 346.51)" class="st0 st1 st2">ONE STEP TO THE EDGE OF IMPOSSIBLE</text>
			<text transform="matrix(1 0 0 1 180.06 375.32)" class="st0 st1 st2">AND THEN, FURTHER.</text>
		</g>
	</g>
</g>
<g>
	<g>
		<path class="st0" d="M178,283c0-13,8.6-20.5,18.5-20.5c5.1,0,9.1,2.4,11.8,5.1l-4.7,5.7c-2-1.8-4.1-3.1-6.9-3.1
			c-5.4,0-9.6,4.7-9.6,12.6c0,8,3.7,12.7,9.5,12.7c3.2,0,5.7-1.6,7.6-3.7l4.7,5.6c-3.2,3.8-7.6,5.7-12.6,5.7
			C186.3,303,178,296.2,178,283z"/>
		<path class="st0" d="M211.8,263.2h8.8v15.1h13.5v-15.1h8.8v39.1h-8.8V286h-13.5v16.3h-8.8V263.2z"/>
		<path class="st0" d="M256.5,263.2h10.6l12.3,39.1H270l-5.1-19.8c-1.1-3.9-2.1-8.5-3.2-12.6h-0.2c-0.9,4.1-2,8.7-3.1,12.6
			l-5.1,19.8h-9L256.5,263.2z M252.3,286.1h18.8v6.9h-18.8V286.1z"/>
		<path class="st0" d="M280.6,263.2h9.1l10.2,19.4l3.9,8.6h0.2c-0.4-4.1-1.1-9.6-1.1-14.2v-13.8h8.4v39.1h-9.1L292,282.8l-3.9-8.5
			h-0.2c0.4,4.3,1.1,9.6,1.1,14.2v13.9h-8.4V263.2z"/>
		<path class="st0" d="M317.5,263.2h9.1l10.2,19.4l3.9,8.6h0.2c-0.4-4.1-1.1-9.6-1.1-14.2v-13.8h8.4v39.1h-9.1l-10.2-19.5l-3.9-8.5
			h-0.2c0.4,4.3,1.1,9.6,1.1,14.2v13.9h-8.4V263.2z"/>
		<path class="st0" d="M354.4,263.2h24.5v7.4h-15.7v7.9h13.3v7.4h-13.3v9h16.3v7.4h-25.1V263.2z"/>
		<path class="st0" d="M384.3,263.2h8.8v31.7h15.4v7.4h-24.3V263.2z"/>
	</g>
</g>
<image style="overflow:visible;enable-background:new    ;" width="388" height="123" id="비쥬얼_로고" xlink:href="9624E3DD.png"  transform="matrix(1 0 0 1 178.05 130.0957)">
</image>
</svg>
