<svg width="100" height="100" viewBox="0 0 100 100" fill="none" xmlns="http://www.w3.org/2000/svg">
<g clip-path="url(#clip0_24_5697)">
<path fill-rule="evenodd" clip-rule="evenodd" d="M96 35.0157V35.1387C95.9799 36.3568 95.7729 37.7394 95.3199 39.3279C95.3199 39.3279 93.4026 43.5385 90.7624 47.2116L81.2347 61.9064H71.2941V52.33L76.2845 46.7783C77.5631 45.623 78.1817 43.7444 78.1817 43.7444C78.7175 39.9671 74.5942 40.5862 74.5942 40.5862C73.3771 40.7507 72.2641 41.0194 71.2941 41.371V30.3518C75.0271 28.7833 79.0689 27.6481 83.2549 27.1534C83.2549 27.1534 96.0828 25.2346 96 35.0169V35.0157ZM71.2928 71.9801V70.2057H75.8503L74.6946 72.0014L71.2916 71.9813L71.2928 71.9801ZM71.2928 68.636V66.8403H78.0362L76.8805 68.636H71.2916H71.2928ZM71.2928 65.2718V63.4974H80.222L79.0664 65.2718H71.2916H71.2928ZM28.6444 45.4183C29.243 45.5841 29.7374 46.0374 29.1187 47.1525C29.0158 47.317 28.8502 47.6473 28.6444 48.1019V45.4183ZM71.2928 30.3518V41.3735C66.3225 43.1693 64.5495 46.9868 64.5495 46.9868C63.2909 52.0437 69.6227 50.5782 69.6227 50.5782V54.1483L70.9013 52.7658L71.2928 52.3325V61.9089H62.858L63.9309 60.7536C63.9309 60.7536 49.1229 61.2898 50.7115 51.1973C51.8872 43.644 60.1978 35.037 71.2928 30.3518ZM71.2928 63.4974V65.2718H59.8051L61.4351 63.4974H71.2928ZM71.2928 66.8415V68.6373H56.7333L58.362 66.8415H71.2928ZM71.2928 70.2044V71.9788L53.7832 71.8959L55.3091 70.2044H71.2916H71.2928ZM28.6444 71.8771V70.2057H38.255C37.8221 71.258 37.5536 71.8771 37.5536 71.8771H28.6444ZM28.6444 68.636V66.8403H39.6566L38.9138 68.636H28.6432H28.6444ZM28.6444 65.2718V63.4974H41.0796L40.3167 65.2718H28.6444ZM28.6444 61.9077H41.7396C44.3998 55.551 47.5142 48.2651 48.1328 47.1513C49.2873 45.0868 46.607 45.3141 46.607 45.3141H32.6448C31.9646 45.3141 31.8818 45.9131 31.8818 45.9131L30.3347 48.3694L34.4805 48.4309L28.6444 60.4008V61.9077ZM11.3005 48.3694L12.8263 45.9131C12.8263 45.9131 12.9091 45.3141 13.5892 45.3141H27.5716C27.5716 45.3141 28.1488 45.2727 28.6444 45.4171V48.1006C27.5101 50.5355 24.9528 56.5418 22.6841 61.9077H8.8674L15.4464 48.4309L11.3005 48.3694ZM28.6444 60.402L27.9016 61.9089H28.6444V60.402ZM28.6444 63.4974V65.2718H26.2728L27.1387 63.4974H28.6444ZM28.6444 66.8415V68.6373H24.6228L25.5099 66.8415H28.6444ZM28.6444 70.2044V71.8758H23.0354L23.8598 70.2044H28.6444ZM22.0241 63.4974L21.2812 65.2718H7.21733L8.08314 63.4974H22.0241ZM20.6224 66.8415L19.8595 68.6373H5.58859L6.4544 66.8415H20.6224ZM19.2196 70.2044C18.7653 71.2568 18.5181 71.8758 18.5181 71.8758H4L4.80433 70.2044H19.2196Z" fill="#ED1846"/>
</g>
<defs>
<clipPath id="clip0_24_5697">
<rect width="92" height="45" fill="white" transform="translate(4 27)"/>
</clipPath>
</defs>
</svg>
