<svg xmlns="http://www.w3.org/2000/svg" viewBox="0 0 175 175"><path d="M44.38,152.16h0Z" style="fill:#5f9e43"/><path d="M42.42,149.74a2.47,2.47,0,0,1,2.47-2.47h2.25L36.35,27.73h-.82A2.47,2.47,0,0,1,34.59,23a2.41,2.41,0,0,0-.93-.19h0A2.47,2.47,0,0,0,31.19,25L20.32,139.79a2.47,2.47,0,0,0,1.46,2.49L43.89,152h0A2.46,2.46,0,0,1,42.42,149.74Zm-17-11.26,8.19-86.43,8.46,93.75Z" style="fill:#5f9e43"/><path d="M152.23,147.27H44.89a2.47,2.47,0,0,0-1,4.74,2.15,2.15,0,0,0,.45.14h0a2.84,2.84,0,0,0,.51.05H152.23a2.47,2.47,0,0,0,0-4.94Z" style="fill:#5f9e43"/><path d="M33.06,25.26a2.48,2.48,0,0,0,2.47,2.47H67.22c2.12,2.91,8.45,9.47,22.6,9.57h.31c13.44,0,17.6-6.12,18.87-9.57h30.26l10.51,108a2.46,2.46,0,0,0,2.45,2.23h.25a2.47,2.47,0,0,0,2.21-2.69L144,25a2.46,2.46,0,0,0-2.45-2.23H107.1A2.51,2.51,0,0,0,104.64,25c0,.3-1,7.33-14.51,7.33h-.27c-14.63-.1-18.93-7.9-19.1-8.21a2.47,2.47,0,0,0-2.2-1.36h-33a2.48,2.48,0,0,0-2.47,2.47Z" style="fill:#5f9e43"/><path d="M79.31,66.85s2.94-.11,11.26,0c2.8,0,5.15.05,7,.05,3.65,0,5.55-.05,5.62-.05,4.23,0,7.67-4.2,7.67-9.35,0-5.55-3.75-7.58-6.44-9-7.88-4.5-19-4.49-26.52,0l-.17.1c-3.2,1.94-6.22,3.77-6.22,8.9s3.37,9.35,7.76,9.35ZM76.48,57.5c0-2.26.73-2.79,3.84-4.68l.16-.09c6-3.65,15.1-3.64,21.57.05,3,1.64,3.9,2.46,3.9,4.72,0,2.6-1.44,4.41-2.79,4.41,0,0-4.38.11-12.52,0-2.87,0-5.11,0-6.81,0-3.33,0-4.61,0-4.62,0C77.92,61.91,76.48,60.1,76.48,57.5Z" style="fill:#5f9e43"/><path d="M95.51,126.59l-.17.14Z" style="fill:#5f9e43"/><path d="M94.08,94.35h0Z" style="fill:#5f9e43"/><path d="M95.08,126.86a1.4,1.4,0,0,1-.17.09A1.4,1.4,0,0,0,95.08,126.86Z" style="fill:#5f9e43"/><path d="M92.84,126.84l-.22-.11Z" style="fill:#5f9e43"/><path d="M75.74,110l16.5,16.39a1.66,1.66,0,0,0,.21.16,1.84,1.84,0,0,1-.22-.17,2.47,2.47,0,0,1,0-3.49L94,121.19,79.14,106.45l-.18-.16A9.19,9.19,0,0,1,84.72,90h0a9.16,9.16,0,0,1,7.19,3.46,2.44,2.44,0,0,0,1.94.92,2.44,2.44,0,0,1-1.33-.53,2.47,2.47,0,0,1-.39-3.47A13.93,13.93,0,0,1,94,88.49,14,14,0,0,0,84.75,85h0a14.13,14.13,0,0,0-9,25Z" style="fill:#5f9e43"/><path d="M94.61,127l-.16,0Z" style="fill:#5f9e43"/><path d="M93.31,127a1.29,1.29,0,0,1-.26-.08A1.29,1.29,0,0,0,93.31,127Z" style="fill:#5f9e43"/><path d="M94,127.13a2.42,2.42,0,0,1-.47,0A2.42,2.42,0,0,0,94,127.13Z" style="fill:#5f9e43"/><path d="M92.16,90.35a2.47,2.47,0,0,0,.39,3.47,2.44,2.44,0,0,0,1.33.53h.2A2.47,2.47,0,0,0,96,93.43,9.16,9.16,0,0,1,103.21,90h0A9.19,9.19,0,0,1,109,106.29l-.18.16L94,121.19l-1.74,1.73a2.47,2.47,0,0,0,0,3.49,1.84,1.84,0,0,0,.22.17,1.22,1.22,0,0,0,.17.15l.22.11.21.11a1.29,1.29,0,0,0,.26.08,1.52,1.52,0,0,0,.2.06,2.42,2.42,0,0,0,.47,0,2.49,2.49,0,0,0,.47,0l.16,0,.3-.09a1.4,1.4,0,0,0,.17-.09,2.1,2.1,0,0,0,.26-.13l.17-.14.21-.17L112.22,110a14.12,14.12,0,0,0-9-25h-.05a14.47,14.47,0,0,0-11,5.32Z" style="fill:#5f9e43"/></svg>