<svg xmlns="http://www.w3.org/2000/svg" viewBox="0 0 175 175"><path d="M157.94,19.52a2.46,2.46,0,0,0-2.46-2.46h-136a2.46,2.46,0,0,0-2.46,2.46v136a2.46,2.46,0,0,0,2.46,2.46h136a2.46,2.46,0,0,0,2.46-2.46V29.15a2.47,2.47,0,1,0-4.93,0V153H22V22H155.48A2.46,2.46,0,0,0,157.94,19.52Z" style="fill:#5f9e43"/><path d="M121.88,55.9a2.47,2.47,0,0,0-2.47-2.47,2.59,2.59,0,0,0-.48,0H55.59a2.47,2.47,0,0,0-2.46,2.47V79.1a2.47,2.47,0,0,0,2.46,2.47h63.82a2.48,2.48,0,0,0,2.47-2.47Zm-4.94,20.73H58.06V58.41h58.88Z" style="fill:#5f9e43"/><path d="M119.41,93.43H55.59a2.47,2.47,0,0,0-2.46,2.47v23.16a2.47,2.47,0,0,0,2.46,2.47h63.82a2.48,2.48,0,0,0,2.47-2.47V95.9A2.48,2.48,0,0,0,119.41,93.43Zm-2.47,23.16H58.06V98.37h58.88Z" style="fill:#5f9e43"/></svg>