<?xml version="1.0" encoding="utf-8"?>
<!-- Generator: Adobe Illustrator 28.2.0, SVG Export Plug-In . SVG Version: 6.00 Build 0)  -->
<svg version="1.1" id="Layer_1" xmlns="http://www.w3.org/2000/svg" xmlns:xlink="http://www.w3.org/1999/xlink" x="0px" y="0px"
	 viewBox="0 0 300 300" style="enable-background:new 0 0 300 300;" xml:space="preserve">
<style type="text/css">
	.st0{fill:#ED2985;}
</style>
<path class="st0" d="M6.03,171.87c0,26.97,22.16,48.83,48.35,48.83c26.19,0,48.34-21.86,48.34-48.83
	c0-26.97-22.15-48.83-48.34-48.83C28.19,123.04,6.03,144.9,6.03,171.87 M79.23,171.87c0,14.91-10.81,27-24.85,27
	c-14.04,0-24.86-12.09-24.86-27c0-14.91,10.82-27,24.86-27C68.41,144.87,79.23,156.96,79.23,171.87z"/>
<path class="st0" d="M130.84,92.33c-6.59,0-8.93,4.82-8.93,8.94v10.32l0.01,0.13c0.4,3.77,2.93,7.79,8.87,7.79h67.26
	c6.6,0,8.94-4.81,8.94-8.94v-9.31c0-4.12-2.33-8.94-8.94-8.94H130.84 M126.81,101.26c0-2.67,1.36-4.03,4.03-4.03h67.21
	c2.68,0,4.04,1.36,4.04,4.03v9.31c0,2.68-1.36,4.03-4.04,4.03h-67.26c-1.55,0-3.64-0.35-3.99-3.33
	C126.81,110.91,126.81,101.26,126.81,101.26z"/>
<path class="st0" d="M103.84,111.2v-8.39c0-2.4-1.05-6.48-6.48-6.48H68.72c-0.91,0-1.66-0.64-1.66-1.43v-8.34
	c0-2.41-1.06-6.48-6.48-6.48H48.28c-5.42,0-6.48,4.07-6.48,6.48v8.34c0,0.79-0.75,1.43-1.66,1.43H11.39c-5.42,0-6.48,4.08-6.48,6.48
	v8.39c0,2.41,1.06,6.49,6.48,6.49h85.97C102.78,117.69,103.84,113.61,103.84,111.2"/>
<path class="st0" d="M137.32,132.27c-7.46,0-15.41,4.05-15.41,15.41v41.8c0,17.99,14.47,29.61,36.88,29.61h39.26
	c6.6,0,8.94-4.82,8.94-8.94v-9.3c0-4.12-2.33-8.93-8.94-8.93h-34.37c-6.21,0-9.3-0.49-10.64-1.71c-1.21-1.09-1.66-3.45-1.66-8.69
	c0,0,0-20.2,0-22.06c1.53,0,46.67,0,46.67,0c6.6,0,8.94-4.81,8.94-8.93v-9.31c0-4.12-2.33-8.94-8.94-8.94H137.32 M126.81,189.48
	v-41.8c0-9.14,6.59-10.51,10.51-10.51h60.73c2.68,0,4.04,1.36,4.04,4.03v9.31c0,2.67-1.36,4.03-4.04,4.03h-47.46
	c-1.13,0-2.22,0.44-2.99,1.22c-0.72,0.72-1.12,1.67-1.12,2.66v23.08c0,12.6,3.06,15.31,17.21,15.31l34.37,0.01
	c2.68,0,4.04,1.35,4.04,4.03v9.3c0,2.68-1.36,4.04-4.04,4.04h-39.26C139.06,214.18,126.81,204.71,126.81,189.48z"/>
<path class="st0" d="M296.04,211.55V100.42c0-2.4-1.06-6.48-6.48-6.48h-12.29c-5.43,0-6.48,4.08-6.48,6.48v32.49
	c0,0.79-0.75,1.43-1.66,1.43h-15.39c-0.92,0-1.67-0.65-1.67-1.43v-32.49c0-2.4-1.06-6.48-6.48-6.48h-12.29
	c-5.42,0-6.48,4.08-6.48,6.48v111.12c0,2.41,1.06,6.49,6.48,6.49h12.29c5.42,0,6.48-4.08,6.48-6.49v-54.42
	c0-0.79,0.75-1.43,1.67-1.43h15.39c0.91,0,1.66,0.65,1.66,1.43v54.42c0,2.41,1.06,6.49,6.48,6.49h12.29
	C294.98,218.04,296.04,213.96,296.04,211.55"/>
</svg>
