<svg width="91" height="45" viewBox="0 0 91 45" fill="none" xmlns="http://www.w3.org/2000/svg">
<g clip-path="url(#clip0_3_266)">
<path d="M76.7479 14.532C77.3455 14.427 78.0264 14.211 78.7059 14.214C79.5795 14.217 80.0482 14.763 80.1149 15.636C80.1786 16.4775 80.033 17.2785 79.6781 18.057C78.536 20.562 77.4152 23.076 76.2899 25.5885C76.0578 26.106 75.803 26.6205 75.6347 27.159C75.4921 27.615 75.3981 28.137 75.9077 28.4625C76.4066 28.7805 76.8905 28.575 77.212 28.1925C77.8005 27.492 78.4526 26.793 78.8318 25.9815C80.2393 22.974 81.5466 19.92 82.8919 16.8825C83.2028 16.1805 83.3333 15.474 82.9025 14.7405C83.5608 14.2605 84.2827 14.1225 85.0456 14.1945C85.8403 14.2695 86.3347 14.751 86.4363 15.5325C86.5471 16.3785 86.3423 17.1675 85.992 17.9445C84.7529 20.694 83.5365 23.454 82.3216 26.2155C82.1472 26.613 82.0198 27.0315 81.8773 27.441C81.7271 27.8715 81.8454 28.2855 82.2352 28.4505C82.5052 28.5645 82.9859 28.5465 83.1983 28.3755C83.8004 27.8865 84.313 27.2895 84.7529 26.8455C84.2948 29.001 82.0365 30.438 79.7827 29.8545C78.7317 29.5815 78.574 29.4165 78.1554 28.0125C77.8005 28.344 77.4865 28.6065 77.2105 28.902C76.4673 29.694 75.4966 29.973 74.4699 30.0225C72.9911 30.093 72.389 29.6265 71.802 28.032C69.9001 30.0225 67.8253 30.888 65.4563 29.028C64.7131 29.3295 64.0033 29.6625 63.2632 29.9085C61.6191 30.4545 60.1631 29.1885 59.9235 27.7125C59.5004 25.1055 62.3138 20.5275 66.0584 20.733C66.888 20.778 67.7116 20.9265 68.5367 21.039C68.9704 21.0975 69.3981 21.198 69.8319 21.249C70.8253 21.3675 71.1575 21.7125 71.0665 22.7145C71.024 23.181 70.8769 23.655 70.6918 24.09C70.2657 25.095 69.7818 26.076 69.3314 27.072C69.1084 27.564 68.9037 28.0755 69.5149 28.452C70.0715 28.7955 70.5705 28.572 70.9269 28.146C71.5139 27.447 72.1736 26.757 72.5543 25.95C73.9345 23.025 75.2145 20.0535 76.5189 17.094C76.6751 16.7385 76.7949 16.35 76.8343 15.966C76.8753 15.576 76.7934 15.174 76.7479 14.532ZM63.1768 27.1575C63.1434 27.81 63.4922 28.4115 63.973 28.5675C64.5236 28.7475 65.1894 28.4385 65.5109 27.843C65.5716 27.7305 65.5822 27.5925 65.6338 27.474C66.0493 26.517 66.4664 25.5615 66.8865 24.606C67.202 23.889 67.5569 23.187 67.8208 22.452C67.9224 22.17 67.8193 21.8145 67.8102 21.4935C67.478 21.5085 67.1444 21.5085 66.8137 21.5445C66.6924 21.558 66.5695 21.645 66.4649 21.7215C64.6085 23.0985 63.6378 24.9975 63.1768 27.1575Z" fill="white"/>
<path d="M52.7801 22.5105C52.0415 24.09 51.3104 25.6725 50.5582 27.2445C50.2533 27.8805 49.95 28.5075 50.0577 29.241C50.1123 29.6115 49.9212 29.7495 49.5814 29.886C48.7594 30.216 48.0056 29.913 47.2715 29.6685C47.0243 29.586 46.7604 29.136 46.7544 28.8495C46.7437 28.3005 46.8226 27.7125 47.0258 27.204C47.4626 26.112 48.0147 25.065 48.4894 23.988C48.6623 23.595 48.8565 23.163 48.8443 22.7535C48.8352 22.4205 48.6093 21.981 48.3363 21.8025C48.1315 21.669 47.6234 21.7725 47.3868 21.9495C46.9758 22.2555 46.5587 22.6485 46.3373 23.097C45.4895 24.816 44.6932 26.562 43.9394 28.3245C43.7696 28.722 43.8499 29.226 43.812 29.724C43.0855 30.216 42.265 30.015 41.4536 29.7975C40.6452 29.5815 40.2646 29.034 40.5163 28.23C40.853 27.1545 41.3126 26.115 41.7357 25.065C42.0284 24.3375 42.3621 23.625 42.6472 22.896C42.8732 22.317 42.8823 21.738 42.4213 21.237C44.6113 20.187 45.4834 20.4645 46.2857 22.506C46.5997 22.236 46.8878 21.9765 47.1881 21.732C48.1497 20.946 49.2417 20.5725 50.499 20.7045C51.2998 20.7885 51.9186 21.084 52.2386 21.8835C52.3402 22.1385 52.6193 22.3245 52.8165 22.542C52.815 22.5435 52.7801 22.5105 52.7801 22.5105Z" fill="white"/>
<path d="M52.8149 22.5435C53.6506 21.0705 55.8467 20.235 57.3695 20.811C58.3523 21.1815 58.8194 22.2705 58.3887 23.4375C57.9807 24.54 57.4605 25.6005 56.9903 26.6805C56.8856 26.9205 56.7658 27.1545 56.6748 27.399C56.3745 28.2165 56.8583 28.8075 57.7092 28.59C58.1612 28.4745 58.5616 28.1655 59.0909 27.8895C58.965 28.4145 58.6116 28.716 58.2825 29.016C57.104 30.0915 55.7057 30.279 54.2178 29.8935C53.276 29.649 53.0348 29.331 53.094 28.3935C53.1334 27.7545 53.2911 27.1035 53.508 26.4975C53.7871 25.7205 54.1784 24.9825 54.5242 24.2295C54.6334 23.991 54.7653 23.763 54.8548 23.5185C55.1339 22.761 55.0474 22.0995 54.6228 21.8385C54.0328 21.4755 53.6385 21.9405 53.2017 22.2C53.0515 22.2885 52.9196 22.407 52.78 22.512C52.78 22.5105 52.8149 22.5435 52.8149 22.5435Z" fill="white"/>
<path d="M3.83423 24.687C3.83423 27.915 6.51569 30.5325 9.68704 30.5325C12.8584 30.5325 15.5383 27.915 15.5383 24.687C15.5383 21.459 12.8569 18.8415 9.68704 18.8415C6.51721 18.8415 3.83423 21.459 3.83423 24.687ZM12.6946 24.687C12.6946 26.472 11.3857 27.9195 9.68704 27.9195C7.98838 27.9195 6.67798 26.472 6.67798 24.687C6.67798 22.902 7.98686 21.4545 9.68704 21.4545C11.3842 21.456 12.6946 22.902 12.6946 24.687Z" fill="white"/>
<path d="M18.94 15.1665C18.1423 15.1665 17.8586 15.744 17.8586 16.236V17.472L17.8602 17.487C17.9087 17.9385 18.2151 18.42 18.934 18.42H27.0754C27.8747 18.42 28.1568 17.844 28.1568 17.3505V16.236C28.1568 15.7425 27.8747 15.1665 27.0754 15.1665H18.94ZM18.4532 16.2345C18.4532 15.915 18.6185 15.7515 18.9415 15.7515H27.0769C27.4015 15.7515 27.5653 15.915 27.5653 16.2345V17.349C27.5653 17.67 27.4 17.832 27.0769 17.832H18.9355C18.7474 17.832 18.4956 17.79 18.4532 17.433C18.4532 17.3895 18.4532 16.2345 18.4532 16.2345Z" fill="white"/>
<path d="M15.6733 17.4255V16.4205C15.6733 16.1325 15.5459 15.645 14.8892 15.645H11.4221C11.3114 15.645 11.2219 15.5685 11.2219 15.474V14.475C11.2219 14.187 11.093 13.6995 10.4378 13.6995H8.9484C8.29169 13.6995 8.16429 14.187 8.16429 14.475V15.474C8.16429 15.5685 8.07329 15.645 7.96409 15.645H4.48334C3.82662 15.645 3.69922 16.134 3.69922 16.4205V17.4255C3.69922 17.7135 3.82814 18.2025 4.48334 18.2025H14.8892C15.5444 18.201 15.6733 17.7135 15.6733 17.4255Z" fill="white"/>
<path d="M19.7259 19.947C18.8234 19.947 17.8604 20.4315 17.8604 21.792V26.796C17.8604 28.95 19.6121 30.3405 22.3239 30.3405H27.0756C27.8749 30.3405 28.157 29.763 28.157 29.271V28.158C28.157 27.6645 27.8749 27.0885 27.0756 27.0885H22.9154C22.1631 27.0885 21.79 27.03 21.6278 26.8845C21.4806 26.754 21.4276 26.472 21.4276 25.845C21.4276 25.845 21.4276 23.427 21.4276 23.205C21.6126 23.205 27.0756 23.205 27.0756 23.205C27.8749 23.205 28.157 22.629 28.157 22.1355V21.021C28.157 20.5275 27.8749 19.9515 27.0756 19.9515L19.7259 19.947ZM18.4534 26.796V21.792C18.4534 20.6985 19.2511 20.5335 19.7259 20.5335H27.0756C27.4002 20.5335 27.564 20.697 27.564 21.0165V22.131C27.564 22.4505 27.3987 22.614 27.0756 22.614H21.332C21.1955 22.614 21.0636 22.6665 20.9695 22.7595C20.8831 22.845 20.8345 22.959 20.8345 23.0775V25.8405C20.8345 27.3495 21.2046 27.6735 22.9169 27.6735L27.0771 27.675C27.4017 27.675 27.5655 27.837 27.5655 28.158V29.271C27.5655 29.592 27.4002 29.754 27.0771 29.754H22.3254C19.9352 29.7525 18.4534 28.6185 18.4534 26.796Z" fill="white"/>
<path d="M38.9359 29.4375V16.134C38.9359 15.846 38.807 15.3585 38.1518 15.3585H36.6639C36.0072 15.3585 35.8798 15.8475 35.8798 16.134V20.0235C35.8798 20.118 35.7888 20.1945 35.6796 20.1945H33.8171C33.7064 20.1945 33.6154 20.1165 33.6154 20.0235V16.134C33.6154 15.846 33.4865 15.3585 32.8313 15.3585H31.3434C30.6867 15.3585 30.5593 15.8475 30.5593 16.134V29.436C30.5593 29.724 30.6882 30.213 31.3434 30.213H32.8313C33.488 30.213 33.6154 29.724 33.6154 29.436V22.9215C33.6154 22.827 33.7064 22.7505 33.8171 22.7505H35.6796C35.7903 22.7505 35.8798 22.8285 35.8798 22.9215V29.436C35.8798 29.724 36.0087 30.213 36.6639 30.213H38.1518C38.807 30.2145 38.9359 29.7255 38.9359 29.4375Z" fill="white"/>
</g>
<defs>
<clipPath id="clip0_3_266">
<rect width="91" height="45" fill="white"/>
</clipPath>
</defs>
</svg>
