<svg width="114" height="114" viewBox="0 0 114 114" fill="none" xmlns="http://www.w3.org/2000/svg">
<g clip-path="url(#clip0_206_8)">
<path d="M28.7048 76.6983C32.2386 78.612 36.2773 80.1852 40.8678 81.3005C40.8678 81.3005 64.3487 86.5602 80.2217 74.2563C80.2217 74.2563 94.0167 83.2142 103.949 77.6023C103.949 77.6023 108.915 74.4206 111.98 77.4849C111.98 77.4849 104.149 62.3985 90.5063 64.817C90.5063 64.817 93.3358 51.6325 83.1333 42.698C83.1333 42.698 83.1333 48.216 81.3488 50.2589C81.3488 50.2589 73.0483 58.5593 76.5705 69.4779C76.5705 69.4779 71.3107 72.9296 64.83 69.5953C61.6366 67.9517 59.3238 65.0048 58.3258 61.5414C56.3887 54.8611 49.8962 39.3285 29.3857 26.9894C29.3857 26.9894 17.3987 21.1309 12.4326 15.3898C12.4326 15.3898 6.18665 7.35938 4.2847 18.7006C4.2847 18.7006 -0.364505 51.1746 19.5238 70.0062" stroke="#4863EA" stroke-width="2" stroke-linecap="round" stroke-linejoin="round"/>
<path d="M6.57324 13.2412C6.57324 13.2412 8.95655 23.6315 12.3495 27.3767C12.3495 27.3767 18.0554 32.2372 21.0727 37.673C22.1528 39.6454 22.6107 41.9113 22.4111 44.1537C22.141 47.0301 22.2232 52.0903 25.4401 55.0723C25.4401 55.0723 15.9186 63.2319 21.0257 78.0131C21.0257 78.0131 22.822 88.5208 25.4401 82.4275C25.4401 82.4275 32.9187 70.0179 33.5879 65.944C33.5879 65.944 38.3311 76.4164 48.4983 82.2631" stroke="#4863EA" stroke-width="2" stroke-linecap="round" stroke-linejoin="round"/>
<path d="M12.3491 27.3767C12.3491 27.3767 6.71372 47.6641 20.8844 62.0227" stroke="#4863EA" stroke-width="2" stroke-linecap="round" stroke-linejoin="round"/>
<path d="M8.4873 19.7573C8.4873 19.7573 0.914734 45.7858 19.946 65.3336" stroke="#4863EA" stroke-width="2" stroke-linecap="round" stroke-linejoin="round"/>
<path d="M25.7929 47.3471C26.6942 48.2483 28.1554 48.2483 29.0567 47.3471C29.958 46.4458 29.958 44.9845 29.0567 44.0832C28.1554 43.1819 26.6942 43.1819 25.7929 44.0832C24.8916 44.9845 24.8916 46.4458 25.7929 47.3471Z" fill="#4863EA"/>
<path d="M30.2311 73.9043C30.2311 73.9043 35.5495 76.4519 40.4687 75.8062" stroke="#4863EA" stroke-width="2" stroke-linecap="round" stroke-linejoin="round"/>
<path d="M31.2637 71.8613C31.2637 71.8613 34.5275 74.8668 39.7637 75.0547" stroke="#4863EA" stroke-width="2" stroke-linecap="round" stroke-linejoin="round"/>
</g>
<defs>
<clipPath id="clip0_206_8">
<rect width="114" height="114" fill="white"/>
</clipPath>
</defs>
</svg>
