<svg id="event_black_24dp" xmlns="http://www.w3.org/2000/svg" width="24.516" height="24.516" viewBox="0 0 24.516 24.516">
  <path id="패스_13" data-name="패스 13" d="M0,0H24.516V24.516H0Z" fill="none"/>
  <path id="패스_14" data-name="패스 14" d="M19.344,4.043H18.323V2H16.28V4.043H8.108V2H6.065V4.043H5.043A2.034,2.034,0,0,0,3.01,6.086L3,20.387A2.042,2.042,0,0,0,5.043,22.43h14.3a2.049,2.049,0,0,0,2.043-2.043V6.086A2.049,2.049,0,0,0,19.344,4.043Zm0,16.344H5.043V10.172h14.3Zm0-12.258H5.043V6.086h14.3Zm-7.151,5.108H17.3v5.108H12.194Z" transform="translate(0.065 0.043)" fill="#fff"/>
</svg>
