<svg xmlns="http://www.w3.org/2000/svg" width="62.018" height="62.017" viewBox="0 0 62.018 62.017">
  <g id="그룹_110" data-name="그룹 110" transform="translate(-91.608 -59.697)">
    <path id="패스_77" data-name="패스 77" d="M153.626,90.706A31.009,31.009,0,1,1,122.617,59.7,31.009,31.009,0,0,1,153.626,90.706Z" fill="#1e488a"/>
    <g id="그룹_109" data-name="그룹 109">
      <g id="그룹_108" data-name="그룹 108">
        <path id="패스_78" data-name="패스 78" d="M129.425,73.441v5.444h-2.962a1.816,1.816,0,0,0-1.722.72,3.364,3.364,0,0,0-.279,1.641v2.482h5.043l-.6,5.484h-4.443v15.81h-6.525V89.212h-3.2V83.728h3.2V80.446c0-3.362,1.162-5.524,3.442-6.444a8,8,0,0,1,3.083-.561Z" fill="#f5f6f6"/>
      </g>
    </g>
  </g>
</svg>
