<svg id="그룹_145" data-name="그룹 145" xmlns="http://www.w3.org/2000/svg" width="36.856" height="36.856" viewBox="0 0 36.856 36.856">
  <path id="패스_122" data-name="패스 122" d="M448.37,167.182a3.465,3.465,0,1,0,3.464,3.465A3.468,3.468,0,0,0,448.37,167.182Z" transform="translate(-429.941 -152.308)" fill="#919191"/>
  <path id="패스_123" data-name="패스 123" d="M438.154,142.154a18.428,18.428,0,1,0,18.428,18.428A18.428,18.428,0,0,0,438.154,142.154Zm10.328,22.7a5.851,5.851,0,0,1-5.845,5.844h-8.964a5.852,5.852,0,0,1-5.845-5.844v-8.713a5.852,5.852,0,0,1,5.845-5.845h8.964a5.851,5.851,0,0,1,5.845,5.845Z" transform="translate(-419.726 -142.154)" fill="#919191"/>
  <path id="패스_124" data-name="패스 124" d="M449.456,159.025h-8.964a3.961,3.961,0,0,0-3.956,3.956v8.713a3.96,3.96,0,0,0,3.956,3.954h8.964a3.96,3.96,0,0,0,3.956-3.954v-8.713A3.96,3.96,0,0,0,449.456,159.025Zm-4.482,13.666a5.354,5.354,0,1,1,5.353-5.354A5.359,5.359,0,0,1,444.975,172.691Zm5.542-9.553a1.259,1.259,0,1,1,1.26-1.259A1.259,1.259,0,0,1,450.517,163.139Z" transform="translate(-426.546 -148.999)" fill="#919191"/>
</svg>
