<svg id="그룹_141" data-name="그룹 141" xmlns="http://www.w3.org/2000/svg" width="36.957" height="36.957" viewBox="0 0 36.957 36.957">
  <path id="패스_110" data-name="패스 110" d="M110.086,143.627a18.478,18.478,0,1,0,18.478,18.478A18.478,18.478,0,0,0,110.086,143.627Zm3.747,17.589h-2.648v9.421H107.3v-9.421h-1.909v-3.269H107.3v-1.955c0-2,.692-3.292,2.051-3.841a4.765,4.765,0,0,1,1.837-.334h2.957v3.245h-1.765a1.082,1.082,0,0,0-1.026.429,2,2,0,0,0-.166.978v1.478h3.005Z" transform="translate(-91.608 -143.627)" fill="#919191"/>
</svg>
