<svg id="그룹_146" data-name="그룹 146" xmlns="http://www.w3.org/2000/svg" width="37.084" height="37.084" viewBox="0 0 37.084 37.084">
  <path id="패스_125" data-name="패스 125" d="M532.933,170.082H532.9v-.168l-1.764-3.872a.742.742,0,0,0-.729-.609h-.025a.742.742,0,0,0-.73.609l-1.8,3.948c-.01.02-.02.042-.029.063v0a.741.741,0,1,0,1.41.448l.24-.523h1.841l.24.523a.738.738,0,0,0,.169.318l.005.005a.748.748,0,0,0,.084.08l0,0a.649.649,0,0,0,.1.064l0,0a.757.757,0,0,0,.1.047l.018.006a.781.781,0,0,0,.105.028l.019,0a.74.74,0,0,0,.115.01h0a.741.741,0,0,0,.652-.388.814.814,0,0,0,.032-.082.723.723,0,0,1-.059-.286A.754.754,0,0,1,532.933,170.082Zm-2.865-1.4.322-.7.322.7Z" transform="translate(-513.958 -150.107)" fill="#919191"/>
  <path id="패스_126" data-name="패스 126" d="M526.771,166.109a.677.677,0,0,0-.677-.677h-3.307v0a.677.677,0,0,0,0,1.35v0h.994v3.507h0c0,.011,0,.022,0,.033a.742.742,0,1,0,1.484,0c0-.011,0-.023,0-.033h0v-3.507h.83A.678.678,0,0,0,526.771,166.109Z" transform="translate(-511.703 -150.107)" fill="#919191"/>
  <path id="패스_127" data-name="패스 127" d="M543.816,165.532a.741.741,0,0,0-.556.252l-1.424,1.424v-.933a.742.742,0,1,0-1.484,0v3.909a.3.3,0,0,1,.066.177.281.281,0,0,1-.019.094.33.33,0,0,1-.048-.163v-.108a.632.632,0,0,0-.568-.358h-1.958v-3.469h-.005a.693.693,0,0,0,.005-.087.742.742,0,1,0-1.484,0c0,.029,0,.059.005.087h-.005v3.6l.034.075a.659.659,0,0,1,.029.063l0,0h0a.662.662,0,0,1,.022.064h0l.016.065,0,.016c0,.019.005.036.007.054s0,.048,0,.072a.724.724,0,0,1-.058.272.743.743,0,0,0,.614.452v.018h2.769v-.014a.633.633,0,0,0,.615-.488.74.74,0,0,0,1.436-.254v-1.045l.272-.272,1.29,1.746h0a.742.742,0,1,0,1.168-.914l-1.4-1.894,1.154-1.155c.013-.013.025-.023.036-.036l.012-.011h0a.742.742,0,0,0-.552-1.235Z" transform="translate(-517.406 -150.145)" fill="#919191"/>
  <path id="패스_128" data-name="패스 128" d="M523.215,139.8a18.542,18.542,0,1,0,18.542,18.542A18.542,18.542,0,0,0,523.215,139.8Zm.349,26.121a13.411,13.411,0,0,1-1.9-.139,24.679,24.679,0,0,1-2.853,1.555,14.2,14.2,0,0,1-3.115,1.149.3.3,0,0,1-.183.071.3.3,0,0,1-.215-.089.307.307,0,0,1-.076-.316l2.115-2.769s.472-.792-.068-1.11a7.911,7.911,0,0,1-4.242-6.671c0-4.6,4.717-8.321,10.535-8.321S534.1,153.007,534.1,157.6,529.38,165.924,523.565,165.924Z" transform="translate(-504.673 -139.803)" fill="#919191"/>
  <path id="패스_129" data-name="패스 129" d="M536.457,173.268c0-.018,0-.035-.007-.054l0-.016-.016-.065h0a.661.661,0,0,0-.022-.064h0l0,0a.659.659,0,0,0-.029-.063l-.034-.075v.168h.036a.752.752,0,0,0-.036.231.147.147,0,1,0,.117.014C536.461,173.316,536.459,173.292,536.457,173.268Z" transform="translate(-517.406 -153.12)" fill="#919191"/>
  <path id="패스_130" data-name="패스 130" d="M543.1,173.585a.283.283,0,0,0,.019-.094.3.3,0,0,0-.066-.177v.108A.329.329,0,0,0,543.1,173.585Z" transform="translate(-520.101 -153.276)" fill="#919191"/>
</svg>
