<?xml version="1.0" encoding="utf-8"?>
<!-- Generator: Adobe Illustrator 25.2.0, SVG Export Plug-In . SVG Version: 6.00 Build 0)  -->
<svg version="1.1" id="Layer_1" xmlns="http://www.w3.org/2000/svg" xmlns:xlink="http://www.w3.org/1999/xlink" x="0px" y="0px"
	 viewBox="0 0 36 36" style="enable-background:new 0 0 36 36;" xml:space="preserve">
<style type="text/css">
	.st0{fill:#919191;}
</style>
<g>
	<path class="st0" d="M18,0C8.06,0,0,8.06,0,18s8.06,18,18,18s18-8.06,18-18S27.94,0,18,0z M27.69,21.8c0,1.6-1.29,2.89-2.89,2.89
		c0,0-3.82,0.25-6.59,0.25c-2.77,0-6.47-0.25-6.47-0.25c-1.59,0-2.89-1.29-2.89-2.89c0,0-0.13-1.54-0.13-3.48
		c0-1.94,0.13-3.55,0.13-3.55c0-1.59,1.29-2.89,2.89-2.89c0,0,2.89-0.25,6.66-0.25c3.77,0,6.4,0.25,6.4,0.25
		c1.59,0,2.89,1.29,2.89,2.89c0,0,0.13,1.62,0.13,3.55C27.82,20.26,27.69,21.8,27.69,21.8z"/>
	<polygon class="st0" points="16.71,21.17 21.48,18.22 16.71,15.4 	"/>
</g>
</svg>
