<?xml version="1.0" encoding="utf-8"?>
<!-- Generator: Adobe Illustrator 25.2.0, SVG Export Plug-In . SVG Version: 6.00 Build 0)  -->
<svg version="1.1" id="Layer_1" xmlns="http://www.w3.org/2000/svg" xmlns:xlink="http://www.w3.org/1999/xlink" x="0px" y="0px"
	 viewBox="0 0 36 36" style="enable-background:new 0 0 36 36;" xml:space="preserve">
<style type="text/css">
	.st0{fill:#919191;}
</style>
<g>
	<path class="st0" d="M19.06,15.8c-1.13,0-2.05,0.92-2.05,2.05c0,1.13,0.92,2.05,2.05,2.05c1.13,0,2.05-0.92,2.05-2.05
		C21.11,16.71,20.19,15.8,19.06,15.8z M19.06,18.68c-0.46,0-0.84-0.38-0.84-0.84c0-0.46,0.38-0.84,0.84-0.84s0.84,0.38,0.84,0.84
		C19.9,18.31,19.53,18.68,19.06,18.68z"/>
	<path class="st0" d="M12.09,15.86c-0.36,0-0.69,0.1-0.98,0.27v-1.77H9.79v5.35h1.32v-0.24c0.29,0.17,0.62,0.27,0.98,0.27
		c1.07,0,1.94-0.87,1.94-1.94C14.02,16.72,13.16,15.86,12.09,15.86z M11.95,18.58c-0.44,0-0.79-0.35-0.79-0.79
		c0-0.44,0.35-0.79,0.79-0.79c0.43,0,0.79,0.35,0.79,0.79C12.73,18.23,12.38,18.58,11.95,18.58z"/>
	<path class="st0" d="M14.44,14.36v1.03c0,0,0.49,0,0.49,0.77v3.56h1.26v-3.56v-0.01c0-0.04,0-0.25-0.07-0.51
		C15.99,15.11,15.6,14.34,14.44,14.36z"/>
	<path class="st0" d="M25.85,16.04h-1.22v0.17c-0.28-0.17-0.61-0.26-0.96-0.26c-1.04,0-1.89,0.85-1.89,1.89
		c0,1.05,0.85,1.89,1.89,1.89c0.35,0,0.68-0.1,0.96-0.26v0.55c0,0.65-1.15,0.52-1.15,0.52v1.03c2.64,0,2.37-1.55,2.37-1.55V16.04z
		 M23.67,18.62c-0.43,0-0.78-0.35-0.78-0.78c0-0.43,0.35-0.78,0.78-0.78c0.43,0,0.78,0.35,0.78,0.78
		C24.45,18.27,24.1,18.62,23.67,18.62z"/>
	<path class="st0" d="M18,0C8.1,0,0.07,8.03,0.07,17.93c0,9.9,8.03,17.93,17.93,17.93s17.93-8.03,17.93-17.93
		C35.93,8.03,27.9,0,18,0z M27.92,20.73c0,1.94-1.57,3.51-3.51,3.51h-4.73l-1.85,3.22l-1.63-3.22h-4.95c-1.94,0-3.51-1.57-3.51-3.51
		v-6.82c0-1.94,1.57-3.51,3.51-3.51h13.17c1.94,0,3.51,1.57,3.51,3.51V20.73z"/>
</g>
</svg>
