<?xml version="1.0" encoding="utf-8"?>
<!-- Generator: Adobe Illustrator 25.2.0, SVG Export Plug-In . SVG Version: 6.00 Build 0)  -->
<svg version="1.1" id="Layer_1" xmlns="http://www.w3.org/2000/svg" xmlns:xlink="http://www.w3.org/1999/xlink" x="0px" y="0px"
	 viewBox="0 0 62 62" style="enable-background:new 0 0 62 62;" xml:space="preserve">
<style type="text/css">
	.st0{fill:#FCEE2D;}
	.st1{fill:#3D1E1E;}
</style>
<path class="st0" d="M61.91,31c0,17.07-13.84,30.91-30.91,30.91S0.09,48.07,0.09,31c0-17.07,13.84-30.9,30.91-30.9
	S61.91,13.93,61.91,31z"/>
<g>
	<polygon class="st1" points="26.95,31.05 28.02,31.05 27.48,29.88 	"/>
	<path class="st1" d="M31.58,15.9c-9.7,0-17.56,6.21-17.56,13.87c0,4.55,2.78,8.59,7.07,11.12c0.9,0.53,0.11,1.85,0.11,1.85
		l-3.53,4.61c-0.06,0.19-0.01,0.39,0.13,0.53c0.1,0.1,0.22,0.15,0.36,0.15c0.11,0,0.21-0.04,0.31-0.12c0,0,2.16-0.43,5.19-1.92
		c2.47-1.11,4.76-2.59,4.76-2.59c1.03,0.15,2.09,0.23,3.16,0.23c9.69,0,17.56-6.21,17.56-13.87C49.14,22.1,41.28,15.9,31.58,15.9z
		 M22.7,33.74L22.7,33.74c0,0.02,0,0.04,0,0.06c0,0.68-0.55,1.24-1.24,1.24c-0.68,0-1.24-0.55-1.24-1.24c0-0.02,0-0.04,0-0.06h0
		V27.9h-1.66v0c-0.58-0.04-1.05-0.53-1.05-1.13c0-0.6,0.46-1.08,1.05-1.13v0h5.51c0.62,0,1.13,0.51,1.13,1.13
		c0,0.62-0.51,1.13-1.13,1.13H22.7V33.74z M44.4,34.98c-0.4,0-0.76-0.19-0.99-0.49l0,0l-2.15-2.91l-0.45,0.45v1.74
		c0,0.68-0.55,1.24-1.24,1.24c-0.53,0-0.98-0.34-1.16-0.81c-0.11,0.47-0.53,0.81-1.03,0.81v0.02h-4.61V35
		c-0.46-0.04-0.85-0.34-1.02-0.75c-0.02,0.04-0.03,0.09-0.05,0.14c-0.21,0.39-0.62,0.65-1.09,0.65h0c-0.06,0-0.13-0.01-0.19-0.02
		c-0.01,0-0.02,0-0.03-0.01c-0.06-0.01-0.12-0.03-0.18-0.05c-0.01,0-0.02-0.01-0.03-0.01c-0.06-0.02-0.11-0.05-0.17-0.08
		c0,0,0,0-0.01,0c-0.06-0.03-0.11-0.07-0.16-0.11c0,0,0,0-0.01,0c-0.05-0.04-0.1-0.09-0.14-0.13c0,0-0.01-0.01-0.01-0.01
		c-0.13-0.15-0.23-0.33-0.28-0.53l-0.4-0.87h-3.07l-0.4,0.87c-0.13,0.54-0.62,0.94-1.2,0.94c-0.68,0-1.24-0.55-1.24-1.24
		c0-0.16,0.03-0.31,0.09-0.45l0-0.01c0.01-0.04,0.03-0.07,0.05-0.11l3-6.58c0.1-0.58,0.61-1.02,1.22-1.02c0.01,0,0.01,0,0.02,0
		c0.01,0,0.01,0,0.02,0c0.61,0,1.11,0.44,1.22,1.02l2.94,6.45v-5.99h0.01c0-0.05-0.01-0.1-0.01-0.15c0-0.68,0.55-1.24,1.24-1.24
		c0.68,0,1.24,0.55,1.24,1.24c0,0.05,0,0.1-0.01,0.15h0.01v5.78h3.26c0.42,0,0.77,0.24,0.95,0.6v-6.52c0-0.68,0.55-1.24,1.24-1.24
		c0.68,0,1.24,0.55,1.24,1.24v1.56l2.37-2.37c0.23-0.26,0.56-0.42,0.93-0.42c0.68,0,1.24,0.55,1.24,1.24c0,0.32-0.12,0.6-0.31,0.82
		l0,0l-0.02,0.02c-0.02,0.02-0.04,0.04-0.06,0.06l-1.92,1.93l2.33,3.16l0,0c0.17,0.21,0.27,0.48,0.27,0.78
		C45.64,34.42,45.09,34.98,44.4,34.98z"/>
	<path class="st0" d="M31.85,33.68c0-0.03-0.01-0.06-0.01-0.09c0-0.01,0-0.02,0-0.03c-0.01-0.04-0.02-0.07-0.03-0.11h0
		c-0.01-0.04-0.02-0.07-0.04-0.11v0l0-0.01l0,0c-0.01-0.04-0.03-0.07-0.05-0.11l-0.06-0.13v0.28h0.06
		c-0.04,0.12-0.06,0.25-0.06,0.38c0,0.17,0.03,0.33,0.1,0.48c0.06-0.14,0.1-0.29,0.1-0.45C31.85,33.76,31.85,33.72,31.85,33.68z"/>
	<path class="st0" d="M38.34,33.5v0.28c0,0.15,0.03,0.29,0.08,0.42c0.02-0.08,0.03-0.16,0.03-0.24
		C38.45,33.79,38.41,33.63,38.34,33.5z"/>
</g>
</svg>
