<?xml version="1.0" encoding="utf-8"?>
<!-- Generator: Adobe Illustrator 25.2.0, SVG Export Plug-In . SVG Version: 6.00 Build 0)  -->
<svg version="1.1" id="Layer_1" xmlns="http://www.w3.org/2000/svg" xmlns:xlink="http://www.w3.org/1999/xlink" x="0px" y="0px"
	 viewBox="0 0 62 62" style="enable-background:new 0 0 62 62;" xml:space="preserve">
<style type="text/css">
	.st0{fill:#42B649;}
	.st1{fill:#FFFFFF;}
</style>
<g>
	<path class="st0" d="M62,31c0,17.12-13.88,31-31,31S0,48.12,0,31C0,13.88,13.88,0,31,0S62,13.88,62,31z"/>
	<g>
		<path class="st1" d="M32.83,29.39c-0.8,0-1.46,0.65-1.46,1.45c0,0.8,0.65,1.45,1.46,1.45s1.45-0.65,1.45-1.45
			C34.29,30.05,33.64,29.39,32.83,29.39z"/>
		<path class="st1" d="M40.8,29.5c-0.74,0-1.35,0.6-1.35,1.35c0,0.74,0.6,1.35,1.35,1.35c0.74,0,1.35-0.6,1.35-1.35
			C42.15,30.11,41.54,29.5,40.8,29.5z"/>
		<path class="st1" d="M42.08,17.98H19.31c-3.36,0-6.07,2.72-6.07,6.08v11.79c0,3.35,2.72,6.08,6.07,6.08h8.56l2.82,5.57l3.2-5.57
			h8.18c3.36,0,6.08-2.72,6.08-6.08V24.05C48.15,20.7,45.43,17.98,42.08,17.98z M20.78,34.11c-0.62,0-1.2-0.17-1.7-0.46v0.42H16.8
			v-9.24h2.28v3.05c0.5-0.29,1.08-0.46,1.7-0.46c1.85,0,3.35,1.5,3.35,3.35S22.63,34.11,20.78,34.11z M27.87,27.95v6.16h-2.19v-6.16
			c0-1.34-0.85-1.34-0.85-1.34v-1.79c2-0.03,2.68,1.3,2.92,2.23c0.11,0.45,0.12,0.81,0.12,0.88V27.95z M32.83,34.39
			c-1.95,0-3.54-1.58-3.54-3.54s1.58-3.54,3.54-3.54c1.95,0,3.54,1.58,3.54,3.54S34.79,34.39,32.83,34.39z M40.47,37.3v-1.78
			c0,0,1.98,0.23,1.98-0.89v-0.95c-0.49,0.29-1.05,0.45-1.65,0.45c-1.81,0-3.27-1.47-3.27-3.27c0-1.81,1.47-3.27,3.27-3.27
			c0.6,0,1.17,0.17,1.65,0.45v-0.29h2.12v6.88C44.57,34.62,45.03,37.3,40.47,37.3z"/>
		<path class="st1" d="M20.53,29.4c-0.75,0-1.36,0.61-1.36,1.36c0,0.75,0.61,1.36,1.36,1.36c0.75,0,1.36-0.61,1.36-1.36
			C21.89,30.01,21.28,29.4,20.53,29.4z"/>
	</g>
</g>
</svg>
