<?xml version="1.0" encoding="utf-8"?>
<!-- Generator: Adobe Illustrator 25.2.0, SVG Export Plug-In . SVG Version: 6.00 Build 0)  -->
<svg version="1.1" id="Layer_1" xmlns="http://www.w3.org/2000/svg" xmlns:xlink="http://www.w3.org/1999/xlink" x="0px" y="0px"
	 viewBox="0 0 62 62" style="enable-background:new 0 0 62 62;" xml:space="preserve">
<style type="text/css">
	.st0{fill:#ED2024;}
	.st1{fill:#FFFFFF;}
</style>
<ellipse transform="matrix(0.1617 -0.9868 0.9868 0.1617 -4.5827 56.8032)" class="st0" cx="31.14" cy="31.1" rx="31.01" ry="31.01"/>
<g>
	<path class="st1" d="M47.85,25.53c0-2.75-2.23-4.97-4.98-4.97c0,0-4.54-0.43-11.03-0.43c-6.49,0-11.46,0.43-11.46,0.43
		c-2.75,0-4.98,2.23-4.98,4.97c0,0-0.22,2.78-0.22,6.12c0,3.34,0.22,5.99,0.22,5.99c0,2.75,2.23,4.98,4.98,4.98
		c0,0,6.37,0.43,11.14,0.43c4.77,0,11.36-0.43,11.36-0.43c2.75,0,4.98-2.23,4.98-4.98c0,0,0.22-2.65,0.22-5.99
		C48.06,28.32,47.85,25.53,47.85,25.53z M28.92,36.57v-9.95l8.22,4.87L28.92,36.57z"/>
</g>
</svg>
