<svg width="180" height="180" viewBox="0 0 180 180" fill="none" xmlns="http://www.w3.org/2000/svg">
<circle cx="90" cy="90" r="90" fill="#3E3E3F"/>
<path d="M77.92 110.41C86.74 110.41 94.94 109.72 102.53 108.35C110.99 106.83 118.1 104.56 123.88 101.52C124.82 100.94 125.43 100.22 125.72 99.35C126.08 98.48 126.08 97.69 125.72 96.97C125.43 96.18 124.92 95.67 124.2 95.45C123.4 95.16 122.54 95.31 121.6 95.88C116.32 98.63 109.82 100.83 102.09 102.49C94.43 104.08 86.44 104.87 78.13 104.87C76.11 104.87 74.62 104.4 73.69 103.46C72.68 102.45 72.17 100.9 72.17 98.8V43.09C72.17 41.14 72.5 39.77 73.15 38.97C73.87 38.18 75.14 37.78 76.94 37.78H110.54C112.63 37.78 113.72 36.84 113.79 34.96C113.79 33.15 112.74 32.25 110.65 32.25H76.72C73.32 32.25 70.61 33.23 68.59 35.18C66.71 37.06 65.77 39.59 65.77 42.77V98.81C65.77 102.57 66.82 105.46 68.91 107.48C70.93 109.43 73.93 110.41 77.91 110.41H77.92Z" fill="#C7A88B"/>
<path d="M149.9 71.6H137.87V31.93C137.87 30.99 137.51 30.23 136.79 29.65C136.21 29.22 135.49 29 134.62 29C133.75 29 133.03 29.22 132.45 29.65C131.8 30.23 131.47 30.99 131.47 31.93V111.59C130.89 111.53 130.28 111.49 129.63 111.49H85.8C85.73 111.49 85.67 111.48 85.6 111.48H31.16C30.17 111.48 29.38 111.71 28.79 112.17C28.26 112.7 28 113.29 28 113.95C28 114.61 28.26 115.2 28.79 115.73C29.38 116.26 30.17 116.52 31.16 116.52H67.56C67.46 117.14 67.41 117.81 67.41 118.55V127.67H35.69C33.32 127.67 31.55 128.26 30.36 129.45C29.31 130.57 28.78 132.11 28.78 134.09V144.94C28.78 146.85 29.4 148.26 30.65 149.18C31.83 150.04 33.61 150.46 35.98 150.46H92.79C93.34 150.46 93.81 150.37 94.24 150.21H130.27C132.51 150.21 134.32 149.63 135.69 148.48C137.14 147.18 137.86 145.41 137.86 143.17V118.13C137.86 117.77 137.84 117.43 137.8 117.1C137.84 116.91 137.86 116.71 137.86 116.5V76.93H149.89C151.62 76.93 152.49 76.03 152.49 74.22C152.49 72.41 151.62 71.62 149.89 71.62L149.9 71.6ZM74.46 121.36C74.46 119.84 74.79 118.76 75.44 118.11C76.23 117.39 77.57 117.03 79.45 117.03H85.34C85.47 117.09 85.6 117.14 85.71 117.21C86.37 117.67 86.7 118.39 86.7 119.38V125.5C86.7 126.29 86.34 126.85 85.61 127.18C84.95 127.51 84 127.67 82.75 127.67H74.46V121.37V121.36ZM36.09 144.82C35.43 144.43 35.1 143.7 35.1 142.65V136.34C35.1 135.09 35.3 134.17 35.69 133.58C36.08 132.99 36.87 132.69 38.06 132.69H67.41V142.93C67.41 143.85 67.49 144.67 67.65 145.41H38.95C37.63 145.41 36.68 145.21 36.09 144.82ZM130.93 140.76C130.93 142.06 130.5 143 129.63 143.58C128.76 144.23 127.46 144.56 125.73 144.56H79.77C77.75 144.56 76.34 144.23 75.54 143.58C74.82 142.93 74.46 141.77 74.46 140.11V132.69H86C88.1 132.69 89.78 132.2 91.03 131.21C92.41 130.22 93.1 128.91 93.1 127.26V117.99C93.1 117.65 93.07 117.33 93.04 117.02H125.63C127.51 117.02 128.84 117.31 129.64 117.89C130.51 118.54 130.94 119.62 130.94 121.14V140.76H130.93Z" fill="#C7A88B"/>
</svg>
