<svg width="162" height="31" viewBox="0 0 162 31" fill="none" xmlns="http://www.w3.org/2000/svg">
<g opacity="0.6" clip-path="url(#clip0_44_661)">
<path d="M30.6502 18.2627C30.6502 18.0176 30.6563 17.7784 30.6744 17.5332C30.88 14.591 32.0836 11.9539 33.9282 9.90876L26.1929 0L4.5957 27.125C9.32519 24.6194 14.0789 22.8792 18.9112 21.8866L26.1929 12.7492L30.6502 18.2627Z" fill="white"/>
<path d="M44.428 6.61996C37.8357 6.16548 32.1265 11.081 31.6668 17.5991C31.5822 18.7652 31.6789 19.8954 31.9208 20.9838C34.2553 21.1273 36.5717 21.4323 38.8639 21.8927C38.0535 20.8163 37.612 19.4589 37.7148 18.0117C37.9385 14.8005 40.7569 12.3786 44.0107 12.5999C47.2584 12.8212 49.7078 15.6078 49.4841 18.819C49.3208 21.1034 47.8511 22.9811 45.8492 23.8003C48.0265 24.5598 50.1796 25.4687 52.3084 26.5212C54.1349 24.6016 55.3324 22.0721 55.532 19.2376C55.9916 12.7195 51.0202 7.06846 44.428 6.61398V6.61996Z" fill="white"/>
<path d="M58.0965 31.0001C49.0004 25.074 39.112 21.8867 28.77 21.8867C18.4281 21.8867 8.99328 25.1577 0 31.0001H58.0965Z" fill="white"/>
<path d="M67.0839 30.8802C65.6929 30.8802 64.5801 29.8696 64.5801 28.6616H65.6203C65.6203 29.4031 66.34 30.0011 67.0779 30.0011C67.8157 30.0011 68.4991 29.5347 68.4991 28.9726C68.4991 27.4836 64.7373 28.1952 64.7373 26.1022C64.7373 25.0916 65.8985 24.2305 67.0839 24.2305C68.2693 24.2305 69.364 25.1095 69.4366 26.2098H68.3842C68.3842 25.6657 67.7311 25.1035 67.0779 25.1035C66.4247 25.1035 65.7836 25.5341 65.7836 26.0663C65.7836 27.2743 69.5575 26.6105 69.5575 28.9367C69.5575 29.9652 68.3358 30.8742 67.09 30.8742L67.0839 30.8802Z" fill="white"/>
<path d="M73.4638 30.8802C71.6132 30.8802 70.1133 29.3912 70.1133 27.5493C70.1133 25.7075 71.6192 24.2305 73.4638 24.2305C75.3085 24.2305 76.8083 25.7374 76.8083 27.5493C76.8083 29.3613 75.3266 30.8802 73.4638 30.8802ZM73.4638 25.1873C72.1393 25.1873 71.0689 26.2517 71.0689 27.5553C71.0689 28.8589 72.1393 29.9413 73.4638 29.9413C74.7883 29.9413 75.8588 28.8769 75.8588 27.5553C75.8588 26.2337 74.7883 25.1873 73.4638 25.1873Z" fill="white"/>
<path d="M81.3686 30.7187L78.4172 26.0604V30.7187H77.377V24.3979H78.4898L81.4291 29.0743V24.3979H82.4875V30.7187H81.3625H81.3686Z" fill="white"/>
<path d="M86.407 30.8802C84.5563 30.8802 83.0625 29.3912 83.0625 27.5493C83.0625 25.7075 84.5684 24.2305 86.407 24.2305C87.9008 24.2305 89.2072 25.2231 89.6487 26.7002H88.6448C88.2456 25.8211 87.4352 25.1873 86.401 25.1873C85.0946 25.1873 84.006 26.2457 84.006 27.5553C84.006 28.8649 85.1128 29.9413 86.401 29.9413C87.5259 29.9413 88.4149 29.1998 88.6992 28.2849H85.9958V27.4058H89.7515C89.7515 29.427 88.2758 30.8861 86.401 30.8861L86.407 30.8802Z" fill="white"/>
<path d="M96.1686 30.7187H95.201L93.9369 26.4371C93.9369 26.4371 92.9269 29.6364 92.679 30.7187H91.6932L89.7578 24.3979H90.8525L92.2133 28.6736L93.4712 24.3979H94.4087L95.6666 28.6736L97.0274 24.3979H98.1342L96.1686 30.7187Z" fill="white"/>
<path d="M101.575 30.8802C99.7243 30.8802 98.2305 29.3912 98.2305 27.5493C98.2305 25.7075 99.7364 24.2305 101.575 24.2305C103.414 24.2305 104.926 25.7374 104.926 27.5493C104.926 29.3613 103.438 30.8802 101.575 30.8802ZM101.575 25.1873C100.25 25.1873 99.18 26.2517 99.18 27.5553C99.18 28.8589 100.25 29.9413 101.575 29.9413C102.899 29.9413 103.97 28.8769 103.97 27.5553C103.97 26.2337 102.899 25.1873 101.575 25.1873Z" fill="white"/>
<path d="M109.48 30.7187L106.529 26.0604V30.7187H105.488V24.3979H106.601L109.54 29.0743V24.3979H110.599V30.7187H109.474H109.48Z" fill="white"/>
<path d="M116.393 30.88C115.02 30.88 114.01 29.7557 114.01 28.5239V24.4097H115.05V28.6853C115.05 29.379 115.606 30.0129 116.405 30.0129C117.203 30.0129 117.759 29.379 117.759 28.6853V24.4097H118.806V28.5239C118.806 29.7677 117.784 30.88 116.393 30.88Z" fill="white"/>
<path d="M123.359 30.7187L120.407 26.0604V30.7187H119.367V24.3979H120.486L123.425 29.0743V24.3979H124.484V30.7187H123.359Z" fill="white"/>
<path d="M125.053 30.7306V24.4038H126.093V30.7306H125.053Z" fill="white"/>
<path d="M130.134 30.7187H129.166L126.662 24.3979H127.805L129.662 29.2537L131.507 24.3979H132.65L130.134 30.7187Z" fill="white"/>
<path d="M133.211 30.7187V24.3979H137.729V25.271H134.251V27.0112H137.644V27.8783H134.251V29.8517H137.807V30.7187H133.211Z" fill="white"/>
<path d="M142.199 30.7186C141.111 29.3432 139.701 27.5313 139.701 27.4775H141.129C141.746 27.4775 142.254 26.9991 142.254 26.3951C142.254 25.7912 141.734 25.2769 141.129 25.2769H139.417V30.7246H138.377V24.4038H141.286C142.356 24.4038 143.294 25.2769 143.294 26.3951C143.294 27.4117 142.453 28.2489 141.498 28.3506L143.379 30.7246H142.199V30.7186Z" fill="white"/>
<path d="M146.451 30.8802C145.06 30.8802 143.947 29.8696 143.947 28.6616H144.988C144.988 29.4031 145.707 30.0011 146.445 30.0011C147.183 30.0011 147.866 29.5347 147.866 28.9726C147.866 27.4836 144.105 28.1952 144.105 26.1022C144.105 25.0916 145.266 24.2305 146.451 24.2305C147.637 24.2305 148.731 25.1095 148.804 26.2098H147.751C147.751 25.6657 147.098 25.1035 146.445 25.1035C145.792 25.1035 145.151 25.5341 145.151 26.0663C145.151 27.2743 148.925 26.6105 148.925 28.9367C148.925 29.9652 147.703 30.8742 146.457 30.8742L146.451 30.8802Z" fill="white"/>
<path d="M149.486 30.7306V24.4038H150.527V30.7306H149.486Z" fill="white"/>
<path d="M153.884 25.271V30.7187H152.844V25.271H151.096V24.3979H155.644V25.271H153.884Z" fill="white"/>
<path d="M159.588 28.4464V30.7187H158.547V28.4464L156.213 24.3979H157.483L159.074 27.2205L160.652 24.3979H161.94L159.594 28.4464H159.588Z" fill="white"/>
<path d="M115.559 7.07421V13.4369H108.404V7.98914H114.192V5.57324H105.785V14.3518C105.803 15.1651 106.45 15.8169 107.267 15.8528H115.559V22.2453H118.105V7.99512H120.089V22.2513H122.629V5.57324H117.077C116.242 5.59118 115.577 6.24898 115.559 7.07421Z" fill="white"/>
<path d="M140.156 16.6958H126.893V19.1177H139.073V22.2452H141.643V18.1848C141.619 17.3775 140.966 16.7377 140.156 16.7018V16.6958Z" fill="white"/>
<path d="M140.584 5.55518C139.756 5.57312 139.085 6.23689 139.066 7.05614V15.3563H141.6V7.98303H143.651V5.55518H140.578H140.584Z" fill="white"/>
<path d="M137.699 5.56117H132.795V4.17383H130.254V5.56117H125.35V7.97707H128.646C127.702 8.77838 127.097 9.96839 127.097 11.2959C127.097 13.7118 129.081 15.6732 131.525 15.6732C133.968 15.6732 135.952 13.7118 135.952 11.2959C135.952 9.96839 135.347 8.77838 134.403 7.97707H137.699V5.56117ZM131.525 13.1079C130.539 13.1079 129.74 12.2946 129.74 11.2959C129.74 10.2973 130.539 9.47803 131.525 9.47803C132.51 9.47803 133.309 10.2913 133.309 11.2959C133.309 12.3006 132.51 13.1079 131.525 13.1079Z" fill="white"/>
<path d="M74.8799 10.1182H72.3398V12.1573H64.5742V14.5732H70.1565C69.2674 15.4523 68.7171 16.6602 68.7171 18.0057C68.7171 20.6847 70.9125 22.8554 73.6219 22.8554C76.3314 22.8554 78.5268 20.6847 78.5268 18.0057C78.5268 16.6662 77.9764 15.4523 77.0874 14.5732H82.6636V12.1573H74.8678V10.1182H74.8799ZM75.9322 18.0057C75.9322 19.2615 74.898 20.2841 73.628 20.2841C72.3579 20.2841 71.3237 19.2615 71.3237 18.0057C71.3237 16.7499 72.3519 15.7273 73.628 15.7273C74.9041 15.7273 75.9322 16.7499 75.9322 18.0057Z" fill="white"/>
<path d="M73.6456 7.70214C75.5386 10.4649 80.0081 10.3692 80.0081 10.3692H82.4514V7.9533H79.7843C79.7843 7.9533 75.835 8.13868 74.952 4.77197H72.3332C71.4502 8.13868 67.5009 7.9533 67.5009 7.9533H64.8398V10.3692H67.2772C67.2772 10.3692 71.7466 10.4649 73.6396 7.70214H73.6456Z" fill="white"/>
<path d="M98.7883 13.293H94.6455C95.7946 12.4319 96.5385 11.0685 96.5385 9.53763C96.5385 6.93037 94.3975 4.81348 91.7606 4.81348C89.1237 4.81348 86.9827 6.93037 86.9827 9.53763C86.9827 11.0745 87.7266 12.4319 88.8757 13.293H85.1562V15.7149H88.7487V22.0357H91.2889V15.7149H98.7883V13.293ZM91.7606 7.39681C92.9278 7.39681 93.8653 8.3536 93.8653 9.53763C93.8653 10.7217 92.9218 11.6784 91.7606 11.6784C90.5994 11.6784 89.6559 10.7157 89.6559 9.53763C89.6559 8.35958 90.5994 7.39681 91.7606 7.39681Z" fill="white"/>
<path d="M101.19 5.56689H98.0873V8.02465H100.156V19.8231H95.9161V17.2577H93.3457V20.7679C93.3759 21.5632 94.017 22.2031 94.8214 22.2449H102.684V7.04992C102.66 6.24263 102.006 5.59081 101.19 5.56689Z" fill="white"/>
<path d="M160.664 18.8426V7.06213C160.64 6.26081 159.986 5.61498 159.176 5.5791H146.596V8.00098H158.093V18.8426H155.444V11.7923H153.025V18.8426H150.86V11.7923H148.441V18.8426H145.701V21.2346H162.006V18.8426H160.67H160.664Z" fill="white"/>
</g>
<defs>
<clipPath id="clip0_44_661">
<rect width="162" height="31" fill="white"/>
</clipPath>
</defs>
</svg>
