<svg width="190" height="37" viewBox="0 0 190 37" fill="none" xmlns="http://www.w3.org/2000/svg">
<g clip-path="url(#clip0_45_1122)">
<path d="M35.9489 21.6628C35.9489 21.372 35.956 21.0883 35.9772 20.7974C36.2184 17.3075 37.63 14.1794 39.7934 11.7535L30.7211 0L5.39111 32.175C10.938 29.2029 16.5133 27.1388 22.1809 25.9613L30.7211 15.1228L35.9489 21.6628Z" fill="#0061AF"/>
<path d="M52.1071 7.85219C44.3754 7.3131 37.6794 13.1438 37.1403 20.8754C37.041 22.2586 37.1545 23.5992 37.4382 24.8902C40.1762 25.0604 42.8929 25.4222 45.5813 25.9684C44.6308 24.6916 44.113 23.0814 44.2336 21.3648C44.496 17.5558 47.8015 14.683 51.6176 14.9454C55.4267 15.2079 58.2995 18.5134 58.037 22.3224C57.8455 25.0321 56.1219 27.2593 53.774 28.2311C56.3276 29.132 58.8528 30.2101 61.3496 31.4586C63.4917 29.1816 64.8962 26.1812 65.1303 22.819C65.6694 15.0873 59.8387 8.38419 52.1071 7.8451V7.85219Z" fill="#F26522"/>
<path d="M68.1378 36.7716C57.4696 29.7421 45.8721 25.9614 33.7426 25.9614C21.6132 25.9614 10.5477 29.8414 0 36.7716H68.1378Z" fill="#62BB46"/>
<path d="M78.6788 36.6296C77.0473 36.6296 75.7422 35.4309 75.7422 33.998H76.9622C76.9622 34.8776 77.8063 35.5869 78.6717 35.5869C79.5371 35.5869 80.3386 35.0337 80.3386 34.3669C80.3386 32.6007 75.9266 33.4448 75.9266 30.9621C75.9266 29.7634 77.2885 28.7419 78.6788 28.7419C80.0691 28.7419 81.353 29.7847 81.4381 31.0898H80.2038C80.2038 30.4443 79.4378 29.7776 78.6717 29.7776C77.9056 29.7776 77.1537 30.2883 77.1537 30.9196C77.1537 32.3524 81.5799 31.5651 81.5799 34.3243C81.5799 35.5444 80.1471 36.6226 78.6859 36.6226L78.6788 36.6296Z" fill="#231F20"/>
<path d="M86.1621 36.6296C83.9916 36.6296 82.2324 34.8634 82.2324 32.6787C82.2324 30.494 83.9986 28.7419 86.1621 28.7419C88.3255 28.7419 90.0847 30.5294 90.0847 32.6787C90.0847 34.828 88.3468 36.6296 86.1621 36.6296ZM86.1621 29.8769C84.6087 29.8769 83.3532 31.1395 83.3532 32.6858C83.3532 34.2321 84.6087 35.516 86.1621 35.516C87.7155 35.516 88.971 34.2534 88.971 32.6858C88.971 31.1182 87.7155 29.8769 86.1621 29.8769Z" fill="#231F20"/>
<path d="M95.433 36.4382L91.9715 30.9126V36.4382H90.7515V28.9407H92.0566L95.5039 34.4876V28.9407H96.7453V36.4382H95.4259H95.433Z" fill="#231F20"/>
<path d="M101.342 36.6296C99.171 36.6296 97.4189 34.8634 97.4189 32.6787C97.4189 30.494 99.1852 28.7419 101.342 28.7419C103.094 28.7419 104.626 29.9194 105.144 31.6715H103.966C103.498 30.6288 102.547 29.8769 101.334 29.8769C99.8023 29.8769 98.5255 31.1324 98.5255 32.6858C98.5255 34.2392 99.8236 35.516 101.334 35.516C102.654 35.516 103.696 34.6364 104.03 33.5512H100.859V32.5085H105.264C105.264 34.906 103.533 36.6367 101.334 36.6367L101.342 36.6296Z" fill="#231F20"/>
<path d="M112.79 36.4382H111.655L110.173 31.3595C110.173 31.3595 108.988 35.1544 108.698 36.4382H107.541L105.271 28.9407H106.555L108.151 34.0124L109.627 28.9407H110.726L112.202 34.0124L113.798 28.9407H115.096L112.79 36.4382Z" fill="#231F20"/>
<path d="M119.132 36.6296C116.961 36.6296 115.209 34.8634 115.209 32.6787C115.209 30.494 116.975 28.7419 119.132 28.7419C121.288 28.7419 123.061 30.5294 123.061 32.6787C123.061 34.828 121.316 36.6296 119.132 36.6296ZM119.132 29.8769C117.578 29.8769 116.323 31.1395 116.323 32.6858C116.323 34.2321 117.578 35.516 119.132 35.516C120.685 35.516 121.94 34.2534 121.94 32.6858C121.94 31.1182 120.685 29.8769 119.132 29.8769Z" fill="#231F20"/>
<path d="M128.402 36.4382L124.941 30.9126V36.4382H123.721V28.9407H125.026L128.473 34.4876V28.9407H129.715V36.4382H128.395H128.402Z" fill="#231F20"/>
<path d="M136.51 36.6297C134.9 36.6297 133.715 35.2962 133.715 33.835V28.9548H134.935V34.0265C134.935 34.8493 135.588 35.6012 136.524 35.6012C137.461 35.6012 138.113 34.8493 138.113 34.0265V28.9548H139.34V33.835C139.34 35.3104 138.142 36.6297 136.51 36.6297Z" fill="#231F20"/>
<path d="M144.682 36.4382L141.22 30.9126V36.4382H140V28.9407H141.312L144.76 34.4876V28.9407H146.001V36.4382H144.682Z" fill="#231F20"/>
<path d="M146.667 36.4524V28.9478H147.888V36.4524H146.667Z" fill="#231F20"/>
<path d="M152.626 36.4382H151.491L148.554 28.9407H149.895L152.072 34.7004L154.236 28.9407H155.577L152.626 36.4382Z" fill="#231F20"/>
<path d="M156.236 36.4382V28.9407H161.535V29.9763H157.456V32.0404H161.436V33.0689H157.456V35.4097H161.627V36.4382H156.236Z" fill="#231F20"/>
<path d="M166.777 36.4382C165.5 34.8068 163.847 32.6575 163.847 32.5937H165.521C166.245 32.5937 166.841 32.0262 166.841 31.3098C166.841 30.5934 166.231 29.9834 165.521 29.9834H163.514V36.4453H162.294V28.9478H165.706C166.961 28.9478 168.061 29.9834 168.061 31.3098C168.061 32.5157 167.075 33.5087 165.954 33.6293L168.16 36.4453H166.777V36.4382Z" fill="#231F20"/>
<path d="M171.764 36.6296C170.132 36.6296 168.827 35.4309 168.827 33.998H170.047C170.047 34.8776 170.891 35.5869 171.757 35.5869C172.622 35.5869 173.424 35.0337 173.424 34.3669C173.424 32.6007 169.012 33.4448 169.012 30.9621C169.012 29.7634 170.373 28.7419 171.764 28.7419C173.154 28.7419 174.438 29.7847 174.523 31.0898H173.289C173.289 30.4443 172.523 29.7776 171.757 29.7776C170.991 29.7776 170.239 30.2883 170.239 30.9196C170.239 32.3524 174.665 31.5651 174.665 34.3243C174.665 35.5444 173.232 36.6226 171.771 36.6226L171.764 36.6296Z" fill="#231F20"/>
<path d="M175.324 36.4524V28.9478H176.544V36.4524H175.324Z" fill="#231F20"/>
<path d="M180.481 29.9763V36.4382H179.261V29.9763H177.211V28.9407H182.545V29.9763H180.481Z" fill="#231F20"/>
<path d="M187.17 33.7428V36.4382H185.95V33.7428L183.212 28.9407H184.702L186.567 32.2887L188.418 28.9407H189.929L187.177 33.7428H187.17Z" fill="#231F20"/>
<path d="M135.531 8.39149V15.9387H127.14V9.47676H133.928V6.61108H124.068V17.024C124.09 17.9887 124.849 18.7618 125.806 18.8044H135.531V26.3871H138.517V9.48385H140.844V26.3942H143.823V6.61108H137.311C136.333 6.63236 135.552 7.41262 135.531 8.39149Z" fill="black"/>
<path d="M164.379 19.8044H148.824V22.6772H163.11V26.387H166.124V21.5707C166.096 20.6131 165.33 19.8541 164.379 19.8115V19.8044Z" fill="black"/>
<path d="M164.883 6.5896C163.911 6.61088 163.124 7.39823 163.103 8.37001V18.2154H166.075V9.46946H168.479V6.5896H164.876H164.883Z" fill="black"/>
<path d="M161.5 6.59681H155.747V4.95117H152.768V6.59681H147.015V9.46248H150.881C149.774 10.413 149.065 11.8245 149.065 13.3992C149.065 16.2649 151.392 18.5915 154.257 18.5915C157.123 18.5915 159.45 16.2649 159.45 13.3992C159.45 11.8245 158.74 10.413 157.634 9.46248H161.5V6.59681ZM154.257 15.5485C153.101 15.5485 152.165 14.5838 152.165 13.3992C152.165 12.2147 153.101 11.2429 154.257 11.2429C155.414 11.2429 156.35 12.2076 156.35 13.3992C156.35 14.5909 155.414 15.5485 154.257 15.5485Z" fill="black"/>
<path d="M87.8218 12.0017H84.8426V14.4205H75.7349V17.2862H82.2819C81.2392 18.3289 80.5937 19.7617 80.5937 21.3577C80.5937 24.5355 83.1686 27.1103 86.3464 27.1103C89.5242 27.1103 92.099 24.5355 92.099 21.3577C92.099 19.7688 91.4535 18.3289 90.4108 17.2862H96.9508V14.4205H87.8076V12.0017H87.8218ZM89.056 21.3577C89.056 22.8473 87.8431 24.0602 86.3535 24.0602C84.8639 24.0602 83.6509 22.8473 83.6509 21.3577C83.6509 19.8681 84.8568 18.6552 86.3535 18.6552C87.8501 18.6552 89.056 19.8681 89.056 21.3577Z" fill="black"/>
<path d="M86.3747 9.1361C88.5948 12.4132 93.8368 12.2997 93.8368 12.2997H96.7024V9.43401H93.5743C93.5743 9.43401 88.9424 9.6539 87.9068 5.6604H84.8354C83.7998 9.6539 79.1679 9.43401 79.1679 9.43401H76.0469V12.2997H78.9055C78.9055 12.2997 84.1474 12.4132 86.3676 9.1361H86.3747Z" fill="black"/>
<path d="M115.861 15.7684H111.002C112.35 14.747 113.223 13.1298 113.223 11.3139C113.223 8.22122 110.712 5.71021 107.619 5.71021C104.526 5.71021 102.015 8.22122 102.015 11.3139C102.015 13.1368 102.888 14.747 104.235 15.7684H99.873V18.6412H104.086V26.1388H107.066V18.6412H115.861V15.7684ZM107.619 8.77449C108.988 8.77449 110.087 9.90941 110.087 11.3139C110.087 12.7183 108.981 13.8533 107.619 13.8533C106.257 13.8533 105.15 12.7113 105.15 11.3139C105.15 9.91651 106.257 8.77449 107.619 8.77449Z" fill="black"/>
<path d="M118.677 6.604H115.039V9.51933H117.465V23.5143H112.492V20.4713H109.478V24.6351C109.513 25.5785 110.265 26.3374 111.208 26.3871H120.43V8.36313C120.401 7.40554 119.635 6.63238 118.677 6.604Z" fill="black"/>
<path d="M188.433 22.351V8.37729C188.404 7.4268 187.638 6.66072 186.688 6.61816H171.934V9.49093H185.418V22.351H182.311V13.9881H179.474V22.351H176.934V13.9881H174.097V22.351H170.884V25.1883H190.007V22.351H188.44H188.433Z" fill="black"/>
</g>
<defs>
<clipPath id="clip0_45_1122">
<rect width="190" height="36.7715" fill="white"/>
</clipPath>
</defs>
</svg>
