<svg width="190" height="36" viewBox="0 0 190 36" fill="none" xmlns="http://www.w3.org/2000/svg">
<g clip-path="url(#clip0_79_1799)">
<path d="M35.9484 21.2083C35.9484 20.9236 35.9555 20.6458 35.9768 20.3611C36.2179 16.9444 37.6295 13.8819 39.7929 11.5069L30.7207 0L5.39062 31.5C10.9376 28.5903 16.5129 26.5694 22.1804 25.4167L30.7207 14.8056L35.9484 21.2083Z" fill="white"/>
<path d="M52.1066 7.6874C44.3749 7.15963 37.6789 12.868 37.1398 20.4374C37.0405 21.7916 37.154 23.1041 37.4377 24.368C40.1757 24.5346 42.8924 24.8888 45.5808 25.4235C44.6303 24.1735 44.1125 22.5971 44.2331 20.9166C44.4955 17.1874 47.801 14.3749 51.6171 14.6318C55.4262 14.8888 58.299 18.1249 58.0365 21.8541C57.845 24.5068 56.1214 26.6874 53.7735 27.6388C56.3271 28.5207 58.8523 29.5763 61.3491 30.7985C63.4913 28.5693 64.8957 25.6318 65.1298 22.3402C65.6689 14.7707 59.8382 8.20824 52.1066 7.68046V7.6874Z" fill="white"/>
<path d="M68.1378 36.0001C57.4696 29.1181 45.8721 25.4167 33.7426 25.4167C21.6132 25.4167 10.5477 29.2154 0 36.0001H68.1378Z" fill="white"/>
<path d="M78.6778 35.8611C77.0464 35.8611 75.7412 34.6875 75.7412 33.2847H76.9613C76.9613 34.1459 77.8054 34.8403 78.6707 34.8403C79.5361 34.8403 80.3376 34.2986 80.3376 33.6459C80.3376 31.9167 75.9256 32.7431 75.9256 30.3125C75.9256 29.1389 77.2875 28.1389 78.6778 28.1389C80.0681 28.1389 81.352 29.1598 81.4371 30.4375H80.2029C80.2029 29.8056 79.4368 29.1528 78.6707 29.1528C77.9047 29.1528 77.1528 29.6528 77.1528 30.2709C77.1528 31.6736 81.579 30.9028 81.579 33.6042C81.579 34.7986 80.1461 35.8542 78.6849 35.8542L78.6778 35.8611Z" fill="white"/>
<path d="M86.1611 35.8611C83.9906 35.8611 82.2314 34.132 82.2314 31.9931C82.2314 29.8542 83.9977 28.1389 86.1611 28.1389C88.3246 28.1389 90.0837 29.8889 90.0837 31.9931C90.0837 34.0972 88.3458 35.8611 86.1611 35.8611ZM86.1611 29.25C84.6077 29.25 83.3522 30.4861 83.3522 32C83.3522 33.5139 84.6077 34.7709 86.1611 34.7709C87.7145 34.7709 88.97 33.5347 88.97 32C88.97 30.4653 87.7145 29.25 86.1611 29.25Z" fill="white"/>
<path d="M95.4325 35.6735L91.971 30.2638V35.6735H90.751V28.3333H92.0561L95.5035 33.7638V28.3333H96.7448V35.6735H95.4254H95.4325Z" fill="white"/>
<path d="M101.341 35.8611C99.17 35.8611 97.418 34.132 97.418 31.9931C97.418 29.8542 99.1842 28.1389 101.341 28.1389C103.093 28.1389 104.625 29.2917 105.143 31.007H103.965C103.497 29.9861 102.546 29.25 101.333 29.25C99.8013 29.25 98.5245 30.4792 98.5245 32C98.5245 33.5209 99.8226 34.7709 101.333 34.7709C102.653 34.7709 103.696 33.9097 104.029 32.8472H100.858V31.8264H105.263C105.263 34.1736 103.532 35.8681 101.333 35.8681L101.341 35.8611Z" fill="white"/>
<path d="M112.789 35.6735H111.654L110.172 30.7013C110.172 30.7013 108.987 34.4166 108.697 35.6735H107.54L105.271 28.3333H106.554L108.15 33.2985L109.626 28.3333H110.725L112.201 33.2985L113.797 28.3333H115.095L112.789 35.6735Z" fill="white"/>
<path d="M119.131 35.8611C116.96 35.8611 115.208 34.132 115.208 31.9931C115.208 29.8542 116.974 28.1389 119.131 28.1389C121.287 28.1389 123.06 29.8889 123.06 31.9931C123.06 34.0972 121.315 35.8611 119.131 35.8611ZM119.131 29.25C117.577 29.25 116.322 30.4861 116.322 32C116.322 33.5139 117.577 34.7709 119.131 34.7709C120.684 34.7709 121.94 33.5347 121.94 32C121.94 30.4653 120.684 29.25 119.131 29.25Z" fill="white"/>
<path d="M128.401 35.6735L124.94 30.2638V35.6735H123.72V28.3333H125.025L128.472 33.7638V28.3333H129.714V35.6735H128.394H128.401Z" fill="white"/>
<path d="M136.509 35.8611C134.898 35.8611 133.714 34.5555 133.714 33.1249V28.3472H134.934V33.3124C134.934 34.118 135.586 34.8541 136.523 34.8541C137.459 34.8541 138.112 34.118 138.112 33.3124V28.3472H139.339V33.1249C139.339 34.5694 138.14 35.8611 136.509 35.8611Z" fill="white"/>
<path d="M144.681 35.6735L141.219 30.2638V35.6735H139.999V28.3333H141.311L144.759 33.7638V28.3333H146V35.6735H144.681Z" fill="white"/>
<path d="M146.667 35.6876V28.3403H147.887V35.6876H146.667Z" fill="white"/>
<path d="M152.625 35.6735H151.49L148.554 28.3333H149.894L152.072 33.9721L154.235 28.3333H155.576L152.625 35.6735Z" fill="white"/>
<path d="M156.235 35.6735V28.3333H161.534V29.3471H157.455V31.368H161.435V32.3749H157.455V34.6666H161.626V35.6735H156.235Z" fill="white"/>
<path d="M166.776 35.6737C165.499 34.0764 163.846 31.9723 163.846 31.9098H165.52C166.244 31.9098 166.84 31.3542 166.84 30.6528C166.84 29.9514 166.23 29.3542 165.52 29.3542H163.513V35.6806H162.293V28.3403H165.705C166.96 28.3403 168.06 29.3542 168.06 30.6528C168.06 31.8334 167.074 32.8056 165.953 32.9237L168.159 35.6806H166.776V35.6737Z" fill="white"/>
<path d="M171.763 35.8611C170.131 35.8611 168.826 34.6875 168.826 33.2847H170.046C170.046 34.1459 170.89 34.8403 171.756 34.8403C172.621 34.8403 173.423 34.2986 173.423 33.6459C173.423 31.9167 169.011 32.7431 169.011 30.3125C169.011 29.1389 170.373 28.1389 171.763 28.1389C173.153 28.1389 174.437 29.1598 174.522 30.4375H173.288C173.288 29.8056 172.522 29.1528 171.756 29.1528C170.99 29.1528 170.238 29.6528 170.238 30.2709C170.238 31.6736 174.664 30.9028 174.664 33.6042C174.664 34.7986 173.231 35.8542 171.77 35.8542L171.763 35.8611Z" fill="white"/>
<path d="M175.323 35.6876V28.3403H176.543V35.6876H175.323Z" fill="white"/>
<path d="M180.48 29.3471V35.6735H179.26V29.3471H177.21V28.3333H182.544V29.3471H180.48Z" fill="white"/>
<path d="M187.169 33.0346V35.6735H185.949V33.0346L183.211 28.3333H184.701L186.566 31.611L188.417 28.3333H189.928L187.176 33.0346H187.169Z" fill="white"/>
<path d="M135.53 8.21522V15.6041H127.139V9.27772H133.927V6.47217H124.067V16.6666C124.089 17.6111 124.848 18.368 125.805 18.4097H135.53V25.8333H138.516V9.28467H140.843V25.8402H143.822V6.47217H137.31C136.332 6.493 135.551 7.25689 135.53 8.21522Z" fill="white"/>
<path d="M164.379 19.3889H148.823V22.2014H163.109V25.8334H166.124V21.1181C166.095 20.1806 165.329 19.4375 164.379 19.3959V19.3889Z" fill="white"/>
<path d="M164.883 6.45142C163.911 6.47225 163.124 7.24308 163.103 8.19447V17.8334H166.075V9.27086H168.479V6.45142H164.876H164.883Z" fill="white"/>
<path d="M161.499 6.45828H155.746V4.84717H152.767V6.45828H147.015V9.26383H150.88C149.774 10.1944 149.065 11.5763 149.065 13.118C149.065 15.9236 151.391 18.2013 154.257 18.2013C157.123 18.2013 159.449 15.9236 159.449 13.118C159.449 11.5763 158.74 10.1944 157.633 9.26383H161.499V6.45828ZM154.257 15.2222C153.101 15.2222 152.164 14.2777 152.164 13.118C152.164 11.9583 153.101 11.0069 154.257 11.0069C155.413 11.0069 156.349 11.9513 156.349 13.118C156.349 14.2847 155.413 15.2222 154.257 15.2222Z" fill="white"/>
<path d="M87.8213 11.7498H84.8421V14.1178H75.7344V16.9234H82.2815C81.2387 17.9442 80.5933 19.347 80.5933 20.9095C80.5933 24.0206 83.1681 26.5414 86.3459 26.5414C89.5237 26.5414 92.0985 24.0206 92.0985 20.9095C92.0985 19.3539 91.453 17.9442 90.4103 16.9234H96.9503V14.1178H87.8071V11.7498H87.8213ZM89.0555 20.9095C89.0555 22.3678 87.8426 23.5553 86.353 23.5553C84.8634 23.5553 83.6505 22.3678 83.6505 20.9095C83.6505 19.4511 84.8563 18.2636 86.353 18.2636C87.8497 18.2636 89.0555 19.4511 89.0555 20.9095Z" fill="white"/>
<path d="M86.3747 8.94428C88.5948 12.1526 93.8368 12.0415 93.8368 12.0415H96.7024V9.23595H93.5743C93.5743 9.23595 88.9424 9.45123 87.9068 5.5415H84.8354C83.7998 9.45123 79.1679 9.23595 79.1679 9.23595H76.0469V12.0415H78.9055C78.9055 12.0415 84.1474 12.1526 86.3676 8.94428H86.3747Z" fill="white"/>
<path d="M115.861 15.4376H111.002C112.35 14.4376 113.223 12.8542 113.223 11.0764C113.223 8.04867 110.712 5.59033 107.619 5.59033C104.526 5.59033 102.015 8.04867 102.015 11.0764C102.015 12.8612 102.888 14.4376 104.235 15.4376H99.873V18.2501H104.086V25.5903H107.066V18.2501H115.861V15.4376ZM107.619 8.59033C108.988 8.59033 110.087 9.70144 110.087 11.0764C110.087 12.4514 108.981 13.5626 107.619 13.5626C106.257 13.5626 105.15 12.4445 105.15 11.0764C105.15 9.70839 106.257 8.59033 107.619 8.59033Z" fill="white"/>
<path d="M118.677 6.46533H115.039V9.3195H117.465V23.0209H112.492V20.0417H109.478V24.1181C109.513 25.0417 110.265 25.7848 111.208 25.8334H120.43V8.18755C120.401 7.25005 119.635 6.49311 118.677 6.46533Z" fill="white"/>
<path d="M188.433 21.8818V8.20123C188.404 7.27067 187.638 6.52067 186.688 6.479H171.934V9.2915H185.418V21.8818H182.311V13.6943H179.474V21.8818H176.934V13.6943H174.097V21.8818H170.884V24.6596H190.007V21.8818H188.44H188.433Z" fill="white"/>
</g>
<defs>
<clipPath id="clip0_79_1799">
<rect width="190" height="36" fill="white"/>
</clipPath>
</defs>
</svg>
