<svg xmlns="http://www.w3.org/2000/svg" xmlns:xlink="http://www.w3.org/1999/xlink" viewBox="0 0 601 547.08"><defs><style>.cls-1,.cls-3{fill:none;}.cls-2{clip-path:url(#clip-path);}.cls-3{stroke:#000;stroke-linejoin:round;}</style><clipPath id="clip-path" transform="translate(-99.5 -126.46)"><rect class="cls-1" width="800" height="800"/></clipPath></defs><g id="Layer_2" data-name="Layer 2"><g id="Layer_1-2" data-name="Layer 1"><g class="cls-2"><g class="cls-2"><path class="cls-3" d="M363.8,358.87c-29.27-3.19-53.31,23.86-53.31,53.3a53.08,53.08,0,0,0,8.59,29,53.3,53.3,0,0,0,73,72.87c19.8,11.27,46.31,9.08,65.93-7.35,22-18.46,27.92-48.62,15.33-71.34a46.69,46.69,0,0,0,6.09-5.78c18.31-21,14.41-54.31-8.7-74.51C457,343.09,439.68,338.43,424,341c2.3,2,4.59,4.18,6.82,6.54a82.45,82.45,0,0,1,23,58.05c0,2.81-.12,5.69-.38,8.65-2,23.37-10.83,39.78-22.75,50.11a60.85,60.85,0,0,1-40,14.54c-13.87-.05-26.58-4.31-34.41-11.87-9.61-9.41-14.83-21.46-14.83-33.37a38.26,38.26,0,0,1,8.29-24c5.57-7,14-12.65,25-15.85a3,3,0,0,1,.47-.09,4.37,4.37,0,0,1,5,3.07C389.47,399.49,405.56,363.42,363.8,358.87Z" transform="translate(-99.5 -126.46)"/><path class="cls-3" d="M387,292.48c8.65,19.4,48.1,2.84,58-5.12,18.93-15.2,27.79-61.92-12.67-80.44-13.65-42.91-72-41.54-92.52-20.42-6.86,7.06-10.94,16.21-13.11,25.13-27,4.06-40.88,39.51-38.68,65,2,22.9,13.61,43.34,21.56,50.8a86.71,86.71,0,0,1,27-11.1c-5-7.21-14.34-31.39-14.41-48.72,0-10.88,3-23.21,11.13-36,11.17-17.43,32-25.87,51.28-25.9,10.61,0,20.93,2.56,29.19,8a34.84,34.84,0,0,1,15.7,25.2,41.81,41.81,0,0,1,.35,5.37,34.39,34.39,0,0,1-14,28,44.82,44.82,0,0,1-13.76,7.2,4.4,4.4,0,0,1-5.42-3c-.08,0,0-.18,0-.27C390.57,277.57,382,281.19,387,292.48Z" transform="translate(-99.5 -126.46)"/><path class="cls-3" d="M535.74,625.2c19.8,11.27,46.31,9.07,65.93-7.36,22-18.45,30.51-50.67,17.92-73.39a46,46,0,0,0,6.09-5.78c18.31-20.95,11.82-52.26-11.29-72.45a60.18,60.18,0,0,0-20.08-11.66c-50.77-14.11-71.81,18.57-68,32.69,4.37,16.18,14.28,15.27,19.43,14.09a4.49,4.49,0,0,1-.7-1.4,4.38,4.38,0,0,1,3-5.42,42.35,42.35,0,0,1,10.69-1.3,39.11,39.11,0,0,1,17.54,3.95c6.22,3.11,12.25,8.64,16.35,17.38a42.45,42.45,0,0,1,4.28,18.2c0,13.16-6.8,24.67-16.85,32.65a61,61,0,0,1-65.51,5.91c-15.58-8.16-25-19.11-30.46-29.89a88.93,88.93,0,0,1-23,14c-3.58,7.16-4.3,9-4.3,17.6C456.75,602.49,502.58,643.26,535.74,625.2Z" transform="translate(-99.5 -126.46)"/><path class="cls-3" d="M536.06,349.76c10,68.35,84.58,40.56,87.1,16.9,21-9,37-26.43,35.78-52C657.55,286,637.07,263,611.36,259.35a45.92,45.92,0,0,0-.93-8.35c-5.63-27.24-34.57-44.3-64.63-38.08a58.87,58.87,0,0,0-32.42,18.57,93.91,93.91,0,0,1,10.41,32.78,73.58,73.58,0,0,1,24.39-7.47,58.61,58.61,0,0,1,8-.54,61.53,61.53,0,0,1,41.05,15.94c10.58,9.58,17.41,22.49,17.43,36,0,10-3.94,20.22-12.55,28.69-8.15,8.12-17.32,11-25.2,11h-.18a43.12,43.12,0,0,1-23.35-7.4,4.39,4.39,0,0,1-1-6.13C553.81,332.33,532,322.1,536.06,349.76Z" transform="translate(-99.5 -126.46)"/><path class="cls-3" d="M165.21,322.46c-49.08,26.65-28.93,117.66,30.71,111.65,27.47,21,56.77,8.92,67.77-16.75,3.75-8.76,3.29-46.42-14.15-45.17a5.31,5.31,0,0,1,.2.56,25.27,25.27,0,0,1,.77,6.18c0,9-4.72,17-11.49,22.67a39.76,39.76,0,0,1-25.29,9.27h0a35.88,35.88,0,0,1-21.92-7.45c-6.81-5.19-12.59-13.19-16.53-24.31l-.12-.31-.06-.33a89.31,89.31,0,0,1-1.69-16.68c0-14,4.09-25.12,10.44-33.42s14.78-13.86,23.23-17.55c15.57-6.78,31.4-7.59,36.7-7.69-1.11-6.6-2.25-15.07-2-20.32.47-9.27,1.1-18.3,3.17-26.94C169.43,251,156.43,314.66,165.21,322.46Z" transform="translate(-99.5 -126.46)"/><path class="cls-3" d="M665.34,246.45c-1.47-1.13-3-2.22-4.54-3.26a88.31,88.31,0,0,0-22.89-11,88.42,88.42,0,0,0-32.86-52.72c-1.47-1.13-3-2.21-4.53-3.26a88.73,88.73,0,0,0-119.89,19.54l-.26.34a94,94,0,0,0-12.79-6.77,94.45,94.45,0,0,0-177.47-.49A115.88,115.88,0,0,0,261.67,218c-.33-.18-.65-.38-1-.55a88.74,88.74,0,0,0-117.22,31.87c-1,1.58-1.89,3.19-2.77,4.85a88.35,88.35,0,0,0-9,57.3A88.07,88.07,0,0,0,113.15,333c-1,1.57-1.89,3.17-2.76,4.82h0A88.74,88.74,0,0,0,142.26,455c1.58,1,3.19,1.89,4.85,2.77a88.42,88.42,0,0,0,29.35,9.52,88.42,88.42,0,0,0,24.4,22.19c1.57,1,3.18,1.89,4.83,2.76a88.45,88.45,0,0,0,68.54,6.18,88.75,88.75,0,0,0,79.29,62.4c1.87.12,3.72.17,5.56.17a88.48,88.48,0,0,0,32.41-6.14,88.62,88.62,0,0,0,25.86,6.88,88.11,88.11,0,0,0-2.69,23.91c0,1.84.16,3.7.32,5.56a88.73,88.73,0,0,0,90.62,80.89c1.85-.05,3.72-.15,5.58-.32A88.77,88.77,0,0,0,537,665.48,88.3,88.3,0,0,0,575.1,673c1.84,0,3.69-.16,5.55-.32a88.75,88.75,0,0,0,80.9-90.62c-.06-1.86-.16-3.72-.33-5.58a88.31,88.31,0,0,0-5.83-24.73,88.46,88.46,0,0,0,20.3-58.71c-.05-1.85-.16-3.71-.32-5.57a88.49,88.49,0,0,0-37.14-64.59c.76-1,1.5-2.07,2.22-3.13a88.78,88.78,0,0,0,11.37-24.05,88.23,88.23,0,0,0,29.8-24.85q1.7-2.19,3.25-4.52A88.73,88.73,0,0,0,665.34,246.45ZM296.28,195.19l1.16-.81.47-1.34a85.68,85.68,0,0,1,80.83-57.3h0A85.68,85.68,0,0,1,459.92,194l.64,1.91,1.86.75A85.7,85.7,0,0,1,515.75,276h0a85.11,85.11,0,0,1-12.1,43.89,88.66,88.66,0,0,0-47.56-21.5c-1.87-.23-3.76-.43-5.67-.55s-3.73-.17-5.57-.17a88.42,88.42,0,0,0-58.17,21.82,88.37,88.37,0,0,0-24.86-5.19c-1.88-.12-3.74-.17-5.59-.17a88.07,88.07,0,0,0-9.92.57c-3.59-4.42-15.41-29-15.34-47.07,0-9.3,2.47-19.81,9.75-31.28,9-14.21,27-21.87,43.88-21.84,9.2,0,17.9,2.28,24.33,6.57a26,26,0,0,1,11.86,19,34,34,0,0,1,.28,4.27c-.05,10.43-5.13,16.73-10.57,21a36.77,36.77,0,0,1-7.54,4.47c-1,.46-1.88.78-2.45,1l-.64.21-.15,0a4.37,4.37,0,0,0-3.08,5.14c0,.09,0,.18,0,.27a4.4,4.4,0,0,0,5.41,3,44.69,44.69,0,0,0,13.77-7.2,34.39,34.39,0,0,0,14-28,41.81,41.81,0,0,0-.35-5.37,34.84,34.84,0,0,0-15.7-25.2c-8.26-5.47-18.58-8-29.19-8-19.32,0-40.11,8.47-51.28,25.9-8.14,12.78-11.14,25.11-11.13,36,.07,17.33,9.39,41.51,14.41,48.72a86.71,86.71,0,0,0-27,11.1c-2.17,1.35-4.29,2.77-6.34,4.29a88.84,88.84,0,0,0-22.89,25.14,106.72,106.72,0,0,1,15.88-161.67ZM272.83,451.26a88.46,88.46,0,0,0-2.36,15.5q-.18,2.81-.18,5.58a88.66,88.66,0,0,0,1.77,17.57,79.71,79.71,0,0,1-62.25-5.42q-2.24-1.19-4.36-2.49a79.54,79.54,0,0,1-23-21.39L181.32,459l-1.93-.22a79.59,79.59,0,0,1-28.16-8.8c-1.49-.79-2.95-1.63-4.38-2.5A80,80,0,0,1,118.14,341.9c.79-1.49,1.62-2.93,2.48-4.35a79.72,79.72,0,0,1,18.64-20.93l2.14-1.69-.57-2.67a79.62,79.62,0,0,1,7.62-54c.79-1.49,1.63-2.95,2.5-4.38a80,80,0,0,1,105.62-28.71l.44.24a115.16,115.16,0,0,0-12.09,30.47c-2.07,8.64-2.7,17.67-3.17,26.94-.27,5.25.87,13.72,2,20.32-5.3.1-21.13.91-36.7,7.69-8.45,3.69-16.88,9.22-23.23,17.55s-10.46,19.39-10.44,33.42a89.31,89.31,0,0,0,1.69,16.68l.06.33.12.31c3.94,11.12,9.72,19.12,16.53,24.31a35.88,35.88,0,0,0,21.92,7.45h0A39.81,39.81,0,0,0,239,401.6c6.76-5.68,11.46-13.69,11.48-22.67a25.27,25.27,0,0,0-.77-6.18,5.31,5.31,0,0,0-.2-.56,4.37,4.37,0,0,0-8.31,2.68,16.89,16.89,0,0,1,.5,4.06c0,5.77-3.11,11.54-8.35,15.95a31.09,31.09,0,0,1-19.65,7.22,27,27,0,0,1-16.65-5.66c-5.19-3.95-10-10.28-13.47-20a79.59,79.59,0,0,1-1.47-14.69c0-12.37,3.47-21.28,8.64-28.1,7.75-10.21,19.93-15.8,31-18.69a96.36,96.36,0,0,1,23.09-3.11h.55a5,5,0,0,0,.24.86A115.53,115.53,0,0,0,276.05,365a88.45,88.45,0,0,0-8.31,32.38c-.12,1.87-.18,3.72-.18,5.57a88.28,88.28,0,0,0,8.52,37.85A89.57,89.57,0,0,0,272.83,451.26Zm120.59,94.83-1.75-.81-1.79.75a79.52,79.52,0,0,1-30.8,6.19c-1.66,0-3.33-.05-5-.16a80,80,0,0,1-75-79.72c0-1.67.05-3.35.16-5a79.55,79.55,0,0,1,5.71-25.09l.74-1.84-.06-.13-.83-1.65a79.47,79.47,0,0,1-8.45-35.69c0-1.66.05-3.34.16-5a79.92,79.92,0,0,1,79.72-75c1.67,0,3.35.05,5,.16A79.63,79.63,0,0,1,386,328.6l2.31.84a107,107,0,0,1,25.34,14.38q2.31,1.79,4.61,3.78a89.6,89.6,0,0,1,7.79,7.7c10.6,11.87,19,28.09,19,50.26q0,3.82-.35,7.9C442.82,435,435,449,425,457.7a52.11,52.11,0,0,1-34.29,12.38c-12,.05-22.9-4-28.27-9.36-8.08-7.91-12.2-17.78-12.2-27.1a29.44,29.44,0,0,1,6.4-18.52c4.33-5.47,11-10.09,20.54-12.88a4.38,4.38,0,0,0-2-8.51,3.89,3.89,0,0,0-.47.09c-11,3.2-19.39,8.8-25,15.85a38.24,38.24,0,0,0-8.29,24c0,11.91,5.22,24,14.83,33.37,7.83,7.56,20.54,11.82,34.41,11.87a60.91,60.91,0,0,0,40-14.54c11.92-10.33,20.75-26.74,22.75-50.11.26-3,.38-5.84.38-8.65a82.44,82.44,0,0,0-23-58.05c-2.23-2.36-4.52-4.53-6.82-6.54-1-.88-2-1.73-3-2.54a114.88,114.88,0,0,0-25-15.26,79.52,79.52,0,0,1,48.85-16.75l1.28,0c1.25,0,2.49.06,3.75.14a79.91,79.91,0,0,1,75,79.72c0,1.22,0,2.45-.1,3.68,0,.45,0,.9-.06,1.36a79.6,79.6,0,0,1-21.76,50l-1.88,2,.94,2.56A79.24,79.24,0,0,1,506.86,470c.05,1.14.08,2.29.08,3.44q0,2.49-.15,5a80,80,0,0,1-79.72,75c-1.68,0-3.36-.05-5.05-.15A79.7,79.7,0,0,1,393.42,546.09Zm273.2-57.84c.16,1.69.25,3.36.29,5A79.64,79.64,0,0,1,647,548.06l-1.79,2,1,2.66a79.76,79.76,0,0,1,6.2,24.57c.15,1.69.25,3.37.29,5a80,80,0,0,1-72.89,81.65q-2.52.22-5,.3A79.64,79.64,0,0,1,539,656.72l-1.8-.85-1.82.79A79.64,79.64,0,0,1,510.41,663c-1.69.15-3.37.25-5,.29a80,80,0,0,1-81.65-72.89c-.15-1.68-.24-3.35-.28-5a79,79,0,0,1,2.84-23.16h.79a88.52,88.52,0,0,0,57-20.84c5.44,10.78,14.88,21.73,30.47,29.89a61,61,0,0,0,65.51-5.91c10.05-8,16.85-19.49,16.85-32.66a42.44,42.44,0,0,0-4.28-18.19c-4.1-8.74-10.13-14.27-16.35-17.38a39.11,39.11,0,0,0-17.54-3.95,41.81,41.81,0,0,0-10.69,1.3,4.38,4.38,0,0,0-3,5.42,4.49,4.49,0,0,0,.7,1.4,4.38,4.38,0,0,0,4.72,1.61h.08a34.4,34.4,0,0,1,8.2-.94,30.24,30.24,0,0,1,13.59,3c4.6,2.34,9,6.21,12.36,13.29a33.59,33.59,0,0,1,3.44,14.44c0,10-5.13,19.07-13.54,25.8a51.94,51.94,0,0,1-32,10.86,51.26,51.26,0,0,1-23.94-5.86C504,555.85,496,546,491.34,536.31c-.19-.39-.35-.78-.52-1.16A88.41,88.41,0,0,0,515.55,479h0c.11-1.86.17-3.71.17-5.55,0-.94,0-1.88-.06-2.82a88.2,88.2,0,0,0-4.52-25.25c1.08-1.21,5.5-6.54,6.93-8.72a81.91,81.91,0,0,1,14.38-13.57,70.57,70.57,0,0,1,42.34-14.27c15.8,0,34.86,5.18,57.29,20.39.36.28.59.45.59.44A79.73,79.73,0,0,1,666.62,488.25Zm11-126.81q-1.41,2.1-2.93,4.08a79.45,79.45,0,0,1-28.43,23.17l-1.79.87-.53,1.92a79.75,79.75,0,0,1-10.74,23.38c-.73,1.08-1.48,2.13-2.25,3.16-21.08-13-39.91-18-56.13-17.95A79.14,79.14,0,0,0,529,414.83a89.5,89.5,0,0,0,4.51-22.94c.12-1.88.17-3.74.17-5.59a88.47,88.47,0,0,0-23.57-60.13A93.91,93.91,0,0,0,524.52,276h0c0-.69,0-1.37,0-2.06a64,64,0,0,1,24.87-8.43,51.07,51.07,0,0,1,6.82-.46,52.82,52.82,0,0,1,35.17,13.68c9.09,8.21,14.56,19.06,14.54,29.46,0,7.76-2.88,15.41-10,22.45-6.7,6.58-13.22,8.38-19.21,8.43a33,33,0,0,1-13-2.91,36.45,36.45,0,0,1-3.92-2c-.45-.27-.8-.48-1-.63l-.23-.15,0,0a4.39,4.39,0,0,0-5.14,7.11,43.22,43.22,0,0,0,23.35,7.4h.18c7.88,0,17.05-2.84,25.2-11,8.61-8.47,12.58-18.67,12.55-28.69,0-13.48-6.85-26.4-17.43-36a61.53,61.53,0,0,0-41.05-15.94,58.61,58.61,0,0,0-8,.54,73.58,73.58,0,0,0-24.39,7.47,93.91,93.91,0,0,0-10.41-32.78,94.93,94.93,0,0,0-25.8-30.41h0a80,80,0,0,1,108-17.6q2.11,1.42,4.09,2.94a79.71,79.71,0,0,1,30.07,49.94l.4,2.62,2.73.86a79.85,79.85,0,0,1,23,10.64q2.11,1.42,4.09,2.94A80,80,0,0,1,677.59,361.44Z" transform="translate(-99.5 -126.46)"/></g></g></g></g></svg>