<?xml version="1.0" encoding="utf-8"?>
<!-- Generator: Adobe Illustrator 25.2.3, SVG Export Plug-In . SVG Version: 6.00 Build 0)  -->
<svg version="1.1" id="Layer_1" xmlns="http://www.w3.org/2000/svg" xmlns:xlink="http://www.w3.org/1999/xlink" x="0px" y="0px"
	 viewBox="0 0 202.6 51.2" style="enable-background:new 0 0 202.6 51.2;" xml:space="preserve">
<style type="text/css">
	.st0{fill:#003668;}
	.st1{fill:#E6002D;}
	.st2{fill:#595857;}
</style>
<g id="Layer_2_1_">
	<g id="레이어_1">
		<path class="st0" d="M39.6,24.5c-4.2-2.9-10-1.9-12.9,2.3c-0.1,0.1-0.2,0.3-0.3,0.4c-2.7,4.3-8.4,5.6-12.8,2.8
			c-1.9-1.2-3.4-3.2-4-5.4l0,0v-0.1v-0.1c-0.3-1.2-0.5-2.4-0.5-3.7c0-8.3,8.5-17.5,20.8-17.5c12.5,0,19.7,9.6,21.6,14.9l-0.1-0.3
			C46.8,4,31.8-3.4,18,1.2C7.2,4.8-0.1,15,0,26.4c0,13,9.4,24.2,22.4,24.2c10.4,0,17.4-5.8,20.6-13.9C44.9,32.3,43.5,27.2,39.6,24.5
			"/>
		<path class="st1" d="M51.7,18.6C50.2,13.4,42.9,3.2,30,3.2c-12.2,0-20.8,9.2-20.8,17.5c0,1.2,0.1,2.5,0.5,3.7
			c-0.2-0.6-0.2-1.3-0.2-1.9C9.4,13.9,18,8,26.9,8c12,0,21.7,9.7,21.8,21.7c0,9.1-5.1,17.4-13.3,21.5l0,0
			c10.5-3.8,17.4-13.7,17.4-24.8C52.8,23.8,52.4,21.2,51.7,18.6"/>
		<path class="st2" d="M79.8,26v5.7h-2.4v-3.6H65V26H79.8z M71.2,38.2v-2.8h-7.6v-2.1h17.6v2.1h-7.6v2.8h6.2v6.7h-2.4v-4.6H64.8
			v-2.1C64.8,38.2,71.2,38.2,71.2,38.2z"/>
		<path class="st2" d="M98.1,25.6h2.4v10.7h-2.4V25.6z M98.2,40.5H87.8v1.9h10.3L98.2,40.5L98.2,40.5z M85.5,37h2.3v1.6h10.3V37h2.3
			v7.4h-15L85.5,37z M94.7,36H84.4v-5.9h7.8v-1.9h-7.8v-2h10.1v5.9h-7.8V34h8V36z"/>
		<path class="st2" d="M115.1,41.2c0-0.6-0.3-1.3-0.7-1.7c-1-1-2.5-1-3.5,0l0,0c-0.9,0.9-1,2.3-0.1,3.3l0.1,0.1c1,1,2.5,1,3.5,0l0,0
			C114.8,42.5,115.1,41.9,115.1,41.2 M120.2,27.9h-6.5l6.8,3.6l-1.1,1.8l-6.8-3.6l-6.9,3.6l-1.1-1.8l6.8-3.6H105v-2h15.1L120.2,27.9
			z M111.4,36.9v-1.1h-7.6v-2h17.6v2h-7.6V37c0.2,0.1,0.5,0.1,0.7,0.2c0.6,0.2,1.1,0.6,1.5,1s0.8,0.9,1,1.4c0.5,1.1,0.5,2.4,0,3.5
			c-0.2,0.5-0.6,1-1,1.4s-1,0.8-1.5,1c-1.2,0.5-2.5,0.5-3.7,0c-0.6-0.2-1.1-0.6-1.5-1s-0.8-0.9-1-1.4c-0.5-1.1-0.5-2.4,0-3.5
			c0.2-0.5,0.6-1,1-1.4s1-0.8,1.5-1C110.9,37,111.1,36.9,111.4,36.9"/>
		<path class="st2" d="M139.4,35.8H137V25.6h2.4v3.9h2.8v2.4h-2.7v3.9H139.4z M136.2,40.6c0-0.7-0.3-1.4-0.8-1.9s-1.2-0.8-2-0.8
			c-1.5,0-2.7,1.2-2.8,2.8c0,0.7,0.3,1.4,0.8,1.9s1.2,0.8,1.9,0.8s1.5-0.3,2-0.8C135.9,42,136.2,41.3,136.2,40.6 M138.5,40.6
			c0,0.6-0.1,1.3-0.4,1.9c-0.3,0.6-0.6,1.1-1.1,1.5s-1,0.8-1.6,1c-0.6,0.3-1.3,0.4-2,0.4s-1.4-0.1-2-0.4c-0.6-0.2-1.1-0.6-1.6-1
			s-0.8-0.9-1.1-1.5s-0.4-1.2-0.4-1.9c0-0.6,0.1-1.3,0.4-1.9c0.3-0.6,0.6-1.1,1.1-1.5s1-0.8,1.6-1c0.6-0.3,1.3-0.4,2-0.4
			s1.4,0.1,2,0.4c0.6,0.2,1.1,0.6,1.6,1s0.8,0.9,1.1,1.5C138.5,39.3,138.6,40,138.5,40.6 M131.7,30.6c0-1.6-1.3-2.8-2.9-2.8
			c-0.8,0-1.5,0.3-2,0.8c-1.1,1.1-1.1,2.9,0,4c0.5,0.5,1.2,0.8,2,0.8s1.5-0.3,2-0.8C131.4,32.2,131.7,31.4,131.7,30.6 M134,30.7
			c0,0.7-0.1,1.3-0.4,1.9c-0.3,0.6-0.6,1.1-1.1,1.5c-1,0.9-2.3,1.4-3.6,1.4c-2,0-3.9-1.2-4.8-3c-0.3-0.6-0.4-1.2-0.4-1.9
			c0-0.7,0.1-1.3,0.4-1.9s0.7-1.1,1.1-1.5c0.5-0.5,1-0.8,1.6-1.1c0.6-0.3,1.3-0.4,2-0.4s1.4,0.1,2,0.4c0.6,0.2,1.2,0.6,1.6,1.1
			c0.5,0.4,0.8,1,1.1,1.5C133.9,29.4,134,30,134,30.7"/>
		<path class="st2" d="M159.5,36.4h-2.4V25.6h2.4v4h2.8V32h-2.8V36.4z M151.7,30.7h-5.3v3h5.3V30.7z M144.4,37.5h15.1v7.1h-2.4v-5
			h-12.7L144.4,37.5L144.4,37.5z M144,26h2.4v2.6h5.3V26h2.3v9.7h-10V26z"/>
		<path class="st2" d="M177.9,27.8h-10.1V30h10.1V27.8z M165.4,25.9h14.8V32h-14.8V25.9z M171.6,36.5v-1.3H164v-2h17.6v2H174v1.3
			h6.2v4.9h-12.4v1.2h12.7v2h-15.1v-5h12.4v-1.1h-12.4v-1.9h6.2V36.5z"/>
		<path class="st2" d="M200.1,38.2h-2.4V25.6h2.4v5.2h2.4V33h-2.4V38.2z M185.1,44.5v-5.8h2.4v3.7h12.9v2.1H185.1z M192.8,33.2v-5.1
			h-8.2V26h10.5v7.2H192.8z M196.3,35v2.1h-12.4V35h3.9v-4.3h2.4V35H196.3z"/>
		<path class="st2" d="M96,12.5V14h-5.3v2.1H89V14h-5.4v-1.5H96z M84.6,5.9H95v5.2H84.6V5.9z M86.3,14.9v2.6h8.9V19H84.6v-4
			L86.3,14.9z M93.3,7.4h-7.1v2.4h7.1V7.4z"/>
		<path class="st2" d="M106.3,17.9h-8.9v-1.5h3.6v-1.7c-0.2,0-0.3-0.1-0.5-0.2c-0.4-0.1-0.8-0.4-1.1-0.6c-0.3-0.3-0.5-0.6-0.7-1
			s-0.3-0.8-0.3-1.2s0.1-0.8,0.3-1.2c0.2-0.4,0.4-0.7,0.7-1c0.3-0.3,0.6-0.5,1-0.7s0.8-0.2,1.3-0.2c0.4,0,0.9,0.1,1.3,0.2
			c0.4,0.2,0.7,0.4,1,0.7s0.5,0.6,0.7,1s0.3,0.8,0.3,1.2s0,0.8-0.2,1.2s-0.4,0.7-0.7,1c-0.3,0.3-0.6,0.5-1,0.6
			c-0.2,0.1-0.3,0.1-0.5,0.2v1.7h3.7L106.3,17.9z M100.8,7.1V5.7h1.8v1.4h3.3v1.4h-8.4V7.1H100.8z M103.4,11.8
			c0-0.4-0.2-0.8-0.5-1.1c-0.7-0.6-1.7-0.6-2.4,0c-0.3,0.3-0.5,0.7-0.5,1.1c0,0.9,0.8,1.7,1.7,1.7c0.4,0,0.8-0.2,1.2-0.5
			C103.2,12.7,103.4,12.3,103.4,11.8 M108.9,19.3h-1.7V5.8h1.7v5.9h1.7v1.6h-1.7V19.3z"/>
		<path class="st2" d="M111.4,8.6V7.1h2.9V5.7h1.8v1.4h2.7v1.4h-3.1l3.2,8.5l-1.5,0.5l-2.3-6.1l-2.3,6.2l-1.5-0.5l3.2-8.6L111.4,8.6
			z M119.8,5.8h1.6v13.4h-1.6v-6.5H118v-1.5h1.8V5.8z M122.6,5.8h1.6v13.5h-1.6V5.8z"/>
		<path class="st2" d="M137.4,15.1v4.2h-1.7v-2.7h-9.1v-1.4h2.2v-1.6h-2.9v-1.4h12.4v1.4h-2.9v1.6L137.4,15.1L137.4,15.1z
			 M135.5,8.5c0,0.4-0.1,0.8-0.3,1.2s-0.4,0.7-0.7,1s-0.7,0.5-1.1,0.7c-0.4,0.2-0.8,0.3-1.3,0.3c-0.4,0-0.9-0.1-1.3-0.3
			c-0.4-0.2-0.7-0.4-1.1-0.7c-0.3-0.3-0.5-0.6-0.7-1s-0.3-0.8-0.3-1.2s0.1-0.8,0.3-1.2c0.2-0.4,0.4-0.7,0.7-1s0.7-0.5,1.1-0.7
			c0.4-0.2,0.9-0.2,1.3-0.3c0.4,0,0.9,0.1,1.3,0.3c0.4,0.2,0.8,0.4,1.1,0.7c0.3,0.3,0.5,0.6,0.7,1C135.4,7.7,135.5,8.1,135.5,8.5
			 M130.3,15.1h3.7v-1.6h-3.6L130.3,15.1z M133.8,8.5c0-0.4-0.2-0.9-0.5-1.2c-0.3-0.3-0.7-0.5-1.2-0.5c-0.4,0-0.9,0.2-1.2,0.5
			s-0.5,0.7-0.5,1.2c0,0.4,0.2,0.9,0.5,1.2s0.8,0.5,1.2,0.5s0.9-0.2,1.2-0.5C133.7,9.4,133.8,9,133.8,8.5"/>
		<path class="st2" d="M148.2,12.2v1.5h-8.1v-1.5h2.7V9.3h1.6v2.9C144.4,12.2,148.2,12.2,148.2,12.2z M146.1,11V7.5h-5.6V6h7.2v5
			H146.1z M142.4,14.8v2.7h9.4V19h-11v-4.2H142.4z M151.4,14.2h-1.7V5.8h1.7v3.3h1.7v1.6h-1.7V14.2z"/>
		<path class="st2" d="M157,11.6V8.9h1.6v2.6h3.8V13h-8.1v-1.4H157z M160.3,10.4V7.5h-5.6V6h7.2v4.3L160.3,10.4z M164.4,16.6
			c0,0.4-0.1,0.8-0.3,1.2c-0.2,0.4-0.4,0.7-0.7,1s-0.6,0.5-1,0.7s-0.9,0.3-1.3,0.3c-0.4,0-0.9-0.1-1.3-0.3c-0.4-0.2-0.8-0.4-1.1-0.7
			c-0.3-0.3-0.5-0.6-0.7-1s-0.3-0.8-0.3-1.2c0-0.4,0.1-0.8,0.3-1.2s0.4-0.7,0.7-1s0.7-0.5,1.1-0.7c0.4-0.2,0.9-0.3,1.3-0.3
			c1.3,0,2.5,0.7,3.1,1.9C164.3,15.8,164.4,16.2,164.4,16.6 M162.7,16.6c0-0.4-0.2-0.9-0.5-1.2s-0.7-0.5-1.2-0.5
			c-0.4,0-0.9,0.2-1.2,0.5s-0.5,0.7-0.5,1.2c0,0.4,0.2,0.9,0.5,1.2c0.3,0.3,0.8,0.5,1.2,0.5s0.9-0.2,1.2-0.5
			C162.6,17.5,162.7,17.1,162.7,16.6 M165.6,13.2h-1.7V5.8h1.7v2.8h1.7v1.6h-1.7V13.2z"/>
		<path class="st2" d="M168.2,14.3h12.4v1.5h-5.4v3.5h-1.7v-3.5h-5.4L168.2,14.3L168.2,14.3z M170.8,7.7h7.2V6h1.7v6.5h-10.5V6h1.6
			V7.7z M178,9.1h-7.1V11h7.1V9.1z"/>
	</g>
</g>
</svg>
