<svg xmlns="http://www.w3.org/2000/svg" viewBox="0 0 99.51 23.79"><defs><style>.cls-1{fill:#003668;}.cls-2{fill:#e6002d;}.cls-3{fill:#fff;}</style></defs><g id="Layer_2" data-name="Layer 2"><g id="레이어_1" data-name="레이어 1"><path class="cls-1" d="M18.37,11.35a4.29,4.29,0,0,0-6.1,1.29A4.3,4.3,0,0,1,4.5,11.46h0v-.1a5.47,5.47,0,0,1-.22-1.71c0-3.85,4-8.13,9.63-8.13a10.82,10.82,0,0,1,10,6.89l0-.13A12.26,12.26,0,0,0,0,12.26c0,6,4.37,11.24,10.42,11.24A9.85,9.85,0,0,0,20,17.05a4.74,4.74,0,0,0-1.62-5.7"/><path class="cls-2" d="M24,8.65A10.8,10.8,0,0,0,13.89,1.52c-5.68,0-9.63,4.28-9.63,8.13a5.47,5.47,0,0,0,.22,1.71,3.37,3.37,0,0,1-.11-.88c0-4,4-6.78,8.13-6.78A10.1,10.1,0,0,1,22.61,13.81a11.14,11.14,0,0,1-6.18,10h0A12.28,12.28,0,0,0,24,8.65"/><polygon class="cls-3" points="33.25 20.46 31.78 17.3 31.78 20.46 31.13 20.46 31.13 16.58 32.09 16.58 33.56 19.75 33.56 16.58 34.2 16.58 34.2 20.46 33.25 20.46"/><path class="cls-3" d="M36,20a1.07,1.07,0,0,0,.49-.12.81.81,0,0,0,.34-.28v-.47h-.56a1.35,1.35,0,0,0-.67.12.4.4,0,0,0-.18.33.35.35,0,0,0,.16.3A.66.66,0,0,0,36,20m.18-1.37h.65a.46.46,0,0,0-.21-.41,1.12,1.12,0,0,0-.61-.14h0a2,2,0,0,0-.8.18L35,17.8a2.54,2.54,0,0,1,1-.2h0a1.83,1.83,0,0,1,1.08.27,1,1,0,0,1,.37.86v1.73h-.6v-.31a1.28,1.28,0,0,1-.43.28,1.42,1.42,0,0,1-.53.1,1.17,1.17,0,0,1-.81-.27.8.8,0,0,1-.31-.65.84.84,0,0,1,.38-.7,1.75,1.75,0,0,1,1-.25"/><path class="cls-3" d="M39,16.77v.9h.61v.51H39V19.6a.32.32,0,0,0,.1.28.43.43,0,0,0,.27.07h.24v.51h-.39a.9.9,0,0,1-.65-.2.78.78,0,0,1-.21-.6V18.18h-.48v-.51h.48v-.9Z"/><path class="cls-3" d="M40.14,17.67h.64v2.79h-.64Zm.72-.87a.39.39,0,0,1-.12.28.38.38,0,0,1-.28.12.38.38,0,0,1-.29-.12.39.39,0,0,1-.12-.28.4.4,0,0,1,.12-.29.38.38,0,0,1,.29-.12.38.38,0,0,1,.28.12.4.4,0,0,1,.12.29"/><path class="cls-3" d="M42.83,20a.79.79,0,0,0,.6-.26,1.06,1.06,0,0,0,0-1.34.8.8,0,0,0-.6-.27.76.76,0,0,0-.58.27,1,1,0,0,0,0,1.34.75.75,0,0,0,.58.26m0,.53a1.43,1.43,0,0,1-1-.42,1.47,1.47,0,0,1,0-2.08,1.4,1.4,0,0,1,1-.43,1.43,1.43,0,0,1,1.05.43,1.47,1.47,0,0,1,0,2.08,1.46,1.46,0,0,1-1.05.42"/><path class="cls-3" d="M45.48,19.06v1.4h-.63V17.67h.61V18a.87.87,0,0,1,.32-.31.84.84,0,0,1,.46-.13,1,1,0,0,1,.79.34,1.29,1.29,0,0,1,.3.9v1.62H46.7V19a1.15,1.15,0,0,0-.15-.66.49.49,0,0,0-.44-.21.52.52,0,0,0-.31.1.69.69,0,0,0-.22.28,1.39,1.39,0,0,0-.1.55"/><path class="cls-3" d="M49.1,20a1.07,1.07,0,0,0,.48-.12.85.85,0,0,0,.35-.28v-.47h-.56a1.32,1.32,0,0,0-.67.12.39.39,0,0,0-.19.33.38.38,0,0,0,.16.3.69.69,0,0,0,.43.12m.17-1.37h.66a.46.46,0,0,0-.21-.41,1.19,1.19,0,0,0-.62-.14h0a2,2,0,0,0-.8.18l-.17-.49a2.58,2.58,0,0,1,1-.2h0a1.83,1.83,0,0,1,1.08.27,1,1,0,0,1,.38.86v1.73H50v-.31a1.33,1.33,0,0,1-.44.28,1.39,1.39,0,0,1-.53.1,1.2,1.2,0,0,1-.81-.27.83.83,0,0,1,.08-1.35,1.69,1.69,0,0,1,1-.25"/><rect class="cls-3" x="51.29" y="16.32" width="0.63" height="4.14"/><polygon class="cls-3" points="58.24 16.58 58.24 20.46 57.61 20.46 57.61 17.34 56.6 20.46 56 20.46 54.98 17.34 54.98 20.46 54.36 20.46 54.36 16.58 55.32 16.58 56.3 19.6 57.28 16.58 58.24 16.58"/><path class="cls-3" d="M60.84,19.07v-1.4h.63v2.79h-.61v-.37a.71.71,0,0,1-.31.31.9.9,0,0,1-.47.13,1,1,0,0,1-.79-.34,1.29,1.29,0,0,1-.3-.9V17.67h.63v1.46a1.17,1.17,0,0,0,.15.66.55.55,0,0,0,.75.11.67.67,0,0,0,.23-.27,1.46,1.46,0,0,0,.09-.56"/><path class="cls-3" d="M62,19.94l.39-.4a1.5,1.5,0,0,0,.37.35.79.79,0,0,0,.42.12.69.69,0,0,0,.36-.09.26.26,0,0,0,.15-.23.24.24,0,0,0-.15-.22,1.69,1.69,0,0,0-.33-.16l-.47-.16a1.06,1.06,0,0,1-.47-.3.64.64,0,0,1-.15-.42.7.7,0,0,1,.32-.59,1.23,1.23,0,0,1,.76-.24,1.26,1.26,0,0,1,.77.23.81.81,0,0,1,.24.28l-.4.38a.74.74,0,0,0-.18-.21.67.67,0,0,0-.46-.17.45.45,0,0,0-.28.09.22.22,0,0,0-.12.19.22.22,0,0,0,.13.2,1.76,1.76,0,0,0,.4.17l.21.06a1.51,1.51,0,0,1,.62.35.69.69,0,0,1,.21.5.72.72,0,0,1-.34.6,1.35,1.35,0,0,1-.85.26,1.52,1.52,0,0,1-.77-.2,1.18,1.18,0,0,1-.38-.39"/><path class="cls-3" d="M65.25,18.84h1.54a.71.71,0,0,0-.22-.49.75.75,0,0,0-.56-.23.69.69,0,0,0-.56.25.81.81,0,0,0-.2.47m0,.51a.64.64,0,0,0,.24.41,1,1,0,0,0,.7.25,1.31,1.31,0,0,0,.87-.34l.19.47a1.59,1.59,0,0,1-1.07.39,1.67,1.67,0,0,1-1.15-.4,1.35,1.35,0,0,1-.45-1.06A1.43,1.43,0,0,1,65,18a1.33,1.33,0,0,1,1-.42A1.39,1.39,0,0,1,67,18a1.44,1.44,0,0,1,.39,1,1.62,1.62,0,0,1,0,.32Z"/><path class="cls-3" d="M69.82,19.07v-1.4h.63v2.79h-.6v-.37a.79.79,0,0,1-.32.31.9.9,0,0,1-.47.13,1,1,0,0,1-.79-.34,1.29,1.29,0,0,1-.3-.9V17.67h.63v1.46a1.17,1.17,0,0,0,.15.66.55.55,0,0,0,.75.11.67.67,0,0,0,.23-.27,1.46,1.46,0,0,0,.09-.56"/><path class="cls-3" d="M74.15,17.6a.9.9,0,0,1,.76.34,1.4,1.4,0,0,1,.28.9v1.62h-.63V19a1.38,1.38,0,0,0-.12-.66.41.41,0,0,0-.39-.21.45.45,0,0,0-.28.09.55.55,0,0,0-.19.27,1.18,1.18,0,0,0-.08.51v1.46h-.63V19a1.38,1.38,0,0,0-.12-.66.41.41,0,0,0-.39-.21.45.45,0,0,0-.28.09.85.85,0,0,0-.19.27,1.62,1.62,0,0,0-.08.54h0v1.43h-.62V17.67h.59V18a.76.76,0,0,1,.72-.44.8.8,0,0,1,.77.51,1.08,1.08,0,0,1,.35-.38,1,1,0,0,1,.53-.13"/><path class="cls-3" d="M78.8,20a.77.77,0,0,0,.6-.26,1,1,0,0,0,0-1.34.78.78,0,0,0-.6-.27.76.76,0,0,0-.58.27,1,1,0,0,0,0,1.34.75.75,0,0,0,.58.26m0,.53a1.45,1.45,0,0,1-1-.42,1.47,1.47,0,0,1,0-2.08,1.42,1.42,0,0,1,1-.43,1.47,1.47,0,0,1,1,2.51,1.42,1.42,0,0,1-1,.42"/><path class="cls-3" d="M81,17.11a.74.74,0,0,1,.22-.59.94.94,0,0,1,.67-.2h.31v.5H82a.43.43,0,0,0-.27.08.31.31,0,0,0-.1.27v.5h.56v.51h-.56v2.28H81V18.18h-.48v-.51H81Z"/><polygon class="cls-3" points="85.02 18.38 86.63 16.58 87.42 16.58 85.69 18.51 87.41 20.46 86.61 20.46 85.02 18.66 85.02 20.46 84.37 20.46 84.37 16.58 85.02 16.58 85.02 18.38"/><path class="cls-3" d="M88.83,20a.77.77,0,0,0,.59-.26,1,1,0,0,0,0-1.34.78.78,0,0,0-.59-.27.76.76,0,0,0-.59.27,1,1,0,0,0,0,1.34.75.75,0,0,0,.59.26m0,.53a1.46,1.46,0,0,1-1-.42,1.47,1.47,0,0,1,0-2.08,1.43,1.43,0,0,1,1-.43,1.47,1.47,0,0,1,1,2.51,1.42,1.42,0,0,1-1,.42"/><path class="cls-3" d="M90.85,20.46V17.67h.59v.42a1,1,0,0,1,.34-.32,1,1,0,0,1,.57-.14h0v.56h-.07a.81.81,0,0,0-.62.24,1,1,0,0,0-.22.73v1.3Z"/><path class="cls-3" d="M93.24,18.84h1.55a.78.78,0,0,0-1.35-.47.88.88,0,0,0-.2.47m0,.51a.74.74,0,0,0,.24.41,1,1,0,0,0,.71.25,1.27,1.27,0,0,0,.86-.34l.19.47a1.57,1.57,0,0,1-1.07.39,1.69,1.69,0,0,1-1.15-.4,1.38,1.38,0,0,1-.44-1.06A1.47,1.47,0,0,1,93,18a1.47,1.47,0,0,1,2,0,1.41,1.41,0,0,1,.4,1,1.58,1.58,0,0,1,0,.32Z"/><path class="cls-3" d="M97,20a1.11,1.11,0,0,0,.49-.12.81.81,0,0,0,.34-.28v-.47h-.56a1.35,1.35,0,0,0-.67.12.4.4,0,0,0-.18.33.37.37,0,0,0,.15.3A.71.71,0,0,0,97,20m.17-1.37h.66a.46.46,0,0,0-.21-.41,1.15,1.15,0,0,0-.61-.14h0a2,2,0,0,0-.8.18L96,17.8a2.51,2.51,0,0,1,1-.2h0a1.82,1.82,0,0,1,1.07.27,1,1,0,0,1,.38.86v1.73h-.6v-.31a1.33,1.33,0,0,1-.44.28,1.39,1.39,0,0,1-.53.1,1.16,1.16,0,0,1-.8-.27.8.8,0,0,1-.31-.65.82.82,0,0,1,.38-.7,1.73,1.73,0,0,1,1-.25"/><path class="cls-3" d="M38.67,4.12V7H37.49V5.16H31.34v-1Zm-4.24,6V8.75H30.66v-1h8.73v1H35.61v1.39h3.08v3.31H37.51V11.17H31.25v-1Z"/><path class="cls-3" d="M47.76,3.93h1.18v5.3H47.76Zm0,7.37H42.65v1h5.13ZM41.49,9.55h1.16v.79h5.13V9.55h1.16v3.69H41.49Zm4.59-.5H41V6.15h3.85V5.21H41v-1h5V7.11H42.13v1h3.95Z"/><path class="cls-3" d="M56.15,11.65a1.16,1.16,0,0,0-.36-.85,1.24,1.24,0,0,0-.86-.35,1.21,1.21,0,0,0-.86.35,1.2,1.2,0,0,0,.86,2,1.2,1.2,0,0,0,.86-.35,1.16,1.16,0,0,0,.36-.85M58.68,5H55.47l3.39,1.8-.54.87-3.39-1.8-3.4,1.8L51,6.84,54.38,5h-3.2V4h7.5ZM54.33,9.51V8.93H50.56v-1H59.3v1H55.51v.58a1.69,1.69,0,0,1,.34.11,2.38,2.38,0,0,1,1.27,1.17,2,2,0,0,1,0,1.72,2.38,2.38,0,0,1-.51.7,2.51,2.51,0,0,1-.76.47,2.47,2.47,0,0,1-1.85,0,2.78,2.78,0,0,1-.76-.47,2.38,2.38,0,0,1-.51-.7,2,2,0,0,1,0-1.72,2.34,2.34,0,0,1,.51-.69A2.58,2.58,0,0,1,54,9.62a2.13,2.13,0,0,1,.33-.11"/><path class="cls-3" d="M68.21,9H67v-5h1.17v1.9h1.37V7H68.21Zm-1.57,2.37A1.38,1.38,0,0,0,65.26,10a1.29,1.29,0,0,0-1,.4,1.31,1.31,0,0,0-.4,1,1.28,1.28,0,0,0,.4,1,1.33,1.33,0,0,0,1,.4,1.35,1.35,0,0,0,1-.4,1.28,1.28,0,0,0,.41-1m1.15,0a2.17,2.17,0,0,1-.2.92,2.76,2.76,0,0,1-.54.76,2.69,2.69,0,0,1-.8.52,2.45,2.45,0,0,1-1,.19,2.52,2.52,0,0,1-1-.19,2.88,2.88,0,0,1-.81-.52,2.56,2.56,0,0,1-.54-.76,2.17,2.17,0,0,1-.2-.92,2.24,2.24,0,0,1,.2-.92,2.19,2.19,0,0,1,.54-.75,2.88,2.88,0,0,1,.81-.52,2.52,2.52,0,0,1,1-.19,2.45,2.45,0,0,1,1,.19,2.69,2.69,0,0,1,.8.52,2.33,2.33,0,0,1,.54.75,2.24,2.24,0,0,1,.2.92m-3.4-4.93A1.43,1.43,0,0,0,63,5a1.33,1.33,0,0,0-1,.42,1.37,1.37,0,0,0-.41,1,1.4,1.4,0,0,0,.41,1,1.36,1.36,0,0,0,1,.41,1.42,1.42,0,0,0,1.42-1.42m1.14,0a2.17,2.17,0,0,1-.21,1,2.6,2.6,0,0,1-.55.76,2.64,2.64,0,0,1-.81.53,2.72,2.72,0,0,1-1,.19,2.63,2.63,0,0,1-1-.19,2.82,2.82,0,0,1-.82-.53,2.63,2.63,0,0,1-.56-.76,2.17,2.17,0,0,1-.21-1,2.23,2.23,0,0,1,.21-1,2.63,2.63,0,0,1,.56-.76A2.79,2.79,0,0,1,62,4.18,2.45,2.45,0,0,1,63,4a2.53,2.53,0,0,1,1,.19,2.56,2.56,0,0,1,1.36,1.28,2.23,2.23,0,0,1,.21,1"/><path class="cls-3" d="M78.17,9.26H77V3.93h1.17v2h1.36V7.09H78.17ZM74.3,6.46H71.68V7.93H74.3ZM70.69,9.83h7.48v3.52H77V10.87H70.69Zm-.18-5.7h1.17V5.44H74.3V4.13h1.15V8.92H70.51Z"/><path class="cls-3" d="M87.28,5h-5V6.11h5ZM81.12,4h7.33v3H81.12Zm3.07,5.28V8.66H80.41v-1h8.74v1H85.37v.66h3.08v2.41H82.28v.57h6.3v1H81.12V10.8h6.16v-.55H81.12V9.32Z"/><path class="cls-3" d="M98.29,10.17H97.11V3.93h1.18V6.48h1.22V7.56H98.29Zm-7.4,3.1V10.41h1.18v1.82h6.39v1Zm3.8-5.59V5.15h-4v-1h5.21V7.68Zm1.7.9v1H90.22v-1h1.93V6.46h1.17V8.58Z"/></g></g></svg>