<svg xmlns="http://www.w3.org/2000/svg" viewBox="0 0 39.58 36.71"><g id="Layer_2" data-name="Layer 2"><g id="_·_ÀÌ_î_1" data-name="·¹ÀÌ¾î_1"><path d="M8.64,13.55A1.36,1.36,0,1,0,10,14.91,1.36,1.36,0,0,0,8.64,13.55Z"/><path d="M22.1,13.4a1.47,1.47,0,1,0,1.47,1.47A1.47,1.47,0,0,0,22.1,13.4Z"/><path d="M34.29,0h-29A5.29,5.29,0,0,0,0,5.29V22.5a5.29,5.29,0,0,0,5.29,5.29H15.53L19,36s.24.71.82.71h0c.58,0,.82-.71.82-.71l3.48-8.21H34.29a5.29,5.29,0,0,0,5.29-5.29V5.29A5.29,5.29,0,0,0,34.29,0ZM12.44,15.21c0,3.14-3.27,3.24-3.27,3.24a2.71,2.71,0,0,1-2-.84v.57H4.83V8.41h0c.15,0,2.37,0,2.37,0v3.73c.56-1,2.17-.93,2.17-.93C12.87,11.53,12.44,15.21,12.44,15.21Zm4.16-3.7V18.2H14.29V11.57c0-.9-1.12-1.15-1.12-1.15V8.09A3.2,3.2,0,0,1,16.6,11.51Zm5.5,6.94a3.74,3.74,0,0,1-3.89-3.58,3.75,3.75,0,0,1,3.89-3.58A3.75,3.75,0,0,1,26,14.87,3.74,3.74,0,0,1,22.1,18.45Zm12.7,0a3.31,3.31,0,0,1-3.42,3.4H30.33V19.64H31s1.45.14,1.44-2.1c0,0-.29.91-2.32.91a3.05,3.05,0,0,1-2.88-3V14.36a3.28,3.28,0,0,1,3.23-3.15,2.34,2.34,0,0,1,2,.9v-.72H34.8Z"/><path d="M31.11,13.44a1.44,1.44,0,1,0,1.44,1.43A1.43,1.43,0,0,0,31.11,13.44Z"/></g></g></svg>