<svg xmlns="http://www.w3.org/2000/svg" viewBox="0 0 123.67 123.64"><defs><style>.cls-1{fill:#070707;}</style></defs><g id="Layer_2" data-name="Layer 2"><g id="레이어_1" data-name="레이어 1"><path class="cls-1" d="M123.67,61.88A61.84,61.84,0,0,1,0,62.18C0,27.8,27.67-.11,61.71,0A61.76,61.76,0,0,1,123.67,61.88Zm-3.33-.1A58.5,58.5,0,0,0,61.79,3.32C29.42,3.26,3.33,29.65,3.32,62.45c0,31.86,26.39,57.87,58.73,57.87A58.53,58.53,0,0,0,120.34,61.78Z"/><path class="cls-1" d="M4.72,62.12a57.13,57.13,0,1,1,57.14,56.8A57.07,57.07,0,0,1,4.72,62.12Zm57.06,53A53.3,53.3,0,1,0,8.53,59.48C7.08,89.85,31.35,114.88,61.78,115.12Z"/><path class="cls-1" d="M76.62,22.21V36h6V32.49C85,33,90.94,39,91.94,41.78H70.82V14.54c15-1.13,37.93,21.81,38.51,38.66H65v6.12h2.36l40.71.07c2.29,0,2.18,0,2.31,2.87.08,1.79-.67,2.05-2.23,2-13.63-.06-27.26,0-40.9,0H64.94v6.19h44.45c-1.48,17.77-21.46,37.79-38.58,38.79V82h21.4a36.52,36.52,0,0,1-9.47,9.66V87.69H76.63v13.68c7.71-.46,24-16.64,25.05-25H64.81v2.1c0,9.82-.07,19.63,0,29.44,0,1.95-.65,2.46-2.36,2.31-1-.09-2-.11-3.23-.17V107.7c0-9.93,0-19.87.06-29.8,0-1.31-.31-1.8-1.71-1.8-11.33.05-22.66,0-34,0-.41,0-.82.08-1.22.12.11,8,17.27,24.36,25,25.12V87.53c-1.77,0-3.51-.06-5.23,0-.31,0-.76.66-.82,1.06a20.81,20.81,0,0,0,0,2.93,35.28,35.28,0,0,1-9.56-9.66,10.53,10.53,0,0,1,1.14-.15H53.19v27.3C38.37,110.34,13.66,85.6,14.75,70.41H59.14V64.3H13.86v-5H59.17V53.23H14.9C13,38.87,36.26,15.35,53.28,14.39V41.77H32.16c.72-2.39,6-7.88,9.19-9.49.07,1.24.13,2.4.2,3.66h6V22.2c-7.14.55-24.16,16.16-25.1,25H59.27V13.6h5.5V47.27h36.85C101.32,39.42,84.5,23.09,76.62,22.21Z"/></g></g></svg>