<svg xmlns="http://www.w3.org/2000/svg" viewBox="0 0 128.54 129.48"><defs><style>.cls-1{fill:#070707;}</style></defs><g id="Layer_2" data-name="Layer 2"><g id="레이어_1" data-name="레이어 1"><rect class="cls-1" x="62.51" y="0.77" width="3.34" height="128.71"/><rect class="cls-1" x="62.69" y="63.2" width="65.86" height="3.34"/><rect class="cls-1" x="87.56" y="0.77" width="3.34" height="28.52"/><rect class="cls-1" x="87.69" y="50.61" width="3.34" height="28.52"/><rect class="cls-1" x="63.63" y="50.61" width="27.15" height="3.34"/><rect class="cls-1" x="63.41" y="75.79" width="27.49" height="3.34"/><rect class="cls-1" x="99.51" y="50.61" width="3.34" height="28.52"/><rect class="cls-1" x="125.2" y="37.9" width="3.34" height="53.95"/><rect class="cls-1" x="87.56" y="100.97" width="3.34" height="28.52"/><rect class="cls-1" x="99.38" y="13.1" width="3.34" height="28.52"/><rect class="cls-1" x="111.37" y="25.44" width="3.34" height="28.52"/><rect class="cls-1" x="100.62" y="50.61" width="12.59" height="3.34"/><rect class="cls-1" x="87.56" y="26.12" width="28.69" height="3.34"/><rect class="cls-1" x="106.76" y="-6.62" width="3.34" height="53.52" transform="translate(17.52 82.57) rotate(-45)"/><rect class="cls-1" x="81.88" y="107.79" width="53.22" height="3.34" transform="translate(-45.62 108.78) rotate(-45)"/><rect class="cls-1" x="63.07" y="126.14" width="27.49" height="3.34"/><rect class="cls-1" x="62.56" width="28.13" height="3.34"/><rect class="cls-1" x="99.51" y="75.79" width="15.03" height="3.34"/><rect class="cls-1" x="111.2" y="76.3" width="3.34" height="28.52"/><rect class="cls-1" x="87.58" y="100.76" width="27.49" height="3.34"/><rect class="cls-1" x="75.63" y="88.56" width="51.64" height="3.34"/><rect class="cls-1" x="99.45" y="88.76" width="3.34" height="28.52"/><rect class="cls-1" x="75.62" y="88.7" width="3.34" height="26.78"/><rect class="cls-1" x="63.3" y="112.26" width="27.49" height="3.34"/><rect class="cls-1" x="75.61" y="38.31" width="51.6" height="3.34"/><rect class="cls-1" x="62.65" y="14.63" width="27.49" height="3.34"/><rect class="cls-1" x="75.62" y="14.84" width="3.34" height="26.78"/><rect class="cls-1" x="62.69" width="3.34" height="128.71"/><rect class="cls-1" y="62.94" width="65.85" height="3.34"/><rect class="cls-1" x="37.64" y="100.2" width="3.34" height="28.52"/><rect class="cls-1" x="37.51" y="50.36" width="3.34" height="28.52"/><rect class="cls-1" x="37.77" y="75.53" width="27.15" height="3.34"/><rect class="cls-1" x="37.64" y="50.36" width="27.49" height="3.34"/><rect class="cls-1" x="25.69" y="50.36" width="3.34" height="28.52"/><rect class="cls-1" y="37.64" width="3.34" height="53.95"/><rect class="cls-1" x="37.64" width="3.34" height="28.52"/><rect class="cls-1" x="25.82" y="87.86" width="3.34" height="28.52"/><rect class="cls-1" x="13.83" y="75.53" width="3.34" height="28.52"/><rect class="cls-1" x="15.33" y="75.53" width="12.59" height="3.34"/><rect class="cls-1" x="12.29" y="100.02" width="28.69" height="3.34"/><rect class="cls-1" x="18.45" y="82.59" width="3.34" height="53.52" transform="translate(-71.43 46.25) rotate(-45)"/><rect class="cls-1" x="-6.56" y="18.36" width="53.22" height="3.34" transform="translate(-8.29 20.04) rotate(-45)"/><rect class="cls-1" x="37.98" width="27.49" height="3.34"/><rect class="cls-1" x="37.85" y="126.14" width="28.13" height="3.34"/><rect class="cls-1" x="14" y="50.36" width="15.03" height="3.34"/><rect class="cls-1" x="14" y="24.66" width="3.34" height="28.52"/><rect class="cls-1" x="13.48" y="25.38" width="27.49" height="3.34"/><rect class="cls-1" x="1.27" y="37.59" width="51.64" height="3.34"/><rect class="cls-1" x="25.75" y="12.2" width="3.34" height="28.52"/><rect class="cls-1" x="49.58" y="14" width="3.34" height="26.78"/><rect class="cls-1" x="37.75" y="13.89" width="27.49" height="3.34"/><rect class="cls-1" x="1.34" y="87.84" width="51.6" height="3.34"/><rect class="cls-1" x="38.4" y="111.51" width="27.49" height="3.34"/><rect class="cls-1" x="49.58" y="87.86" width="3.34" height="26.78"/></g></g></svg>