<svg xmlns="http://www.w3.org/2000/svg" viewBox="0 0 122.05 122.06"><defs><style>.cls-1{fill:#070707;}</style></defs><g id="Layer_2" data-name="Layer 2"><g id="레이어_1" data-name="레이어 1"><path class="cls-1" d="M61.62,0C27.74-.16,0,26.47,0,61.06a60.67,60.67,0,0,0,61.09,61A61,61,0,0,0,61.62,0ZM103.3,22.33A58.22,58.22,0,0,1,117.42,51c.23,1.23.07,1.73-1.36,1.73a53.22,53.22,0,0,0-5.77.48c-1,.1-1.47,0-1.69-1.23a47.72,47.72,0,0,0-7.69-18.53c-.26-.39-.92-.76-.46-1.32a7.75,7.75,0,0,1,1.81-1.76c.4-.25.63.44.86.75a51.3,51.3,0,0,1,7.22,14.65A29.93,29.93,0,0,1,111.45,50c.25,1.62,1.31.8,2,.8,1.09,0,.64-.86.53-1.35a54.06,54.06,0,0,0-7.51-18c-1-1.59-2.16-3.09-3.3-4.6-.65-.85-1-.66-1.61,0-1.45,1.55-2.93,3.08-4.44,4.57-.5.49-.55.8-.1,1.39a44.87,44.87,0,0,1,9.37,22.56c.09.75.36.9,1.09.84,3-.25,6.11-.4,9.16-.67,1.07-.09,1.36.23,1.39,1.29.09,2.76.15,2.76-2.67,2.76h-4.25c-1.93,0-3.87,0-5.8,0-.8,0-1.16-.16-1.22-1.08a42.56,42.56,0,0,0-10.5-25.83c-.79-.92-.89-1.46.08-2.36,2.76-2.58,5.41-5.27,8.06-8C102.36,21.74,102.67,21.63,103.3,22.33ZM98.2,63.64c.12-1.89,1.48-.92,2.31-1.1,1-.22,1.19.45,1,1.05A41.28,41.28,0,0,1,91.32,88.15c-.45.51-.73.54-1.25.09-1.83-1.59-1.84-1.56-.3-3.43A36.26,36.26,0,0,0,98.2,63.64Zm0-5.75a36.1,36.1,0,0,0-8.56-20.81c-1.18-1.41-.9-2.65.78-3.51.51-.26.68.08.92.35a40.47,40.47,0,0,1,9.46,18.84c.34,1.66.54,3.35.75,5s.18,1.75-1.75,1.75C98.57,59.86,98.26,59.23,98.15,57.89Zm-34.53-54c3,0,3,0,2.88,2.95-.13,2.49-.37,5-.6,7.46-.07.86.17,1.22,1.11,1.34a45.49,45.49,0,0,1,22.4,9.38c.51.4.82.43,1.3,0q2.39-2.42,4.85-4.74c.77-.73.14-1-.34-1.4A54.36,54.36,0,0,0,74.66,8.55,9.34,9.34,0,0,0,73,8.19c-.58,0-1.4-.88-1.7.33-.37,1.48-.07,2,1.23,2.26A52,52,0,0,1,91,19c.85.59.81.89.14,1.65-1,1.15-1.72,1.19-3,.31a45.3,45.3,0,0,0-18-7.4c-1-.18-1.38-.51-1.22-1.65.28-2,.34-4,.44-6.06,0-1,.34-1.37,1.47-1.17a57.91,57.91,0,0,1,29,14.14c.69.62.62.94,0,1.54q-4.22,4.07-8.37,8.23a1.06,1.06,0,0,1-1.75.06,43.17,43.17,0,0,0-23-10.43,29.12,29.12,0,0,0-3.23-.28c-.83,0-1-.39-1-1.14,0-2,0-4,0-5.94s0-3.87,0-5.8C62.44,4.15,62.78,3.93,63.62,3.93ZM62.49,21.46c0-.89,0-.89,1.85-.81a40.71,40.71,0,0,1,23.45,9.8c.83.71.67,1.07,0,1.71-1.5,1.39-1.45,1.41-3,.15a37.37,37.37,0,0,0-20.61-8.45C62.36,23.68,62.36,23.7,62.49,21.46Zm-2.79.88c.18,1.15-.27,1.45-1.44,1.54a36.57,36.57,0,0,0-21.66,9c-1.54,1.33-1.72-.54-2.48-1s-.37-1.05.19-1.52a40.71,40.71,0,0,1,23.47-9.75,6.5,6.5,0,0,0,1-.08c.82-.21,1,.21.93.9A3.45,3.45,0,0,0,59.7,22.34ZM22.58,18.58a57.32,57.32,0,0,1,25-13.15c1.32-.32,2.67-.55,4-.82.59-.13,1,0,1,.72.15,2.25.35,4.5.57,6.75.09.86-.19,1.28-1.08,1.43a47.31,47.31,0,0,0-19,7.92c-.77.53-1.87,0-2.61-1.27-.53-.9.41-1,.81-1.29A50,50,0,0,1,49.52,10.8c1.07-.23,1.51-.64,1.39-1.78-.11-.94-.41-1.19-1.35-1a54,54,0,0,0-17.81,7.32c-1.58,1-3.06,2.2-4.62,3.26-1,.65-1.25,1.17-.18,2.08a51.16,51.16,0,0,1,4.12,4.08c.68.74,1.14.64,1.86.09a45,45,0,0,1,18.43-8.55,30,30,0,0,1,3.75-.65c.93-.09,1.13-.37,1-1.32-.31-3-.44-6-.7-9C55.35,4.24,55.78,4,56.8,4c2.89-.06,2.89-.1,2.89,2.84v4.1c0,1.89,0,3.78,0,5.66,0,.92-.16,1.31-1.2,1.37A43.18,43.18,0,0,0,36,25.78c-1.3.93-2.55,1.94-3.76,3-.52.45-.82.57-1.36,0-2.83-2.85-5.66-5.69-8.56-8.45C21.4,19.47,22,19.08,22.58,18.58ZM21.46,62.51c2-.13,2.3-.08,2.43,1.48A36.85,36.85,0,0,0,31,83.08a32,32,0,0,0,2.14,2.64c.46.5.57.82,0,1.39C31.4,89,31.44,89,29.8,87a41,41,0,0,1-9.23-22.83C20.79,63.57,20.09,62.59,21.46,62.51Zm.83-2.77c-1.47-.05-2-.45-1.76-1.35a41.39,41.39,0,0,1,9-23l.45-.54c1.33-1.65,1.3-1.6,2.88-.17.78.7.75,1.12.06,1.91a36.37,36.37,0,0,0-9,20.92C23.86,58.49,24.21,59.8,22.29,59.74ZM3.88,58.53c.2-3.71-.21-3.09,3.31-2.93,2.21.1,4.43.22,6.62.53,1.51.21,1.8-.47,2-1.72a44.48,44.48,0,0,1,5.83-16.7,36.09,36.09,0,0,1,3.26-4.79c.54-.66.62-1.1-.07-1.75-1.51-1.42-3-2.89-4.38-4.42-.7-.77-1.06-.54-1.6.14A55,55,0,0,0,8,49.67c-.12.53-.25,1.11.58,1.08s1.8.75,2.1-.78A48.85,48.85,0,0,1,14.35,39a61,61,0,0,1,4.6-8c.61-.91,1-.72,1.71-.1,1.16,1,1.11,1.69.28,2.9a45.74,45.74,0,0,0-7.39,17.89c-.23,1.25-.71,1.58-1.93,1.42-2-.26-4-.39-6.06-.49-.87,0-1.16-.27-1-1.18a58.41,58.41,0,0,1,14-28.9c.77-.86,1.21-1,2.06-.1,2.63,2.71,5.33,5.35,8,8,.68.65.77,1,.1,1.81A42.08,42.08,0,0,0,18,58c-.08,1.32-.52,1.78-1.87,1.68-1.78-.12-3.58,0-5.37,0s-3.78,0-5.66,0C4.25,59.71,3.82,59.53,3.88,58.53ZM18.82,99.79A58,58,0,0,1,4.55,70.44c-.11-.61,0-1,.73-1,2.35-.16,4.7-.32,7-.57,1-.11,1,.57,1.14,1.2A47.26,47.26,0,0,0,17.21,81.7a49.5,49.5,0,0,0,4.07,7.11c.25.36.78.74.33,1.23a5.27,5.27,0,0,1-1.84,1.68c-.37.14-.58-.41-.78-.7a51.88,51.88,0,0,1-8.29-18.6,1.76,1.76,0,0,0-2.63-1c-.3.27-.15.61-.09.92a55,55,0,0,0,10.9,22.9c.54.67.88.77,1.51.08,1.37-1.49,2.79-3,4.27-4.32.76-.7.77-1.16.14-2a44.26,44.26,0,0,1-8.23-17.21,39.26,39.26,0,0,1-.83-4.43C15.61,66.3,15.29,65.82,14,66c-2.86.3-5.74.38-8.6.64-1.06.09-1.44-.24-1.46-1.29,0-3.47-.43-2.7,2.65-2.78,1.46,0,2.92,0,4.38,0,1.8,0,3.6.1,5.38,0,1.31-.1,1.6.47,1.65,1.6A41.51,41.51,0,0,0,23.2,82a38.29,38.29,0,0,0,5.43,7.73c.67.73.81,1.16,0,1.92-2.81,2.66-5.55,5.39-8.27,8.13C19.78,100.34,19.45,100.48,18.82,99.79Zm40.89,5.7c-.06,1.88,0,3.77,0,5.66s0,4,0,5.94c0,.77-.2,1.06-1,1.08-3.33.06-3.52-.18-3.11-3.5.3-2.48.4-5,.62-7.47.07-.88-.57-.69-1-.75a46.12,46.12,0,0,1-19.07-7c-1.19-.77-2.34-1.59-3.46-2.46a.81.81,0,0,0-1.3.08c-1.52,1.55-3.05,3.1-4.63,4.58-.66.61-.64,1,.06,1.5a54.49,54.49,0,0,0,22.89,10.89c.5.11,1.15.29,1.16-.52s.65-1.77-.68-2.07a53.41,53.41,0,0,1-5.57-1.55,49.28,49.28,0,0,1-13.32-6.74c-.39-.28-1.47-.55-.67-1.25s1-2.34,2.6-1.23a47.39,47.39,0,0,0,15,7c1.32.35,2.65.67,4,.91.72.13,1.09.36,1,1.16-.22,2.35-.4,4.69-.58,7-.09,1.09-.83.68-1.36.59a57.08,57.08,0,0,1-16.41-5.48,58.84,58.84,0,0,1-12.32-8.46c-.78-.69-.87-1.09-.06-1.87,2.8-2.66,5.53-5.41,8.25-8.16.6-.61,1-.61,1.61,0a42.89,42.89,0,0,0,26.17,10.75C59.5,104.21,59.75,104.55,59.71,105.49Zm-1.59-4A40.18,40.18,0,0,1,34.73,92c-.44-.36-1.66-.59-.86-1.61,1.51-1.9,1.79-1.94,3-.91a37.18,37.18,0,0,0,21.73,8.82c1.08.08,1.08.06,1.08,1.9C60,101.32,59.51,101.57,58.12,101.47ZM61,93.88A32.82,32.82,0,1,1,93.9,61.12,32.79,32.79,0,0,1,61,93.88Zm1.69,6.35c-.67-2.25.69-1.9,1.74-2A38,38,0,0,0,85.18,89.5c.38-.31.72-1.13,1.36-.68a7.85,7.85,0,0,1,1.87,1.9c.26.38-.39.67-.68.93a40.4,40.4,0,0,1-24.28,9.85C61.85,101.6,62.82,100.39,62.66,100.23Zm37.05,3.14a58.47,58.47,0,0,1-28.85,14.07c-1,.19-1.46-.08-1.51-1.16q-.15-3.32-.47-6.63c-.07-.72.22-.86.83-1a49.29,49.29,0,0,0,19.29-8c1.51-1,1.9.74,2.57,1.36s-.4.93-.77,1.19a50.33,50.33,0,0,1-18.35,8.13,1.8,1.8,0,0,0-1.06,2.59c.37.48.87.16,1.3.07a53.6,53.6,0,0,0,18.85-8.06c1.29-.88,2.48-1.88,3.77-2.76.79-.54.65-1,.06-1.54-1.57-1.49-3.14-3-4.66-4.54A.8.8,0,0,0,89.42,97a45.62,45.62,0,0,1-20.3,9.09,9.69,9.69,0,0,1-1.68.23c-1.42,0-1.66.72-1.53,2,.29,2.86.43,5.73.72,8.59.1.89-.16,1.15-1,1.22-3.13.23-3.12.26-3.12-2.88v-4.1c0-1.84,0-3.68,0-5.52,0-1,.13-1.41,1.26-1.47A42.83,42.83,0,0,0,81.78,99a38.27,38.27,0,0,0,7.76-5.41c.83-.76,1.31-.63,2,.12,2.65,2.68,5.36,5.31,8.08,7.92C100.33,102.25,100.52,102.64,99.71,103.37Zm15.16-36.89c-2.48-.24-5-.35-7.47-.58-.72-.06-.88.22-1,.84A45,45,0,0,1,97,89.41c-.42.54-.38.84.08,1.29,1.55,1.52,3.1,3,4.58,4.63.7.76,1,.55,1.59-.15A54.64,54.64,0,0,0,114,72.69c.12-.53.6-1.4-.61-1.42-.77,0-1.65-.71-2,.85a50.37,50.37,0,0,1-8.19,18.64c-.28.4-.55,1.59-1.37.68-.62-.69-2.24-1-1.12-2.63a46.92,46.92,0,0,0,7.88-18.89c.2-1.06.69-1.15,1.54-1.07,2,.2,4,.47,6,.49,1.35,0,1.41.56,1.22,1.62a58.38,58.38,0,0,1-8.7,21.76,72,72,0,0,1-5.35,6.94c-.6.72-1,.74-1.63.08-2.66-2.69-5.33-5.35-8.06-8-.85-.81-1-1.31-.14-2.26a42,42,0,0,0,9.3-17.58,38,38,0,0,0,1.28-8.21c0-.9.28-1.25,1.22-1.23,2,.07,4,0,6,0s4,0,5.94,0c.81,0,1,.28,1,1.09C118.1,66.72,118,66.79,114.87,66.48Z"/><path class="cls-1" d="M50.41,45c1.79.07,3.58,0,5.38,0,1.4,0,3.27.6,4.1-.23s.18-2.87.33-4.36c.09-1-.27-1.33-1.28-1.31-2.82.06-5.66,0-8.49,0-.92,0-1.26-.27-1.21-1.2.06-1.37,0-2.74,0-4.11,0-.86-.21-1.14-1-.7s-1.9,1-2.89,1.5a2.41,2.41,0,0,0-1.61,2.9c.26,1.36-.4,1.69-1.65,1.62-.91,0-2-.41-2.74.27A21.79,21.79,0,0,0,35,45.05c2.7,0,5.18,0,7.65,0,1,0,1.18.39,1.16,1.25s0,1.44-1.17,1.4c-2.64-.08-5.28,0-7.92-.05a1.61,1.61,0,0,0-1.77,1.19,31.35,31.35,0,0,0-2.49,11.53c0,1.12.29,1.46,1.42,1.44,3.58-.07,7.17,0,10.75,0,.68,0,1.16,0,1.19.94,0,1.74,0,1.81-1.75,1.82-3.45,0-6.89,0-10.33,0-.9,0-1.19.24-1,1.14a26.1,26.1,0,0,1,.6,3c.13.91.62,1.12,1.46,1.11,3.21,0,6.42,0,9.62,0,.92,0,1.35.19,1.37,1.24s-.4,1.34-1.41,1.32c-2.88-.06-5.76,0-8.64,0-1.14,0-1.18.38-.73,1.2a.75.75,0,0,1,.06.13c5.3,10.94,14.06,16.9,26.11,18.11,1,.11,1-.43,1-1.17,0-5.67,0-11.33,0-17,0-1-.37-1.29-1.32-1.27-2.74,0-5.48,0-8.21,0-.9,0-1.5,0-1.49-1.23s.44-1.35,1.43-1.32c1.89.06,3.77,0,5.66,0,4,0,4,0,3.93-4,0-1-.32-1.29-1.3-1.27-2.73,0-5.47,0-8.21,0-1,0-1.53-.15-1.51-1.38s.34-1.43,1.44-1.41c2.79.08,5.57,0,8.35.05.92,0,1.24-.24,1.23-1.19q-.07-5.79,0-11.6c0-1-.3-1.4-1.36-1.37-2.83.07-5.67,0-8.5.06-1.17,0-1.1-.61-1.14-1.42S49.44,45,50.41,45Zm3.16,32.6c.79,0,1.08.25,1.06,1.05-.05,1.89,0,3.77,0,5.65,0,.46.08,1-.72.79a24.65,24.65,0,0,1-11.22-7c-.05,0,0-.17-.07-.44C46.32,77.64,49.94,77.66,53.57,77.63ZM52.49,53c2.29,0,2.12-.26,2.12,1.65s.17,1.71-2,1.72H45.5c-2.59,0-5.17,0-7.76,0-1.08,0-1.41-.2-1.09-1.35.57-2,.5-2,2.57-2Z"/><path class="cls-1" d="M88.36,72.27c-2.55,0-5.1.09-7.65,0-.86,0-2.4.9-2.37-1.26s1.47-1.13,2.31-1.18c2-.13,4,0,6.08,0,4,0,4,0,4.63-4,.17-1-.14-1.32-1.15-1.3-3.5,0-7,0-10.48,0-1.17,0-1.39-.39-1.4-1.45s.3-1.36,1.36-1.34c3.63.06,7.26,0,10.9,0,.87,0,1.12-.28,1.11-1.13a31.67,31.67,0,0,0-2.56-12,1.57,1.57,0,0,0-1.73-1.06c-2.64,0-5.29,0-7.93,0-1.18,0-1.1-.6-1.13-1.41S78.51,45,79.5,45c2.45.07,4.9,0,7.61,0a27.76,27.76,0,0,0-2.6-3.76c-1.12-1.57-2.45-2.55-4.5-2.13-1.41.29-1.88-.4-1.64-1.71a2.24,2.24,0,0,0-1.48-2.67c-1-.45-1.92-1-2.87-1.53s-1.36-.45-1.28.77,0,2.65,0,4c0,.94-.3,1.22-1.21,1.2-2.79,0-5.57,0-8.35,0-1,0-1.32.31-1.26,1.29A29.86,29.86,0,0,1,62,44c-.05.9.31,1.1,1.14,1.09,2.79,0,5.57,0,8.35,0,1.07,0,1.35.3,1.36,1.35s-.42,1.32-1.42,1.3c-2.73-.06-5.47,0-8.2-.05-.89,0-1.25.19-1.23,1.17,0,3.91,0,7.83,0,11.74,0,1,.36,1.26,1.31,1.24,2.78-.06,5.56,0,8.35-.05,1.11,0,1.2.5,1.17,1.37s.06,1.48-1.12,1.43c-1.89-.08-3.78,0-5.67,0-4.17,0-4.14,0-4,4.16,0,.87.29,1.13,1.14,1.12,2.83,0,5.66,0,8.49,0,.94,0,1.22.29,1.21,1.22s-.16,1.37-1.23,1.34c-2.78-.07-5.57,0-8.35,0-1,0-1.27.3-1.26,1.28,0,5.1,0,10.19,0,15.29,0,2.88,0,3,2.84,2.6,11.34-1.63,19.4-7.72,24.32-18C89.56,72.49,89.29,72.26,88.36,72.27ZM68.71,56.42c-1.28,0-1.41-.55-1.31-1.52S67,53,68.63,53c5,.06,10.08,0,15.13,0,.91,0,2.32,2.41,1.83,3.18-.23.36-.69.18-1,.19H76.49C73.89,56.38,71.3,56.31,68.71,56.42ZM76.14,81.1A25.81,25.81,0,0,1,68.51,85c-.77.25-1.14.23-1.12-.72,0-1.88,0-3.77,0-5.66,0-.59.1-1,.84-1H79.73A17.84,17.84,0,0,1,76.14,81.1Z"/></g></g></svg>