<svg xmlns="http://www.w3.org/2000/svg" viewBox="0 0 558.66 557.71"><defs><style>.cls-1{fill:none;stroke:#000;stroke-linejoin:round;}</style></defs><g id="Layer_2" data-name="Layer 2"><g id="Layer_1-2" data-name="Layer 1"><path class="cls-1" d="M269.34,222.54a23,23,0,1,1,32.46-.21A22.94,22.94,0,0,1,269.34,222.54Z"/><path class="cls-1" d="M307.07,226.75a30,30,0,1,0-42.48.28A30,30,0,0,0,307.07,226.75Zm-37.94-36.67a23,23,0,1,1,.21,32.46A22.94,22.94,0,0,1,269.13,190.08Z"/><path class="cls-1" d="M188.12,304.81a23,23,0,1,1,32.47-.21A23,23,0,0,1,188.12,304.81Z"/><path class="cls-1" d="M225.86,309a30,30,0,1,0-42.48.28A30,30,0,0,0,225.86,309Zm-38-36.67a23,23,0,1,1,.21,32.46A23,23,0,0,1,187.91,272.35Z"/><path class="cls-1" d="M385.24,496.25c-7.06,7.15-8.91,17.34-4.32,26.09a25,25,0,0,0,4.62,6.18,21.16,21.16,0,0,0,13.5,6.16,23.15,23.15,0,0,0,18-7.06,31.21,31.21,0,0,0,6.59-10.3c46.58,16.9,76.06-13.25,79.2-16.65,3.61-3.43,33.26-33.2,15.76-79.55a23.39,23.39,0,0,0,11.06-6.28,22.86,22.86,0,0,0,6.4-18.23c0-.35,0-.56,0-.56a14,14,0,0,0-.28-1.52,22.81,22.81,0,0,0-6.4-12.14,22.53,22.53,0,0,0-6.12-4.29A22.77,22.77,0,0,0,491,402.9c0,.2.07.38.1.57s0,.15,0,.23a17.44,17.44,0,0,0,.85,3,16.37,16.37,0,0,0,5.72-.52h0c-2.6-7.11-1.78-13.65,3.51-19a16.44,16.44,0,0,1,23.54-.13c6.66,6.57,6.24,17-.33,23.64a17.08,17.08,0,0,1-15.82,4.7l-.07.11c21.65,50.88-7.27,78.12-10.24,80.8-2.28,2.64-29.33,32.1-80.51,11.13l0,0a16.84,16.84,0,0,1-28.27,15.86c-6.66-6.57-6.48-15.94-.19-22.87a18.33,18.33,0,0,1,19.75-4.4h0a30.34,30.34,0,0,0-.15-5.12s-.39-.16-1.08-.37A22.2,22.2,0,0,0,385.24,496.25Z"/><path class="cls-1" d="M536.06,396.05s0,.21,0,.56a22.86,22.86,0,0,1-6.4,18.23,23.39,23.39,0,0,1-11.06,6.28l12.94,9.82s16.38,5.06,23.27-9.72c0,0,7-16-8.58-24.4Z"/><path class="cls-1" d="M491.09,403.47c0-.19-.07-.37-.1-.57a22.77,22.77,0,0,1,32.27-24.8l6.38-16.94S524.72,349,510.8,349.39c0,0-16.51.43-18.8,18.48,0,0-17.46.49-18.21,20.56,0,0,.48,16.91,18.19,18.27a17.44,17.44,0,0,1-.85-3C491.12,403.62,491.1,403.55,491.09,403.47Z"/><path class="cls-1" d="M523.26,378.1a22.53,22.53,0,0,1,6.12,4.29,22.81,22.81,0,0,1,6.4,12.14,14,14,0,0,1,.28,1.52l10.19.77c21.15-12.14,7.7-30.22,7.7-30.22-10.6-12.68-24.31-5.44-24.31-5.44Z"/><path class="cls-1" d="M369.75,553.2s18.25,13.21,30.14-8.34L399,534.68a21.16,21.16,0,0,1-13.5-6.16,25,25,0,0,1-4.62-6.18L364,529S356.94,542.77,369.75,553.2Z"/><path class="cls-1" d="M423.66,517.32a31.21,31.21,0,0,1-6.59,10.3,23.15,23.15,0,0,1-18,7.06l.85,10.18c8.62,15.45,24.49,8.52,24.49,8.52,14.7-7.08,9.42-23.4,9.42-23.4Z"/><path class="cls-1" d="M380.92,522.34c-4.59-8.75-2.74-18.94,4.32-26.09a22.2,22.2,0,0,1,22.58-5.75c.69.21,1.08.37,1.08.37-1.59-17.69-18.35-18.11-18.35-18.11-20.06,1-20.32,18.48-20.32,18.48-18,2.53-18.24,19-18.24,19-.2,13.92,12,18.69,12,18.69Z"/><path class="cls-1" d="M518.62,421.12c17.5,46.35-12.15,76.12-15.76,79.55-3.14,3.4-32.62,33.55-79.2,16.65L433.8,530c49.33,27.18,85.73-13.25,85.73-13.25,38.18-38.68,12-85.79,12-85.79Z"/><path class="cls-1" d="M429.84,430s-56.32,7.43-70.95-54.58c-.51.28-1,.55-1.52.81,11.58,64.14,75.51,56.32,75.51,56.32,2.94-64-48.36-73.64-57.07-74.82-.27.53-.54,1.05-.83,1.57C385,361.45,433.87,375.07,429.84,430Z"/><path class="cls-1" d="M429.84,430c4-54.88-44.89-68.5-54.86-70.7-.28.5-.57,1-.88,1.5,10.41,2.63,53.89,16.58,52.53,66.18,0,0-51.19,5.19-66.25-52.43-.49.31-1,.59-1.49.87C373.52,437.38,429.84,430,429.84,430Z"/><path class="cls-1" d="M426.63,426.93c1.36-49.6-42.12-63.55-52.53-66.18-.33.54-.67,1.08-1,1.61,10.52,3.4,50.32,19.08,50,61.09,0,0-42.63,3.61-61.12-50-.53.36-1.07.7-1.61,1C375.44,432.12,426.63,426.93,426.63,426.93Z"/><path class="cls-1" d="M423.11,423.45c.28-42-39.52-57.69-50-61.09-.37.54-.76,1.09-1.16,1.62,10.42,4.19,47.29,21.46,47.52,56.1,0,0-36.42.62-55.88-47.72q-.76.57-1.56,1.11C380.48,427.06,423.11,423.45,423.11,423.45Z"/><path class="cls-1" d="M419.43,420.08c-.23-34.64-37.1-51.91-47.52-56.1-.4.54-.82,1.07-1.25,1.59,10.06,4.76,44,22.86,44.31,50.1,0,0-28.6.48-49.85-44.55-.51.43-1,.84-1.57,1.24C383,420.7,419.43,420.08,419.43,420.08Z"/><path class="cls-1" d="M415,415.67c-.28-27.24-34.25-45.34-44.31-50.1-.77.93-1.57,1.83-2.44,2.71a41.37,41.37,0,0,1-3.1,2.84C386.37,416.15,415,415.67,415,415.67Zm-3.6-4C378.23,404.61,368.53,369,368.53,369,410.41,383.14,411.37,411.7,411.37,411.7Z"/><path class="cls-1" d="M411.37,411.7s-1-28.56-42.84-42.73C368.53,369,378.23,404.61,411.37,411.7Zm-5.26-5.76c-21.8-6.08-31.25-30.5-31.25-30.5C400.7,384.23,406.11,405.94,406.11,405.94Z"/><path class="cls-1" d="M406.11,405.94s-5.41-21.71-31.25-30.5C374.86,375.44,384.31,399.86,406.11,405.94Zm-26.53-26.06c15.86,6.52,22.11,22,22.11,22C388.21,396.63,379.58,379.88,379.58,379.88Z"/><path class="cls-1" d="M339.6,468.23s-45.21-34.67-11.44-89c-.56-.15-1.11-.3-1.66-.47C289.09,432.41,340,472.18,340,472.18c48.71-44.44,16.07-88.8,12.13-93.78l-1.62.52C355.14,386.05,382.19,431.46,339.6,468.23Z"/><path class="cls-1" d="M339.6,468.23c42.59-36.77,15.54-82.18,10.86-89.31-.55.16-1.1.31-1.66.45,5,8.11,27.42,49.67-9.33,84.45,0,0-40-32.64-9.63-84.18-.56-.12-1.12-.25-1.68-.4C294.39,433.56,339.6,468.23,339.6,468.23Z"/><path class="cls-1" d="M339.47,463.82c36.75-34.78,14.29-76.34,9.33-84.45-.6.15-1.2.29-1.81.41,4.65,8.92,22.89,49-7.56,79.09,0,0-32.82-27.7-7.72-78.86-.62-.11-1.25-.23-1.87-.37C299.46,431.18,339.47,463.82,339.47,463.82Z"/><path class="cls-1" d="M339.43,458.87c30.45-30.05,12.21-70.17,7.56-79.09-.64.13-1.28.24-1.92.34,4.14,9.53,18.89,48.69-5.85,73.77,0,0-26.31-25.44-5.62-73.6-.63-.08-1.26-.18-1.89-.28C306.61,431.17,339.43,458.87,339.43,458.87Z"/><path class="cls-1" d="M339.22,453.89c24.74-25.08,10-64.24,5.85-73.77-.65.1-1.31.19-2,.26,3.55,9.77,15.45,47.47-3.93,67.24,0,0-20.67-20-3.6-67.14-.66-.05-1.31-.11-2-.19C312.91,428.45,339.22,453.89,339.22,453.89Z"/><path class="cls-1" d="M339.17,447.62c19.38-19.77,7.48-57.47,3.93-67.24a42.08,42.08,0,0,1-7.53.1C318.5,427.63,339.17,447.62,339.17,447.62Zm.19-65.86c19.6,39.63.08,60.51.08,60.51C321,413.82,339.36,381.76,339.36,381.76Z"/><path class="cls-1" d="M339.36,381.76s-18.34,32.06.08,60.51C339.44,442.27,359,421.39,339.36,381.76Zm-.1,9c12.06,24.49.53,43.67.53,43.67C328.68,414.76,339.26,390.8,339.26,390.8Z"/><path class="cls-1" d="M339.26,390.8s-10.58,24,.53,43.67C339.79,434.47,351.32,415.29,339.26,390.8Zm.2,6.48c6.6,15.83.05,31.23.05,31.23C333.72,415.24,339.46,397.28,339.46,397.28Z"/><path class="cls-1" d="M339.46,397.28s-5.74,18,.05,31.23C339.51,428.51,346.06,413.11,339.46,397.28Z"/><path class="cls-1" d="M248.68,431.05s-7.44-56.11,54.29-70.88c-.29-.5-.58-1-.86-1.53-63.82,11.81-56,75.45-56,75.45,65,3,73.93-50,74.86-57.45-.52-.25-1-.5-1.54-.77C317.49,385.06,304.18,435.12,248.68,431.05Z"/><path class="cls-1" d="M248.68,431.05c55.5,4.07,68.81-46,70.78-55.18-.51-.26-1-.54-1.51-.83-2.46,9.92-16.22,54.18-66.25,52.81,0,0-5.56-50.68,52.2-66.19-.32-.49-.63-1-.93-1.49C241.24,374.94,248.68,431.05,248.68,431.05Z"/><path class="cls-1" d="M251.7,427.85c50,1.37,63.79-42.89,66.25-52.81-.54-.31-1.07-.64-1.6-1-3.26,10.18-18.86,50.54-61.17,50.26,0,0-4-42.16,49.82-61.05-.38-.53-.75-1.06-1.1-1.61C246.14,377.17,251.7,427.85,251.7,427.85Z"/><path class="cls-1" d="M255.18,424.32c42.31.28,57.91-40.08,61.17-50.26-.55-.35-1.09-.72-1.63-1.1-4.07,10.17-21.34,47.45-56.17,47.68,0,0-.85-36.13,47.61-55.83-.4-.5-.79-1-1.16-1.54C251.19,382.16,255.18,424.32,255.18,424.32Z"/><path class="cls-1" d="M258.55,420.64c34.83-.23,52.1-37.51,56.17-47.68-.54-.39-1.08-.79-1.6-1.2-4.68,9.91-22.81,44.14-50.16,44.42,0,0-.5-28.54,44.5-49.81-.45-.51-.88-1-1.3-1.56C257.7,384.51,258.55,420.64,258.55,420.64Z"/><path class="cls-1" d="M263,416.18c27.35-.28,45.48-34.51,50.16-44.42a42.78,42.78,0,0,1-3.53-3.1c-.75-.74-1.45-1.51-2.13-2.29C262.46,387.64,263,416.18,263,416.18Zm46.36-46.09c-14.16,41.88-42.73,42.83-42.73,42.83C273.68,379.78,309.32,370.09,309.32,370.09Z"/><path class="cls-1" d="M309.32,370.09s-35.64,9.69-42.73,42.83C266.59,412.92,295.16,412,309.32,370.09Zm-6.46,6.32c-8.8,25.84-30.51,31.25-30.51,31.25C278.43,385.86,302.86,376.41,302.86,376.41Z"/><path class="cls-1" d="M302.86,376.41s-24.43,9.45-30.51,31.25C272.35,407.66,294.06,402.25,302.86,376.41Zm-4.44,4.72c-6.53,15.86-22.05,22.12-22.05,22.12C281.66,389.77,298.42,381.13,298.42,381.13Z"/><path class="cls-1" d="M298.42,381.13s-16.76,8.64-22.05,22.12C276.37,403.25,291.89,397,298.42,381.13Z"/><path class="cls-1" d="M210.4,340.81c36.09,41.8,80.49,16.52,88.88,11.14-.18-.54-.34-1.1-.49-1.65-9.14,5.47-49.82,26.46-84-9.62,0,0,31.75-39.59,83.35-10.1.12-.57.25-1.15.4-1.72C244.67,296.07,210.4,340.81,210.4,340.81Z"/><path class="cls-1" d="M214.81,340.68c34.16,36.08,74.84,15.09,84,9.62-.17-.6-.33-1.21-.47-1.83-9.88,5-49.07,22.06-78.56-7.82,0,0,26.86-32.49,78-8.12q.15-1,.36-1.95C246.56,301.09,214.81,340.68,214.81,340.68Z"/><path class="cls-1" d="M219.76,340.65c29.49,29.88,68.68,12.86,78.56,7.82-.14-.64-.28-1.29-.4-1.94-10.42,4.44-48.57,18.17-73.18-6.1,0,0,24.83-26,72.79-6,.07-.65.16-1.3.27-1.94C246.62,308.16,219.76,340.65,219.76,340.65Z"/><path class="cls-1" d="M224.74,340.43c24.61,24.27,62.76,10.54,73.18,6.1-.11-.66-.22-1.32-.3-2-10.69,3.8-47.25,14.82-66.6-4.15,0,0,19.72-20.44,66.33-3.89,0-.68.1-1.36.18-2C249.57,314.41,224.74,340.43,224.74,340.43Z"/><path class="cls-1" d="M231,340.39c19.35,19,55.91,7.95,66.6,4.15a41.58,41.58,0,0,1-.27-8C250.74,320,231,340.39,231,340.39Zm4.87.26c28.45-18.42,60.5-.07,60.5-.07C256.76,360.18,235.89,340.65,235.89,340.65Z"/><path class="cls-1" d="M235.89,340.65s20.87,19.53,60.5-.07C296.39,340.58,264.34,322.23,235.89,340.65Zm7.79.36c19.72-11.12,43.67-.53,43.67-.53C262.86,352.54,243.68,341,243.68,341Z"/><path class="cls-1" d="M243.68,341s19.18,11.53,43.67-.53C287.35,340.48,263.4,329.89,243.68,341Zm6-.28c13.27-5.79,31.22-.06,31.22-.06C265,347.28,249.65,340.73,249.65,340.73Z"/><path class="cls-1" d="M249.65,340.73s15.39,6.55,31.22-.06C280.87,340.67,262.92,334.94,249.65,340.73Z"/><path class="cls-1" d="M247.59,249.9s55.46-7.35,70.62,53.21c.53-.29,1.05-.58,1.58-.85-12.32-62.65-75.24-54.9-75.24-54.9-2.86,62.45,45.94,73.14,56.38,74.71.24-.55.51-1.09.78-1.63C290.27,317.77,243.66,303.53,247.59,249.9Z"/><path class="cls-1" d="M247.59,249.9c-3.93,53.63,42.68,67.87,54.12,70.54.26-.52.54-1,.83-1.54-11.66-3.11-53.07-17.56-51.74-66,0,0,50-5.51,65.89,51.1.5-.32,1-.62,1.52-.92C303.05,242.55,247.59,249.9,247.59,249.9Z"/><path class="cls-1" d="M250.8,252.93c-1.33,48.41,40.08,62.86,51.74,66,.31-.57.64-1.12,1-1.67-11.64-3.93-49.48-19.86-49.21-60.82,0,0,41.6-4,60.67,48.74.56-.39,1.13-.76,1.7-1.12C300.84,247.42,250.8,252.93,250.8,252.93Z"/><path class="cls-1" d="M254.32,256.41c-.27,41,37.57,56.89,49.21,60.82.36-.58.73-1.15,1.12-1.71-11.42-4.73-46.42-22-46.65-55.74,0,0,35.6-.84,55.39,46.55.53-.41,1.06-.8,1.6-1.18C295.92,252.46,254.32,256.41,254.32,256.41Z"/><path class="cls-1" d="M258,259.78c.23,33.75,35.23,51,46.65,55.74.39-.56.8-1.12,1.22-1.66-11-5.36-43.14-23.2-43.4-49.68,0,0,28.09-.48,49.31,43.46.53-.45,1.07-.89,1.61-1.31C293.6,258.94,258,259.78,258,259.78Z"/><path class="cls-1" d="M262.47,264.18c.26,26.48,32.36,44.32,43.4,49.68.83-1.07,1.71-2.1,2.65-3.1-41.49-14.21-42.44-42.6-42.44-42.6,31,6.64,41.49,38.28,42.71,42.31.14-.15.27-.3.42-.45.83-.84,1.69-1.62,2.57-2.38C290.56,263.7,262.47,264.18,262.47,264.18Z"/><path class="cls-1" d="M266.08,268.16s.95,28.39,42.44,42.6l.27-.29C307.57,306.44,297.09,274.8,266.08,268.16Zm5.26,5.76c21.8,6.09,31.25,30.51,31.25,30.51C276.75,295.64,271.34,273.92,271.34,273.92Z"/><path class="cls-1" d="M271.34,273.92s5.41,21.72,31.25,30.51C302.59,304.43,293.14,280,271.34,273.92ZM297.87,300c-15.86-6.52-22.11-22-22.11-22C289.23,283.23,297.87,300,297.87,300Z"/><path class="cls-1" d="M275.76,278s6.25,15.52,22.11,22C297.87,300,289.23,283.23,275.76,278Z"/><path class="cls-1" d="M337.84,211.62c-40.52,35-18,77.79-11.69,88,.56-.18,1.12-.34,1.68-.49C321.71,288.53,302.92,249.2,338,216c0,0,39.31,31.52,10.41,82.79.58.14,1.15.29,1.72.45C382.3,245.68,337.84,211.62,337.84,211.62Z"/><path class="cls-1" d="M338,216c-35.05,33.17-16.26,72.5-10.14,83.12.64-.18,1.27-.33,1.91-.47-5.5-11.14-20.81-49,8.26-77.7,0,0,32.22,26.65,8.41,77.42.66.13,1.32.27,2,.42C377.28,247.55,338,216,338,216Z"/><path class="cls-1" d="M338,221c-29.07,28.69-13.76,66.56-8.26,77.7.66-.15,1.34-.28,2-.4-4.76-11.52-17.18-48.34,6.47-72.31,0,0,25.77,24.59,6.23,72.11.65.09,1.31.2,2,.32C370.22,247.63,338,221,338,221Z"/><path class="cls-1" d="M338.22,226c-23.65,24-11.23,60.79-6.47,72.31.68-.11,1.37-.21,2.06-.29-4-11.67-14.05-46.88,4.45-65.75,0,0,20.22,19.52,4.14,65.61.68.06,1.37.14,2.05.23C364,250.56,338.22,226,338.22,226Z"/><path class="cls-1" d="M338.26,232.24c-18.5,18.87-8.49,54.08-4.45,65.75,1.35-.16,2.7-.26,4.07-.29-19.27-39.36.11-60.09.11-60.09,17.2,26.56,2.36,56.26.31,60.08,1.37,0,2.73,0,4.1.16C358.48,251.76,338.26,232.24,338.26,232.24Z"/><path class="cls-1" d="M338,237.61s-19.38,20.73-.11,60.09h.42C340.35,293.87,355.19,264.17,338,237.61Zm.18,51.46c-12.06-24.49-.53-43.67-.53-43.67C348.75,265.12,338.17,289.07,338.17,289.07Z"/><path class="cls-1" d="M338.17,289.07s10.58-23.95-.53-43.67C337.64,245.4,326.11,264.58,338.17,289.07Zm-.2-6.48c-6.6-15.82-.05-31.22-.05-31.22C343.71,264.64,338,282.59,338,282.59Z"/><path class="cls-1" d="M338,282.59s5.74-17.95-.05-31.22C337.92,251.37,331.37,266.77,338,282.59Z"/><path class="cls-1" d="M429.44,248.11s536.2,305,375,319.05c.28.5.55,1,.8,1.52,63.38-11,56.21-75.5,56.21-75.5-63.7-2.92-73.55,47.91-74.8,57,.53.26,1.05.54,1.57.83C361,292.63,374.76,244.09,429.44,248.11Z"/><path class="cls-1" d="M429.44,248.11c-54.68-4-68.4,44.52-70.68,54.75.51.28,1,.57,1.51.87C363,293.13,377,250,426.42,251.31c0,0,5.57,50.75-52.32,66.22.3.5.6,1,.88,1.52C436.2,305,429.44,248.11,429.44,248.11Z"/><path class="cls-1" d="M426.42,251.31C377,250,363,293.13,360.27,303.73c.54.33,1.08.68,1.61,1,3.48-10.69,19.19-50.21,61.06-49.93,0,0,4,42.19-49.88,61.07.36.53.7,1.07,1,1.62C432,302.06,426.42,251.31,426.42,251.31Z"/><path class="cls-1" d="M422.94,254.84c-41.87-.28-57.58,39.24-61.06,49.93.55.37,1.1.75,1.63,1.16,4.26-10.56,21.54-47.18,56.06-47.41,0,0,.17,36.79-47.61,55.85.38.5.75,1,1.1,1.54C426.93,297,422.94,254.84,422.94,254.84Z"/><path class="cls-1" d="M419.57,258.52c-34.52.23-51.8,36.85-56.06,47.41.54.4,1.08.82,1.6,1.25C370,297,388,263.25,415.16,263c0,0,.5,28.52-44.45,49.79.43.53.85,1.06,1.25,1.6C419.74,295.31,419.57,258.52,419.57,258.52Z"/><path class="cls-1" d="M415.16,263c-27.14.27-45.21,34-50.05,44.2.94.78,1.85,1.59,2.73,2.46a42,42,0,0,1,2.87,3.13C415.66,291.5,415.16,263,415.16,263Zm-47.06,46.8c14.16-41.88,42.73-42.84,42.73-42.84C403.74,300.08,368.1,309.78,368.1,309.78Z"/><path class="cls-1" d="M368.1,309.78s35.64-9.7,42.73-42.84C410.83,266.94,382.26,267.9,368.1,309.78Zm6.46-6.32c8.8-25.84,30.51-31.26,30.51-31.26C399,294,374.56,303.46,374.56,303.46Z"/><path class="cls-1" d="M374.56,303.46S399,294,405.07,272.2C405.07,272.2,383.36,277.62,374.56,303.46Zm4.45-4.72c6.52-15.86,22-22.11,22-22.11C395.76,290.1,379,298.74,379,298.74Z"/><path class="cls-1" d="M379,298.74s16.75-8.64,22-22.11C401.05,276.63,385.53,282.88,379,298.74Z"/><path class="cls-1" d="M467.87,338.7s532.2,384,378.72,350.05c-.15.55-.32,1.09-.49,1.64,52.82,37.64,93.59-13.34,93.59-13.34-44.26-48.5-88.44-16.34-93.73-12.18.18.54.35,1.09.5,1.64C385.87,323.05,431.17,296.19,467.87,338.7Z"/><path class="cls-1" d="M467.87,338.7c-36.7-42.51-82-15.65-89.28-10.89.16.55.31,1.11.44,1.67,8.18-5,49.68-27.36,84.43,9.35,0,0-32.15,40.08-84.32,9.53-.13.57-.27,1.13-.42,1.69C432.2,384,467.87,338.7,467.87,338.7Z"/><path class="cls-1" d="M463.46,338.83c-34.75-36.71-76.25-14.34-84.43-9.35.15.61.28,1.21.4,1.82,8.94-4.66,49-22.87,79.08,7.56,0,0-27.19,32.89-79,7.66-.11.61-.24,1.23-.38,1.84C431.31,378.91,463.46,338.83,463.46,338.83Z"/><path class="cls-1" d="M458.51,338.86c-30-30.43-70.14-12.22-79.08-7.56.12.64.23,1.29.32,1.93,9.51-4.13,48.69-18.9,73.78,5.85,0,0-26.1,26.34-73.72,5.58-.08.62-.18,1.24-.29,1.86C431.32,371.75,458.51,338.86,458.51,338.86Z"/><path class="cls-1" d="M453.53,339.08c-25.09-24.75-64.27-10-73.78-5.85q.13,1,.24,2c9.73-3.54,47.48-15.48,67.26,3.91,0,0-20,20.7-67.23,3.57,0,.66-.13,1.32-.21,2C427.43,365.42,453.53,339.08,453.53,339.08Z"/><path class="cls-1" d="M447.25,339.12c-19.78-19.39-57.53-7.45-67.26-3.91a41.53,41.53,0,0,1,0,7.48C427.28,359.82,447.25,339.12,447.25,339.12Zm-66.37-.18c39.63-19.6,60.51-.08,60.51-.08C412.94,357.28,380.88,338.94,380.88,338.94Z"/><path class="cls-1" d="M380.88,338.94s32.06,18.34,60.51-.08C441.39,338.86,420.51,319.34,380.88,338.94Zm9,.1c24.49-12.06,43.67-.53,43.67-.53C413.88,349.62,389.92,339,389.92,339Z"/><path class="cls-1" d="M389.92,339s24,10.58,43.67-.53C433.59,338.51,414.41,327,389.92,339Zm6.48-.2c15.83-6.6,31.23,0,31.23,0C414.36,344.58,396.4,338.84,396.4,338.84Z"/><path class="cls-1" d="M396.4,338.84s18,5.74,31.23,0C427.63,338.79,412.23,332.24,396.4,338.84Z"/><path class="cls-1" d="M337.84,211.62s54.46,34.06,12.26,87.65l1.7.53c31.55-46.86-3.79-82.8-12.47-90.56l-1.19-1-.65-.53c-.4.36-.77.71-1.15,1.07-.69.65-1.37,1.3-2,1.94-41.5,40.88-16.21,80.93-9.91,89.54.58-.21,1.16-.41,1.74-.59C319.83,289.41,297.32,246.61,337.84,211.62Z"/><path class="cls-1" d="M207.54,339.86c-.71.82-1.09,1.3-1.09,1.3l.16.17.36.38.74.79.36.37c42.93,45.18,85.34,15.68,91.78,10.72-.2-.54-.39-1.09-.57-1.64-8.39,5.38-52.79,30.66-88.88-11.14,0,0,34.27-44.74,88.16-11.95.14-.57.3-1.15.47-1.71-44.36-30.23-79-.43-89.38,10.41l-.2.21c-.65.69-1.2,1.29-1.65,1.79C207.71,339.67,207.63,339.77,207.54,339.86Z"/><path class="cls-1" d="M320.52,344.46a6.85,6.85,0,1,0-9.69.07A6.83,6.83,0,0,0,320.52,344.46Z"/><path class="cls-1" d="M334.87,357.23a6.85,6.85,0,1,0,9.69-.06A6.85,6.85,0,0,0,334.87,357.23Z"/><path class="cls-1" d="M326.9,350.94a6.85,6.85,0,1,0,.07,9.69A6.85,6.85,0,0,0,326.9,350.94Z"/><path class="cls-1" d="M343.62,321.06a6.85,6.85,0,1,0-9.69.06A6.85,6.85,0,0,0,343.62,321.06Z"/><path class="cls-1" d="M350.89,328.06a6.85,6.85,0,1,0-.06-9.69A6.85,6.85,0,0,0,350.89,328.06Z"/><path class="cls-1" d="M351,350.78a6.85,6.85,0,1,0,9.69-.06A6.85,6.85,0,0,0,351,350.78Z"/><path class="cls-1" d="M367,344.16a6.85,6.85,0,1,0-9.68.07A6.84,6.84,0,0,0,367,344.16Z"/><path class="cls-1" d="M326.75,328.22a6.85,6.85,0,1,0-9.68.06A6.85,6.85,0,0,0,326.75,328.22Z"/><path class="cls-1" d="M303,360.17c.3.5.61,1,.93,1.49s.72,1.08,1.1,1.61.76,1,1.16,1.54.85,1.05,1.3,1.56c.68.78,1.38,1.55,2.13,2.29a42.78,42.78,0,0,0,3.53,3.1c.52.41,1.06.81,1.6,1.2s1.08.75,1.63,1.1,1.06.67,1.6,1,1,.57,1.51.83,1,.52,1.54.77a42.78,42.78,0,0,0,5.5,2.13c.55.17,1.1.32,1.66.47s1.12.28,1.68.4,1.25.26,1.87.37,1.26.2,1.89.28,1.31.14,2,.19a42.08,42.08,0,0,0,7.53-.1c.66-.07,1.32-.16,2-.26s1.28-.21,1.92-.34,1.21-.26,1.81-.41,1.11-.29,1.66-.45l1.62-.52a43.54,43.54,0,0,0,5.29-2.22c.51-.26,1-.53,1.52-.81s1-.56,1.49-.87,1.08-.67,1.61-1,1.05-.73,1.56-1.11,1.06-.81,1.57-1.24a41.37,41.37,0,0,0,3.1-2.84c.87-.88,1.67-1.78,2.44-2.71.43-.52.85-1.05,1.25-1.59s.79-1.08,1.16-1.62.7-1.07,1-1.61.6-1,.88-1.5.56-1,.83-1.57a40.57,40.57,0,0,0,2.42-6c.17-.55.34-1.09.49-1.64s.29-1.12.42-1.69.27-1.23.38-1.84.21-1.24.29-1.86.16-1.31.21-2a41.53,41.53,0,0,0,0-7.48q-.11-1-.24-2c-.09-.64-.2-1.29-.32-1.93s-.25-1.21-.4-1.82-.28-1.12-.44-1.67-.32-1.1-.5-1.64a41.78,41.78,0,0,0-2.31-5.6c-.25-.51-.52-1-.8-1.52s-.58-1-.88-1.52-.68-1.09-1-1.62-.72-1-1.1-1.54-.82-1.07-1.25-1.6a42,42,0,0,0-2.87-3.13c-.88-.87-1.79-1.68-2.73-2.46-.52-.43-1.06-.85-1.6-1.25s-1.08-.79-1.63-1.16-1.07-.71-1.61-1-1-.59-1.51-.87-1-.57-1.57-.83a40,40,0,0,0-5.39-2.23l-1.7-.53c-.57-.16-1.14-.31-1.72-.45s-1.31-.29-2-.42-1.31-.23-2-.32-1.37-.17-2.05-.23c-1.37-.12-2.73-.17-4.1-.16h-.42c-1.37,0-2.72.13-4.07.29-.69.08-1.38.18-2.06.29s-1.35.25-2,.4-1.27.29-1.91.47-1.12.31-1.68.49-1.16.38-1.74.59a41,41,0,0,0-4.62,2c-.53.27-1.05.56-1.58.85s-1,.6-1.52.92-1.14.73-1.7,1.12-1.07.77-1.6,1.18-1.08.86-1.61,1.31c-.88.76-1.74,1.54-2.57,2.38-.15.15-.28.3-.42.45l-.27.29c-.94,1-1.82,2-2.65,3.1-.42.54-.83,1.1-1.22,1.66s-.76,1.13-1.12,1.71-.68,1.1-1,1.67-.57,1-.83,1.54-.54,1.08-.78,1.63a41.51,41.51,0,0,0-1.9,5.08c-.17.56-.33,1.14-.47,1.71s-.28,1.15-.4,1.72-.26,1.3-.36,1.95-.2,1.29-.27,1.94-.14,1.35-.18,2a41.58,41.58,0,0,0,.27,8c.08.67.19,1.33.3,2s.26,1.3.4,1.94.3,1.23.47,1.83.31,1.11.49,1.65.37,1.1.57,1.64a40.73,40.73,0,0,0,2.26,5.05C302.39,359.16,302.68,359.67,303,360.17Zm12.29,2.74a33.39,33.39,0,1,1,47.22-.31A33.38,33.38,0,0,1,315.26,362.91Z"/><path class="cls-1" d="M362.48,362.6a33.38,33.38,0,1,0-47.22.31A33.39,33.39,0,0,0,362.48,362.6Zm-2-44.29a6.85,6.85,0,1,1-9.69.06A6.85,6.85,0,0,1,360.52,318.31Zm-26.65-6.88a6.85,6.85,0,1,1,.06,9.69A6.85,6.85,0,0,1,333.87,311.43Zm23.4,23.11a6.85,6.85,0,1,1,.07,9.69A6.84,6.84,0,0,1,357.27,334.54Zm3.52,25.87a6.85,6.85,0,1,1-.06-9.69A6.85,6.85,0,0,1,360.79,360.41ZM317,318.59a6.85,6.85,0,1,1,.07,9.69A6.85,6.85,0,0,1,317,318.59Zm27.62,48.27a6.85,6.85,0,1,1-.06-9.69A6.85,6.85,0,0,1,344.62,366.86Zm-33.85-32a6.85,6.85,0,1,1,.06,9.69A6.83,6.83,0,0,1,310.77,334.84Zm6.51,25.85a6.85,6.85,0,1,1,9.69-.06A6.84,6.84,0,0,1,317.28,360.69Z"/><path class="cls-1" d="M401.69,401.92s-6.25-15.52-22.11-22C379.58,379.88,388.21,396.63,401.69,401.92Z"/><path class="cls-1" d="M434.42,70.38h0s5.46-5.34,4.95-12.63c-.33-4.66-2.32-8.59-7.33-11l13.3-11.26a25.72,25.72,0,0,1,6.5,4.43c8.1,8,8.81,20.4,1.59,27.71a21.89,21.89,0,0,1-3.51,2.68h-.1Z"/><path class="cls-1" d="M433.12,21.48C442.74,33.59,432,46.79,432,46.79s-7.54-27.16-32.67-26.52c0,0-27.67.57-30.94,28.73,0,0-1.52,20.68,19.48,27.91,0,0,16.6,3.74,22.22-9.64,0,0,2.55-7.63-.1-11.91,6.61,8.2,7.43,21.55-.37,29.46-8.05,8.15-22.25,7.63-30.53.46a18.93,18.93,0,0,1-17.58-4.68c-7.63-7.54-7-20.53,1.34-29a3.07,3.07,0,0,0,.26-.25c-.12-.11-.26-.22-.38-.34a19.69,19.69,0,0,1,.17-27.83A20,20,0,0,1,380,17.33a17.89,17.89,0,0,1,5.12-11.5c7.21-7.31,19.32-7.07,27,.55a20.35,20.35,0,0,1,4.37,6.31C423.92,14.39,429.8,17.3,433.12,21.48Z"/><path class="cls-1" d="M439,17.5a21.18,21.18,0,0,1,6.36,18l0,0L432,46.79s10.7-13.2,1.08-25.31c-3.32-4.18-9.2-7.09-16.61-8.79C423.59,9.55,432.64,11.2,439,17.5Z"/><path class="cls-1" d="M421.59,138.23c-9,6.52-5.65,15.42-5.65,15.42,4.64,14,18.55,12.83,18.55,12.83.24,0,.46-.08.69-.12l-5.41,25.15h0a20.15,20.15,0,0,1-26.41-28.61,1.14,1.14,0,0,0-.11-.11,21.88,21.88,0,0,1,20.2-37.06h0a21.79,21.79,0,0,1,13.09,11C430.06,132,421.59,138.23,421.59,138.23Z"/><path class="cls-1" d="M464.12,154.43c-1.21,3.49-3.49,5.68-8.74,7.39-.67.22-1.38.43-2.15.63L464,177.14a20.55,20.55,0,0,0,17.64-5.72,19.83,19.83,0,0,0,1.6-25.77l-24.83-6.3C459,139.68,467.52,144.61,464.12,154.43Z"/><path class="cls-1" d="M408.27,103.76h0l1.21-.08a47.81,47.81,0,0,1,5.86.06c.18,0,.34,0,.49,0s21.71.77,35.6,11.52L472,111.6c.05,0,.87-10.21-5.87-16.83-5.1-5-9.95-6.55-15.25-6.54-.11.22-34,12.46-42.57,15.53Z"/><path class="cls-1" d="M451.43,115.29a30.42,30.42,0,0,1,7,7.45s6.84,11,0,16.57l0,0h0l0,0,24.83,6.3c.11-.1.24-.2.35-.31a19.9,19.9,0,0,0-.43-28.13,20.15,20.15,0,0,0-11-5.58.8.8,0,0,0-.15,0l-20.53,3.69Z"/><path class="cls-1" d="M453.22,162.48c0,.29-.87,8.54-8,10-3.69.76-6.79-1-10-6.13h0l-5.41,25.15.52.52a19.8,19.8,0,0,0,28,.15c3.92-4,6.23-9.74,5.69-14.6,0-.14,0-.29,0-.44l-10.77-14.68Z"/><path class="cls-1" d="M445.24,172.49c7.11-1.47,7.95-9.72,8-10v0h0c.77-.2,1.48-.41,2.15-.63,5.25-1.71,7.53-3.9,8.74-7.39,3.4-9.82-5.12-14.75-5.72-15.08l0,0h0l0,0c6.88-5.52,0-16.57,0-16.57a30.42,30.42,0,0,0-7-7.45h0c-13.89-10.75-35.6-11.52-35.6-11.52-.16,0-.33,0-.49,0a47.81,47.81,0,0,0-5.86-.06l-1.21.08h0c-9.38.72-18.33,4-26.29,7.79a76.51,76.51,0,0,0-27.05,22.06c-21.57,27.61-19.5,65.14-18.59,75.14.38-.36.75-.71,1.15-1.07l.65.53c.08-8,1.25-32.41,11.76-55,0,0,11.82-31.43,43.45-41.24,0,0,20.53-8,43.71,3.35,0,0,30.38,16.63,12.87,42.41a24.29,24.29,0,0,1-14.73,8.61C438.45,171.49,441.55,173.25,445.24,172.49Z"/><path class="cls-1" d="M449.93,157.75c17.51-25.78-12.87-42.41-12.87-42.41-23.18-11.4-43.71-3.35-43.71-3.35-31.63,9.81-43.45,41.24-43.45,41.24-10.51,22.57-11.68,47-11.76,55l1.19,1c-.18-7.1,2.2-19.58,2.2-19.58,9-58.14,50.45-71.79,50.45-71.79,26.23-11.68,48.43,6.49,48.43,6.49,7.18,5.11,12.55,16.12,8.72,25.48-4.1,10-13.6,12.87-18.82,11.5-9.7-2.55-9.37-11.1-9.37-11.1.37-9.84,15.66-13.49,15.6-13.54-6.48-4.74-15,1.53-15,1.53-9,6.52-5.65,15.42-5.65,15.42,4.64,14,18.55,12.83,18.55,12.83.24,0,.46-.08.69-.12h0A24.29,24.29,0,0,0,449.93,157.75Z"/><path class="cls-1" d="M434.06,86.79c-6.49,10.74-16.86,11-17.4,11h0a40.06,40.06,0,0,1-8.39,6c8.54-3.07,42.46-15.31,42.57-15.53,3.19-6.48,3-13.45-.9-17.87h-.12l-15.4,0C436.74,76.18,438.15,80,434.06,86.79Z"/><path class="cls-1" d="M336.34,208.75c-.91-10-3-47.53,18.59-75.14A76.51,76.51,0,0,1,382,111.55c8-3.79,16.91-7.07,26.29-7.79h0a40.06,40.06,0,0,0,8.39-6h0l.41-.34c24.9-23,11.58-48.79,11.58-48.79-10.09-19.58-29.18-17.08-29.18-17.08-22,3-20,23.3-20,23.3C383.4,71,397.42,69.33,397.42,69.33c11-.86,12.49-12.86,12.61-13.89v-.08c-6.38,12.37-16.34,8.53-16.34,8.53-13.8-6.42-6.75-17.28-6.75-17.28,12-19.87,32-2.67,32-2.67,11.93,10.14,6.63,29.58,6.63,29.58-8,23.41-25.07,26.42-25.07,26.42-45.15,8.18-61.3,50.6-61.3,50.6-10.12,29.28-6.08,54.4-4.92,60.15C335,210.05,335.65,209.4,336.34,208.75Z"/><path class="cls-1" d="M397.42,69.33s-14,1.67-17.95-14.45c0,0-2-20.33,20-23.3,0,0,19.09-2.5,29.18,17.08,0,0,13.32,25.81-11.58,48.79l-.41.34h0c.54,0,10.91-.26,17.4-11,4.09-6.78,2.68-10.61.36-16.41h0s5.46-5.34,4.95-12.63c-.33-4.66-2.32-8.59-7.33-11,0,0-7.54-27.16-32.67-26.52,0,0-27.67.57-30.94,28.73,0,0-1.52,20.68,19.48,27.91,0,0,16.6,3.74,22.22-9.64,0,0,2.55-7.63-.1-11.91h0v.08C409.91,56.47,408.43,68.47,397.42,69.33Z"/><path class="cls-1" d="M70.85,439.76h0s-5.27,5.53-12.57,5.11c-4.66-.26-8.61-2.21-11.05-7.18L36.14,451.14a26.2,26.2,0,0,0,4.52,6.44c8.09,8,20.51,8.54,27.72,1.23A22.59,22.59,0,0,0,71,455.26v-.1Z"/><path class="cls-1" d="M21.94,439.1c12.23,9.46,25.29-1.41,25.29-1.41S20,430.5,20.28,405.37c0,0,.21-27.68,28.33-31.31,0,0,20.66-1.79,28.16,19.11,0,0,4,16.55-9.34,22.35,0,0-7.6,2.64-11.92.05,8.29,6.5,21.64,7.15,29.45-.76,8.05-8.15,7.34-22.34.07-30.53a18.91,18.91,0,0,0-4.91-17.51c-7.64-7.54-20.62-6.77-29,1.71l-.24.26c-.12-.12-.22-.25-.35-.37a19.69,19.69,0,0,0-27.83.53A20.06,20.06,0,0,0,17.1,386a17.93,17.93,0,0,0-11.44,5.26c-7.22,7.31-6.81,19.41.9,27a20.59,20.59,0,0,0,6.37,4.28C14.73,430,17.71,435.83,21.94,439.1Z"/><path class="cls-1" d="M18,445a21.24,21.24,0,0,0,18.09,6.13l0,0,11.09-13.45s-13.06,10.87-25.29,1.41c-4.23-3.27-7.21-9.11-9-16.5C9.88,429.72,11.65,438.75,18,445Z"/><path class="cls-1" d="M138.52,426.05c6.4-9.08,15.35-5.85,15.35-5.85,14,4.46,13.07,18.38,13.07,18.38,0,.24-.07.46-.11.69l25.08-5.73h0a20.15,20.15,0,0,0-29-26l-.11-.1a21.88,21.88,0,0,0-36.79,20.68h0A21.77,21.77,0,0,0,137.19,441C132.37,434.61,138.52,426.05,138.52,426.05Z"/><path class="cls-1" d="M155.27,468.37c3.48-1.25,5.64-3.57,7.28-8.84.21-.67.41-1.39.61-2.16L178,467.94a20.59,20.59,0,0,1-5.5,17.72,19.81,19.81,0,0,1-25.74,1.93l-6.63-24.74C140.46,463.44,145.5,471.9,155.27,468.37Z"/><path class="cls-1" d="M103.89,413.18h0c0,.4,0,.8-.07,1.21a47.92,47.92,0,0,0,.14,5.86c0,.17,0,.34,0,.49,0,0,1.05,21.7,12,35.44l-3.42,20.58c0,.05-10.2,1-16.91-5.65-5.08-5-6.67-9.87-6.73-15.16.22-.12,12-34.2,15-42.77Z"/><path class="cls-1" d="M116,456.18a30.3,30.3,0,0,0,7.55,6.9s11.14,6.69,16.56-.25l0,0h0a.11.11,0,0,1,0,0l6.63,24.74c-.11.11-.2.24-.32.35a19.9,19.9,0,0,1-28.13-.06,20.22,20.22,0,0,1-5.72-11l0-.15L116,456.18Z"/><path class="cls-1" d="M163.18,457.36c.3,0,8.53-1,9.91-8.11.71-3.7-1.08-6.77-6.26-9.95v0l25.08-5.73.52.51A19.8,19.8,0,0,1,193,462.1c-3.92,4-9.66,6.35-14.52,5.88l-.44,0-14.83-10.57Z"/><path class="cls-1" d="M87.25,439.19c10.66-6.63,10.78-17,10.78-17.54h0a40.31,40.31,0,0,0,5.86-8.47c-3,8.57-14.76,42.65-15,42.77-6.44,3.27-13.41,3.21-17.88-.67,0,0,0,0,0,0v-.14l-.18-15.4C76.68,442,80.53,443.37,87.25,439.19Z"/><path class="cls-1" d="M69.31,402.78s1.5-14-14.67-17.76c0,0-20.36-1.77-23,20.26,0,0-2.25,19.13,17.45,29,0,0,26,13,48.64-12.21l.34-.41v0h0c0,.54-.12,10.91-10.78,17.54-6.72,4.18-10.57,2.82-16.4.57h0s-5.27,5.53-12.57,5.11c-4.66-.26-8.61-2.21-11.05-7.18,0,0-27.25-7.19-26.95-32.32,0,0,.21-27.68,28.33-31.31,0,0,20.66-1.79,28.16,19.11,0,0,4,16.55-9.34,22.35,0,0-7.6,2.64-11.92.05h.08C56.62,415.44,68.6,413.8,69.31,402.78Z"/><path class="cls-1" d="M158.41,454.14c-25.55,17.84-42.57-12.32-42.57-12.32-11.7-23-3.92-43.66-3.92-43.66,9.4-31.76,40.67-44,40.67-44,22-10.6,46-12.23,54.38-12.46l-.36-.38-.16-.17s.38-.48,1.09-1.3C197,339.08,160,337.8,133,359.45a76.66,76.66,0,0,0-21.71,27.34c-3.68,8-6.85,17-7.44,26.39,0,.4,0,.8-.07,1.21a47.92,47.92,0,0,0,.14,5.86c0,.16,0,.33,0,.49,0,0,1.05,21.7,12,35.44h0a30.3,30.3,0,0,0,7.55,6.9s11.14,6.69,16.56-.25l0,0h0a.11.11,0,0,1,0,0c.34.59,5.38,9,15.15,5.52,3.48-1.25,5.64-3.57,7.28-8.84.21-.67.41-1.39.61-2.16h0c.3,0,8.53-1,9.91-8.11.71-3.7-1.08-6.77-6.26-9.95A24.31,24.31,0,0,1,158.41,454.14Z"/><path class="cls-1" d="M207,341.71c-8.39.23-32.35,1.86-54.38,12.46,0,0-31.27,12.23-40.67,44,0,0-7.78,20.63,3.92,43.66,0,0,17,30.16,42.57,12.32a24.31,24.31,0,0,0,8.42-14.84v0c0-.23.08-.45.11-.69,0,0,1-13.92-13.07-18.38,0,0-9-3.23-15.35,5.85,0,0-6.15,8.56-1.33,15,.05.06,3.5-15.28,13.34-15.78,0,0,8.54-.44,11.21,9.24,1.44,5.19-1.27,14.73-11.25,19-9.3,3.95-20.39-1.28-25.59-8.39,0,0-18.46-22-7.12-48.34,0,0,13.11-41.68,71.13-51.38,0,0,12-2.45,19.16-2.46l-.36-.37Z"/><path class="cls-1" d="M49.05,434.24s26,13,48.64-12.21l.34-.41v0h0a40.31,40.31,0,0,0,5.86-8.47h0c.59-9.39,3.76-18.38,7.44-26.39A76.66,76.66,0,0,1,133,359.45c27-21.65,64-20.37,74.5-19.59.09-.09.17-.19.26-.3.45-.5,1-1.1,1.65-1.79-6.44-1.15-31.16-4.5-59.69,5.78,0,0-42.2,16.7-49.8,61.95,0,0-2.78,17.08-26.09,25.41,0,0-19.37,5.56-29.66-6.24,0,0-17.46-19.8,2.25-32.08,0,0,10.77-7.18,17.37,6.52,0,0,4,9.92-8.32,16.46h.08c1-.12,13-1.76,13.72-12.78,0,0,1.5-14-14.67-17.76,0,0-20.36-1.77-23,20.26C31.6,405.28,29.35,424.41,49.05,434.24Z"/></g></g></svg>