<svg xmlns="http://www.w3.org/2000/svg" viewBox="0 0 558.66 557.71"><defs><style>.cls-1{fill:none;stroke:#000;stroke-linejoin:round;}</style></defs><g id="Layer_2" data-name="Layer 2"><g id="Layer_1-2" data-name="Layer 1"><path class="cls-1" d="M289.33,335.17a23,23,0,1,1-32.47.21A23,23,0,0,1,289.33,335.17Z"/><path class="cls-1" d="M251.59,331a30,30,0,1,0,42.48-.28A30,30,0,0,0,251.59,331Zm38,36.67a23,23,0,1,1-.21-32.46A23,23,0,0,1,289.54,367.63Z"/><path class="cls-1" d="M370.54,252.9a23,23,0,1,1-32.47.21A23,23,0,0,1,370.54,252.9Z"/><path class="cls-1" d="M332.8,248.68a30,30,0,1,0,42.48-.27A30,30,0,0,0,332.8,248.68Zm37.95,36.68a23,23,0,1,1-.21-32.46A23,23,0,0,1,370.75,285.36Z"/><path class="cls-1" d="M173.42,61.46c7.06-7.15,8.91-17.35,4.32-26.09a25,25,0,0,0-4.61-6.19A21.18,21.18,0,0,0,159.62,23a23.21,23.21,0,0,0-18,7.07A31.21,31.21,0,0,0,135,40.39C88.43,23.49,58.94,53.63,55.81,57,52.19,60.47,22.54,90.23,40,136.58A23.33,23.33,0,0,0,29,142.87a22.85,22.85,0,0,0-6.4,18.22c0,.36,0,.56,0,.56s.07.58.28,1.53a22.78,22.78,0,0,0,6.4,12.13,22.31,22.31,0,0,0,6.12,4.29,22.76,22.76,0,0,0,32.27-24.79c0-.2-.06-.39-.1-.57s0-.16,0-.24a17.81,17.81,0,0,0-.85-3,16.51,16.51,0,0,0-5.72.53h0c2.61,7.12,1.78,13.65-3.51,19a16.44,16.44,0,0,1-23.54.13c-6.66-6.58-6.24-17,.33-23.65a17.11,17.11,0,0,1,15.82-4.69l.07-.11c-21.65-50.89,7.27-78.12,10.24-80.8,2.28-2.64,29.33-32.11,80.51-11.14l0,0a16.84,16.84,0,0,1,28.27-15.86c6.66,6.58,6.48,16,.2,22.88a18.35,18.35,0,0,1-19.75,4.4h0a30.22,30.22,0,0,0,.15,5.11,11,11,0,0,0,1.08.38A22.2,22.2,0,0,0,173.42,61.46Z"/><path class="cls-1" d="M22.6,161.65s0-.2,0-.56A22.85,22.85,0,0,1,29,142.87,23.33,23.33,0,0,1,40,136.58L27.1,126.77s-16.38-5.07-23.27,9.72c0,0-7,16,8.59,24.4Z"/><path class="cls-1" d="M67.57,154.24c0,.18.07.37.1.57A22.76,22.76,0,0,1,35.4,179.6L29,196.54s5.92,12.16,18.84,11.78c0,0,16.51-.43,18.8-18.49,0,0,17.46-.49,18.22-20.56,0,0-.49-16.91-18.2-18.27a17.81,17.81,0,0,1,.85,3C67.54,154.08,67.56,154.16,67.57,154.24Z"/><path class="cls-1" d="M35.4,179.6a22.31,22.31,0,0,1-6.12-4.29,22.78,22.78,0,0,1-6.4-12.13c-.21-1-.28-1.53-.28-1.53l-10.18-.76C-8.73,173,4.71,191.11,4.71,191.11,15.31,203.79,29,196.54,29,196.54Z"/><path class="cls-1" d="M188.91,4.51S170.66-8.7,158.77,12.85L159.62,23a21.18,21.18,0,0,1,13.51,6.16,25,25,0,0,1,4.61,6.19l16.92-6.63S201.72,14.94,188.91,4.51Z"/><path class="cls-1" d="M135,40.39a31.21,31.21,0,0,1,6.59-10.3,23.21,23.21,0,0,1,18-7.07l-.85-10.17c-8.62-15.45-24.49-8.52-24.49-8.52-14.69,7.08-9.42,23.39-9.42,23.39Z"/><path class="cls-1" d="M177.74,35.37c4.59,8.74,2.74,18.94-4.32,26.09a22.2,22.2,0,0,1-22.58,5.75,11,11,0,0,1-1.08-.38C151.36,84.53,168.11,85,168.11,85c20.06-1,20.32-18.48,20.32-18.48,18-2.53,18.25-19,18.25-19,.2-13.92-12-18.69-12-18.69Z"/><path class="cls-1" d="M40,136.58C22.54,90.23,52.19,60.47,55.81,57,58.94,53.63,88.43,23.49,135,40.39L124.86,27.72C75.54.55,39.13,41,39.13,41c-38.18,38.67-12,85.79-12,85.79Z"/><path class="cls-1" d="M128.82,127.75s56.32-7.43,71,54.58c.5-.28,1-.54,1.51-.8-11.58-64.15-75.51-56.32-75.51-56.32-2.93,64,48.36,73.64,57.08,74.81.26-.52.54-1,.82-1.56C173.71,196.26,124.8,182.64,128.82,127.75Z"/><path class="cls-1" d="M128.82,127.75c-4,54.89,44.89,68.51,54.86,70.71.28-.51.57-1,.88-1.51-10.41-2.62-53.89-16.58-52.53-66.17,0,0,51.19-5.19,66.25,52.42q.74-.45,1.5-.87C185.14,120.32,128.82,127.75,128.82,127.75Z"/><path class="cls-1" d="M132,130.78c-1.36,49.59,42.12,63.55,52.53,66.17.33-.54.67-1.07,1-1.6-10.52-3.41-50.31-19.08-50-61.09,0,0,42.63-3.61,61.12,50,.53-.36,1.07-.71,1.61-1C183.22,125.59,132,130.78,132,130.78Z"/><path class="cls-1" d="M135.55,134.26c-.27,42,39.52,57.68,50,61.09.37-.55.76-1.09,1.16-1.62-10.42-4.19-47.28-21.46-47.52-56.1,0,0,36.42-.62,55.88,47.72.51-.38,1-.75,1.56-1.11C178.18,130.65,135.55,134.26,135.55,134.26Z"/><path class="cls-1" d="M139.23,137.63c.24,34.64,37.1,51.91,47.52,56.1.4-.54.82-1.07,1.25-1.6-10.05-4.76-44-22.85-44.3-50.1,0,0,28.59-.48,49.84,44.56.51-.43,1-.84,1.57-1.24C175.65,137,139.23,137.63,139.23,137.63Z"/><path class="cls-1" d="M143.7,142c.27,27.25,34.25,45.34,44.3,50.1.77-.92,1.58-1.83,2.44-2.7a39.33,39.33,0,0,1,3.1-2.84C172.29,141.55,143.7,142,143.7,142Zm3.59,4c33.14,7.09,42.84,42.73,42.84,42.73C148.25,174.57,147.29,146,147.29,146Z"/><path class="cls-1" d="M147.29,146s1,28.57,42.84,42.73C190.13,188.73,180.43,153.09,147.29,146Zm5.26,5.76c21.8,6.08,31.25,30.51,31.25,30.51C158,173.47,152.55,151.76,152.55,151.76Z"/><path class="cls-1" d="M152.55,151.76s5.41,21.71,31.25,30.51C183.8,182.27,174.35,157.84,152.55,151.76Zm26.53,26.07C163.23,171.3,157,155.78,157,155.78,170.45,161.07,179.08,177.83,179.08,177.83Z"/><path class="cls-1" d="M219.07,89.47s55.2,34.68,11.43,89c.56.14,1.11.3,1.66.47,37.41-53.65-13.45-93.41-13.45-93.41C170,130,202.64,174.33,206.58,179.31c.54-.18,1.08-.36,1.62-.52C203.52,171.66,176.47,126.25,219.07,89.47Z"/><path class="cls-1" d="M219.07,89.47c-42.6,36.78-15.55,82.19-10.87,89.32.55-.16,1.1-.32,1.66-.46-5-8.1-27.42-49.66,9.33-84.45,0,0,40,32.65,9.63,84.18.56.12,1.12.26,1.68.41C264.27,124.15,219.07,89.47,219.07,89.47Z"/><path class="cls-1" d="M219.19,93.88c-36.75,34.79-14.29,76.35-9.33,84.45.6-.14,1.21-.28,1.81-.4-4.65-8.93-22.89-49.05,7.56-79.1,0,0,32.82,27.71,7.72,78.87.63.11,1.25.23,1.87.36C259.2,126.53,219.19,93.88,219.19,93.88Z"/><path class="cls-1" d="M219.23,98.83c-30.45,30.05-12.21,70.17-7.56,79.1.64-.13,1.28-.25,1.92-.34-4.14-9.53-18.88-48.7,5.86-73.77,0,0,26.3,25.44,5.61,73.6.63.08,1.26.17,1.89.28C252.05,126.54,219.23,98.83,219.23,98.83Z"/><path class="cls-1" d="M219.45,103.82c-24.74,25.07-10,64.24-5.86,73.77.65-.11,1.31-.19,2-.26-3.55-9.78-15.45-47.47,3.93-67.24,0,0,20.67,20,3.6,67.13.66.05,1.32.12,2,.2C245.75,129.26,219.45,103.82,219.45,103.82Z"/><path class="cls-1" d="M219.49,110.09c-19.38,19.77-7.48,57.46-3.93,67.24a42.08,42.08,0,0,1,7.53-.11C240.16,130.08,219.49,110.09,219.49,110.09Zm-.19,65.85c-19.6-39.62-.08-60.5-.08-60.5C237.64,143.89,219.3,175.94,219.3,175.94Z"/><path class="cls-1" d="M219.3,175.94s18.34-32.05-.08-60.5C219.22,115.44,199.7,136.32,219.3,175.94Zm.1-9c-12.06-24.49-.53-43.67-.53-43.67C230,143,219.4,166.9,219.4,166.9Z"/><path class="cls-1" d="M219.4,166.9s10.58-24-.53-43.67C218.87,123.23,207.34,142.41,219.4,166.9Zm-.2-6.48c-6.6-15.82,0-31.22,0-31.22C224.94,142.47,219.2,160.42,219.2,160.42Z"/><path class="cls-1" d="M219.2,160.42s5.74-17.95,0-31.22C219.15,129.2,212.6,144.6,219.2,160.42Z"/><path class="cls-1" d="M310,126.65s7.44,56.12-54.29,70.89c.29.5.59,1,.86,1.52,63.82-11.8,56-75.45,56-75.45-65-3-73.92,50-74.86,57.46.52.24,1,.5,1.55.76C241.17,172.65,254.48,122.58,310,126.65Z"/><path class="cls-1" d="M310,126.65c-55.5-4.07-68.81,46-70.77,55.18.5.27,1,.54,1.5.83,2.46-9.91,16.22-54.17,66.25-52.8,0,0,5.56,50.67-52.2,66.18.32.5.63,1,.93,1.5C317.42,182.77,310,126.65,310,126.65Z"/><path class="cls-1" d="M307,129.86c-50-1.37-63.79,42.89-66.25,52.8.54.32,1.08.64,1.6,1,3.26-10.18,18.87-50.54,61.17-50.26,0,0,4,42.16-49.82,61.06.38.52.75,1.06,1.1,1.6C312.52,180.53,307,129.86,307,129.86Z"/><path class="cls-1" d="M303.48,133.38c-42.3-.28-57.91,40.08-61.17,50.26.55.36,1.1.73,1.63,1.11,4.07-10.18,21.34-47.45,56.17-47.69,0,0,.85,36.13-47.61,55.83.4.51.79,1,1.16,1.55C307.47,175.54,303.48,133.38,303.48,133.38Z"/><path class="cls-1" d="M300.11,137.06c-34.83.24-52.1,37.51-56.17,47.69.54.38,1.08.78,1.6,1.2,4.68-9.91,22.81-44.15,50.16-44.42,0,0,.5,28.54-44.49,49.81.44.51.87,1,1.29,1.55C301,173.19,300.11,137.06,300.11,137.06Z"/><path class="cls-1" d="M295.7,141.53c-27.35.27-45.48,34.51-50.16,44.42a42.78,42.78,0,0,1,3.53,3.1c.75.74,1.45,1.51,2.14,2.29C296.2,170.07,295.7,141.53,295.7,141.53Zm-46.36,46.09c14.16-41.88,42.73-42.84,42.73-42.84C285,177.92,249.34,187.62,249.34,187.62Z"/><path class="cls-1" d="M249.34,187.62s35.64-9.7,42.73-42.84C292.07,144.78,263.5,145.74,249.34,187.62Zm6.46-6.33c8.8-25.84,30.51-31.25,30.51-31.25C280.23,171.84,255.8,181.29,255.8,181.29Z"/><path class="cls-1" d="M255.8,181.29s24.43-9.45,30.51-31.25C286.31,150,264.6,155.45,255.8,181.29Zm4.45-4.72c6.52-15.86,22-22.11,22-22.11C277,167.94,260.25,176.57,260.25,176.57Z"/><path class="cls-1" d="M260.25,176.57s16.75-8.63,22-22.11C282.29,154.46,266.77,160.71,260.25,176.57Z"/><path class="cls-1" d="M348.26,216.9c-36.09-41.8-80.49-16.53-88.88-11.15.18.55.34,1.1.49,1.65,9.14-5.46,49.82-26.46,84,9.63,0,0-31.74,39.58-83.34,10.09-.12.58-.26,1.16-.4,1.73C314,261.64,348.26,216.9,348.26,216.9Z"/><path class="cls-1" d="M343.85,217c-34.16-36.09-74.84-15.09-84-9.63.17.61.33,1.22.47,1.83,9.88-5,49.07-22,78.56,7.83,0,0-26.86,32.48-78,8.12-.11.65-.23,1.3-.36,1.94C312.11,256.61,343.85,217,343.85,217Z"/><path class="cls-1" d="M338.9,217.06c-29.49-29.88-68.68-12.87-78.56-7.83.15.65.28,1.29.4,1.94,10.42-4.43,48.57-18.17,73.18,6.11,0,0-24.82,26-72.79,6-.07.65-.16,1.29-.26,1.94C312,249.54,338.9,217.06,338.9,217.06Z"/><path class="cls-1" d="M333.92,217.28c-24.61-24.28-62.76-10.54-73.18-6.11.12.66.22,1.33.31,2,10.68-3.79,47.24-14.82,66.59,4.16,0,0-19.72,20.43-66.33,3.89,0,.67-.1,1.35-.18,2C309.1,243.3,333.92,217.28,333.92,217.28Z"/><path class="cls-1" d="M327.64,217.32c-19.35-19-55.91-7.95-66.59-4.16a42.46,42.46,0,0,1,.26,8.05C307.92,237.75,327.64,217.32,327.64,217.32Zm-4.86-.27c-28.45,18.42-60.51.08-60.51.08C301.9,197.53,322.78,217.05,322.78,217.05Z"/><path class="cls-1" d="M322.78,217.05s-20.88-19.52-60.51.08C262.27,217.13,294.33,235.47,322.78,217.05ZM315,216.7c-19.72,11.11-43.68.53-43.68.53C295.8,205.17,315,216.7,315,216.7Z"/><path class="cls-1" d="M315,216.7s-19.19-11.53-43.68.53C271.31,217.23,295.27,227.81,315,216.7Zm-6,.28c-13.26,5.79-31.21.05-31.21.05C293.62,210.43,309,217,309,217Z"/><path class="cls-1" d="M309,217s-15.39-6.55-31.21.05C277.8,217,295.75,222.77,309,217Z"/><path class="cls-1" d="M311.07,307.8s-55.46,7.35-70.62-53.21c-.52.3-1,.59-1.58.86,12.32,62.65,75.24,54.9,75.24,54.9,2.87-62.46-45.93-73.15-56.37-74.72-.25.55-.52,1.1-.79,1.64C268.39,239.94,315,254.18,311.07,307.8Z"/><path class="cls-1" d="M311.07,307.8c3.93-53.62-42.68-67.86-54.12-70.53-.26.51-.54,1-.82,1.54,11.66,3.11,53.06,17.56,51.73,66,0,0-50,5.51-65.89-51.1-.5.32-1,.62-1.52.91C255.61,315.15,311.07,307.8,311.07,307.8Z"/><path class="cls-1" d="M307.86,304.78c1.33-48.41-40.07-62.86-51.73-66-.32.56-.65,1.12-1,1.67,11.64,3.93,49.48,19.85,49.21,60.82,0,0-41.6,3.94-60.67-48.74-.56.39-1.12.76-1.7,1.12C257.82,310.29,307.86,304.78,307.86,304.78Z"/><path class="cls-1" d="M304.34,301.3c.27-41-37.57-56.89-49.21-60.82-.36.58-.73,1.14-1.12,1.71,11.42,4.73,46.42,22,46.65,55.74,0,0-35.6.83-55.39-46.55-.53.4-1.06.8-1.6,1.18C262.74,305.24,304.34,301.3,304.34,301.3Z"/><path class="cls-1" d="M300.66,297.93c-.23-33.76-35.23-51-46.65-55.74-.39.56-.8,1.11-1.22,1.66,11,5.36,43.14,23.2,43.4,49.67,0,0-28.09.49-49.31-43.46-.53.46-1.06.89-1.61,1.32C265.06,298.76,300.66,297.93,300.66,297.93Z"/><path class="cls-1" d="M296.19,293.52c-.26-26.47-32.36-44.31-43.4-49.67-.83,1.07-1.71,2.1-2.65,3.1,41.49,14.21,42.45,42.59,42.45,42.59-31-6.64-41.5-38.27-42.72-42.3-.14.14-.27.3-.42.44-.83.84-1.69,1.63-2.57,2.38C268.1,294,296.19,293.52,296.19,293.52Z"/><path class="cls-1" d="M292.59,289.54s-1-28.38-42.45-42.59l-.27.29C251.09,251.27,261.57,282.9,292.59,289.54Zm-5.26-5.76c-21.81-6.08-31.26-30.51-31.26-30.51C281.91,262.07,287.33,283.78,287.33,283.78Z"/><path class="cls-1" d="M287.33,283.78s-5.42-21.71-31.26-30.51C256.07,253.27,265.52,277.7,287.33,283.78Zm-26.54-26.06c15.86,6.52,22.12,22,22.12,22C269.43,274.47,260.79,257.72,260.79,257.72Z"/><path class="cls-1" d="M282.91,279.76s-6.26-15.52-22.12-22C260.79,257.72,269.43,274.47,282.91,279.76Z"/><path class="cls-1" d="M220.83,346.08c40.52-35,18-77.78,11.68-88-.55.17-1.12.34-1.68.49,6.12,10.62,24.91,49.94-10.13,83.11,0,0-39.31-31.51-10.42-82.79-.58-.14-1.14-.29-1.71-.45C176.36,312,220.83,346.08,220.83,346.08Z"/><path class="cls-1" d="M220.7,341.67c35-33.17,16.25-72.49,10.13-83.11-.63.17-1.27.33-1.9.47,5.49,11.14,20.8,49-8.27,77.7,0,0-32.22-26.65-8.41-77.43-.66-.12-1.32-.26-2-.42C181.39,310.16,220.7,341.67,220.7,341.67Z"/><path class="cls-1" d="M220.66,336.73c29.07-28.69,13.76-66.56,8.27-77.7-.67.14-1.34.28-2,.39,4.76,11.53,17.18,48.35-6.47,72.32,0,0-25.77-24.6-6.23-72.12-.65-.09-1.31-.19-2-.32C188.44,310.08,220.66,336.73,220.66,336.73Z"/><path class="cls-1" d="M220.44,331.74c23.65-24,11.23-60.79,6.47-72.32-.68.12-1.37.22-2,.3,4,11.66,14,46.88-4.46,65.75,0,0-20.22-19.53-4.14-65.61-.68-.06-1.37-.14-2-.24C194.67,307.14,220.44,331.74,220.44,331.74Z"/><path class="cls-1" d="M220.4,325.47c18.5-18.87,8.49-54.09,4.46-65.75-1.36.16-2.71.25-4.07.28,19.26,39.37-.12,60.1-.12,60.1-17.2-26.56-2.36-56.26-.31-60.08-1.37,0-2.73,0-4.1-.16C200.18,305.94,220.4,325.47,220.4,325.47Z"/><path class="cls-1" d="M220.67,320.1s19.38-20.73.12-60.1l-.43,0C218.31,263.84,203.47,293.54,220.67,320.1Zm-.18-51.47c12.06,24.49.53,43.68.53,43.68C209.91,292.59,220.49,268.63,220.49,268.63Z"/><path class="cls-1" d="M220.49,268.63s-10.58,24,.53,43.68C221,312.31,232.55,293.12,220.49,268.63Zm.2,6.49c6.6,15.82.05,31.22.05,31.22C215,293.07,220.69,275.12,220.69,275.12Z"/><path class="cls-1" d="M220.69,275.12s-5.74,17.95.05,31.22C220.74,306.34,227.29,290.94,220.69,275.12Z"/><path class="cls-1" d="M129.22,309.6s-6.76-56.9,54.46-70.94c-.28-.5-.54-1-.8-1.52-63.38,11-56.2,75.5-56.2,75.5,63.69,2.92,73.55-47.91,74.79-57-.53-.27-1.05-.54-1.57-.83C197.62,265.07,183.9,313.61,129.22,309.6Z"/><path class="cls-1" d="M129.22,309.6c54.68,4,68.4-44.53,70.68-54.75-.51-.28-1-.57-1.51-.88-2.7,10.61-16.72,53.78-66.15,52.42,0,0-5.57-50.74,52.32-66.21-.3-.5-.59-1-.88-1.52C122.46,252.7,129.22,309.6,129.22,309.6Z"/><path class="cls-1" d="M132.24,306.39c49.43,1.36,63.45-41.81,66.15-52.42-.54-.33-1.08-.67-1.61-1-3.48,10.69-19.19,50.2-61.06,49.93,0,0-4-42.19,49.88-61.08-.36-.53-.7-1.07-1-1.61C126.67,255.65,132.24,306.39,132.24,306.39Z"/><path class="cls-1" d="M135.72,302.87c41.87.27,57.58-39.24,61.06-49.93-.55-.37-1.09-.76-1.63-1.16-4.26,10.56-21.54,47.18-56.06,47.41,0,0-.17-36.79,47.61-55.85-.38-.51-.74-1-1.1-1.55C131.73,260.68,135.72,302.87,135.72,302.87Z"/><path class="cls-1" d="M139.09,299.19c34.52-.23,51.8-36.85,56.06-47.41-.54-.4-1.07-.82-1.6-1.26-4.84,10.2-22.9,43.93-50.05,44.2,0,0-.5-28.52,44.45-49.79-.43-.52-.85-1.05-1.25-1.59C138.92,262.4,139.09,299.19,139.09,299.19Z"/><path class="cls-1" d="M143.5,294.72c27.15-.27,45.21-34,50.05-44.2-.94-.77-1.85-1.58-2.73-2.45a42.15,42.15,0,0,1-2.87-3.14C143,266.2,143.5,294.72,143.5,294.72Zm47.06-46.8c-14.16,41.88-42.73,42.84-42.73,42.84C154.92,257.62,190.56,247.92,190.56,247.92Z"/><path class="cls-1" d="M190.56,247.92s-35.64,9.7-42.73,42.84C147.83,290.76,176.4,289.8,190.56,247.92Zm-6.46,6.33c-8.79,25.84-30.51,31.25-30.51,31.25C159.68,263.7,184.1,254.25,184.1,254.25Z"/><path class="cls-1" d="M184.1,254.25s-24.42,9.45-30.51,31.25C153.59,285.5,175.31,280.09,184.1,254.25ZM179.65,259c-6.52,15.86-22,22.11-22,22.11C162.9,267.6,179.65,259,179.65,259Z"/><path class="cls-1" d="M179.65,259s-16.75,8.63-22,22.11C157.61,281.08,173.13,274.83,179.65,259Z"/><path class="cls-1" d="M90.79,219s35.67-45.29,89.16-11.35c.14-.55.31-1.09.48-1.63-52.82-37.64-93.58,13.34-93.58,13.34,44.25,48.5,88.43,16.33,93.72,12.17-.18-.54-.35-1.08-.5-1.64C172.79,234.65,127.49,261.51,90.79,219Z"/><path class="cls-1" d="M90.79,219c36.7,42.51,82,15.65,89.28,10.89-.16-.55-.31-1.11-.44-1.67-8.17,5-49.68,27.37-84.43-9.35,0,0,32.15-40.08,84.32-9.53.13-.56.27-1.13.43-1.69C126.46,173.71,90.79,219,90.79,219Z"/><path class="cls-1" d="M95.2,218.87c34.75,36.72,76.26,14.35,84.43,9.35-.14-.6-.28-1.21-.4-1.82-8.94,4.66-49,22.88-79.08-7.56,0,0,27.2-32.88,79-7.65.12-.62.24-1.23.38-1.85C127.35,178.79,95.2,218.87,95.2,218.87Z"/><path class="cls-1" d="M100.15,218.84c30,30.44,70.14,12.22,79.08,7.56-.12-.64-.23-1.28-.32-1.92-9.5,4.12-48.69,18.89-73.77-5.86,0,0,26.09-26.34,73.71-5.58.09-.62.18-1.23.29-1.85C127.35,186,100.15,218.84,100.15,218.84Z"/><path class="cls-1" d="M105.14,218.62c25.08,24.75,64.27,10,73.77,5.86-.09-.66-.17-1.32-.23-2-9.74,3.54-47.49,15.48-67.27-3.92,0,0,20-20.69,67.23-3.56.05-.66.13-1.32.21-2C131.23,192.28,105.14,218.62,105.14,218.62Z"/><path class="cls-1" d="M111.41,218.58c19.78,19.4,57.53,7.46,67.27,3.92a40.63,40.63,0,0,1,0-7.48C131.39,197.89,111.41,218.58,111.41,218.58Zm66.37.19c-39.63,19.59-60.5.07-60.5.07C145.72,200.42,177.78,218.77,177.78,218.77Z"/><path class="cls-1" d="M177.78,218.77s-32.06-18.35-60.5.07C117.28,218.84,138.15,238.36,177.78,218.77Zm-9-.1c-24.49,12.05-43.67.53-43.67.53C144.79,208.08,168.74,218.67,168.74,218.67Z"/><path class="cls-1" d="M168.74,218.67s-24-10.59-43.67.53C125.07,219.2,144.25,230.72,168.74,218.67Zm-6.48.19c-15.83,6.61-31.22,0-31.22,0C144.31,213.12,162.26,218.86,162.26,218.86Z"/><path class="cls-1" d="M162.26,218.86s-17.95-5.74-31.22,0C131,218.91,146.43,225.47,162.26,218.86Z"/><path class="cls-1" d="M220.83,346.08S176.36,312,208.57,258.43c-.57-.16-1.14-.34-1.71-.53-31.55,46.87,3.79,82.8,12.48,90.56.48.44.88.78,1.19,1l.65.53,1.14-1.08c.69-.64,1.37-1.29,2-1.94,41.5-40.87,16.21-80.93,9.91-89.53-.58.21-1.15.4-1.74.59C238.83,268.3,261.35,311.1,220.83,346.08Z"/><path class="cls-1" d="M351.12,217.84c.72-.82,1.09-1.3,1.09-1.3l-.15-.16-.37-.38c-.24-.27-.49-.53-.73-.79l-.36-.38c-42.93-45.17-85.35-15.67-91.79-10.72.2.55.39,1.09.57,1.64,8.39-5.38,52.79-30.65,88.88,11.15,0,0-34.27,44.74-88.15,11.95q-.23.85-.48,1.71c44.37,30.23,79,.42,89.39-10.42l.19-.21c.65-.68,1.21-1.29,1.65-1.79Z"/><path class="cls-1" d="M238.14,213.24a6.86,6.86,0,1,0,9.69-.06A6.85,6.85,0,0,0,238.14,213.24Z"/><path class="cls-1" d="M223.79,200.47a6.85,6.85,0,1,0-9.69.07A6.85,6.85,0,0,0,223.79,200.47Z"/><path class="cls-1" d="M231.76,206.76a6.85,6.85,0,1,0-.06-9.68A6.85,6.85,0,0,0,231.76,206.76Z"/><path class="cls-1" d="M215,236.65a6.85,6.85,0,1,0,9.69-.07A6.85,6.85,0,0,0,215,236.65Z"/><path class="cls-1" d="M207.77,229.65a6.85,6.85,0,1,0,.06,9.69A6.85,6.85,0,0,0,207.77,229.65Z"/><path class="cls-1" d="M207.63,206.92a6.85,6.85,0,1,0-9.7.07A6.85,6.85,0,0,0,207.63,206.92Z"/><path class="cls-1" d="M191.64,213.54a6.85,6.85,0,1,0,9.69-.06A6.84,6.84,0,0,0,191.64,213.54Z"/><path class="cls-1" d="M231.91,229.49a6.85,6.85,0,1,0,9.69-.06A6.85,6.85,0,0,0,231.91,229.49Z"/><path class="cls-1" d="M255.69,197.54c-.3-.51-.61-1-.93-1.5s-.72-1.08-1.1-1.6-.76-1-1.16-1.55-.85-1-1.29-1.55c-.69-.78-1.39-1.55-2.14-2.29a42.78,42.78,0,0,0-3.53-3.1c-.52-.42-1.06-.82-1.6-1.2s-1.08-.75-1.63-1.11-1.06-.66-1.6-1-1-.56-1.5-.83-1-.52-1.55-.76a40,40,0,0,0-5.5-2.13c-.55-.17-1.1-.33-1.66-.47s-1.12-.29-1.68-.41-1.24-.25-1.87-.36-1.26-.2-1.89-.28-1.31-.15-2-.2a42.08,42.08,0,0,0-7.53.11c-.66.07-1.32.15-2,.26s-1.28.21-1.92.34-1.21.26-1.81.4-1.11.3-1.66.46-1.08.34-1.62.52a40.58,40.58,0,0,0-5.29,2.22c-.51.26-1,.52-1.51.8s-1,.57-1.5.87-1.08.68-1.61,1-1,.73-1.56,1.11-1.06.81-1.57,1.24a39.33,39.33,0,0,0-3.1,2.84c-.86.87-1.67,1.78-2.44,2.7-.43.53-.85,1.06-1.25,1.6s-.79,1.07-1.16,1.62-.7,1.06-1,1.6-.6,1-.88,1.51-.56,1-.82,1.56a40.74,40.74,0,0,0-2.43,6c-.17.54-.34,1.08-.48,1.63s-.3,1.13-.43,1.69-.26,1.23-.38,1.85-.2,1.23-.29,1.85-.16,1.32-.21,2a40.63,40.63,0,0,0,0,7.48c.06.66.14,1.32.23,2s.2,1.28.32,1.92.26,1.22.4,1.82.28,1.12.44,1.67.32,1.1.5,1.64a41.37,41.37,0,0,0,2.31,5.61c.26.51.52,1,.8,1.52s.58,1,.88,1.52.68,1.08,1,1.61.72,1,1.1,1.55.82,1.07,1.25,1.59a42.15,42.15,0,0,0,2.87,3.14c.88.87,1.79,1.68,2.73,2.45.53.44,1.06.86,1.6,1.26s1.08.79,1.63,1.16,1.07.7,1.61,1,1,.6,1.51.88,1,.56,1.57.83a41.87,41.87,0,0,0,5.39,2.22c.57.19,1.14.37,1.71.53s1.13.31,1.71.45,1.31.3,2,.42,1.31.23,2,.32,1.37.18,2,.24c1.37.12,2.73.17,4.1.16l.43,0c1.36,0,2.71-.12,4.07-.28.68-.08,1.37-.18,2-.3s1.35-.25,2-.39,1.27-.3,1.9-.47,1.13-.32,1.68-.49,1.16-.38,1.74-.59a42.89,42.89,0,0,0,4.62-2c.53-.27,1.06-.56,1.58-.86s1-.59,1.52-.91,1.14-.73,1.7-1.12,1.07-.78,1.6-1.18,1.08-.86,1.61-1.32c.88-.75,1.74-1.54,2.57-2.38.15-.14.28-.3.42-.44l.27-.29c.94-1,1.82-2,2.65-3.1.42-.55.83-1.1,1.22-1.66s.76-1.13,1.12-1.71.68-1.11,1-1.67.56-1,.82-1.54.54-1.09.79-1.64a42.36,42.36,0,0,0,1.89-5.07q.25-.85.48-1.71c.14-.57.28-1.15.4-1.73s.25-1.29.36-1.94.19-1.29.26-1.94.14-1.36.18-2a42.46,42.46,0,0,0-.26-8.05c-.09-.66-.19-1.33-.31-2s-.25-1.29-.4-1.94-.3-1.22-.47-1.83-.31-1.1-.49-1.65-.37-1.09-.57-1.64a42.1,42.1,0,0,0-2.26-5.05C256.28,198.55,256,198,255.69,197.54ZM243.4,194.8a33.39,33.39,0,1,1-47.22.31A33.38,33.38,0,0,1,243.4,194.8Z"/><path class="cls-1" d="M196.18,195.11a33.38,33.38,0,1,0,47.22-.31A33.39,33.39,0,0,0,196.18,195.11Zm2,44.29a6.85,6.85,0,1,1,9.68-.06A6.85,6.85,0,0,1,198.15,239.4Zm26.64,6.87a6.85,6.85,0,1,1-.06-9.69A6.85,6.85,0,0,1,224.79,246.27Zm-23.4-23.1a6.85,6.85,0,1,1-.06-9.69A6.85,6.85,0,0,1,201.39,223.17Zm-3.52-25.87a6.85,6.85,0,1,1,.06,9.69A6.84,6.84,0,0,1,197.87,197.3Zm43.79,41.82a6.85,6.85,0,1,1-.06-9.69A6.85,6.85,0,0,1,241.66,239.12ZM214,190.85a6.85,6.85,0,1,1,.06,9.69A6.85,6.85,0,0,1,214,190.85Zm33.86,32a6.86,6.86,0,1,1-.07-9.69A6.85,6.85,0,0,1,247.9,222.87ZM241.39,197a6.85,6.85,0,1,1-9.69.07A6.85,6.85,0,0,1,241.39,197Z"/><path class="cls-1" d="M157,155.78s6.26,15.52,22.11,22.05C179.08,177.83,170.45,161.07,157,155.78Z"/><path class="cls-1" d="M124.24,487.32h0s-5.46,5.33-4.95,12.62c.33,4.67,2.33,8.59,7.33,11l-13.3,11.26a25.93,25.93,0,0,1-6.5-4.44c-8.1-8-8.81-20.39-1.59-27.71a23.62,23.62,0,0,1,3.51-2.68h.1Z"/><path class="cls-1" d="M125.54,536.22c-9.62-12.1,1.08-25.3,1.08-25.3s7.54,27.15,32.67,26.52c0,0,27.67-.57,30.94-28.73,0,0,1.52-20.68-19.48-27.91,0,0-16.59-3.74-22.22,9.63,0,0-2.55,7.63.1,11.91-6.61-8.2-7.43-21.54.37-29.45,8.06-8.16,22.25-7.63,30.53-.46a18.88,18.88,0,0,1,17.58,4.68c7.64,7.54,7,20.53-1.34,29a3.07,3.07,0,0,1-.26.25c.12.12.26.22.38.34a19.69,19.69,0,0,1-.17,27.84,20,20,0,0,1-17.05,5.82,17.9,17.9,0,0,1-5.12,11.51c-7.21,7.31-19.32,7.06-27-.55a20.64,20.64,0,0,1-4.37-6.31C134.74,543.31,128.86,540.41,125.54,536.22Z"/><path class="cls-1" d="M119.65,540.21a21.2,21.2,0,0,1-6.36-18l0,0,13.3-11.26s-10.7,13.2-1.08,25.3c3.32,4.19,9.2,7.09,16.61,8.8C135.07,548.16,126,546.5,119.65,540.21Z"/><path class="cls-1" d="M137.07,419.48c9-6.52,5.66-15.42,5.66-15.42-4.65-14-18.56-12.83-18.56-12.83l-.68.11,5.4-25.15h0a20.15,20.15,0,0,1,26.4,28.62l.11.11a21.88,21.88,0,0,1-20.2,37h0a21.72,21.72,0,0,1-13.08-11C128.6,425.74,137.07,419.48,137.07,419.48Z"/><path class="cls-1" d="M94.54,403.28c1.21-3.49,3.49-5.68,8.74-7.39.67-.22,1.39-.43,2.16-.64L94.67,380.56A20.58,20.58,0,0,0,77,386.28a19.83,19.83,0,0,0-1.6,25.77l24.83,6.3C99.66,418,91.14,413.09,94.54,403.28Z"/><path class="cls-1" d="M150.39,453.94h0l-1.21.08a44.15,44.15,0,0,1-5.86-.06l-.49,0s-21.71-.77-35.6-11.52L86.7,446.11s-.86,10.21,5.87,16.83c5.1,5,10,6.55,15.26,6.53.1-.22,34-12.45,42.56-15.53Z"/><path class="cls-1" d="M107.23,442.42a30.65,30.65,0,0,1-7-7.46s-6.83-11,0-16.57l0,0h0l0,0-24.83-6.3-.34.32a19.89,19.89,0,0,0,.42,28.13,20.15,20.15,0,0,0,11,5.58l.15,0,20.53-3.69Z"/><path class="cls-1" d="M105.44,395.22c0-.29.87-8.53,8-10,3.68-.77,6.78,1,10,6.13h0l5.4-25.15-.52-.51a19.79,19.79,0,0,0-28.05-.15c-3.92,4-6.23,9.74-5.69,14.59,0,.15,0,.3,0,.44l10.77,14.69Z"/><path class="cls-1" d="M113.43,385.22c-7.12,1.47-8,9.71-8,10v0h0c-.77.21-1.49.42-2.16.64-5.25,1.71-7.53,3.9-8.74,7.39-3.4,9.81,5.12,14.74,5.72,15.07l0,0h0l0,0c-6.87,5.52,0,16.57,0,16.57a30.65,30.65,0,0,0,7,7.46h0c13.89,10.75,35.6,11.52,35.6,11.52l.49,0a44.15,44.15,0,0,0,5.86.06l1.21-.08h0c9.38-.71,18.33-4,26.29-7.78a76.72,76.72,0,0,0,27.06-22.06C225.3,396.48,223.23,359,222.32,349L221.18,350l-.65-.53c-.09,8-1.26,32.41-11.77,55,0,0-11.82,31.43-43.45,41.25,0,0-20.53,8-43.71-3.36,0,0-30.38-16.63-12.87-42.4a24.29,24.29,0,0,1,14.73-8.61C120.21,386.21,117.11,384.45,113.43,385.22Z"/><path class="cls-1" d="M108.73,400c-17.51,25.77,12.87,42.4,12.87,42.4,23.18,11.4,43.71,3.36,43.71,3.36,31.63-9.82,43.45-41.25,43.45-41.25,10.51-22.56,11.68-47,11.77-55-.31-.26-.71-.6-1.19-1,.18,7.1-2.21,19.58-2.21,19.58-8.95,58.15-50.45,71.8-50.45,71.8-26.23,11.68-48.43-6.5-48.43-6.5-7.18-5.1-12.55-16.12-8.72-25.47,4.1-10,13.6-12.87,18.82-11.5,9.71,2.55,9.38,11.09,9.38,11.09-.38,9.84-15.67,13.5-15.6,13.55,6.47,4.73,14.94-1.53,14.94-1.53,9-6.52,5.66-15.42,5.66-15.42-4.65-14-18.56-12.83-18.56-12.83l-.68.11h0A24.29,24.29,0,0,0,108.73,400Z"/><path class="cls-1" d="M124.6,470.92c6.49-10.75,16.86-11,17.4-11h0a40.43,40.43,0,0,1,8.39-6c-8.53,3.08-42.46,15.31-42.56,15.53-3.2,6.48-3,13.46.89,17.87l0,0h.14l15.4,0C121.92,481.53,120.51,477.69,124.6,470.92Z"/><path class="cls-1" d="M222.32,349c.91,10,3,47.53-18.58,75.15a76.72,76.72,0,0,1-27.06,22.06c-8,3.79-16.91,7.07-26.29,7.78h0a40.43,40.43,0,0,0-8.39,6h0c-.27.22-.41.35-.41.35-24.89,23-11.58,48.79-11.58,48.79,10.09,19.57,29.19,17.07,29.19,17.07,22-3,20-23.29,20-23.29-3.92-16.13-17.95-14.45-17.95-14.45-11,.86-12.49,12.85-12.6,13.89a.45.45,0,0,0,0,.08C155,490,165,493.82,165,493.82c13.79,6.41,6.75,17.28,6.75,17.28-12,19.86-32,2.67-32,2.67-11.93-10.14-6.62-29.58-6.62-29.58,8-23.42,25.06-26.42,25.06-26.42,45.15-8.19,61.3-50.6,61.3-50.6,10.12-29.28,6.08-54.4,4.92-60.16C223.69,347.66,223,348.31,222.32,349Z"/><path class="cls-1" d="M161.24,488.38s14-1.68,17.95,14.45c0,0,2,20.33-20,23.29,0,0-19.1,2.5-29.19-17.07,0,0-13.31-25.81,11.58-48.79,0,0,.14-.13.41-.35h0c-.54,0-10.91.26-17.4,11-4.09,6.77-2.68,10.61-.36,16.4h0s-5.46,5.33-4.95,12.62c.33,4.67,2.33,8.59,7.33,11,0,0,7.54,27.15,32.67,26.52,0,0,27.67-.57,30.94-28.73,0,0,1.52-20.68-19.48-27.91,0,0-16.59-3.74-22.22,9.63,0,0-2.55,7.63.1,11.91h0v-.07C148.75,501.23,150.23,489.24,161.24,488.38Z"/><path class="cls-1" d="M487.81,117.94h0s5.26-5.52,12.56-5.11C505,113.1,509,115,511.44,120l11.08-13.45a25.75,25.75,0,0,0-4.52-6.44c-8.09-8-20.51-8.54-27.72-1.23a22.13,22.13,0,0,0-2.64,3.55v.09Z"/><path class="cls-1" d="M536.72,118.61c-12.22-9.46-25.28,1.41-25.28,1.41s27.24,7.18,26.94,32.32c0,0-.21,27.67-28.33,31.31,0,0-20.66,1.79-28.16-19.12,0,0-4-16.54,9.35-22.34,0,0,7.59-2.65,11.91-.06-8.29-6.5-21.64-7.15-29.45.76-8.05,8.16-7.34,22.35-.06,30.53a18.9,18.9,0,0,0,4.9,17.52c7.64,7.54,20.62,6.77,29-1.72l.25-.26c.11.12.22.25.34.37A19.68,19.68,0,0,0,536,188.8a20,20,0,0,0,5.6-17.12A17.89,17.89,0,0,0,553,166.41c7.22-7.31,6.82-19.41-.9-27a20.41,20.41,0,0,0-6.37-4.28C543.93,127.72,541,121.88,536.72,118.61Z"/><path class="cls-1" d="M540.63,112.66a21.22,21.22,0,0,0-18.08-6.12l0,0L511.44,120s13.06-10.87,25.28-1.41c4.23,3.27,7.21,9.11,9,16.5C548.78,128,547,119,540.63,112.66Z"/><path class="cls-1" d="M420.14,131.65c-6.4,9.09-15.35,5.86-15.35,5.86-14-4.46-13.07-18.39-13.07-18.39,0-.23.08-.46.11-.69l-25.08,5.74h0a20.15,20.15,0,0,0,29,26l.11.11a21.88,21.88,0,0,0,36.79-20.68h0a21.79,21.79,0,0,0-11.14-12.94C426.29,123.1,420.14,131.65,420.14,131.65Z"/><path class="cls-1" d="M403.39,89.33c-3.48,1.26-5.64,3.57-7.28,8.84-.21.68-.41,1.39-.6,2.17L380.68,89.77a20.57,20.57,0,0,1,5.49-17.72,19.81,19.81,0,0,1,25.74-1.93l6.63,24.74C418.2,94.27,413.16,85.81,403.39,89.33Z"/><path class="cls-1" d="M454.77,144.53h0c0-.4.06-.81.07-1.21a46,46,0,0,0-.14-5.86,3.84,3.84,0,0,0,0-.5s-1.05-21.69-12-35.44l3.42-20.58s10.2-1,16.91,5.65c5.08,5,6.67,9.87,6.73,15.17-.22.11-12,34.19-15,42.77Z"/><path class="cls-1" d="M442.69,101.52a30.32,30.32,0,0,0-7.55-6.9s-11.13-6.69-16.56.26l0,0h0l0,0-6.63-24.74c.11-.12.2-.24.32-.36a19.89,19.89,0,0,1,28.13.07,20.13,20.13,0,0,1,5.72,11,.8.8,0,0,1,0,.15l-3.42,20.58Z"/><path class="cls-1" d="M395.48,100.34c-.3,0-8.53,1-9.91,8.12-.71,3.69,1.09,6.76,6.26,10v0l-25.08,5.74c-.24-.23-.45-.45-.52-.52a19.8,19.8,0,0,1-.52-28.05c3.92-4,9.67-6.34,14.53-5.88l.44,0,14.82,10.57Z"/><path class="cls-1" d="M471.42,118.51c-10.67,6.63-10.78,17-10.79,17.55h0a40.31,40.31,0,0,0-5.86,8.47c3-8.58,14.76-42.66,15-42.77,6.44-3.28,13.41-3.21,17.88.67a0,0,0,0,0,0,0v.14l.18,15.4C482,115.7,478.13,114.34,471.42,118.51Z"/><path class="cls-1" d="M489.35,154.93s-1.5,14,14.68,17.75c0,0,20.36,1.78,23-20.26,0,0,2.26-19.13-17.45-28.95,0,0-26-13-48.63,12.2l-.35.41s0,0,0,0h0c0-.54.12-10.92,10.79-17.55,6.71-4.17,10.57-2.81,16.39-.57h0s5.26-5.52,12.56-5.11C505,113.1,509,115,511.44,120c0,0,27.24,7.18,26.94,32.32,0,0-.21,27.67-28.33,31.31,0,0-20.66,1.79-28.16-19.12,0,0-4-16.54,9.35-22.34,0,0,7.59-2.65,11.91-.06h-.08C502,142.27,490.06,143.91,489.35,154.93Z"/><path class="cls-1" d="M400.25,103.56c25.55-17.84,42.57,12.33,42.57,12.33,11.7,23,3.92,43.66,3.92,43.66-9.4,31.76-40.67,44-40.67,44-22,10.61-46,12.23-54.38,12.47l.37.38.15.16s-.37.48-1.09,1.3c10.55.79,47.5,2.07,74.51-19.59a76.58,76.58,0,0,0,21.7-27.34c3.69-8,6.85-17,7.44-26.38,0-.4.06-.81.07-1.21a46,46,0,0,0-.14-5.86c0-.17,0-.33,0-.5,0,0-1.05-21.69-12-35.44h0a30.32,30.32,0,0,0-7.55-6.9s-11.13-6.69-16.56.26l0,0h0l0,0c-.34-.59-5.38-9-15.15-5.53-3.48,1.26-5.64,3.57-7.28,8.84-.21.68-.41,1.39-.6,2.17h0c-.3,0-8.53,1-9.91,8.12-.71,3.69,1.09,6.76,6.26,10A24.35,24.35,0,0,1,400.25,103.56Z"/><path class="cls-1" d="M351.69,216c8.39-.24,32.35-1.86,54.38-12.47,0,0,31.27-12.22,40.67-44,0,0,7.78-20.64-3.92-43.66,0,0-17-30.17-42.57-12.33a24.35,24.35,0,0,0-8.42,14.85v0c0,.23-.08.46-.11.69,0,0-1,13.93,13.07,18.39,0,0,8.95,3.23,15.35-5.86,0,0,6.15-8.55,1.33-15-.05-.07-3.5,15.27-13.34,15.78,0,0-8.54.43-11.21-9.24-1.44-5.19,1.27-14.73,11.25-19,9.31-3.94,20.39,1.28,25.59,8.39,0,0,18.46,22,7.12,48.35,0,0-13.11,41.67-71.13,51.37,0,0-12,2.46-19.15,2.46l.36.38C351.2,215.47,351.45,215.73,351.69,216Z"/><path class="cls-1" d="M509.61,123.47s-26-13-48.63,12.2l-.35.41s0,0,0,0h0a40.31,40.31,0,0,0-5.86,8.47h0c-.59,9.38-3.75,18.38-7.44,26.38a76.58,76.58,0,0,1-21.7,27.34c-27,21.66-64,20.38-74.51,19.59l-.26.3c-.44.5-1,1.11-1.65,1.79,6.45,1.16,31.16,4.5,59.69-5.77,0,0,42.2-16.7,49.8-62,0,0,2.78-17.08,26.09-25.4,0,0,19.37-5.56,29.67,6.24,0,0,17.45,19.79-2.26,32.08,0,0-10.77,7.18-17.37-6.53,0,0-4-9.92,8.32-16.46h-.08c-1,.13-13,1.77-13.72,12.79,0,0-1.5,14,14.68,17.75,0,0,20.36,1.78,23-20.26C527.06,152.42,529.32,133.29,509.61,123.47Z"/></g></g></svg>