<svg xmlns="http://www.w3.org/2000/svg" viewBox="0 0 317.08 237.52"><defs><style>.cls-1{fill:#1b2e72;}</style></defs><g id="Layer_2" data-name="Layer 2"><g id="레이어_1" data-name="레이어 1"><line class="cls-1" x1="317.08" y1="237.52" x2="311.13" y2="237.52"/><path class="cls-1" d="M223,19.61h11V0H214.38V12.76h5.76v-7h8.08v8.07H206.3V0L195.74.05H0v6c71.94,0,144.49,0,200.53,0V19.61H223Z"/><polygon class="cls-1" points="317.07 111.63 317.06 111.63 317.06 110.76 303.22 110.76 303.22 104.45 303.22 102.69 303.22 96.92 303.22 93.71 303.22 88.84 311.29 88.84 311.29 96.92 304.3 96.92 304.3 102.69 317.06 102.69 317.06 83.07 297.45 83.07 297.45 93.71 297.45 96.92 297.45 102.69 297.45 104.45 297.45 116.53 311.13 116.53 311.13 237.52 317.07 237.52 317.07 120.81 317.07 111.63"/><path class="cls-1" d="M283.6,26.61h5.77V5.77h21.92V27.69h-7v5.77h12.76V0H283.6Z"/><polygon class="cls-1" points="275.53 20.69 269.76 20.69 269.76 47.3 282.52 47.3 282.52 41.54 275.53 41.54 275.53 20.69"/><polygon class="cls-1" points="283.6 34.54 283.6 61.15 303.22 61.15 303.22 48.39 297.45 48.39 297.45 55.38 289.37 55.38 289.37 34.54 283.6 34.54"/><polygon class="cls-1" points="290.45 47.3 311.29 47.3 311.29 69.23 283.6 69.23 283.6 102.69 296.37 102.69 296.37 96.92 289.37 96.92 289.37 74.99 317.06 74.99 317.06 41.54 290.45 41.54 290.45 47.3"/><path class="cls-1" d="M276.61,33.46h19.76V27.69H276.61Z"/><polygon class="cls-1" points="269.76 12.76 275.53 12.76 275.53 0 242.07 0 242.07 27.69 220.14 27.69 220.14 20.69 214.38 20.69 214.38 33.46 247.84 33.46 247.84 5.77 269.76 5.77 269.76 12.76"/><polygon class="cls-1" points="261.68 19.61 282.52 19.61 282.52 13.84 255.91 13.84 255.91 33.46 268.68 33.46 268.68 27.69 261.68 27.69 261.68 19.61"/><path class="cls-1" d="M303.22,40.46V13.84H290.46v5.77h7V40.46Z"/></g></g></svg>