<svg width="174" height="22" viewBox="0 0 174 22" fill="none" xmlns="http://www.w3.org/2000/svg">
<path d="M110.264 16.9485H105.543C105.07 16.9485 104.646 16.7597 104.362 16.4292C104.079 16.2403 103.937 15.8155 103.937 15.2961V0.0944118H98.0833V18.7897C98.0833 19.6395 98.3666 20.3949 98.9803 20.9614C99.5469 21.6223 100.397 21.9528 101.246 21.9528H115.079C115.929 21.9528 116.731 21.6223 117.345 20.9614C117.912 20.3949 118.242 19.6395 118.242 18.7897V0.0944118H112.482V15.2961C112.482 15.8155 112.246 16.2403 112.01 16.4292C111.633 16.8069 111.349 16.9485 110.877 16.9485H110.264Z" fill="#D9212D"/>
<path d="M89.9435 15.3434C89.9435 15.7682 89.7547 16.1931 89.4242 16.5236C89.1409 16.8069 88.7632 16.9485 88.3383 16.9485H82.4843C82.0594 16.9485 81.6345 16.7597 81.3512 16.4292C81.0679 16.2403 80.8791 15.8155 80.8791 15.2489V6.65664C80.9263 6.18454 81.1152 5.80687 81.4928 5.61803C81.7289 5.28755 82.1066 5.09871 82.4843 5.09871H88.3383C88.8576 5.09871 89.1881 5.24034 89.4714 5.61803C89.8491 5.90129 89.9907 6.32618 89.9907 6.93991L95.8448 7.08155V3.35192C95.8448 2.45493 95.4671 1.60514 94.8062 0.991405C94.1924 0.424881 93.437 0.0944118 92.5873 0.0944118H78.377C77.48 0.141622 76.6774 0.424881 76.0164 0.991405C75.4499 1.65235 75.1667 2.50214 75.1667 3.35192V18.7897C75.1667 19.6395 75.4499 20.3949 76.0164 20.9614C76.6302 21.6223 77.48 22 78.377 21.9528H92.7289C93.5315 21.9528 94.4285 21.5279 94.8534 20.9142C95.4671 20.3949 95.8448 19.4979 95.8448 18.6953V15.0601L89.9435 15.3434Z" fill="#D9212D"/>
<path d="M65.1188 13.4549C65.4492 13.5022 65.7797 13.6438 66.063 13.8798C66.299 14.0215 66.4879 14.3991 66.3934 14.7768V15.8155L66.063 16.5708L65.1188 16.9957H51.3333V22H69.0844C69.9342 22 70.6896 21.6223 71.3505 20.9614C71.9643 20.3949 72.2947 19.5923 72.2947 18.7897V11.7554C72.2475 10.9056 71.9171 10.0558 71.3505 9.44206C70.7368 8.92275 69.9342 8.59227 69.0844 8.59227H58.5565C58.2261 8.59227 57.8956 8.40343 57.6595 8.12017C57.3291 7.93133 57.1402 7.60086 57.1874 7.22317V6.32618C57.3291 6.04292 57.3291 5.71245 57.6595 5.42919C57.8956 5.19314 58.2261 5.0515 58.5565 5.0515H72.3891V0H54.6853C53.8827 0 53.0801 0.330469 52.5136 0.896993C51.8054 1.51073 51.4278 2.36051 51.4278 3.25751V10.2918C51.4278 11.0944 51.8054 11.9442 52.372 12.5579C52.9857 13.1245 53.7883 13.4077 54.5909 13.4077H65.1188" fill="#D9212D"/>
<path d="M34.9474 0.0471935H33.6728L32.9174 1.93561L24.75 21.9528H30.6041L31.9732 18.5064H41.7457L43.162 21.9528H48.9689L40.8487 1.93561L40.0462 0.0471935H34.9474ZM33.8616 13.8798L36.5054 7.55365L36.8358 6.4678L39.8101 13.8798H33.8616Z" fill="#D9212D"/>
<path d="M26.8627 3.30472C26.8627 2.40773 26.6738 1.55793 26.0601 1.03862C25.4464 0.472095 24.6438 0.0944207 23.794 0H7.17597V8.45065H0V12.8884H7.17597V21.9056H13.03V12.8884H23.794C24.691 12.8884 25.4936 12.6524 26.0601 12.0858C26.6738 11.4721 26.9571 10.6223 26.8627 9.77253V3.30472ZM19.8283 4.67382L20.6781 4.95708C20.9614 5.28756 21.103 5.61803 21.103 5.85408V7.08155C21.103 7.45923 20.9614 7.69528 20.6781 7.97854C20.5837 8.21459 20.1116 8.45065 19.8283 8.45065H13.03V4.62661H19.8283" fill="#D9212D"/>
<path d="M167.75 21.9056H173.604V0H167.75V21.9056Z" fill="#D9212D"/>
<path d="M135.918 15.3434C135.871 15.7682 135.682 16.1931 135.399 16.5236C135.163 16.8541 134.738 16.9485 134.266 16.9485H128.506C127.987 16.9485 127.609 16.8069 127.326 16.4292C127.043 16.2403 126.901 15.8155 126.901 15.2489V6.65664C126.901 6.18454 127.137 5.80687 127.326 5.61803C127.657 5.28755 128.082 5.09871 128.554 5.09871H134.266C134.691 5.09871 135.116 5.24034 135.399 5.61803C135.777 5.80687 135.966 6.32618 135.918 6.93991L141.725 7.08155V3.35192C141.725 2.45493 141.395 1.60514 140.781 0.991405C140.167 0.424881 139.365 0.141622 138.515 0.0944118H124.163C123.361 0.141622 122.605 0.472092 122.039 0.991405C121.378 1.60514 121 2.45493 121 3.35192V18.7897C121 19.6395 121.472 20.3949 122.039 20.9614C122.558 21.5751 123.361 21.9528 124.163 21.9528H138.609C139.506 21.9528 140.309 21.5279 140.876 20.9142C141.442 20.3004 141.773 19.4979 141.773 18.6953V15.0601L135.918 15.3434Z" fill="#D9212D"/>
<path d="M158.741 15.3434C158.741 15.7683 158.552 16.1931 158.221 16.5236C158.08 16.8541 157.608 16.9485 157.136 16.9485H151.376C150.951 16.9485 150.526 16.8069 150.29 16.4292C149.96 16.2403 149.771 15.8155 149.771 15.2489V6.65665C149.771 6.18454 149.96 5.80687 150.29 5.61803C150.526 5.24035 150.951 5.09871 151.376 5.09871H157.136C157.608 5.09871 158.08 5.24035 158.221 5.61803C158.646 5.90129 158.741 6.32618 158.741 6.93991L164.642 7.08155V3.35192C164.595 2.45493 164.264 1.60514 163.651 0.991407C162.99 0.424883 162.187 0.0944138 161.337 0.0944138H147.127C146.277 0.141624 145.475 0.424883 144.861 0.991407C144.247 1.60514 143.917 2.45493 143.917 3.35192V18.7897C143.917 19.6395 144.247 20.3949 144.861 20.9614C145.427 21.6223 146.23 22 147.127 21.9528H161.526C162.376 21.8584 163.179 21.5279 163.792 20.9142C164.359 20.3004 164.689 19.4979 164.736 18.6953V15.0601L158.741 15.3434Z" fill="#D9212D"/>
</svg>
