<?xml version="1.0" encoding="utf-8"?>
<!-- Generator: Adobe Illustrator 27.2.0, SVG Export Plug-In . SVG Version: 6.00 Build 0)  -->
<svg version="1.1" id="Layer_1" xmlns="http://www.w3.org/2000/svg" xmlns:xlink="http://www.w3.org/1999/xlink" x="0px" y="0px"
	 viewBox="0 0 1263 158.75" style="enable-background:new 0 0 1263 158.75;" xml:space="preserve">
<style type="text/css">
	.st0{fill:#F5F2F3;}
</style>
<g>
	<path class="st0" d="M986.9,113.9c0,2.9-0.97,5.31-2.9,7.24c-1.93,1.93-4.35,2.9-6.77,2.9s-5.32-0.97-6.77-2.9
		c-1.93-1.93-2.9-4.83-2.9-7.24V49.19h-34.81v64.7c0,7.73,2.42,15.45,6.29,22.21c3.87,6.76,10.15,12.55,17.41,15.93
		c6.77,2.9,13.54,4.35,20.79,3.86c7.25,0,14.5-1.45,20.79-3.86c7.26-3.38,13.06-8.69,17.42-15.93c0.48-0.97,1.45-2.41,1.93-3.38
		c2.9-5.79,4.35-12.07,4.83-18.83v-64.7h-34.82v64.7L986.9,113.9L986.9,113.9z"/>
	<path class="st0" d="M869.4,109.56c-0.48-2.41-0.97-4.83-0.97-7.24c0-4.35,0.97-8.21,2.9-11.59c1.45-2.41,3.87-4.83,6.29-6.28
		l1.45-0.97c1.93-0.97,3.38-1.45,5.32-1.93c2.42-0.48,4.35-0.48,6.77-0.48c2.9,0.48,5.32,0.97,8.22,1.93
		c3.38,1.45,6.77,3.38,9.67,5.79V53.06c-7.25-3.38-14.99-5.31-23.21-5.31c-4.83,0-9.67,0.48-14.02,1.93
		c-6.77,1.93-13.05,4.83-18.37,9.17c-5.8,4.83-10.64,10.62-14.02,16.9c-1.93,3.86-3.38,7.73-4.35,11.59
		c-1.45,4.83-1.93,9.66-1.93,14.49c0,10.14,2.9,20.28,8.22,29.45c7.25,11.59,17.89,19.8,30.46,23.18c4.35,0.97,9.19,1.93,14.02,1.93
		c6.29,0,12.57-0.97,18.37-3.38c1.45-0.48,2.9-1.45,4.35-1.93v-35.73c-2.9,2.41-6.29,4.35-9.67,5.79c-2.42,0.97-5.32,1.93-8.22,1.93
		c-2.42,0.48-4.35,0-6.77-0.48c-1.93-0.48-3.87-0.97-5.32-1.93C874.72,118.73,871.33,114.39,869.4,109.56z"/>
	<path class="st0" d="M584.12,89.76c-0.48,1.93-1.45,3.38-2.9,4.83c-1.93,1.45-3.87,1.93-5.8,1.93h-7.25V77.68h5.8h2.42
		c2.9,0,5.8,1.93,7.74,4.35l0.97,1.45l0.48,1.93C584.6,86.86,584.6,88.3,584.12,89.76z M580.24,123.56h4.83
		c5.32-0.48,10.15-1.45,14.99-3.86c6.29-2.9,11.12-7.24,14.5-13.04c1.45-2.41,2.42-5.31,2.9-7.73c1.45-7.24,1.93-14.49,0.48-21.24
		c-0.48-2.9-1.45-5.79-2.9-8.21c-0.97-1.93-2.42-3.38-3.38-5.31c-7.25-8.21-17.89-13.04-28.53-13.04h-49.8v102.37h34.81v-29.94h5.8
		h4.83h0.48L580.24,123.56L580.24,123.56z"/>
	<path class="st0" d="M666.79,110.04l0.97-4.83l2.42-10.14l2.42-8.69l2.9,12.07l1.93,6.76l0.48,2.9l2.42,8.69h-15.47L666.79,110.04z
		 M673.08,140.94h13.05l2.9,11.11v0.97h36.75l-10.15-30.42l-24.17-72.43h-20.79h-17.41l-24.17,72.43l-10.15,30.42h36.75l1.45-4.83
		l1.93-7.24h11.6H673.08z"/>
	<path class="st0" d="M736.91,145.29c10.15,6.76,21.76,10.14,33.84,10.62c5.32,0.48,11.12,0,16.44-1.45
		c3.38-0.97,6.77-1.93,10.15-3.38c1.93-0.97,3.87-2.41,5.8-3.86c2.42-1.93,4.83-4.35,6.77-7.24s3.38-5.79,4.83-8.69
		c0.48-0.97,0.97-2.41,0.97-3.38c1.45-4.83,1.45-10.14,0.97-14.97c-0.48-1.93-0.48-3.86-0.97-5.79c-0.97-2.9-2.42-5.79-4.35-8.21
		l-2.42-2.41l-0.97-0.97c-2.42-1.93-4.83-3.38-7.74-4.35l-1.93-0.48l-7.74-2.41l-3.38-0.97c-1.93-0.48-3.87-1.45-6.29-2.41
		l-1.45-0.97c-0.97-0.48-1.93-1.45-2.42-2.9v-0.97l0.48-2.9l1.93-1.93l0.97-0.48h0.97c0.97-0.48,2.42-0.48,3.87-0.48
		c2.42,0,5.32,0.48,7.74,0.97c4.35,1.45,8.22,3.38,12.09,5.79l0.97,0.97l1.45-3.38l8.7-20.76l0.48-1.45l-0.48-0.48
		c-4.83-2.9-9.67-4.83-14.5-6.28c-5.32-1.93-11.12-2.41-16.92-2.41c-3.87,0-7.74,0-11.6,0.97c-3.87,0.97-7.74,1.93-11.6,4.35
		c-3.38,1.93-6.29,3.86-9.19,6.76c-3.87,3.86-6.77,8.69-8.22,14c-0.48,0.97-0.48,2.41-0.97,3.38c-0.97,4.35-0.97,9.17,0,13.52
		c0.48,3.38,1.93,6.76,3.87,9.66c1.93,2.9,4.35,5.31,6.77,7.24c2.9,1.93,5.8,3.38,8.7,4.35l12.09,3.86l2.9,1.45l1.45,1.45
		c0.97,0.97,1.45,2.9,0.97,4.35l-0.97,2.41l-0.97,0.97c-1.45,0.97-3.38,1.45-5.32,1.45l-2.42-0.48c-1.93-0.48-3.87-0.97-5.8-1.45
		c-5.32-1.93-10.64-4.35-15.47-7.73l-0.48-0.48l-0.97,2.9l-9.19,23.18L736.91,145.29z"/>
	<path class="st0" d="M1228.19,153.5H1263V51.13h-34.81V153.5z"/>
	<path class="st0" d="M1074.42,109.56c-0.48-2.41-0.97-4.83-0.97-7.24c0-4.35,0.97-8.21,2.9-11.59c1.45-2.41,3.87-4.83,6.29-6.28
		l1.45-0.97c1.45-0.97,3.38-1.45,5.32-1.93c2.42-0.48,4.35-0.48,6.77-0.48c2.9,0.48,5.32,0.97,8.22,1.93
		c3.39,1.45,6.78,3.38,9.68,5.79V53.06c-1.45-0.97-2.9-1.45-4.83-1.93c-5.81-2.41-12.1-3.38-18.38-3.38
		c-4.83,0-9.67,0.48-14.02,1.93c-6.77,1.93-13.05,4.83-18.37,9.17c-5.8,4.83-10.64,10.62-14.02,16.9
		c-1.93,3.86-3.38,7.73-4.35,11.59c-1.45,4.83-1.93,9.66-1.93,14.49c0,10.62,2.9,20.76,8.22,29.45
		c6.77,11.59,17.89,19.8,30.46,23.18c4.35,0.97,9.19,1.93,14.02,1.93c8.22,0,15.96-1.93,23.22-5.31v-35.73
		c-2.9,2.41-6.29,4.35-9.68,5.79c-2.42,0.97-5.32,1.93-8.22,1.93c-2.42,0.48-4.35,0-6.77-0.48c-1.93-0.48-3.87-0.97-5.32-1.93
		C1079.74,118.73,1075.87,114.39,1074.42,109.56z"/>
	<path class="st0" d="M1168.23,109.56c-0.48-2.41-0.97-4.83-0.97-7.24c0-1.45,0-2.41,0.48-3.86c0.48-2.9,1.45-5.31,2.9-7.73
		s3.38-4.83,6.29-6.28l1.45-0.97c1.45-0.97,3.38-1.45,5.32-1.93c2.42-0.48,4.35-0.48,6.77-0.48c2.9,0.48,5.32,0.97,8.22,1.93
		c3.38,1.45,6.77,3.38,9.67,5.79V53.06c-7.25-3.38-14.99-5.31-23.21-5.31c-4.83,0-9.67,0.48-14.02,1.93
		c-6.77,1.93-13.05,4.83-18.37,9.17c-5.8,4.83-10.64,10.62-14.02,16.9c-1.93,3.86-3.38,7.73-4.35,11.59
		c-0.97,4.83-1.93,9.66-1.93,14.49c0,10.14,2.9,20.28,8.22,29.45c7.25,11.59,17.89,19.8,30.46,23.18c4.35,0.97,9.19,1.93,14.02,1.93
		c6.29,0,12.57-0.97,18.37-3.38c1.45-0.48,2.9-1.45,4.35-1.93v-35.73c-2.9,2.41-6.29,4.35-9.67,5.79c-2.42,0.97-5.32,1.93-8.22,1.93
		c-2.42,0.48-4.35,0-6.77-0.48c-1.93-0.48-3.87-0.97-5.32-1.93C1173.06,118.73,1169.68,114.39,1168.23,109.56z"/>
	<path class="st0" d="M35.78,109.56c-0.48-2.41-0.97-4.83-0.97-7.24c0-1.45,0-2.41,0-3.86c0.48-2.9,1.45-5.31,2.9-7.73
		c1.45-2.41,3.87-4.83,6.29-6.28l1.45-0.97c1.93-0.97,3.38-1.45,5.32-1.93c2.42-0.48,4.35-0.48,6.77-0.48
		c2.9,0.48,5.32,0.97,8.22,1.93c3.38,1.45,6.77,3.38,9.67,5.79V53.06c-7.25-3.38-14.99-5.31-23.21-5.31
		c-4.83,0-9.67,0.48-14.02,1.93c-6.77,1.93-13.05,4.83-18.37,9.17C14.5,63.68,9.67,69.47,6.29,76.23C4.35,80.1,2.9,83.96,1.93,87.82
		C0.97,92.66,0,97.49,0,102.32c0,10.62,2.9,20.76,8.22,29.45c7.25,11.59,17.89,19.8,30.46,23.18c4.35,0.97,9.19,1.93,14.02,1.93
		c6.29,0,12.57-0.97,18.37-3.38c1.45-0.48,2.9-1.45,4.35-1.93v-35.73c-2.9,2.41-6.29,4.35-9.67,5.79c-2.42,0.97-5.32,1.93-8.22,1.93
		c-2.42,0.48-4.35,0-6.77-0.48c-1.93-0.48-3.87-0.97-5.32-1.93C41.1,118.73,37.23,114.39,35.78,109.56z"/>
	<path class="st0" d="M138.29,110.04l0.97-4.83l2.42-10.14l2.42-8.69l2.9,12.07l1.93,6.76l0.97,2.9l2.42,8.69h-15.47L138.29,110.04z
		 M144.57,140.94h13.05l2.9,11.11l0.48,0.97h36.75L187.6,122.6l-24.17-72.43h-20.79h-17.41l-24.17,72.43l-10.15,30.42h36.75
		l1.45-4.83l1.93-7.24h11.6H144.57z"/>
	<path class="st0" d="M331.71,90.73V77.68h27.08V50.64h-61.9v102.37h34.81v-35.25h24.66V90.73H331.71z"/>
	<path class="st0" d="M395.54,26.02l16.44,21.73l28.04-24.14L423.58,1.88L395.54,26.02z"/>
	<path class="st0" d="M248.53,90.73V77.68h27.08V50.64H214.2v102.37h34.81v-35.25h24.66V90.73H248.53z"/>
	<path class="st0" d="M412.94,126.46v-12.07h24.66V89.28h-24.66v-11.6h27.08V50.64H378.6v102.37h63.35v-27.04h-29.01L412.94,126.46
		L412.94,126.46z"/>
</g>
</svg>
