<?xml version="1.0" encoding="utf-8"?>
<!-- Generator: Adobe Illustrator 27.2.0, SVG Export Plug-In . SVG Version: 6.00 Build 0)  -->
<svg version="1.1" id="Layer_1" xmlns="http://www.w3.org/2000/svg" xmlns:xlink="http://www.w3.org/1999/xlink" x="0px" y="0px"
	 viewBox="0 0 1920 1000" style="enable-background:new 0 0 1920 1000;" xml:space="preserve">
<style type="text/css">
	.st0{fill:#F5F2F3;}
</style>
<g>
	<path class="st0" d="M170,0v800c0,110.5,89.5,200,200,200h1473.57v-40.8h-48v-94.4c0.5-4.8,2.7-9.4,5.9-12.9
		c3-3.5,7.8-4.6,12.9-4.6l36.7-0.1c4.8-0.5,9.6,1.1,13.1,4.6c3.3,3.2,4.6,7.8,4.6,12.9v61.2h51.2v33.3h-51.2v40.8H1920V0H170z
		 M1795.47,13.5h124.5v33.3h-124.5V13.5z M1827.27,276.5c1.1,1.1,3.2,2.4,5.9,2.4h48.9c3.2,0,5.6-0.8,6.7-2.4
		c2.1-1.6,2.9-3.7,2.9-6.7v-32.7c0-2.6-0.5-5.1-2.4-6.4c-1.9-1.7-4.3-2.7-6.7-3l-1.6-33.3h20.5c4.5,0,9.1,1.9,12.6,5.1
		s5.9,7.8,5.9,12.9v82.1c0,4.6-2.1,9.1-5.6,12.1c-3.2,3.2-7.5,5.9-12.3,5.9h-87.7c-5.1,0-9.9-2.1-13.4-5.9
		c-2.9-3.3-4.8-7.5-5.1-12.1V213c0.3-4.9,1.9-9.4,5.1-12.9c3.5-3.5,8.3-5.4,13.4-5.4h21.2l-0.8,33c-3.5-0.2-6.4,0.8-7.5,3
		c-2.2,1.6-3,4-3,6.4v32.4C1824.27,272.2,1825.37,274.6,1827.27,276.5z M1891.57,369.9c0-2.6-0.7-4.3-2.9-6.4
		c-1-1.4-3.5-2.7-6.4-2.7h-86.4v-32.7h106.2c4.8,0,9.1,1.9,12.3,5.1c3.7,3.5,5.6,8.1,5.6,12.9v78.5c0,4.9-1.8,9.7-5.6,12.9
		c-3.2,3.5-7.5,5.1-12.3,5.1h-106.2v-33.3h86.5c2.9,0,5.3-0.8,6.4-2.4c1.8-1.6,2.9-4,2.9-6.7v-26.8L1891.57,369.9z M1919.97,754.7
		l-19.6,8.1v55.5l19.6,7.8v33.2l-113.7-46.4l-10.7-4.3v-7.2c0,0,0-29,0-28.9l10.7-4.6l113.7-46.2V754.7z M1919.97,708.3h-28.5V630
		l-2.4-5.4l-4.3-1.9h-5.9c-2.2-0.5-4.3,0.6-5.1,1.9c-1.3,1.6-2.1,3.5-2.4,5.4l-0.2-0.1v59.8c0,4.6-1.6,9.1-4.8,12.6
		c-3.5,3.3-8.3,5.4-12.9,5.4h-40c-5.1,0-9.9-2.2-13.4-6.2c-3.2-3.2-5.1-7.7-5.1-12.3V588.6h28.8v78.6c0,1.9,0.8,3.8,2.1,5.1
		c1.6,1.9,3.5,1.9,5.1,2.7h5.1c2.1,0.3,4-0.8,5.1-2.7c1.6-1.3,2.7-3.2,2.7-5.1v-59.8c0-4.9,1.8-9.4,4.8-12.9
		c3.4-3.3,8.3-5.1,13.1-5.4h40c4.5,0,9.1,1.9,12.3,5.4c3.7,3.8,5.9,8.1,5.9,12.9V708.3z M1914.37,568.1c-3.2,3.2-7.5,4.8-12.3,4.8
		h-87.7c-4.8,0-9.6-1.6-13.4-4.8c-3.2-3.7-4.8-8.3-5.1-13.4V474c0-4.8,1.9-9.1,5.1-12.6c3.5-3.7,8.3-5.9,13.4-5.9h21.2l-0.8,33.3
		c-3.5,0-5.9,0.8-7.5,2.9c-2.2,1.6-3,3.4-3,6.4v33.3c0,2.1,1.1,4.3,3,5.6c1.1,2.2,3.2,3.2,5.9,3.5h48.9c3.2,0,5.6-1.1,6.7-2.7
		c1.8-1.6,2.9-4,2.9-6.4v-33.3c0-2.4-0.8-4.6-2.4-6.2c-1.9-1.9-4.3-3-6.7-3l-1.6-33.5h20.5c4.5,0,9.7,2.1,12.6,5.6
		c3.5,2.4,5.9,7.5,5.9,12.1v81.6C1920.27,559.8,1918.17,564.6,1914.37,568.1z M1914.37,176.8c-3.2,3.5-7.5,5.4-12.3,5.4h-87.7
		c-5.1,0-9.9-1.9-13.4-5.4c-3.2-3.5-4.8-8.1-5.1-12.9V83.2c0-4.9,1.9-9.4,5.1-13.2c3.5-3.4,8.3-5.3,13.4-5.6h21.2l-0.8,33.5
		c-3.5,0-5.9,0.6-7.5,3c-2.2,0.8-3,3.5-3,6.2v32.8c0,2.4,0.9,4.9,3,6.2c1.1,1.9,3.2,3,5.9,3h48.9c3.2,0,5.6-1.1,6.7-3
		c2.1-1.4,2.9-3.8,2.9-6.2v-32.7c0-2.7-0.5-5.4-2.4-6.2c-1.9-1.9-4.3-3-6.7-3l-1.6-34.2h20.5c4.5,0.3,9.1,2.2,12.6,5.4
		c3.5,3.5,5.4,8.1,5.9,12.9v81.8C1920.27,169,1918.17,173.6,1914.37,176.8z"/>
	<polygon class="st0" points="1874.17,807.6 1874.17,773.8 1832.07,790.7 1838.27,792.6 	"/>
	<path class="st0" d="M1840.97,882.5c-1.6-1.6-2.9-2.4-5.1-2.4h-7c-1.3,0-3.2,0.8-5.1,2.4l-1.6,4.8h-0.3v38.6h21.8v-38.6
		C1843.67,885.7,1842.27,883,1840.97,882.5z"/>
</g>
</svg>
