<?xml version="1.0" encoding="utf-8"?>
<!-- Generator: Adobe Illustrator 27.2.0, SVG Export Plug-In . SVG Version: 6.00 Build 0)  -->
<svg version="1.1" id="Layer_1" xmlns="http://www.w3.org/2000/svg" xmlns:xlink="http://www.w3.org/1999/xlink" x="0px" y="0px"
	 viewBox="0 0 1085 150" style="enable-background:new 0 0 1085 150;" xml:space="preserve">
<style type="text/css">
	.st0{fill:#F5F2F3;}
</style>
<g>
	<path class="st0" d="M0,145.64V0h54.29c26.16,0,46.08,6.1,59.74,18.31c13.81,12.21,20.71,30.38,20.71,54.51s-6.9,42.3-20.71,54.51
		c-13.66,12.21-33.58,18.31-59.74,18.31H0z M37.5,114.24h16.57c15.7,0,26.74-3.42,33.14-10.25c6.4-6.83,9.59-17.22,9.59-31.18
		c0-13.81-3.2-24.13-9.59-30.96c-6.4-6.98-17.44-10.47-33.14-10.47H37.5V114.24z"/>
	<path class="st0" d="M152.61,145.64V0h108.57v31.4h-71.07v24.85h64.54v28.78h-64.54v29.21h71.07v31.4H152.61z"/>
	<path class="st0" d="M325.4,145.64L270.24,0h41.64l34.23,102.69L380.12,0h41.86l-55.16,145.64H325.4z"/>
	<path class="st0" d="M434.62,145.64V0h108.58v31.4h-71.08v24.85h64.53v28.78h-64.53v29.21h71.08v31.4H434.62z"/>
	<path class="st0" d="M564.02,145.64V0h37.5v113.15h60.17v32.49H564.02z"/>
	<path class="st0" d="M737.89,150c-15.84,0-29.65-3.2-41.42-9.59c-11.77-6.54-20.86-15.41-27.25-26.6
		c-6.4-11.34-9.59-24.27-9.59-38.81c0-14.53,3.2-27.4,9.59-38.59c6.54-11.34,15.62-20.2,27.25-26.6C708.24,3.27,722.05,0,737.89,0
		s29.65,3.27,41.42,9.81c11.77,6.4,20.86,15.26,27.25,26.6c6.4,11.19,9.59,24.06,9.59,38.59c0,14.53-3.2,27.47-9.59,38.81
		c-6.4,11.19-15.48,20.06-27.25,26.6C767.54,146.8,753.74,150,737.89,150z M737.89,117.52c7.99,0,14.97-1.75,20.93-5.23
		c6.11-3.63,10.83-8.65,14.17-15.04c3.49-6.4,5.23-13.81,5.23-22.24c0-8.58-1.74-15.99-5.23-22.24c-3.34-6.4-8.07-11.34-14.17-14.83
		c-5.96-3.63-12.94-5.45-20.93-5.45s-15.04,1.82-21.15,5.45c-6.1,3.49-10.83,8.43-14.17,14.83c-3.34,6.25-5.01,13.66-5.01,22.24
		c0,8.43,1.67,15.84,5.01,22.24c3.34,6.4,8.07,11.41,14.17,15.04C722.85,115.77,729.9,117.52,737.89,117.52z"/>
	<path class="st0" d="M834.1,145.64V0h64.75c19.33,0,33.65,4.29,42.95,12.86c9.3,8.58,13.95,20.49,13.95,35.76
		c0,15.41-4.65,27.4-13.95,35.97s-23.62,12.86-42.95,12.86H871.6v48.18H834.1z M871.6,68.02h21.37c7.99,0,14.1-1.45,18.31-4.36
		c4.36-3.05,6.54-8.07,6.54-15.04c0-6.83-2.18-11.7-6.54-14.61c-4.21-3.05-10.32-4.58-18.31-4.58H871.6V68.02z"/>
	<path class="st0" d="M973.72,145.64V0h108.58v31.4h-71.08v24.85h64.54v28.78h-64.54v29.21h71.08v31.4H973.72z"/>
</g>
</svg>
