<?xml version="1.0" encoding="utf-8"?>
<!-- Generator: Adobe Illustrator 27.2.0, SVG Export Plug-In . SVG Version: 6.00 Build 0)  -->
<svg version="1.1" id="Layer_1" xmlns="http://www.w3.org/2000/svg" xmlns:xlink="http://www.w3.org/1999/xlink" x="0px" y="0px"
	 viewBox="0 0 675 150" style="enable-background:new 0 0 675 150;" xml:space="preserve">
<style type="text/css">
	.st0{fill-rule:evenodd;clip-rule:evenodd;fill:#F5F2F3;}
</style>
<path class="st0" d="M38.68,9.82c-11.63,6.39-20.71,15.26-27.25,26.6C5.04,47.6,1.84,60.47,1.84,75s3.2,27.47,9.59,38.8
	c6.39,11.19,15.48,20.06,27.25,26.6c11.77,6.4,25.58,9.59,41.42,9.59s29.65-3.2,41.42-9.59c11.77-6.54,20.86-15.4,27.25-26.6
	c6.39-11.34,9.59-24.27,9.59-38.8s-3.2-27.4-9.59-38.59c-6.4-11.34-15.48-20.2-27.25-26.6C109.75,3.28,95.95,0.01,80.1,0.01
	S50.46,3.28,38.68,9.82z M272.44,13.96c-9.74-7.85-23.83-11.77-42.29-11.77H165.4v145.62h37.5V94.84h12.21l35.75,52.97h80.75V2.19
	h-37.5v145.14l-40.2-55.54c1.39-0.38,2.73-0.8,4.04-1.25c8.66-2.99,15.45-7.52,20.38-13.58c5.81-7.12,8.72-16.64,8.72-28.56
	C287.05,33.14,282.18,21.66,272.44,13.96z M286.63,143.81l-39.34-54.36l5.57-1.53c9.99-2.74,17.34-7.29,22.37-13.49l0.01-0.01
	c5.08-6.22,7.82-14.76,7.82-26.03c0-14.35-4.53-24.54-13.09-31.31l-0.01-0.01l-0.01-0.01c-8.76-7.06-21.82-10.89-39.78-10.89H169.4
	v137.62h29.5V90.84h18.33l35.75,52.97H286.63z M298.11,143.81V6.19h29.5v137.62H298.11z M444.3,91.35v15.7
	c-3.49,3.49-7.56,6.1-12.21,7.85c-4.51,1.74-9.67,2.62-15.48,2.62c-7.99,0-15.04-1.74-21.15-5.23c-6.1-3.63-10.83-8.65-14.17-15.04
	c-3.34-6.39-5.01-13.81-5.01-22.24c0-8.57,1.67-15.99,5.01-22.24c3.34-6.39,8.07-11.34,14.17-14.82c6.1-3.63,13.15-5.45,21.15-5.45
	c6.54,0,13.3,0.87,20.27,2.62c5.98,1.46,12.07,3.75,18.25,6.86c1.18,0.59,2.36,1.21,3.55,1.86l12.64-28.12
	c-8.43-5.52-17.3-9.52-26.6-11.99c-9.16-2.47-18.53-3.71-28.12-3.71c-15.7,0-29.43,3.27-41.2,9.81
	c-11.77,6.39-20.93,15.26-27.47,26.6c-6.39,11.19-9.59,24.05-9.59,38.59s3.2,27.47,9.59,38.8c6.39,11.19,15.48,20.06,27.25,26.6
	c11.77,6.4,25.58,9.59,41.42,9.59c14.68,0,27.54-2.69,38.59-8.07c11.04-5.52,19.91-13.08,26.6-22.67V62.57h-67.36v28.78H444.3z
	 M418.44,87.35h29.87v21.35l-1.17,1.17c-3.89,3.89-8.44,6.82-13.61,8.76c-5.04,1.95-10.7,2.88-16.9,2.88
	c-8.59,0-16.34-1.88-23.13-5.76l-0.03-0.02l-0.03-0.02c-6.75-4.02-11.99-9.59-15.67-16.63c-3.69-7.06-5.47-15.12-5.47-24.09
	c0-9.09,1.77-17.17,5.48-24.11c3.68-7.04,8.92-12.54,15.69-16.41c6.79-4.03,14.55-5.99,23.16-5.99c6.89,0,13.98,0.92,21.23,2.73
	c6.25,1.53,12.57,3.9,18.93,7.09l9.48-21.08c-7.21-4.36-14.73-7.58-22.55-9.65l-0.01,0l-0.01,0c-8.81-2.38-17.84-3.57-27.08-3.57
	c-15.13,0-28.17,3.15-39.26,9.31l-0.02,0.01l-0.02,0.01c-11.14,6.05-19.75,14.4-25.91,25.08c-6,10.51-9.06,22.67-9.06,36.59
	c0,13.92,3.06,26.16,9.07,36.83c6.01,10.52,14.54,18.86,25.7,25.06c11.08,6.02,24.21,9.1,39.5,9.1c14.18,0,26.42-2.59,36.81-7.65
	c10.08-5.04,18.18-11.83,24.37-20.36v-51.4h-59.36V87.35z M145.3,111.83c6.01-10.67,9.07-22.91,9.07-36.83
	c0-13.93-3.06-26.09-9.07-36.6l-0.01-0.01l-0.01-0.01c-6.01-10.66-14.54-19-25.68-25.05l-0.02-0.01l-0.02-0.01
	C108.5,7.16,95.39,4.01,80.1,4.01s-28.4,3.15-39.48,9.31l-0.01,0l-0.01,0C29.62,19.37,21.07,27.72,14.9,38.41
	C8.9,48.92,5.84,61.08,5.84,75c0,13.92,3.06,26.16,9.07,36.83c6.01,10.52,14.55,18.87,25.7,25.07c11.08,6.02,24.21,9.1,39.49,9.1
	s28.41-3.08,39.49-9.1C130.75,130.7,139.28,122.35,145.3,111.83z M103.07,115.72l-0.01,0.01c-6.66,3.9-14.36,5.78-22.95,5.78
	c-8.59,0-16.34-1.88-23.13-5.76l-0.03-0.02l-0.03-0.02c-6.75-4.02-11.99-9.59-15.67-16.63c-3.69-7.06-5.47-15.12-5.47-24.09
	c0-9.09,1.77-17.17,5.48-24.11c3.68-7.04,8.92-12.54,15.69-16.41c6.79-4.03,14.55-5.99,23.16-5.99c8.6,0,16.3,1.96,22.96,6.01
	c6.75,3.87,11.98,9.35,15.65,16.37c3.86,6.94,5.71,15.04,5.71,24.14c0,8.98-1.86,17.06-5.7,24.12c-3.68,7.03-8.91,12.58-15.65,16.59
	L103.07,115.72z M115.2,97.24c3.49-6.39,5.23-13.81,5.23-22.24c0-8.57-1.74-15.99-5.23-22.24c-3.34-6.39-8.07-11.34-14.17-14.82
	c-5.96-3.63-12.93-5.45-20.93-5.45s-15.04,1.82-21.15,5.45c-6.1,3.49-10.83,8.43-14.17,14.82c-3.34,6.25-5.01,13.66-5.01,22.24
	c0,8.43,1.67,15.84,5.01,22.24c3.34,6.39,8.07,11.41,14.17,15.04c6.1,3.49,13.15,5.23,21.15,5.23s14.97-1.74,20.93-5.23
	C107.14,108.65,111.86,103.63,115.2,97.24z M198.9,69.63V27.62h25.36c9.27,0,16.82,1.34,21.57,4.93c5.04,3.7,7.28,9.34,7.28,16.07
	c0,6.79-2.35,12.44-7.56,16.11c-4.85,3.53-12.25,4.89-21.3,4.89H198.9z M243.45,35.76c-3.63-2.76-10.03-4.14-19.18-4.14H202.9v34.01
	h21.36c8.87,0,15.19-1.38,18.97-4.14c3.92-2.76,5.89-7.05,5.89-12.86S247.22,38.52,243.45,35.76z M495.06,6.19v137.62h29.5V6.19
	H495.06z M632.53,147.81h39.68V2.19h-37.5v88.94L581.52,2.19h-39.68v145.62h37.5V58.87L632.53,147.81z M575.34,143.81V44.39
	l59.46,99.43h33.41V6.19h-29.5v99.43L579.25,6.19h-33.41v137.62H575.34z M491.06,147.81h37.5V2.19h-37.5V147.81z"/>
</svg>
